<?xml version="1.0" encoding="UTF-8"?>
<svg xmlns="http://www.w3.org/2000/svg" xmlns:xlink="http://www.w3.org/1999/xlink" viewBox="0 0 306.98 121.71">
  <defs>
    <style>
      .cls-1 {
        fill: #7e8fa4;
        opacity: .51;
      }

      .cls-2 {
        fill: #085370;
      }

      .cls-3 {
        fill: #ecedf0;
        opacity: .05;
      }

      .cls-4 {
        fill: #39627d;
        opacity: .85;
      }

      .cls-5 {
        mix-blend-mode: multiply;
        opacity: .7;
      }

      .cls-6 {
        fill: #496a85;
        opacity: .78;
      }

      .cls-7 {
        fill: #70849b;
        opacity: .59;
      }

      .cls-8 {
        fill: #8393a8;
        opacity: .49;
      }

      .cls-9 {
        fill: #cacfd8;
        opacity: .17;
      }

      .cls-10 {
        fill: #f4f4f6;
        opacity: .02;
      }

      .cls-11 {
        fill: #fff;
        opacity: 0;
      }

      .cls-12 {
        fill: #adb6c4;
        opacity: .29;
      }

      .cls-13 {
        fill: #a7b1c0;
        opacity: .32;
      }

      .cls-14 {
        fill: #929fb2;
        opacity: .41;
      }

      .cls-15 {
        fill: #8d9bae;
        opacity: .44;
      }

      .cls-16 {
        isolation: isolate;
      }

      .cls-17 {
        fill: #a2acbc;
        opacity: .34;
      }

      .cls-18 {
        fill: #6b8098;
        opacity: .61;
      }

      .cls-19 {
        fill: url(#radial-gradient-3);
      }

      .cls-19, .cls-20, .cls-21 {
        stroke: #fff;
        stroke-miterlimit: 10;
      }

      .cls-22 {
        fill: #446782;
        opacity: .8;
      }

      .cls-23 {
        fill: #155572;
        opacity: .98;
      }

      .cls-24 {
        fill: #8897ab;
        opacity: .46;
      }

      .cls-25 {
        fill: #bec5d0;
        opacity: .22;
      }

      .cls-26 {
        fill: #265a76;
        opacity: .93;
      }

      .cls-27 {
        fill: #9ca8b9;
        opacity: .37;
      }

      .cls-28 {
        fill: #1f5774;
        opacity: .95;
      }

      .cls-29 {
        fill: #5d768f;
        opacity: .68;
      }

      .cls-30 {
        fill: #d1d5dc;
        opacity: .15;
      }

      .cls-31 {
        fill: #53708a;
        opacity: .73;
      }

      .cls-20 {
        fill: url(#radial-gradient-2);
      }

      .cls-32 {
        fill: #b3bbc8;
        opacity: .27;
      }

      .cls-33 {
        fill: #c4cad4;
        opacity: .2;
      }

      .cls-34 {
        fill: #97a4b5;
        opacity: .39;
      }

      .cls-35 {
        fill: #798ba1;
        opacity: .54;
      }

      .cls-36 {
        fill: #2d5c79;
        opacity: .9;
      }

      .cls-37 {
        fill: #627992;
        opacity: .66;
      }

      .cls-38 {
        fill: #e5e6ea;
        opacity: .07;
      }

      .cls-39 {
        fill: #dee0e5;
        opacity: .1;
      }

      .cls-40 {
        fill: #667d95;
        opacity: .63;
      }

      .cls-41 {
        fill: #3f6480;
        opacity: .83;
      }

      .cls-42 {
        fill: #b9c0cc;
        opacity: .24;
      }

      .cls-43 {
        fill: #74879e;
        opacity: .56;
      }

      .cls-21 {
        fill: url(#radial-gradient);
      }

      .cls-44 {
        fill: #58738d;
        opacity: .71;
      }

      .cls-45 {
        fill: #4e6d87;
        opacity: .76;
      }

      .cls-46 {
        fill: #335f7b;
        opacity: .88;
      }

      .cls-47 {
        fill: #d7dae1;
        opacity: .12;
      }
    </style>
    <radialGradient id="radial-gradient" cx="87.29" cy="73.73" fx="87.29" fy="73.73" r="91.74" gradientTransform="translate(0 22.83) scale(1 .69)" gradientUnits="userSpaceOnUse">
      <stop offset="0" stop-color="#fff"/>
      <stop offset=".27" stop-color="#f6fbfc"/>
      <stop offset=".68" stop-color="#e0f2f5"/>
      <stop offset="1" stop-color="#cbeaee"/>
    </radialGradient>
    <radialGradient id="radial-gradient-2" cx="229.04" cy="75.52" fx="229.04" fy="75.52" r="93.61" gradientTransform="translate(0 25.33) scale(1 .66)" gradientUnits="userSpaceOnUse">
      <stop offset="0" stop-color="#fff"/>
      <stop offset=".26" stop-color="#fafdfd"/>
      <stop offset=".56" stop-color="#ecf7f8"/>
      <stop offset=".89" stop-color="#d4eef1"/>
      <stop offset="1" stop-color="#cbeaee"/>
    </radialGradient>
    <radialGradient id="radial-gradient-3" cx="148.67" cy="68.92" fx="148.67" fy="68.92" r="100.46" gradientTransform="translate(0 13.95) scale(1 .8)" gradientUnits="userSpaceOnUse">
      <stop offset="0" stop-color="#fff"/>
      <stop offset=".29" stop-color="#fbfdfd"/>
      <stop offset=".56" stop-color="#f0f9fa"/>
      <stop offset=".81" stop-color="#def1f4"/>
      <stop offset="1" stop-color="#cbeaee"/>
    </radialGradient>
  </defs>
  <g class="cls-16">
    <g id="Layer_1" data-name="Layer 1">
      <g>
        <g class="cls-5">
          <path class="cls-11" d="m159.97,62.4c-1.29,0-2.53.18-3.71.49-2.02-12.36-12.81-21.79-25.82-21.79-7.45,0-14.17,3.1-18.93,8.06-3.35-3.67-8.15-5.99-13.51-5.99-3.46,0-6.69.98-9.44,2.65-5.3-7.96-14.1-13.18-24.07-13.18-13.95,0-25.62,10.2-28.58,23.87-1.44-.31-2.93-.48-4.46-.48-11.56,0-20.93,9.37-20.93,20.93s9.37,20.93,20.93,20.93c2.6,0,5.09-.48,7.38-1.34.03,10.77,9.73,19.49,21.69,19.49,7.96,0,14.92-3.87,18.69-9.63,4.57,4.42,10.67,7.12,17.38,7.12,8.52,0,16.06-4.36,20.72-11.06,3.62,4.2,8.86,6.85,14.69,6.85,10.7,0,19.41-8.9,19.75-20.02,2.35,1.59,5.19,2.52,8.24,2.52,8.12,0,14.71-6.59,14.71-14.71s-6.59-14.71-14.71-14.71Z"/>
          <path class="cls-10" d="m159.73,62.15c-1.29,0-2.53.18-3.71.49-2.02-12.36-12.81-21.79-25.82-21.79-7.45,0-14.17,3.1-18.93,8.06-3.35-3.67-8.15-5.99-13.51-5.99-3.46,0-6.69.98-9.44,2.65-5.3-7.96-14.1-13.18-24.07-13.18-13.95,0-25.62,10.2-28.58,23.87-1.44-.31-2.93-.48-4.46-.48-11.56,0-20.93,9.37-20.93,20.93s9.37,20.93,20.93,20.93c2.6,0,5.09-.48,7.38-1.34.03,10.77,9.73,19.49,21.69,19.49,7.96,0,14.92-3.87,18.69-9.63,4.57,4.42,10.67,7.12,17.38,7.12,8.52,0,16.06-4.36,20.72-11.06,3.62,4.2,8.86,6.85,14.69,6.85,10.7,0,19.41-8.9,19.75-20.02,2.35,1.59,5.19,2.52,8.24,2.52,8.12,0,14.71-6.59,14.71-14.71s-6.59-14.71-14.71-14.71Z"/>
          <path class="cls-3" d="m159.48,61.91c-1.29,0-2.53.18-3.71.49-2.02-12.36-12.81-21.79-25.82-21.79-7.45,0-14.17,3.1-18.93,8.06-3.35-3.67-8.15-5.99-13.51-5.99-3.46,0-6.69.98-9.44,2.65-5.3-7.96-14.1-13.18-24.07-13.18-13.95,0-25.62,10.2-28.58,23.87-1.44-.31-2.93-.48-4.46-.48-11.56,0-20.93,9.37-20.93,20.93s9.37,20.93,20.93,20.93c2.6,0,5.09-.48,7.38-1.34.03,10.77,9.73,19.49,21.69,19.49,7.96,0,14.92-3.87,18.69-9.63,4.57,4.42,10.67,7.12,17.38,7.12,8.52,0,16.06-4.36,20.72-11.06,3.62,4.2,8.86,6.85,14.69,6.85,10.7,0,19.41-8.9,19.75-20.02,2.35,1.59,5.19,2.52,8.24,2.52,8.12,0,14.71-6.59,14.71-14.71s-6.59-14.71-14.71-14.71Z"/>
          <path class="cls-38" d="m159.24,61.67c-1.29,0-2.53.18-3.71.49-2.02-12.36-12.81-21.79-25.82-21.79-7.45,0-14.17,3.1-18.93,8.06-3.35-3.67-8.15-5.99-13.51-5.99-3.46,0-6.69.98-9.44,2.65-5.3-7.96-14.1-13.18-24.07-13.18-13.95,0-25.62,10.2-28.58,23.87-1.44-.31-2.93-.48-4.46-.48-11.56,0-20.93,9.37-20.93,20.93s9.37,20.93,20.93,20.93c2.6,0,5.09-.48,7.38-1.34.03,10.77,9.73,19.49,21.69,19.49,7.96,0,14.92-3.87,18.69-9.63,4.57,4.42,10.67,7.12,17.38,7.12,8.52,0,16.06-4.36,20.72-11.06,3.62,4.2,8.86,6.85,14.69,6.85,10.7,0,19.41-8.9,19.75-20.02,2.35,1.59,5.19,2.52,8.24,2.52,8.12,0,14.71-6.59,14.71-14.71s-6.59-14.71-14.71-14.71Z"/>
          <path class="cls-39" d="m159,61.42c-1.29,0-2.53.18-3.71.49-2.02-12.36-12.81-21.79-25.82-21.79-7.45,0-14.17,3.1-18.93,8.06-3.35-3.67-8.15-5.99-13.51-5.99-3.46,0-6.69.98-9.44,2.65-5.3-7.96-14.1-13.18-24.07-13.18-13.95,0-25.62,10.2-28.58,23.87-1.44-.31-2.93-.48-4.46-.48-11.56,0-20.93,9.37-20.93,20.93s9.37,20.93,20.93,20.93c2.6,0,5.09-.48,7.38-1.34.03,10.77,9.73,19.49,21.69,19.49,7.96,0,14.92-3.87,18.69-9.63,4.57,4.42,10.67,7.12,17.38,7.12,8.52,0,16.06-4.36,20.72-11.06,3.62,4.2,8.86,6.85,14.69,6.85,10.7,0,19.41-8.9,19.75-20.02,2.35,1.59,5.19,2.52,8.24,2.52,8.12,0,14.71-6.59,14.71-14.71s-6.59-14.71-14.71-14.71Z"/>
          <path class="cls-47" d="m158.75,61.18c-1.29,0-2.53.18-3.71.49-2.02-12.36-12.81-21.79-25.82-21.79-7.45,0-14.17,3.1-18.93,8.06-3.35-3.67-8.15-5.99-13.51-5.99-3.46,0-6.69.98-9.44,2.65-5.3-7.96-14.1-13.18-24.07-13.18-13.95,0-25.62,10.2-28.58,23.87-1.44-.31-2.93-.48-4.46-.48-11.56,0-20.93,9.37-20.93,20.93s9.37,20.93,20.93,20.93c2.6,0,5.09-.48,7.38-1.34.03,10.77,9.73,19.49,21.69,19.49,7.96,0,14.92-3.87,18.69-9.63,4.57,4.42,10.67,7.12,17.38,7.12,8.52,0,16.06-4.36,20.72-11.06,3.62,4.2,8.86,6.85,14.69,6.85,10.7,0,19.41-8.9,19.75-20.02,2.35,1.59,5.19,2.52,8.24,2.52,8.12,0,14.71-6.59,14.71-14.71s-6.59-14.71-14.71-14.71Z"/>
          <path class="cls-30" d="m158.51,60.93c-1.29,0-2.53.18-3.71.49-2.02-12.36-12.81-21.79-25.82-21.79-7.45,0-14.17,3.1-18.93,8.06-3.35-3.67-8.15-5.99-13.51-5.99-3.46,0-6.69.98-9.44,2.65-5.3-7.96-14.1-13.18-24.07-13.18-13.95,0-25.62,10.2-28.58,23.87-1.44-.31-2.93-.48-4.46-.48-11.56,0-20.93,9.37-20.93,20.93s9.37,20.93,20.93,20.93c2.6,0,5.09-.48,7.38-1.34.03,10.77,9.73,19.49,21.69,19.49,7.96,0,14.92-3.87,18.69-9.63,4.57,4.42,10.67,7.12,17.38,7.12,8.52,0,16.06-4.36,20.72-11.06,3.62,4.2,8.86,6.85,14.69,6.85,10.7,0,19.41-8.9,19.75-20.02,2.35,1.59,5.19,2.52,8.24,2.52,8.12,0,14.71-6.59,14.71-14.71s-6.59-14.71-14.71-14.71Z"/>
          <path class="cls-9" d="m158.26,60.69c-1.29,0-2.53.18-3.71.49-2.02-12.36-12.81-21.79-25.82-21.79-7.45,0-14.17,3.1-18.93,8.06-3.35-3.67-8.15-5.99-13.51-5.99-3.46,0-6.69.98-9.44,2.65-5.3-7.96-14.1-13.18-24.07-13.18-13.95,0-25.62,10.2-28.58,23.87-1.44-.31-2.93-.48-4.46-.48-11.56,0-20.93,9.37-20.93,20.93s9.37,20.93,20.93,20.93c2.6,0,5.09-.48,7.38-1.34.03,10.77,9.73,19.49,21.69,19.49,7.96,0,14.92-3.87,18.69-9.63,4.57,4.42,10.67,7.12,17.38,7.12,8.52,0,16.06-4.36,20.72-11.06,3.62,4.2,8.86,6.85,14.69,6.85,10.7,0,19.41-8.9,19.75-20.02,2.35,1.59,5.19,2.52,8.24,2.52,8.12,0,14.71-6.59,14.71-14.71s-6.59-14.71-14.71-14.71Z"/>
          <path class="cls-33" d="m158.02,60.45c-1.29,0-2.53.18-3.71.49-2.02-12.36-12.81-21.79-25.82-21.79-7.45,0-14.17,3.1-18.93,8.06-3.35-3.67-8.15-5.99-13.51-5.99-3.46,0-6.69.98-9.44,2.65-5.3-7.96-14.1-13.18-24.07-13.18-13.95,0-25.62,10.2-28.58,23.87-1.44-.31-2.93-.48-4.46-.48-11.56,0-20.93,9.37-20.93,20.93s9.37,20.93,20.93,20.93c2.6,0,5.09-.48,7.38-1.34.03,10.77,9.73,19.49,21.69,19.49,7.96,0,14.92-3.87,18.69-9.63,4.57,4.42,10.67,7.12,17.38,7.12,8.52,0,16.06-4.36,20.72-11.06,3.62,4.2,8.86,6.85,14.69,6.85,10.7,0,19.41-8.9,19.75-20.02,2.35,1.59,5.19,2.52,8.24,2.52,8.12,0,14.71-6.59,14.71-14.71s-6.59-14.71-14.71-14.71Z"/>
          <path class="cls-25" d="m157.78,60.2c-1.29,0-2.53.18-3.71.49-2.02-12.36-12.81-21.79-25.82-21.79-7.45,0-14.17,3.1-18.93,8.06-3.35-3.67-8.15-5.99-13.51-5.99-3.46,0-6.69.98-9.44,2.65-5.3-7.96-14.1-13.18-24.07-13.18-13.95,0-25.62,10.2-28.58,23.87-1.44-.31-2.93-.48-4.46-.48-11.56,0-20.93,9.37-20.93,20.93s9.37,20.93,20.93,20.93c2.6,0,5.09-.48,7.38-1.34.03,10.77,9.73,19.49,21.69,19.49,7.96,0,14.92-3.87,18.69-9.63,4.57,4.42,10.67,7.12,17.38,7.12,8.52,0,16.06-4.36,20.72-11.06,3.62,4.2,8.86,6.85,14.69,6.85,10.7,0,19.41-8.9,19.75-20.02,2.35,1.59,5.19,2.52,8.24,2.52,8.12,0,14.71-6.59,14.71-14.71s-6.59-14.71-14.71-14.71Z"/>
          <path class="cls-42" d="m157.53,59.96c-1.29,0-2.53.18-3.71.49-2.02-12.36-12.81-21.79-25.82-21.79-7.45,0-14.17,3.1-18.93,8.06-3.35-3.67-8.15-5.99-13.51-5.99-3.46,0-6.69.98-9.44,2.65-5.3-7.96-14.1-13.18-24.07-13.18-13.95,0-25.62,10.2-28.58,23.87-1.44-.31-2.93-.48-4.46-.48-11.56,0-20.93,9.37-20.93,20.93s9.37,20.93,20.93,20.93c2.6,0,5.09-.48,7.38-1.34.03,10.77,9.73,19.49,21.69,19.49,7.96,0,14.92-3.87,18.69-9.63,4.57,4.42,10.67,7.12,17.38,7.12,8.52,0,16.06-4.36,20.72-11.06,3.62,4.2,8.86,6.85,14.69,6.85,10.7,0,19.41-8.9,19.75-20.02,2.35,1.59,5.19,2.52,8.24,2.52,8.12,0,14.71-6.59,14.71-14.71s-6.59-14.71-14.71-14.71Z"/>
          <path class="cls-32" d="m157.29,59.72c-1.29,0-2.53.18-3.71.49-2.02-12.36-12.81-21.79-25.82-21.79-7.45,0-14.17,3.1-18.93,8.06-3.35-3.67-8.15-5.99-13.51-5.99-3.46,0-6.69.98-9.44,2.65-5.3-7.96-14.1-13.18-24.07-13.18-13.95,0-25.62,10.2-28.58,23.87-1.44-.31-2.93-.48-4.46-.48-11.56,0-20.93,9.37-20.93,20.93s9.37,20.93,20.93,20.93c2.6,0,5.09-.48,7.38-1.34.03,10.77,9.73,19.49,21.69,19.49,7.96,0,14.92-3.87,18.69-9.63,4.57,4.42,10.67,7.12,17.38,7.12,8.52,0,16.06-4.36,20.72-11.06,3.62,4.2,8.86,6.85,14.69,6.85,10.7,0,19.41-8.9,19.75-20.02,2.35,1.59,5.19,2.52,8.24,2.52,8.12,0,14.71-6.59,14.71-14.71s-6.59-14.71-14.71-14.71Z"/>
          <path class="cls-12" d="m157.04,59.47c-1.29,0-2.53.18-3.71.49-2.02-12.36-12.81-21.79-25.82-21.79-7.45,0-14.17,3.1-18.93,8.06-3.35-3.67-8.15-5.99-13.51-5.99-3.46,0-6.69.98-9.44,2.65-5.3-7.96-14.1-13.18-24.07-13.18-13.95,0-25.62,10.2-28.58,23.87-1.44-.31-2.93-.48-4.46-.48-11.56,0-20.93,9.37-20.93,20.93s9.37,20.93,20.93,20.93c2.6,0,5.09-.48,7.38-1.34.03,10.77,9.73,19.49,21.69,19.49,7.96,0,14.92-3.87,18.69-9.63,4.57,4.42,10.67,7.12,17.38,7.12,8.52,0,16.06-4.36,20.72-11.06,3.62,4.2,8.86,6.85,14.69,6.85,10.7,0,19.41-8.9,19.75-20.02,2.35,1.59,5.19,2.52,8.24,2.52,8.12,0,14.71-6.59,14.71-14.71s-6.59-14.71-14.71-14.71Z"/>
          <path class="cls-13" d="m156.8,59.23c-1.29,0-2.53.18-3.71.49-2.02-12.36-12.81-21.79-25.82-21.79-7.45,0-14.17,3.1-18.93,8.06-3.35-3.67-8.15-5.99-13.51-5.99-3.46,0-6.69.98-9.44,2.65-5.3-7.96-14.1-13.18-24.07-13.18-13.95,0-25.62,10.2-28.58,23.87-1.44-.31-2.93-.48-4.46-.48-11.56,0-20.93,9.37-20.93,20.93s9.37,20.93,20.93,20.93c2.6,0,5.09-.48,7.38-1.34.03,10.77,9.73,19.49,21.69,19.49,7.96,0,14.92-3.87,18.69-9.63,4.57,4.42,10.67,7.12,17.38,7.12,8.52,0,16.06-4.36,20.72-11.06,3.62,4.2,8.86,6.85,14.69,6.85,10.7,0,19.41-8.9,19.75-20.02,2.35,1.59,5.19,2.52,8.24,2.52,8.12,0,14.71-6.59,14.71-14.71s-6.59-14.71-14.71-14.71Z"/>
          <path class="cls-17" d="m156.56,58.98c-1.29,0-2.53.18-3.71.49-2.02-12.36-12.81-21.79-25.82-21.79-7.45,0-14.17,3.1-18.93,8.06-3.35-3.67-8.15-5.99-13.51-5.99-3.46,0-6.69.98-9.44,2.65-5.3-7.96-14.1-13.18-24.07-13.18-13.95,0-25.62,10.2-28.58,23.87-1.44-.31-2.93-.48-4.46-.48-11.56,0-20.93,9.37-20.93,20.93s9.37,20.93,20.93,20.93c2.6,0,5.09-.48,7.38-1.34.03,10.77,9.73,19.49,21.69,19.49,7.96,0,14.92-3.87,18.69-9.63,4.57,4.42,10.67,7.12,17.38,7.12,8.52,0,16.06-4.36,20.72-11.06,3.62,4.2,8.86,6.85,14.69,6.85,10.7,0,19.41-8.9,19.75-20.02,2.35,1.59,5.19,2.52,8.24,2.52,8.12,0,14.71-6.59,14.71-14.71s-6.59-14.71-14.71-14.71Z"/>
          <path class="cls-27" d="m156.31,58.74c-1.29,0-2.53.18-3.71.49-2.02-12.36-12.81-21.79-25.82-21.79-7.45,0-14.17,3.1-18.93,8.06-3.35-3.67-8.15-5.99-13.51-5.99-3.46,0-6.69.98-9.44,2.65-5.3-7.96-14.1-13.18-24.07-13.18-13.95,0-25.62,10.2-28.58,23.87-1.44-.31-2.93-.48-4.46-.48-11.56,0-20.93,9.37-20.93,20.93s9.37,20.93,20.93,20.93c2.6,0,5.09-.48,7.38-1.34.03,10.77,9.73,19.49,21.69,19.49,7.96,0,14.92-3.87,18.69-9.63,4.57,4.42,10.67,7.12,17.38,7.12,8.52,0,16.06-4.36,20.72-11.06,3.62,4.2,8.86,6.85,14.69,6.85,10.7,0,19.41-8.9,19.75-20.02,2.35,1.59,5.19,2.52,8.24,2.52,8.12,0,14.71-6.59,14.71-14.71s-6.59-14.71-14.71-14.71Z"/>
          <path class="cls-34" d="m156.07,58.5c-1.29,0-2.53.18-3.71.49-2.02-12.36-12.81-21.79-25.82-21.79-7.45,0-14.17,3.1-18.93,8.06-3.35-3.67-8.15-5.99-13.51-5.99-3.46,0-6.69.98-9.44,2.65-5.3-7.96-14.1-13.18-24.07-13.18-13.95,0-25.62,10.2-28.58,23.87-1.44-.31-2.93-.48-4.46-.48-11.56,0-20.93,9.37-20.93,20.93s9.37,20.93,20.93,20.93c2.6,0,5.09-.48,7.38-1.34.03,10.77,9.73,19.49,21.69,19.49,7.96,0,14.92-3.87,18.69-9.63,4.57,4.42,10.67,7.12,17.38,7.12,8.52,0,16.06-4.36,20.72-11.06,3.62,4.2,8.86,6.85,14.69,6.85,10.7,0,19.41-8.9,19.75-20.02,2.35,1.59,5.19,2.52,8.24,2.52,8.12,0,14.71-6.59,14.71-14.71s-6.59-14.71-14.71-14.71Z"/>
          <path class="cls-14" d="m155.82,58.25c-1.29,0-2.53.18-3.71.49-2.02-12.36-12.81-21.79-25.82-21.79-7.45,0-14.17,3.1-18.93,8.06-3.35-3.67-8.15-5.99-13.51-5.99-3.46,0-6.69.98-9.44,2.65-5.3-7.96-14.1-13.18-24.07-13.18-13.95,0-25.62,10.2-28.58,23.87-1.44-.31-2.93-.48-4.46-.48-11.56,0-20.93,9.37-20.93,20.93s9.37,20.93,20.93,20.93c2.6,0,5.09-.48,7.38-1.34.03,10.77,9.73,19.49,21.69,19.49,7.96,0,14.92-3.87,18.69-9.63,4.57,4.42,10.67,7.12,17.38,7.12,8.52,0,16.06-4.36,20.72-11.06,3.62,4.2,8.86,6.85,14.69,6.85,10.7,0,19.41-8.9,19.75-20.02,2.35,1.59,5.19,2.52,8.24,2.52,8.12,0,14.71-6.59,14.71-14.71s-6.59-14.71-14.71-14.71Z"/>
          <path class="cls-15" d="m155.58,58.01c-1.29,0-2.53.18-3.71.49-2.02-12.36-12.81-21.79-25.82-21.79-7.45,0-14.17,3.1-18.93,8.06-3.35-3.67-8.15-5.99-13.51-5.99-3.46,0-6.69.98-9.44,2.65-5.3-7.96-14.1-13.18-24.07-13.18-13.95,0-25.62,10.2-28.58,23.87-1.44-.31-2.93-.48-4.46-.48-11.56,0-20.93,9.37-20.93,20.93s9.37,20.93,20.93,20.93c2.6,0,5.09-.48,7.38-1.34.03,10.77,9.73,19.49,21.69,19.49,7.96,0,14.92-3.87,18.69-9.63,4.57,4.42,10.67,7.12,17.38,7.12,8.52,0,16.06-4.36,20.72-11.06,3.62,4.2,8.86,6.85,14.69,6.85,10.7,0,19.41-8.9,19.75-20.02,2.35,1.59,5.19,2.52,8.24,2.52,8.12,0,14.71-6.59,14.71-14.71s-6.59-14.71-14.71-14.71Z"/>
          <path class="cls-24" d="m155.34,57.76c-1.29,0-2.53.18-3.71.49-2.02-12.36-12.81-21.79-25.82-21.79-7.45,0-14.17,3.1-18.93,8.06-3.35-3.67-8.15-5.99-13.51-5.99-3.46,0-6.69.98-9.44,2.65-5.3-7.96-14.1-13.18-24.07-13.18-13.95,0-25.62,10.2-28.58,23.87-1.44-.31-2.93-.48-4.46-.48-11.56,0-20.93,9.37-20.93,20.93s9.37,20.93,20.93,20.93c2.6,0,5.09-.48,7.38-1.34.03,10.77,9.73,19.49,21.69,19.49,7.96,0,14.92-3.87,18.69-9.63,4.57,4.42,10.67,7.12,17.38,7.12,8.52,0,16.06-4.36,20.72-11.06,3.62,4.2,8.86,6.85,14.69,6.85,10.7,0,19.41-8.9,19.75-20.02,2.35,1.59,5.19,2.52,8.24,2.52,8.12,0,14.71-6.59,14.71-14.71s-6.59-14.71-14.71-14.71Z"/>
          <path class="cls-8" d="m155.09,57.52c-1.29,0-2.53.18-3.71.49-2.02-12.36-12.81-21.79-25.82-21.79-7.45,0-14.17,3.1-18.93,8.06-3.35-3.67-8.15-5.99-13.51-5.99-3.46,0-6.69.98-9.44,2.65-5.3-7.96-14.1-13.18-24.07-13.18-13.95,0-25.62,10.2-28.58,23.87-1.44-.31-2.93-.48-4.46-.48-11.56,0-20.93,9.37-20.93,20.93s9.37,20.93,20.93,20.93c2.6,0,5.09-.48,7.38-1.34.03,10.77,9.73,19.49,21.69,19.49,7.96,0,14.92-3.87,18.69-9.63,4.57,4.42,10.67,7.12,17.38,7.12,8.52,0,16.06-4.36,20.72-11.06,3.62,4.2,8.86,6.85,14.69,6.85,10.7,0,19.41-8.9,19.75-20.02,2.35,1.59,5.19,2.52,8.24,2.52,8.12,0,14.71-6.59,14.71-14.71s-6.59-14.71-14.71-14.71Z"/>
          <path class="cls-1" d="m154.85,57.28c-1.29,0-2.53.18-3.71.49-2.02-12.36-12.81-21.79-25.82-21.79-7.45,0-14.17,3.1-18.93,8.06-3.35-3.67-8.15-5.99-13.51-5.99-3.46,0-6.69.98-9.44,2.65-5.3-7.96-14.1-13.18-24.07-13.18-13.95,0-25.62,10.2-28.58,23.87-1.44-.31-2.93-.48-4.46-.48-11.56,0-20.93,9.37-20.93,20.93s9.37,20.93,20.93,20.93c2.6,0,5.09-.48,7.38-1.34.03,10.77,9.73,19.49,21.69,19.49,7.96,0,14.92-3.87,18.69-9.63,4.57,4.42,10.67,7.12,17.38,7.12,8.52,0,16.06-4.36,20.72-11.06,3.62,4.2,8.86,6.85,14.69,6.85,10.7,0,19.41-8.9,19.75-20.02,2.35,1.59,5.19,2.52,8.24,2.52,8.12,0,14.71-6.59,14.71-14.71s-6.59-14.71-14.71-14.71Z"/>
          <path class="cls-35" d="m154.61,57.03c-1.29,0-2.53.18-3.71.49-2.02-12.36-12.81-21.79-25.82-21.79-7.45,0-14.17,3.1-18.93,8.06-3.35-3.67-8.15-5.99-13.51-5.99-3.46,0-6.69.98-9.44,2.65-5.3-7.96-14.1-13.18-24.07-13.18-13.95,0-25.62,10.2-28.58,23.87-1.44-.31-2.93-.48-4.46-.48-11.56,0-20.93,9.37-20.93,20.93s9.37,20.93,20.93,20.93c2.6,0,5.09-.48,7.38-1.34.03,10.77,9.73,19.49,21.69,19.49,7.96,0,14.92-3.87,18.69-9.63,4.57,4.42,10.67,7.12,17.38,7.12,8.52,0,16.06-4.36,20.72-11.06,3.62,4.2,8.86,6.85,14.69,6.85,10.7,0,19.41-8.9,19.75-20.02,2.35,1.59,5.19,2.52,8.24,2.52,8.12,0,14.71-6.59,14.71-14.71s-6.59-14.71-14.71-14.71Z"/>
          <path class="cls-43" d="m154.36,56.79c-1.29,0-2.53.18-3.71.49-2.02-12.36-12.81-21.79-25.82-21.79-7.45,0-14.17,3.1-18.93,8.06-3.35-3.67-8.15-5.99-13.51-5.99-3.46,0-6.69.98-9.44,2.65-5.3-7.96-14.1-13.18-24.07-13.18-13.95,0-25.62,10.2-28.58,23.87-1.44-.31-2.93-.48-4.46-.48-11.56,0-20.93,9.37-20.93,20.93s9.37,20.93,20.93,20.93c2.6,0,5.09-.48,7.38-1.34.03,10.77,9.73,19.49,21.69,19.49,7.96,0,14.92-3.87,18.69-9.63,4.57,4.42,10.67,7.12,17.38,7.12,8.52,0,16.06-4.36,20.72-11.06,3.62,4.2,8.86,6.85,14.69,6.85,10.7,0,19.41-8.9,19.75-20.02,2.35,1.59,5.19,2.52,8.24,2.52,8.12,0,14.71-6.59,14.71-14.71s-6.59-14.71-14.71-14.71Z"/>
          <path class="cls-7" d="m154.12,56.54c-1.29,0-2.53.18-3.71.49-2.02-12.36-12.81-21.79-25.82-21.79-7.45,0-14.17,3.1-18.93,8.06-3.35-3.67-8.15-5.99-13.51-5.99-3.46,0-6.69.98-9.44,2.65-5.3-7.96-14.1-13.18-24.07-13.18-13.95,0-25.62,10.2-28.58,23.87-1.44-.31-2.93-.48-4.46-.48-11.56,0-20.93,9.37-20.93,20.93s9.37,20.93,20.93,20.93c2.6,0,5.09-.48,7.38-1.34.03,10.77,9.73,19.49,21.69,19.49,7.96,0,14.92-3.87,18.69-9.63,4.57,4.42,10.67,7.12,17.38,7.12,8.52,0,16.06-4.36,20.72-11.06,3.62,4.2,8.86,6.85,14.69,6.85,10.7,0,19.41-8.9,19.75-20.02,2.35,1.59,5.19,2.52,8.24,2.52,8.12,0,14.71-6.59,14.71-14.71s-6.59-14.71-14.71-14.71Z"/>
          <path class="cls-18" d="m153.87,56.3c-1.29,0-2.53.18-3.71.49-2.02-12.36-12.81-21.79-25.82-21.79-7.45,0-14.17,3.1-18.93,8.06-3.35-3.67-8.15-5.99-13.51-5.99-3.46,0-6.69.98-9.44,2.65-5.3-7.96-14.1-13.18-24.07-13.18-13.95,0-25.62,10.2-28.58,23.87-1.44-.31-2.93-.48-4.46-.48-11.56,0-20.93,9.37-20.93,20.93s9.37,20.93,20.93,20.93c2.6,0,5.09-.48,7.38-1.34.03,10.77,9.73,19.49,21.69,19.49,7.96,0,14.92-3.87,18.69-9.63,4.57,4.42,10.67,7.12,17.38,7.12,8.52,0,16.06-4.36,20.72-11.06,3.62,4.2,8.86,6.85,14.69,6.85,10.7,0,19.41-8.9,19.75-20.02,2.35,1.59,5.19,2.52,8.24,2.52,8.12,0,14.71-6.59,14.71-14.71s-6.59-14.71-14.71-14.71Z"/>
          <path class="cls-40" d="m153.63,56.06c-1.29,0-2.53.18-3.71.49-2.02-12.36-12.81-21.79-25.82-21.79-7.45,0-14.17,3.1-18.93,8.06-3.35-3.67-8.15-5.99-13.51-5.99-3.46,0-6.69.98-9.44,2.65-5.3-7.96-14.1-13.18-24.07-13.18-13.95,0-25.62,10.2-28.58,23.87-1.44-.31-2.93-.48-4.46-.48-11.56,0-20.93,9.37-20.93,20.93s9.37,20.93,20.93,20.93c2.6,0,5.09-.48,7.38-1.34.03,10.77,9.73,19.49,21.69,19.49,7.96,0,14.92-3.87,18.69-9.63,4.57,4.42,10.67,7.12,17.38,7.12,8.52,0,16.06-4.36,20.72-11.06,3.62,4.2,8.86,6.85,14.69,6.85,10.7,0,19.41-8.9,19.75-20.02,2.35,1.59,5.19,2.52,8.24,2.52,8.12,0,14.71-6.59,14.71-14.71s-6.59-14.71-14.71-14.71Z"/>
          <path class="cls-37" d="m153.39,55.81c-1.29,0-2.53.18-3.71.49-2.02-12.36-12.81-21.79-25.82-21.79-7.45,0-14.17,3.1-18.93,8.06-3.35-3.67-8.15-5.99-13.51-5.99-3.46,0-6.69.98-9.44,2.65-5.3-7.96-14.1-13.18-24.07-13.18-13.95,0-25.62,10.2-28.58,23.87-1.44-.31-2.93-.48-4.46-.48-11.56,0-20.93,9.37-20.93,20.93s9.37,20.93,20.93,20.93c2.6,0,5.09-.48,7.38-1.34.03,10.77,9.73,19.49,21.69,19.49,7.96,0,14.92-3.87,18.69-9.63,4.57,4.42,10.67,7.12,17.38,7.12,8.52,0,16.06-4.36,20.72-11.06,3.62,4.2,8.86,6.85,14.69,6.85,10.7,0,19.41-8.9,19.75-20.02,2.35,1.59,5.19,2.52,8.24,2.52,8.12,0,14.71-6.59,14.71-14.71s-6.59-14.71-14.71-14.71Z"/>
          <path class="cls-29" d="m153.14,55.57c-1.29,0-2.53.18-3.71.49-2.02-12.36-12.81-21.79-25.82-21.79-7.45,0-14.17,3.1-18.93,8.06-3.35-3.67-8.15-5.99-13.51-5.99-3.46,0-6.69.98-9.44,2.65-5.3-7.96-14.1-13.18-24.07-13.18-13.95,0-25.62,10.2-28.58,23.87-1.44-.31-2.93-.48-4.46-.48-11.56,0-20.93,9.37-20.93,20.93s9.37,20.93,20.93,20.93c2.6,0,5.09-.48,7.38-1.34.03,10.77,9.73,19.49,21.69,19.49,7.96,0,14.92-3.87,18.69-9.63,4.57,4.42,10.67,7.12,17.38,7.12,8.52,0,16.06-4.36,20.72-11.06,3.62,4.2,8.86,6.85,14.69,6.85,10.7,0,19.41-8.9,19.75-20.02,2.35,1.59,5.19,2.52,8.24,2.52,8.12,0,14.71-6.59,14.71-14.71s-6.59-14.71-14.71-14.71Z"/>
          <path class="cls-44" d="m152.9,55.33c-1.29,0-2.53.18-3.71.49-2.02-12.36-12.81-21.79-25.82-21.79-7.45,0-14.17,3.1-18.93,8.06-3.35-3.67-8.15-5.99-13.51-5.99-3.46,0-6.69.98-9.44,2.65-5.3-7.96-14.1-13.18-24.07-13.18-13.95,0-25.62,10.2-28.58,23.87-1.44-.31-2.93-.48-4.46-.48-11.56,0-20.93,9.37-20.93,20.93s9.37,20.93,20.93,20.93c2.6,0,5.09-.48,7.38-1.34.03,10.77,9.73,19.49,21.69,19.49,7.96,0,14.92-3.87,18.69-9.63,4.57,4.42,10.67,7.12,17.38,7.12,8.52,0,16.06-4.36,20.72-11.06,3.62,4.2,8.86,6.85,14.69,6.85,10.7,0,19.41-8.9,19.75-20.02,2.35,1.59,5.19,2.52,8.24,2.52,8.12,0,14.71-6.59,14.71-14.71s-6.59-14.71-14.71-14.71Z"/>
          <path class="cls-31" d="m152.65,55.08c-1.29,0-2.53.18-3.71.49-2.02-12.36-12.81-21.79-25.82-21.79-7.45,0-14.17,3.1-18.93,8.06-3.35-3.67-8.15-5.99-13.51-5.99-3.46,0-6.69.98-9.44,2.65-5.3-7.96-14.1-13.18-24.07-13.18-13.95,0-25.62,10.2-28.58,23.87-1.44-.31-2.93-.48-4.46-.48-11.56,0-20.93,9.37-20.93,20.93s9.37,20.93,20.93,20.93c2.6,0,5.09-.48,7.38-1.34.03,10.77,9.73,19.49,21.69,19.49,7.96,0,14.92-3.87,18.69-9.63,4.57,4.42,10.67,7.12,17.38,7.12,8.52,0,16.06-4.36,20.72-11.06,3.62,4.2,8.86,6.85,14.69,6.85,10.7,0,19.41-8.9,19.75-20.02,2.35,1.59,5.19,2.52,8.24,2.52,8.12,0,14.71-6.59,14.71-14.71s-6.59-14.71-14.71-14.71Z"/>
          <path class="cls-45" d="m152.41,54.84c-1.29,0-2.53.18-3.71.49-2.02-12.36-12.81-21.79-25.82-21.79-7.45,0-14.17,3.1-18.93,8.06-3.35-3.67-8.15-5.99-13.51-5.99-3.46,0-6.69.98-9.44,2.65-5.3-7.96-14.1-13.18-24.07-13.18-13.95,0-25.62,10.2-28.58,23.87-1.44-.31-2.93-.48-4.46-.48-11.56,0-20.93,9.37-20.93,20.93s9.37,20.93,20.93,20.93c2.6,0,5.09-.48,7.38-1.34.03,10.77,9.73,19.49,21.69,19.49,7.96,0,14.92-3.87,18.69-9.63,4.57,4.42,10.67,7.12,17.38,7.12,8.52,0,16.06-4.36,20.72-11.06,3.62,4.2,8.86,6.85,14.69,6.85,10.7,0,19.41-8.9,19.75-20.02,2.35,1.59,5.19,2.52,8.24,2.52,8.12,0,14.71-6.59,14.71-14.71s-6.59-14.71-14.71-14.71Z"/>
          <path class="cls-6" d="m152.17,54.59c-1.29,0-2.53.18-3.71.49-2.02-12.36-12.81-21.79-25.82-21.79-7.45,0-14.17,3.1-18.93,8.06-3.35-3.67-8.15-5.99-13.51-5.99-3.46,0-6.69.98-9.44,2.65-5.3-7.96-14.1-13.18-24.07-13.18-13.95,0-25.62,10.2-28.58,23.87-1.44-.31-2.93-.48-4.46-.48-11.56,0-20.93,9.37-20.93,20.93s9.37,20.93,20.93,20.93c2.6,0,5.09-.48,7.38-1.34.03,10.77,9.73,19.49,21.69,19.49,7.96,0,14.92-3.87,18.69-9.63,4.57,4.42,10.67,7.12,17.38,7.12,8.52,0,16.06-4.36,20.72-11.06,3.62,4.2,8.86,6.85,14.69,6.85,10.7,0,19.41-8.9,19.75-20.02,2.35,1.59,5.19,2.52,8.24,2.52,8.12,0,14.71-6.59,14.71-14.71s-6.59-14.71-14.71-14.71Z"/>
          <path class="cls-22" d="m151.92,54.35c-1.29,0-2.53.18-3.71.49-2.02-12.36-12.81-21.79-25.82-21.79-7.45,0-14.17,3.1-18.93,8.06-3.35-3.67-8.15-5.99-13.51-5.99-3.46,0-6.69.98-9.44,2.65-5.3-7.96-14.1-13.18-24.07-13.18-13.95,0-25.62,10.2-28.58,23.87-1.44-.31-2.93-.48-4.46-.48-11.56,0-20.93,9.37-20.93,20.93s9.37,20.93,20.93,20.93c2.6,0,5.09-.48,7.38-1.34.03,10.77,9.73,19.49,21.69,19.49,7.96,0,14.92-3.87,18.69-9.63,4.57,4.42,10.67,7.12,17.38,7.12,8.52,0,16.06-4.36,20.72-11.06,3.62,4.2,8.86,6.85,14.69,6.85,10.7,0,19.41-8.9,19.75-20.02,2.35,1.59,5.19,2.52,8.24,2.52,8.12,0,14.71-6.59,14.71-14.71s-6.59-14.71-14.71-14.71Z"/>
          <path class="cls-41" d="m151.68,54.11c-1.29,0-2.53.18-3.71.49-2.02-12.36-12.81-21.79-25.82-21.79-7.45,0-14.17,3.1-18.93,8.06-3.35-3.67-8.15-5.99-13.51-5.99-3.46,0-6.69.98-9.44,2.65-5.3-7.96-14.1-13.18-24.07-13.18-13.95,0-25.62,10.2-28.58,23.87-1.44-.31-2.93-.48-4.46-.48-11.56,0-20.93,9.37-20.93,20.93s9.37,20.93,20.93,20.93c2.6,0,5.09-.48,7.38-1.34.03,10.77,9.73,19.49,21.69,19.49,7.96,0,14.92-3.87,18.69-9.63,4.57,4.42,10.67,7.12,17.38,7.12,8.52,0,16.06-4.36,20.72-11.06,3.62,4.2,8.86,6.85,14.69,6.85,10.7,0,19.41-8.9,19.75-20.02,2.35,1.59,5.19,2.52,8.24,2.52,8.12,0,14.71-6.59,14.71-14.71s-6.59-14.71-14.71-14.71Z"/>
          <path class="cls-4" d="m151.43,53.86c-1.29,0-2.53.18-3.71.49-2.02-12.36-12.81-21.79-25.82-21.79-7.45,0-14.17,3.1-18.93,8.06-3.35-3.67-8.15-5.99-13.51-5.99-3.46,0-6.69.98-9.44,2.65-5.3-7.96-14.1-13.18-24.07-13.18-13.95,0-25.62,10.2-28.58,23.87-1.44-.31-2.93-.48-4.46-.48-11.56,0-20.93,9.37-20.93,20.93s9.37,20.93,20.93,20.93c2.6,0,5.09-.48,7.38-1.34.03,10.77,9.73,19.49,21.69,19.49,7.96,0,14.92-3.87,18.69-9.63,4.57,4.42,10.67,7.12,17.38,7.12,8.52,0,16.06-4.36,20.72-11.06,3.62,4.2,8.86,6.85,14.69,6.85,10.7,0,19.41-8.9,19.75-20.02,2.35,1.59,5.19,2.52,8.24,2.52,8.12,0,14.71-6.59,14.71-14.71s-6.59-14.71-14.71-14.71Z"/>
          <path class="cls-46" d="m151.19,53.62c-1.29,0-2.53.18-3.71.49-2.02-12.36-12.81-21.79-25.82-21.79-7.45,0-14.17,3.1-18.93,8.06-3.35-3.67-8.15-5.99-13.51-5.99-3.46,0-6.69.98-9.44,2.65-5.3-7.96-14.1-13.18-24.07-13.18-13.95,0-25.62,10.2-28.58,23.87-1.44-.31-2.93-.48-4.46-.48-11.56,0-20.93,9.37-20.93,20.93s9.37,20.93,20.93,20.93c2.6,0,5.09-.48,7.38-1.34.03,10.77,9.73,19.49,21.69,19.49,7.96,0,14.92-3.87,18.69-9.63,4.57,4.42,10.67,7.12,17.38,7.12,8.52,0,16.06-4.36,20.72-11.06,3.62,4.2,8.86,6.85,14.69,6.85,10.7,0,19.41-8.9,19.75-20.02,2.35,1.59,5.19,2.52,8.24,2.52,8.12,0,14.71-6.59,14.71-14.71s-6.59-14.71-14.71-14.71Z"/>
          <path class="cls-36" d="m150.95,53.37c-1.29,0-2.53.18-3.71.49-2.02-12.36-12.81-21.79-25.82-21.79-7.45,0-14.17,3.1-18.93,8.06-3.35-3.67-8.15-5.99-13.51-5.99-3.46,0-6.69.98-9.44,2.65-5.3-7.96-14.1-13.18-24.07-13.18-13.95,0-25.62,10.2-28.58,23.87-1.44-.31-2.93-.48-4.46-.48-11.56,0-20.93,9.37-20.93,20.93s9.37,20.93,20.93,20.93c2.6,0,5.09-.48,7.38-1.34.03,10.77,9.73,19.49,21.69,19.49,7.96,0,14.92-3.87,18.69-9.63,4.57,4.42,10.67,7.12,17.38,7.12,8.52,0,16.06-4.36,20.72-11.06,3.62,4.2,8.86,6.85,14.69,6.85,10.7,0,19.41-8.9,19.75-20.02,2.35,1.59,5.19,2.52,8.24,2.52,8.12,0,14.71-6.59,14.71-14.71s-6.59-14.71-14.71-14.71Z"/>
          <path class="cls-26" d="m150.7,53.13c-1.29,0-2.53.18-3.71.49-2.02-12.36-12.81-21.79-25.82-21.79-7.45,0-14.17,3.1-18.93,8.06-3.35-3.67-8.15-5.99-13.51-5.99-3.46,0-6.69.98-9.44,2.65-5.3-7.96-14.1-13.18-24.07-13.18-13.95,0-25.62,10.2-28.58,23.87-1.44-.31-2.93-.48-4.46-.48-11.56,0-20.93,9.37-20.93,20.93s9.37,20.93,20.93,20.93c2.6,0,5.09-.48,7.38-1.34.03,10.77,9.73,19.49,21.69,19.49,7.96,0,14.92-3.87,18.69-9.63,4.57,4.42,10.67,7.12,17.38,7.12,8.52,0,16.06-4.36,20.72-11.06,3.62,4.2,8.86,6.85,14.69,6.85,10.7,0,19.41-8.9,19.75-20.02,2.35,1.59,5.19,2.52,8.24,2.52,8.12,0,14.71-6.59,14.71-14.71s-6.59-14.71-14.71-14.71Z"/>
          <path class="cls-28" d="m150.46,52.89c-1.29,0-2.53.18-3.71.49-2.02-12.36-12.81-21.79-25.82-21.79-7.45,0-14.17,3.1-18.93,8.06-3.35-3.67-8.15-5.99-13.51-5.99-3.46,0-6.69.98-9.44,2.65-5.3-7.96-14.1-13.18-24.07-13.18-13.95,0-25.62,10.2-28.58,23.87-1.44-.31-2.93-.48-4.46-.48-11.56,0-20.93,9.37-20.93,20.93s9.37,20.93,20.93,20.93c2.6,0,5.09-.48,7.38-1.34.03,10.77,9.73,19.49,21.69,19.49,7.96,0,14.92-3.87,18.69-9.63,4.57,4.42,10.67,7.12,17.38,7.12,8.52,0,16.06-4.36,20.72-11.06,3.62,4.2,8.86,6.85,14.69,6.85,10.7,0,19.41-8.9,19.75-20.02,2.35,1.59,5.19,2.52,8.24,2.52,8.12,0,14.71-6.59,14.71-14.71s-6.59-14.71-14.71-14.71Z"/>
          <path class="cls-23" d="m150.21,52.64c-1.29,0-2.53.18-3.71.49-2.02-12.36-12.81-21.79-25.82-21.79-7.45,0-14.17,3.1-18.93,8.06-3.35-3.67-8.15-5.99-13.51-5.99-3.46,0-6.69.98-9.44,2.65-5.3-7.96-14.1-13.18-24.07-13.18-13.95,0-25.62,10.2-28.58,23.87-1.44-.31-2.93-.48-4.46-.48-11.56,0-20.93,9.37-20.93,20.93s9.37,20.93,20.93,20.93c2.6,0,5.09-.48,7.38-1.34.03,10.77,9.73,19.49,21.69,19.49,7.96,0,14.92-3.87,18.69-9.63,4.57,4.42,10.67,7.12,17.38,7.12,8.52,0,16.06-4.36,20.72-11.06,3.62,4.2,8.86,6.85,14.69,6.85,10.7,0,19.41-8.9,19.75-20.02,2.35,1.59,5.19,2.52,8.24,2.52,8.12,0,14.71-6.59,14.71-14.71s-6.59-14.71-14.71-14.71Z"/>
          <path class="cls-2" d="m149.97,52.4c-1.29,0-2.53.18-3.71.49-2.02-12.36-12.81-21.79-25.82-21.79-7.45,0-14.17,3.1-18.93,8.06-3.35-3.67-8.15-5.99-13.51-5.99-3.46,0-6.69.98-9.44,2.65-5.3-7.96-14.1-13.18-24.07-13.18-13.95,0-25.62,10.2-28.58,23.87-1.44-.31-2.93-.48-4.46-.48-11.56,0-20.93,9.37-20.93,20.93s9.37,20.93,20.93,20.93c2.6,0,5.09-.48,7.38-1.34.03,10.77,9.73,19.49,21.69,19.49,7.96,0,14.92-3.87,18.69-9.63,4.57,4.42,10.67,7.12,17.38,7.12,8.52,0,16.06-4.36,20.72-11.06,3.62,4.2,8.86,6.85,14.69,6.85,10.7,0,19.41-8.9,19.75-20.02,2.35,1.59,5.19,2.52,8.24,2.52,8.12,0,14.71-6.59,14.71-14.71s-6.59-14.71-14.71-14.71Z"/>
        </g>
        <path class="cls-21" d="m149.97,52.4c-1.29,0-2.53.18-3.71.49-2.02-12.36-12.81-21.79-25.82-21.79-7.45,0-14.17,3.1-18.93,8.06-3.35-3.67-8.15-5.99-13.51-5.99-3.46,0-6.69.98-9.44,2.65-5.3-7.96-14.1-13.18-24.07-13.18-13.95,0-25.62,10.2-28.58,23.87-1.44-.31-2.93-.48-4.46-.48-11.56,0-20.93,9.37-20.93,20.93s9.37,20.93,20.93,20.93c2.6,0,5.09-.48,7.38-1.34.03,10.77,9.73,19.49,21.69,19.49,7.96,0,14.92-3.87,18.69-9.63,4.57,4.42,10.67,7.12,17.38,7.12,8.52,0,16.06-4.36,20.72-11.06,3.62,4.2,8.86,6.85,14.69,6.85,10.7,0,19.41-8.9,19.75-20.02,2.35,1.59,5.19,2.52,8.24,2.52,8.12,0,14.71-6.59,14.71-14.71s-6.59-14.71-14.71-14.71Z"/>
      </g>
      <g>
        <g class="cls-5">
          <path class="cls-11" d="m305.51,82.82c-2.86-6.02-10-9.79-16.53-8.45-.11-6.86-4.11-13.52-10.11-16.85-5.8-3.22-13.25-3.19-19.05.01.09-1.2.1-2.42,0-3.66-1.02-12.7-12.14-22.18-24.84-21.16-10.12.81-18.19,8.04-20.54,17.37-5.27-2.63-11.11-2.67-15.44.48-3.01,2.19-4.78,5.54-5.29,9.33-1.88-.63-3.92-.89-6.02-.73-8.38.67-14.63,8.01-13.96,16.39.19,2.32.89,4.46,1.98,6.35-5.68,3.3-9.29,9.64-8.73,16.62.78,9.69,9.26,16.92,18.95,16.14,3.72-.3,7.07-1.74,9.75-3.94,2.88,2.39,6.23,4.05,9.67,4.69,6.49,1.2,13.33.65,19.47-1.73,3.36,5.79,11.27,9.1,19.75,7.69,6.07-1.01,11.07-4.23,13.91-8.38.95-.98,1.8-2.07,2.53-3.22,2.98,2.6,6.97,4.06,11.22,3.72,5.14-.41,9.48-3.34,11.91-7.47,6.31,1.78,13.58.03,18.14-4.68,4.64-4.79,6.1-12.5,3.24-18.52Z"/>
          <path class="cls-10" d="m305.27,82.57c-2.86-6.02-10-9.79-16.53-8.45-.11-6.86-4.11-13.52-10.11-16.85-5.8-3.22-13.25-3.19-19.05.01.09-1.2.1-2.42,0-3.66-1.02-12.7-12.14-22.18-24.84-21.16-10.12.81-18.19,8.04-20.54,17.37-5.27-2.63-11.11-2.67-15.44.48-3.01,2.19-4.78,5.54-5.29,9.33-1.88-.63-3.92-.89-6.02-.73-8.38.67-14.63,8.01-13.96,16.39.19,2.32.89,4.46,1.98,6.35-5.68,3.3-9.29,9.64-8.73,16.62.78,9.69,9.26,16.92,18.95,16.14,3.72-.3,7.07-1.74,9.75-3.94,2.88,2.39,6.23,4.05,9.67,4.69,6.49,1.2,13.33.65,19.47-1.73,3.36,5.79,11.27,9.1,19.75,7.69,6.07-1.01,11.07-4.23,13.91-8.38.95-.98,1.8-2.07,2.53-3.22,2.98,2.6,6.97,4.06,11.22,3.72,5.14-.41,9.48-3.34,11.91-7.47,6.31,1.78,13.58.03,18.14-4.68,4.64-4.79,6.1-12.5,3.24-18.52Z"/>
          <path class="cls-3" d="m305.02,82.33c-2.86-6.02-10-9.79-16.53-8.45-.11-6.86-4.11-13.52-10.11-16.85-5.8-3.22-13.25-3.19-19.05.01.09-1.2.1-2.42,0-3.66-1.02-12.7-12.14-22.18-24.84-21.16-10.12.81-18.19,8.04-20.54,17.37-5.27-2.63-11.11-2.67-15.44.48-3.01,2.19-4.78,5.54-5.29,9.33-1.88-.63-3.92-.89-6.02-.73-8.38.67-14.63,8.01-13.96,16.39.19,2.32.89,4.46,1.98,6.35-5.68,3.3-9.29,9.64-8.73,16.62.78,9.69,9.26,16.92,18.95,16.14,3.72-.3,7.07-1.74,9.75-3.94,2.88,2.39,6.23,4.05,9.67,4.69,6.49,1.2,13.33.65,19.47-1.73,3.36,5.79,11.27,9.1,19.75,7.69,6.07-1.01,11.07-4.23,13.91-8.38.95-.98,1.8-2.07,2.53-3.22,2.98,2.6,6.97,4.06,11.22,3.72,5.14-.41,9.48-3.34,11.91-7.47,6.31,1.78,13.58.03,18.14-4.68,4.64-4.79,6.1-12.5,3.24-18.52Z"/>
          <path class="cls-38" d="m304.78,82.09c-2.86-6.02-10-9.79-16.53-8.45-.11-6.86-4.11-13.52-10.11-16.85-5.8-3.22-13.25-3.19-19.05.01.09-1.2.1-2.42,0-3.66-1.02-12.7-12.14-22.18-24.84-21.16-10.12.81-18.19,8.04-20.54,17.37-5.27-2.63-11.11-2.67-15.44.48-3.01,2.19-4.78,5.54-5.29,9.33-1.88-.63-3.92-.89-6.02-.73-8.38.67-14.63,8.01-13.96,16.39.19,2.32.89,4.46,1.98,6.35-5.68,3.3-9.29,9.64-8.73,16.62.78,9.69,9.26,16.92,18.95,16.14,3.72-.3,7.07-1.74,9.75-3.94,2.88,2.39,6.23,4.05,9.67,4.69,6.49,1.2,13.33.65,19.47-1.73,3.36,5.79,11.27,9.1,19.75,7.69,6.07-1.01,11.07-4.23,13.91-8.38.95-.98,1.8-2.07,2.53-3.22,2.98,2.6,6.97,4.06,11.22,3.72,5.14-.41,9.48-3.34,11.91-7.47,6.31,1.78,13.58.03,18.14-4.68,4.64-4.79,6.1-12.5,3.24-18.52Z"/>
          <path class="cls-39" d="m304.54,81.84c-2.86-6.02-10-9.79-16.53-8.45-.11-6.86-4.11-13.52-10.11-16.85-5.8-3.22-13.25-3.19-19.05.01.09-1.2.1-2.42,0-3.66-1.02-12.7-12.14-22.18-24.84-21.16-10.12.81-18.19,8.04-20.54,17.37-5.27-2.63-11.11-2.67-15.44.48-3.01,2.19-4.78,5.54-5.29,9.33-1.88-.63-3.92-.89-6.02-.73-8.38.67-14.63,8.01-13.96,16.39.19,2.32.89,4.46,1.98,6.35-5.68,3.3-9.29,9.64-8.73,16.62.78,9.69,9.26,16.92,18.95,16.14,3.72-.3,7.07-1.74,9.75-3.94,2.88,2.39,6.23,4.05,9.67,4.69,6.49,1.2,13.33.65,19.47-1.73,3.36,5.79,11.27,9.1,19.75,7.69,6.07-1.01,11.07-4.23,13.91-8.38.95-.98,1.8-2.07,2.53-3.22,2.98,2.6,6.97,4.06,11.22,3.72,5.14-.41,9.48-3.34,11.91-7.47,6.31,1.78,13.58.03,18.14-4.68,4.64-4.79,6.1-12.5,3.24-18.52Z"/>
          <path class="cls-47" d="m304.29,81.6c-2.86-6.02-10-9.79-16.53-8.45-.11-6.86-4.11-13.52-10.11-16.85-5.8-3.22-13.25-3.19-19.05.01.09-1.2.1-2.42,0-3.66-1.02-12.7-12.14-22.18-24.84-21.16-10.12.81-18.19,8.04-20.54,17.37-5.27-2.63-11.11-2.67-15.44.48-3.01,2.19-4.78,5.54-5.29,9.33-1.88-.63-3.92-.89-6.02-.73-8.38.67-14.63,8.01-13.96,16.39.19,2.32.89,4.46,1.98,6.35-5.68,3.3-9.29,9.64-8.73,16.62.78,9.69,9.26,16.92,18.95,16.14,3.72-.3,7.07-1.74,9.75-3.94,2.88,2.39,6.23,4.05,9.67,4.69,6.49,1.2,13.33.65,19.47-1.73,3.36,5.79,11.27,9.1,19.75,7.69,6.07-1.01,11.07-4.23,13.91-8.38.95-.98,1.8-2.07,2.53-3.22,2.98,2.6,6.97,4.06,11.22,3.72,5.14-.41,9.48-3.34,11.91-7.47,6.31,1.78,13.58.03,18.14-4.68,4.64-4.79,6.1-12.5,3.24-18.52Z"/>
          <path class="cls-30" d="m304.05,81.35c-2.86-6.02-10-9.79-16.53-8.45-.11-6.86-4.11-13.52-10.11-16.85-5.8-3.22-13.25-3.19-19.05.01.09-1.2.1-2.42,0-3.66-1.02-12.7-12.14-22.18-24.84-21.16-10.12.81-18.19,8.04-20.54,17.37-5.27-2.63-11.11-2.67-15.44.48-3.01,2.19-4.78,5.54-5.29,9.33-1.88-.63-3.92-.89-6.02-.73-8.38.67-14.63,8.01-13.96,16.39.19,2.32.89,4.46,1.98,6.35-5.68,3.3-9.29,9.64-8.73,16.62.78,9.69,9.26,16.92,18.95,16.14,3.72-.3,7.07-1.74,9.75-3.94,2.88,2.39,6.23,4.05,9.67,4.69,6.49,1.2,13.33.65,19.47-1.73,3.36,5.79,11.27,9.1,19.75,7.69,6.07-1.01,11.07-4.23,13.91-8.38.95-.98,1.8-2.07,2.53-3.22,2.98,2.6,6.97,4.06,11.22,3.72,5.14-.41,9.48-3.34,11.91-7.47,6.31,1.78,13.58.03,18.14-4.68,4.64-4.79,6.1-12.5,3.24-18.52Z"/>
          <path class="cls-9" d="m303.8,81.11c-2.86-6.02-10-9.79-16.53-8.45-.11-6.86-4.11-13.52-10.11-16.85-5.8-3.22-13.25-3.19-19.05.01.09-1.2.1-2.42,0-3.66-1.02-12.7-12.14-22.18-24.84-21.16-10.12.81-18.19,8.04-20.54,17.37-5.27-2.63-11.11-2.67-15.44.48-3.01,2.19-4.78,5.54-5.29,9.33-1.88-.63-3.92-.89-6.02-.73-8.38.67-14.63,8.01-13.96,16.39.19,2.32.89,4.46,1.98,6.35-5.68,3.3-9.29,9.64-8.73,16.62.78,9.69,9.26,16.92,18.95,16.14,3.72-.3,7.07-1.74,9.75-3.94,2.88,2.39,6.23,4.05,9.67,4.69,6.49,1.2,13.33.65,19.47-1.73,3.36,5.79,11.27,9.1,19.75,7.69,6.07-1.01,11.07-4.23,13.91-8.38.95-.98,1.8-2.07,2.53-3.22,2.98,2.6,6.97,4.06,11.22,3.72,5.14-.41,9.48-3.34,11.91-7.47,6.31,1.78,13.58.03,18.14-4.68,4.64-4.79,6.1-12.5,3.24-18.52Z"/>
          <path class="cls-33" d="m303.56,80.87c-2.86-6.02-10-9.79-16.53-8.45-.11-6.86-4.11-13.52-10.11-16.85-5.8-3.22-13.25-3.19-19.05.01.09-1.2.1-2.42,0-3.66-1.02-12.7-12.14-22.18-24.84-21.16-10.12.81-18.19,8.04-20.54,17.37-5.27-2.63-11.11-2.67-15.44.48-3.01,2.19-4.78,5.54-5.29,9.33-1.88-.63-3.92-.89-6.02-.73-8.38.67-14.63,8.01-13.96,16.39.19,2.32.89,4.46,1.98,6.35-5.68,3.3-9.29,9.64-8.73,16.62.78,9.69,9.26,16.92,18.95,16.14,3.72-.3,7.07-1.74,9.75-3.94,2.88,2.39,6.23,4.05,9.67,4.69,6.49,1.2,13.33.65,19.47-1.73,3.36,5.79,11.27,9.1,19.75,7.69,6.07-1.01,11.07-4.23,13.91-8.38.95-.98,1.8-2.07,2.53-3.22,2.98,2.6,6.97,4.06,11.22,3.72,5.14-.41,9.48-3.34,11.91-7.47,6.31,1.78,13.58.03,18.14-4.68,4.64-4.79,6.1-12.5,3.24-18.52Z"/>
          <path class="cls-25" d="m303.32,80.62c-2.86-6.02-10-9.79-16.53-8.45-.11-6.86-4.11-13.52-10.11-16.85-5.8-3.22-13.25-3.19-19.05.01.09-1.2.1-2.42,0-3.66-1.02-12.7-12.14-22.18-24.84-21.16-10.12.81-18.19,8.04-20.54,17.37-5.27-2.63-11.11-2.67-15.44.48-3.01,2.19-4.78,5.54-5.29,9.33-1.88-.63-3.92-.89-6.02-.73-8.38.67-14.63,8.01-13.96,16.39.19,2.32.89,4.46,1.98,6.35-5.68,3.3-9.29,9.64-8.73,16.62.78,9.69,9.26,16.92,18.95,16.14,3.72-.3,7.07-1.74,9.75-3.94,2.88,2.39,6.23,4.05,9.67,4.69,6.49,1.2,13.33.65,19.47-1.73,3.36,5.79,11.27,9.1,19.75,7.69,6.07-1.01,11.07-4.23,13.91-8.38.95-.98,1.8-2.07,2.53-3.22,2.98,2.6,6.97,4.06,11.22,3.72,5.14-.41,9.48-3.34,11.91-7.47,6.31,1.78,13.58.03,18.14-4.68,4.64-4.79,6.1-12.5,3.24-18.52Z"/>
          <path class="cls-42" d="m303.07,80.38c-2.86-6.02-10-9.79-16.53-8.45-.11-6.86-4.11-13.52-10.11-16.85-5.8-3.22-13.25-3.19-19.05.01.09-1.2.1-2.42,0-3.66-1.02-12.7-12.14-22.18-24.84-21.16-10.12.81-18.19,8.04-20.54,17.37-5.27-2.63-11.11-2.67-15.44.48-3.01,2.19-4.78,5.54-5.29,9.33-1.88-.63-3.92-.89-6.02-.73-8.38.67-14.63,8.01-13.96,16.39.19,2.32.89,4.46,1.98,6.35-5.68,3.3-9.29,9.64-8.73,16.62.78,9.69,9.26,16.92,18.95,16.14,3.72-.3,7.07-1.74,9.75-3.94,2.88,2.39,6.23,4.05,9.67,4.69,6.49,1.2,13.33.65,19.47-1.73,3.36,5.79,11.27,9.1,19.75,7.69,6.07-1.01,11.07-4.23,13.91-8.38.95-.98,1.8-2.07,2.53-3.22,2.98,2.6,6.97,4.06,11.22,3.72,5.14-.41,9.48-3.34,11.91-7.47,6.31,1.78,13.58.03,18.14-4.68,4.64-4.79,6.1-12.5,3.24-18.52Z"/>
          <path class="cls-32" d="m302.83,80.13c-2.86-6.02-10-9.79-16.53-8.45-.11-6.86-4.11-13.52-10.11-16.85-5.8-3.22-13.25-3.19-19.05.01.09-1.2.1-2.42,0-3.66-1.02-12.7-12.14-22.18-24.84-21.16-10.12.81-18.19,8.04-20.54,17.37-5.27-2.63-11.11-2.67-15.44.48-3.01,2.19-4.78,5.54-5.29,9.33-1.88-.63-3.92-.89-6.02-.73-8.38.67-14.63,8.01-13.96,16.39.19,2.32.89,4.46,1.98,6.35-5.68,3.3-9.29,9.64-8.73,16.62.78,9.69,9.26,16.92,18.95,16.14,3.72-.3,7.07-1.74,9.75-3.94,2.88,2.39,6.23,4.05,9.67,4.69,6.49,1.2,13.33.65,19.47-1.73,3.36,5.79,11.27,9.1,19.75,7.69,6.07-1.01,11.07-4.23,13.91-8.38.95-.98,1.8-2.07,2.53-3.22,2.98,2.6,6.97,4.06,11.22,3.72,5.14-.41,9.48-3.34,11.91-7.47,6.31,1.78,13.58.03,18.14-4.68,4.64-4.79,6.1-12.5,3.24-18.52Z"/>
          <path class="cls-12" d="m302.58,79.89c-2.86-6.02-10-9.79-16.53-8.45-.11-6.86-4.11-13.52-10.11-16.85-5.8-3.22-13.25-3.19-19.05.01.09-1.2.1-2.42,0-3.66-1.02-12.7-12.14-22.18-24.84-21.16-10.12.81-18.19,8.04-20.54,17.37-5.27-2.63-11.11-2.67-15.44.48-3.01,2.19-4.78,5.54-5.29,9.33-1.88-.63-3.92-.89-6.02-.73-8.38.67-14.63,8.01-13.96,16.39.19,2.32.89,4.46,1.98,6.35-5.68,3.3-9.29,9.64-8.73,16.62.78,9.69,9.26,16.92,18.95,16.14,3.72-.3,7.07-1.74,9.75-3.94,2.88,2.39,6.23,4.05,9.67,4.69,6.49,1.2,13.33.65,19.47-1.73,3.36,5.79,11.27,9.1,19.75,7.69,6.07-1.01,11.07-4.23,13.91-8.38.95-.98,1.8-2.07,2.53-3.22,2.98,2.6,6.97,4.06,11.22,3.72,5.14-.41,9.48-3.34,11.91-7.47,6.31,1.78,13.58.03,18.14-4.68,4.64-4.79,6.1-12.5,3.24-18.52Z"/>
          <path class="cls-13" d="m302.34,79.65c-2.86-6.02-10-9.79-16.53-8.45-.11-6.86-4.11-13.52-10.11-16.85-5.8-3.22-13.25-3.19-19.05.01.09-1.2.1-2.42,0-3.66-1.02-12.7-12.14-22.18-24.84-21.16-10.12.81-18.19,8.04-20.54,17.37-5.27-2.63-11.11-2.67-15.44.48-3.01,2.19-4.78,5.54-5.29,9.33-1.88-.63-3.92-.89-6.02-.73-8.38.67-14.63,8.01-13.96,16.39.19,2.32.89,4.46,1.98,6.35-5.68,3.3-9.29,9.64-8.73,16.62.78,9.69,9.26,16.92,18.95,16.14,3.72-.3,7.07-1.74,9.75-3.94,2.88,2.39,6.23,4.05,9.67,4.69,6.49,1.2,13.33.65,19.47-1.73,3.36,5.79,11.27,9.1,19.75,7.69,6.07-1.01,11.07-4.23,13.91-8.38.95-.98,1.8-2.07,2.53-3.22,2.98,2.6,6.97,4.06,11.22,3.72,5.14-.41,9.48-3.34,11.91-7.47,6.31,1.78,13.58.03,18.14-4.68,4.64-4.79,6.1-12.5,3.24-18.52Z"/>
          <path class="cls-17" d="m302.1,79.4c-2.86-6.02-10-9.79-16.53-8.45-.11-6.86-4.11-13.52-10.11-16.85-5.8-3.22-13.25-3.19-19.05.01.09-1.2.1-2.42,0-3.66-1.02-12.7-12.14-22.18-24.84-21.16-10.12.81-18.19,8.04-20.54,17.37-5.27-2.63-11.11-2.67-15.44.48-3.01,2.19-4.78,5.54-5.29,9.33-1.88-.63-3.92-.89-6.02-.73-8.38.67-14.63,8.01-13.96,16.39.19,2.32.89,4.46,1.98,6.35-5.68,3.3-9.29,9.64-8.73,16.62.78,9.69,9.26,16.92,18.95,16.14,3.72-.3,7.07-1.74,9.75-3.94,2.88,2.39,6.23,4.05,9.67,4.69,6.49,1.2,13.33.65,19.47-1.73,3.36,5.79,11.27,9.1,19.75,7.69,6.07-1.01,11.07-4.23,13.91-8.38.95-.98,1.8-2.07,2.53-3.22,2.98,2.6,6.97,4.06,11.22,3.72,5.14-.41,9.48-3.34,11.91-7.47,6.31,1.78,13.58.03,18.14-4.68,4.64-4.79,6.1-12.5,3.24-18.52Z"/>
          <path class="cls-27" d="m301.85,79.16c-2.86-6.02-10-9.79-16.53-8.45-.11-6.86-4.11-13.52-10.11-16.85-5.8-3.22-13.25-3.19-19.05.01.09-1.2.1-2.42,0-3.66-1.02-12.7-12.14-22.18-24.84-21.16-10.12.81-18.19,8.04-20.54,17.37-5.27-2.63-11.11-2.67-15.44.48-3.01,2.19-4.78,5.54-5.29,9.33-1.88-.63-3.92-.89-6.02-.73-8.38.67-14.63,8.01-13.96,16.39.19,2.32.89,4.46,1.98,6.35-5.68,3.3-9.29,9.64-8.73,16.62.78,9.69,9.26,16.92,18.95,16.14,3.72-.3,7.07-1.74,9.75-3.94,2.88,2.39,6.23,4.05,9.67,4.69,6.49,1.2,13.33.65,19.47-1.73,3.36,5.79,11.27,9.1,19.75,7.69,6.07-1.01,11.07-4.23,13.91-8.38.95-.98,1.8-2.07,2.53-3.22,2.98,2.6,6.97,4.06,11.22,3.72,5.14-.41,9.48-3.34,11.91-7.47,6.31,1.78,13.58.03,18.14-4.68,4.64-4.79,6.1-12.5,3.24-18.52Z"/>
          <path class="cls-34" d="m301.61,78.91c-2.86-6.02-10-9.79-16.53-8.45-.11-6.86-4.11-13.52-10.11-16.85-5.8-3.22-13.25-3.19-19.05.01.09-1.2.1-2.42,0-3.66-1.02-12.7-12.14-22.18-24.84-21.16-10.12.81-18.19,8.04-20.54,17.37-5.27-2.63-11.11-2.67-15.44.48-3.01,2.19-4.78,5.54-5.29,9.33-1.88-.63-3.92-.89-6.02-.73-8.38.67-14.63,8.01-13.96,16.39.19,2.32.89,4.46,1.98,6.35-5.68,3.3-9.29,9.64-8.73,16.62.78,9.69,9.26,16.92,18.95,16.14,3.72-.3,7.07-1.74,9.75-3.94,2.88,2.39,6.23,4.05,9.67,4.69,6.49,1.2,13.33.65,19.47-1.73,3.36,5.79,11.27,9.1,19.75,7.69,6.07-1.01,11.07-4.23,13.91-8.38.95-.98,1.8-2.07,2.53-3.22,2.98,2.6,6.97,4.06,11.22,3.72,5.14-.41,9.48-3.34,11.91-7.47,6.31,1.78,13.58.03,18.14-4.68,4.64-4.79,6.1-12.5,3.24-18.52Z"/>
          <path class="cls-14" d="m301.37,78.67c-2.86-6.02-10-9.79-16.53-8.45-.11-6.86-4.11-13.52-10.11-16.85-5.8-3.22-13.25-3.19-19.05.01.09-1.2.1-2.42,0-3.66-1.02-12.7-12.14-22.18-24.84-21.16-10.12.81-18.19,8.04-20.54,17.37-5.27-2.63-11.11-2.67-15.44.48-3.01,2.19-4.78,5.54-5.29,9.33-1.88-.63-3.92-.89-6.02-.73-8.38.67-14.63,8.01-13.96,16.39.19,2.32.89,4.46,1.98,6.35-5.68,3.3-9.29,9.64-8.73,16.62.78,9.69,9.26,16.92,18.95,16.14,3.72-.3,7.07-1.74,9.75-3.94,2.88,2.39,6.23,4.05,9.67,4.69,6.49,1.2,13.33.65,19.47-1.73,3.36,5.79,11.27,9.1,19.75,7.69,6.07-1.01,11.07-4.23,13.91-8.38.95-.98,1.8-2.07,2.53-3.22,2.98,2.6,6.97,4.06,11.22,3.72,5.14-.41,9.48-3.34,11.91-7.47,6.31,1.78,13.58.03,18.14-4.68,4.64-4.79,6.1-12.5,3.24-18.52Z"/>
          <path class="cls-15" d="m301.12,78.43c-2.86-6.02-10-9.79-16.53-8.45-.11-6.86-4.11-13.52-10.11-16.85-5.8-3.22-13.25-3.19-19.05.01.09-1.2.1-2.42,0-3.66-1.02-12.7-12.14-22.18-24.84-21.16-10.12.81-18.19,8.04-20.54,17.37-5.27-2.63-11.11-2.67-15.44.48-3.01,2.19-4.78,5.54-5.29,9.33-1.88-.63-3.92-.89-6.02-.73-8.38.67-14.63,8.01-13.96,16.39.19,2.32.89,4.46,1.98,6.35-5.68,3.3-9.29,9.64-8.73,16.62.78,9.69,9.26,16.92,18.95,16.14,3.72-.3,7.07-1.74,9.75-3.94,2.88,2.39,6.23,4.05,9.67,4.69,6.49,1.2,13.33.65,19.47-1.73,3.36,5.79,11.27,9.1,19.75,7.69,6.07-1.01,11.07-4.23,13.91-8.38.95-.98,1.8-2.07,2.53-3.22,2.98,2.6,6.97,4.06,11.22,3.72,5.14-.41,9.48-3.34,11.91-7.47,6.31,1.78,13.58.03,18.14-4.68,4.64-4.79,6.1-12.5,3.24-18.52Z"/>
          <path class="cls-24" d="m300.88,78.18c-2.86-6.02-10-9.79-16.53-8.45-.11-6.86-4.11-13.52-10.11-16.85-5.8-3.22-13.25-3.19-19.05.01.09-1.2.1-2.42,0-3.66-1.02-12.7-12.14-22.18-24.84-21.16-10.12.81-18.19,8.04-20.54,17.37-5.27-2.63-11.11-2.67-15.44.48-3.01,2.19-4.78,5.54-5.29,9.33-1.88-.63-3.92-.89-6.02-.73-8.38.67-14.63,8.01-13.96,16.39.19,2.32.89,4.46,1.98,6.35-5.68,3.3-9.29,9.64-8.73,16.62.78,9.69,9.26,16.92,18.95,16.14,3.72-.3,7.07-1.74,9.75-3.94,2.88,2.39,6.23,4.05,9.67,4.69,6.49,1.2,13.33.65,19.47-1.73,3.36,5.79,11.27,9.1,19.75,7.69,6.07-1.01,11.07-4.23,13.91-8.38.95-.98,1.8-2.07,2.53-3.22,2.98,2.6,6.97,4.06,11.22,3.72,5.14-.41,9.48-3.34,11.91-7.47,6.31,1.78,13.58.03,18.14-4.68,4.64-4.79,6.1-12.5,3.24-18.52Z"/>
          <path class="cls-8" d="m300.63,77.94c-2.86-6.02-10-9.79-16.53-8.45-.11-6.86-4.11-13.52-10.11-16.85-5.8-3.22-13.25-3.19-19.05.01.09-1.2.1-2.42,0-3.66-1.02-12.7-12.14-22.18-24.84-21.16-10.12.81-18.19,8.04-20.54,17.37-5.27-2.63-11.11-2.67-15.44.48-3.01,2.19-4.78,5.54-5.29,9.33-1.88-.63-3.92-.89-6.02-.73-8.38.67-14.63,8.01-13.96,16.39.19,2.32.89,4.46,1.98,6.35-5.68,3.3-9.29,9.64-8.73,16.62.78,9.69,9.26,16.92,18.95,16.14,3.72-.3,7.07-1.74,9.75-3.94,2.88,2.39,6.23,4.05,9.67,4.69,6.49,1.2,13.33.65,19.47-1.73,3.36,5.79,11.27,9.1,19.75,7.69,6.07-1.01,11.07-4.23,13.91-8.38.95-.98,1.8-2.07,2.53-3.22,2.98,2.6,6.97,4.06,11.22,3.72,5.14-.41,9.48-3.34,11.91-7.47,6.31,1.78,13.58.03,18.14-4.68,4.64-4.79,6.1-12.5,3.24-18.52Z"/>
          <path class="cls-1" d="m300.39,77.69c-2.86-6.02-10-9.79-16.53-8.45-.11-6.86-4.11-13.52-10.11-16.85-5.8-3.22-13.25-3.19-19.05.01.09-1.2.1-2.42,0-3.66-1.02-12.7-12.14-22.18-24.84-21.16-10.12.81-18.19,8.04-20.54,17.37-5.27-2.63-11.11-2.67-15.44.48-3.01,2.19-4.78,5.54-5.29,9.33-1.88-.63-3.92-.89-6.02-.73-8.38.67-14.63,8.01-13.96,16.39.19,2.32.89,4.46,1.98,6.35-5.68,3.3-9.29,9.64-8.73,16.62.78,9.69,9.26,16.92,18.95,16.14,3.72-.3,7.07-1.74,9.75-3.94,2.88,2.39,6.23,4.05,9.67,4.69,6.49,1.2,13.33.65,19.47-1.73,3.36,5.79,11.27,9.1,19.75,7.69,6.07-1.01,11.07-4.23,13.91-8.38.95-.98,1.8-2.07,2.53-3.22,2.98,2.6,6.97,4.06,11.22,3.72,5.14-.41,9.48-3.34,11.91-7.47,6.31,1.78,13.58.03,18.14-4.68,4.64-4.79,6.1-12.5,3.24-18.52Z"/>
          <path class="cls-35" d="m300.15,77.45c-2.86-6.02-10-9.79-16.53-8.45-.11-6.86-4.11-13.52-10.11-16.85-5.8-3.22-13.25-3.19-19.05.01.09-1.2.1-2.42,0-3.66-1.02-12.7-12.14-22.18-24.84-21.16-10.12.81-18.19,8.04-20.54,17.37-5.27-2.63-11.11-2.67-15.44.48-3.01,2.19-4.78,5.54-5.29,9.33-1.88-.63-3.92-.89-6.02-.73-8.38.67-14.63,8.01-13.96,16.39.19,2.32.89,4.46,1.98,6.35-5.68,3.3-9.29,9.64-8.73,16.62.78,9.69,9.26,16.92,18.95,16.14,3.72-.3,7.07-1.74,9.75-3.94,2.88,2.39,6.23,4.05,9.67,4.69,6.49,1.2,13.33.65,19.47-1.73,3.36,5.79,11.27,9.1,19.75,7.69,6.07-1.01,11.07-4.23,13.91-8.38.95-.98,1.8-2.07,2.53-3.22,2.98,2.6,6.97,4.06,11.22,3.72,5.14-.41,9.48-3.34,11.91-7.47,6.31,1.78,13.58.03,18.14-4.68,4.64-4.79,6.1-12.5,3.24-18.52Z"/>
          <path class="cls-43" d="m299.9,77.21c-2.86-6.02-10-9.79-16.53-8.45-.11-6.86-4.11-13.52-10.11-16.85-5.8-3.22-13.25-3.19-19.05.01.09-1.2.1-2.42,0-3.66-1.02-12.7-12.14-22.18-24.84-21.16-10.12.81-18.19,8.04-20.54,17.37-5.27-2.63-11.11-2.67-15.44.48-3.01,2.19-4.78,5.54-5.29,9.33-1.88-.63-3.92-.89-6.02-.73-8.38.67-14.63,8.01-13.96,16.39.19,2.32.89,4.46,1.98,6.35-5.68,3.3-9.29,9.64-8.73,16.62.78,9.69,9.26,16.92,18.95,16.14,3.72-.3,7.07-1.74,9.75-3.94,2.88,2.39,6.23,4.05,9.67,4.69,6.49,1.2,13.33.65,19.47-1.73,3.36,5.79,11.27,9.1,19.75,7.69,6.07-1.01,11.07-4.23,13.91-8.38.95-.98,1.8-2.07,2.53-3.22,2.98,2.6,6.97,4.06,11.22,3.72,5.14-.41,9.48-3.34,11.91-7.47,6.31,1.78,13.58.03,18.14-4.68,4.64-4.79,6.1-12.5,3.24-18.52Z"/>
          <path class="cls-7" d="m299.66,76.96c-2.86-6.02-10-9.79-16.53-8.45-.11-6.86-4.11-13.52-10.11-16.85-5.8-3.22-13.25-3.19-19.05.01.09-1.2.1-2.42,0-3.66-1.02-12.7-12.14-22.18-24.84-21.16-10.12.81-18.19,8.04-20.54,17.37-5.27-2.63-11.11-2.67-15.44.48-3.01,2.19-4.78,5.54-5.29,9.33-1.88-.63-3.92-.89-6.02-.73-8.38.67-14.63,8.01-13.96,16.39.19,2.32.89,4.46,1.98,6.35-5.68,3.3-9.29,9.64-8.73,16.62.78,9.69,9.26,16.92,18.95,16.14,3.72-.3,7.07-1.74,9.75-3.94,2.88,2.39,6.23,4.05,9.67,4.69,6.49,1.2,13.33.65,19.47-1.73,3.36,5.79,11.27,9.1,19.75,7.69,6.07-1.01,11.07-4.23,13.91-8.38.95-.98,1.8-2.07,2.53-3.22,2.98,2.6,6.97,4.06,11.22,3.72,5.14-.41,9.48-3.34,11.91-7.47,6.31,1.78,13.58.03,18.14-4.68,4.64-4.79,6.1-12.5,3.24-18.52Z"/>
          <path class="cls-18" d="m299.41,76.72c-2.86-6.02-10-9.79-16.53-8.45-.11-6.86-4.11-13.52-10.11-16.85-5.8-3.22-13.25-3.19-19.05.01.09-1.2.1-2.42,0-3.66-1.02-12.7-12.14-22.18-24.84-21.16-10.12.81-18.19,8.04-20.54,17.37-5.27-2.63-11.11-2.67-15.44.48-3.01,2.19-4.78,5.54-5.29,9.33-1.88-.63-3.92-.89-6.02-.73-8.38.67-14.63,8.01-13.96,16.39.19,2.32.89,4.46,1.98,6.35-5.68,3.3-9.29,9.64-8.73,16.62.78,9.69,9.26,16.92,18.95,16.14,3.72-.3,7.07-1.74,9.75-3.94,2.88,2.39,6.23,4.05,9.67,4.69,6.49,1.2,13.33.65,19.47-1.73,3.36,5.79,11.27,9.1,19.75,7.69,6.07-1.01,11.07-4.23,13.91-8.38.95-.98,1.8-2.07,2.53-3.22,2.98,2.6,6.97,4.06,11.22,3.72,5.14-.41,9.48-3.34,11.91-7.47,6.31,1.78,13.58.03,18.14-4.68,4.64-4.79,6.1-12.5,3.24-18.52Z"/>
          <path class="cls-40" d="m299.17,76.48c-2.86-6.02-10-9.79-16.53-8.45-.11-6.86-4.11-13.52-10.11-16.85-5.8-3.22-13.25-3.19-19.05.01.09-1.2.1-2.42,0-3.66-1.02-12.7-12.14-22.18-24.84-21.16-10.12.81-18.19,8.04-20.54,17.37-5.27-2.63-11.11-2.67-15.44.48-3.01,2.19-4.78,5.54-5.29,9.33-1.88-.63-3.92-.89-6.02-.73-8.38.67-14.63,8.01-13.96,16.39.19,2.32.89,4.46,1.98,6.35-5.68,3.3-9.29,9.64-8.73,16.62.78,9.69,9.26,16.92,18.95,16.14,3.72-.3,7.07-1.74,9.75-3.94,2.88,2.39,6.23,4.05,9.67,4.69,6.49,1.2,13.33.65,19.47-1.73,3.36,5.79,11.27,9.1,19.75,7.69,6.07-1.01,11.07-4.23,13.91-8.38.95-.98,1.8-2.07,2.53-3.22,2.98,2.6,6.97,4.06,11.22,3.72,5.14-.41,9.48-3.34,11.91-7.47,6.31,1.78,13.58.03,18.14-4.68,4.64-4.79,6.1-12.5,3.24-18.52Z"/>
          <path class="cls-37" d="m298.93,76.23c-2.86-6.02-10-9.79-16.53-8.45-.11-6.86-4.11-13.52-10.11-16.85-5.8-3.22-13.25-3.19-19.05.01.09-1.2.1-2.42,0-3.66-1.02-12.7-12.14-22.18-24.84-21.16-10.12.81-18.19,8.04-20.54,17.37-5.27-2.63-11.11-2.67-15.44.48-3.01,2.19-4.78,5.54-5.29,9.33-1.88-.63-3.92-.89-6.02-.73-8.38.67-14.63,8.01-13.96,16.39.19,2.32.89,4.46,1.98,6.35-5.68,3.3-9.29,9.64-8.73,16.62.78,9.69,9.26,16.92,18.95,16.14,3.72-.3,7.07-1.74,9.75-3.94,2.88,2.39,6.23,4.05,9.67,4.69,6.49,1.2,13.33.65,19.47-1.73,3.36,5.79,11.27,9.1,19.75,7.69,6.07-1.01,11.07-4.23,13.91-8.38.95-.98,1.8-2.07,2.53-3.22,2.98,2.6,6.97,4.06,11.22,3.72,5.14-.41,9.48-3.34,11.91-7.47,6.31,1.78,13.58.03,18.14-4.68,4.64-4.79,6.1-12.5,3.24-18.52Z"/>
          <path class="cls-29" d="m298.68,75.99c-2.86-6.02-10-9.79-16.53-8.45-.11-6.86-4.11-13.52-10.11-16.85-5.8-3.22-13.25-3.19-19.05.01.09-1.2.1-2.42,0-3.66-1.02-12.7-12.14-22.18-24.84-21.16-10.12.81-18.19,8.04-20.54,17.37-5.27-2.63-11.11-2.67-15.44.48-3.01,2.19-4.78,5.54-5.29,9.33-1.88-.63-3.92-.89-6.02-.73-8.38.67-14.63,8.01-13.96,16.39.19,2.32.89,4.46,1.98,6.35-5.68,3.3-9.29,9.64-8.73,16.62.78,9.69,9.26,16.92,18.95,16.14,3.72-.3,7.07-1.74,9.75-3.94,2.88,2.39,6.23,4.05,9.67,4.69,6.49,1.2,13.33.65,19.47-1.73,3.36,5.79,11.27,9.1,19.75,7.69,6.07-1.01,11.07-4.23,13.91-8.38.95-.98,1.8-2.07,2.53-3.22,2.98,2.6,6.97,4.06,11.22,3.72,5.14-.41,9.48-3.34,11.91-7.47,6.31,1.78,13.58.03,18.14-4.68,4.64-4.79,6.1-12.5,3.24-18.52Z"/>
          <path class="cls-44" d="m298.44,75.74c-2.86-6.02-10-9.79-16.53-8.45-.11-6.86-4.11-13.52-10.11-16.85-5.8-3.22-13.25-3.19-19.05.01.09-1.2.1-2.42,0-3.66-1.02-12.7-12.14-22.18-24.84-21.16-10.12.81-18.19,8.04-20.54,17.37-5.27-2.63-11.11-2.67-15.44.48-3.01,2.19-4.78,5.54-5.29,9.33-1.88-.63-3.92-.89-6.02-.73-8.38.67-14.63,8.01-13.96,16.39.19,2.32.89,4.46,1.98,6.35-5.68,3.3-9.29,9.64-8.73,16.62.78,9.69,9.26,16.92,18.95,16.14,3.72-.3,7.07-1.74,9.75-3.94,2.88,2.39,6.23,4.05,9.67,4.69,6.49,1.2,13.33.65,19.47-1.73,3.36,5.79,11.27,9.1,19.75,7.69,6.07-1.01,11.07-4.23,13.91-8.38.95-.98,1.8-2.07,2.53-3.22,2.98,2.6,6.97,4.06,11.22,3.72,5.14-.41,9.48-3.34,11.91-7.47,6.31,1.78,13.58.03,18.14-4.68,4.64-4.79,6.1-12.5,3.24-18.52Z"/>
          <path class="cls-31" d="m298.19,75.5c-2.86-6.02-10-9.79-16.53-8.45-.11-6.86-4.11-13.52-10.11-16.85-5.8-3.22-13.25-3.19-19.05.01.09-1.2.1-2.42,0-3.66-1.02-12.7-12.14-22.18-24.84-21.16-10.12.81-18.19,8.04-20.54,17.37-5.27-2.63-11.11-2.67-15.44.48-3.01,2.19-4.78,5.54-5.29,9.33-1.88-.63-3.92-.89-6.02-.73-8.38.67-14.63,8.01-13.96,16.39.19,2.32.89,4.46,1.98,6.35-5.68,3.3-9.29,9.64-8.73,16.62.78,9.69,9.26,16.92,18.95,16.14,3.72-.3,7.07-1.74,9.75-3.94,2.88,2.39,6.23,4.05,9.67,4.69,6.49,1.2,13.33.65,19.47-1.73,3.36,5.79,11.27,9.1,19.75,7.69,6.07-1.01,11.07-4.23,13.91-8.38.95-.98,1.8-2.07,2.53-3.22,2.98,2.6,6.97,4.06,11.22,3.72,5.14-.41,9.48-3.34,11.91-7.47,6.31,1.78,13.58.03,18.14-4.68,4.64-4.79,6.1-12.5,3.24-18.52Z"/>
          <path class="cls-45" d="m297.95,75.26c-2.86-6.02-10-9.79-16.53-8.45-.11-6.86-4.11-13.52-10.11-16.85-5.8-3.22-13.25-3.19-19.05.01.09-1.2.1-2.42,0-3.66-1.02-12.7-12.14-22.18-24.84-21.16-10.12.81-18.19,8.04-20.54,17.37-5.27-2.63-11.11-2.67-15.44.48-3.01,2.19-4.78,5.54-5.29,9.33-1.88-.63-3.92-.89-6.02-.73-8.38.67-14.63,8.01-13.96,16.39.19,2.32.89,4.46,1.98,6.35-5.68,3.3-9.29,9.64-8.73,16.62.78,9.69,9.26,16.92,18.95,16.14,3.72-.3,7.07-1.74,9.75-3.94,2.88,2.39,6.23,4.05,9.67,4.69,6.49,1.2,13.33.65,19.47-1.73,3.36,5.79,11.27,9.1,19.75,7.69,6.07-1.01,11.07-4.23,13.91-8.38.95-.98,1.8-2.07,2.53-3.22,2.98,2.6,6.97,4.06,11.22,3.72,5.14-.41,9.48-3.34,11.91-7.47,6.31,1.78,13.58.03,18.14-4.68,4.64-4.79,6.1-12.5,3.24-18.52Z"/>
          <path class="cls-6" d="m297.71,75.01c-2.86-6.02-10-9.79-16.53-8.45-.11-6.86-4.11-13.52-10.11-16.85-5.8-3.22-13.25-3.19-19.05.01.09-1.2.1-2.42,0-3.66-1.02-12.7-12.14-22.18-24.84-21.16-10.12.81-18.19,8.04-20.54,17.37-5.27-2.63-11.11-2.67-15.44.48-3.01,2.19-4.78,5.54-5.29,9.33-1.88-.63-3.92-.89-6.02-.73-8.38.67-14.63,8.01-13.96,16.39.19,2.32.89,4.46,1.98,6.35-5.68,3.3-9.29,9.64-8.73,16.62.78,9.69,9.26,16.92,18.95,16.14,3.72-.3,7.07-1.74,9.75-3.94,2.88,2.39,6.23,4.05,9.67,4.69,6.49,1.2,13.33.65,19.47-1.73,3.36,5.79,11.27,9.1,19.75,7.69,6.07-1.01,11.07-4.23,13.91-8.38.95-.98,1.8-2.07,2.53-3.22,2.98,2.6,6.97,4.06,11.22,3.72,5.14-.41,9.48-3.34,11.91-7.47,6.31,1.78,13.58.03,18.14-4.68,4.64-4.79,6.1-12.5,3.24-18.52Z"/>
          <path class="cls-22" d="m297.46,74.77c-2.86-6.02-10-9.79-16.53-8.45-.11-6.86-4.11-13.52-10.11-16.85-5.8-3.22-13.25-3.19-19.05.01.09-1.2.1-2.42,0-3.66-1.02-12.7-12.14-22.18-24.84-21.16-10.12.81-18.19,8.04-20.54,17.37-5.27-2.63-11.11-2.67-15.44.48-3.01,2.19-4.78,5.54-5.29,9.33-1.88-.63-3.92-.89-6.02-.73-8.38.67-14.63,8.01-13.96,16.39.19,2.32.89,4.46,1.98,6.35-5.68,3.3-9.29,9.64-8.73,16.62.78,9.69,9.26,16.92,18.95,16.14,3.72-.3,7.07-1.74,9.75-3.94,2.88,2.39,6.23,4.05,9.67,4.69,6.49,1.2,13.33.65,19.47-1.73,3.36,5.79,11.27,9.1,19.75,7.69,6.07-1.01,11.07-4.23,13.91-8.38.95-.98,1.8-2.07,2.53-3.22,2.98,2.6,6.97,4.06,11.22,3.72,5.14-.41,9.48-3.34,11.91-7.47,6.31,1.78,13.58.03,18.14-4.68,4.64-4.79,6.1-12.5,3.24-18.52Z"/>
          <path class="cls-41" d="m297.22,74.52c-2.86-6.02-10-9.79-16.53-8.45-.11-6.86-4.11-13.52-10.11-16.85-5.8-3.22-13.25-3.19-19.05.01.09-1.2.1-2.42,0-3.66-1.02-12.7-12.14-22.18-24.84-21.16-10.12.81-18.19,8.04-20.54,17.37-5.27-2.63-11.11-2.67-15.44.48-3.01,2.19-4.78,5.54-5.29,9.33-1.88-.63-3.92-.89-6.02-.73-8.38.67-14.63,8.01-13.96,16.39.19,2.32.89,4.46,1.98,6.35-5.68,3.3-9.29,9.64-8.73,16.62.78,9.69,9.26,16.92,18.95,16.14,3.72-.3,7.07-1.74,9.75-3.94,2.88,2.39,6.23,4.05,9.67,4.69,6.49,1.2,13.33.65,19.47-1.73,3.36,5.79,11.27,9.1,19.75,7.69,6.07-1.01,11.07-4.23,13.91-8.38.95-.98,1.8-2.07,2.53-3.22,2.98,2.6,6.97,4.06,11.22,3.72,5.14-.41,9.48-3.34,11.91-7.47,6.31,1.78,13.58.03,18.14-4.68,4.64-4.79,6.1-12.5,3.24-18.52Z"/>
          <path class="cls-4" d="m296.98,74.28c-2.86-6.02-10-9.79-16.53-8.45-.11-6.86-4.11-13.52-10.11-16.85-5.8-3.22-13.25-3.19-19.05.01.09-1.2.1-2.42,0-3.66-1.02-12.7-12.14-22.18-24.84-21.16-10.12.81-18.19,8.04-20.54,17.37-5.27-2.63-11.11-2.67-15.44.48-3.01,2.19-4.78,5.54-5.29,9.33-1.88-.63-3.92-.89-6.02-.73-8.38.67-14.63,8.01-13.96,16.39.19,2.32.89,4.46,1.98,6.35-5.68,3.3-9.29,9.64-8.73,16.62.78,9.69,9.26,16.92,18.95,16.14,3.72-.3,7.07-1.74,9.75-3.94,2.88,2.39,6.23,4.05,9.67,4.69,6.49,1.2,13.33.65,19.47-1.73,3.36,5.79,11.27,9.1,19.75,7.69,6.07-1.01,11.07-4.23,13.91-8.38.95-.98,1.8-2.07,2.53-3.22,2.98,2.6,6.97,4.06,11.22,3.72,5.14-.41,9.48-3.34,11.91-7.47,6.31,1.78,13.58.03,18.14-4.68,4.64-4.79,6.1-12.5,3.24-18.52Z"/>
          <path class="cls-46" d="m296.73,74.04c-2.86-6.02-10-9.79-16.53-8.45-.11-6.86-4.11-13.52-10.11-16.85-5.8-3.22-13.25-3.19-19.05.01.09-1.2.1-2.42,0-3.66-1.02-12.7-12.14-22.18-24.84-21.16-10.12.81-18.19,8.04-20.54,17.37-5.27-2.63-11.11-2.67-15.44.48-3.01,2.19-4.78,5.54-5.29,9.33-1.88-.63-3.92-.89-6.02-.73-8.38.67-14.63,8.01-13.96,16.39.19,2.32.89,4.46,1.98,6.35-5.68,3.3-9.29,9.64-8.73,16.62.78,9.69,9.26,16.92,18.95,16.14,3.72-.3,7.07-1.74,9.75-3.94,2.88,2.39,6.23,4.05,9.67,4.69,6.49,1.2,13.33.65,19.47-1.73,3.36,5.79,11.27,9.1,19.75,7.69,6.07-1.01,11.07-4.23,13.91-8.38.95-.98,1.8-2.07,2.53-3.22,2.98,2.6,6.97,4.06,11.22,3.72,5.14-.41,9.48-3.34,11.91-7.47,6.31,1.78,13.58.03,18.14-4.68,4.64-4.79,6.1-12.5,3.24-18.52Z"/>
          <path class="cls-36" d="m296.49,73.79c-2.86-6.02-10-9.79-16.53-8.45-.11-6.86-4.11-13.52-10.11-16.85-5.8-3.22-13.25-3.19-19.05.01.09-1.2.1-2.42,0-3.66-1.02-12.7-12.14-22.18-24.84-21.16-10.12.81-18.19,8.04-20.54,17.37-5.27-2.63-11.11-2.67-15.44.48-3.01,2.19-4.78,5.54-5.29,9.33-1.88-.63-3.92-.89-6.02-.73-8.38.67-14.63,8.01-13.96,16.39.19,2.32.89,4.46,1.98,6.35-5.68,3.3-9.29,9.64-8.73,16.62.78,9.69,9.26,16.92,18.95,16.14,3.72-.3,7.07-1.74,9.75-3.94,2.88,2.39,6.23,4.05,9.67,4.69,6.49,1.2,13.33.65,19.47-1.73,3.36,5.79,11.27,9.1,19.75,7.69,6.07-1.01,11.07-4.23,13.91-8.38.95-.98,1.8-2.07,2.53-3.22,2.98,2.6,6.97,4.06,11.22,3.72,5.14-.41,9.48-3.34,11.91-7.47,6.31,1.78,13.58.03,18.14-4.68,4.64-4.79,6.1-12.5,3.24-18.52Z"/>
          <path class="cls-26" d="m296.24,73.55c-2.86-6.02-10-9.79-16.53-8.45-.11-6.86-4.11-13.52-10.11-16.85-5.8-3.22-13.25-3.19-19.05.01.09-1.2.1-2.42,0-3.66-1.02-12.7-12.14-22.18-24.84-21.16-10.12.81-18.19,8.04-20.54,17.37-5.27-2.63-11.11-2.67-15.44.48-3.01,2.19-4.78,5.54-5.29,9.33-1.88-.63-3.92-.89-6.02-.73-8.38.67-14.63,8.01-13.96,16.39.19,2.32.89,4.46,1.98,6.35-5.68,3.3-9.29,9.64-8.73,16.62.78,9.69,9.26,16.92,18.95,16.14,3.72-.3,7.07-1.74,9.75-3.94,2.88,2.39,6.23,4.05,9.67,4.69,6.49,1.2,13.33.65,19.47-1.73,3.36,5.79,11.27,9.1,19.75,7.69,6.07-1.01,11.07-4.23,13.91-8.38.95-.98,1.8-2.07,2.53-3.22,2.98,2.6,6.97,4.06,11.22,3.72,5.14-.41,9.48-3.34,11.91-7.47,6.31,1.78,13.58.03,18.14-4.68,4.64-4.79,6.1-12.5,3.24-18.52Z"/>
          <path class="cls-28" d="m296,73.3c-2.86-6.02-10-9.79-16.53-8.45-.11-6.86-4.11-13.52-10.11-16.85-5.8-3.22-13.25-3.19-19.05.01.09-1.2.1-2.42,0-3.66-1.02-12.7-12.14-22.18-24.84-21.16-10.12.81-18.19,8.04-20.54,17.37-5.27-2.63-11.11-2.67-15.44.48-3.01,2.19-4.78,5.54-5.29,9.33-1.88-.63-3.92-.89-6.02-.73-8.38.67-14.63,8.01-13.96,16.39.19,2.32.89,4.46,1.98,6.35-5.68,3.3-9.29,9.64-8.73,16.62.78,9.69,9.26,16.92,18.95,16.14,3.72-.3,7.07-1.74,9.75-3.94,2.88,2.39,6.23,4.05,9.67,4.69,6.49,1.2,13.33.65,19.47-1.73,3.36,5.79,11.27,9.1,19.75,7.69,6.07-1.01,11.07-4.23,13.91-8.38.95-.98,1.8-2.07,2.53-3.22,2.98,2.6,6.97,4.06,11.22,3.72,5.14-.41,9.48-3.34,11.91-7.47,6.31,1.78,13.58.03,18.14-4.68,4.64-4.79,6.1-12.5,3.24-18.52Z"/>
          <path class="cls-23" d="m295.76,73.06c-2.86-6.02-10-9.79-16.53-8.45-.11-6.86-4.11-13.52-10.11-16.85-5.8-3.22-13.25-3.19-19.05.01.09-1.2.1-2.42,0-3.66-1.02-12.7-12.14-22.18-24.84-21.16-10.12.81-18.19,8.04-20.54,17.37-5.27-2.63-11.11-2.67-15.44.48-3.01,2.19-4.78,5.54-5.29,9.33-1.88-.63-3.92-.89-6.02-.73-8.38.67-14.63,8.01-13.96,16.39.19,2.32.89,4.46,1.98,6.35-5.68,3.3-9.29,9.64-8.73,16.62.78,9.69,9.26,16.92,18.95,16.14,3.72-.3,7.07-1.74,9.75-3.94,2.88,2.39,6.23,4.05,9.67,4.69,6.49,1.2,13.33.65,19.47-1.73,3.36,5.79,11.27,9.1,19.75,7.69,6.07-1.01,11.07-4.23,13.91-8.38.95-.98,1.8-2.07,2.53-3.22,2.98,2.6,6.97,4.06,11.22,3.72,5.14-.41,9.48-3.34,11.91-7.47,6.31,1.78,13.58.03,18.14-4.68,4.64-4.79,6.1-12.5,3.24-18.52Z"/>
          <path class="cls-2" d="m295.51,72.82c-2.86-6.02-10-9.79-16.53-8.45-.11-6.86-4.11-13.52-10.11-16.85-5.8-3.22-13.25-3.19-19.05.01.09-1.2.1-2.42,0-3.66-1.02-12.7-12.14-22.18-24.84-21.16-10.12.81-18.19,8.04-20.54,17.37-5.27-2.63-11.11-2.67-15.44.48-3.01,2.19-4.78,5.54-5.29,9.33-1.88-.63-3.92-.89-6.02-.73-8.38.67-14.63,8.01-13.96,16.39.19,2.32.89,4.46,1.98,6.35-5.68,3.3-9.29,9.64-8.73,16.62.78,9.69,9.26,16.92,18.95,16.14,3.72-.3,7.07-1.74,9.75-3.94,2.88,2.39,6.23,4.05,9.67,4.69,6.49,1.2,13.33.65,19.47-1.73,3.36,5.79,11.27,9.1,19.75,7.69,6.07-1.01,11.07-4.23,13.91-8.38.95-.98,1.8-2.07,2.53-3.22,2.98,2.6,6.97,4.06,11.22,3.72,5.14-.41,9.48-3.34,11.91-7.47,6.31,1.78,13.58.03,18.14-4.68,4.64-4.79,6.1-12.5,3.24-18.52Z"/>
        </g>
        <path class="cls-20" d="m295.51,72.82c-2.86-6.02-10-9.79-16.53-8.45-.11-6.86-4.11-13.52-10.11-16.85-5.8-3.22-13.25-3.19-19.05.01.09-1.2.1-2.42,0-3.66-1.02-12.7-12.14-22.18-24.84-21.16-10.12.81-18.19,8.04-20.54,17.37-5.27-2.63-11.11-2.67-15.44.48-3.01,2.19-4.78,5.54-5.29,9.33-1.88-.63-3.92-.89-6.02-.73-8.38.67-14.63,8.01-13.96,16.39.19,2.32.89,4.46,1.98,6.35-5.68,3.3-9.29,9.64-8.73,16.62.78,9.69,9.26,16.92,18.95,16.14,3.72-.3,7.07-1.74,9.75-3.94,2.88,2.39,6.23,4.05,9.67,4.69,6.49,1.2,13.33.65,19.47-1.73,3.36,5.79,11.27,9.1,19.75,7.69,6.07-1.01,11.07-4.23,13.91-8.38.95-.98,1.8-2.07,2.53-3.22,2.98,2.6,6.97,4.06,11.22,3.72,5.14-.41,9.48-3.34,11.91-7.47,6.31,1.78,13.58.03,18.14-4.68,4.64-4.79,6.1-12.5,3.24-18.52Z"/>
      </g>
      <g>
        <g class="cls-5">
          <path class="cls-11" d="m236.11,62.81c0-10.48-8.5-18.98-18.98-18.98-3.19,0-6.19.8-8.82,2.18-.32-9.95-8.46-17.92-18.49-17.92-3.11,0-6.03.77-8.6,2.12-3.45-11.41-14.05-19.71-26.58-19.71-13.36,0-24.51,9.43-27.17,22-3.04-2.19-6.76-3.49-10.79-3.49-10.23,0-18.52,8.29-18.52,18.52,0,3.37.92,6.53,2.49,9.25-1.25-.29-2.55-.46-3.88-.46-9.46,0-17.13,7.67-17.13,17.13s7.67,17.13,17.13,17.13c2.23,0,4.36-.44,6.31-1.22,2.02,15.07,14.38,26.67,29.33,26.67,10.68,0,20.04-5.92,25.26-14.8,2.63,3.37,6.71,5.54,11.31,5.54,3.36,0,6.44-1.16,8.88-3.09,4.16,4.73,10.25,7.72,17.04,7.72,12.53,0,22.68-10.15,22.68-22.68,0-2.43-.39-4.78-1.1-6.98.21,0,.42.03.63.03,10.48,0,18.98-8.5,18.98-18.98Z"/>
          <path class="cls-10" d="m235.87,62.56c0-10.48-8.5-18.98-18.98-18.98-3.19,0-6.19.8-8.82,2.18-.32-9.95-8.46-17.92-18.49-17.92-3.11,0-6.03.77-8.6,2.12-3.45-11.41-14.05-19.71-26.58-19.71-13.36,0-24.51,9.43-27.17,22-3.04-2.19-6.76-3.49-10.79-3.49-10.23,0-18.52,8.29-18.52,18.52,0,3.37.92,6.53,2.49,9.25-1.25-.29-2.55-.46-3.88-.46-9.46,0-17.13,7.67-17.13,17.13s7.67,17.13,17.13,17.13c2.23,0,4.36-.44,6.31-1.22,2.02,15.07,14.38,26.67,29.33,26.67,10.68,0,20.04-5.92,25.26-14.8,2.63,3.37,6.71,5.54,11.31,5.54,3.36,0,6.44-1.16,8.88-3.09,4.16,4.73,10.25,7.72,17.04,7.72,12.53,0,22.68-10.15,22.68-22.68,0-2.43-.39-4.78-1.1-6.98.21,0,.42.03.63.03,10.48,0,18.98-8.5,18.98-18.98Z"/>
          <path class="cls-3" d="m235.62,62.32c0-10.48-8.5-18.98-18.98-18.98-3.19,0-6.19.8-8.82,2.18-.32-9.95-8.46-17.92-18.49-17.92-3.11,0-6.03.77-8.6,2.12-3.45-11.41-14.05-19.71-26.58-19.71-13.36,0-24.51,9.43-27.17,22-3.04-2.19-6.76-3.49-10.79-3.49-10.23,0-18.52,8.29-18.52,18.52,0,3.37.92,6.53,2.49,9.25-1.25-.29-2.55-.46-3.88-.46-9.46,0-17.13,7.67-17.13,17.13s7.67,17.13,17.13,17.13c2.23,0,4.36-.44,6.31-1.22,2.02,15.07,14.38,26.67,29.33,26.67,10.68,0,20.04-5.92,25.26-14.8,2.63,3.37,6.71,5.54,11.31,5.54,3.36,0,6.44-1.16,8.88-3.09,4.16,4.73,10.25,7.72,17.04,7.72,12.53,0,22.68-10.15,22.68-22.68,0-2.43-.39-4.78-1.1-6.98.21,0,.42.03.63.03,10.48,0,18.98-8.5,18.98-18.98Z"/>
          <path class="cls-38" d="m235.38,62.07c0-10.48-8.5-18.98-18.98-18.98-3.19,0-6.19.8-8.82,2.18-.32-9.95-8.46-17.92-18.49-17.92-3.11,0-6.03.77-8.6,2.13-3.45-11.41-14.05-19.71-26.58-19.71-13.36,0-24.51,9.43-27.17,22-3.04-2.19-6.76-3.49-10.79-3.49-10.23,0-18.52,8.29-18.52,18.52,0,3.37.92,6.53,2.49,9.25-1.25-.29-2.55-.46-3.88-.46-9.46,0-17.13,7.67-17.13,17.13s7.67,17.13,17.13,17.13c2.23,0,4.36-.44,6.31-1.22,2.02,15.07,14.38,26.67,29.33,26.67,10.68,0,20.04-5.92,25.26-14.8,2.63,3.37,6.71,5.54,11.31,5.54,3.36,0,6.44-1.16,8.88-3.09,4.16,4.73,10.25,7.72,17.04,7.72,12.53,0,22.68-10.15,22.68-22.68,0-2.43-.39-4.78-1.1-6.98.21,0,.42.03.63.03,10.48,0,18.98-8.5,18.98-18.98Z"/>
          <path class="cls-39" d="m235.14,61.83c0-10.48-8.5-18.98-18.98-18.98-3.19,0-6.19.8-8.82,2.18-.32-9.95-8.46-17.92-18.49-17.92-3.11,0-6.03.77-8.6,2.12-3.45-11.41-14.05-19.71-26.58-19.71-13.36,0-24.51,9.43-27.17,22-3.04-2.19-6.76-3.49-10.79-3.49-10.23,0-18.52,8.29-18.52,18.52,0,3.37.92,6.53,2.49,9.25-1.25-.29-2.55-.46-3.88-.46-9.46,0-17.13,7.67-17.13,17.13s7.67,17.13,17.13,17.13c2.23,0,4.36-.44,6.31-1.22,2.02,15.07,14.38,26.67,29.33,26.67,10.68,0,20.04-5.92,25.26-14.8,2.63,3.37,6.71,5.54,11.31,5.54,3.36,0,6.44-1.16,8.88-3.09,4.16,4.73,10.25,7.72,17.04,7.72,12.53,0,22.68-10.15,22.68-22.68,0-2.43-.39-4.78-1.1-6.98.21,0,.42.03.63.03,10.48,0,18.98-8.5,18.98-18.98Z"/>
          <path class="cls-47" d="m234.89,61.59c0-10.48-8.5-18.98-18.98-18.98-3.19,0-6.19.8-8.82,2.18-.32-9.95-8.46-17.92-18.49-17.92-3.11,0-6.03.77-8.6,2.12-3.45-11.41-14.05-19.71-26.58-19.71-13.36,0-24.51,9.43-27.17,22-3.04-2.19-6.76-3.49-10.79-3.49-10.23,0-18.52,8.29-18.52,18.52,0,3.37.92,6.53,2.49,9.25-1.25-.29-2.55-.46-3.88-.46-9.46,0-17.13,7.67-17.13,17.13s7.67,17.13,17.13,17.13c2.23,0,4.36-.44,6.31-1.22,2.02,15.07,14.38,26.67,29.33,26.67,10.68,0,20.04-5.92,25.26-14.8,2.63,3.37,6.71,5.54,11.31,5.54,3.36,0,6.44-1.16,8.88-3.09,4.16,4.73,10.25,7.72,17.04,7.72,12.53,0,22.68-10.15,22.68-22.68,0-2.43-.39-4.78-1.1-6.98.21,0,.42.03.63.03,10.48,0,18.98-8.5,18.98-18.98Z"/>
          <path class="cls-30" d="m234.65,61.34c0-10.48-8.5-18.98-18.98-18.98-3.19,0-6.19.8-8.82,2.18-.32-9.95-8.46-17.92-18.49-17.92-3.11,0-6.03.77-8.6,2.12-3.45-11.41-14.05-19.71-26.58-19.71-13.36,0-24.51,9.43-27.17,22-3.04-2.19-6.76-3.49-10.79-3.49-10.23,0-18.52,8.29-18.52,18.52,0,3.37.92,6.53,2.49,9.25-1.25-.29-2.55-.46-3.88-.46-9.46,0-17.13,7.67-17.13,17.13s7.67,17.13,17.13,17.13c2.23,0,4.36-.44,6.31-1.22,2.02,15.07,14.38,26.67,29.33,26.67,10.68,0,20.04-5.92,25.26-14.8,2.63,3.37,6.71,5.54,11.31,5.54,3.36,0,6.44-1.16,8.88-3.09,4.16,4.73,10.25,7.72,17.04,7.72,12.53,0,22.68-10.15,22.68-22.68,0-2.43-.39-4.78-1.1-6.98.21,0,.42.03.63.03,10.48,0,18.98-8.5,18.98-18.98Z"/>
          <path class="cls-9" d="m234.4,61.1c0-10.48-8.5-18.98-18.98-18.98-3.19,0-6.19.8-8.82,2.18-.32-9.95-8.46-17.92-18.49-17.92-3.11,0-6.03.77-8.6,2.12-3.45-11.41-14.05-19.71-26.58-19.71-13.36,0-24.51,9.43-27.17,22-3.04-2.19-6.76-3.49-10.79-3.49-10.23,0-18.52,8.29-18.52,18.52,0,3.37.92,6.53,2.49,9.25-1.25-.29-2.55-.46-3.88-.46-9.46,0-17.13,7.67-17.13,17.13s7.67,17.13,17.13,17.13c2.23,0,4.36-.44,6.31-1.22,2.02,15.07,14.38,26.67,29.33,26.67,10.68,0,20.04-5.92,25.26-14.8,2.63,3.37,6.71,5.54,11.31,5.54,3.36,0,6.44-1.16,8.88-3.09,4.16,4.73,10.25,7.72,17.04,7.72,12.53,0,22.68-10.15,22.68-22.68,0-2.43-.39-4.78-1.1-6.98.21,0,.42.03.63.03,10.48,0,18.98-8.5,18.98-18.98Z"/>
          <path class="cls-33" d="m234.16,60.85c0-10.48-8.5-18.98-18.98-18.98-3.19,0-6.19.8-8.82,2.18-.32-9.95-8.46-17.92-18.49-17.92-3.11,0-6.03.77-8.6,2.12-3.45-11.41-14.05-19.71-26.58-19.71-13.36,0-24.51,9.43-27.17,22-3.04-2.19-6.76-3.49-10.79-3.49-10.23,0-18.52,8.29-18.52,18.52,0,3.37.92,6.53,2.49,9.25-1.25-.29-2.55-.46-3.88-.46-9.46,0-17.13,7.67-17.13,17.13s7.67,17.13,17.13,17.13c2.23,0,4.36-.44,6.31-1.22,2.02,15.07,14.38,26.67,29.33,26.67,10.68,0,20.04-5.92,25.26-14.8,2.63,3.37,6.71,5.54,11.31,5.54,3.36,0,6.44-1.16,8.88-3.09,4.16,4.73,10.25,7.72,17.04,7.72,12.53,0,22.68-10.15,22.68-22.68,0-2.43-.39-4.78-1.1-6.98.21,0,.42.03.63.03,10.48,0,18.98-8.5,18.98-18.98Z"/>
          <path class="cls-25" d="m233.92,60.61c0-10.48-8.5-18.98-18.98-18.98-3.19,0-6.19.8-8.82,2.18-.32-9.95-8.46-17.92-18.49-17.92-3.11,0-6.03.77-8.6,2.12-3.45-11.41-14.05-19.71-26.58-19.71-13.36,0-24.51,9.43-27.17,22-3.04-2.19-6.76-3.49-10.79-3.49-10.23,0-18.52,8.29-18.52,18.52,0,3.37.92,6.53,2.49,9.25-1.25-.29-2.55-.46-3.88-.46-9.46,0-17.13,7.67-17.13,17.13s7.67,17.13,17.13,17.13c2.23,0,4.36-.44,6.31-1.22,2.02,15.07,14.38,26.67,29.33,26.67,10.68,0,20.04-5.92,25.26-14.8,2.63,3.37,6.71,5.54,11.31,5.54,3.36,0,6.44-1.16,8.88-3.09,4.16,4.73,10.25,7.72,17.04,7.72,12.53,0,22.68-10.15,22.68-22.68,0-2.43-.39-4.78-1.1-6.98.21,0,.42.03.63.03,10.48,0,18.98-8.5,18.98-18.98Z"/>
          <path class="cls-42" d="m233.67,60.37c0-10.48-8.5-18.98-18.98-18.98-3.19,0-6.19.8-8.82,2.18-.32-9.95-8.46-17.92-18.49-17.92-3.11,0-6.03.77-8.6,2.12-3.45-11.41-14.05-19.71-26.58-19.71-13.36,0-24.51,9.43-27.17,22-3.04-2.19-6.76-3.49-10.79-3.49-10.23,0-18.52,8.29-18.52,18.52,0,3.37.92,6.53,2.49,9.25-1.25-.29-2.55-.46-3.88-.46-9.46,0-17.13,7.67-17.13,17.13s7.67,17.13,17.13,17.13c2.23,0,4.36-.44,6.31-1.22,2.02,15.07,14.38,26.67,29.33,26.67,10.68,0,20.04-5.92,25.26-14.8,2.63,3.37,6.71,5.54,11.31,5.54,3.36,0,6.44-1.16,8.88-3.09,4.16,4.73,10.25,7.72,17.04,7.72,12.53,0,22.68-10.15,22.68-22.68,0-2.43-.39-4.78-1.1-6.98.21,0,.42.03.63.03,10.48,0,18.98-8.5,18.98-18.98Z"/>
          <path class="cls-32" d="m233.43,60.12c0-10.48-8.5-18.98-18.98-18.98-3.19,0-6.19.8-8.82,2.18-.32-9.95-8.46-17.92-18.49-17.92-3.11,0-6.03.77-8.6,2.12-3.45-11.41-14.05-19.71-26.58-19.71-13.36,0-24.51,9.43-27.17,22-3.04-2.19-6.76-3.49-10.79-3.49-10.23,0-18.52,8.29-18.52,18.52,0,3.37.92,6.53,2.49,9.25-1.25-.29-2.55-.46-3.88-.46-9.46,0-17.13,7.67-17.13,17.13s7.67,17.13,17.13,17.13c2.23,0,4.36-.44,6.31-1.22,2.02,15.07,14.38,26.67,29.33,26.67,10.68,0,20.04-5.92,25.26-14.8,2.63,3.37,6.71,5.54,11.31,5.54,3.36,0,6.44-1.16,8.88-3.09,4.16,4.73,10.25,7.72,17.04,7.72,12.53,0,22.68-10.15,22.68-22.68,0-2.43-.39-4.78-1.1-6.98.21,0,.42.03.63.03,10.48,0,18.98-8.5,18.98-18.98Z"/>
          <path class="cls-12" d="m233.18,59.88c0-10.48-8.5-18.98-18.98-18.98-3.19,0-6.19.8-8.82,2.18-.32-9.95-8.46-17.92-18.49-17.92-3.11,0-6.03.77-8.6,2.12-3.45-11.41-14.05-19.71-26.58-19.71-13.36,0-24.51,9.43-27.17,22-3.04-2.19-6.76-3.49-10.79-3.49-10.23,0-18.52,8.29-18.52,18.52,0,3.37.92,6.53,2.49,9.25-1.25-.29-2.55-.46-3.88-.46-9.46,0-17.13,7.67-17.13,17.13s7.67,17.13,17.13,17.13c2.23,0,4.36-.44,6.31-1.22,2.02,15.07,14.38,26.67,29.33,26.67,10.68,0,20.04-5.92,25.26-14.8,2.63,3.37,6.71,5.54,11.31,5.54,3.36,0,6.44-1.16,8.88-3.09,4.16,4.73,10.25,7.72,17.04,7.72,12.53,0,22.68-10.15,22.68-22.68,0-2.43-.39-4.78-1.1-6.98.21,0,.42.03.63.03,10.48,0,18.98-8.5,18.98-18.98Z"/>
          <path class="cls-13" d="m232.94,59.63c0-10.48-8.5-18.98-18.98-18.98-3.19,0-6.19.8-8.82,2.18-.32-9.95-8.46-17.92-18.49-17.92-3.11,0-6.03.77-8.6,2.13-3.45-11.41-14.05-19.71-26.58-19.71-13.36,0-24.51,9.43-27.17,22-3.04-2.19-6.76-3.49-10.79-3.49-10.23,0-18.52,8.29-18.52,18.52,0,3.37.92,6.53,2.49,9.25-1.25-.29-2.55-.46-3.88-.46-9.46,0-17.13,7.67-17.13,17.13s7.67,17.13,17.13,17.13c2.23,0,4.36-.44,6.31-1.22,2.02,15.07,14.38,26.67,29.33,26.67,10.68,0,20.04-5.92,25.26-14.8,2.63,3.37,6.71,5.54,11.31,5.54,3.36,0,6.44-1.16,8.88-3.09,4.16,4.73,10.25,7.72,17.04,7.72,12.53,0,22.68-10.15,22.68-22.68,0-2.43-.39-4.78-1.1-6.98.21,0,.42.03.63.03,10.48,0,18.98-8.5,18.98-18.98Z"/>
          <path class="cls-17" d="m232.7,59.39c0-10.48-8.5-18.98-18.98-18.98-3.19,0-6.19.8-8.82,2.18-.32-9.95-8.46-17.92-18.49-17.92-3.11,0-6.03.77-8.6,2.12-3.45-11.41-14.05-19.71-26.58-19.71-13.36,0-24.51,9.43-27.17,22-3.04-2.19-6.76-3.49-10.79-3.49-10.23,0-18.52,8.29-18.52,18.52,0,3.37.92,6.53,2.49,9.25-1.25-.29-2.55-.46-3.88-.46-9.46,0-17.13,7.67-17.13,17.13s7.67,17.13,17.13,17.13c2.23,0,4.36-.44,6.31-1.22,2.02,15.07,14.38,26.67,29.33,26.67,10.68,0,20.04-5.92,25.26-14.8,2.63,3.37,6.71,5.54,11.31,5.54,3.36,0,6.44-1.16,8.88-3.09,4.16,4.73,10.25,7.72,17.04,7.72,12.53,0,22.68-10.15,22.68-22.68,0-2.43-.39-4.78-1.1-6.98.21,0,.42.03.63.03,10.48,0,18.98-8.5,18.98-18.98Z"/>
          <path class="cls-27" d="m232.45,59.15c0-10.48-8.5-18.98-18.98-18.98-3.19,0-6.19.8-8.82,2.18-.32-9.95-8.46-17.92-18.49-17.92-3.11,0-6.03.77-8.6,2.12-3.45-11.41-14.05-19.71-26.58-19.71-13.36,0-24.51,9.43-27.17,22-3.04-2.19-6.76-3.49-10.79-3.49-10.23,0-18.52,8.29-18.52,18.52,0,3.37.92,6.53,2.49,9.25-1.25-.29-2.55-.46-3.88-.46-9.46,0-17.13,7.67-17.13,17.13s7.67,17.13,17.13,17.13c2.23,0,4.36-.44,6.31-1.22,2.02,15.07,14.38,26.67,29.33,26.67,10.68,0,20.04-5.92,25.26-14.8,2.63,3.37,6.71,5.54,11.31,5.54,3.36,0,6.44-1.16,8.88-3.09,4.16,4.73,10.25,7.72,17.04,7.72,12.53,0,22.68-10.15,22.68-22.68,0-2.43-.39-4.78-1.1-6.98.21,0,.42.03.63.03,10.48,0,18.98-8.5,18.98-18.98Z"/>
          <path class="cls-34" d="m232.21,58.9c0-10.48-8.5-18.98-18.98-18.98-3.19,0-6.19.8-8.82,2.18-.32-9.95-8.46-17.92-18.49-17.92-3.11,0-6.03.77-8.6,2.12-3.45-11.41-14.05-19.71-26.58-19.71-13.36,0-24.51,9.43-27.17,22-3.04-2.19-6.76-3.49-10.79-3.49-10.23,0-18.52,8.29-18.52,18.52,0,3.37.92,6.53,2.49,9.25-1.25-.29-2.55-.46-3.88-.46-9.46,0-17.13,7.67-17.13,17.13s7.67,17.13,17.13,17.13c2.23,0,4.36-.44,6.31-1.22,2.02,15.07,14.38,26.67,29.33,26.67,10.68,0,20.04-5.92,25.26-14.8,2.63,3.37,6.71,5.54,11.31,5.54,3.36,0,6.44-1.16,8.88-3.09,4.16,4.73,10.25,7.72,17.04,7.72,12.53,0,22.68-10.15,22.68-22.68,0-2.43-.39-4.78-1.1-6.98.21,0,.42.03.63.03,10.48,0,18.98-8.5,18.98-18.98Z"/>
          <path class="cls-14" d="m231.97,58.66c0-10.48-8.5-18.98-18.98-18.98-3.19,0-6.19.8-8.82,2.18-.32-9.95-8.46-17.92-18.49-17.92-3.11,0-6.03.77-8.6,2.12-3.45-11.41-14.05-19.71-26.58-19.71-13.36,0-24.51,9.43-27.17,22-3.04-2.19-6.76-3.49-10.79-3.49-10.23,0-18.52,8.29-18.52,18.52,0,3.37.92,6.53,2.49,9.25-1.25-.29-2.55-.46-3.88-.46-9.46,0-17.13,7.67-17.13,17.13s7.67,17.13,17.13,17.13c2.23,0,4.36-.44,6.31-1.22,2.02,15.07,14.38,26.67,29.33,26.67,10.68,0,20.04-5.92,25.26-14.8,2.63,3.37,6.71,5.54,11.31,5.54,3.36,0,6.44-1.16,8.88-3.09,4.16,4.73,10.25,7.72,17.04,7.72,12.53,0,22.68-10.15,22.68-22.68,0-2.43-.39-4.78-1.1-6.98.21,0,.42.03.63.03,10.48,0,18.98-8.5,18.98-18.98Z"/>
          <path class="cls-15" d="m231.72,58.42c0-10.48-8.5-18.98-18.98-18.98-3.19,0-6.19.8-8.82,2.18-.32-9.95-8.46-17.92-18.49-17.92-3.11,0-6.03.77-8.6,2.13-3.45-11.41-14.05-19.71-26.58-19.71-13.36,0-24.51,9.43-27.17,22-3.04-2.19-6.76-3.49-10.79-3.49-10.23,0-18.52,8.29-18.52,18.52,0,3.37.92,6.53,2.49,9.25-1.25-.29-2.55-.46-3.88-.46-9.46,0-17.13,7.67-17.13,17.13s7.67,17.13,17.13,17.13c2.23,0,4.36-.44,6.31-1.22,2.02,15.07,14.38,26.67,29.33,26.67,10.68,0,20.04-5.92,25.26-14.8,2.63,3.37,6.71,5.54,11.31,5.54,3.36,0,6.44-1.16,8.88-3.09,4.16,4.73,10.25,7.72,17.04,7.72,12.53,0,22.68-10.15,22.68-22.68,0-2.43-.39-4.78-1.1-6.98.21,0,.42.03.63.03,10.48,0,18.98-8.5,18.98-18.98Z"/>
          <path class="cls-24" d="m231.48,58.17c0-10.48-8.5-18.98-18.98-18.98-3.19,0-6.19.8-8.82,2.18-.32-9.95-8.46-17.92-18.49-17.92-3.11,0-6.03.77-8.6,2.12-3.45-11.41-14.05-19.71-26.58-19.71-13.36,0-24.51,9.43-27.17,22-3.04-2.19-6.76-3.49-10.79-3.49-10.23,0-18.52,8.29-18.52,18.52,0,3.37.92,6.53,2.49,9.25-1.25-.29-2.55-.46-3.88-.46-9.46,0-17.13,7.67-17.13,17.13s7.67,17.13,17.13,17.13c2.23,0,4.36-.44,6.31-1.22,2.02,15.07,14.38,26.67,29.33,26.67,10.68,0,20.04-5.92,25.26-14.8,2.63,3.37,6.71,5.54,11.31,5.54,3.36,0,6.44-1.16,8.88-3.09,4.16,4.73,10.25,7.72,17.04,7.72,12.53,0,22.68-10.15,22.68-22.68,0-2.43-.39-4.78-1.1-6.98.21,0,.42.03.63.03,10.48,0,18.98-8.5,18.98-18.98Z"/>
          <path class="cls-8" d="m231.23,57.93c0-10.48-8.5-18.98-18.98-18.98-3.19,0-6.19.8-8.82,2.18-.32-9.95-8.46-17.92-18.49-17.92-3.11,0-6.03.77-8.6,2.12-3.45-11.41-14.05-19.71-26.58-19.71-13.36,0-24.51,9.43-27.17,22-3.04-2.19-6.76-3.49-10.79-3.49-10.23,0-18.52,8.29-18.52,18.52,0,3.37.92,6.53,2.49,9.25-1.25-.29-2.55-.46-3.88-.46-9.46,0-17.13,7.67-17.13,17.13s7.67,17.13,17.13,17.13c2.23,0,4.36-.44,6.31-1.22,2.02,15.07,14.38,26.67,29.33,26.67,10.68,0,20.04-5.92,25.26-14.8,2.63,3.37,6.71,5.54,11.31,5.54,3.36,0,6.44-1.16,8.88-3.09,4.16,4.73,10.25,7.72,17.04,7.72,12.53,0,22.68-10.15,22.68-22.68,0-2.43-.39-4.78-1.1-6.98.21,0,.42.03.63.03,10.48,0,18.98-8.5,18.98-18.98Z"/>
          <path class="cls-1" d="m230.99,57.68c0-10.48-8.5-18.98-18.98-18.98-3.19,0-6.19.8-8.82,2.18-.32-9.95-8.46-17.92-18.49-17.92-3.11,0-6.03.77-8.6,2.12-3.45-11.41-14.05-19.71-26.58-19.71-13.36,0-24.51,9.43-27.17,22-3.04-2.19-6.76-3.49-10.79-3.49-10.23,0-18.52,8.29-18.52,18.52,0,3.37.92,6.53,2.49,9.25-1.25-.29-2.55-.46-3.88-.46-9.46,0-17.13,7.67-17.13,17.13s7.67,17.13,17.13,17.13c2.23,0,4.36-.44,6.31-1.22,2.02,15.07,14.38,26.67,29.33,26.67,10.68,0,20.04-5.92,25.26-14.8,2.63,3.37,6.71,5.54,11.31,5.54,3.36,0,6.44-1.16,8.88-3.09,4.16,4.73,10.25,7.72,17.04,7.72,12.53,0,22.68-10.15,22.68-22.68,0-2.43-.39-4.78-1.1-6.98.21,0,.42.03.63.03,10.48,0,18.98-8.5,18.98-18.98Z"/>
          <path class="cls-35" d="m230.75,57.44c0-10.48-8.5-18.98-18.98-18.98-3.19,0-6.19.8-8.82,2.18-.32-9.95-8.46-17.92-18.49-17.92-3.11,0-6.03.77-8.6,2.12-3.45-11.41-14.05-19.71-26.58-19.71-13.36,0-24.51,9.43-27.17,22-3.04-2.19-6.76-3.49-10.79-3.49-10.23,0-18.52,8.29-18.52,18.52,0,3.37.92,6.53,2.49,9.25-1.25-.29-2.55-.46-3.88-.46-9.46,0-17.13,7.67-17.13,17.13s7.67,17.13,17.13,17.13c2.23,0,4.36-.44,6.31-1.22,2.02,15.07,14.38,26.67,29.33,26.67,10.68,0,20.04-5.92,25.26-14.8,2.63,3.37,6.71,5.54,11.31,5.54,3.36,0,6.44-1.16,8.88-3.09,4.16,4.73,10.25,7.72,17.04,7.72,12.53,0,22.68-10.15,22.68-22.68,0-2.43-.39-4.78-1.1-6.98.21,0,.42.03.63.03,10.48,0,18.98-8.5,18.98-18.98Z"/>
          <path class="cls-43" d="m230.5,57.2c0-10.48-8.5-18.98-18.98-18.98-3.19,0-6.19.8-8.82,2.18-.32-9.95-8.46-17.92-18.49-17.92-3.11,0-6.03.77-8.6,2.12-3.45-11.41-14.05-19.71-26.58-19.71-13.36,0-24.51,9.43-27.17,22-3.04-2.19-6.76-3.49-10.79-3.49-10.23,0-18.52,8.29-18.52,18.52,0,3.37.92,6.53,2.49,9.25-1.25-.29-2.55-.46-3.88-.46-9.46,0-17.13,7.67-17.13,17.13s7.67,17.13,17.13,17.13c2.23,0,4.36-.44,6.31-1.22,2.02,15.07,14.38,26.67,29.33,26.67,10.68,0,20.04-5.92,25.26-14.8,2.63,3.37,6.71,5.54,11.31,5.54,3.36,0,6.44-1.16,8.88-3.09,4.16,4.73,10.25,7.72,17.04,7.72,12.53,0,22.68-10.15,22.68-22.68,0-2.43-.39-4.78-1.1-6.98.21,0,.42.03.63.03,10.48,0,18.98-8.5,18.98-18.98Z"/>
          <path class="cls-7" d="m230.26,56.95c0-10.48-8.5-18.98-18.98-18.98-3.19,0-6.19.8-8.82,2.18-.32-9.95-8.46-17.92-18.49-17.92-3.11,0-6.03.77-8.6,2.12-3.45-11.41-14.05-19.71-26.58-19.71-13.36,0-24.51,9.43-27.17,22-3.04-2.19-6.76-3.49-10.79-3.49-10.23,0-18.52,8.29-18.52,18.52,0,3.37.92,6.53,2.49,9.25-1.25-.29-2.55-.46-3.88-.46-9.46,0-17.13,7.67-17.13,17.13s7.67,17.13,17.13,17.13c2.23,0,4.36-.44,6.31-1.22,2.02,15.07,14.38,26.67,29.33,26.67,10.68,0,20.04-5.92,25.26-14.8,2.63,3.37,6.71,5.54,11.31,5.54,3.36,0,6.44-1.16,8.88-3.09,4.16,4.73,10.25,7.72,17.04,7.72,12.53,0,22.68-10.15,22.68-22.68,0-2.43-.39-4.78-1.1-6.98.21,0,.42.03.63.03,10.48,0,18.98-8.5,18.98-18.98Z"/>
          <path class="cls-18" d="m230.01,56.71c0-10.48-8.5-18.98-18.98-18.98-3.19,0-6.19.8-8.82,2.18-.32-9.95-8.46-17.92-18.49-17.92-3.11,0-6.03.77-8.6,2.12-3.45-11.41-14.05-19.71-26.58-19.71-13.36,0-24.51,9.43-27.17,22-3.04-2.19-6.76-3.49-10.79-3.49-10.23,0-18.52,8.29-18.52,18.52,0,3.37.92,6.53,2.49,9.25-1.25-.29-2.55-.46-3.88-.46-9.46,0-17.13,7.67-17.13,17.13s7.67,17.13,17.13,17.13c2.23,0,4.36-.44,6.31-1.22,2.02,15.07,14.38,26.67,29.33,26.67,10.68,0,20.04-5.92,25.26-14.8,2.63,3.37,6.71,5.54,11.31,5.54,3.36,0,6.44-1.16,8.88-3.09,4.16,4.73,10.25,7.72,17.04,7.72,12.53,0,22.68-10.15,22.68-22.68,0-2.43-.39-4.78-1.1-6.98.21,0,.42.03.63.03,10.48,0,18.98-8.5,18.98-18.98Z"/>
          <path class="cls-40" d="m229.77,56.46c0-10.48-8.5-18.98-18.98-18.98-3.19,0-6.19.8-8.82,2.18-.32-9.95-8.46-17.92-18.49-17.92-3.11,0-6.03.77-8.6,2.12-3.45-11.41-14.05-19.71-26.58-19.71-13.36,0-24.51,9.43-27.17,22-3.04-2.19-6.76-3.49-10.79-3.49-10.23,0-18.52,8.29-18.52,18.52,0,3.37.92,6.53,2.49,9.25-1.25-.29-2.55-.46-3.88-.46-9.46,0-17.13,7.67-17.13,17.13s7.67,17.13,17.13,17.13c2.23,0,4.36-.44,6.31-1.22,2.02,15.07,14.38,26.67,29.33,26.67,10.68,0,20.04-5.92,25.26-14.8,2.63,3.37,6.71,5.54,11.31,5.54,3.36,0,6.44-1.16,8.88-3.09,4.16,4.73,10.25,7.72,17.04,7.72,12.53,0,22.68-10.15,22.68-22.68,0-2.43-.39-4.78-1.1-6.98.21,0,.42.03.63.03,10.48,0,18.98-8.5,18.98-18.98Z"/>
          <path class="cls-37" d="m229.53,56.22c0-10.48-8.5-18.98-18.98-18.98-3.19,0-6.19.8-8.82,2.18-.32-9.95-8.46-17.92-18.49-17.92-3.11,0-6.03.77-8.6,2.12-3.45-11.41-14.05-19.71-26.58-19.71-13.36,0-24.51,9.43-27.17,22-3.04-2.19-6.76-3.49-10.79-3.49-10.23,0-18.52,8.29-18.52,18.52,0,3.37.92,6.53,2.49,9.25-1.25-.29-2.55-.46-3.88-.46-9.46,0-17.13,7.67-17.13,17.13s7.67,17.13,17.13,17.13c2.23,0,4.36-.44,6.31-1.22,2.02,15.07,14.38,26.67,29.33,26.67,10.68,0,20.04-5.92,25.26-14.8,2.63,3.37,6.71,5.54,11.31,5.54,3.36,0,6.44-1.16,8.88-3.09,4.16,4.73,10.25,7.72,17.04,7.72,12.53,0,22.68-10.15,22.68-22.68,0-2.43-.39-4.78-1.1-6.98.21,0,.42.03.63.03,10.48,0,18.98-8.5,18.98-18.98Z"/>
          <path class="cls-29" d="m229.28,55.98c0-10.48-8.5-18.98-18.98-18.98-3.19,0-6.19.8-8.82,2.18-.32-9.95-8.46-17.92-18.49-17.92-3.11,0-6.03.77-8.6,2.12-3.45-11.41-14.05-19.71-26.58-19.71-13.36,0-24.51,9.43-27.17,22-3.04-2.19-6.76-3.49-10.79-3.49-10.23,0-18.52,8.29-18.52,18.52,0,3.37.92,6.53,2.49,9.25-1.25-.29-2.55-.46-3.88-.46-9.46,0-17.13,7.67-17.13,17.13s7.67,17.13,17.13,17.13c2.23,0,4.36-.44,6.31-1.22,2.02,15.07,14.38,26.67,29.33,26.67,10.68,0,20.04-5.92,25.26-14.8,2.63,3.37,6.71,5.54,11.31,5.54,3.36,0,6.44-1.16,8.88-3.09,4.16,4.73,10.25,7.72,17.04,7.72,12.53,0,22.68-10.15,22.68-22.68,0-2.43-.39-4.78-1.1-6.98.21,0,.42.03.63.03,10.48,0,18.98-8.5,18.98-18.98Z"/>
          <path class="cls-44" d="m229.04,55.73c0-10.48-8.5-18.98-18.98-18.98-3.19,0-6.19.8-8.82,2.18-.32-9.95-8.46-17.92-18.49-17.92-3.11,0-6.03.77-8.6,2.12-3.45-11.41-14.05-19.71-26.58-19.71-13.36,0-24.51,9.43-27.17,22-3.04-2.19-6.76-3.49-10.79-3.49-10.23,0-18.52,8.29-18.52,18.52,0,3.37.92,6.53,2.49,9.25-1.25-.29-2.55-.46-3.88-.46-9.46,0-17.13,7.67-17.13,17.13s7.67,17.13,17.13,17.13c2.23,0,4.36-.44,6.31-1.22,2.02,15.07,14.38,26.67,29.33,26.67,10.68,0,20.04-5.92,25.26-14.8,2.63,3.37,6.71,5.54,11.31,5.54,3.36,0,6.44-1.16,8.88-3.09,4.16,4.73,10.25,7.72,17.04,7.72,12.53,0,22.68-10.15,22.68-22.68,0-2.43-.39-4.78-1.1-6.98.21,0,.42.03.63.03,10.48,0,18.98-8.5,18.98-18.98Z"/>
          <path class="cls-31" d="m228.79,55.49c0-10.48-8.5-18.98-18.98-18.98-3.19,0-6.19.8-8.82,2.18-.32-9.95-8.46-17.92-18.49-17.92-3.11,0-6.03.77-8.6,2.12-3.45-11.41-14.05-19.71-26.58-19.71-13.36,0-24.51,9.43-27.17,22-3.04-2.19-6.76-3.49-10.79-3.49-10.23,0-18.52,8.29-18.52,18.52,0,3.37.92,6.53,2.49,9.25-1.25-.29-2.55-.46-3.88-.46-9.46,0-17.13,7.67-17.13,17.13s7.67,17.13,17.13,17.13c2.23,0,4.36-.44,6.31-1.22,2.02,15.07,14.38,26.67,29.33,26.67,10.68,0,20.04-5.92,25.26-14.8,2.63,3.37,6.71,5.54,11.31,5.54,3.36,0,6.44-1.16,8.88-3.09,4.16,4.73,10.25,7.72,17.04,7.72,12.53,0,22.68-10.15,22.68-22.68,0-2.43-.39-4.78-1.1-6.98.21,0,.42.03.63.03,10.48,0,18.98-8.5,18.98-18.98Z"/>
          <path class="cls-45" d="m228.55,55.24c0-10.48-8.5-18.98-18.98-18.98-3.19,0-6.19.8-8.82,2.18-.32-9.95-8.46-17.92-18.49-17.92-3.11,0-6.03.77-8.6,2.12-3.45-11.41-14.05-19.71-26.58-19.71-13.36,0-24.51,9.43-27.17,22-3.04-2.19-6.76-3.49-10.79-3.49-10.23,0-18.52,8.29-18.52,18.52,0,3.37.92,6.53,2.49,9.25-1.25-.29-2.55-.46-3.88-.46-9.46,0-17.13,7.67-17.13,17.13s7.67,17.13,17.13,17.13c2.23,0,4.36-.44,6.31-1.22,2.02,15.07,14.38,26.67,29.33,26.67,10.68,0,20.04-5.92,25.26-14.8,2.63,3.37,6.71,5.54,11.31,5.54,3.36,0,6.44-1.16,8.88-3.09,4.16,4.73,10.25,7.72,17.04,7.72,12.53,0,22.68-10.15,22.68-22.68,0-2.43-.39-4.78-1.1-6.98.21,0,.42.03.63.03,10.48,0,18.98-8.5,18.98-18.98Z"/>
          <path class="cls-6" d="m228.31,55c0-10.48-8.5-18.98-18.98-18.98-3.19,0-6.19.8-8.82,2.18-.32-9.95-8.46-17.92-18.49-17.92-3.11,0-6.03.77-8.6,2.12-3.45-11.41-14.05-19.71-26.58-19.71-13.36,0-24.51,9.43-27.17,22-3.04-2.19-6.76-3.49-10.79-3.49-10.23,0-18.52,8.29-18.52,18.52,0,3.37.92,6.53,2.49,9.25-1.25-.29-2.55-.46-3.88-.46-9.46,0-17.13,7.67-17.13,17.13s7.67,17.13,17.13,17.13c2.23,0,4.36-.44,6.31-1.22,2.02,15.07,14.38,26.67,29.33,26.67,10.68,0,20.04-5.92,25.26-14.8,2.63,3.37,6.71,5.54,11.31,5.54,3.36,0,6.44-1.16,8.88-3.09,4.16,4.73,10.25,7.72,17.04,7.72,12.53,0,22.68-10.15,22.68-22.68,0-2.43-.39-4.78-1.1-6.98.21,0,.42.03.63.03,10.48,0,18.98-8.5,18.98-18.98Z"/>
          <path class="cls-22" d="m228.06,54.76c0-10.48-8.5-18.98-18.98-18.98-3.19,0-6.19.8-8.82,2.18-.32-9.95-8.46-17.92-18.49-17.92-3.11,0-6.03.77-8.6,2.12-3.45-11.41-14.05-19.71-26.58-19.71-13.36,0-24.51,9.43-27.17,22-3.04-2.19-6.76-3.49-10.79-3.49-10.23,0-18.52,8.29-18.52,18.52,0,3.37.92,6.53,2.49,9.25-1.25-.29-2.55-.46-3.88-.46-9.46,0-17.13,7.67-17.13,17.13s7.67,17.13,17.13,17.13c2.23,0,4.36-.44,6.31-1.22,2.02,15.07,14.38,26.67,29.33,26.67,10.68,0,20.04-5.92,25.26-14.8,2.63,3.37,6.71,5.54,11.31,5.54,3.36,0,6.44-1.16,8.88-3.09,4.16,4.73,10.25,7.72,17.04,7.72,12.53,0,22.68-10.15,22.68-22.68,0-2.43-.39-4.78-1.1-6.98.21,0,.42.03.63.03,10.48,0,18.98-8.5,18.98-18.98Z"/>
          <path class="cls-41" d="m227.82,54.51c0-10.48-8.5-18.98-18.98-18.98-3.19,0-6.19.8-8.82,2.18-.32-9.95-8.46-17.92-18.49-17.92-3.11,0-6.03.77-8.6,2.12-3.45-11.41-14.05-19.71-26.58-19.71-13.36,0-24.51,9.43-27.17,22-3.04-2.19-6.76-3.49-10.79-3.49-10.23,0-18.52,8.29-18.52,18.52,0,3.37.92,6.53,2.49,9.25-1.25-.29-2.55-.46-3.88-.46-9.46,0-17.13,7.67-17.13,17.13s7.67,17.13,17.13,17.13c2.23,0,4.36-.44,6.31-1.22,2.02,15.07,14.38,26.67,29.33,26.67,10.68,0,20.04-5.92,25.26-14.8,2.63,3.37,6.71,5.54,11.31,5.54,3.36,0,6.44-1.16,8.88-3.09,4.16,4.73,10.25,7.72,17.04,7.72,12.53,0,22.68-10.15,22.68-22.68,0-2.43-.39-4.78-1.1-6.98.21,0,.42.03.63.03,10.48,0,18.98-8.5,18.98-18.98Z"/>
          <path class="cls-4" d="m227.57,54.27c0-10.48-8.5-18.98-18.98-18.98-3.19,0-6.19.8-8.82,2.18-.32-9.95-8.46-17.92-18.49-17.92-3.11,0-6.03.77-8.6,2.12-3.45-11.41-14.05-19.71-26.58-19.71-13.36,0-24.51,9.43-27.17,22-3.04-2.19-6.76-3.49-10.79-3.49-10.23,0-18.52,8.29-18.52,18.52,0,3.37.92,6.53,2.49,9.25-1.25-.29-2.55-.46-3.88-.46-9.46,0-17.13,7.67-17.13,17.13s7.67,17.13,17.13,17.13c2.23,0,4.36-.44,6.31-1.22,2.02,15.07,14.38,26.67,29.33,26.67,10.68,0,20.04-5.92,25.26-14.8,2.63,3.37,6.71,5.54,11.31,5.54,3.36,0,6.44-1.16,8.88-3.09,4.16,4.73,10.25,7.72,17.04,7.72,12.53,0,22.68-10.15,22.68-22.68,0-2.43-.39-4.78-1.1-6.98.21,0,.42.03.63.03,10.48,0,18.98-8.5,18.98-18.98Z"/>
          <path class="cls-46" d="m227.33,54.02c0-10.48-8.5-18.98-18.98-18.98-3.19,0-6.19.8-8.82,2.18-.32-9.95-8.46-17.92-18.49-17.92-3.11,0-6.03.77-8.6,2.12-3.45-11.41-14.05-19.71-26.58-19.71-13.36,0-24.51,9.43-27.17,22-3.04-2.19-6.76-3.49-10.79-3.49-10.23,0-18.52,8.29-18.52,18.52,0,3.37.92,6.53,2.49,9.25-1.25-.29-2.55-.46-3.88-.46-9.46,0-17.13,7.67-17.13,17.13s7.67,17.13,17.13,17.13c2.23,0,4.36-.44,6.31-1.22,2.02,15.07,14.38,26.67,29.33,26.67,10.68,0,20.04-5.92,25.26-14.8,2.63,3.37,6.71,5.54,11.31,5.54,3.36,0,6.44-1.16,8.88-3.09,4.16,4.73,10.25,7.72,17.04,7.72,12.53,0,22.68-10.15,22.68-22.68,0-2.43-.39-4.78-1.1-6.98.21,0,.42.03.63.03,10.48,0,18.98-8.5,18.98-18.98Z"/>
          <path class="cls-36" d="m227.09,53.78c0-10.48-8.5-18.98-18.98-18.98-3.19,0-6.19.8-8.82,2.18-.32-9.95-8.46-17.92-18.49-17.92-3.11,0-6.03.77-8.6,2.13-3.45-11.41-14.05-19.71-26.58-19.71-13.36,0-24.51,9.43-27.17,22-3.04-2.19-6.76-3.49-10.79-3.49-10.23,0-18.52,8.29-18.52,18.52,0,3.37.92,6.53,2.49,9.25-1.25-.29-2.55-.46-3.88-.46-9.46,0-17.13,7.67-17.13,17.13s7.67,17.13,17.13,17.13c2.23,0,4.36-.44,6.31-1.22,2.02,15.07,14.38,26.67,29.33,26.67,10.68,0,20.04-5.92,25.26-14.8,2.63,3.37,6.71,5.54,11.31,5.54,3.36,0,6.44-1.16,8.88-3.09,4.16,4.73,10.25,7.72,17.04,7.72,12.53,0,22.68-10.15,22.68-22.68,0-2.43-.39-4.78-1.1-6.98.21,0,.42.03.63.03,10.48,0,18.98-8.5,18.98-18.98Z"/>
          <path class="cls-26" d="m226.84,53.54c0-10.48-8.5-18.98-18.98-18.98-3.19,0-6.19.8-8.82,2.18-.32-9.95-8.46-17.92-18.49-17.92-3.11,0-6.03.77-8.6,2.12-3.45-11.41-14.05-19.71-26.58-19.71-13.36,0-24.51,9.43-27.17,22-3.04-2.19-6.76-3.49-10.79-3.49-10.23,0-18.52,8.29-18.52,18.52,0,3.37.92,6.53,2.49,9.25-1.25-.29-2.55-.46-3.88-.46-9.46,0-17.13,7.67-17.13,17.13s7.67,17.13,17.13,17.13c2.23,0,4.36-.44,6.31-1.22,2.02,15.07,14.38,26.67,29.33,26.67,10.68,0,20.04-5.92,25.26-14.8,2.63,3.37,6.71,5.54,11.31,5.54,3.36,0,6.44-1.16,8.88-3.09,4.16,4.73,10.25,7.72,17.04,7.72,12.53,0,22.68-10.15,22.68-22.68,0-2.43-.39-4.78-1.1-6.98.21,0,.42.03.63.03,10.48,0,18.98-8.5,18.98-18.98Z"/>
          <path class="cls-28" d="m226.6,53.29c0-10.48-8.5-18.98-18.98-18.98-3.19,0-6.19.8-8.82,2.18-.32-9.95-8.46-17.92-18.49-17.92-3.11,0-6.03.77-8.6,2.12-3.45-11.41-14.05-19.71-26.58-19.71-13.36,0-24.51,9.43-27.17,22-3.04-2.19-6.76-3.49-10.79-3.49-10.23,0-18.52,8.29-18.52,18.52,0,3.37.92,6.53,2.49,9.25-1.25-.29-2.55-.46-3.88-.46-9.46,0-17.13,7.67-17.13,17.13s7.67,17.13,17.13,17.13c2.23,0,4.36-.44,6.31-1.22,2.02,15.07,14.38,26.67,29.33,26.67,10.68,0,20.04-5.92,25.26-14.8,2.63,3.37,6.71,5.54,11.31,5.54,3.36,0,6.44-1.16,8.88-3.09,4.16,4.73,10.25,7.72,17.04,7.72,12.53,0,22.68-10.15,22.68-22.68,0-2.43-.39-4.78-1.1-6.98.21,0,.42.03.63.03,10.48,0,18.98-8.5,18.98-18.98Z"/>
          <path class="cls-23" d="m226.36,53.05c0-10.48-8.5-18.98-18.98-18.98-3.19,0-6.19.8-8.82,2.18-.32-9.95-8.46-17.92-18.49-17.92-3.11,0-6.03.77-8.6,2.12-3.45-11.41-14.05-19.71-26.58-19.71-13.36,0-24.51,9.43-27.17,22-3.04-2.19-6.76-3.49-10.79-3.49-10.23,0-18.52,8.29-18.52,18.52,0,3.37.92,6.53,2.49,9.25-1.25-.29-2.55-.46-3.88-.46-9.46,0-17.13,7.67-17.13,17.13s7.67,17.13,17.13,17.13c2.23,0,4.36-.44,6.31-1.22,2.02,15.07,14.38,26.67,29.33,26.67,10.68,0,20.04-5.92,25.26-14.8,2.63,3.37,6.71,5.54,11.31,5.54,3.36,0,6.44-1.16,8.88-3.09,4.16,4.73,10.25,7.72,17.04,7.72,12.53,0,22.68-10.15,22.68-22.68,0-2.43-.39-4.78-1.1-6.98.21,0,.42.03.63.03,10.48,0,18.98-8.5,18.98-18.98Z"/>
          <path class="cls-2" d="m226.11,52.81c0-10.48-8.5-18.98-18.98-18.98-3.19,0-6.19.8-8.82,2.18-.32-9.95-8.46-17.92-18.49-17.92-3.11,0-6.03.77-8.6,2.12-3.45-11.41-14.05-19.71-26.58-19.71-13.36,0-24.51,9.43-27.17,22-3.04-2.19-6.76-3.49-10.79-3.49-10.23,0-18.52,8.29-18.52,18.52,0,3.37.92,6.53,2.49,9.25-1.25-.29-2.55-.46-3.88-.46-9.46,0-17.13,7.67-17.13,17.13s7.67,17.13,17.13,17.13c2.23,0,4.36-.44,6.31-1.22,2.02,15.07,14.38,26.67,29.33,26.67,10.68,0,20.04-5.92,25.26-14.8,2.63,3.37,6.71,5.54,11.31,5.54,3.36,0,6.44-1.16,8.88-3.09,4.16,4.73,10.25,7.72,17.04,7.72,12.53,0,22.68-10.15,22.68-22.68,0-2.43-.39-4.78-1.1-6.98.21,0,.42.03.63.03,10.48,0,18.98-8.5,18.98-18.98Z"/>
        </g>
        <path class="cls-19" d="m226.11,52.81c0-10.48-8.5-18.98-18.98-18.98-3.19,0-6.19.8-8.82,2.18-.32-9.95-8.46-17.92-18.49-17.92-3.11,0-6.03.77-8.6,2.12-3.45-11.41-14.05-19.71-26.58-19.71-13.36,0-24.51,9.43-27.17,22-3.04-2.19-6.76-3.49-10.79-3.49-10.23,0-18.52,8.29-18.52,18.52,0,3.37.92,6.53,2.49,9.25-1.25-.29-2.55-.46-3.88-.46-9.46,0-17.13,7.67-17.13,17.13s7.67,17.13,17.13,17.13c2.23,0,4.36-.44,6.31-1.22,2.02,15.07,14.38,26.67,29.33,26.67,10.68,0,20.04-5.92,25.26-14.8,2.63,3.37,6.71,5.54,11.31,5.54,3.36,0,6.44-1.16,8.88-3.09,4.16,4.73,10.25,7.72,17.04,7.72,12.53,0,22.68-10.15,22.68-22.68,0-2.43-.39-4.78-1.1-6.98.21,0,.42.03.63.03,10.48,0,18.98-8.5,18.98-18.98Z"/>
      </g>
    </g>
  </g>
</svg>