<?xml version="1.0" encoding="UTF-8"?>
<svg xmlns="http://www.w3.org/2000/svg" xmlns:xlink="http://www.w3.org/1999/xlink" viewBox="0 0 326.27 107.75">
  <defs>
    <style>
      .cls-1 {
        fill: #7e8fa4;
        opacity: .51;
      }

      .cls-2 {
        fill: #085370;
      }

      .cls-3 {
        fill: #ecedf0;
        opacity: .05;
      }

      .cls-4 {
        fill: #39627d;
        opacity: .85;
      }

      .cls-5 {
        mix-blend-mode: multiply;
        opacity: .7;
      }

      .cls-6 {
        fill: #496a85;
        opacity: .78;
      }

      .cls-7 {
        fill: #70849b;
        opacity: .59;
      }

      .cls-8 {
        fill: #8393a8;
        opacity: .49;
      }

      .cls-9 {
        fill: #cacfd8;
        opacity: .17;
      }

      .cls-10 {
        fill: #f4f4f6;
        opacity: .02;
      }

      .cls-11 {
        fill: #fff;
        opacity: 0;
      }

      .cls-12 {
        fill: #adb6c4;
        opacity: .29;
      }

      .cls-13 {
        fill: #a7b1c0;
        opacity: .32;
      }

      .cls-14 {
        fill: #929fb2;
        opacity: .41;
      }

      .cls-15 {
        fill: #8d9bae;
        opacity: .44;
      }

      .cls-16 {
        isolation: isolate;
      }

      .cls-17 {
        fill: #a2acbc;
        opacity: .34;
      }

      .cls-18 {
        fill: #6b8098;
        opacity: .61;
      }

      .cls-19 {
        fill: url(#radial-gradient-3);
      }

      .cls-19, .cls-20, .cls-21 {
        stroke: #fff;
        stroke-miterlimit: 10;
      }

      .cls-22 {
        fill: #446782;
        opacity: .8;
      }

      .cls-23 {
        fill: #155572;
        opacity: .98;
      }

      .cls-24 {
        fill: #8897ab;
        opacity: .46;
      }

      .cls-25 {
        fill: #bec5d0;
        opacity: .22;
      }

      .cls-26 {
        fill: #265a76;
        opacity: .93;
      }

      .cls-27 {
        fill: #9ca8b9;
        opacity: .37;
      }

      .cls-28 {
        fill: #1f5774;
        opacity: .95;
      }

      .cls-29 {
        fill: #5d768f;
        opacity: .68;
      }

      .cls-30 {
        fill: #d1d5dc;
        opacity: .15;
      }

      .cls-31 {
        fill: #53708a;
        opacity: .73;
      }

      .cls-20 {
        fill: url(#radial-gradient-2);
      }

      .cls-32 {
        fill: #b3bbc8;
        opacity: .27;
      }

      .cls-33 {
        fill: #c4cad4;
        opacity: .2;
      }

      .cls-34 {
        fill: #97a4b5;
        opacity: .39;
      }

      .cls-35 {
        fill: #798ba1;
        opacity: .54;
      }

      .cls-36 {
        fill: #2d5c79;
        opacity: .9;
      }

      .cls-37 {
        fill: #627992;
        opacity: .66;
      }

      .cls-38 {
        fill: #e5e6ea;
        opacity: .07;
      }

      .cls-39 {
        fill: #dee0e5;
        opacity: .1;
      }

      .cls-40 {
        fill: #667d95;
        opacity: .63;
      }

      .cls-41 {
        fill: #3f6480;
        opacity: .83;
      }

      .cls-42 {
        fill: #b9c0cc;
        opacity: .24;
      }

      .cls-43 {
        fill: #74879e;
        opacity: .56;
      }

      .cls-21 {
        fill: url(#radial-gradient);
      }

      .cls-44 {
        fill: #58738d;
        opacity: .71;
      }

      .cls-45 {
        fill: #4e6d87;
        opacity: .76;
      }

      .cls-46 {
        fill: #335f7b;
        opacity: .88;
      }

      .cls-47 {
        fill: #d7dae1;
        opacity: .12;
      }
    </style>
    <radialGradient id="radial-gradient" cx="240.17" cy="64.62" fx="240.17" fy="64.62" r="91.83" gradientTransform="translate(0 15.86) scale(1 .75)" gradientUnits="userSpaceOnUse">
      <stop offset="0" stop-color="#fff"/>
      <stop offset=".3" stop-color="#fbfdfd"/>
      <stop offset=".55" stop-color="#f1f9fa"/>
      <stop offset=".78" stop-color="#e0f2f5"/>
      <stop offset=".98" stop-color="#cbeaee"/>
    </radialGradient>
    <radialGradient id="radial-gradient-2" cx="87.29" cy="57.01" fx="87.29" fy="57.01" r="91.74" gradientTransform="translate(0 17.65) scale(1 .69)" gradientUnits="userSpaceOnUse">
      <stop offset="0" stop-color="#fff"/>
      <stop offset=".27" stop-color="#f6fbfc"/>
      <stop offset=".68" stop-color="#e0f2f5"/>
      <stop offset="1" stop-color="#cbeaee"/>
    </radialGradient>
    <radialGradient id="radial-gradient-3" cx="172.14" cy="59.36" fx="172.14" fy="59.36" r="90.1" gradientTransform="translate(0 16.97) scale(1 .71)" gradientUnits="userSpaceOnUse">
      <stop offset="0" stop-color="#fff"/>
      <stop offset=".39" stop-color="#fcfefe"/>
      <stop offset=".61" stop-color="#f4fafb"/>
      <stop offset=".79" stop-color="#e6f5f6"/>
      <stop offset=".95" stop-color="#d2edf0"/>
      <stop offset="1" stop-color="#cbeaee"/>
    </radialGradient>
  </defs>
  <g class="cls-16">
    <g id="Layer_1" data-name="Layer 1">
      <g>
        <g class="cls-5">
          <path class="cls-11" d="m307.29,42.29c-2.15,0-4.2.37-6.13,1.03.07-.73.11-1.48.11-2.23,0-13.04-10.57-23.61-23.61-23.61-9.99,0-18.53,6.21-21.97,14.98-3.2-2.97-7.48-4.79-12.19-4.79-5.56,0-10.53,2.53-13.83,6.5-3.79-8.71-12.17-14.76-21.91-14.76-13.02,0-23.62,10.82-24.05,24.34-2.4-1.1-5.07-1.73-7.89-1.73-10.48,0-18.98,8.5-18.98,18.98s8.26,18.72,18.53,18.96c-.35,2.99.07,6.04,1.37,8.89,4.15,9.11,15.71,12.75,25.82,8.14,2.02-.92,3.82-2.1,5.39-3.48,3.8,2.06,8.25,3.25,13.01,3.25,3.71,0,7.23-.73,10.4-2.02,4.73,7.81,13.06,13.01,22.55,13.01s18.37-5.54,23.01-13.79c3.09,2.27,6.84,3.62,10.9,3.62,9.67,0,17.63-7.57,18.81-17.36.21,0,.42.03.63.03,10.48,0,18.98-8.5,18.98-18.98s-8.5-18.98-18.98-18.98Z"/>
          <path class="cls-10" d="m307.04,42.05c-2.15,0-4.2.37-6.13,1.03.07-.73.11-1.48.11-2.23,0-13.04-10.57-23.61-23.61-23.61-9.99,0-18.53,6.21-21.97,14.98-3.2-2.97-7.48-4.79-12.19-4.79-5.56,0-10.53,2.53-13.83,6.5-3.79-8.71-12.17-14.76-21.91-14.76-13.02,0-23.62,10.82-24.05,24.34-2.4-1.1-5.07-1.73-7.89-1.73-10.48,0-18.98,8.5-18.98,18.98s8.26,18.72,18.53,18.96c-.35,2.99.07,6.04,1.37,8.89,4.15,9.11,15.71,12.75,25.82,8.14,2.02-.92,3.82-2.1,5.39-3.48,3.8,2.06,8.25,3.25,13.01,3.25,3.71,0,7.23-.73,10.4-2.02,4.73,7.81,13.06,13.01,22.55,13.01s18.37-5.54,23.01-13.79c3.09,2.27,6.84,3.62,10.9,3.62,9.67,0,17.63-7.57,18.81-17.36.21,0,.42.03.63.03,10.48,0,18.98-8.5,18.98-18.98s-8.5-18.98-18.98-18.98Z"/>
          <path class="cls-3" d="m306.8,41.81c-2.15,0-4.2.37-6.13,1.03.07-.73.11-1.48.11-2.23,0-13.04-10.57-23.61-23.61-23.61-9.99,0-18.53,6.21-21.97,14.98-3.2-2.97-7.48-4.79-12.19-4.79-5.56,0-10.53,2.53-13.83,6.5-3.79-8.71-12.17-14.76-21.91-14.76-13.02,0-23.62,10.82-24.05,24.34-2.4-1.1-5.07-1.73-7.89-1.73-10.48,0-18.98,8.5-18.98,18.98s8.26,18.72,18.53,18.96c-.35,2.99.07,6.04,1.37,8.89,4.15,9.11,15.71,12.75,25.82,8.14,2.02-.92,3.82-2.1,5.39-3.48,3.8,2.06,8.25,3.25,13.01,3.25,3.71,0,7.23-.73,10.4-2.02,4.73,7.81,13.06,13.01,22.55,13.01s18.37-5.54,23.01-13.79c3.09,2.27,6.84,3.62,10.9,3.62,9.67,0,17.63-7.57,18.81-17.36.21,0,.42.03.63.03,10.48,0,18.98-8.5,18.98-18.98s-8.5-18.98-18.98-18.98Z"/>
          <path class="cls-38" d="m306.56,41.56c-2.15,0-4.2.37-6.13,1.03.07-.73.11-1.48.11-2.23,0-13.04-10.57-23.61-23.61-23.61-9.99,0-18.53,6.21-21.97,14.98-3.2-2.97-7.48-4.79-12.19-4.79-5.56,0-10.53,2.53-13.83,6.5-3.79-8.71-12.17-14.76-21.91-14.76-13.02,0-23.62,10.82-24.05,24.34-2.4-1.1-5.07-1.73-7.89-1.73-10.48,0-18.98,8.5-18.98,18.98s8.26,18.72,18.53,18.96c-.35,2.99.07,6.04,1.37,8.89,4.15,9.11,15.71,12.75,25.82,8.14,2.02-.92,3.82-2.1,5.39-3.48,3.8,2.06,8.25,3.25,13.01,3.25,3.71,0,7.23-.73,10.4-2.02,4.73,7.81,13.06,13.01,22.55,13.01s18.37-5.54,23.01-13.79c3.09,2.27,6.84,3.62,10.9,3.62,9.67,0,17.63-7.57,18.81-17.36.21,0,.42.03.63.03,10.48,0,18.98-8.5,18.98-18.98s-8.5-18.98-18.98-18.98Z"/>
          <path class="cls-39" d="m306.31,41.32c-2.15,0-4.2.37-6.13,1.03.07-.73.11-1.48.11-2.23,0-13.04-10.57-23.61-23.61-23.61-9.99,0-18.53,6.21-21.97,14.98-3.2-2.97-7.48-4.79-12.19-4.79-5.56,0-10.53,2.53-13.83,6.5-3.79-8.71-12.17-14.76-21.91-14.76-13.02,0-23.62,10.82-24.05,24.34-2.4-1.1-5.07-1.73-7.89-1.73-10.48,0-18.98,8.5-18.98,18.98s8.26,18.72,18.53,18.96c-.35,2.99.07,6.04,1.37,8.89,4.15,9.11,15.71,12.75,25.82,8.14,2.02-.92,3.82-2.1,5.39-3.48,3.8,2.06,8.25,3.25,13.01,3.25,3.71,0,7.23-.73,10.4-2.02,4.73,7.81,13.06,13.01,22.55,13.01s18.37-5.54,23.01-13.79c3.09,2.27,6.84,3.62,10.9,3.62,9.67,0,17.63-7.57,18.81-17.36.21,0,.42.03.63.03,10.48,0,18.98-8.5,18.98-18.98s-8.5-18.98-18.98-18.98Z"/>
          <path class="cls-47" d="m306.07,41.07c-2.15,0-4.2.37-6.13,1.03.07-.73.11-1.48.11-2.23,0-13.04-10.57-23.61-23.61-23.61-9.99,0-18.53,6.21-21.97,14.98-3.2-2.97-7.48-4.79-12.19-4.79-5.56,0-10.53,2.53-13.83,6.5-3.79-8.71-12.17-14.76-21.91-14.76-13.02,0-23.62,10.82-24.05,24.34-2.4-1.1-5.07-1.73-7.89-1.73-10.48,0-18.98,8.5-18.98,18.98s8.26,18.72,18.53,18.96c-.35,2.99.07,6.04,1.37,8.89,4.15,9.11,15.71,12.75,25.82,8.14,2.02-.92,3.82-2.1,5.39-3.48,3.8,2.06,8.25,3.25,13.01,3.25,3.71,0,7.23-.73,10.4-2.02,4.73,7.81,13.06,13.01,22.55,13.01s18.37-5.54,23.01-13.79c3.09,2.27,6.84,3.62,10.9,3.62,9.67,0,17.63-7.57,18.81-17.36.21,0,.42.03.63.03,10.48,0,18.98-8.5,18.98-18.98s-8.5-18.98-18.98-18.98Z"/>
          <path class="cls-30" d="m305.82,40.83c-2.15,0-4.2.37-6.13,1.03.07-.73.11-1.48.11-2.23,0-13.04-10.57-23.61-23.61-23.61-9.99,0-18.53,6.21-21.97,14.98-3.2-2.97-7.48-4.79-12.19-4.79-5.56,0-10.53,2.53-13.83,6.5-3.79-8.71-12.17-14.76-21.91-14.76-13.02,0-23.62,10.82-24.05,24.34-2.4-1.1-5.07-1.73-7.89-1.73-10.48,0-18.98,8.5-18.98,18.98s8.26,18.72,18.53,18.96c-.35,2.99.07,6.04,1.37,8.89,4.15,9.11,15.71,12.75,25.82,8.14,2.02-.92,3.82-2.1,5.39-3.48,3.8,2.06,8.25,3.25,13.01,3.25,3.71,0,7.23-.73,10.4-2.02,4.73,7.81,13.06,13.01,22.55,13.01s18.37-5.54,23.01-13.79c3.09,2.27,6.84,3.62,10.9,3.62,9.67,0,17.63-7.57,18.81-17.36.21,0,.42.03.63.03,10.48,0,18.98-8.5,18.98-18.98s-8.5-18.98-18.98-18.98Z"/>
          <path class="cls-9" d="m305.58,40.59c-2.15,0-4.2.37-6.13,1.03.07-.73.11-1.48.11-2.23,0-13.04-10.57-23.61-23.61-23.61-9.99,0-18.53,6.21-21.97,14.98-3.2-2.97-7.48-4.79-12.19-4.79-5.56,0-10.53,2.53-13.83,6.5-3.79-8.71-12.17-14.76-21.91-14.76-13.02,0-23.62,10.82-24.05,24.34-2.4-1.1-5.07-1.73-7.89-1.73-10.48,0-18.98,8.5-18.98,18.98s8.26,18.72,18.53,18.96c-.35,2.99.07,6.04,1.37,8.89,4.15,9.11,15.71,12.75,25.82,8.14,2.02-.92,3.82-2.1,5.39-3.48,3.8,2.06,8.25,3.25,13.01,3.25,3.71,0,7.23-.73,10.4-2.02,4.73,7.81,13.06,13.01,22.55,13.01s18.37-5.54,23.01-13.79c3.09,2.27,6.84,3.62,10.9,3.62,9.67,0,17.63-7.57,18.81-17.36.21,0,.42.03.63.03,10.48,0,18.98-8.5,18.98-18.98s-8.5-18.98-18.98-18.98Z"/>
          <path class="cls-33" d="m305.34,40.34c-2.15,0-4.2.37-6.13,1.03.07-.73.11-1.48.11-2.23,0-13.04-10.57-23.61-23.61-23.61-9.99,0-18.53,6.21-21.97,14.98-3.2-2.97-7.48-4.79-12.19-4.79-5.56,0-10.53,2.53-13.83,6.5-3.79-8.71-12.17-14.76-21.91-14.76-13.02,0-23.62,10.82-24.05,24.34-2.4-1.1-5.07-1.73-7.89-1.73-10.48,0-18.98,8.5-18.98,18.98s8.26,18.72,18.53,18.96c-.35,2.99.07,6.04,1.37,8.89,4.15,9.11,15.71,12.75,25.82,8.14,2.02-.92,3.82-2.1,5.39-3.48,3.8,2.06,8.25,3.25,13.01,3.25,3.71,0,7.23-.73,10.4-2.02,4.73,7.81,13.06,13.01,22.55,13.01s18.37-5.54,23.01-13.79c3.09,2.27,6.84,3.62,10.9,3.62,9.67,0,17.63-7.57,18.81-17.36.21,0,.42.03.63.03,10.48,0,18.98-8.5,18.98-18.98s-8.5-18.98-18.98-18.98Z"/>
          <path class="cls-25" d="m305.09,40.1c-2.15,0-4.2.37-6.13,1.03.07-.73.11-1.48.11-2.23,0-13.04-10.57-23.61-23.61-23.61-9.99,0-18.53,6.21-21.97,14.98-3.2-2.97-7.48-4.79-12.19-4.79-5.56,0-10.53,2.53-13.83,6.5-3.79-8.71-12.17-14.76-21.91-14.76-13.02,0-23.62,10.82-24.05,24.34-2.4-1.1-5.07-1.73-7.89-1.73-10.48,0-18.98,8.5-18.98,18.98s8.26,18.72,18.53,18.96c-.35,2.99.07,6.04,1.37,8.89,4.15,9.11,15.71,12.75,25.82,8.14,2.02-.92,3.82-2.1,5.39-3.48,3.8,2.06,8.25,3.25,13.01,3.25,3.71,0,7.23-.73,10.4-2.02,4.73,7.81,13.06,13.01,22.55,13.01s18.37-5.54,23.01-13.79c3.09,2.27,6.84,3.62,10.9,3.62,9.67,0,17.63-7.57,18.81-17.36.21,0,.42.03.63.03,10.48,0,18.98-8.5,18.98-18.98s-8.5-18.98-18.98-18.98Z"/>
          <path class="cls-42" d="m304.85,39.86c-2.15,0-4.2.37-6.13,1.03.07-.73.11-1.48.11-2.23,0-13.04-10.57-23.61-23.61-23.61-9.99,0-18.53,6.21-21.97,14.98-3.2-2.97-7.48-4.79-12.19-4.79-5.56,0-10.53,2.53-13.83,6.5-3.79-8.71-12.17-14.76-21.91-14.76-13.02,0-23.62,10.82-24.05,24.34-2.41-1.1-5.07-1.73-7.89-1.73-10.48,0-18.98,8.5-18.98,18.98s8.26,18.72,18.53,18.96c-.35,2.99.07,6.04,1.37,8.89,4.15,9.11,15.71,12.75,25.82,8.14,2.02-.92,3.82-2.1,5.39-3.48,3.8,2.06,8.25,3.25,13.01,3.25,3.71,0,7.23-.73,10.4-2.02,4.73,7.81,13.06,13.01,22.55,13.01s18.37-5.54,23.01-13.79c3.09,2.27,6.84,3.62,10.9,3.62,9.67,0,17.63-7.57,18.81-17.36.21,0,.42.03.63.03,10.48,0,18.98-8.5,18.98-18.98s-8.5-18.98-18.98-18.98Z"/>
          <path class="cls-32" d="m304.61,39.61c-2.15,0-4.2.37-6.13,1.03.07-.73.11-1.48.11-2.23,0-13.04-10.57-23.61-23.61-23.61-9.99,0-18.53,6.21-21.97,14.98-3.2-2.97-7.48-4.79-12.19-4.79-5.56,0-10.53,2.53-13.83,6.5-3.79-8.71-12.17-14.76-21.91-14.76-13.02,0-23.62,10.82-24.05,24.34-2.4-1.1-5.07-1.73-7.89-1.73-10.48,0-18.98,8.5-18.98,18.98s8.26,18.72,18.53,18.96c-.35,2.99.07,6.04,1.37,8.89,4.15,9.11,15.71,12.75,25.82,8.14,2.02-.92,3.82-2.1,5.39-3.48,3.8,2.06,8.25,3.25,13.01,3.25,3.71,0,7.23-.73,10.4-2.02,4.73,7.81,13.06,13.01,22.55,13.01s18.37-5.54,23.01-13.79c3.09,2.27,6.84,3.62,10.9,3.62,9.67,0,17.63-7.57,18.81-17.36.21,0,.42.03.63.03,10.48,0,18.98-8.5,18.98-18.98s-8.5-18.98-18.98-18.98Z"/>
          <path class="cls-12" d="m304.36,39.37c-2.15,0-4.2.37-6.13,1.03.07-.73.11-1.48.11-2.23,0-13.04-10.57-23.61-23.61-23.61-9.99,0-18.53,6.21-21.97,14.98-3.2-2.97-7.48-4.79-12.19-4.79-5.56,0-10.53,2.53-13.83,6.5-3.79-8.71-12.17-14.76-21.91-14.76-13.02,0-23.62,10.82-24.05,24.34-2.4-1.1-5.07-1.73-7.89-1.73-10.48,0-18.98,8.5-18.98,18.98s8.26,18.72,18.53,18.96c-.35,2.99.07,6.04,1.37,8.89,4.15,9.11,15.71,12.75,25.82,8.14,2.02-.92,3.82-2.1,5.39-3.48,3.8,2.06,8.25,3.25,13.01,3.25,3.71,0,7.23-.73,10.4-2.02,4.73,7.81,13.06,13.01,22.55,13.01s18.37-5.54,23.01-13.79c3.09,2.27,6.84,3.62,10.9,3.62,9.67,0,17.63-7.57,18.81-17.36.21,0,.42.03.63.03,10.48,0,18.98-8.5,18.98-18.98s-8.5-18.98-18.98-18.98Z"/>
          <path class="cls-13" d="m304.12,39.12c-2.15,0-4.2.37-6.13,1.03.07-.73.11-1.48.11-2.23,0-13.04-10.57-23.61-23.61-23.61-9.99,0-18.53,6.21-21.97,14.98-3.2-2.97-7.48-4.79-12.19-4.79-5.56,0-10.53,2.53-13.83,6.5-3.79-8.71-12.17-14.76-21.91-14.76-13.02,0-23.62,10.82-24.05,24.34-2.41-1.1-5.07-1.73-7.89-1.73-10.48,0-18.98,8.5-18.98,18.98s8.26,18.72,18.53,18.96c-.35,2.99.07,6.04,1.37,8.89,4.15,9.11,15.71,12.75,25.82,8.14,2.02-.92,3.82-2.1,5.39-3.48,3.8,2.06,8.25,3.25,13.01,3.25,3.71,0,7.23-.73,10.4-2.02,4.73,7.81,13.06,13.01,22.55,13.01s18.37-5.54,23.01-13.79c3.09,2.27,6.84,3.62,10.9,3.62,9.67,0,17.63-7.57,18.81-17.36.21,0,.42.03.63.03,10.48,0,18.98-8.5,18.98-18.98s-8.5-18.98-18.98-18.98Z"/>
          <path class="cls-17" d="m303.87,38.88c-2.15,0-4.2.37-6.13,1.03.07-.73.11-1.48.11-2.23,0-13.04-10.57-23.61-23.61-23.61-9.99,0-18.53,6.21-21.97,14.98-3.2-2.97-7.48-4.79-12.19-4.79-5.56,0-10.53,2.53-13.83,6.5-3.79-8.71-12.17-14.76-21.91-14.76-13.02,0-23.62,10.82-24.05,24.34-2.41-1.1-5.07-1.73-7.89-1.73-10.48,0-18.98,8.5-18.98,18.98s8.26,18.72,18.53,18.96c-.35,2.99.07,6.04,1.37,8.89,4.15,9.11,15.71,12.75,25.82,8.14,2.02-.92,3.82-2.1,5.39-3.48,3.8,2.06,8.25,3.25,13.01,3.25,3.71,0,7.23-.73,10.4-2.02,4.73,7.81,13.06,13.01,22.55,13.01s18.37-5.54,23.01-13.79c3.09,2.27,6.84,3.62,10.9,3.62,9.67,0,17.63-7.57,18.81-17.36.21,0,.42.03.63.03,10.48,0,18.98-8.5,18.98-18.98s-8.5-18.98-18.98-18.98Z"/>
          <path class="cls-27" d="m303.63,38.64c-2.15,0-4.2.37-6.13,1.03.07-.73.11-1.48.11-2.23,0-13.04-10.57-23.61-23.61-23.61-9.99,0-18.53,6.21-21.97,14.98-3.2-2.97-7.48-4.79-12.19-4.79-5.56,0-10.53,2.53-13.83,6.5-3.79-8.71-12.17-14.76-21.91-14.76-13.02,0-23.62,10.82-24.05,24.34-2.4-1.1-5.07-1.73-7.89-1.73-10.48,0-18.98,8.5-18.98,18.98s8.26,18.72,18.53,18.96c-.35,2.99.07,6.04,1.37,8.89,4.15,9.11,15.71,12.75,25.82,8.14,2.02-.92,3.82-2.1,5.39-3.48,3.8,2.06,8.25,3.25,13.01,3.25,3.71,0,7.23-.73,10.4-2.02,4.73,7.81,13.06,13.01,22.55,13.01s18.37-5.54,23.01-13.79c3.09,2.27,6.84,3.62,10.9,3.62,9.67,0,17.63-7.57,18.81-17.36.21,0,.42.03.63.03,10.48,0,18.98-8.5,18.98-18.98s-8.5-18.98-18.98-18.98Z"/>
          <path class="cls-34" d="m303.39,38.39c-2.15,0-4.2.37-6.13,1.03.07-.73.11-1.48.11-2.23,0-13.04-10.57-23.61-23.61-23.61-9.99,0-18.53,6.21-21.97,14.98-3.2-2.97-7.48-4.79-12.19-4.79-5.56,0-10.53,2.53-13.83,6.5-3.79-8.71-12.17-14.76-21.91-14.76-13.02,0-23.62,10.82-24.05,24.34-2.4-1.1-5.07-1.73-7.89-1.73-10.48,0-18.98,8.5-18.98,18.98s8.26,18.72,18.53,18.96c-.35,2.99.07,6.04,1.37,8.89,4.15,9.11,15.71,12.75,25.82,8.14,2.02-.92,3.82-2.1,5.39-3.48,3.8,2.06,8.25,3.25,13.01,3.25,3.71,0,7.23-.73,10.4-2.02,4.73,7.81,13.06,13.01,22.55,13.01s18.37-5.54,23.01-13.79c3.09,2.27,6.84,3.62,10.9,3.62,9.67,0,17.63-7.57,18.81-17.36.21,0,.42.03.63.03,10.48,0,18.98-8.5,18.98-18.98s-8.5-18.98-18.98-18.98Z"/>
          <path class="cls-14" d="m303.14,38.15c-2.15,0-4.2.37-6.13,1.03.07-.73.11-1.48.11-2.23,0-13.04-10.57-23.61-23.61-23.61-9.99,0-18.53,6.21-21.97,14.98-3.2-2.97-7.48-4.79-12.19-4.79-5.56,0-10.53,2.53-13.83,6.5-3.79-8.71-12.17-14.76-21.91-14.76-13.02,0-23.62,10.82-24.05,24.34-2.4-1.1-5.07-1.73-7.89-1.73-10.48,0-18.98,8.5-18.98,18.98s8.26,18.72,18.53,18.96c-.35,2.99.07,6.04,1.37,8.89,4.15,9.11,15.71,12.75,25.82,8.14,2.02-.92,3.82-2.1,5.39-3.48,3.8,2.06,8.25,3.25,13.01,3.25,3.71,0,7.23-.73,10.4-2.02,4.73,7.81,13.06,13.01,22.55,13.01s18.37-5.54,23.01-13.79c3.09,2.27,6.84,3.62,10.9,3.62,9.67,0,17.63-7.57,18.81-17.36.21,0,.42.03.63.03,10.48,0,18.98-8.5,18.98-18.98s-8.5-18.98-18.98-18.98Z"/>
          <path class="cls-15" d="m302.9,37.9c-2.15,0-4.2.37-6.13,1.03.07-.73.11-1.48.11-2.23,0-13.04-10.57-23.61-23.61-23.61-9.99,0-18.53,6.21-21.97,14.98-3.2-2.97-7.48-4.79-12.19-4.79-5.56,0-10.53,2.53-13.83,6.5-3.79-8.71-12.17-14.76-21.91-14.76-13.02,0-23.62,10.82-24.05,24.34-2.4-1.1-5.07-1.73-7.89-1.73-10.48,0-18.98,8.5-18.98,18.98s8.26,18.72,18.53,18.96c-.35,2.99.07,6.04,1.37,8.89,4.15,9.11,15.71,12.75,25.82,8.14,2.02-.92,3.82-2.1,5.39-3.48,3.8,2.06,8.25,3.25,13.01,3.25,3.71,0,7.23-.73,10.4-2.02,4.73,7.81,13.06,13.01,22.55,13.01s18.37-5.54,23.01-13.79c3.09,2.27,6.84,3.62,10.9,3.62,9.67,0,17.63-7.57,18.81-17.36.21,0,.42.03.63.03,10.48,0,18.98-8.5,18.98-18.98s-8.5-18.98-18.98-18.98Z"/>
          <path class="cls-24" d="m302.65,37.66c-2.15,0-4.2.37-6.13,1.03.07-.73.11-1.48.11-2.23,0-13.04-10.57-23.61-23.61-23.61-9.99,0-18.53,6.21-21.97,14.98-3.2-2.97-7.48-4.79-12.19-4.79-5.56,0-10.53,2.53-13.83,6.5-3.79-8.71-12.17-14.76-21.91-14.76-13.02,0-23.62,10.82-24.05,24.34-2.4-1.1-5.07-1.73-7.89-1.73-10.48,0-18.98,8.5-18.98,18.98s8.26,18.72,18.53,18.96c-.35,2.99.07,6.04,1.37,8.89,4.15,9.11,15.71,12.75,25.82,8.14,2.02-.92,3.82-2.1,5.39-3.48,3.8,2.06,8.25,3.25,13.01,3.25,3.71,0,7.23-.73,10.4-2.02,4.73,7.81,13.06,13.01,22.55,13.01s18.37-5.54,23.01-13.79c3.09,2.27,6.84,3.62,10.9,3.62,9.67,0,17.63-7.57,18.81-17.36.21,0,.42.03.63.03,10.48,0,18.98-8.5,18.98-18.98s-8.5-18.98-18.98-18.98Z"/>
          <path class="cls-8" d="m302.41,37.42c-2.15,0-4.2.37-6.13,1.03.07-.73.11-1.48.11-2.23,0-13.04-10.57-23.61-23.61-23.61-9.99,0-18.53,6.21-21.97,14.98-3.2-2.97-7.48-4.79-12.19-4.79-5.56,0-10.53,2.53-13.83,6.5-3.79-8.71-12.17-14.76-21.91-14.76-13.02,0-23.62,10.82-24.05,24.34-2.4-1.1-5.07-1.73-7.89-1.73-10.48,0-18.98,8.5-18.98,18.98s8.26,18.72,18.53,18.96c-.35,2.99.07,6.04,1.37,8.89,4.15,9.11,15.71,12.75,25.82,8.14,2.02-.92,3.82-2.1,5.39-3.48,3.8,2.06,8.25,3.25,13.01,3.25,3.71,0,7.23-.73,10.4-2.02,4.73,7.81,13.06,13.01,22.55,13.01s18.37-5.54,23.01-13.79c3.09,2.27,6.84,3.62,10.9,3.62,9.67,0,17.63-7.57,18.81-17.36.21,0,.42.03.63.03,10.48,0,18.98-8.5,18.98-18.98s-8.5-18.98-18.98-18.98Z"/>
          <path class="cls-1" d="m302.17,37.17c-2.15,0-4.2.37-6.13,1.03.07-.73.11-1.48.11-2.23,0-13.04-10.57-23.61-23.61-23.61-9.99,0-18.53,6.21-21.97,14.98-3.2-2.97-7.48-4.79-12.19-4.79-5.56,0-10.53,2.53-13.83,6.5-3.79-8.71-12.17-14.76-21.91-14.76-13.02,0-23.62,10.82-24.05,24.34-2.4-1.1-5.07-1.73-7.89-1.73-10.48,0-18.98,8.5-18.98,18.98s8.26,18.72,18.53,18.96c-.35,2.99.07,6.04,1.37,8.89,4.15,9.11,15.71,12.75,25.82,8.14,2.02-.92,3.82-2.1,5.39-3.48,3.8,2.06,8.25,3.25,13.01,3.25,3.71,0,7.23-.73,10.4-2.02,4.73,7.81,13.06,13.01,22.55,13.01s18.37-5.54,23.01-13.79c3.09,2.27,6.84,3.62,10.9,3.62,9.67,0,17.63-7.57,18.81-17.36.21,0,.42.03.63.03,10.48,0,18.98-8.5,18.98-18.98s-8.5-18.98-18.98-18.98Z"/>
          <path class="cls-35" d="m301.92,36.93c-2.15,0-4.2.37-6.13,1.03.07-.73.11-1.48.11-2.23,0-13.04-10.57-23.61-23.61-23.61-9.99,0-18.53,6.21-21.97,14.98-3.2-2.97-7.48-4.79-12.19-4.79-5.56,0-10.53,2.53-13.83,6.5-3.79-8.71-12.17-14.76-21.91-14.76-13.02,0-23.62,10.82-24.05,24.34-2.4-1.1-5.07-1.73-7.89-1.73-10.48,0-18.98,8.5-18.98,18.98s8.26,18.72,18.53,18.96c-.35,2.99.07,6.04,1.37,8.89,4.15,9.11,15.71,12.75,25.82,8.14,2.02-.92,3.82-2.1,5.39-3.48,3.8,2.06,8.25,3.25,13.01,3.25,3.71,0,7.23-.73,10.4-2.02,4.73,7.81,13.06,13.01,22.55,13.01s18.37-5.54,23.01-13.79c3.09,2.27,6.84,3.62,10.9,3.62,9.67,0,17.63-7.57,18.81-17.36.21,0,.42.03.63.03,10.48,0,18.98-8.5,18.98-18.98s-8.5-18.98-18.98-18.98Z"/>
          <path class="cls-43" d="m301.68,36.68c-2.15,0-4.2.37-6.13,1.03.07-.73.11-1.48.11-2.23,0-13.04-10.57-23.61-23.61-23.61-9.99,0-18.53,6.21-21.97,14.98-3.2-2.97-7.48-4.79-12.19-4.79-5.56,0-10.53,2.53-13.83,6.5-3.79-8.71-12.17-14.76-21.91-14.76-13.02,0-23.62,10.82-24.05,24.34-2.4-1.1-5.07-1.73-7.89-1.73-10.48,0-18.98,8.5-18.98,18.98s8.26,18.72,18.53,18.96c-.35,2.99.07,6.04,1.37,8.89,4.15,9.11,15.71,12.75,25.82,8.14,2.02-.92,3.82-2.1,5.39-3.48,3.8,2.06,8.25,3.25,13.01,3.25,3.71,0,7.23-.73,10.4-2.02,4.73,7.81,13.06,13.01,22.55,13.01s18.37-5.54,23.01-13.79c3.09,2.27,6.84,3.62,10.9,3.62,9.67,0,17.63-7.57,18.81-17.36.21,0,.42.03.63.03,10.48,0,18.98-8.5,18.98-18.98s-8.5-18.98-18.98-18.98Z"/>
          <path class="cls-7" d="m301.43,36.44c-2.15,0-4.2.37-6.13,1.03.07-.73.11-1.48.11-2.23,0-13.04-10.57-23.61-23.61-23.61-9.99,0-18.53,6.21-21.97,14.98-3.2-2.97-7.48-4.79-12.19-4.79-5.56,0-10.53,2.53-13.83,6.5-3.79-8.71-12.17-14.76-21.91-14.76-13.02,0-23.62,10.82-24.05,24.34-2.4-1.1-5.07-1.73-7.89-1.73-10.48,0-18.98,8.5-18.98,18.98s8.26,18.72,18.53,18.96c-.35,2.99.07,6.04,1.37,8.89,4.15,9.11,15.71,12.75,25.82,8.14,2.02-.92,3.82-2.1,5.39-3.48,3.8,2.06,8.25,3.25,13.01,3.25,3.71,0,7.23-.73,10.4-2.02,4.73,7.81,13.06,13.01,22.55,13.01s18.37-5.54,23.01-13.79c3.09,2.27,6.84,3.62,10.9,3.62,9.67,0,17.63-7.57,18.81-17.36.21,0,.42.03.63.03,10.48,0,18.98-8.5,18.98-18.98s-8.5-18.98-18.98-18.98Z"/>
          <path class="cls-18" d="m301.19,36.2c-2.15,0-4.2.37-6.13,1.03.07-.73.11-1.48.11-2.23,0-13.04-10.57-23.61-23.61-23.61-9.99,0-18.53,6.21-21.97,14.98-3.2-2.97-7.48-4.79-12.19-4.79-5.56,0-10.53,2.53-13.83,6.5-3.79-8.71-12.17-14.76-21.91-14.76-13.02,0-23.62,10.82-24.05,24.34-2.4-1.1-5.07-1.73-7.89-1.73-10.48,0-18.98,8.5-18.98,18.98s8.26,18.72,18.53,18.96c-.35,2.99.07,6.04,1.37,8.89,4.15,9.11,15.71,12.75,25.82,8.14,2.02-.92,3.82-2.1,5.39-3.48,3.8,2.06,8.25,3.25,13.01,3.25,3.71,0,7.23-.73,10.4-2.02,4.73,7.81,13.06,13.01,22.55,13.01s18.37-5.54,23.01-13.79c3.09,2.27,6.84,3.62,10.9,3.62,9.67,0,17.63-7.57,18.81-17.36.21,0,.42.03.63.03,10.48,0,18.98-8.5,18.98-18.98s-8.5-18.98-18.98-18.98Z"/>
          <path class="cls-40" d="m300.95,35.95c-2.15,0-4.2.37-6.13,1.03.07-.73.11-1.48.11-2.23,0-13.04-10.57-23.61-23.61-23.61-9.99,0-18.53,6.21-21.97,14.98-3.2-2.97-7.48-4.79-12.19-4.79-5.56,0-10.53,2.53-13.83,6.5-3.79-8.71-12.17-14.76-21.91-14.76-13.02,0-23.62,10.82-24.05,24.34-2.4-1.1-5.07-1.73-7.89-1.73-10.48,0-18.98,8.5-18.98,18.98s8.26,18.72,18.53,18.96c-.35,2.99.07,6.04,1.37,8.89,4.15,9.11,15.71,12.75,25.82,8.14,2.02-.92,3.82-2.1,5.39-3.48,3.8,2.06,8.25,3.25,13.01,3.25,3.71,0,7.23-.73,10.4-2.02,4.73,7.81,13.06,13.01,22.55,13.01s18.37-5.54,23.01-13.79c3.09,2.27,6.84,3.62,10.9,3.62,9.67,0,17.63-7.57,18.81-17.36.21,0,.42.03.63.03,10.48,0,18.98-8.5,18.98-18.98s-8.5-18.98-18.98-18.98Z"/>
          <path class="cls-37" d="m300.7,35.71c-2.15,0-4.2.37-6.13,1.03.07-.73.11-1.48.11-2.23,0-13.04-10.57-23.61-23.61-23.61-9.99,0-18.53,6.21-21.97,14.98-3.2-2.97-7.48-4.79-12.19-4.79-5.56,0-10.53,2.53-13.83,6.5-3.79-8.71-12.17-14.76-21.91-14.76-13.02,0-23.62,10.82-24.05,24.34-2.4-1.1-5.07-1.73-7.89-1.73-10.48,0-18.98,8.5-18.98,18.98s8.26,18.72,18.53,18.96c-.35,2.99.07,6.04,1.37,8.89,4.15,9.11,15.71,12.75,25.82,8.14,2.02-.92,3.82-2.1,5.39-3.48,3.8,2.06,8.25,3.25,13.01,3.25,3.71,0,7.23-.73,10.4-2.02,4.73,7.81,13.06,13.01,22.55,13.01s18.37-5.54,23.01-13.79c3.09,2.27,6.84,3.62,10.9,3.62,9.67,0,17.63-7.57,18.81-17.36.21,0,.42.03.63.03,10.48,0,18.98-8.5,18.98-18.98s-8.5-18.98-18.98-18.98Z"/>
          <path class="cls-29" d="m300.46,35.46c-2.15,0-4.2.37-6.13,1.03.07-.73.11-1.48.11-2.23,0-13.04-10.57-23.61-23.61-23.61-9.99,0-18.53,6.21-21.97,14.98-3.2-2.97-7.48-4.79-12.19-4.79-5.56,0-10.53,2.53-13.83,6.5-3.79-8.71-12.17-14.76-21.91-14.76-13.02,0-23.62,10.82-24.05,24.34-2.4-1.1-5.07-1.73-7.89-1.73-10.48,0-18.98,8.5-18.98,18.98s8.26,18.72,18.53,18.96c-.35,2.99.07,6.04,1.37,8.89,4.15,9.11,15.71,12.75,25.82,8.14,2.02-.92,3.82-2.1,5.39-3.48,3.8,2.06,8.25,3.25,13.01,3.25,3.71,0,7.23-.73,10.4-2.02,4.73,7.81,13.06,13.01,22.55,13.01s18.37-5.54,23.01-13.79c3.09,2.27,6.84,3.62,10.9,3.62,9.67,0,17.63-7.57,18.81-17.36.21,0,.42.03.63.03,10.48,0,18.98-8.5,18.98-18.98s-8.5-18.98-18.98-18.98Z"/>
          <path class="cls-44" d="m300.21,35.22c-2.15,0-4.2.37-6.13,1.03.07-.73.11-1.48.11-2.23,0-13.04-10.57-23.61-23.61-23.61-9.99,0-18.53,6.21-21.97,14.98-3.2-2.97-7.48-4.79-12.19-4.79-5.56,0-10.53,2.53-13.83,6.5-3.79-8.71-12.17-14.76-21.91-14.76-13.02,0-23.62,10.82-24.05,24.34-2.4-1.1-5.07-1.73-7.89-1.73-10.48,0-18.98,8.5-18.98,18.98s8.26,18.72,18.53,18.96c-.35,2.99.07,6.04,1.37,8.89,4.15,9.11,15.71,12.75,25.82,8.14,2.02-.92,3.82-2.1,5.39-3.48,3.8,2.06,8.25,3.25,13.01,3.25,3.71,0,7.23-.73,10.4-2.02,4.73,7.81,13.06,13.01,22.55,13.01s18.37-5.54,23.01-13.79c3.09,2.27,6.84,3.62,10.9,3.62,9.67,0,17.63-7.57,18.81-17.36.21,0,.42.03.63.03,10.48,0,18.98-8.5,18.98-18.98s-8.5-18.98-18.98-18.98Z"/>
          <path class="cls-31" d="m299.97,34.98c-2.15,0-4.2.37-6.13,1.03.07-.73.11-1.48.11-2.23,0-13.04-10.57-23.61-23.61-23.61-9.99,0-18.53,6.21-21.97,14.98-3.2-2.97-7.48-4.79-12.19-4.79-5.56,0-10.53,2.53-13.83,6.5-3.79-8.71-12.17-14.76-21.91-14.76-13.02,0-23.62,10.82-24.05,24.34-2.4-1.1-5.07-1.73-7.89-1.73-10.48,0-18.98,8.5-18.98,18.98s8.26,18.72,18.53,18.96c-.35,2.99.07,6.04,1.37,8.89,4.15,9.11,15.71,12.75,25.82,8.14,2.02-.92,3.82-2.1,5.39-3.48,3.8,2.06,8.25,3.25,13.01,3.25,3.71,0,7.23-.73,10.4-2.02,4.73,7.81,13.06,13.01,22.55,13.01s18.37-5.54,23.01-13.79c3.09,2.27,6.84,3.62,10.9,3.62,9.67,0,17.63-7.57,18.81-17.36.21,0,.42.03.63.03,10.48,0,18.98-8.5,18.98-18.98s-8.5-18.98-18.98-18.98Z"/>
          <path class="cls-45" d="m299.73,34.73c-2.15,0-4.2.37-6.13,1.03.07-.73.11-1.48.11-2.23,0-13.04-10.57-23.61-23.61-23.61-9.99,0-18.53,6.21-21.97,14.98-3.2-2.97-7.48-4.79-12.19-4.79-5.56,0-10.53,2.53-13.83,6.5-3.79-8.71-12.17-14.76-21.91-14.76-13.02,0-23.62,10.82-24.05,24.34-2.4-1.1-5.07-1.73-7.89-1.73-10.48,0-18.98,8.5-18.98,18.98s8.26,18.72,18.53,18.96c-.35,2.99.07,6.04,1.37,8.89,4.15,9.11,15.71,12.75,25.82,8.14,2.02-.92,3.82-2.1,5.39-3.48,3.8,2.06,8.25,3.25,13.01,3.25,3.71,0,7.23-.73,10.4-2.02,4.73,7.81,13.06,13.01,22.55,13.01s18.37-5.54,23.01-13.79c3.09,2.27,6.84,3.62,10.9,3.62,9.67,0,17.63-7.57,18.81-17.36.21,0,.42.03.63.03,10.48,0,18.98-8.5,18.98-18.98s-8.5-18.98-18.98-18.98Z"/>
          <path class="cls-6" d="m299.48,34.49c-2.15,0-4.2.37-6.13,1.03.07-.73.11-1.48.11-2.23,0-13.04-10.57-23.61-23.61-23.61-9.99,0-18.53,6.21-21.97,14.98-3.2-2.97-7.48-4.79-12.19-4.79-5.56,0-10.53,2.53-13.83,6.5-3.79-8.71-12.17-14.76-21.91-14.76-13.02,0-23.62,10.82-24.05,24.34-2.4-1.1-5.07-1.73-7.89-1.73-10.48,0-18.98,8.5-18.98,18.98s8.26,18.72,18.53,18.96c-.35,2.99.07,6.04,1.37,8.89,4.15,9.11,15.71,12.75,25.82,8.14,2.02-.92,3.82-2.1,5.39-3.48,3.8,2.06,8.25,3.25,13.01,3.25,3.71,0,7.23-.73,10.4-2.02,4.73,7.81,13.06,13.01,22.55,13.01s18.37-5.54,23.01-13.79c3.09,2.27,6.84,3.62,10.9,3.62,9.67,0,17.63-7.57,18.81-17.36.21,0,.42.03.63.03,10.48,0,18.98-8.5,18.98-18.98s-8.5-18.98-18.98-18.98Z"/>
          <path class="cls-22" d="m299.24,34.25c-2.15,0-4.2.37-6.13,1.03.07-.73.11-1.48.11-2.23,0-13.04-10.57-23.61-23.61-23.61-9.99,0-18.53,6.21-21.97,14.98-3.2-2.97-7.48-4.79-12.19-4.79-5.56,0-10.53,2.53-13.83,6.5-3.79-8.71-12.17-14.76-21.91-14.76-13.02,0-23.62,10.82-24.05,24.34-2.4-1.1-5.07-1.73-7.89-1.73-10.48,0-18.98,8.5-18.98,18.98s8.26,18.72,18.53,18.96c-.35,2.99.07,6.04,1.37,8.89,4.15,9.11,15.71,12.75,25.82,8.14,2.02-.92,3.82-2.1,5.39-3.48,3.8,2.06,8.25,3.25,13.01,3.25,3.71,0,7.23-.73,10.4-2.02,4.73,7.81,13.06,13.01,22.55,13.01s18.37-5.54,23.01-13.79c3.09,2.27,6.84,3.62,10.9,3.62,9.67,0,17.63-7.57,18.81-17.36.21,0,.42.03.63.03,10.48,0,18.98-8.5,18.98-18.98s-8.5-18.98-18.98-18.98Z"/>
          <path class="cls-41" d="m299,34c-2.15,0-4.2.37-6.13,1.03.07-.73.11-1.48.11-2.23,0-13.04-10.57-23.61-23.61-23.61-9.99,0-18.53,6.21-21.97,14.98-3.2-2.97-7.48-4.79-12.19-4.79-5.56,0-10.53,2.53-13.83,6.5-3.79-8.71-12.17-14.76-21.91-14.76-13.02,0-23.62,10.82-24.05,24.34-2.4-1.1-5.07-1.73-7.89-1.73-10.48,0-18.98,8.5-18.98,18.98s8.26,18.72,18.53,18.96c-.35,2.99.07,6.04,1.37,8.89,4.15,9.11,15.71,12.75,25.82,8.14,2.02-.92,3.82-2.1,5.39-3.48,3.8,2.06,8.25,3.25,13.01,3.25,3.71,0,7.23-.73,10.4-2.02,4.73,7.81,13.06,13.01,22.55,13.01s18.37-5.54,23.01-13.79c3.09,2.27,6.84,3.62,10.9,3.62,9.67,0,17.63-7.57,18.81-17.36.21,0,.42.03.63.03,10.48,0,18.98-8.5,18.98-18.98s-8.5-18.98-18.98-18.98Z"/>
          <path class="cls-4" d="m298.75,33.76c-2.15,0-4.2.37-6.13,1.03.07-.73.11-1.48.11-2.23,0-13.04-10.57-23.61-23.61-23.61-9.99,0-18.53,6.21-21.97,14.98-3.2-2.97-7.48-4.79-12.19-4.79-5.56,0-10.53,2.53-13.83,6.5-3.79-8.71-12.17-14.76-21.91-14.76-13.02,0-23.62,10.82-24.05,24.34-2.41-1.1-5.07-1.73-7.89-1.73-10.48,0-18.98,8.5-18.98,18.98s8.26,18.72,18.53,18.96c-.35,2.99.07,6.04,1.37,8.89,4.15,9.11,15.71,12.75,25.82,8.14,2.02-.92,3.82-2.1,5.39-3.48,3.8,2.06,8.25,3.25,13.01,3.25,3.71,0,7.23-.73,10.4-2.02,4.73,7.81,13.06,13.01,22.55,13.01s18.37-5.54,23.01-13.79c3.09,2.27,6.84,3.62,10.9,3.62,9.67,0,17.63-7.57,18.81-17.36.21,0,.42.03.63.03,10.48,0,18.98-8.5,18.98-18.98s-8.5-18.98-18.98-18.98Z"/>
          <path class="cls-46" d="m298.51,33.51c-2.15,0-4.2.37-6.13,1.03.07-.73.11-1.48.11-2.23,0-13.04-10.57-23.61-23.61-23.61-9.99,0-18.53,6.21-21.97,14.98-3.2-2.97-7.48-4.79-12.19-4.79-5.56,0-10.53,2.53-13.83,6.5-3.79-8.71-12.17-14.76-21.91-14.76-13.02,0-23.62,10.82-24.05,24.34-2.4-1.1-5.07-1.73-7.89-1.73-10.48,0-18.98,8.5-18.98,18.98s8.26,18.72,18.53,18.96c-.35,2.99.07,6.04,1.37,8.89,4.15,9.11,15.71,12.75,25.82,8.14,2.02-.92,3.82-2.1,5.39-3.48,3.8,2.06,8.25,3.25,13.01,3.25,3.71,0,7.23-.73,10.4-2.02,4.73,7.81,13.06,13.01,22.55,13.01s18.37-5.54,23.01-13.79c3.09,2.27,6.84,3.62,10.9,3.62,9.67,0,17.63-7.57,18.81-17.36.21,0,.42.03.63.03,10.48,0,18.98-8.5,18.98-18.98s-8.5-18.98-18.98-18.98Z"/>
          <path class="cls-36" d="m298.26,33.27c-2.15,0-4.2.37-6.13,1.03.07-.73.11-1.48.11-2.23,0-13.04-10.57-23.61-23.61-23.61-9.99,0-18.53,6.21-21.97,14.98-3.2-2.97-7.48-4.79-12.19-4.79-5.56,0-10.53,2.53-13.83,6.5-3.79-8.71-12.17-14.76-21.91-14.76-13.02,0-23.62,10.82-24.05,24.34-2.4-1.1-5.07-1.73-7.89-1.73-10.48,0-18.98,8.5-18.98,18.98s8.26,18.72,18.53,18.96c-.35,2.99.07,6.04,1.37,8.89,4.15,9.11,15.71,12.75,25.82,8.14,2.02-.92,3.82-2.1,5.39-3.48,3.8,2.06,8.25,3.25,13.01,3.25,3.71,0,7.23-.73,10.4-2.02,4.73,7.81,13.06,13.01,22.55,13.01s18.37-5.54,23.01-13.79c3.09,2.27,6.84,3.62,10.9,3.62,9.67,0,17.63-7.57,18.81-17.36.21,0,.42.03.63.03,10.48,0,18.98-8.5,18.98-18.98s-8.5-18.98-18.98-18.98Z"/>
          <path class="cls-26" d="m298.02,33.03c-2.15,0-4.2.37-6.13,1.03.07-.73.11-1.48.11-2.23,0-13.04-10.57-23.61-23.61-23.61-9.99,0-18.53,6.21-21.97,14.98-3.2-2.97-7.48-4.79-12.19-4.79-5.56,0-10.53,2.53-13.83,6.5-3.79-8.71-12.17-14.76-21.91-14.76-13.02,0-23.62,10.82-24.05,24.34-2.4-1.1-5.07-1.73-7.89-1.73-10.48,0-18.98,8.5-18.98,18.98s8.26,18.72,18.53,18.96c-.35,2.99.07,6.04,1.37,8.89,4.15,9.11,15.71,12.75,25.82,8.14,2.02-.92,3.82-2.1,5.39-3.48,3.8,2.06,8.25,3.25,13.01,3.25,3.71,0,7.23-.73,10.4-2.02,4.73,7.81,13.06,13.01,22.55,13.01s18.37-5.54,23.01-13.79c3.09,2.27,6.84,3.62,10.9,3.62,9.67,0,17.63-7.57,18.81-17.36.21,0,.42.03.63.03,10.48,0,18.98-8.5,18.98-18.98s-8.5-18.98-18.98-18.98Z"/>
          <path class="cls-28" d="m297.78,32.78c-2.15,0-4.2.37-6.13,1.03.07-.73.11-1.48.11-2.23,0-13.04-10.57-23.61-23.61-23.61-9.99,0-18.53,6.21-21.97,14.98-3.2-2.97-7.48-4.79-12.19-4.79-5.56,0-10.53,2.53-13.83,6.5-3.79-8.71-12.17-14.76-21.91-14.76-13.02,0-23.62,10.82-24.05,24.34-2.4-1.1-5.07-1.73-7.89-1.73-10.48,0-18.98,8.5-18.98,18.98s8.26,18.72,18.53,18.96c-.35,2.99.07,6.04,1.37,8.89,4.15,9.11,15.71,12.75,25.82,8.14,2.02-.92,3.82-2.1,5.39-3.48,3.8,2.06,8.25,3.25,13.01,3.25,3.71,0,7.23-.73,10.4-2.02,4.73,7.81,13.06,13.01,22.55,13.01s18.37-5.54,23.01-13.79c3.09,2.27,6.84,3.62,10.9,3.62,9.67,0,17.63-7.57,18.81-17.36.21,0,.42.03.63.03,10.48,0,18.98-8.5,18.98-18.98s-8.5-18.98-18.98-18.98Z"/>
          <path class="cls-23" d="m297.53,32.54c-2.15,0-4.2.37-6.13,1.03.07-.73.11-1.48.11-2.23,0-13.04-10.57-23.61-23.61-23.61-9.99,0-18.53,6.21-21.97,14.98-3.2-2.97-7.48-4.79-12.19-4.79-5.56,0-10.53,2.53-13.83,6.5-3.79-8.71-12.17-14.76-21.91-14.76-13.02,0-23.62,10.82-24.05,24.34-2.4-1.1-5.07-1.73-7.89-1.73-10.48,0-18.98,8.5-18.98,18.98s8.26,18.72,18.53,18.96c-.35,2.99.07,6.04,1.37,8.89,4.15,9.11,15.71,12.75,25.82,8.14,2.02-.92,3.82-2.1,5.39-3.48,3.8,2.06,8.25,3.25,13.01,3.25,3.71,0,7.23-.73,10.4-2.02,4.73,7.81,13.06,13.01,22.55,13.01s18.37-5.54,23.01-13.79c3.09,2.27,6.84,3.62,10.9,3.62,9.67,0,17.63-7.57,18.81-17.36.21,0,.42.03.63.03,10.48,0,18.98-8.5,18.98-18.98s-8.5-18.98-18.98-18.98Z"/>
          <path class="cls-2" d="m297.29,32.29c-2.15,0-4.2.37-6.13,1.03.07-.73.11-1.48.11-2.23,0-13.04-10.57-23.61-23.61-23.61-9.99,0-18.53,6.21-21.97,14.98-3.2-2.97-7.48-4.79-12.19-4.79-5.56,0-10.53,2.53-13.83,6.5-3.79-8.71-12.17-14.76-21.91-14.76-13.02,0-23.62,10.82-24.05,24.34-2.4-1.1-5.07-1.73-7.89-1.73-10.48,0-18.98,8.5-18.98,18.98s8.26,18.72,18.53,18.96c-.35,2.99.07,6.04,1.37,8.89,4.15,9.11,15.71,12.75,25.82,8.14,2.02-.92,3.82-2.1,5.39-3.48,3.8,2.06,8.25,3.25,13.01,3.25,3.71,0,7.23-.73,10.4-2.02,4.73,7.81,13.06,13.01,22.55,13.01s18.37-5.54,23.01-13.79c3.09,2.27,6.84,3.62,10.9,3.62,9.67,0,17.63-7.57,18.81-17.36.21,0,.42.03.63.03,10.48,0,18.98-8.5,18.98-18.98s-8.5-18.98-18.98-18.98Z"/>
        </g>
        <path class="cls-21" d="m297.29,32.29c-2.15,0-4.2.37-6.13,1.03.07-.73.11-1.48.11-2.23,0-13.04-10.57-23.61-23.61-23.61-9.99,0-18.53,6.21-21.97,14.98-3.2-2.97-7.48-4.79-12.19-4.79-5.56,0-10.53,2.53-13.83,6.5-3.79-8.71-12.17-14.76-21.91-14.76-13.02,0-23.62,10.82-24.05,24.34-2.4-1.1-5.07-1.73-7.89-1.73-10.48,0-18.98,8.5-18.98,18.98s8.26,18.72,18.53,18.96c-.35,2.99.07,6.04,1.37,8.89,4.15,9.11,15.71,12.75,25.82,8.14,2.02-.92,3.82-2.1,5.39-3.48,3.8,2.06,8.25,3.25,13.01,3.25,3.71,0,7.23-.73,10.4-2.02,4.73,7.81,13.06,13.01,22.55,13.01s18.37-5.54,23.01-13.79c3.09,2.27,6.84,3.62,10.9,3.62,9.67,0,17.63-7.57,18.81-17.36.21,0,.42.03.63.03,10.48,0,18.98-8.5,18.98-18.98s-8.5-18.98-18.98-18.98Z"/>
      </g>
      <g>
        <g class="cls-5">
          <path class="cls-11" d="m159.97,45.68c-1.29,0-2.53.18-3.71.49-2.02-12.36-12.81-21.79-25.82-21.79-7.45,0-14.17,3.1-18.93,8.06-3.35-3.67-8.15-5.99-13.51-5.99-3.46,0-6.69.98-9.44,2.65-5.3-7.96-14.1-13.18-24.07-13.18-13.95,0-25.62,10.2-28.58,23.87-1.44-.31-2.93-.48-4.46-.48-11.56,0-20.93,9.37-20.93,20.93s9.37,20.93,20.93,20.93c2.6,0,5.09-.48,7.38-1.34.03,10.77,9.73,19.49,21.69,19.49,7.96,0,14.92-3.87,18.69-9.63,4.57,4.42,10.67,7.12,17.38,7.12,8.52,0,16.06-4.36,20.72-11.06,3.62,4.2,8.86,6.85,14.69,6.85,10.7,0,19.41-8.9,19.75-20.02,2.35,1.59,5.19,2.52,8.24,2.52,8.12,0,14.71-6.59,14.71-14.71s-6.59-14.71-14.71-14.71Z"/>
          <path class="cls-10" d="m159.73,45.43c-1.29,0-2.53.18-3.71.49-2.02-12.36-12.81-21.79-25.82-21.79-7.45,0-14.17,3.1-18.93,8.06-3.35-3.67-8.15-5.99-13.51-5.99-3.46,0-6.69.98-9.44,2.65-5.3-7.96-14.1-13.18-24.07-13.18-13.95,0-25.62,10.2-28.58,23.87-1.44-.31-2.93-.48-4.46-.48-11.56,0-20.93,9.37-20.93,20.93s9.37,20.93,20.93,20.93c2.6,0,5.09-.48,7.38-1.34.03,10.77,9.73,19.49,21.69,19.49,7.96,0,14.92-3.87,18.69-9.63,4.57,4.42,10.67,7.12,17.38,7.12,8.52,0,16.06-4.36,20.72-11.06,3.62,4.2,8.86,6.85,14.69,6.85,10.7,0,19.41-8.9,19.75-20.02,2.35,1.59,5.19,2.52,8.24,2.52,8.12,0,14.71-6.59,14.71-14.71s-6.59-14.71-14.71-14.71Z"/>
          <path class="cls-3" d="m159.48,45.19c-1.29,0-2.53.18-3.71.49-2.02-12.36-12.81-21.79-25.82-21.79-7.45,0-14.17,3.1-18.93,8.06-3.35-3.67-8.15-5.99-13.51-5.99-3.46,0-6.69.98-9.44,2.65-5.3-7.96-14.1-13.18-24.07-13.18-13.95,0-25.62,10.2-28.58,23.87-1.44-.31-2.93-.48-4.46-.48-11.56,0-20.93,9.37-20.93,20.93s9.37,20.93,20.93,20.93c2.6,0,5.09-.48,7.38-1.34.03,10.77,9.73,19.49,21.69,19.49,7.96,0,14.92-3.87,18.69-9.63,4.57,4.42,10.67,7.12,17.38,7.12,8.52,0,16.06-4.36,20.72-11.06,3.62,4.2,8.86,6.85,14.69,6.85,10.7,0,19.41-8.9,19.75-20.02,2.35,1.59,5.19,2.52,8.24,2.52,8.12,0,14.71-6.59,14.71-14.71s-6.59-14.71-14.71-14.71Z"/>
          <path class="cls-38" d="m159.24,44.94c-1.29,0-2.53.18-3.71.49-2.02-12.36-12.81-21.79-25.82-21.79-7.45,0-14.17,3.1-18.93,8.06-3.35-3.67-8.15-5.99-13.51-5.99-3.46,0-6.69.98-9.44,2.65-5.3-7.96-14.1-13.18-24.07-13.18-13.95,0-25.62,10.2-28.58,23.87-1.44-.31-2.93-.48-4.46-.48-11.56,0-20.93,9.37-20.93,20.93s9.37,20.93,20.93,20.93c2.6,0,5.09-.48,7.38-1.34.03,10.77,9.73,19.49,21.69,19.49,7.96,0,14.92-3.87,18.69-9.63,4.57,4.42,10.67,7.12,17.38,7.12,8.52,0,16.06-4.36,20.72-11.06,3.62,4.2,8.86,6.85,14.69,6.85,10.7,0,19.41-8.9,19.75-20.02,2.35,1.59,5.19,2.52,8.24,2.52,8.12,0,14.71-6.59,14.71-14.71s-6.59-14.71-14.71-14.71Z"/>
          <path class="cls-39" d="m159,44.7c-1.29,0-2.53.18-3.71.49-2.02-12.36-12.81-21.79-25.82-21.79-7.45,0-14.17,3.1-18.93,8.06-3.35-3.67-8.15-5.99-13.51-5.99-3.46,0-6.69.98-9.44,2.65-5.3-7.96-14.1-13.18-24.07-13.18-13.95,0-25.62,10.2-28.58,23.87-1.44-.31-2.93-.48-4.46-.48-11.56,0-20.93,9.37-20.93,20.93s9.37,20.93,20.93,20.93c2.6,0,5.09-.48,7.38-1.34.03,10.77,9.73,19.49,21.69,19.49,7.96,0,14.92-3.87,18.69-9.63,4.57,4.42,10.67,7.12,17.38,7.12,8.52,0,16.06-4.36,20.72-11.06,3.62,4.2,8.86,6.85,14.69,6.85,10.7,0,19.41-8.9,19.75-20.02,2.35,1.59,5.19,2.52,8.24,2.52,8.12,0,14.71-6.59,14.71-14.71s-6.59-14.71-14.71-14.71Z"/>
          <path class="cls-47" d="m158.75,44.46c-1.29,0-2.53.18-3.71.49-2.02-12.36-12.81-21.79-25.82-21.79-7.45,0-14.17,3.1-18.93,8.06-3.35-3.67-8.15-5.99-13.51-5.99-3.46,0-6.69.98-9.44,2.65-5.3-7.96-14.1-13.18-24.07-13.18-13.95,0-25.62,10.2-28.58,23.87-1.44-.31-2.93-.48-4.46-.48-11.56,0-20.93,9.37-20.93,20.93s9.37,20.93,20.93,20.93c2.6,0,5.09-.48,7.38-1.34.03,10.77,9.73,19.49,21.69,19.49,7.96,0,14.92-3.87,18.69-9.63,4.57,4.42,10.67,7.12,17.38,7.12,8.52,0,16.06-4.36,20.72-11.06,3.62,4.2,8.86,6.85,14.69,6.85,10.7,0,19.41-8.9,19.75-20.02,2.35,1.59,5.19,2.52,8.24,2.52,8.12,0,14.71-6.59,14.71-14.71s-6.59-14.71-14.71-14.71Z"/>
          <path class="cls-30" d="m158.51,44.21c-1.29,0-2.53.18-3.71.49-2.02-12.36-12.81-21.79-25.82-21.79-7.45,0-14.17,3.1-18.93,8.06-3.35-3.67-8.15-5.99-13.51-5.99-3.46,0-6.69.98-9.44,2.65-5.3-7.96-14.1-13.18-24.07-13.18-13.95,0-25.62,10.2-28.58,23.87-1.44-.31-2.93-.48-4.46-.48-11.56,0-20.93,9.37-20.93,20.93s9.37,20.93,20.93,20.93c2.6,0,5.09-.48,7.38-1.34.03,10.77,9.73,19.49,21.69,19.49,7.96,0,14.92-3.87,18.69-9.63,4.57,4.42,10.67,7.12,17.38,7.12,8.52,0,16.06-4.36,20.72-11.06,3.62,4.2,8.86,6.85,14.69,6.85,10.7,0,19.41-8.9,19.75-20.02,2.35,1.59,5.19,2.52,8.24,2.52,8.12,0,14.71-6.59,14.71-14.71s-6.59-14.71-14.71-14.71Z"/>
          <path class="cls-9" d="m158.26,43.97c-1.29,0-2.53.18-3.71.49-2.02-12.36-12.81-21.79-25.82-21.79-7.45,0-14.17,3.1-18.93,8.06-3.35-3.67-8.15-5.99-13.51-5.99-3.46,0-6.69.98-9.44,2.65-5.3-7.96-14.1-13.18-24.07-13.18-13.95,0-25.62,10.2-28.58,23.87-1.44-.31-2.93-.48-4.46-.48-11.56,0-20.93,9.37-20.93,20.93s9.37,20.93,20.93,20.93c2.6,0,5.09-.48,7.38-1.34.03,10.77,9.73,19.49,21.69,19.49,7.96,0,14.92-3.87,18.69-9.63,4.57,4.42,10.67,7.12,17.38,7.12,8.52,0,16.06-4.36,20.72-11.06,3.62,4.2,8.86,6.85,14.69,6.85,10.7,0,19.41-8.9,19.75-20.02,2.35,1.59,5.19,2.52,8.24,2.52,8.12,0,14.71-6.59,14.71-14.71s-6.59-14.71-14.71-14.71Z"/>
          <path class="cls-33" d="m158.02,43.73c-1.29,0-2.53.18-3.71.49-2.02-12.36-12.81-21.79-25.82-21.79-7.45,0-14.17,3.1-18.93,8.06-3.35-3.67-8.15-5.99-13.51-5.99-3.46,0-6.69.98-9.44,2.65-5.3-7.96-14.1-13.18-24.07-13.18-13.95,0-25.62,10.2-28.58,23.87-1.44-.31-2.93-.48-4.46-.48-11.56,0-20.93,9.37-20.93,20.93s9.37,20.93,20.93,20.93c2.6,0,5.09-.48,7.38-1.34.03,10.77,9.73,19.49,21.69,19.49,7.96,0,14.92-3.87,18.69-9.63,4.57,4.42,10.67,7.12,17.38,7.12,8.52,0,16.06-4.36,20.72-11.06,3.62,4.2,8.86,6.85,14.69,6.85,10.7,0,19.41-8.9,19.75-20.02,2.35,1.59,5.19,2.52,8.24,2.52,8.12,0,14.71-6.59,14.71-14.71s-6.59-14.71-14.71-14.71Z"/>
          <path class="cls-25" d="m157.78,43.48c-1.29,0-2.53.18-3.71.49-2.02-12.36-12.81-21.79-25.82-21.79-7.45,0-14.17,3.1-18.93,8.06-3.35-3.67-8.15-5.99-13.51-5.99-3.46,0-6.69.98-9.44,2.65-5.3-7.96-14.1-13.18-24.07-13.18-13.95,0-25.62,10.2-28.58,23.87-1.44-.31-2.93-.48-4.46-.48-11.56,0-20.93,9.37-20.93,20.93s9.37,20.93,20.93,20.93c2.6,0,5.09-.48,7.38-1.34.03,10.77,9.73,19.49,21.69,19.49,7.96,0,14.92-3.87,18.69-9.63,4.57,4.42,10.67,7.12,17.38,7.12,8.52,0,16.06-4.36,20.72-11.06,3.62,4.2,8.86,6.85,14.69,6.85,10.7,0,19.41-8.9,19.75-20.02,2.35,1.59,5.19,2.52,8.24,2.52,8.12,0,14.71-6.59,14.71-14.71s-6.59-14.71-14.71-14.71Z"/>
          <path class="cls-42" d="m157.53,43.24c-1.29,0-2.53.18-3.71.49-2.02-12.36-12.81-21.79-25.82-21.79-7.45,0-14.17,3.1-18.93,8.06-3.35-3.67-8.15-5.99-13.51-5.99-3.46,0-6.69.98-9.44,2.65-5.3-7.96-14.1-13.18-24.07-13.18-13.95,0-25.62,10.2-28.58,23.87-1.44-.31-2.93-.48-4.46-.48-11.56,0-20.93,9.37-20.93,20.93s9.37,20.93,20.93,20.93c2.6,0,5.09-.48,7.38-1.34.03,10.77,9.73,19.49,21.69,19.49,7.96,0,14.92-3.87,18.69-9.63,4.57,4.42,10.67,7.12,17.38,7.12,8.52,0,16.06-4.36,20.72-11.06,3.62,4.2,8.86,6.85,14.69,6.85,10.7,0,19.41-8.9,19.75-20.02,2.35,1.59,5.19,2.52,8.24,2.52,8.12,0,14.71-6.59,14.71-14.71s-6.59-14.71-14.71-14.71Z"/>
          <path class="cls-32" d="m157.29,42.99c-1.29,0-2.53.18-3.71.49-2.02-12.36-12.81-21.79-25.82-21.79-7.45,0-14.17,3.1-18.93,8.06-3.35-3.67-8.15-5.99-13.51-5.99-3.46,0-6.69.98-9.44,2.65-5.3-7.96-14.1-13.18-24.07-13.18-13.95,0-25.62,10.2-28.58,23.87-1.44-.31-2.93-.48-4.46-.48-11.56,0-20.93,9.37-20.93,20.93s9.37,20.93,20.93,20.93c2.6,0,5.09-.48,7.38-1.34.03,10.77,9.73,19.49,21.69,19.49,7.96,0,14.92-3.87,18.69-9.63,4.57,4.42,10.67,7.12,17.38,7.12,8.52,0,16.06-4.36,20.72-11.06,3.62,4.2,8.86,6.85,14.69,6.85,10.7,0,19.41-8.9,19.75-20.02,2.35,1.59,5.19,2.52,8.24,2.52,8.12,0,14.71-6.59,14.71-14.71s-6.59-14.71-14.71-14.71Z"/>
          <path class="cls-12" d="m157.04,42.75c-1.29,0-2.53.18-3.71.49-2.02-12.36-12.81-21.79-25.82-21.79-7.45,0-14.17,3.1-18.93,8.06-3.35-3.67-8.15-5.99-13.51-5.99-3.46,0-6.69.98-9.44,2.65-5.3-7.96-14.1-13.18-24.07-13.18-13.95,0-25.62,10.2-28.58,23.87-1.44-.31-2.93-.48-4.46-.48-11.56,0-20.93,9.37-20.93,20.93s9.37,20.93,20.93,20.93c2.6,0,5.09-.48,7.38-1.34.03,10.77,9.73,19.49,21.69,19.49,7.96,0,14.92-3.87,18.69-9.63,4.57,4.42,10.67,7.12,17.38,7.12,8.52,0,16.06-4.36,20.72-11.06,3.62,4.2,8.86,6.85,14.69,6.85,10.7,0,19.41-8.9,19.75-20.02,2.35,1.59,5.19,2.52,8.24,2.52,8.12,0,14.71-6.59,14.71-14.71s-6.59-14.71-14.71-14.71Z"/>
          <path class="cls-13" d="m156.8,42.51c-1.29,0-2.53.18-3.71.49-2.02-12.36-12.81-21.79-25.82-21.79-7.45,0-14.17,3.1-18.93,8.06-3.35-3.67-8.15-5.99-13.51-5.99-3.46,0-6.69.98-9.44,2.65-5.3-7.96-14.1-13.18-24.07-13.18-13.95,0-25.62,10.2-28.58,23.87-1.44-.31-2.93-.48-4.46-.48-11.56,0-20.93,9.37-20.93,20.93s9.37,20.93,20.93,20.93c2.6,0,5.09-.48,7.38-1.34.03,10.77,9.73,19.49,21.69,19.49,7.96,0,14.92-3.87,18.69-9.63,4.57,4.42,10.67,7.12,17.38,7.12,8.52,0,16.06-4.36,20.72-11.06,3.62,4.2,8.86,6.85,14.69,6.85,10.7,0,19.41-8.9,19.75-20.02,2.35,1.59,5.19,2.52,8.24,2.52,8.12,0,14.71-6.59,14.71-14.71s-6.59-14.71-14.71-14.71Z"/>
          <path class="cls-17" d="m156.56,42.26c-1.29,0-2.53.18-3.71.49-2.02-12.36-12.81-21.79-25.82-21.79-7.45,0-14.17,3.1-18.93,8.06-3.35-3.67-8.15-5.99-13.51-5.99-3.46,0-6.69.98-9.44,2.65-5.3-7.96-14.1-13.18-24.07-13.18-13.95,0-25.62,10.2-28.58,23.87-1.44-.31-2.93-.48-4.46-.48-11.56,0-20.93,9.37-20.93,20.93s9.37,20.93,20.93,20.93c2.6,0,5.09-.48,7.38-1.34.03,10.77,9.73,19.49,21.69,19.49,7.96,0,14.92-3.87,18.69-9.63,4.57,4.42,10.67,7.12,17.38,7.12,8.52,0,16.06-4.36,20.72-11.06,3.62,4.2,8.86,6.85,14.69,6.85,10.7,0,19.41-8.9,19.75-20.02,2.35,1.59,5.19,2.52,8.24,2.52,8.12,0,14.71-6.59,14.71-14.71s-6.59-14.71-14.71-14.71Z"/>
          <path class="cls-27" d="m156.31,42.02c-1.29,0-2.53.18-3.71.49-2.02-12.36-12.81-21.79-25.82-21.79-7.45,0-14.17,3.1-18.93,8.06-3.35-3.67-8.15-5.99-13.51-5.99-3.46,0-6.69.98-9.44,2.65-5.3-7.96-14.1-13.18-24.07-13.18-13.95,0-25.62,10.2-28.58,23.87-1.44-.31-2.93-.48-4.46-.48-11.56,0-20.93,9.37-20.93,20.93s9.37,20.93,20.93,20.93c2.6,0,5.09-.48,7.38-1.34.03,10.77,9.73,19.49,21.69,19.49,7.96,0,14.92-3.87,18.69-9.63,4.57,4.42,10.67,7.12,17.38,7.12,8.52,0,16.06-4.36,20.72-11.06,3.62,4.2,8.86,6.85,14.69,6.85,10.7,0,19.41-8.9,19.75-20.02,2.35,1.59,5.19,2.52,8.24,2.52,8.12,0,14.71-6.59,14.71-14.71s-6.59-14.71-14.71-14.71Z"/>
          <path class="cls-34" d="m156.07,41.77c-1.29,0-2.53.18-3.71.49-2.02-12.36-12.81-21.79-25.82-21.79-7.45,0-14.17,3.1-18.93,8.06-3.35-3.67-8.15-5.99-13.51-5.99-3.46,0-6.69.98-9.44,2.65-5.3-7.96-14.1-13.18-24.07-13.18-13.95,0-25.62,10.2-28.58,23.87-1.44-.31-2.93-.48-4.46-.48-11.56,0-20.93,9.37-20.93,20.93s9.37,20.93,20.93,20.93c2.6,0,5.09-.48,7.38-1.34.03,10.77,9.73,19.49,21.69,19.49,7.96,0,14.92-3.87,18.69-9.63,4.57,4.42,10.67,7.12,17.38,7.12,8.52,0,16.06-4.36,20.72-11.06,3.62,4.2,8.86,6.85,14.69,6.85,10.7,0,19.41-8.9,19.75-20.02,2.35,1.59,5.19,2.52,8.24,2.52,8.12,0,14.71-6.59,14.71-14.71s-6.59-14.71-14.71-14.71Z"/>
          <path class="cls-14" d="m155.82,41.53c-1.29,0-2.53.18-3.71.49-2.02-12.36-12.81-21.79-25.82-21.79-7.45,0-14.17,3.1-18.93,8.06-3.35-3.67-8.15-5.99-13.51-5.99-3.46,0-6.69.98-9.44,2.65-5.3-7.96-14.1-13.18-24.07-13.18-13.95,0-25.62,10.2-28.58,23.87-1.44-.31-2.93-.48-4.46-.48-11.56,0-20.93,9.37-20.93,20.93s9.37,20.93,20.93,20.93c2.6,0,5.09-.48,7.38-1.34.03,10.77,9.73,19.49,21.69,19.49,7.96,0,14.92-3.87,18.69-9.63,4.57,4.42,10.67,7.12,17.38,7.12,8.52,0,16.06-4.36,20.72-11.06,3.62,4.2,8.86,6.85,14.69,6.85,10.7,0,19.41-8.9,19.75-20.02,2.35,1.59,5.19,2.52,8.24,2.52,8.12,0,14.71-6.59,14.71-14.71s-6.59-14.71-14.71-14.71Z"/>
          <path class="cls-15" d="m155.58,41.29c-1.29,0-2.53.18-3.71.49-2.02-12.36-12.81-21.79-25.82-21.79-7.45,0-14.17,3.1-18.93,8.06-3.35-3.67-8.15-5.99-13.51-5.99-3.46,0-6.69.98-9.44,2.65-5.3-7.96-14.1-13.18-24.07-13.18-13.95,0-25.62,10.2-28.58,23.87-1.44-.31-2.93-.48-4.46-.48-11.56,0-20.93,9.37-20.93,20.93s9.37,20.93,20.93,20.93c2.6,0,5.09-.48,7.38-1.34.03,10.77,9.73,19.49,21.69,19.49,7.96,0,14.92-3.87,18.69-9.63,4.57,4.42,10.67,7.12,17.38,7.12,8.52,0,16.06-4.36,20.72-11.06,3.62,4.2,8.86,6.85,14.69,6.85,10.7,0,19.41-8.9,19.75-20.02,2.35,1.59,5.19,2.52,8.24,2.52,8.12,0,14.71-6.59,14.71-14.71s-6.59-14.71-14.71-14.71Z"/>
          <path class="cls-24" d="m155.34,41.04c-1.29,0-2.53.18-3.71.49-2.02-12.36-12.81-21.79-25.82-21.79-7.45,0-14.17,3.1-18.93,8.06-3.35-3.67-8.15-5.99-13.51-5.99-3.46,0-6.69.98-9.44,2.65-5.3-7.96-14.1-13.18-24.07-13.18-13.95,0-25.62,10.2-28.58,23.87-1.44-.31-2.93-.48-4.46-.48-11.56,0-20.93,9.37-20.93,20.93s9.37,20.93,20.93,20.93c2.6,0,5.09-.48,7.38-1.34.03,10.77,9.73,19.49,21.69,19.49,7.96,0,14.92-3.87,18.69-9.63,4.57,4.42,10.67,7.12,17.38,7.12,8.52,0,16.06-4.36,20.72-11.06,3.62,4.2,8.86,6.85,14.69,6.85,10.7,0,19.41-8.9,19.75-20.02,2.35,1.59,5.19,2.52,8.24,2.52,8.12,0,14.71-6.59,14.71-14.71s-6.59-14.71-14.71-14.71Z"/>
          <path class="cls-8" d="m155.09,40.8c-1.29,0-2.53.18-3.71.49-2.02-12.36-12.81-21.79-25.82-21.79-7.45,0-14.17,3.1-18.93,8.06-3.35-3.67-8.15-5.99-13.51-5.99-3.46,0-6.69.98-9.44,2.65-5.3-7.96-14.1-13.18-24.07-13.18-13.95,0-25.62,10.2-28.58,23.87-1.44-.31-2.93-.48-4.46-.48-11.56,0-20.93,9.37-20.93,20.93s9.37,20.93,20.93,20.93c2.6,0,5.09-.48,7.38-1.34.03,10.77,9.73,19.49,21.69,19.49,7.96,0,14.92-3.87,18.69-9.63,4.57,4.42,10.67,7.12,17.38,7.12,8.52,0,16.06-4.36,20.72-11.06,3.62,4.2,8.86,6.85,14.69,6.85,10.7,0,19.41-8.9,19.75-20.02,2.35,1.59,5.19,2.52,8.24,2.52,8.12,0,14.71-6.59,14.71-14.71s-6.59-14.71-14.71-14.71Z"/>
          <path class="cls-1" d="m154.85,40.55c-1.29,0-2.53.18-3.71.49-2.02-12.36-12.81-21.79-25.82-21.79-7.45,0-14.17,3.1-18.93,8.06-3.35-3.67-8.15-5.99-13.51-5.99-3.46,0-6.69.98-9.44,2.65-5.3-7.96-14.1-13.18-24.07-13.18-13.95,0-25.62,10.2-28.58,23.87-1.44-.31-2.93-.48-4.46-.48-11.56,0-20.93,9.37-20.93,20.93s9.37,20.93,20.93,20.93c2.6,0,5.09-.48,7.38-1.34.03,10.77,9.73,19.49,21.69,19.49,7.96,0,14.92-3.87,18.69-9.63,4.57,4.42,10.67,7.12,17.38,7.12,8.52,0,16.06-4.36,20.72-11.06,3.62,4.2,8.86,6.85,14.69,6.85,10.7,0,19.41-8.9,19.75-20.02,2.35,1.59,5.19,2.52,8.24,2.52,8.12,0,14.71-6.59,14.71-14.71s-6.59-14.71-14.71-14.71Z"/>
          <path class="cls-35" d="m154.61,40.31c-1.29,0-2.53.18-3.71.49-2.02-12.36-12.81-21.79-25.82-21.79-7.45,0-14.17,3.1-18.93,8.06-3.35-3.67-8.15-5.99-13.51-5.99-3.46,0-6.69.98-9.44,2.65-5.3-7.96-14.1-13.18-24.07-13.18-13.95,0-25.62,10.2-28.58,23.87-1.44-.31-2.93-.48-4.46-.48-11.56,0-20.93,9.37-20.93,20.93s9.37,20.93,20.93,20.93c2.6,0,5.09-.48,7.38-1.34.03,10.77,9.73,19.49,21.69,19.49,7.96,0,14.92-3.87,18.69-9.63,4.57,4.42,10.67,7.12,17.38,7.12,8.52,0,16.06-4.36,20.72-11.06,3.62,4.2,8.86,6.85,14.69,6.85,10.7,0,19.41-8.9,19.75-20.02,2.35,1.59,5.19,2.52,8.24,2.52,8.12,0,14.71-6.59,14.71-14.71s-6.59-14.71-14.71-14.71Z"/>
          <path class="cls-43" d="m154.36,40.07c-1.29,0-2.53.18-3.71.49-2.02-12.36-12.81-21.79-25.82-21.79-7.45,0-14.17,3.1-18.93,8.06-3.35-3.67-8.15-5.99-13.51-5.99-3.46,0-6.69.98-9.44,2.65-5.3-7.96-14.1-13.18-24.07-13.18-13.95,0-25.62,10.2-28.58,23.87-1.44-.31-2.93-.48-4.46-.48-11.56,0-20.93,9.37-20.93,20.93s9.37,20.93,20.93,20.93c2.6,0,5.09-.48,7.38-1.34.03,10.77,9.73,19.49,21.69,19.49,7.96,0,14.92-3.87,18.69-9.63,4.57,4.42,10.67,7.12,17.38,7.12,8.52,0,16.06-4.36,20.72-11.06,3.62,4.2,8.86,6.85,14.69,6.85,10.7,0,19.41-8.9,19.75-20.02,2.35,1.59,5.19,2.52,8.24,2.52,8.12,0,14.71-6.59,14.71-14.71s-6.59-14.71-14.71-14.71Z"/>
          <path class="cls-7" d="m154.12,39.82c-1.29,0-2.53.18-3.71.49-2.02-12.36-12.81-21.79-25.82-21.79-7.45,0-14.17,3.1-18.93,8.06-3.35-3.67-8.15-5.99-13.51-5.99-3.46,0-6.69.98-9.44,2.65-5.3-7.96-14.1-13.18-24.07-13.18-13.95,0-25.62,10.2-28.58,23.87-1.44-.31-2.93-.48-4.46-.48-11.56,0-20.93,9.37-20.93,20.93s9.37,20.93,20.93,20.93c2.6,0,5.09-.48,7.38-1.34.03,10.77,9.73,19.49,21.69,19.49,7.96,0,14.92-3.87,18.69-9.63,4.57,4.42,10.67,7.12,17.38,7.12,8.52,0,16.06-4.36,20.72-11.06,3.62,4.2,8.86,6.85,14.69,6.85,10.7,0,19.41-8.9,19.75-20.02,2.35,1.59,5.19,2.52,8.24,2.52,8.12,0,14.71-6.59,14.71-14.71s-6.59-14.71-14.71-14.71Z"/>
          <path class="cls-18" d="m153.87,39.58c-1.29,0-2.53.18-3.71.49-2.02-12.36-12.81-21.79-25.82-21.79-7.45,0-14.17,3.1-18.93,8.06-3.35-3.67-8.15-5.99-13.51-5.99-3.46,0-6.69.98-9.44,2.65-5.3-7.96-14.1-13.18-24.07-13.18-13.95,0-25.62,10.2-28.58,23.87-1.44-.31-2.93-.48-4.46-.48-11.56,0-20.93,9.37-20.93,20.93s9.37,20.93,20.93,20.93c2.6,0,5.09-.48,7.38-1.34.03,10.77,9.73,19.49,21.69,19.49,7.96,0,14.92-3.87,18.69-9.63,4.57,4.42,10.67,7.12,17.38,7.12,8.52,0,16.06-4.36,20.72-11.06,3.62,4.2,8.86,6.85,14.69,6.85,10.7,0,19.41-8.9,19.75-20.02,2.35,1.59,5.19,2.52,8.24,2.52,8.12,0,14.71-6.59,14.71-14.71s-6.59-14.71-14.71-14.71Z"/>
          <path class="cls-40" d="m153.63,39.34c-1.29,0-2.53.18-3.71.49-2.02-12.36-12.81-21.79-25.82-21.79-7.45,0-14.17,3.1-18.93,8.06-3.35-3.67-8.15-5.99-13.51-5.99-3.46,0-6.69.98-9.44,2.65-5.3-7.96-14.1-13.18-24.07-13.18-13.95,0-25.62,10.2-28.58,23.87-1.44-.31-2.93-.48-4.46-.48-11.56,0-20.93,9.37-20.93,20.93s9.37,20.93,20.93,20.93c2.6,0,5.09-.48,7.38-1.34.03,10.77,9.73,19.49,21.69,19.49,7.96,0,14.92-3.87,18.69-9.63,4.57,4.42,10.67,7.12,17.38,7.12,8.52,0,16.06-4.36,20.72-11.06,3.62,4.2,8.86,6.85,14.69,6.85,10.7,0,19.41-8.9,19.75-20.02,2.35,1.59,5.19,2.52,8.24,2.52,8.12,0,14.71-6.59,14.71-14.71s-6.59-14.71-14.71-14.71Z"/>
          <path class="cls-37" d="m153.39,39.09c-1.29,0-2.53.18-3.71.49-2.02-12.36-12.81-21.79-25.82-21.79-7.45,0-14.17,3.1-18.93,8.06-3.35-3.67-8.15-5.99-13.51-5.99-3.46,0-6.69.98-9.44,2.65-5.3-7.96-14.1-13.18-24.07-13.18-13.95,0-25.62,10.2-28.58,23.87-1.44-.31-2.93-.48-4.46-.48-11.56,0-20.93,9.37-20.93,20.93s9.37,20.93,20.93,20.93c2.6,0,5.09-.48,7.38-1.34.03,10.77,9.73,19.49,21.69,19.49,7.96,0,14.92-3.87,18.69-9.63,4.57,4.42,10.67,7.12,17.38,7.12,8.52,0,16.06-4.36,20.72-11.06,3.62,4.2,8.86,6.85,14.69,6.85,10.7,0,19.41-8.9,19.75-20.02,2.35,1.59,5.19,2.52,8.24,2.52,8.12,0,14.71-6.59,14.71-14.71s-6.59-14.71-14.71-14.71Z"/>
          <path class="cls-29" d="m153.14,38.85c-1.29,0-2.53.18-3.71.49-2.02-12.36-12.81-21.79-25.82-21.79-7.45,0-14.17,3.1-18.93,8.06-3.35-3.67-8.15-5.99-13.51-5.99-3.46,0-6.69.98-9.44,2.65-5.3-7.96-14.1-13.18-24.07-13.18-13.95,0-25.62,10.2-28.58,23.87-1.44-.31-2.93-.48-4.46-.48-11.56,0-20.93,9.37-20.93,20.93s9.37,20.93,20.93,20.93c2.6,0,5.09-.48,7.38-1.34.03,10.77,9.73,19.49,21.69,19.49,7.96,0,14.92-3.87,18.69-9.63,4.57,4.42,10.67,7.12,17.38,7.12,8.52,0,16.06-4.36,20.72-11.06,3.62,4.2,8.86,6.85,14.69,6.85,10.7,0,19.41-8.9,19.75-20.02,2.35,1.59,5.19,2.52,8.24,2.52,8.12,0,14.71-6.59,14.71-14.71s-6.59-14.71-14.71-14.71Z"/>
          <path class="cls-44" d="m152.9,38.6c-1.29,0-2.53.18-3.71.49-2.02-12.36-12.81-21.79-25.82-21.79-7.45,0-14.17,3.1-18.93,8.06-3.35-3.67-8.15-5.99-13.51-5.99-3.46,0-6.69.98-9.44,2.65-5.3-7.96-14.1-13.18-24.07-13.18-13.95,0-25.62,10.2-28.58,23.87-1.44-.31-2.93-.48-4.46-.48-11.56,0-20.93,9.37-20.93,20.93s9.37,20.93,20.93,20.93c2.6,0,5.09-.48,7.38-1.34.03,10.77,9.73,19.49,21.69,19.49,7.96,0,14.92-3.87,18.69-9.63,4.57,4.42,10.67,7.12,17.38,7.12,8.52,0,16.06-4.36,20.72-11.06,3.62,4.2,8.86,6.85,14.69,6.85,10.7,0,19.41-8.9,19.75-20.02,2.35,1.59,5.19,2.52,8.24,2.52,8.12,0,14.71-6.59,14.71-14.71s-6.59-14.71-14.71-14.71Z"/>
          <path class="cls-31" d="m152.65,38.36c-1.29,0-2.53.18-3.71.49-2.02-12.36-12.81-21.79-25.82-21.79-7.45,0-14.17,3.1-18.93,8.06-3.35-3.67-8.15-5.99-13.51-5.99-3.46,0-6.69.98-9.44,2.65-5.3-7.96-14.1-13.18-24.07-13.18-13.95,0-25.62,10.2-28.58,23.87-1.44-.31-2.93-.48-4.46-.48-11.56,0-20.93,9.37-20.93,20.93s9.37,20.93,20.93,20.93c2.6,0,5.09-.48,7.38-1.34.03,10.77,9.73,19.49,21.69,19.49,7.96,0,14.92-3.87,18.69-9.63,4.57,4.42,10.67,7.12,17.38,7.12,8.52,0,16.06-4.36,20.72-11.06,3.62,4.2,8.86,6.85,14.69,6.85,10.7,0,19.41-8.9,19.75-20.02,2.35,1.59,5.19,2.52,8.24,2.52,8.12,0,14.71-6.59,14.71-14.71s-6.59-14.71-14.71-14.71Z"/>
          <path class="cls-45" d="m152.41,38.12c-1.29,0-2.53.18-3.71.49-2.02-12.36-12.81-21.79-25.82-21.79-7.45,0-14.17,3.1-18.93,8.06-3.35-3.67-8.15-5.99-13.51-5.99-3.46,0-6.69.98-9.44,2.65-5.3-7.96-14.1-13.18-24.07-13.18-13.95,0-25.62,10.2-28.58,23.87-1.44-.31-2.93-.48-4.46-.48-11.56,0-20.93,9.37-20.93,20.93s9.37,20.93,20.93,20.93c2.6,0,5.09-.48,7.38-1.34.03,10.77,9.73,19.49,21.69,19.49,7.96,0,14.92-3.87,18.69-9.63,4.57,4.42,10.67,7.12,17.38,7.12,8.52,0,16.06-4.36,20.72-11.06,3.62,4.2,8.86,6.85,14.69,6.85,10.7,0,19.41-8.9,19.75-20.02,2.35,1.59,5.19,2.52,8.24,2.52,8.12,0,14.71-6.59,14.71-14.71s-6.59-14.71-14.71-14.71Z"/>
          <path class="cls-6" d="m152.17,37.87c-1.29,0-2.53.18-3.71.49-2.02-12.36-12.81-21.79-25.82-21.79-7.45,0-14.17,3.1-18.93,8.06-3.35-3.67-8.15-5.99-13.51-5.99-3.46,0-6.69.98-9.44,2.65-5.3-7.96-14.1-13.18-24.07-13.18-13.95,0-25.62,10.2-28.58,23.87-1.44-.31-2.93-.48-4.46-.48-11.56,0-20.93,9.37-20.93,20.93s9.37,20.93,20.93,20.93c2.6,0,5.09-.48,7.38-1.34.03,10.77,9.73,19.49,21.69,19.49,7.96,0,14.92-3.87,18.69-9.63,4.57,4.42,10.67,7.12,17.38,7.12,8.52,0,16.06-4.36,20.72-11.06,3.62,4.2,8.86,6.85,14.69,6.85,10.7,0,19.41-8.9,19.75-20.02,2.35,1.59,5.19,2.52,8.24,2.52,8.12,0,14.71-6.59,14.71-14.71s-6.59-14.71-14.71-14.71Z"/>
          <path class="cls-22" d="m151.92,37.63c-1.29,0-2.53.18-3.71.49-2.02-12.36-12.81-21.79-25.82-21.79-7.45,0-14.17,3.1-18.93,8.06-3.35-3.67-8.15-5.99-13.51-5.99-3.46,0-6.69.98-9.44,2.65-5.3-7.96-14.1-13.18-24.07-13.18-13.95,0-25.62,10.2-28.58,23.87-1.44-.31-2.93-.48-4.46-.48-11.56,0-20.93,9.37-20.93,20.93s9.37,20.93,20.93,20.93c2.6,0,5.09-.48,7.38-1.34.03,10.77,9.73,19.49,21.69,19.49,7.96,0,14.92-3.87,18.69-9.63,4.57,4.42,10.67,7.12,17.38,7.12,8.52,0,16.06-4.36,20.72-11.06,3.62,4.2,8.86,6.85,14.69,6.85,10.7,0,19.41-8.9,19.75-20.02,2.35,1.59,5.19,2.52,8.24,2.52,8.12,0,14.71-6.59,14.71-14.71s-6.59-14.71-14.71-14.71Z"/>
          <path class="cls-41" d="m151.68,37.38c-1.29,0-2.53.18-3.71.49-2.02-12.36-12.81-21.79-25.82-21.79-7.45,0-14.17,3.1-18.93,8.06-3.35-3.67-8.15-5.99-13.51-5.99-3.46,0-6.69.98-9.44,2.65-5.3-7.96-14.1-13.18-24.07-13.18-13.95,0-25.62,10.2-28.58,23.87-1.44-.31-2.93-.48-4.46-.48-11.56,0-20.93,9.37-20.93,20.93s9.37,20.93,20.93,20.93c2.6,0,5.09-.48,7.38-1.34.03,10.77,9.73,19.49,21.69,19.49,7.96,0,14.92-3.87,18.69-9.63,4.57,4.42,10.67,7.12,17.38,7.12,8.52,0,16.06-4.36,20.72-11.06,3.62,4.2,8.86,6.85,14.69,6.85,10.7,0,19.41-8.9,19.75-20.02,2.35,1.59,5.19,2.52,8.24,2.52,8.12,0,14.71-6.59,14.71-14.71s-6.59-14.71-14.71-14.71Z"/>
          <path class="cls-4" d="m151.43,37.14c-1.29,0-2.53.18-3.71.49-2.02-12.36-12.81-21.79-25.82-21.79-7.45,0-14.17,3.1-18.93,8.06-3.35-3.67-8.15-5.99-13.51-5.99-3.46,0-6.69.98-9.44,2.65-5.3-7.96-14.1-13.18-24.07-13.18-13.95,0-25.62,10.2-28.58,23.87-1.44-.31-2.93-.48-4.46-.48-11.56,0-20.93,9.37-20.93,20.93s9.37,20.93,20.93,20.93c2.6,0,5.09-.48,7.38-1.34.03,10.77,9.73,19.49,21.69,19.49,7.96,0,14.92-3.87,18.69-9.63,4.57,4.42,10.67,7.12,17.38,7.12,8.52,0,16.06-4.36,20.72-11.06,3.62,4.2,8.86,6.85,14.69,6.85,10.7,0,19.41-8.9,19.75-20.02,2.35,1.59,5.19,2.52,8.24,2.52,8.12,0,14.71-6.59,14.71-14.71s-6.59-14.71-14.71-14.71Z"/>
          <path class="cls-46" d="m151.19,36.9c-1.29,0-2.53.18-3.71.49-2.02-12.36-12.81-21.79-25.82-21.79-7.45,0-14.17,3.1-18.93,8.06-3.35-3.67-8.15-5.99-13.51-5.99-3.46,0-6.69.98-9.44,2.65-5.3-7.96-14.1-13.18-24.07-13.18-13.95,0-25.62,10.2-28.58,23.87-1.44-.31-2.93-.48-4.46-.48-11.56,0-20.93,9.37-20.93,20.93s9.37,20.93,20.93,20.93c2.6,0,5.09-.48,7.38-1.34.03,10.77,9.73,19.49,21.69,19.49,7.96,0,14.92-3.87,18.69-9.63,4.57,4.42,10.67,7.12,17.38,7.12,8.52,0,16.06-4.36,20.72-11.06,3.62,4.2,8.86,6.85,14.69,6.85,10.7,0,19.41-8.9,19.75-20.02,2.35,1.59,5.19,2.52,8.24,2.52,8.12,0,14.71-6.59,14.71-14.71s-6.59-14.71-14.71-14.71Z"/>
          <path class="cls-36" d="m150.95,36.65c-1.29,0-2.53.18-3.71.49-2.02-12.36-12.81-21.79-25.82-21.79-7.45,0-14.17,3.1-18.93,8.06-3.35-3.67-8.15-5.99-13.51-5.99-3.46,0-6.69.98-9.44,2.65-5.3-7.96-14.1-13.18-24.07-13.18-13.95,0-25.62,10.2-28.58,23.87-1.44-.31-2.93-.48-4.46-.48-11.56,0-20.93,9.37-20.93,20.93s9.37,20.93,20.93,20.93c2.6,0,5.09-.48,7.38-1.34.03,10.77,9.73,19.49,21.69,19.49,7.96,0,14.92-3.87,18.69-9.63,4.57,4.42,10.67,7.12,17.38,7.12,8.52,0,16.06-4.36,20.72-11.06,3.62,4.2,8.86,6.85,14.69,6.85,10.7,0,19.41-8.9,19.75-20.02,2.35,1.59,5.19,2.52,8.24,2.52,8.12,0,14.71-6.59,14.71-14.71s-6.59-14.71-14.71-14.71Z"/>
          <path class="cls-26" d="m150.7,36.41c-1.29,0-2.53.18-3.71.49-2.02-12.36-12.81-21.79-25.82-21.79-7.45,0-14.17,3.1-18.93,8.06-3.35-3.67-8.15-5.99-13.51-5.99-3.46,0-6.69.98-9.44,2.65-5.3-7.96-14.1-13.18-24.07-13.18-13.95,0-25.62,10.2-28.58,23.87-1.44-.31-2.93-.48-4.46-.48-11.56,0-20.93,9.37-20.93,20.93s9.37,20.93,20.93,20.93c2.6,0,5.09-.48,7.38-1.34.03,10.77,9.73,19.49,21.69,19.49,7.96,0,14.92-3.87,18.69-9.63,4.57,4.42,10.67,7.12,17.38,7.12,8.52,0,16.06-4.36,20.72-11.06,3.62,4.2,8.86,6.85,14.69,6.85,10.7,0,19.41-8.9,19.75-20.02,2.35,1.59,5.19,2.52,8.24,2.52,8.12,0,14.71-6.59,14.71-14.71s-6.59-14.71-14.71-14.71Z"/>
          <path class="cls-28" d="m150.46,36.16c-1.29,0-2.53.18-3.71.49-2.02-12.36-12.81-21.79-25.82-21.79-7.45,0-14.17,3.1-18.93,8.06-3.35-3.67-8.15-5.99-13.51-5.99-3.46,0-6.69.98-9.44,2.65-5.3-7.96-14.1-13.18-24.07-13.18-13.95,0-25.62,10.2-28.58,23.87-1.44-.31-2.93-.48-4.46-.48C10.36,29.79.99,39.17.99,50.73s9.37,20.93,20.93,20.93c2.6,0,5.09-.48,7.38-1.34.03,10.77,9.73,19.49,21.69,19.49,7.96,0,14.92-3.87,18.69-9.63,4.57,4.42,10.67,7.12,17.38,7.12,8.52,0,16.06-4.36,20.72-11.06,3.62,4.2,8.86,6.85,14.69,6.85,10.7,0,19.41-8.9,19.75-20.02,2.35,1.59,5.19,2.52,8.24,2.52,8.12,0,14.71-6.59,14.71-14.71s-6.59-14.71-14.71-14.71Z"/>
          <path class="cls-23" d="m150.21,35.92c-1.29,0-2.53.18-3.71.49-2.02-12.36-12.81-21.79-25.82-21.79-7.45,0-14.17,3.1-18.93,8.06-3.35-3.67-8.15-5.99-13.51-5.99-3.46,0-6.69.98-9.44,2.65-5.3-7.96-14.1-13.18-24.07-13.18-13.95,0-25.62,10.2-28.58,23.87-1.44-.31-2.93-.48-4.46-.48C10.12,29.55.74,38.92.74,50.48s9.37,20.93,20.93,20.93c2.6,0,5.09-.48,7.38-1.34.03,10.77,9.73,19.49,21.69,19.49,7.96,0,14.92-3.87,18.69-9.63,4.57,4.42,10.67,7.12,17.38,7.12,8.52,0,16.06-4.36,20.72-11.06,3.62,4.2,8.86,6.85,14.69,6.85,10.7,0,19.41-8.9,19.75-20.02,2.35,1.59,5.19,2.52,8.24,2.52,8.12,0,14.71-6.59,14.71-14.71s-6.59-14.71-14.71-14.71Z"/>
          <path class="cls-2" d="m149.97,35.68c-1.29,0-2.53.18-3.71.49-2.02-12.36-12.81-21.79-25.82-21.79-7.45,0-14.17,3.1-18.93,8.06-3.35-3.67-8.15-5.99-13.51-5.99-3.46,0-6.69.98-9.44,2.65-5.3-7.96-14.1-13.18-24.07-13.18-13.95,0-25.62,10.2-28.58,23.87-1.44-.31-2.93-.48-4.46-.48C9.87,29.31.5,38.68.5,50.24s9.37,20.93,20.93,20.93c2.6,0,5.09-.48,7.38-1.34.03,10.77,9.73,19.49,21.69,19.49,7.96,0,14.92-3.87,18.69-9.63,4.57,4.42,10.67,7.12,17.38,7.12,8.52,0,16.06-4.36,20.72-11.06,3.62,4.2,8.86,6.85,14.69,6.85,10.7,0,19.41-8.9,19.75-20.02,2.35,1.59,5.19,2.52,8.24,2.52,8.12,0,14.71-6.59,14.71-14.71s-6.59-14.71-14.71-14.71Z"/>
        </g>
        <path class="cls-20" d="m149.97,35.68c-1.29,0-2.53.18-3.71.49-2.02-12.36-12.81-21.79-25.82-21.79-7.45,0-14.17,3.1-18.93,8.06-3.35-3.67-8.15-5.99-13.51-5.99-3.46,0-6.69.98-9.44,2.65-5.3-7.96-14.1-13.18-24.07-13.18-13.95,0-25.62,10.2-28.58,23.87-1.44-.31-2.93-.48-4.46-.48C9.87,29.31.5,38.68.5,50.24s9.37,20.93,20.93,20.93c2.6,0,5.09-.48,7.38-1.34.03,10.77,9.73,19.49,21.69,19.49,7.96,0,14.92-3.87,18.69-9.63,4.57,4.42,10.67,7.12,17.38,7.12,8.52,0,16.06-4.36,20.72-11.06,3.62,4.2,8.86,6.85,14.69,6.85,10.7,0,19.41-8.9,19.75-20.02,2.35,1.59,5.19,2.52,8.24,2.52,8.12,0,14.71-6.59,14.71-14.71s-6.59-14.71-14.71-14.71Z"/>
      </g>
      <g>
        <g class="cls-5">
          <path class="cls-11" d="m234.2,46.31c-1.39,0-2.75.14-4.05.41-2.84-5.78-8.77-9.77-15.65-9.77-.27,0-.53.03-.79.04-1.15-9.31-9.91-16.55-20.55-16.55-4.96,0-9.51,1.57-13.07,4.2-6.01-8.57-15.7-14.14-26.64-14.14-17.34,0-31.55,13.99-32.91,31.78-1.23-.25-2.5-.38-3.81-.38-10.57,0-19.13,8.57-19.13,19.13s7.77,18.29,17.64,19.06c2.09,11.59,12.28,20.39,24.55,20.39,7.1,0,13.51-2.95,18.05-7.69,3.19,3.5,7.77,5.71,12.88,5.71,3.85,0,7.4-1.26,10.29-3.38,5.12,5.91,12.5,9.62,20.72,9.62,12.15,0,22.49-8.12,26.35-19.46,1.93.62,3.98.97,6.12.97,11.03,0,19.96-8.94,19.96-19.96s-8.94-19.96-19.96-19.96Z"/>
          <path class="cls-10" d="m233.95,46.07c-1.39,0-2.75.14-4.05.41-2.84-5.78-8.77-9.77-15.65-9.77-.27,0-.53.03-.79.04-1.15-9.31-9.91-16.55-20.55-16.55-4.96,0-9.51,1.57-13.07,4.2-6.01-8.57-15.7-14.14-26.64-14.14-17.34,0-31.55,13.99-32.91,31.78-1.23-.25-2.5-.38-3.81-.38-10.57,0-19.13,8.57-19.13,19.13s7.77,18.29,17.64,19.06c2.09,11.59,12.28,20.39,24.55,20.39,7.1,0,13.51-2.95,18.05-7.69,3.19,3.5,7.77,5.71,12.88,5.71,3.85,0,7.4-1.26,10.29-3.38,5.12,5.91,12.5,9.62,20.72,9.62,12.15,0,22.49-8.12,26.35-19.46,1.93.62,3.98.97,6.12.97,11.03,0,19.96-8.94,19.96-19.96s-8.94-19.96-19.96-19.96Z"/>
          <path class="cls-3" d="m233.71,45.82c-1.39,0-2.75.14-4.05.41-2.84-5.78-8.77-9.77-15.65-9.77-.27,0-.53.03-.79.04-1.15-9.31-9.91-16.55-20.55-16.55-4.96,0-9.51,1.57-13.07,4.2-6.01-8.57-15.7-14.14-26.64-14.14-17.34,0-31.55,13.99-32.91,31.78-1.23-.25-2.5-.38-3.81-.38-10.57,0-19.13,8.57-19.13,19.13s7.77,18.29,17.64,19.06c2.09,11.59,12.28,20.39,24.55,20.39,7.1,0,13.51-2.95,18.05-7.69,3.19,3.5,7.77,5.71,12.88,5.71,3.85,0,7.4-1.26,10.29-3.38,5.12,5.91,12.5,9.62,20.72,9.62,12.15,0,22.49-8.12,26.35-19.46,1.93.62,3.98.97,6.12.97,11.03,0,19.96-8.94,19.96-19.96s-8.94-19.96-19.96-19.96Z"/>
          <path class="cls-38" d="m233.46,45.58c-1.39,0-2.75.14-4.05.41-2.84-5.78-8.77-9.77-15.65-9.77-.27,0-.53.03-.79.04-1.15-9.31-9.91-16.55-20.55-16.55-4.96,0-9.51,1.57-13.07,4.2-6.01-8.57-15.7-14.14-26.64-14.14-17.34,0-31.55,13.99-32.91,31.78-1.23-.25-2.5-.38-3.81-.38-10.57,0-19.13,8.57-19.13,19.13s7.77,18.29,17.64,19.06c2.09,11.59,12.28,20.39,24.55,20.39,7.1,0,13.51-2.95,18.05-7.69,3.19,3.5,7.77,5.71,12.88,5.71,3.85,0,7.4-1.26,10.29-3.38,5.12,5.91,12.5,9.62,20.72,9.62,12.15,0,22.49-8.12,26.35-19.46,1.93.62,3.98.97,6.12.97,11.03,0,19.96-8.94,19.96-19.96s-8.94-19.96-19.96-19.96Z"/>
          <path class="cls-39" d="m233.22,45.34c-1.39,0-2.75.14-4.05.41-2.84-5.78-8.77-9.77-15.65-9.77-.27,0-.53.03-.79.04-1.15-9.31-9.91-16.55-20.55-16.55-4.96,0-9.51,1.57-13.07,4.2-6.01-8.57-15.7-14.14-26.64-14.14-17.34,0-31.55,13.99-32.91,31.78-1.23-.25-2.5-.38-3.81-.38-10.57,0-19.13,8.57-19.13,19.13s7.77,18.29,17.64,19.06c2.09,11.59,12.28,20.39,24.55,20.39,7.1,0,13.51-2.95,18.05-7.69,3.19,3.5,7.77,5.71,12.88,5.71,3.85,0,7.4-1.26,10.29-3.38,5.12,5.91,12.5,9.62,20.72,9.62,12.15,0,22.49-8.12,26.35-19.46,1.93.62,3.98.97,6.12.97,11.03,0,19.96-8.94,19.96-19.96s-8.94-19.96-19.96-19.96Z"/>
          <path class="cls-47" d="m232.98,45.09c-1.39,0-2.75.14-4.05.41-2.84-5.78-8.77-9.77-15.65-9.77-.27,0-.53.03-.79.04-1.15-9.31-9.91-16.55-20.55-16.55-4.96,0-9.51,1.57-13.07,4.2-6.01-8.57-15.7-14.14-26.64-14.14-17.34,0-31.55,13.99-32.91,31.78-1.23-.25-2.5-.38-3.81-.38-10.57,0-19.13,8.57-19.13,19.13s7.77,18.29,17.64,19.06c2.09,11.59,12.28,20.39,24.55,20.39,7.1,0,13.51-2.95,18.05-7.69,3.19,3.5,7.77,5.71,12.88,5.71,3.85,0,7.4-1.26,10.29-3.38,5.12,5.91,12.5,9.62,20.72,9.62,12.15,0,22.49-8.12,26.35-19.46,1.93.62,3.98.97,6.12.97,11.03,0,19.96-8.94,19.96-19.96s-8.94-19.96-19.96-19.96Z"/>
          <path class="cls-30" d="m232.73,44.85c-1.39,0-2.75.14-4.05.41-2.84-5.78-8.77-9.77-15.65-9.77-.27,0-.53.03-.79.04-1.15-9.31-9.91-16.55-20.55-16.55-4.96,0-9.51,1.57-13.07,4.2-6.01-8.57-15.7-14.14-26.64-14.14-17.34,0-31.55,13.99-32.91,31.78-1.23-.25-2.5-.38-3.81-.38-10.57,0-19.13,8.57-19.13,19.13s7.77,18.29,17.64,19.06c2.09,11.59,12.28,20.39,24.55,20.39,7.1,0,13.51-2.95,18.05-7.69,3.19,3.5,7.77,5.71,12.88,5.71,3.85,0,7.4-1.26,10.29-3.38,5.12,5.91,12.5,9.62,20.72,9.62,12.15,0,22.49-8.12,26.35-19.46,1.93.62,3.98.97,6.12.97,11.03,0,19.96-8.94,19.96-19.96s-8.94-19.96-19.96-19.96Z"/>
          <path class="cls-9" d="m232.49,44.6c-1.39,0-2.75.14-4.05.41-2.84-5.78-8.77-9.77-15.65-9.77-.27,0-.53.03-.79.04-1.15-9.31-9.91-16.55-20.55-16.55-4.96,0-9.51,1.57-13.07,4.2-6.01-8.57-15.7-14.14-26.64-14.14-17.34,0-31.55,13.99-32.91,31.78-1.23-.25-2.5-.38-3.81-.38-10.57,0-19.13,8.57-19.13,19.13s7.77,18.29,17.64,19.06c2.09,11.59,12.28,20.39,24.55,20.39,7.1,0,13.51-2.95,18.05-7.69,3.19,3.5,7.77,5.71,12.88,5.71,3.85,0,7.4-1.26,10.29-3.38,5.12,5.91,12.5,9.62,20.72,9.62,12.15,0,22.49-8.12,26.35-19.46,1.93.62,3.98.97,6.12.97,11.03,0,19.96-8.94,19.96-19.96s-8.94-19.96-19.96-19.96Z"/>
          <path class="cls-33" d="m232.24,44.36c-1.39,0-2.75.14-4.05.41-2.84-5.78-8.77-9.77-15.65-9.77-.27,0-.53.03-.79.04-1.15-9.31-9.91-16.55-20.55-16.55-4.96,0-9.51,1.57-13.07,4.2-6.01-8.57-15.7-14.14-26.64-14.14-17.34,0-31.55,13.99-32.91,31.78-1.23-.25-2.5-.38-3.81-.38-10.57,0-19.13,8.57-19.13,19.13s7.77,18.29,17.64,19.06c2.09,11.59,12.28,20.39,24.55,20.39,7.1,0,13.51-2.95,18.05-7.69,3.19,3.5,7.77,5.71,12.88,5.71,3.85,0,7.4-1.26,10.29-3.38,5.12,5.91,12.5,9.62,20.72,9.62,12.15,0,22.49-8.12,26.35-19.46,1.93.62,3.98.97,6.12.97,11.03,0,19.96-8.94,19.96-19.96s-8.94-19.96-19.96-19.96Z"/>
          <path class="cls-25" d="m232,44.12c-1.39,0-2.75.14-4.05.41-2.84-5.78-8.77-9.77-15.65-9.77-.27,0-.53.03-.79.04-1.15-9.31-9.91-16.55-20.55-16.55-4.96,0-9.51,1.57-13.07,4.2-6.01-8.57-15.7-14.14-26.64-14.14-17.34,0-31.55,13.99-32.91,31.78-1.23-.25-2.5-.38-3.81-.38-10.57,0-19.13,8.57-19.13,19.13s7.77,18.29,17.64,19.06c2.09,11.59,12.28,20.39,24.55,20.39,7.1,0,13.51-2.95,18.05-7.69,3.19,3.5,7.77,5.71,12.88,5.71,3.85,0,7.4-1.26,10.29-3.38,5.12,5.91,12.5,9.62,20.72,9.62,12.15,0,22.49-8.12,26.35-19.46,1.93.62,3.98.97,6.12.97,11.03,0,19.96-8.94,19.96-19.96s-8.94-19.96-19.96-19.96Z"/>
          <path class="cls-42" d="m231.76,43.87c-1.39,0-2.75.14-4.05.41-2.84-5.78-8.77-9.77-15.65-9.77-.27,0-.53.03-.79.04-1.15-9.31-9.91-16.55-20.55-16.55-4.96,0-9.51,1.57-13.07,4.2-6.01-8.57-15.7-14.14-26.64-14.14-17.34,0-31.55,13.99-32.91,31.78-1.23-.25-2.5-.38-3.81-.38-10.57,0-19.13,8.57-19.13,19.13s7.77,18.29,17.64,19.06c2.09,11.59,12.28,20.39,24.55,20.39,7.1,0,13.51-2.95,18.05-7.69,3.19,3.5,7.77,5.71,12.88,5.71,3.85,0,7.4-1.26,10.29-3.38,5.12,5.91,12.5,9.62,20.72,9.62,12.15,0,22.49-8.12,26.35-19.46,1.93.62,3.98.97,6.12.97,11.03,0,19.96-8.94,19.96-19.96s-8.94-19.96-19.96-19.96Z"/>
          <path class="cls-32" d="m231.51,43.63c-1.39,0-2.75.14-4.05.41-2.84-5.78-8.77-9.77-15.65-9.77-.27,0-.53.03-.79.04-1.15-9.31-9.91-16.55-20.55-16.55-4.96,0-9.51,1.57-13.07,4.2-6.01-8.57-15.7-14.14-26.64-14.14-17.34,0-31.55,13.99-32.91,31.78-1.23-.25-2.5-.38-3.81-.38-10.57,0-19.13,8.57-19.13,19.13s7.77,18.29,17.64,19.06c2.09,11.59,12.28,20.39,24.55,20.39,7.1,0,13.51-2.95,18.05-7.69,3.19,3.5,7.77,5.71,12.88,5.71,3.85,0,7.4-1.26,10.29-3.38,5.12,5.91,12.5,9.62,20.72,9.62,12.15,0,22.49-8.12,26.35-19.46,1.93.62,3.98.97,6.12.97,11.03,0,19.96-8.94,19.96-19.96s-8.94-19.96-19.96-19.96Z"/>
          <path class="cls-12" d="m231.27,43.39c-1.39,0-2.75.14-4.05.41-2.84-5.78-8.77-9.77-15.65-9.77-.27,0-.53.03-.79.04-1.15-9.31-9.91-16.55-20.55-16.55-4.96,0-9.51,1.57-13.07,4.2-6.01-8.57-15.7-14.14-26.64-14.14-17.34,0-31.55,13.99-32.91,31.78-1.23-.25-2.5-.38-3.81-.38-10.57,0-19.13,8.57-19.13,19.13s7.77,18.29,17.64,19.06c2.09,11.59,12.28,20.39,24.55,20.39,7.1,0,13.51-2.95,18.05-7.69,3.19,3.5,7.77,5.71,12.88,5.71,3.85,0,7.4-1.26,10.29-3.38,5.12,5.91,12.5,9.62,20.72,9.62,12.15,0,22.49-8.12,26.35-19.46,1.93.62,3.98.97,6.12.97,11.03,0,19.96-8.94,19.96-19.96s-8.94-19.96-19.96-19.96Z"/>
          <path class="cls-13" d="m231.03,43.14c-1.39,0-2.75.14-4.05.41-2.84-5.78-8.77-9.77-15.65-9.77-.27,0-.53.03-.79.04-1.15-9.31-9.91-16.55-20.55-16.55-4.96,0-9.51,1.57-13.07,4.2-6.01-8.57-15.7-14.14-26.64-14.14-17.34,0-31.55,13.99-32.91,31.78-1.23-.25-2.5-.38-3.81-.38-10.57,0-19.13,8.57-19.13,19.13s7.77,18.29,17.64,19.06c2.09,11.59,12.28,20.39,24.55,20.39,7.1,0,13.51-2.95,18.05-7.69,3.19,3.5,7.77,5.71,12.88,5.71,3.85,0,7.4-1.26,10.29-3.38,5.12,5.91,12.5,9.62,20.72,9.62,12.15,0,22.49-8.12,26.35-19.46,1.93.62,3.98.97,6.12.97,11.03,0,19.96-8.94,19.96-19.96s-8.94-19.96-19.96-19.96Z"/>
          <path class="cls-17" d="m230.78,42.9c-1.39,0-2.75.14-4.05.41-2.84-5.78-8.77-9.77-15.65-9.77-.27,0-.53.03-.79.04-1.15-9.31-9.91-16.55-20.55-16.55-4.96,0-9.51,1.57-13.07,4.2-6.01-8.57-15.7-14.14-26.64-14.14-17.34,0-31.55,13.99-32.91,31.78-1.23-.25-2.5-.38-3.81-.38-10.57,0-19.13,8.57-19.13,19.13s7.77,18.29,17.64,19.06c2.09,11.59,12.28,20.39,24.55,20.39,7.1,0,13.51-2.95,18.05-7.69,3.19,3.5,7.77,5.71,12.88,5.71,3.85,0,7.4-1.26,10.29-3.38,5.12,5.91,12.5,9.62,20.72,9.62,12.15,0,22.49-8.12,26.35-19.46,1.93.62,3.98.97,6.12.97,11.03,0,19.96-8.94,19.96-19.96s-8.94-19.96-19.96-19.96Z"/>
          <path class="cls-27" d="m230.54,42.65c-1.39,0-2.75.14-4.05.41-2.84-5.78-8.77-9.77-15.65-9.77-.27,0-.53.03-.79.04-1.15-9.31-9.91-16.55-20.55-16.55-4.96,0-9.51,1.57-13.07,4.2-6.01-8.57-15.7-14.14-26.64-14.14-17.34,0-31.55,13.99-32.91,31.78-1.23-.25-2.5-.38-3.81-.38-10.57,0-19.13,8.57-19.13,19.13s7.77,18.29,17.64,19.06c2.09,11.59,12.28,20.39,24.55,20.39,7.1,0,13.51-2.95,18.05-7.69,3.19,3.5,7.77,5.71,12.88,5.71,3.85,0,7.4-1.26,10.29-3.38,5.12,5.91,12.5,9.62,20.72,9.62,12.15,0,22.49-8.12,26.35-19.46,1.93.62,3.98.97,6.12.97,11.03,0,19.96-8.94,19.96-19.96s-8.94-19.96-19.96-19.96Z"/>
          <path class="cls-34" d="m230.29,42.41c-1.39,0-2.75.14-4.05.41-2.84-5.78-8.77-9.77-15.65-9.77-.27,0-.53.03-.79.04-1.15-9.31-9.91-16.55-20.55-16.55-4.96,0-9.51,1.57-13.07,4.2-6.01-8.57-15.7-14.14-26.64-14.14-17.34,0-31.55,13.99-32.91,31.78-1.23-.25-2.5-.38-3.81-.38-10.57,0-19.13,8.57-19.13,19.13s7.77,18.29,17.64,19.06c2.09,11.59,12.28,20.39,24.55,20.39,7.1,0,13.51-2.95,18.05-7.69,3.19,3.5,7.77,5.71,12.88,5.71,3.85,0,7.4-1.26,10.29-3.38,5.12,5.91,12.5,9.62,20.72,9.62,12.15,0,22.49-8.12,26.35-19.46,1.93.62,3.98.97,6.12.97,11.03,0,19.96-8.94,19.96-19.96s-8.94-19.96-19.96-19.96Z"/>
          <path class="cls-14" d="m230.05,42.17c-1.39,0-2.75.14-4.05.41-2.84-5.78-8.77-9.77-15.65-9.77-.27,0-.53.03-.79.04-1.15-9.31-9.91-16.55-20.55-16.55-4.96,0-9.51,1.57-13.07,4.2-6.01-8.57-15.7-14.14-26.64-14.14-17.34,0-31.55,13.99-32.91,31.78-1.23-.25-2.5-.38-3.81-.38-10.57,0-19.13,8.57-19.13,19.13s7.77,18.29,17.64,19.06c2.09,11.59,12.28,20.39,24.55,20.39,7.1,0,13.51-2.95,18.05-7.69,3.19,3.5,7.77,5.71,12.88,5.71,3.85,0,7.4-1.26,10.29-3.38,5.12,5.91,12.5,9.62,20.72,9.62,12.15,0,22.49-8.12,26.35-19.46,1.93.62,3.98.97,6.12.97,11.03,0,19.96-8.94,19.96-19.96s-8.94-19.96-19.96-19.96Z"/>
          <path class="cls-15" d="m229.81,41.92c-1.39,0-2.75.14-4.05.41-2.84-5.78-8.77-9.77-15.65-9.77-.27,0-.53.03-.79.04-1.15-9.31-9.91-16.55-20.55-16.55-4.96,0-9.51,1.57-13.07,4.2-6.01-8.57-15.7-14.14-26.64-14.14-17.34,0-31.55,13.99-32.91,31.78-1.23-.25-2.5-.38-3.81-.38-10.57,0-19.13,8.57-19.13,19.13s7.77,18.29,17.64,19.06c2.09,11.59,12.28,20.39,24.55,20.39,7.1,0,13.51-2.95,18.05-7.69,3.19,3.5,7.77,5.71,12.88,5.71,3.85,0,7.4-1.26,10.29-3.38,5.12,5.91,12.5,9.62,20.72,9.62,12.15,0,22.49-8.12,26.35-19.46,1.93.62,3.98.97,6.12.97,11.03,0,19.96-8.94,19.96-19.96s-8.94-19.96-19.96-19.96Z"/>
          <path class="cls-24" d="m229.56,41.68c-1.39,0-2.75.14-4.05.41-2.84-5.78-8.77-9.77-15.65-9.77-.27,0-.53.03-.79.04-1.15-9.31-9.91-16.55-20.55-16.55-4.96,0-9.51,1.57-13.07,4.2-6.01-8.57-15.7-14.14-26.64-14.14-17.34,0-31.55,13.99-32.91,31.78-1.23-.25-2.5-.38-3.81-.38-10.57,0-19.13,8.57-19.13,19.13s7.77,18.29,17.64,19.06c2.09,11.59,12.28,20.39,24.55,20.39,7.1,0,13.51-2.95,18.05-7.69,3.19,3.5,7.77,5.71,12.88,5.71,3.85,0,7.4-1.26,10.29-3.38,5.12,5.91,12.5,9.62,20.72,9.62,12.15,0,22.49-8.12,26.35-19.46,1.93.62,3.98.97,6.12.97,11.03,0,19.96-8.94,19.96-19.96s-8.94-19.96-19.96-19.96Z"/>
          <path class="cls-8" d="m229.32,41.43c-1.39,0-2.75.14-4.05.41-2.84-5.78-8.77-9.77-15.65-9.77-.27,0-.53.03-.79.04-1.15-9.31-9.91-16.55-20.55-16.55-4.96,0-9.51,1.57-13.07,4.2-6.01-8.57-15.7-14.14-26.64-14.14-17.34,0-31.55,13.99-32.91,31.78-1.23-.25-2.5-.38-3.81-.38-10.57,0-19.13,8.57-19.13,19.13s7.77,18.29,17.64,19.06c2.09,11.59,12.28,20.39,24.55,20.39,7.1,0,13.51-2.95,18.05-7.69,3.19,3.5,7.77,5.71,12.88,5.71,3.85,0,7.4-1.26,10.29-3.38,5.12,5.91,12.5,9.62,20.72,9.62,12.15,0,22.49-8.12,26.35-19.46,1.93.62,3.98.97,6.12.97,11.03,0,19.96-8.94,19.96-19.96s-8.94-19.96-19.96-19.96Z"/>
          <path class="cls-1" d="m229.07,41.19c-1.39,0-2.75.14-4.05.41-2.84-5.78-8.77-9.77-15.65-9.77-.27,0-.53.03-.79.04-1.15-9.31-9.91-16.55-20.55-16.55-4.96,0-9.51,1.57-13.07,4.2-6.01-8.57-15.7-14.14-26.64-14.14-17.34,0-31.55,13.99-32.91,31.78-1.23-.25-2.5-.38-3.81-.38-10.57,0-19.13,8.57-19.13,19.13s7.77,18.29,17.64,19.06c2.09,11.59,12.28,20.39,24.55,20.39,7.1,0,13.51-2.95,18.05-7.69,3.19,3.5,7.77,5.71,12.88,5.71,3.85,0,7.4-1.26,10.29-3.38,5.12,5.91,12.5,9.62,20.72,9.62,12.15,0,22.49-8.12,26.35-19.46,1.93.62,3.98.97,6.12.97,11.03,0,19.96-8.94,19.96-19.96s-8.94-19.96-19.96-19.96Z"/>
          <path class="cls-35" d="m228.83,40.95c-1.39,0-2.75.14-4.05.41-2.84-5.78-8.77-9.77-15.65-9.77-.27,0-.53.03-.79.04-1.15-9.31-9.91-16.55-20.55-16.55-4.96,0-9.51,1.57-13.07,4.2-6.01-8.57-15.7-14.14-26.64-14.14-17.34,0-31.55,13.99-32.91,31.78-1.23-.25-2.5-.38-3.81-.38-10.57,0-19.13,8.57-19.13,19.13s7.77,18.29,17.64,19.06c2.09,11.59,12.28,20.39,24.55,20.39,7.1,0,13.51-2.95,18.05-7.69,3.19,3.5,7.77,5.71,12.88,5.71,3.85,0,7.4-1.26,10.29-3.38,5.12,5.91,12.5,9.62,20.72,9.62,12.15,0,22.49-8.12,26.35-19.46,1.93.62,3.98.97,6.12.97,11.03,0,19.96-8.94,19.96-19.96s-8.94-19.96-19.96-19.96Z"/>
          <path class="cls-43" d="m228.59,40.7c-1.39,0-2.75.14-4.05.41-2.84-5.78-8.77-9.77-15.65-9.77-.27,0-.53.03-.79.04-1.15-9.31-9.91-16.55-20.55-16.55-4.96,0-9.51,1.57-13.07,4.2-6.01-8.57-15.7-14.14-26.64-14.14-17.34,0-31.55,13.99-32.91,31.78-1.23-.25-2.5-.38-3.81-.38-10.57,0-19.13,8.57-19.13,19.13s7.77,18.29,17.64,19.06c2.09,11.59,12.28,20.39,24.55,20.39,7.1,0,13.51-2.95,18.05-7.69,3.19,3.5,7.77,5.71,12.88,5.71,3.85,0,7.4-1.26,10.29-3.38,5.12,5.91,12.5,9.62,20.72,9.62,12.15,0,22.49-8.12,26.35-19.46,1.93.62,3.98.97,6.12.97,11.03,0,19.96-8.94,19.96-19.96s-8.94-19.96-19.96-19.96Z"/>
          <path class="cls-7" d="m228.34,40.46c-1.39,0-2.75.14-4.05.41-2.84-5.78-8.77-9.77-15.65-9.77-.27,0-.53.03-.79.04-1.15-9.31-9.91-16.55-20.55-16.55-4.96,0-9.51,1.57-13.07,4.2-6.01-8.57-15.7-14.14-26.64-14.14-17.34,0-31.55,13.99-32.91,31.78-1.23-.25-2.5-.38-3.81-.38-10.57,0-19.13,8.57-19.13,19.13s7.77,18.29,17.64,19.06c2.09,11.59,12.28,20.39,24.55,20.39,7.1,0,13.51-2.95,18.05-7.69,3.19,3.5,7.77,5.71,12.88,5.71,3.85,0,7.4-1.26,10.29-3.38,5.12,5.91,12.5,9.62,20.72,9.62,12.15,0,22.49-8.12,26.35-19.46,1.93.62,3.98.97,6.12.97,11.03,0,19.96-8.94,19.96-19.96s-8.94-19.96-19.96-19.96Z"/>
          <path class="cls-18" d="m228.1,40.21c-1.39,0-2.75.14-4.05.41-2.84-5.78-8.77-9.77-15.65-9.77-.27,0-.53.03-.79.04-1.15-9.31-9.91-16.55-20.55-16.55-4.96,0-9.51,1.57-13.07,4.2-6.01-8.57-15.7-14.14-26.64-14.14-17.34,0-31.55,13.99-32.91,31.78-1.23-.25-2.5-.38-3.81-.38-10.57,0-19.13,8.57-19.13,19.13s7.77,18.29,17.64,19.06c2.09,11.59,12.28,20.39,24.55,20.39,7.1,0,13.51-2.95,18.05-7.69,3.19,3.5,7.77,5.71,12.88,5.71,3.85,0,7.4-1.26,10.29-3.38,5.12,5.91,12.5,9.62,20.72,9.62,12.15,0,22.49-8.12,26.35-19.46,1.93.62,3.98.97,6.12.97,11.03,0,19.96-8.94,19.96-19.96s-8.94-19.96-19.96-19.96Z"/>
          <path class="cls-40" d="m227.85,39.97c-1.39,0-2.75.14-4.05.41-2.84-5.78-8.77-9.77-15.65-9.77-.27,0-.53.03-.79.04-1.15-9.31-9.91-16.55-20.55-16.55-4.96,0-9.51,1.57-13.07,4.2-6.01-8.57-15.7-14.14-26.64-14.14-17.34,0-31.55,13.99-32.91,31.78-1.23-.25-2.5-.38-3.81-.38-10.57,0-19.13,8.57-19.13,19.13s7.77,18.29,17.64,19.06c2.09,11.59,12.28,20.39,24.55,20.39,7.1,0,13.51-2.95,18.05-7.69,3.19,3.5,7.77,5.71,12.88,5.71,3.85,0,7.4-1.26,10.29-3.38,5.12,5.91,12.5,9.62,20.72,9.62,12.15,0,22.49-8.12,26.35-19.46,1.93.62,3.98.97,6.12.97,11.03,0,19.96-8.94,19.96-19.96s-8.94-19.96-19.96-19.96Z"/>
          <path class="cls-37" d="m227.61,39.73c-1.39,0-2.75.14-4.05.41-2.84-5.78-8.77-9.77-15.65-9.77-.27,0-.53.03-.79.04-1.15-9.31-9.91-16.55-20.55-16.55-4.96,0-9.51,1.57-13.07,4.2-6.01-8.57-15.7-14.14-26.64-14.14-17.34,0-31.55,13.99-32.91,31.78-1.23-.25-2.5-.38-3.81-.38-10.57,0-19.13,8.57-19.13,19.13s7.77,18.29,17.64,19.06c2.09,11.59,12.28,20.39,24.55,20.39,7.1,0,13.51-2.95,18.05-7.69,3.19,3.5,7.77,5.71,12.88,5.71,3.85,0,7.4-1.26,10.29-3.38,5.12,5.91,12.5,9.62,20.72,9.62,12.15,0,22.49-8.12,26.35-19.46,1.93.62,3.98.97,6.12.97,11.03,0,19.96-8.94,19.96-19.96s-8.94-19.96-19.96-19.96Z"/>
          <path class="cls-29" d="m227.37,39.48c-1.39,0-2.75.14-4.05.41-2.84-5.78-8.77-9.77-15.65-9.77-.27,0-.53.03-.79.04-1.15-9.31-9.91-16.55-20.55-16.55-4.96,0-9.51,1.57-13.07,4.2-6.01-8.57-15.7-14.14-26.64-14.14-17.34,0-31.55,13.99-32.91,31.78-1.23-.25-2.5-.38-3.81-.38-10.57,0-19.13,8.57-19.13,19.13s7.77,18.29,17.64,19.06c2.09,11.59,12.28,20.39,24.55,20.39,7.1,0,13.51-2.95,18.05-7.69,3.19,3.5,7.77,5.71,12.88,5.71,3.85,0,7.4-1.26,10.29-3.38,5.12,5.91,12.5,9.62,20.72,9.62,12.15,0,22.49-8.12,26.35-19.46,1.93.62,3.98.97,6.12.97,11.03,0,19.96-8.94,19.96-19.96s-8.94-19.96-19.96-19.96Z"/>
          <path class="cls-44" d="m227.12,39.24c-1.39,0-2.75.14-4.05.41-2.84-5.78-8.77-9.77-15.65-9.77-.27,0-.53.03-.79.04-1.15-9.31-9.91-16.55-20.55-16.55-4.96,0-9.51,1.57-13.07,4.2-6.01-8.57-15.7-14.14-26.64-14.14-17.34,0-31.55,13.99-32.91,31.78-1.23-.25-2.5-.38-3.81-.38-10.57,0-19.13,8.57-19.13,19.13s7.77,18.29,17.64,19.06c2.09,11.59,12.28,20.39,24.55,20.39,7.1,0,13.51-2.95,18.05-7.69,3.19,3.5,7.77,5.71,12.88,5.71,3.85,0,7.4-1.26,10.29-3.38,5.12,5.91,12.5,9.62,20.72,9.62,12.15,0,22.49-8.12,26.35-19.46,1.93.62,3.98.97,6.12.97,11.03,0,19.96-8.94,19.96-19.96s-8.94-19.96-19.96-19.96Z"/>
          <path class="cls-31" d="m226.88,39c-1.39,0-2.75.14-4.05.41-2.84-5.78-8.77-9.77-15.65-9.77-.27,0-.53.03-.79.04-1.15-9.31-9.91-16.55-20.55-16.55-4.96,0-9.51,1.57-13.07,4.2-6.01-8.57-15.7-14.14-26.64-14.14-17.34,0-31.55,13.99-32.91,31.78-1.23-.25-2.5-.38-3.81-.38-10.57,0-19.13,8.57-19.13,19.13s7.77,18.29,17.64,19.06c2.09,11.59,12.28,20.39,24.55,20.39,7.1,0,13.51-2.95,18.05-7.69,3.19,3.5,7.77,5.71,12.88,5.71,3.85,0,7.4-1.26,10.29-3.38,5.12,5.91,12.5,9.62,20.72,9.62,12.15,0,22.49-8.12,26.35-19.46,1.93.62,3.98.97,6.12.97,11.03,0,19.96-8.94,19.96-19.96s-8.94-19.96-19.96-19.96Z"/>
          <path class="cls-45" d="m226.63,38.75c-1.39,0-2.75.14-4.05.41-2.84-5.78-8.77-9.77-15.65-9.77-.27,0-.53.03-.79.04-1.15-9.31-9.91-16.55-20.55-16.55-4.96,0-9.51,1.57-13.07,4.2-6.01-8.57-15.7-14.14-26.64-14.14-17.34,0-31.55,13.99-32.91,31.78-1.23-.25-2.5-.38-3.81-.38-10.57,0-19.13,8.57-19.13,19.13s7.77,18.29,17.64,19.06c2.09,11.59,12.28,20.39,24.55,20.39,7.1,0,13.51-2.95,18.05-7.69,3.19,3.5,7.77,5.71,12.88,5.71,3.85,0,7.4-1.26,10.29-3.38,5.12,5.91,12.5,9.62,20.72,9.62,12.15,0,22.49-8.12,26.35-19.46,1.93.62,3.98.97,6.12.97,11.03,0,19.96-8.94,19.96-19.96s-8.94-19.96-19.96-19.96Z"/>
          <path class="cls-6" d="m226.39,38.51c-1.39,0-2.75.14-4.05.41-2.84-5.78-8.77-9.77-15.65-9.77-.27,0-.53.03-.79.04-1.15-9.31-9.91-16.55-20.55-16.55-4.96,0-9.51,1.57-13.07,4.2-6.01-8.57-15.7-14.14-26.64-14.14-17.34,0-31.55,13.99-32.91,31.78-1.23-.25-2.5-.38-3.81-.38-10.57,0-19.13,8.57-19.13,19.13s7.77,18.29,17.64,19.06c2.09,11.59,12.28,20.39,24.55,20.39,7.1,0,13.51-2.95,18.05-7.69,3.19,3.5,7.77,5.71,12.88,5.71,3.85,0,7.4-1.26,10.29-3.38,5.12,5.91,12.5,9.62,20.72,9.62,12.15,0,22.49-8.12,26.35-19.46,1.93.62,3.98.97,6.12.97,11.03,0,19.96-8.94,19.96-19.96s-8.94-19.96-19.96-19.96Z"/>
          <path class="cls-22" d="m226.15,38.26c-1.39,0-2.75.14-4.05.41-2.84-5.78-8.77-9.77-15.65-9.77-.27,0-.53.03-.79.04-1.15-9.31-9.91-16.55-20.55-16.55-4.96,0-9.51,1.57-13.07,4.2-6.01-8.57-15.7-14.14-26.64-14.14-17.34,0-31.55,13.99-32.91,31.78-1.23-.25-2.5-.38-3.81-.38-10.57,0-19.13,8.57-19.13,19.13s7.77,18.29,17.64,19.06c2.09,11.59,12.28,20.39,24.55,20.39,7.1,0,13.51-2.95,18.05-7.69,3.19,3.5,7.77,5.71,12.88,5.71,3.85,0,7.4-1.26,10.29-3.38,5.12,5.91,12.5,9.62,20.72,9.62,12.15,0,22.49-8.12,26.35-19.46,1.93.62,3.98.97,6.12.97,11.03,0,19.96-8.94,19.96-19.96s-8.94-19.96-19.96-19.96Z"/>
          <path class="cls-41" d="m225.9,38.02c-1.39,0-2.75.14-4.05.41-2.84-5.78-8.77-9.77-15.65-9.77-.27,0-.53.03-.79.04-1.15-9.31-9.91-16.55-20.55-16.55-4.96,0-9.51,1.57-13.07,4.2-6.01-8.57-15.7-14.14-26.64-14.14-17.34,0-31.55,13.99-32.91,31.78-1.23-.25-2.5-.38-3.81-.38-10.57,0-19.13,8.57-19.13,19.13s7.77,18.29,17.64,19.06c2.09,11.59,12.28,20.39,24.55,20.39,7.1,0,13.51-2.95,18.05-7.69,3.19,3.5,7.77,5.71,12.88,5.71,3.85,0,7.4-1.26,10.29-3.38,5.12,5.91,12.5,9.62,20.72,9.62,12.15,0,22.49-8.12,26.35-19.46,1.93.62,3.98.97,6.12.97,11.03,0,19.96-8.94,19.96-19.96s-8.94-19.96-19.96-19.96Z"/>
          <path class="cls-4" d="m225.66,37.78c-1.39,0-2.75.14-4.05.41-2.84-5.78-8.77-9.77-15.65-9.77-.27,0-.53.03-.79.04-1.15-9.31-9.91-16.55-20.55-16.55-4.96,0-9.51,1.57-13.07,4.2-6.01-8.57-15.7-14.14-26.64-14.14-17.34,0-31.55,13.99-32.91,31.78-1.23-.25-2.5-.38-3.81-.38-10.57,0-19.13,8.57-19.13,19.13s7.77,18.29,17.64,19.06c2.09,11.59,12.28,20.39,24.55,20.39,7.1,0,13.51-2.95,18.05-7.69,3.19,3.5,7.77,5.71,12.88,5.71,3.85,0,7.4-1.26,10.29-3.38,5.12,5.91,12.5,9.62,20.72,9.62,12.15,0,22.49-8.12,26.35-19.46,1.93.62,3.98.97,6.12.97,11.03,0,19.96-8.94,19.96-19.96s-8.94-19.96-19.96-19.96Z"/>
          <path class="cls-46" d="m225.42,37.53c-1.39,0-2.75.14-4.05.41-2.84-5.78-8.77-9.77-15.65-9.77-.27,0-.53.03-.79.04-1.15-9.31-9.91-16.55-20.55-16.55-4.96,0-9.51,1.57-13.07,4.2-6.01-8.57-15.7-14.14-26.64-14.14-17.34,0-31.55,13.99-32.91,31.78-1.23-.25-2.5-.38-3.81-.38-10.57,0-19.13,8.57-19.13,19.13s7.77,18.29,17.64,19.06c2.09,11.59,12.28,20.39,24.55,20.39,7.1,0,13.51-2.95,18.05-7.69,3.19,3.5,7.77,5.71,12.88,5.71,3.85,0,7.4-1.26,10.29-3.38,5.12,5.91,12.5,9.62,20.72,9.62,12.15,0,22.49-8.12,26.35-19.46,1.93.62,3.98.97,6.12.97,11.03,0,19.96-8.94,19.96-19.96s-8.94-19.96-19.96-19.96Z"/>
          <path class="cls-36" d="m225.17,37.29c-1.39,0-2.75.14-4.05.41-2.84-5.78-8.77-9.77-15.65-9.77-.27,0-.53.03-.79.04-1.15-9.31-9.91-16.55-20.55-16.55-4.96,0-9.51,1.57-13.07,4.2-6.01-8.57-15.7-14.14-26.64-14.14-17.34,0-31.55,13.99-32.91,31.78-1.23-.25-2.5-.38-3.81-.38-10.57,0-19.13,8.57-19.13,19.13s7.77,18.29,17.64,19.06c2.09,11.59,12.28,20.39,24.55,20.39,7.1,0,13.51-2.95,18.05-7.69,3.19,3.5,7.77,5.71,12.88,5.71,3.85,0,7.4-1.26,10.29-3.38,5.12,5.91,12.5,9.62,20.72,9.62,12.15,0,22.49-8.12,26.35-19.46,1.93.62,3.98.97,6.12.97,11.03,0,19.96-8.94,19.96-19.96s-8.94-19.96-19.96-19.96Z"/>
          <path class="cls-26" d="m224.93,37.04c-1.39,0-2.75.14-4.05.41-2.84-5.78-8.77-9.77-15.65-9.77-.27,0-.53.03-.79.04-1.15-9.31-9.91-16.55-20.55-16.55-4.96,0-9.51,1.57-13.07,4.2-6.01-8.57-15.7-14.14-26.64-14.14-17.34,0-31.55,13.99-32.91,31.78-1.23-.25-2.5-.38-3.81-.38-10.57,0-19.13,8.57-19.13,19.13s7.77,18.29,17.64,19.06c2.09,11.59,12.28,20.39,24.55,20.39,7.1,0,13.51-2.95,18.05-7.69,3.19,3.5,7.77,5.71,12.88,5.71,3.85,0,7.4-1.26,10.29-3.38,5.12,5.91,12.5,9.62,20.72,9.62,12.15,0,22.49-8.12,26.35-19.46,1.93.62,3.98.97,6.12.97,11.03,0,19.96-8.94,19.96-19.96s-8.94-19.96-19.96-19.96Z"/>
          <path class="cls-28" d="m224.68,36.8c-1.39,0-2.75.14-4.05.41-2.84-5.78-8.77-9.77-15.65-9.77-.27,0-.53.03-.79.04-1.15-9.31-9.91-16.55-20.55-16.55-4.96,0-9.51,1.57-13.07,4.2-6.01-8.57-15.7-14.14-26.64-14.14-17.34,0-31.55,13.99-32.91,31.78-1.23-.25-2.5-.38-3.81-.38-10.57,0-19.13,8.57-19.13,19.13s7.77,18.29,17.64,19.06c2.09,11.59,12.28,20.39,24.55,20.39,7.1,0,13.51-2.95,18.05-7.69,3.19,3.5,7.77,5.71,12.88,5.71,3.85,0,7.4-1.26,10.29-3.38,5.12,5.91,12.5,9.62,20.72,9.62,12.15,0,22.49-8.12,26.35-19.46,1.93.62,3.98.97,6.12.97,11.03,0,19.96-8.94,19.96-19.96s-8.94-19.96-19.96-19.96Z"/>
          <path class="cls-23" d="m224.44,36.56c-1.39,0-2.75.14-4.05.41-2.84-5.78-8.77-9.77-15.65-9.77-.27,0-.53.03-.79.04-1.15-9.31-9.91-16.55-20.55-16.55-4.96,0-9.51,1.57-13.07,4.2-6.01-8.57-15.7-14.14-26.64-14.14-17.34,0-31.55,13.99-32.91,31.78-1.23-.25-2.5-.38-3.81-.38-10.57,0-19.13,8.57-19.13,19.13s7.77,18.29,17.64,19.06c2.09,11.59,12.28,20.39,24.55,20.39,7.1,0,13.51-2.95,18.05-7.69,3.19,3.5,7.77,5.71,12.88,5.71,3.85,0,7.4-1.26,10.29-3.38,5.12,5.91,12.5,9.62,20.72,9.62,12.15,0,22.49-8.12,26.35-19.46,1.93.62,3.98.97,6.12.97,11.03,0,19.96-8.94,19.96-19.96s-8.94-19.96-19.96-19.96Z"/>
          <path class="cls-2" d="m224.2,36.31c-1.39,0-2.75.14-4.05.41-2.84-5.78-8.77-9.77-15.65-9.77-.27,0-.53.03-.79.04-1.15-9.31-9.91-16.55-20.55-16.55-4.96,0-9.51,1.57-13.07,4.2-6.01-8.57-15.7-14.14-26.64-14.14-17.34,0-31.55,13.99-32.91,31.78-1.23-.25-2.5-.38-3.81-.38-10.57,0-19.13,8.57-19.13,19.13s7.77,18.29,17.64,19.06c2.09,11.59,12.28,20.39,24.55,20.39,7.1,0,13.51-2.95,18.05-7.69,3.19,3.5,7.77,5.71,12.88,5.71,3.85,0,7.4-1.26,10.29-3.38,5.12,5.91,12.5,9.62,20.72,9.62,12.15,0,22.49-8.12,26.35-19.46,1.93.62,3.98.97,6.12.97,11.03,0,19.96-8.94,19.96-19.96s-8.94-19.96-19.96-19.96Z"/>
        </g>
        <path class="cls-19" d="m224.2,36.31c-1.39,0-2.75.14-4.05.41-2.84-5.78-8.77-9.77-15.65-9.77-.27,0-.53.03-.79.04-1.15-9.31-9.91-16.55-20.55-16.55-4.96,0-9.51,1.57-13.07,4.2-6.01-8.57-15.7-14.14-26.64-14.14-17.34,0-31.55,13.99-32.91,31.78-1.23-.25-2.5-.38-3.81-.38-10.57,0-19.13,8.57-19.13,19.13s7.77,18.29,17.64,19.06c2.09,11.59,12.28,20.39,24.55,20.39,7.1,0,13.51-2.95,18.05-7.69,3.19,3.5,7.77,5.71,12.88,5.71,3.85,0,7.4-1.26,10.29-3.38,5.12,5.91,12.5,9.62,20.72,9.62,12.15,0,22.49-8.12,26.35-19.46,1.93.62,3.98.97,6.12.97,11.03,0,19.96-8.94,19.96-19.96s-8.94-19.96-19.96-19.96Z"/>
      </g>
    </g>
  </g>
</svg>