<svg width="353" height="378" viewBox="0 0 353 378" fill="none" xmlns="http://www.w3.org/2000/svg">
<g clip-path="url(#clip0_49_2)">
<path d="M295.424 197.692C295.424 245.557 256.622 284.359 208.757 284.359C160.893 284.359 122.09 245.557 122.09 197.692C122.09 149.828 160.893 111.025 208.757 111.025C256.622 111.025 295.424 149.828 295.424 197.692Z" fill="#788D8D"/>
<path d="M295.424 197.692H293.424C293.422 221.079 283.95 242.233 268.625 257.562C253.297 272.886 232.144 282.359 208.757 282.359C185.37 282.359 164.217 272.886 148.889 257.562C133.564 242.233 124.092 221.079 124.09 197.692C124.092 174.307 133.564 153.152 148.889 137.824C164.217 122.5 185.37 113.027 208.757 113.025C232.144 113.027 253.297 122.5 268.625 137.824C283.95 153.152 293.422 174.305 293.424 197.692H295.424H297.424C297.422 148.723 257.728 109.027 208.757 109.025C159.788 109.027 120.092 148.723 120.09 197.692C120.092 246.663 159.788 286.357 208.757 286.359C257.728 286.357 297.422 246.663 297.424 197.692H295.424Z" fill="#9FAFAF"/>
<mask id="mask0_49_2" style="mask-type:luminance" maskUnits="userSpaceOnUse" x="133" y="122" width="80" height="152">
<path d="M208.757 273.24C187.908 273.243 168.996 264.777 155.337 251.113C141.672 237.455 133.208 218.541 133.209 197.692C133.208 176.843 141.672 157.931 155.337 144.272C168.994 130.608 187.904 122.145 208.749 122.145C208.752 122.145 208.754 122.145 208.757 122.145C210.966 122.145 212.757 123.936 212.757 126.145C212.757 128.353 210.966 130.145 208.757 130.145C190.092 130.147 173.23 137.699 160.994 149.929C148.764 162.165 141.212 179.027 141.209 197.692C141.212 216.357 148.764 233.22 160.994 245.456C173.23 257.686 190.092 265.239 208.757 265.24C210.966 265.24 212.757 267.031 212.757 269.24C212.757 271.45 210.966 273.24 208.757 273.24Z" fill="white"/>
</mask>
<g mask="url(#mask0_49_2)">
<path d="M133.208 273.243H212.757V122.145H133.208V273.243Z" fill="#B0D5D5"/>
</g>
<circle cx="236.5" cy="237.5" r="6.5" fill="#6B7676"/>
<circle cx="236.5" cy="237.5" r="6.5" fill="#6B7676"/>
<circle cx="223.5" cy="172.5" r="6.5" fill="#6B7676"/>
<circle cx="223.5" cy="172.5" r="6.5" fill="#6B7676"/>
<circle cx="258.5" cy="192.5" r="6.5" fill="#6B7676"/>
<circle cx="258.5" cy="192.5" r="6.5" fill="#6B7676"/>
<circle cx="199" cy="193" r="10" fill="#6B7676"/>
<circle cx="199" cy="193" r="10" fill="#6B7676"/>
<circle cx="247" cy="152" r="10" fill="#6B7676"/>
<circle cx="247" cy="152" r="10" fill="#6B7676"/>
<circle cx="176.5" cy="179.5" r="6.5" fill="#6B7676"/>
<circle cx="176.5" cy="179.5" r="6.5" fill="#6B7676"/>
<circle cx="181.5" cy="216.5" r="6.5" fill="#6B7676"/>
<circle cx="181.5" cy="216.5" r="6.5" fill="#6B7676"/>
<circle cx="217.5" cy="219.5" r="6.5" fill="#6B7676"/>
<circle cx="217.5" cy="219.5" r="6.5" fill="#6B7676"/>
</g>
<defs>
<clipPath id="clip0_49_2">
<rect width="353" height="378" fill="white"/>
</clipPath>
</defs>
</svg>
