<svg width="782" height="510" viewBox="0 0 782 510" fill="none" xmlns="http://www.w3.org/2000/svg">
<g clip-path="url(#clip0_34_5)">
<path d="M73.416 422.148H67.8107V450.864H279.267L276.275 422.148H73.416Z" fill="#CC8D8C"/>
<path d="M270.32 422.148H73.416L58.892 164.068H270.32V422.148Z" fill="#DF4E2B"/>
<path d="M103.292 374.075H92.8694L92.176 368.273L103.748 368.469L103.292 374.075Z" fill="#F15934"/>
<path d="M91.6907 365.631H81.8947L81.2427 360.179L92.1187 360.362L91.6907 365.631Z" fill="#F15934"/>
<path d="M80.1586 345.668H69.4466L68.7333 339.705L80.6279 339.907L80.1586 345.668Z" fill="#F15934"/>
<path d="M79.052 328.252H69.644L69.0173 323.016L79.4627 323.192L79.052 328.252Z" fill="#F15934"/>
<path d="M136.501 297.14H125.728L125.011 291.144L136.973 291.345L136.501 297.14Z" fill="#F15934"/>
<path d="M145.94 279.613H136.463L135.832 274.339L146.355 274.516L145.94 279.613Z" fill="#F15934"/>
<path d="M140.259 257.851H129.812L129.116 252.036L140.716 252.231L140.259 257.851Z" fill="#F15934"/>
<path d="M131.836 250.099H122.181L121.539 244.724L132.259 244.905L131.836 250.099Z" fill="#F15934"/>
<path d="M115.381 241.844H105.141L104.46 236.144L115.829 236.336L115.381 241.844Z" fill="#F15934"/>
<path d="M135.893 270.156H126.372L125.739 264.856L136.311 265.034L135.893 270.156Z" fill="#F15934"/>
<path d="M219.913 358.059H209.693L209.012 352.369L220.361 352.561L219.913 358.059Z" fill="#F15934"/>
<path d="M210.765 351.159H200.103L199.392 345.224L211.232 345.423L210.765 351.159Z" fill="#F15934"/>
<path d="M208.991 334.975H198.715L198.029 329.256L209.441 329.448L208.991 334.975Z" fill="#F15934"/>
<path d="M206.868 321.104H196.832L196.164 315.517L207.307 315.705L206.868 321.104Z" fill="#F15934"/>
<path d="M196.481 315.256H185.932L185.229 309.384L196.943 309.581L196.481 315.256Z" fill="#F15934"/>
<path d="M177.192 314.92H166.52L165.809 308.98L177.659 309.18L177.192 314.92Z" fill="#F15934"/>
<path d="M208.62 383.892H198.239L197.548 378.113L209.075 378.307L208.62 383.892Z" fill="#F15934"/>
<path d="M189.796 374.215H179.151L178.443 368.291L190.261 368.489L189.796 374.215Z" fill="#F15934"/>
<path d="M89.752 402.317H79.284L78.5867 396.491L90.2094 396.687L89.752 402.317Z" fill="#F15934"/>
<path d="M102.887 414.79H92.5906L91.9053 409.059L103.336 409.251L102.887 414.79Z" fill="#F15934"/>
<path d="M106.756 393.487H97.056L96.4106 388.088L107.181 388.269L106.756 393.487Z" fill="#F15934"/>
<path d="M236.196 327.46H225.681L224.981 321.608L236.656 321.804L236.196 327.46Z" fill="#F15934"/>
<path d="M237.037 314.276H227.356L226.711 308.887L237.461 309.068L237.037 314.276Z" fill="#F15934"/>
<path d="M226.156 299.998H215.804L215.113 294.235L226.609 294.428L226.156 299.998Z" fill="#F15934"/>
<path d="M227.137 278.667H216.875L216.192 272.955L227.585 273.147L227.137 278.667Z" fill="#F15934"/>
<path d="M220.245 301.202H210.071L209.393 295.539L220.691 295.73L220.245 301.202Z" fill="#F15934"/>
<path d="M217.977 290.671H207.605L206.915 284.896L218.432 285.091L217.977 290.671Z" fill="#F15934"/>
<path d="M200.748 273.514H190.313L189.619 267.707L201.204 267.902L200.748 273.514Z" fill="#F15934"/>
<path d="M189.489 204.595H179.211L178.525 198.873L189.939 199.067L189.489 204.595Z" fill="#F15934"/>
<path d="M170.499 198.283H161.001L160.369 192.997L170.913 193.173L170.499 198.283Z" fill="#F15934"/>
<path d="M172.435 183.005H162.08L161.391 177.243L172.888 177.436L172.435 183.005Z" fill="#F15934"/>
<path d="M155.895 180.792H145.204L144.493 174.841L156.363 175.041L155.895 180.792Z" fill="#F15934"/>
<path d="M235.316 186.66H224.937L224.245 180.884L235.771 181.078L235.316 186.66Z" fill="#F15934"/>
<path d="M219.423 200.344H209.964L209.333 195.08L219.836 195.256L219.423 200.344Z" fill="#F15934"/>
<path d="M208.763 199.488H198.845L198.184 193.97L209.196 194.155L208.763 199.488Z" fill="#F15934"/>
<path d="M189.407 187.644H179.891L179.257 182.348L189.823 182.525L189.407 187.644Z" fill="#F15934"/>
<path d="M82.4893 225.247H72.46L71.792 219.665L82.928 219.852L82.4893 225.247Z" fill="#F15934"/>
<path d="M87.2587 205.31H77.3813L76.7227 199.812L87.692 199.996L87.2587 205.31Z" fill="#F15934"/>
<path d="M74.2573 193.36H64.16L63.488 187.74L74.6987 187.929L74.2573 193.36Z" fill="#F15934"/>
<path d="M118.201 195.731H107.948L107.265 190.024L118.651 190.215L118.201 195.731Z" fill="#F15934"/>
<path d="M97.768 184.32H87L86.2839 178.326L98.2386 178.528L97.768 184.32Z" fill="#F15934"/>
<path d="M151.879 318.811H142.075L141.423 313.355L152.307 313.537L151.879 318.811Z" fill="#F15934"/>
<path d="M139.819 313.144H129.649L128.972 307.484L140.263 307.673L139.819 313.144Z" fill="#F15934"/>
<path d="M121.415 306.315H111.801L111.161 300.966L121.835 301.144L121.415 306.315Z" fill="#F15934"/>
<path d="M128.815 291.927H118.205L117.5 286.021L129.279 286.22L128.815 291.927Z" fill="#F15934"/>
<path d="M111.616 279.651H101.556L100.888 274.052L112.056 274.24L111.616 279.651Z" fill="#F15934"/>
<path d="M217.473 413.801H208.117L207.496 408.593L217.883 408.768L217.473 413.801Z" fill="#F15934"/>
<path d="M211.344 418.859H200.56L199.841 412.856L211.816 413.058L211.344 418.859Z" fill="#F15934"/>
<path d="M197.924 405.275H188.312L187.672 399.924L198.345 400.104L197.924 405.275Z" fill="#F15934"/>
<path d="M173.388 415.941H164.057L163.437 410.749L173.796 410.923L173.388 415.941Z" fill="#F15934"/>
<path d="M156.756 417.2H146.047L145.333 411.24L157.224 411.44L156.756 417.2Z" fill="#F15934"/>
<path d="M131.368 396.229H90.748L85.0386 314.151H129.069L131.368 396.229Z" fill="#FFECBF"/>
<path d="M94.7814 392.847L89.5427 317.533H124.895L127.004 392.847H94.7814Z" fill="#EDB17D"/>
<path d="M96.3946 391.494L91.344 318.887H123.225L125.259 391.494H96.3946Z" fill="#0A7E89"/>
<path d="M95.7733 325.695L101.771 389.036H119.644L119.36 327.796L95.7733 325.695Z" fill="#089DAC"/>
<path d="M110.036 392.292L106.417 318.116L107.872 318.068L111.491 392.245L110.036 392.292Z" fill="#FACF90"/>
<path d="M125.284 347.365H92.704V346.175H125.284V347.365Z" fill="#FACF90"/>
<path d="M126.504 372.357H93.924V371.165H126.504V372.357Z" fill="#FACF90"/>
<path d="M192.041 396.229H151.42L145.711 314.151H189.743L192.041 396.229Z" fill="#FFECBF"/>
<path d="M155.453 392.847L150.215 317.533H185.568L187.677 392.847H155.453Z" fill="#EDB17D"/>
<path d="M157.068 391.494L152.017 318.887H183.897L185.931 391.494H157.068Z" fill="#0A7E89"/>
<path d="M156.445 325.695L162.443 389.036H180.317L180.032 327.796L156.445 325.695Z" fill="#089DAC"/>
<path d="M170.709 392.292L167.091 318.116L168.544 318.068L172.163 392.245L170.709 392.292Z" fill="#FACF90"/>
<path d="M185.957 347.365H153.377V346.175H185.957V347.365Z" fill="#FACF90"/>
<path d="M187.176 372.357H154.596V371.165H187.176V372.357Z" fill="#FACF90"/>
<path d="M252.713 396.229H212.093L206.383 314.151H250.415L252.713 396.229Z" fill="#FFECBF"/>
<path d="M216.127 392.847L210.887 317.533H246.24L248.349 392.847H216.127Z" fill="#EDB17D"/>
<path d="M217.74 391.494L212.689 318.887H244.571L246.604 391.494H217.74Z" fill="#0A7E89"/>
<path d="M217.119 325.695L223.115 389.036H240.989L240.704 327.796L217.119 325.695Z" fill="#089DAC"/>
<path d="M231.381 392.292L227.763 318.116L229.216 318.068L232.835 392.245L231.381 392.292Z" fill="#FACF90"/>
<path d="M214.049 347.365H246.629V346.175H214.049V347.365Z" fill="#FACF90"/>
<path d="M215.269 372.357H247.85V371.165H215.269V372.357Z" fill="#FACF90"/>
<path d="M125.864 286.972H83.4014L77.4333 204.892H123.461L125.864 286.972Z" fill="#FFECBF"/>
<path d="M87.6187 283.588L82.1414 208.276H119.099L121.303 283.588H87.6187Z" fill="#EDB17D"/>
<path d="M89.3053 282.236L84.0253 209.63H117.352L119.477 282.236H89.3053Z" fill="#0A7E89"/>
<path d="M88.656 216.436L94.924 279.779H113.609L113.311 218.539L88.656 216.436Z" fill="#089DAC"/>
<path d="M103.565 283.033L99.7827 208.86L101.303 208.811L105.085 282.987L103.565 283.033Z" fill="#FACF90"/>
<path d="M119.504 238.108H85.4467V236.917H119.504V238.108Z" fill="#FACF90"/>
<path d="M120.779 263.1H86.7227V261.908H120.779V263.1Z" fill="#FACF90"/>
<path d="M189.289 286.972H146.827L140.857 204.892H186.887L189.289 286.972Z" fill="#FFECBF"/>
<path d="M151.043 283.588L145.565 208.276H182.523L184.727 283.588H151.043Z" fill="#EDB17D"/>
<path d="M152.729 282.236L147.449 209.63H180.777L182.903 282.236H152.729Z" fill="#0A7E89"/>
<path d="M152.08 216.436L158.348 279.779H177.033L176.735 218.539L152.08 216.436Z" fill="#089DAC"/>
<path d="M166.989 283.033L163.207 208.86L164.727 208.811L168.509 282.987L166.989 283.033Z" fill="#FACF90"/>
<path d="M182.929 238.108H148.872V236.917H182.929V238.108Z" fill="#FACF90"/>
<path d="M184.204 263.1H150.147V261.908H184.204V263.1Z" fill="#FACF90"/>
<path d="M252.713 286.972H210.251L204.281 204.893H250.311L252.713 286.972Z" fill="#FFECBF"/>
<path d="M214.467 283.588L208.991 208.276H245.947L248.152 283.588H214.467Z" fill="#EDB17D"/>
<path d="M216.155 282.236L210.873 209.63H244.201L246.327 282.236H216.155Z" fill="#0A7E89"/>
<path d="M215.504 216.436L221.773 279.779H240.457L240.16 218.539L215.504 216.436Z" fill="#089DAC"/>
<path d="M230.415 283.033L226.632 208.86L228.151 208.811L231.933 282.987L230.415 283.033Z" fill="#FACF90"/>
<path d="M212.296 238.108H246.353V236.916H212.296V238.108Z" fill="#FACF90"/>
<path d="M213.571 263.1H247.628V261.908H213.571V263.1Z" fill="#FACF90"/>
<path d="M47.7346 169.939L50.9639 178.513H263.276V168.46L47.7346 169.939Z" fill="#EDB17D"/>
<path d="M39.568 157.443L44.628 170.735H263.276V159.612L39.568 157.443Z" fill="#FFECBF"/>
<path d="M57.8186 178.514L59.8826 191.474H65.2186L65.6533 178.514H57.8186Z" fill="#FFECBF"/>
<path d="M74.6133 178.514L76.6773 191.474H82.0133L82.448 178.514H74.6133Z" fill="#FFECBF"/>
<path d="M91.408 178.514L93.472 191.474H98.808L99.2426 178.514H91.408Z" fill="#FFECBF"/>
<path d="M108.203 178.514L110.267 191.474H115.603L116.037 178.514H108.203Z" fill="#FFECBF"/>
<path d="M124.997 178.514L127.061 191.474H132.397L132.832 178.514H124.997Z" fill="#FFECBF"/>
<path d="M141.793 178.514L143.857 191.474H149.192L149.628 178.514H141.793Z" fill="#FFECBF"/>
<path d="M158.588 178.514L160.652 191.474H165.988L166.423 178.514H158.588Z" fill="#FFECBF"/>
<path d="M175.383 178.514L177.447 191.474H182.783L183.217 178.514H175.383Z" fill="#FFECBF"/>
<path d="M192.177 178.514L194.241 191.474H199.577L200.012 178.514H192.177Z" fill="#FFECBF"/>
<path d="M208.972 178.514L211.036 191.474H216.372L216.807 178.514H208.972Z" fill="#FFECBF"/>
<path d="M225.768 178.514L227.831 191.474H233.167L233.603 178.514H225.768Z" fill="#FFECBF"/>
<path d="M242.563 178.514L244.627 191.474H249.963L250.397 178.514H242.563Z" fill="#FFECBF"/>
<path d="M260.736 450.864H247.177L245.711 422.148H259.177L260.736 450.864Z" fill="#973E48"/>
<path d="M259.177 422.148H245.711L244.388 396.229H252.713L250.415 314.151H240.197L238.809 286.972H252.713L250.311 204.893H234.619L233.687 186.66H235.316L235.771 181.077L233.517 181.039L233.603 178.513H237.267H257.252L265.932 414.66H258.772L259.177 422.148ZM242.563 178.513L244.627 191.473H249.963L250.397 178.513H242.563Z" fill="#A52316"/>
<path d="M235.316 186.66H233.687L233.603 184.993L233.385 184.991L233.517 181.039L235.771 181.078L235.316 186.66Z" fill="#B3271B"/>
<path d="M252.713 396.229H244.388L244.215 392.847H248.349L247.776 372.357H247.849V371.165H247.743L246.24 317.534H240.369L240.197 314.151H250.415L252.713 396.229Z" fill="#BD6963"/>
<path d="M248.349 392.847H244.215L244.145 391.493H246.604L246.068 372.357H247.776L248.349 392.847ZM247.743 371.165H246.035L245.368 347.365H246.629V346.175H245.335L244.571 318.887H240.439L240.369 317.533H246.24L247.743 371.165Z" fill="#B04E41"/>
<path d="M246.604 391.494H244.145L243.169 372.358H246.068L246.604 391.494ZM246.035 371.166H243.108L241.893 347.366H245.368L246.035 371.166ZM245.335 346.175H241.832L240.439 318.887H244.571L245.335 346.175Z" fill="#073847"/>
<path d="M246.629 347.365H241.893L241.832 346.175H246.629V347.365Z" fill="#B95C4B"/>
<path d="M247.849 372.357H243.169L243.108 371.165H247.849V372.357Z" fill="#B95C4B"/>
<path d="M252.713 286.972H238.809L238.636 283.588H248.152L247.552 263.1H247.628V261.908H247.517L245.947 208.276H234.791L234.619 204.893H250.311L252.713 286.972Z" fill="#BD6963"/>
<path d="M248.152 283.588H238.636L238.567 282.236H246.327L245.765 263.1H247.552L248.152 283.588ZM247.517 261.908H245.731L245.035 238.108H246.353V236.916H245L244.201 209.629H234.86L234.791 208.276H245.947L247.517 261.908Z" fill="#B04E41"/>
<path d="M246.327 282.236H238.567L238.441 279.779H240.457L240.376 263.1H245.765L246.327 282.236ZM245.731 261.908H240.371L240.255 238.108H245.035L245.731 261.908ZM245 236.916H240.249L240.16 218.539L235.293 218.124L234.86 209.63H244.201L245 236.916Z" fill="#073847"/>
<path d="M240.457 279.779H238.441L237.591 263.1H240.376L240.457 279.779ZM240.371 261.908H237.529L236.315 238.108H240.255L240.371 261.908ZM240.249 236.916H236.253L235.293 218.124L240.16 218.539L240.249 236.916Z" fill="#064659"/>
<path d="M246.353 238.108H236.315L236.253 236.916H246.353V238.108Z" fill="#B95C4B"/>
<path d="M247.628 263.1H237.591L237.529 261.908H247.628V263.1Z" fill="#B95C4B"/>
<path d="M257.252 178.513H237.267L236.028 170.735H256.967L257.252 178.513Z" fill="#B04E41"/>
<path d="M256.967 170.735H242.563L240.92 159.395L256.555 159.547L256.967 170.735Z" fill="#BD6963"/>
<path d="M224.724 184.875L216.597 184.765L216.807 178.513H225.768L226.151 180.916L224.245 180.884L224.724 184.875Z" fill="#A52316"/>
<path d="M226.785 184.903L224.724 184.875L224.245 180.884L226.151 180.916L226.785 184.903Z" fill="#B3271B"/>
<path d="M209.953 184.676L199.811 184.54L200.012 178.514H208.972L209.953 184.676ZM193.123 184.45L189.669 184.404L189.823 182.526L183.087 182.412L183.217 178.514H192.177L193.123 184.45Z" fill="#A52316"/>
<path d="M189.669 184.404L183.023 184.315L183.087 182.412L189.823 182.526L189.669 184.404Z" fill="#B3271B"/>
<path d="M176.292 184.224L166.235 184.089L166.272 183.005H172.435L172.8 178.513H175.383L176.292 184.224Z" fill="#A52316"/>
<path d="M172.435 183.005H166.272L166.423 178.513H172.8L172.435 183.005Z" fill="#B3271B"/>
<path d="M159.461 183.998L149.448 183.863L149.551 180.792H155.895L156.08 178.514H158.588L159.461 183.998Z" fill="#A52316"/>
<path d="M155.895 180.792H149.551L149.628 178.513H156.08L155.895 180.792Z" fill="#B3271B"/>
<path d="M142.631 183.772L132.661 183.637L132.832 178.513H141.793L142.631 183.772ZM125.8 183.545L115.873 183.412L116.037 178.513H124.997L125.8 183.545ZM108.968 183.32L99.0853 183.187L99.2427 178.513H108.203L108.968 183.32ZM86.8453 183.023L82.2986 182.961L82.448 178.513H86.3067L86.8453 183.023Z" fill="#A52316"/>
<path d="M92.1373 183.093L86.8453 183.023L86.3066 178.513H91.408L92.1373 183.093Z" fill="#B3271B"/>
<path d="M75.3066 182.868L65.512 182.736L65.6533 178.514H74.6133L75.3066 182.868Z" fill="#A52316"/>
<path d="M65.512 182.736L58.476 182.641L57.8186 178.513H65.6533L65.512 182.736Z" fill="#BD6963"/>
<path d="M82.2987 182.961L75.3067 182.868L74.6133 178.513H82.448L82.2987 182.961Z" fill="#BD6963"/>
<path d="M99.0853 183.187L92.1373 183.093L91.408 178.513H99.2426L99.0853 183.187Z" fill="#BD6963"/>
<path d="M115.873 183.412L108.968 183.32L108.203 178.513H116.037L115.873 183.412Z" fill="#BD6963"/>
<path d="M132.661 183.637L125.8 183.545L124.997 178.513H132.832L132.661 183.637Z" fill="#BD6963"/>
<path d="M149.448 183.863L142.631 183.772L141.793 178.513H149.628L149.551 180.792L149.448 183.863Z" fill="#BD6963"/>
<path d="M166.235 184.089L159.461 183.997L158.588 178.513H166.423L166.272 183.005L166.235 184.089Z" fill="#BD6963"/>
<path d="M183.023 184.315L176.292 184.224L175.383 178.514H183.217L183.087 182.412L183.023 184.315Z" fill="#BD6963"/>
<path d="M199.811 184.54L193.123 184.449L192.177 178.513H200.012L199.811 184.54Z" fill="#BD6963"/>
<path d="M216.597 184.766L209.953 184.676L208.972 178.514H216.807L216.597 184.766Z" fill="#BD6963"/>
<path d="M233.385 184.991L226.785 184.903L226.151 180.916L225.768 178.513H233.603L233.517 181.039L233.385 184.991Z" fill="#BD6963"/>
<path d="M249.963 191.474H244.627L242.563 178.514H250.397L249.963 191.474Z" fill="#BD6963"/>
<path d="M99.884 438.744H91.8467L91.3107 434.269L100.236 434.42L99.884 438.744Z" fill="#C78483"/>
<path d="M108.752 433.759H101.129L100.623 429.517L109.085 429.659L108.752 433.759Z" fill="#C78483"/>
<path d="M111.608 447.119H103.985L103.477 442.876L111.941 443.02L111.608 447.119Z" fill="#C78483"/>
<path d="M95.0013 434.806H87.2373L86.72 430.484L95.3413 430.63L95.0013 434.806Z" fill="#C78483"/>
<path d="M82.3933 435.405H75.0773L74.5893 431.332L82.7133 431.469L82.3933 435.405Z" fill="#C78483"/>
<path d="M185.252 436.028H177.561L177.049 431.75L185.588 431.892L185.252 436.028Z" fill="#C78483"/>
<path d="M165.08 434.619H157.651L157.157 430.484L165.404 430.624L165.08 434.619Z" fill="#C78483"/>
<path d="M169.377 438.713H161.609L161.092 434.389L169.717 434.535L169.377 438.713Z" fill="#C78483"/>
<path d="M146.004 445.981H138.461L137.959 441.784L146.335 441.924L146.004 445.981Z" fill="#C78483"/>
<path d="M232.112 432.213H224.893L224.413 428.195L232.429 428.329L232.112 432.213Z" fill="#C78483"/>
<path d="M221.509 435.835H213.964L213.461 431.635L221.839 431.775L221.509 435.835Z" fill="#C78483"/>
<path d="M237.667 443.883H230.121L229.619 439.684L237.996 439.824L237.667 443.883Z" fill="#C78483"/>
<path d="M243.604 440.844H236.057L235.556 436.643L243.933 436.786L243.604 440.844Z" fill="#C78483"/>
<path d="M176.775 446.144H169.213L168.711 441.936L177.105 442.079L176.775 446.144Z" fill="#C78483"/>
<path d="M179.889 427.965H172.095L171.576 423.627L180.229 423.772L179.889 427.965Z" fill="#C78483"/>
<path d="M739.509 422.148H745.113V450.864H533.659L536.651 422.148H739.509Z" fill="#CC8D8C"/>
<path d="M542.604 422.148H739.509L754.033 164.068H542.604V422.148Z" fill="#DF4E2B"/>
<path d="M709.633 374.075H720.055L720.749 368.273L709.177 368.469L709.633 374.075Z" fill="#F15934"/>
<path d="M721.235 365.631H731.029L731.683 360.179L720.805 360.362L721.235 365.631Z" fill="#F15934"/>
<path d="M732.765 345.668H743.477L744.192 339.705L732.297 339.907L732.765 345.668Z" fill="#F15934"/>
<path d="M733.873 328.252H743.281L743.908 323.016L733.463 323.192L733.873 328.252Z" fill="#F15934"/>
<path d="M676.421 297.14H687.196L687.915 291.144L675.951 291.345L676.421 297.14Z" fill="#F15934"/>
<path d="M666.984 279.613H676.463L677.093 274.339L666.571 274.516L666.984 279.613Z" fill="#F15934"/>
<path d="M672.665 257.851H683.113L683.808 252.036L672.208 252.231L672.665 257.851Z" fill="#F15934"/>
<path d="M681.088 250.099H690.744L691.387 244.724L680.667 244.905L681.088 250.099Z" fill="#F15934"/>
<path d="M697.544 241.844H707.784L708.465 236.144L697.096 236.336L697.544 241.844Z" fill="#F15934"/>
<path d="M677.031 270.156H686.552L687.187 264.856L676.615 265.034L677.031 270.156Z" fill="#F15934"/>
<path d="M593.012 358.059H603.232L603.913 352.369L592.564 352.561L593.012 358.059Z" fill="#F15934"/>
<path d="M602.159 351.159H612.823L613.532 345.224L601.693 345.423L602.159 351.159Z" fill="#F15934"/>
<path d="M603.933 334.975H614.209L614.895 329.256L603.484 329.448L603.933 334.975Z" fill="#F15934"/>
<path d="M606.056 321.104H616.092L616.76 315.517L605.617 315.705L606.056 321.104Z" fill="#F15934"/>
<path d="M616.444 315.256H626.993L627.695 309.384L615.981 309.581L616.444 315.256Z" fill="#F15934"/>
<path d="M635.733 314.92H646.405L647.116 308.98L635.265 309.18L635.733 314.92Z" fill="#F15934"/>
<path d="M604.305 383.892H614.687L615.376 378.113L603.851 378.307L604.305 383.892Z" fill="#F15934"/>
<path d="M623.129 374.215H633.773L634.481 368.291L622.664 368.489L623.129 374.215Z" fill="#F15934"/>
<path d="M723.173 402.317H733.64L734.339 396.491L722.715 396.687L723.173 402.317Z" fill="#F15934"/>
<path d="M710.039 414.79H720.335L721.02 409.059L709.588 409.251L710.039 414.79Z" fill="#F15934"/>
<path d="M706.168 393.487H715.868L716.515 388.088L705.744 388.269L706.168 393.487Z" fill="#F15934"/>
<path d="M576.729 327.46H587.244L587.944 321.608L576.269 321.804L576.729 327.46Z" fill="#F15934"/>
<path d="M575.887 314.276H585.569L586.213 308.887L575.464 309.068L575.887 314.276Z" fill="#F15934"/>
<path d="M586.768 299.998H597.121L597.811 294.235L586.315 294.428L586.768 299.998Z" fill="#F15934"/>
<path d="M585.788 278.667H596.051L596.733 272.955L585.34 273.147L585.788 278.667Z" fill="#F15934"/>
<path d="M592.68 301.202H602.855L603.531 295.539L592.235 295.73L592.68 301.202Z" fill="#F15934"/>
<path d="M594.947 290.671H605.32L606.011 284.896L594.493 285.091L594.947 290.671Z" fill="#F15934"/>
<path d="M612.177 273.514H622.611L623.305 267.707L611.721 267.902L612.177 273.514Z" fill="#F15934"/>
<path d="M623.436 204.595H633.715L634.4 198.873L622.985 199.067L623.436 204.595Z" fill="#F15934"/>
<path d="M642.427 198.283H651.923L652.556 192.997L642.011 193.173L642.427 198.283Z" fill="#F15934"/>
<path d="M640.491 183.005H650.845L651.533 177.243L640.037 177.436L640.491 183.005Z" fill="#F15934"/>
<path d="M657.029 180.792H667.72L668.432 174.841L656.563 175.041L657.029 180.792Z" fill="#F15934"/>
<path d="M577.609 186.66H587.987L588.679 180.884L577.155 181.078L577.609 186.66Z" fill="#F15934"/>
<path d="M593.503 200.344H602.961L603.591 195.08L593.088 195.256L593.503 200.344Z" fill="#F15934"/>
<path d="M604.163 199.488H614.08L614.74 193.97L603.729 194.155L604.163 199.488Z" fill="#F15934"/>
<path d="M623.519 187.644H633.033L633.668 182.348L623.101 182.525L623.519 187.644Z" fill="#F15934"/>
<path d="M730.436 225.247H740.465L741.133 219.665L729.997 219.852L730.436 225.247Z" fill="#F15934"/>
<path d="M725.665 205.31H735.544L736.201 199.812L725.233 199.996L725.665 205.31Z" fill="#F15934"/>
<path d="M738.668 193.36H748.764L749.436 187.74L738.225 187.929L738.668 193.36Z" fill="#F15934"/>
<path d="M694.723 195.731H704.976L705.66 190.024L694.275 190.215L694.723 195.731Z" fill="#F15934"/>
<path d="M715.156 184.32H725.924L726.641 178.326L714.685 178.528L715.156 184.32Z" fill="#F15934"/>
<path d="M661.047 318.811H670.849L671.503 313.355L660.617 313.537L661.047 318.811Z" fill="#F15934"/>
<path d="M673.107 313.144H683.276L683.953 307.484L672.661 307.673L673.107 313.144Z" fill="#F15934"/>
<path d="M691.511 306.315H701.124L701.763 300.966L691.089 301.144L691.511 306.315Z" fill="#F15934"/>
<path d="M684.109 291.927H694.719L695.425 286.021L683.645 286.22L684.109 291.927Z" fill="#F15934"/>
<path d="M701.308 279.651H711.368L712.037 274.052L700.868 274.24L701.308 279.651Z" fill="#F15934"/>
<path d="M595.452 413.801H604.807L605.429 408.593L595.041 408.768L595.452 413.801Z" fill="#F15934"/>
<path d="M601.581 418.859H612.364L613.084 412.856L601.109 413.058L601.581 418.859Z" fill="#F15934"/>
<path d="M615 405.275H624.613L625.252 399.924L614.58 400.104L615 405.275Z" fill="#F15934"/>
<path d="M639.537 415.941H648.867L649.488 410.749L639.129 410.923L639.537 415.941Z" fill="#F15934"/>
<path d="M656.169 417.2H666.877L667.591 411.24L655.7 411.44L656.169 417.2Z" fill="#F15934"/>
<path d="M681.556 396.229H722.177L727.887 314.151H683.856L681.556 396.229Z" fill="#FFECBF"/>
<path d="M718.143 392.847L723.383 317.533H688.029L685.92 392.847H718.143Z" fill="#EDB17D"/>
<path d="M716.529 391.494L721.581 318.887H689.699L687.667 391.494H716.529Z" fill="#0A7E89"/>
<path d="M717.151 325.695L711.155 389.036H693.28L693.565 327.796L717.151 325.695Z" fill="#089DAC"/>
<path d="M702.888 392.292L706.507 318.116L705.053 318.068L701.435 392.245L702.888 392.292Z" fill="#FACF90"/>
<path d="M687.64 347.365H720.22V346.175H687.64V347.365Z" fill="#FACF90"/>
<path d="M686.42 372.357H719.001V371.165H686.42V372.357Z" fill="#FACF90"/>
<path d="M620.884 396.229H661.504L667.215 314.151H623.183L620.884 396.229Z" fill="#FFECBF"/>
<path d="M657.472 392.847L662.709 317.533H627.357L625.248 392.847H657.472Z" fill="#EDB17D"/>
<path d="M655.857 391.494L660.908 318.887H629.028L626.993 391.494H655.857Z" fill="#0A7E89"/>
<path d="M656.479 325.695L650.481 389.036H632.608L632.893 327.796L656.479 325.695Z" fill="#089DAC"/>
<path d="M642.216 392.292L645.835 318.116L644.38 318.068L640.761 392.245L642.216 392.292Z" fill="#FACF90"/>
<path d="M626.968 347.365H659.548V346.175H626.968V347.365Z" fill="#FACF90"/>
<path d="M625.749 372.357H658.328V371.165H625.749V372.357Z" fill="#FACF90"/>
<path d="M560.211 396.229H600.832L606.541 314.151H562.511L560.211 396.229Z" fill="#FFECBF"/>
<path d="M596.799 392.847L602.037 317.533H566.685L564.576 392.847H596.799Z" fill="#EDB17D"/>
<path d="M595.185 391.494L600.236 318.887H568.355L566.321 391.494H595.185Z" fill="#0A7E89"/>
<path d="M595.807 325.695L589.809 389.036H571.935L572.22 327.796L595.807 325.695Z" fill="#089DAC"/>
<path d="M581.543 392.292L585.161 318.116L583.708 318.068L580.089 392.245L581.543 392.292Z" fill="#FACF90"/>
<path d="M566.296 347.365H598.875V346.175H566.296V347.365Z" fill="#FACF90"/>
<path d="M565.075 372.357H597.656V371.165H565.075V372.357Z" fill="#FACF90"/>
<path d="M687.06 286.972H729.524L735.492 204.892H689.464L687.06 286.972Z" fill="#FFECBF"/>
<path d="M725.305 283.588L730.784 208.276H693.827L691.623 283.588H725.305Z" fill="#EDB17D"/>
<path d="M723.62 282.236L728.9 209.63H695.572L693.447 282.236H723.62Z" fill="#0A7E89"/>
<path d="M724.269 216.436L718.001 279.779H699.316L699.613 218.539L724.269 216.436Z" fill="#089DAC"/>
<path d="M709.36 283.033L713.141 208.86L711.623 208.811L707.84 282.987L709.36 283.033Z" fill="#FACF90"/>
<path d="M693.42 238.108H727.477V236.917H693.42V238.108Z" fill="#FACF90"/>
<path d="M692.145 263.1H726.203V261.908H692.145V263.1Z" fill="#FACF90"/>
<path d="M623.636 286.972H666.099L672.068 204.892H626.039L623.636 286.972Z" fill="#FFECBF"/>
<path d="M661.881 283.588L667.36 208.276H630.403L628.197 283.588H661.881Z" fill="#EDB17D"/>
<path d="M660.195 282.236L665.475 209.63H632.148L630.023 282.236H660.195Z" fill="#0A7E89"/>
<path d="M660.845 216.436L654.577 279.779H635.892L636.191 218.539L660.845 216.436Z" fill="#089DAC"/>
<path d="M645.935 283.033L649.717 208.86L648.197 208.811L644.416 282.987L645.935 283.033Z" fill="#FACF90"/>
<path d="M629.996 238.108H664.053V236.917H629.996V238.108Z" fill="#FACF90"/>
<path d="M628.721 263.1H662.779V261.908H628.721V263.1Z" fill="#FACF90"/>
<path d="M560.211 286.972H602.675L608.643 204.893H562.615L560.211 286.972Z" fill="#FFECBF"/>
<path d="M598.459 283.588L603.935 208.276H566.977L564.773 283.588H598.459Z" fill="#EDB17D"/>
<path d="M596.771 282.236L602.051 209.63H568.724L566.597 282.236H596.771Z" fill="#0A7E89"/>
<path d="M597.42 216.436L591.152 279.779H572.467L572.765 218.539L597.42 216.436Z" fill="#089DAC"/>
<path d="M582.511 283.033L586.293 208.86L584.773 208.811L580.991 282.987L582.511 283.033Z" fill="#FACF90"/>
<path d="M566.572 238.108H600.629V236.916H566.572V238.108Z" fill="#FACF90"/>
<path d="M565.297 263.1H599.355V261.908H565.297V263.1Z" fill="#FACF90"/>
<path d="M765.191 169.939L761.961 178.513H549.648V168.46L765.191 169.939Z" fill="#EDB17D"/>
<path d="M773.357 157.443L768.297 170.735H549.648V159.612L773.357 157.443Z" fill="#FFECBF"/>
<path d="M755.107 178.514L753.043 191.474H747.707L747.271 178.514H755.107Z" fill="#FFECBF"/>
<path d="M738.311 178.514L736.248 191.474H730.912L730.476 178.514H738.311Z" fill="#FFECBF"/>
<path d="M721.517 178.514L719.453 191.474H714.117L713.681 178.514H721.517Z" fill="#FFECBF"/>
<path d="M704.721 178.514L702.657 191.474H697.321L696.887 178.514H704.721Z" fill="#FFECBF"/>
<path d="M687.927 178.514L685.863 191.474H680.528L680.092 178.514H687.927Z" fill="#FFECBF"/>
<path d="M671.132 178.514L669.068 191.474H663.732L663.297 178.514H671.132Z" fill="#FFECBF"/>
<path d="M654.337 178.514L652.273 191.474H646.937L646.503 178.514H654.337Z" fill="#FFECBF"/>
<path d="M637.541 178.514L635.477 191.474H630.141L629.707 178.514H637.541Z" fill="#FFECBF"/>
<path d="M620.747 178.514L618.684 191.474H613.348L612.912 178.514H620.747Z" fill="#FFECBF"/>
<path d="M603.952 178.514L601.888 191.474H596.552L596.117 178.514H603.952Z" fill="#FFECBF"/>
<path d="M587.157 178.514L585.093 191.474H579.757L579.321 178.514H587.157Z" fill="#FFECBF"/>
<path d="M570.361 178.514L568.299 191.474H562.963L562.528 178.514H570.361Z" fill="#FFECBF"/>
<mask id="mask0_34_5" style="mask-type:luminance" maskUnits="userSpaceOnUse" x="554" y="422" width="14" height="29">
<path d="M565.747 450.864H554.095L555.653 422.148H567.213L565.747 450.864Z" fill="white"/>
</mask>
<g mask="url(#mask0_34_5)">
<path d="M554.095 450.864H567.213V422.148H554.095V450.864Z" fill="#973E48"/>
</g>
<path d="M567.213 422.148H555.653L556.06 414.66H548.899L557.595 178.513H575.657H579.321L579.407 181.039L577.155 181.077L577.609 186.66H579.236L578.305 204.893H562.615L560.211 286.972H574.115L572.727 314.151H562.511L560.211 396.229H568.537L567.213 422.148ZM562.528 178.513L562.963 191.473H568.299L570.361 178.513H562.528Z" fill="#A52316"/>
<path d="M579.236 186.66H577.609L577.155 181.078L579.407 181.039L579.54 184.991L579.321 184.993L579.236 186.66Z" fill="#B3271B"/>
<path d="M568.537 396.229H560.211L562.511 314.151H572.727L572.555 317.534H566.685L565.183 371.165H565.075V372.357H565.149L564.576 392.847H568.709L568.537 396.229Z" fill="#BD6963"/>
<path d="M568.709 392.847H564.576L565.149 372.357H566.857L566.321 391.493H568.779L568.709 392.847ZM566.891 371.165H565.183L566.685 317.533H572.555L572.485 318.887H568.355L567.591 346.175H566.296V347.365H567.557L566.891 371.165Z" fill="#B04E41"/>
<path d="M568.779 391.494H566.321L566.857 372.358H569.756L568.779 391.494ZM569.816 371.166H566.891L567.557 347.366H571.032L569.816 371.166ZM571.092 346.175H567.591L568.355 318.887H572.485L571.092 346.175Z" fill="#073847"/>
<path d="M571.032 347.365H566.296V346.175H571.092L571.032 347.365Z" fill="#B95C4B"/>
<path d="M569.756 372.357H565.075V371.165H569.816L569.756 372.357Z" fill="#B95C4B"/>
<path d="M574.115 286.972H560.211L562.615 204.893H578.305L578.133 208.276H566.977L565.408 261.908H565.297V263.1H565.373L564.773 283.588H574.288L574.115 286.972Z" fill="#BD6963"/>
<path d="M574.288 283.588H564.773L565.373 263.1H567.159L566.597 282.236H574.357L574.288 283.588ZM567.193 261.908H565.408L566.977 208.276H578.133L578.064 209.629H568.724L567.925 236.916H566.572V238.108H567.891L567.193 261.908Z" fill="#B04E41"/>
<path d="M574.357 282.236H566.597L567.159 263.1H572.548L572.467 279.779H574.483L574.357 282.236ZM572.555 261.908H567.193L567.891 238.108H572.671L572.555 261.908ZM572.676 236.916H567.925L568.724 209.63H578.064L577.631 218.124L572.765 218.539L572.676 236.916Z" fill="#073847"/>
<path d="M574.483 279.779H572.467L572.548 263.1H575.333L574.483 279.779ZM575.395 261.908H572.555L572.671 238.108H576.609L575.395 261.908ZM576.671 236.916H572.676L572.765 218.539L577.631 218.124L576.671 236.916Z" fill="#064659"/>
<path d="M576.609 238.108H566.572V236.916H576.671L576.609 238.108Z" fill="#B95C4B"/>
<path d="M575.333 263.1H565.297V261.908H575.395L575.333 263.1Z" fill="#B95C4B"/>
<path d="M575.657 178.513H557.595L557.881 170.735H576.896L575.657 178.513Z" fill="#B04E41"/>
<path d="M570.361 170.735H557.881L558.295 159.528L572.004 159.395L570.361 170.735Z" fill="#BD6963"/>
<path d="M588.201 184.875L588.679 180.884L586.775 180.916L587.157 178.513H596.117L596.327 184.765L588.201 184.875Z" fill="#A52316"/>
<path d="M586.14 184.903L586.775 180.916L588.679 180.884L588.201 184.875L586.14 184.903Z" fill="#B3271B"/>
<path d="M602.971 184.676L603.952 178.514H612.912L613.115 184.54L602.971 184.676ZM619.801 184.45L620.747 178.514H629.707L629.837 182.412L623.101 182.526L623.255 184.404L619.801 184.45Z" fill="#A52316"/>
<path d="M623.255 184.404L623.101 182.526L629.837 182.412L629.901 184.315L623.255 184.404Z" fill="#B3271B"/>
<path d="M636.632 184.224L637.541 178.513H640.125L640.491 183.005H646.653L646.689 184.089L636.632 184.224Z" fill="#A52316"/>
<path d="M646.653 183.005H640.491L640.125 178.513H646.503L646.653 183.005Z" fill="#B3271B"/>
<path d="M653.464 183.998L654.337 178.514H656.844L657.029 180.792H663.373L663.476 183.863L653.464 183.998Z" fill="#A52316"/>
<path d="M663.373 180.792H657.029L656.844 178.513H663.297L663.373 180.792Z" fill="#B3271B"/>
<path d="M670.295 183.772L671.132 178.513H680.092L680.264 183.637L670.295 183.772ZM687.125 183.545L687.927 178.513H696.887L697.051 183.412L687.125 183.545ZM703.956 183.32L704.721 178.513H713.681L713.839 183.187L703.956 183.32ZM726.08 183.023L726.619 178.513H730.476L730.625 182.961L726.08 183.023Z" fill="#A52316"/>
<path d="M720.788 183.093L721.517 178.513H726.619L726.08 183.023L720.788 183.093Z" fill="#B3271B"/>
<path d="M737.617 182.868L738.311 178.514H747.271L747.413 182.736L737.617 182.868Z" fill="#A52316"/>
<path d="M747.413 182.736L747.271 178.513H755.107L754.449 182.641L747.413 182.736Z" fill="#BD6963"/>
<path d="M730.625 182.961L730.476 178.513H738.311L737.617 182.868L730.625 182.961Z" fill="#BD6963"/>
<path d="M713.839 183.187L713.681 178.513H721.517L720.788 183.093L713.839 183.187Z" fill="#BD6963"/>
<path d="M697.051 183.412L696.887 178.513H704.721L703.956 183.32L697.051 183.412Z" fill="#BD6963"/>
<path d="M680.264 183.637L680.092 178.513H687.927L687.125 183.545L680.264 183.637Z" fill="#BD6963"/>
<path d="M663.476 183.863L663.373 180.792L663.297 178.513H671.132L670.295 183.772L663.476 183.863Z" fill="#BD6963"/>
<path d="M646.689 184.089L646.653 183.005L646.503 178.513H654.337L653.464 183.997L646.689 184.089Z" fill="#BD6963"/>
<path d="M629.901 184.315L629.837 182.412L629.707 178.514H637.541L636.632 184.224L629.901 184.315Z" fill="#BD6963"/>
<path d="M613.115 184.54L612.912 178.513H620.747L619.801 184.449L613.115 184.54Z" fill="#BD6963"/>
<path d="M596.327 184.766L596.117 178.514H603.952L602.971 184.676L596.327 184.766Z" fill="#BD6963"/>
<path d="M579.54 184.991L579.407 181.039L579.321 178.513H587.157L586.775 180.916L586.14 184.903L579.54 184.991Z" fill="#BD6963"/>
<path d="M568.299 191.474H562.963L562.528 178.514H570.361L568.299 191.474Z" fill="#BD6963"/>
<path d="M713.04 438.744H721.079L721.613 434.269L712.689 434.42L713.04 438.744Z" fill="#C78483"/>
<path d="M704.172 433.759H711.795L712.303 429.517L703.839 429.659L704.172 433.759Z" fill="#C78483"/>
<path d="M701.317 447.119H708.94L709.448 442.876L700.984 443.02L701.317 447.119Z" fill="#C78483"/>
<path d="M717.923 434.806H725.688L726.204 430.484L717.584 430.63L717.923 434.806Z" fill="#C78483"/>
<path d="M730.531 435.405H737.848L738.335 431.332L730.211 431.469L730.531 435.405Z" fill="#C78483"/>
<path d="M627.673 436.028H635.363L635.875 431.75L627.336 431.892L627.673 436.028Z" fill="#C78483"/>
<path d="M647.845 434.619H655.273L655.768 430.484L647.521 430.624L647.845 434.619Z" fill="#C78483"/>
<path d="M643.548 438.713H651.316L651.833 434.389L643.208 434.535L643.548 438.713Z" fill="#C78483"/>
<path d="M666.92 445.981H674.464L674.967 441.784L666.589 441.924L666.92 445.981Z" fill="#C78483"/>
<path d="M580.812 432.213H588.031L588.512 428.195L580.496 428.329L580.812 432.213Z" fill="#C78483"/>
<path d="M591.416 435.835H598.961L599.464 431.635L591.085 431.775L591.416 435.835Z" fill="#C78483"/>
<path d="M575.259 443.883H582.804L583.305 439.684L574.928 439.824L575.259 443.883Z" fill="#C78483"/>
<path d="M569.321 440.844H576.867L577.369 436.643L568.991 436.786L569.321 440.844Z" fill="#C78483"/>
<path d="M636.151 446.144H643.711L644.215 441.936L635.82 442.079L636.151 446.144Z" fill="#C78483"/>
<path d="M633.036 427.965H640.831L641.349 423.627L632.695 423.772L633.036 427.965Z" fill="#C78483"/>
<path d="M556.06 414.66L553.828 455.783H261.003L258.772 414.66H265.932H548.899H556.06Z" fill="#CE9792"/>
<path d="M498.752 121.099H316.099L407.425 45.8973L498.752 121.099Z" fill="#F15934"/>
<path d="M587.188 95.0735L583.345 113.18H500.907L407.425 34.9522L313.924 113.18H235.115H231.505L227.663 95.0735L311.363 98.4308L407.425 15.5068L503.469 98.4308L587.188 95.0735Z" fill="#FFECBF"/>
<path d="M579.736 113.18L577.717 121.099H498.752L407.425 45.8973L316.099 121.099H240.879H237.113L235.115 113.18H313.924L407.425 34.952L500.907 113.18H579.736Z" fill="#EDB17D"/>
<path d="M573.953 121.099L572.089 130.083H242.761L240.879 121.099H316.099H498.752H573.953Z" fill="#FFECBF"/>
<path d="M559.379 130.083L548.899 414.66H265.932L255.472 130.083H559.379Z" fill="#F15934"/>
<path d="M281.757 217.024H271.035L270.32 211.056L282.227 211.256L281.757 217.024Z" fill="#DF4E2B"/>
<path d="M276.617 198.139H266.041L265.336 192.251L277.081 192.448L276.617 198.139Z" fill="#DF4E2B"/>
<path d="M283.467 180.217H273.616L272.961 174.735L283.897 174.917L283.467 180.217Z" fill="#DF4E2B"/>
<path d="M288.488 162.467H278.232L277.549 156.757L288.937 156.948L288.488 162.467Z" fill="#DF4E2B"/>
<path d="M294.409 166.741H284.804L284.165 161.395L294.831 161.575L294.409 166.741Z" fill="#DF4E2B"/>
<path d="M302.116 157.616H292.577L291.943 152.307L302.535 152.486L302.116 157.616Z" fill="#DF4E2B"/>
<path d="M299.461 204.124H289.279L288.601 198.457L299.907 198.647L299.461 204.124Z" fill="#DF4E2B"/>
<path d="M540.629 286.815H530.563L529.892 281.212L541.069 281.4L540.629 286.815Z" fill="#DF4E2B"/>
<path d="M525.305 272.343H515.152L514.476 266.692L525.751 266.881L525.305 272.343Z" fill="#DF4E2B"/>
<path d="M535.531 259.354H525.868L525.225 253.975L535.955 254.155L535.531 259.354Z" fill="#DF4E2B"/>
<path d="M524.031 236.354H514.292L513.643 230.932L524.457 231.115L524.031 236.354Z" fill="#DF4E2B"/>
<path d="M518.345 315.408H507.684L506.973 309.474L518.812 309.674L518.345 315.408Z" fill="#DF4E2B"/>
<path d="M517.043 303.605H507.472L506.835 298.277L517.463 298.457L517.043 303.605Z" fill="#DF4E2B"/>
<path d="M525.136 287.643H514.916L514.235 281.953L525.583 282.145L525.136 287.643Z" fill="#DF4E2B"/>
<path d="M546.557 204.887H536.849L536.203 199.484L546.981 199.665L546.557 204.887Z" fill="#DF4E2B"/>
<path d="M333.145 355.162H323.26L322.601 349.66L333.577 349.846L333.145 355.162Z" fill="#DF4E2B"/>
<path d="M320.488 347.146H309.944L309.241 341.276L320.948 341.474L320.488 347.146Z" fill="#DF4E2B"/>
<path d="M322.995 335.031H313.464L312.831 329.727L323.411 329.905L322.995 335.031Z" fill="#DF4E2B"/>
<path d="M317.436 322.816H307.205L306.525 317.123L317.884 317.315L317.436 322.816Z" fill="#DF4E2B"/>
<path d="M322.353 302.37H312.172L311.495 296.703L322.799 296.894L322.353 302.37Z" fill="#DF4E2B"/>
<path d="M354.472 347.284H343.891L343.187 341.395L354.935 341.592L354.472 347.284Z" fill="#DF4E2B"/>
<path d="M340.211 332.307H330.645L330.008 326.983L340.629 327.163L340.211 332.307Z" fill="#DF4E2B"/>
<path d="M343.685 369.855H333.417L332.733 364.139L344.135 364.331L343.685 369.855Z" fill="#DF4E2B"/>
<path d="M338.66 340.475H328.213L327.519 334.661L339.116 334.857L338.66 340.475Z" fill="#DF4E2B"/>
<path d="M280.939 412.521H270.211L269.497 406.551L281.408 406.751L280.939 412.521Z" fill="#DF4E2B"/>
<path d="M295.968 397.616H286.647L286.027 392.428L296.376 392.603L295.968 397.616Z" fill="#DF4E2B"/>
<path d="M293.636 379.998H282.935L282.223 374.04L294.104 374.242L293.636 379.998Z" fill="#DF4E2B"/>
<path d="M290.617 401.636H279.975L279.267 395.712L291.084 395.911L290.617 401.636Z" fill="#DF4E2B"/>
<path d="M282.991 388.028H272.505L271.807 382.194L283.448 382.39L282.991 388.028Z" fill="#DF4E2B"/>
<path d="M538.183 396.229H527.776L527.084 390.437L538.639 390.633L538.183 396.229Z" fill="#DF4E2B"/>
<path d="M526.739 401.813H516.221L515.521 395.96L527.199 396.156L526.739 401.813Z" fill="#DF4E2B"/>
<path d="M550.299 376.673H543.235L542.587 371.263L550.492 371.396L550.299 376.673Z" fill="#DF4E2B"/>
<path d="M541.375 381.855H531.433L530.772 376.322L541.809 376.507L541.375 381.855Z" fill="#DF4E2B"/>
<path d="M371.588 173.229H361.741L361.085 167.75L372.019 167.933L371.588 173.229Z" fill="#DF4E2B"/>
<path d="M364.484 157.431H354.529L353.867 151.891L364.919 152.077L364.484 157.431Z" fill="#DF4E2B"/>
<path d="M390.417 160.223H379.607L378.888 154.205L390.891 154.408L390.417 160.223Z" fill="#DF4E2B"/>
<path d="M467.944 196.861H458.036L457.377 191.348L468.377 191.532L467.944 196.861Z" fill="#DF4E2B"/>
<path d="M461.796 192.075H451.777L451.111 186.5L462.233 186.687L461.796 192.075Z" fill="#DF4E2B"/>
<path d="M467.643 241.535H477.551L478.211 236.021L467.209 236.205L467.643 241.535Z" fill="#DF4E2B"/>
<path d="M473.793 236.748H483.809L484.476 231.172L473.355 231.36L473.793 236.748Z" fill="#DF4E2B"/>
<path d="M479.355 226.312H489.371L490.037 220.737L478.916 220.924L479.355 226.312Z" fill="#DF4E2B"/>
<path d="M481.932 176.273H472.133L471.48 170.819L482.361 171.001L481.932 176.273Z" fill="#DF4E2B"/>
<path d="M499.052 192.257H489.688L489.064 187.045L499.463 187.221L499.052 192.257Z" fill="#DF4E2B"/>
<path d="M487.867 181.295H477.604L476.92 175.583L488.316 175.775L487.867 181.295Z" fill="#DF4E2B"/>
<path d="M401.923 271.394H391.653L390.971 265.679L402.371 265.871L401.923 271.394Z" fill="#DF4E2B"/>
<path d="M414.128 248.357H403.615L402.916 242.505L414.587 242.703L414.128 248.357Z" fill="#DF4E2B"/>
<path d="M417.795 231.515H407.005L406.287 225.509L418.267 225.712L417.795 231.515Z" fill="#DF4E2B"/>
<path d="M425.172 299.224H415.127L414.457 293.633L425.611 293.821L425.172 299.224Z" fill="#DF4E2B"/>
<path d="M418.551 279.72H408.064L407.365 273.884L419.009 274.08L418.551 279.72Z" fill="#DF4E2B"/>
<path d="M432.8 258.179H422.121L421.411 252.235L433.267 252.435L432.8 258.179Z" fill="#DF4E2B"/>
<path d="M439.664 386.501H428.933L428.22 380.529L440.133 380.731L439.664 386.501Z" fill="#DF4E2B"/>
<path d="M437.499 367.168H426.88L426.173 361.257L437.964 361.456L437.499 367.168Z" fill="#DF4E2B"/>
<path d="M422.479 352.491H412.524L411.861 346.949L422.915 347.136L422.479 352.491Z" fill="#DF4E2B"/>
<path d="M452.873 377.068H442.125L441.409 371.084L453.345 371.285L452.873 377.068Z" fill="#DF4E2B"/>
<path d="M292.156 287.159H282.093L281.424 281.557L292.597 281.747L292.156 287.159Z" fill="#DF4E2B"/>
<path d="M300.033 263.014H289.441L288.736 257.118L300.497 257.316L300.033 263.014Z" fill="#DF4E2B"/>
<path d="M392.905 359.357H383.484L382.857 354.115L393.316 354.291L392.905 359.357Z" fill="#DF4E2B"/>
<path d="M392.293 347.542H382.639L381.997 342.168L392.716 342.35L392.293 347.542Z" fill="#DF4E2B"/>
<path d="M464.748 408.9H454.745L454.081 403.333L465.185 403.52L464.748 408.9Z" fill="#DF4E2B"/>
<path d="M467.817 389.301H457.787L457.119 383.717L468.256 383.905L467.817 389.301Z" fill="#DF4E2B"/>
<path d="M484.109 394.266H474.499L473.857 388.916L484.529 389.095L484.109 394.266Z" fill="#DF4E2B"/>
<path d="M348.029 213.637H337.805L337.124 207.945L348.477 208.137L348.029 213.637Z" fill="#DF4E2B"/>
<path d="M336.328 196.978H326.439L325.78 191.474L336.76 191.659L336.328 196.978Z" fill="#DF4E2B"/>
<path d="M496.339 341.363H486.684L486.04 335.989L496.76 336.169L496.339 341.363Z" fill="#DF4E2B"/>
<path d="M461.733 119.928H451.959L451.308 114.488L462.161 114.67L461.733 119.928Z" fill="#DF4E2B"/>
<path d="M446.235 102.521H435.479L434.763 96.5361L446.705 96.7361L446.235 102.521Z" fill="#DF4E2B"/>
<path d="M446.697 86.2349H436.475L435.795 80.5455L447.144 80.7375L446.697 86.2349Z" fill="#DF4E2B"/>
<path d="M391.109 118.75H380.505L379.799 112.849L391.575 113.047L391.109 118.75Z" fill="#DF4E2B"/>
<path d="M371.236 109.328H361.54L360.895 103.932L371.66 104.113L371.236 109.328Z" fill="#DF4E2B"/>
<path d="M364.724 101.492H355.337L354.712 96.2669L365.135 96.4428L364.724 101.492Z" fill="#DF4E2B"/>
<path d="M466.052 109.481H455.732L455.045 103.737L466.504 103.931L466.052 109.481Z" fill="#DF4E2B"/>
<path d="M260.328 141.157H255.324L254.605 130.083H261.047L260.328 141.157Z" fill="#FFECBF"/>
<mask id="mask1_34_5" style="mask-type:luminance" maskUnits="userSpaceOnUse" x="255" y="141" width="1" height="1">
<path d="M255.884 141.279L255.324 141.157H255.879L255.884 141.279Z" fill="white"/>
</mask>
<g mask="url(#mask1_34_5)">
<path d="M255.884 141.279L255.324 141.157H255.879L255.884 141.279Z" fill="url(#paint0_linear_34_5)"/>
</g>
<path d="M261.047 142.396L255.884 141.279L255.879 141.157H260.328L260.735 134.903L262.403 134.909L261.047 142.396Z" fill="#A90E06"/>
<path d="M276.961 141.157H271.957L271.239 130.083H277.68L276.961 141.157Z" fill="#FFECBF"/>
<path d="M277.68 142.396L271.957 141.157H276.961L277.363 134.977L279.023 134.984L277.68 142.396Z" fill="#A90E06"/>
<path d="M293.595 141.157H288.591L287.872 130.083H294.313L293.595 141.157Z" fill="#FFECBF"/>
<path d="M294.313 142.396L288.591 141.157H293.595L293.991 135.051L295.641 135.059L294.313 142.396Z" fill="#A90E06"/>
<path d="M310.228 141.157H305.224L304.505 130.083H310.947L310.228 141.157Z" fill="#FFECBF"/>
<path d="M310.947 142.396L305.224 141.157H310.228L310.62 135.125L312.261 135.133L310.947 142.396Z" fill="#A90E06"/>
<path d="M326.861 141.157H321.857L321.14 130.083H327.58L326.861 141.157Z" fill="#FFECBF"/>
<path d="M327.58 142.396L321.857 141.157H326.861L327.248 135.2L328.881 135.208L327.58 142.396Z" fill="#A90E06"/>
<path d="M343.496 141.157H338.491L337.772 130.083H344.213L343.496 141.157Z" fill="#FFECBF"/>
<path d="M344.213 142.396L338.491 141.157H343.496L343.877 135.275L345.501 135.281L344.213 142.396Z" fill="#A90E06"/>
<path d="M360.129 141.157H355.124L354.405 130.083H360.847L360.129 141.157Z" fill="#FFECBF"/>
<path d="M360.847 142.396L355.124 141.157H360.129L360.505 135.349L362.121 135.356L360.847 142.396Z" fill="#A90E06"/>
<path d="M376.763 141.157H371.757L371.039 130.083H377.48L376.763 141.157Z" fill="#FFECBF"/>
<path d="M377.48 142.396L371.757 141.157H376.763L377.135 135.424L378.741 135.431L377.48 142.396Z" fill="#A90E06"/>
<path d="M393.396 141.157H388.391L387.673 130.083H394.115L393.396 141.157Z" fill="#FFECBF"/>
<path d="M394.115 142.396L388.391 141.157H393.396L393.763 135.497L395.363 135.505L394.115 142.396Z" fill="#A90E06"/>
<path d="M410.028 141.157H405.024L404.307 130.083H410.748L410.028 141.157Z" fill="#FFECBF"/>
<path d="M410.748 142.396L405.024 141.157H410.028L410.391 135.572L411.981 135.58L410.748 142.396Z" fill="#A90E06"/>
<path d="M426.663 141.157H421.657L420.94 130.083H427.38L426.663 141.157Z" fill="#FFECBF"/>
<path d="M427.38 142.396L421.657 141.157H426.663L427.02 135.647L428.601 135.653L427.38 142.396Z" fill="#A90E06"/>
<path d="M443.296 141.157H438.292L437.573 130.083H444.015L443.296 141.157Z" fill="#FFECBF"/>
<path d="M444.015 142.396L438.292 141.157H443.296L443.648 135.721L445.221 135.728L444.015 142.396Z" fill="#A90E06"/>
<path d="M459.929 141.157H454.924L454.205 130.083H460.647L459.929 141.157Z" fill="#FFECBF"/>
<path d="M460.647 142.396L454.924 141.157H459.929L460.277 135.796L461.841 135.803L460.647 142.396Z" fill="#A90E06"/>
<path d="M476.563 141.157H471.559L470.84 130.083H477.281L476.563 141.157Z" fill="#FFECBF"/>
<path d="M477.281 142.396L471.559 141.157H476.563L476.905 135.871L478.461 135.877L477.281 142.396Z" fill="#A90E06"/>
<path d="M493.197 141.157H488.191L487.473 130.083H493.915L493.197 141.157Z" fill="#FFECBF"/>
<path d="M493.915 142.396L488.191 141.157H493.197L493.535 135.944L495.081 135.952L493.915 142.396Z" fill="#A90E06"/>
<path d="M509.829 141.157H504.825L504.107 130.083H510.548L509.829 141.157Z" fill="#FFECBF"/>
<path d="M510.548 142.396L504.825 141.157H509.829L510.163 136.019L511.701 136.025L510.548 142.396Z" fill="#A90E06"/>
<path d="M526.463 141.157H521.459L520.74 130.083H527.181L526.463 141.157Z" fill="#FFECBF"/>
<path d="M527.181 142.396L521.459 141.157H526.463L526.791 136.093L528.321 136.1L527.181 142.396Z" fill="#A90E06"/>
<path d="M543.096 141.157H538.091L537.373 130.083H543.815L543.096 141.157Z" fill="#FFECBF"/>
<path d="M543.815 142.396L538.091 141.157H543.096L543.42 136.168L544.941 136.175L543.815 142.396Z" fill="#A90E06"/>
<path d="M559.107 141.157H554.101L553.383 130.083H559.824L559.107 141.157Z" fill="#FFECBF"/>
<path d="M558.927 142.328L554.101 141.157H558.969L558.927 142.328Z" fill="#A90E06"/>
<path d="M553.78 136.215L544.941 136.175L546.044 130.083H553.383L553.78 136.215ZM537.767 136.143L528.321 136.1L529.412 130.083H537.373L537.767 136.143ZM521.128 136.068L511.701 136.025L512.777 130.083H520.74L521.128 136.068ZM504.491 135.993L495.081 135.952L496.144 130.083H504.107L504.491 135.993ZM487.852 135.919L478.461 135.878L479.511 130.083H487.473L487.852 135.919ZM471.213 135.844L461.841 135.803L462.877 130.083H470.84L471.213 135.844ZM454.575 135.771L445.221 135.728L446.244 130.083H454.205L454.575 135.771ZM437.937 135.696L428.601 135.653L429.611 130.083H437.573L437.937 135.696ZM421.299 135.621L411.981 135.58L412.976 130.083H420.94L421.299 135.621ZM404.66 135.547L395.363 135.506L396.344 130.083H404.307L404.66 135.547ZM388.023 135.472L378.741 135.431L379.711 130.083H387.673L388.023 135.472ZM371.384 135.397L362.121 135.356L363.077 130.083H371.039L371.384 135.397ZM354.745 135.323L345.501 135.282L346.443 130.083H354.405L354.745 135.323ZM338.108 135.25L328.881 135.208L329.809 130.083H337.772L338.108 135.25ZM321.469 135.175L312.261 135.133L313.176 130.083H321.14L321.469 135.175ZM304.831 135.1L295.641 135.059L296.543 130.083H304.505L304.831 135.1ZM288.193 135.025L279.023 134.984L279.909 130.083H287.872L288.193 135.025ZM271.555 134.951L262.403 134.91L263.276 130.083H271.239L271.555 134.951Z" fill="#B3271B"/>
<path d="M260.735 134.903L254.917 134.876L254.605 130.083H261.047L260.735 134.903Z" fill="#BD6963"/>
<path d="M262.403 134.909L260.735 134.903L261.047 130.083H263.276L262.403 134.909Z" fill="#7D0603"/>
<path d="M277.363 134.978L271.555 134.951L271.239 130.083H277.68L277.363 134.978Z" fill="#BD6963"/>
<path d="M279.023 134.984L277.363 134.977L277.68 130.083H279.909L279.023 134.984Z" fill="#7D0603"/>
<path d="M293.991 135.051L288.193 135.025L287.872 130.083H294.313L293.991 135.051Z" fill="#BD6963"/>
<path d="M295.641 135.059L293.991 135.051L294.313 130.083H296.543L295.641 135.059Z" fill="#7D0603"/>
<path d="M310.62 135.125L304.831 135.1L304.505 130.083H310.947L310.62 135.125Z" fill="#BD6963"/>
<path d="M312.261 135.133L310.62 135.125L310.947 130.083H313.176L312.261 135.133Z" fill="#7D0603"/>
<path d="M327.248 135.2L321.469 135.175L321.14 130.083H327.58L327.248 135.2Z" fill="#BD6963"/>
<path d="M328.881 135.208L327.248 135.2L327.58 130.083H329.809L328.881 135.208Z" fill="#7D0603"/>
<path d="M343.877 135.275L338.108 135.25L337.772 130.083H344.213L343.877 135.275Z" fill="#BD6963"/>
<path d="M345.501 135.281L343.877 135.275L344.213 130.083H346.443L345.501 135.281Z" fill="#7D0603"/>
<path d="M360.505 135.35L354.745 135.323L354.405 130.083H360.847L360.505 135.35Z" fill="#BD6963"/>
<path d="M362.121 135.356L360.505 135.349L360.847 130.083H363.077L362.121 135.356Z" fill="#7D0603"/>
<path d="M377.135 135.424L371.384 135.397L371.039 130.083H377.48L377.135 135.424Z" fill="#BD6963"/>
<path d="M378.741 135.431L377.135 135.424L377.48 130.083H379.711L378.741 135.431Z" fill="#7D0603"/>
<path d="M393.763 135.498L388.023 135.472L387.673 130.083H394.115L393.763 135.498Z" fill="#BD6963"/>
<path d="M395.363 135.505L393.763 135.497L394.115 130.083H396.344L395.363 135.505Z" fill="#7D0603"/>
<path d="M410.391 135.572L404.66 135.547L404.307 130.083H410.748L410.391 135.572Z" fill="#BD6963"/>
<path d="M411.981 135.58L410.391 135.572L410.748 130.083H412.976L411.981 135.58Z" fill="#7D0603"/>
<path d="M427.02 135.647L421.299 135.622L420.94 130.083H427.38L427.02 135.647Z" fill="#BD6963"/>
<path d="M428.601 135.653L427.02 135.647L427.38 130.083H429.611L428.601 135.653Z" fill="#7D0603"/>
<path d="M443.648 135.721L437.937 135.696L437.573 130.083H444.015L443.648 135.721Z" fill="#BD6963"/>
<path d="M445.221 135.728L443.648 135.721L444.015 130.083H446.244L445.221 135.728Z" fill="#7D0603"/>
<path d="M460.277 135.796L454.575 135.771L454.205 130.083H460.647L460.277 135.796Z" fill="#BD6963"/>
<path d="M461.841 135.803L460.277 135.796L460.647 130.083H462.877L461.841 135.803Z" fill="#7D0603"/>
<path d="M476.905 135.871L471.213 135.844L470.84 130.083H477.281L476.905 135.871Z" fill="#BD6963"/>
<path d="M478.461 135.877L476.905 135.871L477.281 130.083H479.511L478.461 135.877Z" fill="#7D0603"/>
<path d="M493.535 135.944L487.852 135.918L487.473 130.083H493.915L493.535 135.944Z" fill="#BD6963"/>
<path d="M495.081 135.952L493.535 135.944L493.915 130.083H496.144L495.081 135.952Z" fill="#7D0603"/>
<path d="M510.163 136.019L504.491 135.993L504.107 130.083H510.548L510.163 136.019Z" fill="#BD6963"/>
<path d="M511.701 136.025L510.163 136.019L510.548 130.083H512.777L511.701 136.025Z" fill="#7D0603"/>
<path d="M526.791 136.093L521.128 136.068L520.74 130.083H527.181L526.791 136.093Z" fill="#BD6963"/>
<path d="M528.321 136.1L526.791 136.093L527.181 130.083H529.412L528.321 136.1Z" fill="#7D0603"/>
<path d="M543.42 136.168L537.767 136.143L537.373 130.083H543.815L543.42 136.168Z" fill="#BD6963"/>
<path d="M544.941 136.175L543.42 136.168L543.815 130.083H546.044L544.941 136.175Z" fill="#7D0603"/>
<path d="M559.425 136.24L553.78 136.215L553.383 130.083H559.824L559.425 136.24Z" fill="#BD6963"/>
<path d="M578.503 118.016L500.284 116.713L407.425 39.5828L314.807 116.713L235.772 115.785L235.115 113.18H313.924L407.425 34.9521L500.907 113.18H579.736L578.503 118.016Z" fill="#D87E60"/>
<path d="M498.752 121.099H487.473L466.48 104.216L466.504 103.931L466.117 103.924L444.123 86.2346H446.697L447.144 80.7373L437.076 80.5666L405.675 55.3133L355.045 96.272L354.712 96.2666L354.741 96.5187L324.36 121.099H316.099L407.425 45.8973L498.752 121.099Z" fill="#B3271B"/>
<path d="M446.697 86.2349H444.123L437.076 80.5669L447.144 80.7375L446.697 86.2349Z" fill="#A52316"/>
<path d="M354.741 96.5186L354.712 96.2665L355.045 96.2719L354.741 96.5186Z" fill="#A52316"/>
<path d="M466.48 104.216L466.117 103.924L466.504 103.931L466.48 104.216Z" fill="#A52316"/>
<path d="M408.729 114.4C396.433 114.4 385.423 103.227 385.423 90.9306C385.423 78.6346 396.433 69.8732 408.729 69.8732C421.024 69.8732 430.94 78.3879 430.94 90.6839C430.94 102.98 421.024 114.4 408.729 114.4Z" fill="#A90E06"/>
<path d="M429.428 88.3559C429.428 76.0599 419.513 67.5453 407.216 67.5453C394.92 67.5453 383.911 76.3066 383.911 88.6026C383.911 100.899 394.92 112.073 407.216 112.073C419.513 112.073 429.428 100.652 429.428 88.3559Z" fill="#FFECBF"/>
<path d="M407.355 108.864C397.863 108.864 388.888 99.3509 388.888 89.2883C388.888 78.6549 398.277 72.3003 407.355 72.3003C417.408 72.3003 424.703 79.3336 424.703 89.0243C424.703 99.5923 416.596 108.864 407.355 108.864Z" fill="#FFDC9B"/>
<path d="M407.275 106.248C399.14 106.248 391.449 98.096 391.449 89.4734C391.449 80.36 399.496 74.9147 407.275 74.9147C415.889 74.9147 422.141 80.9427 422.141 89.2467C422.141 98.3041 415.195 106.248 407.275 106.248Z" fill="#463959"/>
<path d="M407.06 104.932C400.417 104.932 394.136 98.2735 394.136 91.2321C394.136 83.7895 400.707 79.3414 407.06 79.3414C414.096 79.3414 419.201 84.2641 419.201 91.0468C419.201 98.4428 413.528 104.932 407.06 104.932Z" fill="#67547D"/>
<path d="M395.933 90.855L398.673 90.7736V89.975L395.933 89.8937V90.855Z" fill="#FEE6AD"/>
<path d="M406.669 99.0603L406.587 101.8H407.549L407.468 99.0603H406.669Z" fill="#FEE6AD"/>
<path d="M407.468 83.2363L407.549 78.3376H406.587L406.669 83.2363H407.468Z" fill="#FEE6AD"/>
<path d="M416.463 89.975V90.7736L419.201 90.855V89.8937L416.463 89.975Z" fill="#FEE6AD"/>
<path d="M407.916 89.6265L407.919 89.6239L407.907 89.6145L407.709 89.4451L403.332 85.6852L405.7 90.2332L399.731 97.6665L403.825 94.4258L407.919 91.1852L407.889 91.1612C408.081 90.9518 408.204 90.6798 408.204 90.3745C408.204 90.0852 408.088 89.8305 407.916 89.6265Z" fill="#FEE6AD"/>
<path d="M326.236 257.117H280.068L273.579 151.339H323.623L326.236 257.117Z" fill="#FFECBF"/>
<path d="M284.652 252.757L278.697 155.699H318.879L321.276 252.757H284.652Z" fill="#EDB17D"/>
<path d="M286.487 251.014L280.747 157.443H316.98L319.291 251.014H286.487Z" fill="#0A7E89"/>
<path d="M285.78 166.216L292.596 247.847H312.911L312.587 168.924L285.78 166.216Z" fill="#089DAC"/>
<path d="M302.089 252.045L297.976 156.452L299.429 156.389L303.544 251.983L302.089 252.045Z" fill="#FACF90"/>
<path d="M319.321 194.105H282.292V192.649H319.321V194.105Z" fill="#FACF90"/>
<path d="M320.705 226.312H283.677V224.857H320.705V226.312Z" fill="#FACF90"/>
<path d="M328.869 377.068H288.249L282.539 276.803H326.571L328.869 377.068Z" fill="#FFECBF"/>
<path d="M292.283 372.935L287.043 280.935H322.396L324.505 372.935H292.283Z" fill="#EDB17D"/>
<path d="M293.896 371.281L288.845 282.588H320.727L322.759 371.281H293.896Z" fill="#0A7E89"/>
<path d="M293.275 290.904L299.271 368.28H317.145L316.86 293.472L293.275 290.904Z" fill="#089DAC"/>
<path d="M307.537 372.256L303.919 281.648L305.372 281.588L308.991 372.199L307.537 372.256Z" fill="#FACF90"/>
<path d="M322.785 317.377H290.205V315.921H322.785V317.377Z" fill="#FACF90"/>
<path d="M324.004 347.905H291.424V346.449H324.004V347.905Z" fill="#FACF90"/>
<path d="M487.672 377.068H528.292L534.003 276.803H489.969L487.672 377.068Z" fill="#FFECBF"/>
<path d="M524.259 372.935L529.497 280.935H494.144L492.035 372.935H524.259Z" fill="#EDB17D"/>
<path d="M522.644 371.281L527.695 282.588H495.815L493.781 371.281H522.644Z" fill="#0A7E89"/>
<path d="M523.267 290.904L517.269 368.28H499.396L499.681 293.472L523.267 290.904Z" fill="#089DAC"/>
<path d="M509.004 372.256L507.549 372.199L511.169 281.588L512.624 281.648L509.004 372.256Z" fill="#FACF90"/>
<path d="M493.755 317.377H526.336V315.922H493.755V317.377Z" fill="#FACF90"/>
<path d="M492.537 347.905H525.117V346.45H492.537V347.905Z" fill="#FACF90"/>
<path d="M534.636 257.117H488.468L490.861 151.339H540.907L534.636 257.117Z" fill="#FFECBF"/>
<path d="M493.417 252.757L495.615 155.699H535.796L530.041 252.757H493.417Z" fill="#EDB17D"/>
<path d="M495.399 251.014L497.516 157.443H533.751L528.203 251.014H495.399Z" fill="#0A7E89"/>
<path d="M501.813 166.216L501.773 247.847H522.088L528.393 168.924L501.813 166.216Z" fill="#089DAC"/>
<path d="M512.372 252.043L510.917 251.984L514.832 156.391L516.288 156.45L512.372 252.043Z" fill="#FACF90"/>
<path d="M533.073 194.105H496.045V192.649H533.073V194.105Z" fill="#FACF90"/>
<path d="M531.753 226.312H494.727V224.857H531.753V226.312Z" fill="#FACF90"/>
<path d="M451.696 257.117H362.896L360.689 151.339H453.905L451.696 257.117Z" fill="#FFECBF"/>
<path d="M368.333 252.757L366.307 155.699H448.287L446.26 252.757H368.333Z" fill="#EDB17D"/>
<path d="M370.507 251.014L368.555 157.443H446.04L444.085 251.014H370.507Z" fill="#0A7E89"/>
<path d="M373.859 166.216L377.621 247.847H436.972L440.472 168.924L373.859 166.216Z" fill="#089DAC"/>
<path d="M390.667 252.014H389.212V156.42H390.667V252.014Z" fill="#FACF90"/>
<path d="M425.096 252.014H423.64V156.42H425.096V252.014Z" fill="#FACF90"/>
<path d="M446.943 194.105H368.553V192.649H446.943V194.105Z" fill="#FACF90"/>
<path d="M446.943 226.312H368.553V224.857H446.943V226.312Z" fill="#FACF90"/>
<path d="M530.772 455.783H465.185V414.66H506.849L530.772 455.783Z" fill="#99434C"/>
<path d="M506.849 414.66H465.185V404.231H479.508L480.183 394.265H484.109L484.529 389.095L473.857 388.916L474.311 392.699H465.185V392.643L473.208 392.699L472.143 387.019H471.411V386.663L471.407 386.661L470.612 317.251L470.589 315.697H472.143L472.985 312.082L473.187 311.26H465.185H477.244L477.949 304.048H474.233L475.349 290.166L475.844 284.014H465.185H479.56L480.289 276.803L489.783 284.963L488.612 336.032L486.04 335.989L486.684 341.363H488.491L487.672 377.068H499.327L497.929 399.328L506.849 414.66Z" fill="#B3271B"/>
<path d="M484.109 394.266H480.183L480.289 392.699H474.311L473.857 388.916L484.529 389.095L484.109 394.266Z" fill="#A52316"/>
<path d="M488.491 341.363H486.684L486.04 335.989L488.612 336.032L488.491 341.363Z" fill="#A52316"/>
<path d="M499.327 377.068H487.672L488.491 341.363L488.612 336.032L489.783 284.963L493.969 288.561L492.643 346.449H492.537V347.905H492.609L492.035 372.935H499.585L499.327 377.068Z" fill="#BD6963"/>
<path d="M499.585 372.935H492.035L492.609 347.905H494.317L493.781 371.281H499.689L499.585 372.935ZM494.351 346.449H492.643L493.969 288.561L495.645 290.001L495.051 315.921H493.755V317.377H495.017L494.351 346.449Z" fill="#B04E41"/>
<path d="M499.689 371.281H493.781L494.317 347.905H499.473L499.396 368.28H499.877L499.689 371.281ZM499.479 346.449H494.351L495.017 317.377H499.589L499.479 346.449ZM499.596 315.921H495.051L495.645 290.001L499.681 293.472L499.596 315.921Z" fill="#073847"/>
<path d="M499.877 368.28H499.396L499.473 347.906H501.156L499.877 368.28ZM501.247 346.45H499.479L499.589 317.378H503.071L501.247 346.45ZM503.163 315.922H499.596L499.681 293.472L504.32 297.459L503.163 315.922Z" fill="#064659"/>
<path d="M503.071 317.377H493.755V315.921H503.163L503.071 317.377Z" fill="#B95C4B"/>
<path d="M501.156 347.905H492.537V346.449H501.247L501.156 347.905Z" fill="#B95C4B"/>
<path d="M325 411.196H329.531L328.329 418.876H326.311L323.949 462.397H319.621L319.971 411.196H325Z" fill="#EDB17D"/>
<path d="M319.621 462.397H296.581L295.264 418.876H320.939L319.621 462.397Z" fill="#FFECBF"/>
<path d="M324.535 418.876H291.668L291.204 411.196H325L324.535 418.876Z" fill="#FFECBF"/>
<path d="M321.111 399.328C321.111 392.774 315.796 387.459 309.241 387.459C302.687 387.459 297.372 392.774 297.372 399.328C297.372 405.883 302.687 411.196 309.241 411.196C315.796 411.196 321.111 405.883 321.111 399.328Z" fill="#FFECBF"/>
<path d="M316.617 392.804C316.933 393.77 317.147 394.782 317.147 395.852C317.147 401.312 312.72 405.739 307.26 405.739C304.311 405.739 301.695 404.422 299.883 402.375C301.173 406.335 304.852 409.215 309.241 409.215C314.701 409.215 319.128 404.788 319.128 399.328C319.128 396.815 318.163 394.548 316.617 392.804Z" fill="#EDB17D"/>
<path d="M295.264 418.876H320.939V424.451L295.396 423.22L295.264 418.876Z" fill="#EDB17D"/>
<path d="M301.907 457.452H314.491V422.148H301.104L301.907 457.452ZM315.461 458.421H300.96L300.111 421.179H315.461V458.421Z" fill="#FACF90"/>
<path d="M492.901 411.196H488.368L489.572 418.876H491.589L493.952 462.397H498.279L497.929 411.196H492.901Z" fill="#EDB17D"/>
<path d="M498.279 462.397H521.319L522.636 418.876H496.963L498.279 462.397Z" fill="#FFECBF"/>
<path d="M493.364 418.876H526.233L526.696 411.196H492.901L493.364 418.876Z" fill="#FFECBF"/>
<path d="M495.68 399.328C495.68 392.774 500.993 387.459 507.549 387.459C514.104 387.459 519.417 392.774 519.417 399.328C519.417 405.883 514.104 411.196 507.549 411.196C500.993 411.196 495.68 405.883 495.68 399.328Z" fill="#FFECBF"/>
<path d="M514.397 392.804C514.712 393.77 514.925 394.782 514.925 395.852C514.925 401.312 510.499 405.739 505.039 405.739C502.091 405.739 499.473 404.422 497.661 402.375C498.953 406.335 502.631 409.215 507.021 409.215C512.48 409.215 516.908 404.788 516.908 399.328C516.908 396.815 515.941 394.548 514.397 392.804Z" fill="#EDB17D"/>
<path d="M522.636 418.876H496.963V424.451L522.504 423.22L522.636 418.876Z" fill="#EDB17D"/>
<path d="M503.411 457.452H515.993L516.797 422.148H503.411V457.452ZM516.941 458.421H502.44V421.179H517.791L516.941 458.421Z" fill="#FACF90"/>
<path d="M479.56 284.014H335.373L334.644 276.803H480.289L479.56 284.014Z" fill="#FFECBF"/>
<path d="M477.244 311.26H337.691L336.984 304.048H477.949L477.244 311.26Z" fill="#FFECBF"/>
<path d="M474.233 304.048H340.7L339.089 284.014H475.844L474.233 304.048Z" fill="#FFECBF"/>
<path d="M469.089 299.968L345.969 299.23L344.829 288.058H470.349L469.089 299.968ZM343.756 287.088L345.092 300.195L469.963 300.944L471.428 287.088H343.756Z" fill="#EDB17D"/>
<path d="M475.349 290.166L471.108 290.119L471.428 287.088H343.756L343.921 288.712L339.463 288.663L339.089 284.014H475.844L475.349 290.166ZM470.132 290.108L344.897 288.723L344.829 288.058H470.349L470.132 290.108Z" fill="#E8A893"/>
<path d="M471.108 290.119L470.132 290.108L470.349 288.057H344.829L344.897 288.723L343.921 288.712L343.756 287.088H471.428L471.108 290.119Z" fill="#D87E60"/>
<path d="M472.143 387.019L473.208 392.699L454.111 392.565L455.264 387.019H456.285H471.411H472.143Z" fill="#FFECBF"/>
<path d="M473.187 311.26L472.985 312.082L454.467 312.28L454.221 311.26H473.187Z" fill="#EDB17D"/>
<path d="M472.985 312.081L472.143 315.697H455.264L454.467 312.28L472.985 312.081Z" fill="#FFECBF"/>
<path d="M470.612 317.251L471.411 387.019H456.285L457.084 317.007L470.612 317.251Z" fill="#FFECBF"/>
<path d="M470.589 315.698L470.612 317.251L457.084 317.007L457.107 315.698H470.589Z" fill="#EDB17D"/>
<path d="M456.285 387.019L467.627 386.201L467.413 316.807L469.467 317.007L469.927 386.132L471.411 386.663V387.019H456.285Z" fill="#EDB17D"/>
<path d="M360.568 387.019L361.633 392.699L342.536 392.565L343.691 387.019H344.711H359.836H360.568Z" fill="#FFECBF"/>
<path d="M361.612 311.26L361.412 312.082L342.891 312.28L342.647 311.26H361.612Z" fill="#EDB17D"/>
<path d="M361.412 312.081L360.568 315.697H343.691L342.891 312.28L361.412 312.081Z" fill="#FFECBF"/>
<path d="M359.037 317.251L359.836 387.019H344.711L345.509 317.007L359.037 317.251Z" fill="#FFECBF"/>
<path d="M359.015 315.698L359.037 317.251L345.509 317.007L345.532 315.698H359.015Z" fill="#EDB17D"/>
<path d="M344.711 387.019L356.052 386.201L355.839 316.807L357.892 317.007L358.353 386.132L359.836 386.663V387.019H344.711Z" fill="#EDB17D"/>
<path d="M479.508 404.231H339.871L339.089 392.699H480.289L479.508 404.231Z" fill="#E8BFAA"/>
<path d="M483.839 415.863H335.54L334.709 404.332H484.669L483.839 415.863Z" fill="#E8BFAA"/>
<path d="M488.169 427.498H331.209L330.331 415.966H489.048L488.169 427.498Z" fill="#E8BFAA"/>
<path d="M492.501 439.131H326.879L325.951 427.599H493.428L492.501 439.131Z" fill="#E8BFAA"/>
<path d="M496.832 450.764H322.547L321.572 439.232H497.807L496.832 450.764Z" fill="#E8BFAA"/>
<path d="M501.163 462.397H318.216L317.192 450.864H502.188L501.163 462.397Z" fill="#E8BFAA"/>
<path d="M339.539 399.328L479.663 401.944L479.508 404.231H339.871L339.539 399.328Z" fill="#CE9792"/>
<path d="M335.204 411.144L484.016 413.435L483.839 415.863H335.54L335.204 411.144Z" fill="#CE9792"/>
<path d="M330.868 422.962L488.368 424.926L488.169 427.498H331.209L330.868 422.962Z" fill="#CE9792"/>
<path d="M326.532 434.778L492.723 436.418L492.501 439.131H326.879L326.532 434.778Z" fill="#CE9792"/>
<path d="M322.197 446.592L497.076 447.909L496.832 450.764H322.547L322.197 446.592Z" fill="#CE9792"/>
<path d="M317.861 458.409L501.428 459.401L501.163 462.397H318.216L317.861 458.409Z" fill="#CE9792"/>
<path d="M367.173 392.804L369.304 317.251H447.023L449.153 392.699L367.173 392.804Z" fill="#FFB145"/>
<path d="M406.297 321.267V392.804H407.248L407.765 321.267H406.297Z" fill="#F09B39"/>
<path d="M374.989 322.432L371.476 391.853L442.885 391.748L440.255 322.432H374.989ZM370.455 392.823L370.481 392.312L374.067 321.463H441.188L441.207 321.929L443.895 392.719H443.389L370.455 392.823Z" fill="#F09B39"/>
<path d="M367.173 392.804L369.304 317.251H447.023L449.153 392.699H444.133L441.409 321.267H373.859L370.223 392.804H367.173Z" fill="#FFECBF"/>
<path d="M377.708 362.524H401.903V326.705H379.195L377.708 362.524ZM402.873 363.495H376.696L378.263 325.736H402.873V363.495Z" fill="#F09B39"/>
<path d="M376.633 388.429H401.903V368.765H377.448L376.633 388.429ZM402.873 389.4H375.62L376.517 367.796H402.873V389.4Z" fill="#F09B39"/>
<path d="M412.188 362.525H436.383L434.896 326.705H412.188V362.525ZM437.396 363.495H411.217V325.736H435.828L437.396 363.495Z" fill="#F09B39"/>
<path d="M412.188 388.429H437.459L436.64 368.765H412.188V388.429ZM438.471 389.4H411.217V367.796H437.575L438.471 389.4Z" fill="#F09B39"/>
<path d="M367.176 392.699H361.633L360.568 387.019H359.836V386.663L359.832 386.661L359.037 317.251L359.015 315.697H360.568L361.612 311.26H454.221L455.264 315.697H457.107L457.084 317.007L456.285 387.019H455.264L454.111 392.565H452.556L452.311 377.068H452.873L453.345 371.285L452.219 371.267L451.481 324.817L447.236 324.808L447.023 317.251H369.304L367.176 392.699Z" fill="#B3271B"/>
<path d="M452.873 377.068H452.311L452.219 371.267L453.345 371.285L452.873 377.068Z" fill="#A52316"/>
<path d="M456.285 387.019L457.084 317.007H457.092L456.285 387.019Z" fill="#BD6963"/>
<path d="M457.092 317.007H457.084L457.107 315.697L457.092 317.007Z" fill="#B04E41"/>
<path d="M359.832 386.662L359.033 317.251H359.037L359.832 386.662Z" fill="#BD6963"/>
<path d="M359.037 317.251H359.033L359.015 315.698L359.037 317.251Z" fill="#B04E41"/>
<path d="M359.836 387.019L359.832 386.661L359.836 386.663V387.019Z" fill="#B04E41"/>
<path d="M373.649 392.823L373.264 392.819H373.651L373.649 392.823ZM367.175 392.756L361.633 392.699H367.176L367.175 392.756Z" fill="#AC5558"/>
<path d="M370.457 392.79L370.224 392.788L373.859 321.267H406.297V321.463H374.067L370.481 392.312L370.457 392.79ZM371.476 391.854L374.989 322.432H406.297V324.716L377.708 324.652L373.708 391.85L371.476 391.854ZM441.543 324.795H441.316L441.207 321.93L441.188 321.463H407.764L407.765 321.267H441.409L441.543 324.795ZM440.344 324.792L407.741 324.719L407.757 322.432H440.255L440.344 324.792Z" fill="#BD4E24"/>
<path d="M407.741 324.719L406.297 324.716V322.432H407.757L407.741 324.719ZM407.764 321.463H406.297V321.267H407.765L407.764 321.463Z" fill="#B2451E"/>
<path d="M373.264 392.819L370.457 392.79L370.481 392.312L374.067 321.463H406.297H407.764H441.188L441.207 321.93L441.316 324.795L440.344 324.792L440.255 322.432H407.757H406.297H374.989L371.476 391.854L373.708 391.85L373.651 392.819H373.264Z" fill="#B2451E"/>
<path d="M370.224 392.788L367.175 392.756L369.304 317.251H447.023L447.236 324.808L441.543 324.795L441.409 321.267H407.765H406.297H373.859L370.224 392.788Z" fill="#BD6963"/>
</g>
<defs>
<linearGradient id="paint0_linear_34_5" x1="381.665" y1="422.772" x2="381.665" y2="-50.8622" gradientUnits="userSpaceOnUse">
<stop stop-color="#9F7172"/>
<stop offset="0.477671" stop-color="#397176"/>
<stop offset="1" stop-color="#006677"/>
</linearGradient>
<clipPath id="clip0_34_5">
<rect width="782" height="510" fill="white"/>
</clipPath>
</defs>
</svg>
