<svg width="16" height="28" viewBox="0 0 16 28" fill="none" xmlns="http://www.w3.org/2000/svg">
<g id="Group 8">
<path id="path522" d="M15.036 17.8322C15.036 23.2576 11.6707 27.6562 7.51867 27.6562C3.36667 27.6562 0 23.2576 0 17.8322C0 12.4069 7.51867 0.000229513 7.51867 0.000229513C7.51867 0.000229513 15.036 12.4069 15.036 17.8322Z" fill="#0091A1"/>
<path id="path522_2" d="M15.036 17.8322C15.036 23.2576 11.6707 27.6562 7.51867 27.6562C3.36667 27.6562 0 23.2576 0 17.8322C0 12.4069 7.51867 0.000229513 7.51867 0.000229513C7.51867 0.000229513 15.036 12.4069 15.036 17.8322Z" fill="#0091A1"/>
<path id="path524" d="M5.83066 17.4935C5.83066 19.3841 4.83066 20.9175 3.596 20.9175C2.36133 20.9175 1.36133 19.3841 1.36133 17.4935C1.36133 15.6015 2.36133 14.0695 3.596 14.0695C4.83066 14.0695 5.83066 15.6015 5.83066 17.4935Z" fill="white"/>
</g>
</svg>
