<svg width="147" height="227" viewBox="0 0 147 227" fill="none" xmlns="http://www.w3.org/2000/svg">
<g id="3797694_9889 2">
<ellipse id="Ellipse 1" cx="84" cy="201" rx="26" ry="11" fill="#A29D9D"/>
<g id="g8">
<g id="g10">
<path id="path498" d="M59.0283 14.6426H110.176V10.5613H59.0283V14.6426Z" fill="#706F6F"/>
<path id="path500" d="M68.3521 12.6026C68.3521 15.6853 65.8535 18.1826 62.7708 18.1826C59.6881 18.1826 57.1895 15.6853 57.1895 12.6026C57.1895 9.51994 59.6881 7.02126 62.7708 7.02126C65.8535 7.02126 68.3521 9.51994 68.3521 12.6026Z" fill="#C6C6C6"/>
<path id="path502" d="M62.6134 16.168C60.7134 16.084 59.1895 14.524 59.1895 12.6026C59.1895 10.628 60.7961 9.02129 62.7708 9.02129C63.0361 9.02129 63.2934 9.05464 63.5428 9.11064C60.9401 10.7613 60.6401 14.1053 62.6134 16.168Z" fill="#F1F1F1"/>
<path id="path504" d="M111.888 12.6026C111.888 15.6853 109.39 18.1826 106.307 18.1826C103.224 18.1826 100.726 15.6853 100.726 12.6026C100.726 9.51994 103.224 7.02126 106.307 7.02126C109.39 7.02126 111.888 9.51994 111.888 12.6026Z" fill="#C6C6C6"/>
<path id="path506" d="M81.3613 23.3584H87.8426V9.03493H81.3613V23.3584Z" fill="#706F6F"/>
<path id="path508" d="M76.2002 99.4531H93.0043V20.4786H76.2002V99.4531Z" fill="#DADADA"/>
<path id="path508_2" d="M76 165.975H92.8041V87.0001H76V165.975Z" fill="#DADADA"/>
<path id="path510" d="M74.04 63.6865H95.164V24.9193H74.04V63.6865Z" fill="#706F6F"/>
<path id="path512" d="M46.4348 38.2413C34.1255 38.2413 24.1108 48.256 24.1108 60.5653V66.8066H37.0735V60.5653C37.0735 55.404 41.2735 51.204 46.4348 51.204H91.1095V38.2413H46.4348Z" fill="#C6C6C6"/>
<path id="path514" d="M98.3468 59.9653C89.1841 59.9653 80.0201 59.9653 70.8574 59.9653C66.1894 50.0453 66.1894 38.56 70.8574 28.64C80.0201 28.64 89.1841 28.64 98.3468 28.64C103.015 38.56 103.015 50.0453 98.3468 59.9653Z" fill="#DADADA"/>
<path id="path516" d="M74.0402 57.9653H72.1522C68.4095 49.216 68.4095 39.3893 72.1522 30.64H79.3309C73.4869 35.5267 70.3202 47.36 74.0402 57.9653Z" fill="#F6F6F6"/>
<path id="path518" d="M91.5829 18.1611C92.4002 16.8785 92.8802 15.3585 92.8802 13.7238C92.8802 9.1518 89.1735 5.44515 84.6029 5.44515C80.0309 5.44515 76.3242 9.1518 76.3242 13.7238C76.3242 15.3585 76.8042 16.8785 77.6215 18.1611H91.5829Z" fill="#DADADA"/>
<path id="path520" d="M81.7069 16.1611H78.8215C78.4935 15.3918 78.3242 14.5638 78.3242 13.7238C78.3242 10.2625 81.1402 7.44648 84.6015 7.44648C84.9175 7.44648 85.2189 7.49448 85.5215 7.53848C81.5642 9.54648 80.5696 12.6931 81.7069 16.1611Z" fill="#F6F6F6"/>
<path id="path526" d="M105.863 16.168C103.963 16.084 102.44 14.524 102.44 12.6026C102.44 10.628 104.046 9.02129 106.02 9.02129C106.287 9.02129 106.543 9.05464 106.792 9.11064C104.191 10.7613 103.89 14.1053 105.863 16.168Z" fill="#F1F1F1"/>
</g>
</g>
<path id="path508_3" d="M76 200.975H92.8041V122H76V200.975Z" fill="#DADADA"/>
</g>
</svg>
