<?xml version="1.0" encoding="UTF-8"?>
<svg xmlns="http://www.w3.org/2000/svg" xmlns:xlink="http://www.w3.org/1999/xlink" viewBox="0 0 300.58 134.45">
  <defs>
    <style>
      .cls-1 {
        fill: #7e8fa4;
        opacity: .51;
      }

      .cls-2 {
        fill: #085370;
      }

      .cls-3 {
        fill: #ecedf0;
        opacity: .05;
      }

      .cls-4 {
        fill: #39627d;
        opacity: .85;
      }

      .cls-5 {
        mix-blend-mode: multiply;
        opacity: .7;
      }

      .cls-6 {
        fill: #496a85;
        opacity: .78;
      }

      .cls-7 {
        fill: #70849b;
        opacity: .59;
      }

      .cls-8 {
        fill: #8393a8;
        opacity: .49;
      }

      .cls-9 {
        fill: #cacfd8;
        opacity: .17;
      }

      .cls-10 {
        fill: #f4f4f6;
        opacity: .02;
      }

      .cls-11 {
        fill: #fff;
        opacity: 0;
      }

      .cls-12 {
        fill: #adb6c4;
        opacity: .29;
      }

      .cls-13 {
        fill: #a7b1c0;
        opacity: .32;
      }

      .cls-14 {
        fill: #929fb2;
        opacity: .41;
      }

      .cls-15 {
        fill: #8d9bae;
        opacity: .44;
      }

      .cls-16 {
        isolation: isolate;
      }

      .cls-17 {
        fill: #a2acbc;
        opacity: .34;
      }

      .cls-18 {
        fill: #6b8098;
        opacity: .61;
      }

      .cls-19 {
        fill: url(#radial-gradient-3);
      }

      .cls-19, .cls-20, .cls-21 {
        stroke: #fff;
        stroke-miterlimit: 10;
      }

      .cls-22 {
        fill: #446782;
        opacity: .8;
      }

      .cls-23 {
        fill: #155572;
        opacity: .98;
      }

      .cls-24 {
        fill: #8897ab;
        opacity: .46;
      }

      .cls-25 {
        fill: #bec5d0;
        opacity: .22;
      }

      .cls-26 {
        fill: #265a76;
        opacity: .93;
      }

      .cls-27 {
        fill: #9ca8b9;
        opacity: .37;
      }

      .cls-28 {
        fill: #1f5774;
        opacity: .95;
      }

      .cls-29 {
        fill: #5d768f;
        opacity: .68;
      }

      .cls-30 {
        fill: #d1d5dc;
        opacity: .15;
      }

      .cls-31 {
        fill: #53708a;
        opacity: .73;
      }

      .cls-20 {
        fill: url(#radial-gradient-2);
      }

      .cls-32 {
        fill: #b3bbc8;
        opacity: .27;
      }

      .cls-33 {
        fill: #c4cad4;
        opacity: .2;
      }

      .cls-34 {
        fill: #97a4b5;
        opacity: .39;
      }

      .cls-35 {
        fill: #798ba1;
        opacity: .54;
      }

      .cls-36 {
        fill: #2d5c79;
        opacity: .9;
      }

      .cls-37 {
        fill: #627992;
        opacity: .66;
      }

      .cls-38 {
        fill: #e5e6ea;
        opacity: .07;
      }

      .cls-39 {
        fill: #dee0e5;
        opacity: .1;
      }

      .cls-40 {
        fill: #667d95;
        opacity: .63;
      }

      .cls-41 {
        fill: #3f6480;
        opacity: .83;
      }

      .cls-42 {
        fill: #b9c0cc;
        opacity: .24;
      }

      .cls-43 {
        fill: #74879e;
        opacity: .56;
      }

      .cls-21 {
        fill: url(#radial-gradient);
      }

      .cls-44 {
        fill: #58738d;
        opacity: .71;
      }

      .cls-45 {
        fill: #4e6d87;
        opacity: .76;
      }

      .cls-46 {
        fill: #335f7b;
        opacity: .88;
      }

      .cls-47 {
        fill: #d7dae1;
        opacity: .12;
      }
    </style>
    <radialGradient id="radial-gradient" cx="79.51" cy="68.92" fx="79.51" fy="68.92" r="100.46" gradientTransform="translate(0 13.95) scale(1 .8)" gradientUnits="userSpaceOnUse">
      <stop offset="0" stop-color="#fff"/>
      <stop offset=".29" stop-color="#fbfdfd"/>
      <stop offset=".56" stop-color="#f0f9fa"/>
      <stop offset=".81" stop-color="#def1f4"/>
      <stop offset="1" stop-color="#cbeaee"/>
    </radialGradient>
    <radialGradient id="radial-gradient-2" cx="212.2" cy="60.05" fx="212.2" fy="60.05" r="99.19" gradientTransform="translate(0 16.06) scale(1 .73)" gradientUnits="userSpaceOnUse">
      <stop offset="0" stop-color="#fff"/>
      <stop offset=".25" stop-color="#f8fcfd"/>
      <stop offset=".6" stop-color="#e7f5f7"/>
      <stop offset=".99" stop-color="#cbeaee"/>
      <stop offset="1" stop-color="#cbeaee"/>
    </radialGradient>
    <radialGradient id="radial-gradient-3" cx="146.73" cy="89.45" fx="146.73" fy="89.45" r="83.49" gradientTransform="translate(0 21.03) scale(1 .76)" gradientUnits="userSpaceOnUse">
      <stop offset="0" stop-color="#fff"/>
      <stop offset=".28" stop-color="#fbfdfd"/>
      <stop offset=".55" stop-color="#eff8f9"/>
      <stop offset=".82" stop-color="#dcf1f3"/>
      <stop offset="1" stop-color="#cbeaee"/>
    </radialGradient>
  </defs>
  <g class="cls-16">
    <g id="Layer_1" data-name="Layer 1">
      <g>
        <g class="cls-5">
          <path class="cls-11" d="m166.95,62.81c0-10.48-8.5-18.98-18.98-18.98-3.19,0-6.19.8-8.82,2.18-.32-9.95-8.46-17.92-18.49-17.92-3.11,0-6.03.77-8.6,2.12-3.45-11.41-14.05-19.71-26.58-19.71-13.36,0-24.51,9.43-27.17,22-3.04-2.19-6.76-3.49-10.79-3.49-10.23,0-18.52,8.29-18.52,18.52,0,3.37.92,6.53,2.49,9.25-1.25-.29-2.55-.46-3.88-.46-9.46,0-17.13,7.67-17.13,17.13s7.67,17.13,17.13,17.13c2.23,0,4.36-.44,6.31-1.22,2.02,15.07,14.38,26.67,29.33,26.67,10.68,0,20.04-5.92,25.26-14.8,2.63,3.37,6.71,5.54,11.31,5.54,3.36,0,6.44-1.16,8.88-3.09,4.16,4.73,10.25,7.72,17.04,7.72,12.53,0,22.68-10.15,22.68-22.68,0-2.43-.39-4.78-1.1-6.98.21,0,.42.03.63.03,10.48,0,18.98-8.5,18.98-18.98Z"/>
          <path class="cls-10" d="m166.71,62.56c0-10.48-8.5-18.98-18.98-18.98-3.19,0-6.19.8-8.82,2.18-.32-9.95-8.46-17.92-18.49-17.92-3.11,0-6.03.77-8.6,2.12-3.45-11.41-14.05-19.71-26.58-19.71-13.36,0-24.51,9.43-27.17,22-3.04-2.19-6.76-3.49-10.79-3.49-10.23,0-18.52,8.29-18.52,18.52,0,3.37.92,6.53,2.49,9.25-1.25-.29-2.55-.46-3.88-.46-9.46,0-17.13,7.67-17.13,17.13s7.67,17.13,17.13,17.13c2.23,0,4.36-.44,6.31-1.22,2.02,15.07,14.38,26.67,29.33,26.67,10.68,0,20.04-5.92,25.26-14.8,2.63,3.37,6.71,5.54,11.31,5.54,3.36,0,6.44-1.16,8.88-3.09,4.16,4.73,10.25,7.72,17.04,7.72,12.53,0,22.68-10.15,22.68-22.68,0-2.43-.39-4.78-1.1-6.98.21,0,.42.03.63.03,10.48,0,18.98-8.5,18.98-18.98Z"/>
          <path class="cls-3" d="m166.47,62.32c0-10.48-8.5-18.98-18.98-18.98-3.19,0-6.19.8-8.82,2.18-.32-9.95-8.46-17.92-18.49-17.92-3.11,0-6.03.77-8.6,2.12-3.45-11.41-14.05-19.71-26.58-19.71-13.36,0-24.51,9.43-27.17,22-3.04-2.19-6.76-3.49-10.79-3.49-10.23,0-18.52,8.29-18.52,18.52,0,3.37.92,6.53,2.49,9.25-1.25-.29-2.55-.46-3.88-.46-9.46,0-17.13,7.67-17.13,17.13s7.67,17.13,17.13,17.13c2.23,0,4.36-.44,6.31-1.22,2.02,15.07,14.38,26.67,29.33,26.67,10.68,0,20.04-5.92,25.26-14.8,2.63,3.37,6.71,5.54,11.31,5.54,3.36,0,6.44-1.16,8.88-3.09,4.16,4.73,10.25,7.72,17.04,7.72,12.53,0,22.68-10.15,22.68-22.68,0-2.43-.39-4.78-1.1-6.98.21,0,.42.03.63.03,10.48,0,18.98-8.5,18.98-18.98Z"/>
          <path class="cls-38" d="m166.22,62.07c0-10.48-8.5-18.98-18.98-18.98-3.19,0-6.19.8-8.82,2.18-.32-9.95-8.46-17.92-18.49-17.92-3.11,0-6.03.77-8.6,2.12-3.45-11.41-14.05-19.71-26.58-19.71-13.36,0-24.51,9.43-27.17,22-3.04-2.19-6.76-3.49-10.79-3.49-10.23,0-18.52,8.29-18.52,18.52,0,3.37.92,6.53,2.49,9.25-1.25-.29-2.55-.46-3.88-.46-9.46,0-17.13,7.67-17.13,17.13s7.67,17.13,17.13,17.13c2.23,0,4.36-.44,6.31-1.22,2.02,15.07,14.38,26.67,29.33,26.67,10.68,0,20.04-5.92,25.26-14.8,2.63,3.37,6.71,5.54,11.31,5.54,3.36,0,6.44-1.16,8.88-3.09,4.16,4.73,10.25,7.72,17.04,7.72,12.53,0,22.68-10.15,22.68-22.68,0-2.43-.39-4.78-1.1-6.98.21,0,.42.03.63.03,10.48,0,18.98-8.5,18.98-18.98Z"/>
          <path class="cls-39" d="m165.98,61.83c0-10.48-8.5-18.98-18.98-18.98-3.19,0-6.19.8-8.82,2.18-.32-9.95-8.46-17.92-18.49-17.92-3.11,0-6.03.77-8.6,2.12-3.45-11.41-14.05-19.71-26.58-19.71-13.36,0-24.51,9.43-27.17,22-3.04-2.19-6.76-3.49-10.79-3.49-10.23,0-18.52,8.29-18.52,18.52,0,3.37.92,6.53,2.49,9.25-1.25-.29-2.55-.46-3.88-.46-9.46,0-17.13,7.67-17.13,17.13s7.67,17.13,17.13,17.13c2.23,0,4.36-.44,6.31-1.22,2.02,15.07,14.38,26.67,29.33,26.67,10.68,0,20.04-5.92,25.26-14.8,2.63,3.37,6.71,5.54,11.31,5.54,3.36,0,6.44-1.16,8.88-3.09,4.16,4.73,10.25,7.72,17.04,7.72,12.53,0,22.68-10.15,22.68-22.68,0-2.43-.39-4.78-1.1-6.98.21,0,.42.03.63.03,10.48,0,18.98-8.5,18.98-18.98Z"/>
          <path class="cls-47" d="m165.73,61.59c0-10.48-8.5-18.98-18.98-18.98-3.19,0-6.19.8-8.82,2.18-.32-9.95-8.46-17.92-18.49-17.92-3.11,0-6.03.77-8.6,2.12-3.45-11.41-14.05-19.71-26.58-19.71-13.36,0-24.51,9.43-27.17,22-3.04-2.19-6.76-3.49-10.79-3.49-10.23,0-18.52,8.29-18.52,18.52,0,3.37.92,6.53,2.49,9.25-1.25-.29-2.55-.46-3.88-.46-9.46,0-17.13,7.67-17.13,17.13s7.67,17.13,17.13,17.13c2.23,0,4.36-.44,6.31-1.22,2.02,15.07,14.38,26.67,29.33,26.67,10.68,0,20.04-5.92,25.26-14.8,2.63,3.37,6.71,5.54,11.31,5.54,3.36,0,6.44-1.16,8.88-3.09,4.16,4.73,10.25,7.72,17.04,7.72,12.53,0,22.68-10.15,22.68-22.68,0-2.43-.39-4.78-1.1-6.98.21,0,.42.03.63.03,10.48,0,18.98-8.5,18.98-18.98Z"/>
          <path class="cls-30" d="m165.49,61.34c0-10.48-8.5-18.98-18.98-18.98-3.19,0-6.19.8-8.82,2.18-.32-9.95-8.46-17.92-18.49-17.92-3.11,0-6.03.77-8.6,2.12-3.45-11.41-14.05-19.71-26.58-19.71-13.36,0-24.51,9.43-27.17,22-3.04-2.19-6.76-3.49-10.79-3.49-10.23,0-18.52,8.29-18.52,18.52,0,3.37.92,6.53,2.49,9.25-1.25-.29-2.55-.46-3.88-.46-9.46,0-17.13,7.67-17.13,17.13s7.67,17.13,17.13,17.13c2.23,0,4.36-.44,6.31-1.22,2.02,15.07,14.38,26.67,29.33,26.67,10.68,0,20.04-5.92,25.26-14.8,2.63,3.37,6.71,5.54,11.31,5.54,3.36,0,6.44-1.16,8.88-3.09,4.16,4.73,10.25,7.72,17.04,7.72,12.53,0,22.68-10.15,22.68-22.68,0-2.43-.39-4.78-1.1-6.98.21,0,.42.03.63.03,10.48,0,18.98-8.5,18.98-18.98Z"/>
          <path class="cls-9" d="m165.25,61.1c0-10.48-8.5-18.98-18.98-18.98-3.19,0-6.19.8-8.82,2.18-.32-9.95-8.46-17.92-18.49-17.92-3.11,0-6.03.77-8.6,2.12-3.45-11.41-14.05-19.71-26.58-19.71-13.36,0-24.51,9.43-27.17,22-3.04-2.19-6.76-3.49-10.79-3.49-10.23,0-18.52,8.29-18.52,18.52,0,3.37.92,6.53,2.49,9.25-1.25-.29-2.55-.46-3.88-.46-9.46,0-17.13,7.67-17.13,17.13s7.67,17.13,17.13,17.13c2.23,0,4.36-.44,6.31-1.22,2.02,15.07,14.38,26.67,29.33,26.67,10.68,0,20.04-5.92,25.26-14.8,2.63,3.37,6.71,5.54,11.31,5.54,3.36,0,6.44-1.16,8.88-3.09,4.16,4.73,10.25,7.72,17.04,7.72,12.53,0,22.68-10.15,22.68-22.68,0-2.43-.39-4.78-1.1-6.98.21,0,.42.03.63.03,10.48,0,18.98-8.5,18.98-18.98Z"/>
          <path class="cls-33" d="m165,60.85c0-10.48-8.5-18.98-18.98-18.98-3.19,0-6.19.8-8.82,2.18-.32-9.95-8.46-17.92-18.49-17.92-3.11,0-6.03.77-8.6,2.12-3.45-11.41-14.05-19.71-26.58-19.71-13.36,0-24.51,9.43-27.17,22-3.04-2.19-6.76-3.49-10.79-3.49-10.23,0-18.52,8.29-18.52,18.52,0,3.37.92,6.53,2.49,9.25-1.25-.29-2.55-.46-3.88-.46-9.46,0-17.13,7.67-17.13,17.13s7.67,17.13,17.13,17.13c2.23,0,4.36-.44,6.31-1.22,2.02,15.07,14.38,26.67,29.33,26.67,10.68,0,20.04-5.92,25.26-14.8,2.63,3.37,6.71,5.54,11.31,5.54,3.36,0,6.44-1.16,8.88-3.09,4.16,4.73,10.25,7.72,17.04,7.72,12.53,0,22.68-10.15,22.68-22.68,0-2.43-.39-4.78-1.1-6.98.21,0,.42.03.63.03,10.48,0,18.98-8.5,18.98-18.98Z"/>
          <path class="cls-25" d="m164.76,60.61c0-10.48-8.5-18.98-18.98-18.98-3.19,0-6.19.8-8.82,2.18-.32-9.95-8.46-17.92-18.49-17.92-3.11,0-6.03.77-8.6,2.12-3.45-11.41-14.05-19.71-26.58-19.71-13.36,0-24.51,9.43-27.17,22-3.04-2.19-6.76-3.49-10.79-3.49-10.23,0-18.52,8.29-18.52,18.52,0,3.37.92,6.53,2.49,9.25-1.25-.29-2.55-.46-3.88-.46-9.46,0-17.13,7.67-17.13,17.13s7.67,17.13,17.13,17.13c2.23,0,4.36-.44,6.31-1.22,2.02,15.07,14.38,26.67,29.33,26.67,10.68,0,20.04-5.92,25.26-14.8,2.63,3.37,6.71,5.54,11.31,5.54,3.36,0,6.44-1.16,8.88-3.09,4.16,4.73,10.25,7.72,17.04,7.72,12.53,0,22.68-10.15,22.68-22.68,0-2.43-.39-4.78-1.1-6.98.21,0,.42.03.63.03,10.48,0,18.98-8.5,18.98-18.98Z"/>
          <path class="cls-42" d="m164.51,60.37c0-10.48-8.5-18.98-18.98-18.98-3.19,0-6.19.8-8.82,2.18-.32-9.95-8.46-17.92-18.49-17.92-3.11,0-6.03.77-8.6,2.12-3.45-11.41-14.05-19.71-26.58-19.71-13.36,0-24.51,9.43-27.17,22-3.04-2.19-6.76-3.49-10.79-3.49-10.23,0-18.52,8.29-18.52,18.52,0,3.37.92,6.53,2.49,9.25-1.25-.29-2.55-.46-3.88-.46-9.46,0-17.13,7.67-17.13,17.13s7.67,17.13,17.13,17.13c2.23,0,4.36-.44,6.31-1.22,2.02,15.07,14.38,26.67,29.33,26.67,10.68,0,20.04-5.92,25.26-14.8,2.63,3.37,6.71,5.54,11.31,5.54,3.36,0,6.44-1.16,8.88-3.09,4.16,4.73,10.25,7.72,17.04,7.72,12.53,0,22.68-10.15,22.68-22.68,0-2.43-.39-4.78-1.1-6.98.21,0,.42.03.63.03,10.48,0,18.98-8.5,18.98-18.98Z"/>
          <path class="cls-32" d="m164.27,60.12c0-10.48-8.5-18.98-18.98-18.98-3.19,0-6.19.8-8.82,2.18-.32-9.95-8.46-17.92-18.49-17.92-3.11,0-6.03.77-8.6,2.12-3.45-11.41-14.05-19.71-26.58-19.71-13.36,0-24.51,9.43-27.17,22-3.04-2.19-6.76-3.49-10.79-3.49-10.23,0-18.52,8.29-18.52,18.52,0,3.37.92,6.53,2.49,9.25-1.25-.29-2.55-.46-3.88-.46-9.46,0-17.13,7.67-17.13,17.13s7.67,17.13,17.13,17.13c2.23,0,4.36-.44,6.31-1.22,2.02,15.07,14.38,26.67,29.33,26.67,10.68,0,20.04-5.92,25.26-14.8,2.63,3.37,6.71,5.54,11.31,5.54,3.36,0,6.44-1.16,8.88-3.09,4.16,4.73,10.25,7.72,17.04,7.72,12.53,0,22.68-10.15,22.68-22.68,0-2.43-.39-4.78-1.1-6.98.21,0,.42.03.63.03,10.48,0,18.98-8.5,18.98-18.98Z"/>
          <path class="cls-12" d="m164.03,59.88c0-10.48-8.5-18.98-18.98-18.98-3.19,0-6.19.8-8.82,2.18-.32-9.95-8.46-17.92-18.49-17.92-3.11,0-6.03.77-8.6,2.12-3.45-11.41-14.05-19.71-26.58-19.71-13.36,0-24.51,9.43-27.17,22-3.04-2.19-6.76-3.49-10.79-3.49-10.23,0-18.52,8.29-18.52,18.52,0,3.37.92,6.53,2.49,9.25-1.25-.29-2.55-.46-3.88-.46-9.46,0-17.13,7.67-17.13,17.13s7.67,17.13,17.13,17.13c2.23,0,4.36-.44,6.31-1.22,2.02,15.07,14.38,26.67,29.33,26.67,10.68,0,20.04-5.92,25.26-14.8,2.63,3.37,6.71,5.54,11.31,5.54,3.36,0,6.44-1.16,8.88-3.09,4.16,4.73,10.25,7.72,17.04,7.72,12.53,0,22.68-10.15,22.68-22.68,0-2.43-.39-4.78-1.1-6.98.21,0,.42.03.63.03,10.48,0,18.98-8.5,18.98-18.98Z"/>
          <path class="cls-13" d="m163.78,59.63c0-10.48-8.5-18.98-18.98-18.98-3.19,0-6.19.8-8.82,2.18-.32-9.95-8.46-17.92-18.49-17.92-3.11,0-6.03.77-8.6,2.13-3.45-11.41-14.05-19.71-26.58-19.71-13.36,0-24.51,9.43-27.17,22-3.04-2.19-6.76-3.49-10.79-3.49-10.23,0-18.52,8.29-18.52,18.52,0,3.37.92,6.53,2.49,9.25-1.25-.29-2.55-.46-3.88-.46-9.46,0-17.13,7.67-17.13,17.13s7.67,17.13,17.13,17.13c2.23,0,4.36-.44,6.31-1.22,2.02,15.07,14.38,26.67,29.33,26.67,10.68,0,20.04-5.92,25.26-14.8,2.63,3.37,6.71,5.54,11.31,5.54,3.36,0,6.44-1.16,8.88-3.09,4.16,4.73,10.25,7.72,17.04,7.72,12.53,0,22.68-10.15,22.68-22.68,0-2.43-.39-4.78-1.1-6.98.21,0,.42.03.63.03,10.48,0,18.98-8.5,18.98-18.98Z"/>
          <path class="cls-17" d="m163.54,59.39c0-10.48-8.5-18.98-18.98-18.98-3.19,0-6.19.8-8.82,2.18-.32-9.95-8.46-17.92-18.49-17.92-3.11,0-6.03.77-8.6,2.12-3.45-11.41-14.05-19.71-26.58-19.71-13.36,0-24.51,9.43-27.17,22-3.04-2.19-6.76-3.49-10.79-3.49-10.23,0-18.52,8.29-18.52,18.52,0,3.37.92,6.53,2.49,9.25-1.25-.29-2.55-.46-3.88-.46-9.46,0-17.13,7.67-17.13,17.13s7.67,17.13,17.13,17.13c2.23,0,4.36-.44,6.31-1.22,2.02,15.07,14.38,26.67,29.33,26.67,10.68,0,20.04-5.92,25.26-14.8,2.63,3.37,6.71,5.54,11.31,5.54,3.36,0,6.44-1.16,8.88-3.09,4.16,4.73,10.25,7.72,17.04,7.72,12.53,0,22.68-10.15,22.68-22.68,0-2.43-.39-4.78-1.1-6.98.21,0,.42.03.63.03,10.48,0,18.98-8.5,18.98-18.98Z"/>
          <path class="cls-27" d="m163.3,59.15c0-10.48-8.5-18.98-18.98-18.98-3.19,0-6.19.8-8.82,2.18-.32-9.95-8.46-17.92-18.49-17.92-3.11,0-6.03.77-8.6,2.12-3.45-11.41-14.05-19.71-26.58-19.71-13.36,0-24.51,9.43-27.17,22-3.04-2.19-6.76-3.49-10.79-3.49-10.23,0-18.52,8.29-18.52,18.52,0,3.37.92,6.53,2.49,9.25-1.25-.29-2.55-.46-3.88-.46-9.46,0-17.13,7.67-17.13,17.13s7.67,17.13,17.13,17.13c2.23,0,4.36-.44,6.31-1.22,2.02,15.07,14.38,26.67,29.33,26.67,10.68,0,20.04-5.92,25.26-14.8,2.63,3.37,6.71,5.54,11.31,5.54,3.36,0,6.44-1.16,8.88-3.09,4.16,4.73,10.25,7.72,17.04,7.72,12.53,0,22.68-10.15,22.68-22.68,0-2.43-.39-4.78-1.1-6.98.21,0,.42.03.63.03,10.48,0,18.98-8.5,18.98-18.98Z"/>
          <path class="cls-34" d="m163.05,58.9c0-10.48-8.5-18.98-18.98-18.98-3.19,0-6.19.8-8.82,2.18-.32-9.95-8.46-17.92-18.49-17.92-3.11,0-6.03.77-8.6,2.12-3.45-11.41-14.05-19.71-26.58-19.71-13.36,0-24.51,9.43-27.17,22-3.04-2.19-6.76-3.49-10.79-3.49-10.23,0-18.52,8.29-18.52,18.52,0,3.37.92,6.53,2.49,9.25-1.25-.29-2.55-.46-3.88-.46-9.46,0-17.13,7.67-17.13,17.13s7.67,17.13,17.13,17.13c2.23,0,4.36-.44,6.31-1.22,2.02,15.07,14.38,26.67,29.33,26.67,10.68,0,20.04-5.92,25.26-14.8,2.63,3.37,6.71,5.54,11.31,5.54,3.36,0,6.44-1.16,8.88-3.09,4.16,4.73,10.25,7.72,17.04,7.72,12.53,0,22.68-10.15,22.68-22.68,0-2.43-.39-4.78-1.1-6.98.21,0,.42.03.63.03,10.48,0,18.98-8.5,18.98-18.98Z"/>
          <path class="cls-14" d="m162.81,58.66c0-10.48-8.5-18.98-18.98-18.98-3.19,0-6.19.8-8.82,2.18-.32-9.95-8.46-17.92-18.49-17.92-3.11,0-6.03.77-8.6,2.12-3.45-11.41-14.05-19.71-26.58-19.71-13.36,0-24.51,9.43-27.17,22-3.04-2.19-6.76-3.49-10.79-3.49-10.23,0-18.52,8.29-18.52,18.52,0,3.37.92,6.53,2.49,9.25-1.25-.29-2.55-.46-3.88-.46-9.46,0-17.13,7.67-17.13,17.13s7.67,17.13,17.13,17.13c2.23,0,4.36-.44,6.31-1.22,2.02,15.07,14.38,26.67,29.33,26.67,10.68,0,20.04-5.92,25.26-14.8,2.63,3.37,6.71,5.54,11.31,5.54,3.36,0,6.44-1.16,8.88-3.09,4.16,4.73,10.25,7.72,17.04,7.72,12.53,0,22.68-10.15,22.68-22.68,0-2.43-.39-4.78-1.1-6.98.21,0,.42.03.63.03,10.48,0,18.98-8.5,18.98-18.98Z"/>
          <path class="cls-15" d="m162.56,58.42c0-10.48-8.5-18.98-18.98-18.98-3.19,0-6.19.8-8.82,2.18-.32-9.95-8.46-17.92-18.49-17.92-3.11,0-6.03.77-8.6,2.13-3.45-11.41-14.05-19.71-26.58-19.71-13.36,0-24.51,9.43-27.17,22-3.04-2.19-6.76-3.49-10.79-3.49-10.23,0-18.52,8.29-18.52,18.52,0,3.37.92,6.53,2.49,9.25-1.25-.29-2.55-.46-3.88-.46-9.46,0-17.13,7.67-17.13,17.13s7.67,17.13,17.13,17.13c2.23,0,4.36-.44,6.31-1.22,2.02,15.07,14.38,26.67,29.33,26.67,10.68,0,20.04-5.92,25.26-14.8,2.63,3.37,6.71,5.54,11.31,5.54,3.36,0,6.44-1.16,8.88-3.09,4.16,4.73,10.25,7.72,17.04,7.72,12.53,0,22.68-10.15,22.68-22.68,0-2.43-.39-4.78-1.1-6.98.21,0,.42.03.63.03,10.48,0,18.98-8.5,18.98-18.98Z"/>
          <path class="cls-24" d="m162.32,58.17c0-10.48-8.5-18.98-18.98-18.98-3.19,0-6.19.8-8.82,2.18-.32-9.95-8.46-17.92-18.49-17.92-3.11,0-6.03.77-8.6,2.12-3.45-11.41-14.05-19.71-26.58-19.71-13.36,0-24.51,9.43-27.17,22-3.04-2.19-6.76-3.49-10.79-3.49-10.23,0-18.52,8.29-18.52,18.52,0,3.37.92,6.53,2.49,9.25-1.25-.29-2.55-.46-3.88-.46-9.46,0-17.13,7.67-17.13,17.13s7.67,17.13,17.13,17.13c2.23,0,4.36-.44,6.31-1.22,2.02,15.07,14.38,26.67,29.33,26.67,10.68,0,20.04-5.92,25.26-14.8,2.63,3.37,6.71,5.54,11.31,5.54,3.36,0,6.44-1.16,8.88-3.09,4.16,4.73,10.25,7.72,17.04,7.72,12.53,0,22.68-10.15,22.68-22.68,0-2.43-.39-4.78-1.1-6.98.21,0,.42.03.63.03,10.48,0,18.98-8.5,18.98-18.98Z"/>
          <path class="cls-8" d="m162.08,57.93c0-10.48-8.5-18.98-18.98-18.98-3.19,0-6.19.8-8.82,2.18-.32-9.95-8.46-17.92-18.49-17.92-3.11,0-6.03.77-8.6,2.12-3.45-11.41-14.05-19.71-26.58-19.71-13.36,0-24.51,9.43-27.17,22-3.04-2.19-6.76-3.49-10.79-3.49-10.23,0-18.52,8.29-18.52,18.52,0,3.37.92,6.53,2.49,9.25-1.25-.29-2.55-.46-3.88-.46-9.46,0-17.13,7.67-17.13,17.13s7.67,17.13,17.13,17.13c2.23,0,4.36-.44,6.31-1.22,2.02,15.07,14.38,26.67,29.33,26.67,10.68,0,20.04-5.92,25.26-14.8,2.63,3.37,6.71,5.54,11.31,5.54,3.36,0,6.44-1.16,8.88-3.09,4.16,4.73,10.25,7.72,17.04,7.72,12.53,0,22.68-10.15,22.68-22.68,0-2.43-.39-4.78-1.1-6.98.21,0,.42.03.63.03,10.48,0,18.98-8.5,18.98-18.98Z"/>
          <path class="cls-1" d="m161.83,57.68c0-10.48-8.5-18.98-18.98-18.98-3.19,0-6.19.8-8.82,2.18-.32-9.95-8.46-17.92-18.49-17.92-3.11,0-6.03.77-8.6,2.12-3.45-11.41-14.05-19.71-26.58-19.71-13.36,0-24.51,9.43-27.17,22-3.04-2.19-6.76-3.49-10.79-3.49-10.23,0-18.52,8.29-18.52,18.52,0,3.37.92,6.53,2.49,9.25-1.25-.29-2.55-.46-3.88-.46-9.46,0-17.13,7.67-17.13,17.13s7.67,17.13,17.13,17.13c2.23,0,4.36-.44,6.31-1.22,2.02,15.07,14.38,26.67,29.33,26.67,10.68,0,20.04-5.92,25.26-14.8,2.63,3.37,6.71,5.54,11.31,5.54,3.36,0,6.44-1.16,8.88-3.09,4.16,4.73,10.25,7.72,17.04,7.72,12.53,0,22.68-10.15,22.68-22.68,0-2.43-.39-4.78-1.1-6.98.21,0,.42.03.63.03,10.48,0,18.98-8.5,18.98-18.98Z"/>
          <path class="cls-35" d="m161.59,57.44c0-10.48-8.5-18.98-18.98-18.98-3.19,0-6.19.8-8.82,2.18-.32-9.95-8.46-17.92-18.49-17.92-3.11,0-6.03.77-8.6,2.12-3.45-11.41-14.05-19.71-26.58-19.71-13.36,0-24.51,9.43-27.17,22-3.04-2.19-6.76-3.49-10.79-3.49-10.23,0-18.52,8.29-18.52,18.52,0,3.37.92,6.53,2.49,9.25-1.25-.29-2.55-.46-3.88-.46-9.46,0-17.13,7.67-17.13,17.13s7.67,17.13,17.13,17.13c2.23,0,4.36-.44,6.31-1.22,2.02,15.07,14.38,26.67,29.33,26.67,10.68,0,20.04-5.92,25.26-14.8,2.63,3.37,6.71,5.54,11.31,5.54,3.36,0,6.44-1.16,8.88-3.09,4.16,4.73,10.25,7.72,17.04,7.72,12.53,0,22.68-10.15,22.68-22.68,0-2.43-.39-4.78-1.1-6.98.21,0,.42.03.63.03,10.48,0,18.98-8.5,18.98-18.98Z"/>
          <path class="cls-43" d="m161.34,57.2c0-10.48-8.5-18.98-18.98-18.98-3.19,0-6.19.8-8.82,2.18-.32-9.95-8.46-17.92-18.49-17.92-3.11,0-6.03.77-8.6,2.12-3.45-11.41-14.05-19.71-26.58-19.71-13.36,0-24.51,9.43-27.17,22-3.04-2.19-6.76-3.49-10.79-3.49-10.23,0-18.52,8.29-18.52,18.52,0,3.37.92,6.53,2.49,9.25-1.25-.29-2.55-.46-3.88-.46-9.46,0-17.13,7.67-17.13,17.13s7.67,17.13,17.13,17.13c2.23,0,4.36-.44,6.31-1.22,2.02,15.07,14.38,26.67,29.33,26.67,10.68,0,20.04-5.92,25.26-14.8,2.63,3.37,6.71,5.54,11.31,5.54,3.36,0,6.44-1.16,8.88-3.09,4.16,4.73,10.25,7.72,17.04,7.72,12.53,0,22.68-10.15,22.68-22.68,0-2.43-.39-4.78-1.1-6.98.21,0,.42.03.63.03,10.48,0,18.98-8.5,18.98-18.98Z"/>
          <path class="cls-7" d="m161.1,56.95c0-10.48-8.5-18.98-18.98-18.98-3.19,0-6.19.8-8.82,2.18-.32-9.95-8.46-17.92-18.49-17.92-3.11,0-6.03.77-8.6,2.12-3.45-11.41-14.05-19.71-26.58-19.71-13.36,0-24.51,9.43-27.17,22-3.04-2.19-6.76-3.49-10.79-3.49-10.23,0-18.52,8.29-18.52,18.52,0,3.37.92,6.53,2.49,9.25-1.25-.29-2.55-.46-3.88-.46-9.46,0-17.13,7.67-17.13,17.13s7.67,17.13,17.13,17.13c2.23,0,4.36-.44,6.31-1.22,2.02,15.07,14.38,26.67,29.33,26.67,10.68,0,20.04-5.92,25.26-14.8,2.63,3.37,6.71,5.54,11.31,5.54,3.36,0,6.44-1.16,8.88-3.09,4.16,4.73,10.25,7.72,17.04,7.72,12.53,0,22.68-10.15,22.68-22.68,0-2.43-.39-4.78-1.1-6.98.21,0,.42.03.63.03,10.48,0,18.98-8.5,18.98-18.98Z"/>
          <path class="cls-18" d="m160.86,56.71c0-10.48-8.5-18.98-18.98-18.98-3.19,0-6.19.8-8.82,2.18-.32-9.95-8.46-17.92-18.49-17.92-3.11,0-6.03.77-8.6,2.12-3.45-11.41-14.05-19.71-26.58-19.71-13.36,0-24.51,9.43-27.17,22-3.04-2.19-6.76-3.49-10.79-3.49-10.23,0-18.52,8.29-18.52,18.52,0,3.37.92,6.53,2.49,9.25-1.25-.29-2.55-.46-3.88-.46-9.46,0-17.13,7.67-17.13,17.13s7.67,17.13,17.13,17.13c2.23,0,4.36-.44,6.31-1.22,2.02,15.07,14.38,26.67,29.33,26.67,10.68,0,20.04-5.92,25.26-14.8,2.63,3.37,6.71,5.54,11.31,5.54,3.36,0,6.44-1.16,8.88-3.09,4.16,4.73,10.25,7.72,17.04,7.72,12.53,0,22.68-10.15,22.68-22.68,0-2.43-.39-4.78-1.1-6.98.21,0,.42.03.63.03,10.48,0,18.98-8.5,18.98-18.98Z"/>
          <path class="cls-40" d="m160.61,56.46c0-10.48-8.5-18.98-18.98-18.98-3.19,0-6.19.8-8.82,2.18-.32-9.95-8.46-17.92-18.49-17.92-3.11,0-6.03.77-8.6,2.12-3.45-11.41-14.05-19.71-26.58-19.71-13.36,0-24.51,9.43-27.17,22-3.04-2.19-6.76-3.49-10.79-3.49-10.23,0-18.52,8.29-18.52,18.52,0,3.37.92,6.53,2.49,9.25-1.25-.29-2.55-.46-3.88-.46-9.46,0-17.13,7.67-17.13,17.13s7.67,17.13,17.13,17.13c2.23,0,4.36-.44,6.31-1.22,2.02,15.07,14.38,26.67,29.33,26.67,10.68,0,20.04-5.92,25.26-14.8,2.63,3.37,6.71,5.54,11.31,5.54,3.36,0,6.44-1.16,8.88-3.09,4.16,4.73,10.25,7.72,17.04,7.72,12.53,0,22.68-10.15,22.68-22.68,0-2.43-.39-4.78-1.1-6.98.21,0,.42.03.63.03,10.48,0,18.98-8.5,18.98-18.98Z"/>
          <path class="cls-37" d="m160.37,56.22c0-10.48-8.5-18.98-18.98-18.98-3.19,0-6.19.8-8.82,2.18-.32-9.95-8.46-17.92-18.49-17.92-3.11,0-6.03.77-8.6,2.12-3.45-11.41-14.05-19.71-26.58-19.71-13.36,0-24.51,9.43-27.17,22-3.04-2.19-6.76-3.49-10.79-3.49-10.23,0-18.52,8.29-18.52,18.52,0,3.37.92,6.53,2.49,9.25-1.25-.29-2.55-.46-3.88-.46-9.46,0-17.13,7.67-17.13,17.13s7.67,17.13,17.13,17.13c2.23,0,4.36-.44,6.31-1.22,2.02,15.07,14.38,26.67,29.33,26.67,10.68,0,20.04-5.92,25.26-14.8,2.63,3.37,6.71,5.54,11.31,5.54,3.36,0,6.44-1.16,8.88-3.09,4.16,4.73,10.25,7.72,17.04,7.72,12.53,0,22.68-10.15,22.68-22.68,0-2.43-.39-4.78-1.1-6.98.21,0,.42.03.63.03,10.48,0,18.98-8.5,18.98-18.98Z"/>
          <path class="cls-29" d="m160.12,55.98c0-10.48-8.5-18.98-18.98-18.98-3.19,0-6.19.8-8.82,2.18-.32-9.95-8.46-17.92-18.49-17.92-3.11,0-6.03.77-8.6,2.13-3.45-11.41-14.05-19.71-26.58-19.71-13.36,0-24.51,9.43-27.17,22-3.04-2.19-6.76-3.49-10.79-3.49-10.23,0-18.52,8.29-18.52,18.52,0,3.37.92,6.53,2.49,9.25-1.25-.29-2.55-.46-3.88-.46-9.46,0-17.13,7.67-17.13,17.13s7.67,17.13,17.13,17.13c2.23,0,4.36-.44,6.31-1.22,2.02,15.07,14.38,26.67,29.33,26.67,10.68,0,20.04-5.92,25.26-14.8,2.63,3.37,6.71,5.54,11.31,5.54,3.36,0,6.44-1.16,8.88-3.09,4.16,4.73,10.25,7.72,17.04,7.72,12.53,0,22.68-10.15,22.68-22.68,0-2.43-.39-4.78-1.1-6.98.21,0,.42.03.63.03,10.48,0,18.98-8.5,18.98-18.98Z"/>
          <path class="cls-44" d="m159.88,55.73c0-10.48-8.5-18.98-18.98-18.98-3.19,0-6.19.8-8.82,2.18-.32-9.95-8.46-17.92-18.49-17.92-3.11,0-6.03.77-8.6,2.12-3.45-11.41-14.05-19.71-26.58-19.71-13.36,0-24.51,9.43-27.17,22-3.04-2.19-6.76-3.49-10.79-3.49-10.23,0-18.52,8.29-18.52,18.52,0,3.37.92,6.53,2.49,9.25-1.25-.29-2.55-.46-3.88-.46-9.46,0-17.13,7.67-17.13,17.13s7.67,17.13,17.13,17.13c2.23,0,4.36-.44,6.31-1.22,2.02,15.07,14.38,26.67,29.33,26.67,10.68,0,20.04-5.92,25.26-14.8,2.63,3.37,6.71,5.54,11.31,5.54,3.36,0,6.44-1.16,8.88-3.09,4.16,4.73,10.25,7.72,17.04,7.72,12.53,0,22.68-10.15,22.68-22.68,0-2.43-.39-4.78-1.1-6.98.21,0,.42.03.63.03,10.48,0,18.98-8.5,18.98-18.98Z"/>
          <path class="cls-31" d="m159.64,55.49c0-10.48-8.5-18.98-18.98-18.98-3.19,0-6.19.8-8.82,2.18-.32-9.95-8.46-17.92-18.49-17.92-3.11,0-6.03.77-8.6,2.12-3.45-11.41-14.05-19.71-26.58-19.71-13.36,0-24.51,9.43-27.17,22-3.04-2.19-6.76-3.49-10.79-3.49-10.23,0-18.52,8.29-18.52,18.52,0,3.37.92,6.53,2.49,9.25-1.25-.29-2.55-.46-3.88-.46-9.46,0-17.13,7.67-17.13,17.13s7.67,17.13,17.13,17.13c2.23,0,4.36-.44,6.31-1.22,2.02,15.07,14.38,26.67,29.33,26.67,10.68,0,20.04-5.92,25.26-14.8,2.63,3.37,6.71,5.54,11.31,5.54,3.36,0,6.44-1.16,8.88-3.09,4.16,4.73,10.25,7.72,17.04,7.72,12.53,0,22.68-10.15,22.68-22.68,0-2.43-.39-4.78-1.1-6.98.21,0,.42.03.63.03,10.48,0,18.98-8.5,18.98-18.98Z"/>
          <path class="cls-45" d="m159.39,55.24c0-10.48-8.5-18.98-18.98-18.98-3.19,0-6.19.8-8.82,2.18-.32-9.95-8.46-17.92-18.49-17.92-3.11,0-6.03.77-8.6,2.12-3.45-11.41-14.05-19.71-26.58-19.71-13.36,0-24.51,9.43-27.17,22-3.04-2.19-6.76-3.49-10.79-3.49-10.23,0-18.52,8.29-18.52,18.52,0,3.37.92,6.53,2.49,9.25-1.25-.29-2.55-.46-3.88-.46-9.46,0-17.13,7.67-17.13,17.13s7.67,17.13,17.13,17.13c2.23,0,4.36-.44,6.31-1.22,2.02,15.07,14.38,26.67,29.33,26.67,10.68,0,20.04-5.92,25.26-14.8,2.63,3.37,6.71,5.54,11.31,5.54,3.36,0,6.44-1.16,8.88-3.09,4.16,4.73,10.25,7.72,17.04,7.72,12.53,0,22.68-10.15,22.68-22.68,0-2.43-.39-4.78-1.1-6.98.21,0,.42.03.63.03,10.48,0,18.98-8.5,18.98-18.98Z"/>
          <path class="cls-6" d="m159.15,55c0-10.48-8.5-18.98-18.98-18.98-3.19,0-6.19.8-8.82,2.18-.32-9.95-8.46-17.92-18.49-17.92-3.11,0-6.03.77-8.6,2.12-3.45-11.41-14.05-19.71-26.58-19.71-13.36,0-24.51,9.43-27.17,22-3.04-2.19-6.76-3.49-10.79-3.49-10.23,0-18.52,8.29-18.52,18.52,0,3.37.92,6.53,2.49,9.25-1.25-.29-2.55-.46-3.88-.46-9.46,0-17.13,7.67-17.13,17.13s7.67,17.13,17.13,17.13c2.23,0,4.36-.44,6.31-1.22,2.02,15.07,14.38,26.67,29.33,26.67,10.68,0,20.04-5.92,25.26-14.8,2.63,3.37,6.71,5.54,11.31,5.54,3.36,0,6.44-1.16,8.88-3.09,4.16,4.73,10.25,7.72,17.04,7.72,12.53,0,22.68-10.15,22.68-22.68,0-2.43-.39-4.78-1.1-6.98.21,0,.42.03.63.03,10.48,0,18.98-8.5,18.98-18.98Z"/>
          <path class="cls-22" d="m158.9,54.76c0-10.48-8.5-18.98-18.98-18.98-3.19,0-6.19.8-8.82,2.18-.32-9.95-8.46-17.92-18.49-17.92-3.11,0-6.03.77-8.6,2.12-3.45-11.41-14.05-19.71-26.58-19.71-13.36,0-24.51,9.43-27.17,22-3.04-2.19-6.76-3.49-10.79-3.49-10.23,0-18.52,8.29-18.52,18.52,0,3.37.92,6.53,2.49,9.25-1.25-.29-2.55-.46-3.88-.46-9.46,0-17.13,7.67-17.13,17.13s7.67,17.13,17.13,17.13c2.23,0,4.36-.44,6.31-1.22,2.02,15.07,14.38,26.67,29.33,26.67,10.68,0,20.04-5.92,25.26-14.8,2.63,3.37,6.71,5.54,11.31,5.54,3.36,0,6.44-1.16,8.88-3.09,4.16,4.73,10.25,7.72,17.04,7.72,12.53,0,22.68-10.15,22.68-22.68,0-2.43-.39-4.78-1.1-6.98.21,0,.42.03.63.03,10.48,0,18.98-8.5,18.98-18.98Z"/>
          <path class="cls-41" d="m158.66,54.51c0-10.48-8.5-18.98-18.98-18.98-3.19,0-6.19.8-8.82,2.18-.32-9.95-8.46-17.92-18.49-17.92-3.11,0-6.03.77-8.6,2.13-3.45-11.41-14.05-19.71-26.58-19.71-13.36,0-24.51,9.43-27.17,22-3.04-2.19-6.76-3.49-10.79-3.49-10.23,0-18.52,8.29-18.52,18.52,0,3.37.92,6.53,2.49,9.25-1.25-.29-2.55-.46-3.88-.46-9.46,0-17.13,7.67-17.13,17.13s7.67,17.13,17.13,17.13c2.23,0,4.36-.44,6.31-1.22,2.02,15.07,14.38,26.67,29.33,26.67,10.68,0,20.04-5.92,25.26-14.8,2.63,3.37,6.71,5.54,11.31,5.54,3.36,0,6.44-1.16,8.88-3.09,4.16,4.73,10.25,7.72,17.04,7.72,12.53,0,22.68-10.15,22.68-22.68,0-2.43-.39-4.78-1.1-6.98.21,0,.42.03.63.03,10.48,0,18.98-8.5,18.98-18.98Z"/>
          <path class="cls-4" d="m158.42,54.27c0-10.48-8.5-18.98-18.98-18.98-3.19,0-6.19.8-8.82,2.18-.32-9.95-8.46-17.92-18.49-17.92-3.11,0-6.03.77-8.6,2.12-3.45-11.41-14.05-19.71-26.58-19.71-13.36,0-24.51,9.43-27.17,22-3.04-2.19-6.76-3.49-10.79-3.49-10.23,0-18.52,8.29-18.52,18.52,0,3.37.92,6.53,2.49,9.25-1.25-.29-2.55-.46-3.88-.46-9.46,0-17.13,7.67-17.13,17.13s7.67,17.13,17.13,17.13c2.23,0,4.36-.44,6.31-1.22,2.02,15.07,14.38,26.67,29.33,26.67,10.68,0,20.04-5.92,25.26-14.8,2.63,3.37,6.71,5.54,11.31,5.54,3.36,0,6.44-1.16,8.88-3.09,4.16,4.73,10.25,7.72,17.04,7.72,12.53,0,22.68-10.15,22.68-22.68,0-2.43-.39-4.78-1.1-6.98.21,0,.42.03.63.03,10.48,0,18.98-8.5,18.98-18.98Z"/>
          <path class="cls-46" d="m158.17,54.02c0-10.48-8.5-18.98-18.98-18.98-3.19,0-6.19.8-8.82,2.18-.32-9.95-8.46-17.92-18.49-17.92-3.11,0-6.03.77-8.6,2.12-3.45-11.41-14.05-19.71-26.58-19.71-13.36,0-24.51,9.43-27.17,22-3.04-2.19-6.76-3.49-10.79-3.49-10.23,0-18.52,8.29-18.52,18.52,0,3.37.92,6.53,2.49,9.25-1.25-.29-2.55-.46-3.88-.46-9.46,0-17.13,7.67-17.13,17.13s7.67,17.13,17.13,17.13c2.23,0,4.36-.44,6.31-1.22,2.02,15.07,14.38,26.67,29.33,26.67,10.68,0,20.04-5.92,25.26-14.8,2.63,3.37,6.71,5.54,11.31,5.54,3.36,0,6.44-1.16,8.88-3.09,4.16,4.73,10.25,7.72,17.04,7.72,12.53,0,22.68-10.15,22.68-22.68,0-2.43-.39-4.78-1.1-6.98.21,0,.42.03.63.03,10.48,0,18.98-8.5,18.98-18.98Z"/>
          <path class="cls-36" d="m157.93,53.78c0-10.48-8.5-18.98-18.98-18.98-3.19,0-6.19.8-8.82,2.18-.32-9.95-8.46-17.92-18.49-17.92-3.11,0-6.03.77-8.6,2.12-3.45-11.41-14.05-19.71-26.58-19.71-13.36,0-24.51,9.43-27.17,22-3.04-2.19-6.76-3.49-10.79-3.49-10.23,0-18.52,8.29-18.52,18.52,0,3.37.92,6.53,2.49,9.25-1.25-.29-2.55-.46-3.88-.46-9.46,0-17.13,7.67-17.13,17.13s7.67,17.13,17.13,17.13c2.23,0,4.36-.44,6.31-1.22,2.02,15.07,14.38,26.67,29.33,26.67,10.68,0,20.04-5.92,25.26-14.8,2.63,3.37,6.71,5.54,11.31,5.54,3.36,0,6.44-1.16,8.88-3.09,4.16,4.73,10.25,7.72,17.04,7.72,12.53,0,22.68-10.15,22.68-22.68,0-2.43-.39-4.78-1.1-6.98.21,0,.42.03.63.03,10.48,0,18.98-8.5,18.98-18.98Z"/>
          <path class="cls-26" d="m157.69,53.54c0-10.48-8.5-18.98-18.98-18.98-3.19,0-6.19.8-8.82,2.18-.32-9.95-8.46-17.92-18.49-17.92-3.11,0-6.03.77-8.6,2.12-3.45-11.41-14.05-19.71-26.58-19.71-13.36,0-24.51,9.43-27.17,22-3.04-2.19-6.76-3.49-10.79-3.49-10.23,0-18.52,8.29-18.52,18.52,0,3.37.92,6.53,2.49,9.25-1.25-.29-2.55-.46-3.88-.46-9.46,0-17.13,7.67-17.13,17.13s7.67,17.13,17.13,17.13c2.23,0,4.36-.44,6.31-1.22,2.02,15.07,14.38,26.67,29.33,26.67,10.68,0,20.04-5.92,25.26-14.8,2.63,3.37,6.71,5.54,11.31,5.54,3.36,0,6.44-1.16,8.88-3.09,4.16,4.73,10.25,7.72,17.04,7.72,12.53,0,22.68-10.15,22.68-22.68,0-2.43-.39-4.78-1.1-6.98.21,0,.42.03.63.03,10.48,0,18.98-8.5,18.98-18.98Z"/>
          <path class="cls-28" d="m157.44,53.29c0-10.48-8.5-18.98-18.98-18.98-3.19,0-6.19.8-8.82,2.18-.32-9.95-8.46-17.92-18.49-17.92-3.11,0-6.03.77-8.6,2.12-3.45-11.41-14.05-19.71-26.58-19.71-13.36,0-24.51,9.43-27.17,22-3.04-2.19-6.76-3.49-10.79-3.49-10.23,0-18.52,8.29-18.52,18.52,0,3.37.92,6.53,2.49,9.25-1.25-.29-2.55-.46-3.88-.46-9.46,0-17.13,7.67-17.13,17.13s7.67,17.13,17.13,17.13c2.23,0,4.36-.44,6.31-1.22,2.02,15.07,14.38,26.67,29.33,26.67,10.68,0,20.04-5.92,25.26-14.8,2.63,3.37,6.71,5.54,11.31,5.54,3.36,0,6.44-1.16,8.88-3.09,4.16,4.73,10.25,7.72,17.04,7.72,12.53,0,22.68-10.15,22.68-22.68,0-2.43-.39-4.78-1.1-6.98.21,0,.42.03.63.03,10.48,0,18.98-8.5,18.98-18.98Z"/>
          <path class="cls-23" d="m157.2,53.05c0-10.48-8.5-18.98-18.98-18.98-3.19,0-6.19.8-8.82,2.18-.32-9.95-8.46-17.92-18.49-17.92-3.11,0-6.03.77-8.6,2.12-3.45-11.41-14.05-19.71-26.58-19.71-13.36,0-24.51,9.43-27.17,22-3.04-2.19-6.76-3.49-10.79-3.49-10.23,0-18.52,8.29-18.52,18.52,0,3.37.92,6.53,2.49,9.25-1.25-.29-2.55-.46-3.88-.46-9.46,0-17.13,7.67-17.13,17.13s7.67,17.13,17.13,17.13c2.23,0,4.36-.44,6.31-1.22,2.02,15.07,14.38,26.67,29.33,26.67,10.68,0,20.04-5.92,25.26-14.8,2.63,3.37,6.71,5.54,11.31,5.54,3.36,0,6.44-1.16,8.88-3.09,4.16,4.73,10.25,7.72,17.04,7.72,12.53,0,22.68-10.15,22.68-22.68,0-2.43-.39-4.78-1.1-6.98.21,0,.42.03.63.03,10.48,0,18.98-8.5,18.98-18.98Z"/>
          <path class="cls-2" d="m156.95,52.81c0-10.48-8.5-18.98-18.98-18.98-3.19,0-6.19.8-8.82,2.18-.32-9.95-8.46-17.92-18.49-17.92-3.11,0-6.03.77-8.6,2.12-3.45-11.41-14.05-19.71-26.58-19.71-13.36,0-24.51,9.43-27.17,22-3.04-2.19-6.76-3.49-10.79-3.49-10.23,0-18.52,8.29-18.52,18.52,0,3.37.92,6.53,2.49,9.25-1.25-.29-2.55-.46-3.88-.46-9.46,0-17.13,7.67-17.13,17.13s7.67,17.13,17.13,17.13c2.23,0,4.36-.44,6.31-1.22,2.02,15.07,14.38,26.67,29.33,26.67,10.68,0,20.04-5.92,25.26-14.8,2.63,3.37,6.71,5.54,11.31,5.54,3.36,0,6.44-1.16,8.88-3.09,4.16,4.73,10.25,7.72,17.04,7.72,12.53,0,22.68-10.15,22.68-22.68,0-2.43-.39-4.78-1.1-6.98.21,0,.42.03.63.03,10.48,0,18.98-8.5,18.98-18.98Z"/>
        </g>
        <path class="cls-21" d="m156.95,52.81c0-10.48-8.5-18.98-18.98-18.98-3.19,0-6.19.8-8.82,2.18-.32-9.95-8.46-17.92-18.49-17.92-3.11,0-6.03.77-8.6,2.12-3.45-11.41-14.05-19.71-26.58-19.71-13.36,0-24.51,9.43-27.17,22-3.04-2.19-6.76-3.49-10.79-3.49-10.23,0-18.52,8.29-18.52,18.52,0,3.37.92,6.53,2.49,9.25-1.25-.29-2.55-.46-3.88-.46-9.46,0-17.13,7.67-17.13,17.13s7.67,17.13,17.13,17.13c2.23,0,4.36-.44,6.31-1.22,2.02,15.07,14.38,26.67,29.33,26.67,10.68,0,20.04-5.92,25.26-14.8,2.63,3.37,6.71,5.54,11.31,5.54,3.36,0,6.44-1.16,8.88-3.09,4.16,4.73,10.25,7.72,17.04,7.72,12.53,0,22.68-10.15,22.68-22.68,0-2.43-.39-4.78-1.1-6.98.21,0,.42.03.63.03,10.48,0,18.98-8.5,18.98-18.98Z"/>
      </g>
      <g>
        <g class="cls-5">
          <path class="cls-11" d="m280.85,52.17c.18-1.08.27-2.19.27-3.31,0-12.56-10.38-23.67-24.32-23.67-7.07,0-13.45,3.55-18.04,7.76-2.69-10.27-11.66-18.75-22.33-18.75-11.72,0-21.4,9.12-22.93,20.94-2.24-.97-4.7-1.52-7.27-1.52-8.48,0-14.73,7.67-17.16,15.71-1.05-.15-2.12-.23-3.2-.23-12.53,0-23.61,8.3-23.61,20.83s10.15,22.68,22.68,22.68c2.91,0,5.69-.55,8.24-1.55,1.73,8.44,9.19,14.79,18.14,14.79,4.51,0,8.64-1.61,11.85-4.29,4.51,6.51,12.03,10.77,20.55,10.77,9.05,0,16.98-4.82,21.37-12.02,3.9,3.45,9.02,5.54,14.64,5.54,10.34,0,17.11-8,19.53-17.59.13,0,20.37,1.85,21.29-18.05.48-10.4-9.32-17.94-19.71-18.04Z"/>
          <path class="cls-10" d="m280.61,51.93c.18-1.08.27-2.19.27-3.31,0-12.56-10.38-23.67-24.32-23.67-7.07,0-13.45,3.55-18.04,7.76-2.69-10.27-11.66-18.75-22.33-18.75-11.72,0-21.4,9.12-22.93,20.94-2.24-.97-4.7-1.52-7.27-1.52-8.48,0-14.73,7.67-17.16,15.71-1.05-.15-2.12-.23-3.2-.23-12.53,0-23.61,8.3-23.61,20.83s10.15,22.68,22.68,22.68c2.91,0,5.69-.55,8.24-1.55,1.73,8.44,9.19,14.79,18.14,14.79,4.51,0,8.64-1.61,11.85-4.29,4.51,6.51,12.03,10.77,20.55,10.77,9.05,0,16.98-4.82,21.37-12.02,3.9,3.45,9.02,5.54,14.64,5.54,10.34,0,17.11-8,19.53-17.59.13,0,20.37,1.85,21.29-18.05.48-10.4-9.32-17.94-19.71-18.04Z"/>
          <path class="cls-3" d="m280.36,51.68c.18-1.08.27-2.19.27-3.31,0-12.56-10.38-23.67-24.32-23.67-7.07,0-13.45,3.55-18.04,7.76-2.69-10.27-11.66-18.75-22.33-18.75-11.72,0-21.4,9.12-22.93,20.94-2.24-.97-4.7-1.52-7.27-1.52-8.48,0-14.73,7.67-17.16,15.71-1.05-.15-2.12-.23-3.2-.23-12.53,0-23.61,8.3-23.61,20.83s10.15,22.68,22.68,22.68c2.91,0,5.69-.55,8.24-1.55,1.73,8.44,9.19,14.79,18.14,14.79,4.51,0,8.64-1.62,11.85-4.29,4.51,6.51,12.03,10.77,20.55,10.77,9.05,0,16.98-4.82,21.37-12.02,3.9,3.45,9.02,5.54,14.64,5.54,10.34,0,17.11-8,19.53-17.59.13,0,20.37,1.85,21.29-18.05.48-10.4-9.32-17.94-19.71-18.04Z"/>
          <path class="cls-38" d="m280.12,51.44c.18-1.08.27-2.19.27-3.31,0-12.56-10.38-23.67-24.32-23.67-7.07,0-13.45,3.55-18.04,7.76-2.69-10.27-11.66-18.75-22.33-18.75-11.72,0-21.4,9.12-22.93,20.94-2.24-.97-4.7-1.52-7.27-1.52-8.48,0-14.73,7.67-17.16,15.71-1.05-.15-2.12-.23-3.2-.23-12.53,0-23.61,8.3-23.61,20.83s10.15,22.68,22.68,22.68c2.91,0,5.69-.55,8.24-1.55,1.73,8.44,9.19,14.79,18.14,14.79,4.51,0,8.64-1.61,11.85-4.29,4.51,6.51,12.03,10.77,20.55,10.77,9.05,0,16.98-4.82,21.37-12.02,3.9,3.45,9.02,5.54,14.64,5.54,10.34,0,17.11-8,19.53-17.59.13,0,20.37,1.85,21.29-18.05.48-10.4-9.32-17.94-19.71-18.04Z"/>
          <path class="cls-39" d="m279.88,51.19c.18-1.08.27-2.19.27-3.31,0-12.56-10.38-23.67-24.32-23.67-7.07,0-13.45,3.55-18.04,7.76-2.69-10.27-11.66-18.75-22.33-18.75-11.72,0-21.4,9.12-22.93,20.94-2.24-.97-4.7-1.52-7.27-1.52-8.48,0-14.73,7.67-17.16,15.71-1.05-.15-2.12-.23-3.2-.23-12.53,0-23.61,8.3-23.61,20.83s10.15,22.68,22.68,22.68c2.91,0,5.69-.55,8.24-1.55,1.72,8.44,9.19,14.79,18.14,14.79,4.51,0,8.64-1.61,11.85-4.29,4.51,6.51,12.03,10.77,20.55,10.77,9.05,0,16.98-4.82,21.37-12.02,3.9,3.45,9.02,5.54,14.64,5.54,10.34,0,17.11-8,19.53-17.59.13,0,20.37,1.85,21.29-18.05.48-10.4-9.32-17.94-19.71-18.04Z"/>
          <path class="cls-47" d="m279.63,50.95c.18-1.08.27-2.19.27-3.31,0-12.56-10.38-23.67-24.32-23.67-7.07,0-13.45,3.55-18.04,7.76-2.69-10.27-11.66-18.75-22.33-18.75-11.72,0-21.4,9.12-22.93,20.94-2.24-.97-4.7-1.52-7.27-1.52-8.48,0-14.73,7.67-17.16,15.71-1.05-.15-2.12-.23-3.2-.23-12.53,0-23.61,8.3-23.61,20.83s10.15,22.68,22.68,22.68c2.91,0,5.69-.55,8.24-1.55,1.73,8.44,9.19,14.79,18.14,14.79,4.51,0,8.64-1.61,11.85-4.29,4.51,6.51,12.03,10.77,20.55,10.77,9.05,0,16.98-4.81,21.37-12.02,3.9,3.45,9.02,5.54,14.64,5.54,10.34,0,17.11-8,19.53-17.59.13,0,20.37,1.85,21.29-18.05.48-10.4-9.32-17.94-19.71-18.04Z"/>
          <path class="cls-30" d="m279.39,50.71c.18-1.08.27-2.19.27-3.31,0-12.56-10.38-23.67-24.32-23.67-7.07,0-13.45,3.55-18.04,7.76-2.69-10.27-11.66-18.75-22.33-18.75-11.72,0-21.4,9.12-22.93,20.94-2.24-.97-4.7-1.52-7.27-1.52-8.48,0-14.73,7.67-17.16,15.71-1.05-.15-2.12-.23-3.2-.23-12.53,0-23.61,8.3-23.61,20.83s10.15,22.68,22.68,22.68c2.91,0,5.69-.55,8.24-1.55,1.73,8.44,9.19,14.79,18.14,14.79,4.51,0,8.64-1.61,11.85-4.29,4.51,6.51,12.03,10.77,20.55,10.77,9.05,0,16.98-4.82,21.37-12.02,3.9,3.45,9.02,5.54,14.64,5.54,10.34,0,17.11-8,19.53-17.59.13,0,20.37,1.85,21.29-18.05.48-10.4-9.32-17.94-19.71-18.04Z"/>
          <path class="cls-9" d="m279.14,50.46c.18-1.08.27-2.19.27-3.31,0-12.56-10.38-23.67-24.32-23.67-7.07,0-13.45,3.55-18.04,7.76-2.69-10.27-11.66-18.75-22.33-18.75-11.72,0-21.4,9.12-22.93,20.94-2.24-.97-4.7-1.52-7.27-1.52-8.48,0-14.73,7.67-17.16,15.71-1.05-.15-2.12-.23-3.2-.23-12.53,0-23.61,8.3-23.61,20.83s10.15,22.68,22.68,22.68c2.91,0,5.69-.55,8.24-1.55,1.73,8.44,9.19,14.79,18.14,14.79,4.51,0,8.64-1.61,11.85-4.29,4.51,6.51,12.03,10.77,20.55,10.77,9.05,0,16.98-4.81,21.37-12.02,3.9,3.45,9.02,5.54,14.64,5.54,10.34,0,17.11-8,19.53-17.59.13,0,20.37,1.85,21.29-18.05.48-10.4-9.32-17.94-19.71-18.04Z"/>
          <path class="cls-33" d="m278.9,50.22c.18-1.08.27-2.19.27-3.31,0-12.56-10.38-23.67-24.32-23.67-7.07,0-13.45,3.55-18.04,7.76-2.69-10.27-11.66-18.75-22.33-18.75-11.72,0-21.4,9.12-22.93,20.94-2.24-.97-4.7-1.52-7.27-1.52-8.48,0-14.73,7.67-17.16,15.71-1.05-.15-2.12-.23-3.2-.23-12.53,0-23.61,8.3-23.61,20.83s10.15,22.68,22.68,22.68c2.91,0,5.69-.55,8.24-1.55,1.72,8.44,9.19,14.79,18.14,14.79,4.51,0,8.64-1.61,11.85-4.29,4.51,6.51,12.03,10.77,20.55,10.77,9.05,0,16.98-4.82,21.37-12.02,3.9,3.45,9.02,5.54,14.64,5.54,10.34,0,17.11-8,19.53-17.59.13,0,20.37,1.85,21.29-18.05.48-10.4-9.32-17.94-19.71-18.04Z"/>
          <path class="cls-25" d="m278.66,49.97c.18-1.08.27-2.19.27-3.31,0-12.56-10.38-23.67-24.32-23.67-7.07,0-13.45,3.55-18.04,7.76-2.69-10.27-11.66-18.75-22.33-18.75-11.72,0-21.4,9.12-22.93,20.94-2.24-.97-4.7-1.52-7.27-1.52-8.48,0-14.73,7.67-17.16,15.71-1.05-.15-2.12-.23-3.2-.23-12.53,0-23.61,8.3-23.61,20.83s10.15,22.68,22.68,22.68c2.91,0,5.69-.55,8.24-1.55,1.73,8.44,9.19,14.79,18.14,14.79,4.51,0,8.64-1.61,11.85-4.29,4.51,6.51,12.03,10.77,20.55,10.77,9.05,0,16.98-4.82,21.37-12.02,3.9,3.45,9.02,5.54,14.64,5.54,10.34,0,17.11-8,19.53-17.59.13,0,20.37,1.85,21.29-18.05.48-10.4-9.32-17.94-19.71-18.04Z"/>
          <path class="cls-42" d="m278.41,49.73c.18-1.08.27-2.19.27-3.31,0-12.56-10.38-23.67-24.32-23.67-7.07,0-13.45,3.55-18.04,7.76-2.69-10.27-11.66-18.75-22.33-18.75-11.72,0-21.4,9.12-22.93,20.94-2.24-.97-4.7-1.52-7.27-1.52-8.48,0-14.73,7.67-17.16,15.71-1.05-.15-2.12-.23-3.2-.23-12.53,0-23.61,8.3-23.61,20.83s10.15,22.68,22.68,22.68c2.91,0,5.69-.55,8.24-1.55,1.73,8.44,9.19,14.79,18.14,14.79,4.51,0,8.64-1.61,11.85-4.29,4.51,6.51,12.03,10.77,20.55,10.77,9.05,0,16.98-4.82,21.37-12.02,3.9,3.45,9.02,5.54,14.64,5.54,10.34,0,17.11-8,19.53-17.59.13,0,20.37,1.85,21.29-18.05.48-10.4-9.32-17.94-19.71-18.04Z"/>
          <path class="cls-32" d="m278.17,49.49c.18-1.08.27-2.19.27-3.31,0-12.56-10.38-23.67-24.32-23.67-7.07,0-13.45,3.55-18.04,7.76-2.69-10.27-11.66-18.75-22.33-18.75-11.72,0-21.4,9.12-22.93,20.94-2.24-.97-4.7-1.52-7.27-1.52-8.48,0-14.73,7.67-17.16,15.71-1.05-.15-2.12-.23-3.2-.23-12.53,0-23.61,8.3-23.61,20.83s10.15,22.68,22.68,22.68c2.91,0,5.69-.55,8.24-1.55,1.73,8.44,9.19,14.79,18.14,14.79,4.51,0,8.64-1.61,11.85-4.29,4.51,6.51,12.03,10.77,20.55,10.77,9.05,0,16.98-4.82,21.37-12.02,3.9,3.45,9.02,5.54,14.64,5.54,10.34,0,17.11-8,19.53-17.59.13,0,20.37,1.85,21.29-18.05.48-10.4-9.32-17.94-19.71-18.04Z"/>
          <path class="cls-12" d="m277.92,49.24c.18-1.08.27-2.19.27-3.31,0-12.56-10.38-23.67-24.32-23.67-7.07,0-13.45,3.55-18.04,7.76-2.69-10.27-11.66-18.75-22.33-18.75-11.72,0-21.4,9.12-22.93,20.94-2.24-.97-4.7-1.52-7.27-1.52-8.48,0-14.73,7.67-17.16,15.71-1.05-.15-2.12-.23-3.2-.23-12.53,0-23.61,8.3-23.61,20.83s10.15,22.68,22.68,22.68c2.91,0,5.69-.55,8.24-1.55,1.73,8.44,9.19,14.79,18.14,14.79,4.51,0,8.64-1.61,11.85-4.29,4.51,6.51,12.03,10.77,20.55,10.77,9.05,0,16.98-4.81,21.37-12.02,3.9,3.45,9.02,5.54,14.64,5.54,10.34,0,17.11-8,19.53-17.59.13,0,20.37,1.85,21.29-18.05.48-10.4-9.32-17.94-19.71-18.04Z"/>
          <path class="cls-13" d="m277.68,49c.18-1.08.27-2.19.27-3.31,0-12.56-10.38-23.67-24.32-23.67-7.07,0-13.45,3.55-18.04,7.76-2.69-10.27-11.66-18.75-22.33-18.75-11.72,0-21.4,9.12-22.93,20.94-2.24-.97-4.7-1.52-7.27-1.52-8.48,0-14.73,7.67-17.16,15.71-1.05-.15-2.12-.23-3.2-.23-12.53,0-23.61,8.3-23.61,20.83s10.15,22.68,22.68,22.68c2.91,0,5.69-.55,8.24-1.55,1.73,8.44,9.19,14.79,18.14,14.79,4.51,0,8.64-1.61,11.85-4.29,4.51,6.51,12.03,10.77,20.55,10.77,9.05,0,16.98-4.81,21.37-12.02,3.9,3.45,9.02,5.54,14.64,5.54,10.34,0,17.11-8,19.53-17.59.13,0,20.37,1.85,21.29-18.05.48-10.4-9.32-17.94-19.71-18.04Z"/>
          <path class="cls-17" d="m277.44,48.75c.18-1.08.27-2.19.27-3.31,0-12.56-10.38-23.67-24.32-23.67-7.07,0-13.45,3.55-18.04,7.76-2.69-10.27-11.66-18.75-22.33-18.75-11.72,0-21.4,9.12-22.93,20.94-2.24-.97-4.7-1.52-7.27-1.52-8.48,0-14.73,7.67-17.16,15.71-1.05-.15-2.12-.23-3.2-.23-12.53,0-23.61,8.3-23.61,20.83s10.15,22.68,22.68,22.68c2.91,0,5.69-.55,8.24-1.55,1.73,8.44,9.19,14.79,18.14,14.79,4.51,0,8.64-1.61,11.85-4.29,4.51,6.51,12.03,10.77,20.55,10.77,9.05,0,16.98-4.81,21.37-12.02,3.9,3.45,9.02,5.54,14.64,5.54,10.34,0,17.11-8,19.53-17.59.13,0,20.37,1.85,21.29-18.05.48-10.4-9.32-17.94-19.71-18.04Z"/>
          <path class="cls-27" d="m277.19,48.51c.18-1.08.27-2.19.27-3.31,0-12.56-10.38-23.67-24.32-23.67-7.07,0-13.45,3.55-18.04,7.76-2.69-10.27-11.66-18.75-22.33-18.75-11.72,0-21.4,9.12-22.93,20.94-2.24-.97-4.7-1.52-7.27-1.52-8.48,0-14.73,7.67-17.16,15.71-1.05-.15-2.12-.23-3.2-.23-12.53,0-23.61,8.3-23.61,20.83s10.15,22.68,22.68,22.68c2.91,0,5.69-.55,8.24-1.55,1.73,8.44,9.19,14.79,18.14,14.79,4.51,0,8.64-1.61,11.85-4.29,4.51,6.51,12.03,10.77,20.55,10.77,9.05,0,16.98-4.82,21.37-12.02,3.9,3.45,9.02,5.54,14.64,5.54,10.34,0,17.11-8,19.53-17.59.13,0,20.37,1.85,21.29-18.05.48-10.4-9.32-17.94-19.71-18.04Z"/>
          <path class="cls-34" d="m276.95,48.27c.18-1.08.27-2.19.27-3.31,0-12.56-10.38-23.67-24.32-23.67-7.07,0-13.45,3.55-18.04,7.76-2.69-10.27-11.66-18.75-22.33-18.75-11.72,0-21.4,9.12-22.93,20.94-2.24-.97-4.7-1.52-7.27-1.52-8.48,0-14.73,7.67-17.16,15.71-1.05-.15-2.12-.23-3.2-.23-12.53,0-23.61,8.3-23.61,20.83s10.15,22.68,22.68,22.68c2.91,0,5.69-.55,8.24-1.55,1.73,8.44,9.19,14.79,18.14,14.79,4.51,0,8.64-1.61,11.85-4.29,4.51,6.51,12.03,10.77,20.55,10.77,9.05,0,16.98-4.82,21.37-12.02,3.9,3.45,9.02,5.54,14.64,5.54,10.34,0,17.11-8,19.53-17.59.13,0,20.37,1.85,21.29-18.05.48-10.4-9.32-17.94-19.71-18.04Z"/>
          <path class="cls-14" d="m276.7,48.02c.18-1.08.27-2.19.27-3.31,0-12.56-10.38-23.67-24.32-23.67-7.07,0-13.45,3.55-18.04,7.76-2.69-10.27-11.66-18.75-22.33-18.75-11.72,0-21.4,9.12-22.93,20.94-2.24-.97-4.7-1.52-7.27-1.52-8.48,0-14.73,7.67-17.16,15.71-1.05-.15-2.12-.23-3.2-.23-12.53,0-23.61,8.3-23.61,20.83s10.15,22.68,22.68,22.68c2.91,0,5.69-.55,8.24-1.55,1.73,8.44,9.19,14.79,18.14,14.79,4.51,0,8.64-1.61,11.85-4.29,4.51,6.51,12.03,10.77,20.55,10.77,9.05,0,16.98-4.82,21.37-12.02,3.9,3.45,9.02,5.54,14.64,5.54,10.34,0,17.11-8,19.53-17.59.13,0,20.37,1.85,21.29-18.05.48-10.4-9.32-17.94-19.71-18.04Z"/>
          <path class="cls-15" d="m276.46,47.78c.18-1.08.27-2.19.27-3.31,0-12.56-10.38-23.67-24.32-23.67-7.07,0-13.45,3.55-18.04,7.76-2.69-10.27-11.66-18.75-22.33-18.75-11.72,0-21.4,9.12-22.93,20.94-2.24-.97-4.7-1.52-7.27-1.52-8.48,0-14.73,7.67-17.16,15.71-1.05-.15-2.12-.23-3.2-.23-12.53,0-23.61,8.3-23.61,20.83s10.15,22.68,22.68,22.68c2.91,0,5.69-.55,8.24-1.55,1.73,8.44,9.19,14.79,18.14,14.79,4.51,0,8.64-1.61,11.85-4.29,4.51,6.51,12.03,10.77,20.55,10.77,9.05,0,16.98-4.82,21.37-12.02,3.9,3.45,9.02,5.54,14.64,5.54,10.34,0,17.11-8,19.53-17.59.13,0,20.37,1.85,21.29-18.05.48-10.4-9.32-17.94-19.71-18.04Z"/>
          <path class="cls-24" d="m276.22,47.53c.18-1.08.27-2.19.27-3.31,0-12.56-10.38-23.67-24.32-23.67-7.07,0-13.45,3.55-18.04,7.76-2.69-10.27-11.66-18.75-22.33-18.75-11.72,0-21.4,9.12-22.93,20.94-2.24-.97-4.7-1.52-7.27-1.52-8.48,0-14.73,7.67-17.16,15.71-1.05-.15-2.12-.23-3.2-.23-12.53,0-23.61,8.3-23.61,20.83s10.15,22.68,22.68,22.68c2.91,0,5.69-.55,8.24-1.55,1.73,8.44,9.19,14.79,18.14,14.79,4.51,0,8.64-1.61,11.85-4.29,4.51,6.51,12.03,10.77,20.55,10.77,9.05,0,16.98-4.82,21.37-12.02,3.9,3.45,9.02,5.54,14.64,5.54,10.34,0,17.11-8,19.53-17.59.13,0,20.37,1.85,21.29-18.05.48-10.4-9.32-17.94-19.71-18.04Z"/>
          <path class="cls-8" d="m275.97,47.29c.18-1.08.27-2.19.27-3.31,0-12.56-10.38-23.67-24.32-23.67-7.07,0-13.45,3.55-18.04,7.76-2.69-10.27-11.66-18.75-22.33-18.75-11.72,0-21.4,9.12-22.93,20.94-2.24-.97-4.7-1.52-7.27-1.52-8.48,0-14.73,7.67-17.16,15.71-1.05-.15-2.12-.23-3.2-.23-12.53,0-23.61,8.3-23.61,20.83s10.15,22.68,22.68,22.68c2.91,0,5.69-.55,8.24-1.55,1.73,8.44,9.19,14.79,18.14,14.79,4.51,0,8.64-1.61,11.85-4.29,4.51,6.51,12.03,10.77,20.55,10.77,9.05,0,16.98-4.82,21.37-12.02,3.9,3.45,9.02,5.54,14.64,5.54,10.34,0,17.11-8,19.53-17.59.13,0,20.37,1.85,21.29-18.05.48-10.4-9.32-17.94-19.71-18.04Z"/>
          <path class="cls-1" d="m275.73,47.05c.18-1.08.27-2.19.27-3.31,0-12.56-10.38-23.67-24.32-23.67-7.07,0-13.45,3.55-18.04,7.76-2.69-10.27-11.66-18.75-22.33-18.75-11.72,0-21.4,9.12-22.93,20.94-2.24-.97-4.7-1.52-7.27-1.52-8.48,0-14.73,7.67-17.16,15.71-1.05-.15-2.12-.23-3.2-.23-12.53,0-23.61,8.3-23.61,20.83s10.15,22.68,22.68,22.68c2.91,0,5.69-.55,8.24-1.55,1.73,8.44,9.19,14.79,18.14,14.79,4.51,0,8.64-1.61,11.85-4.29,4.51,6.51,12.03,10.77,20.55,10.77,9.05,0,16.98-4.82,21.37-12.02,3.9,3.45,9.02,5.54,14.64,5.54,10.34,0,17.11-8,19.53-17.59.13,0,20.37,1.85,21.29-18.05.48-10.4-9.32-17.94-19.71-18.04Z"/>
          <path class="cls-35" d="m275.48,46.8c.18-1.08.27-2.19.27-3.31,0-12.56-10.38-23.67-24.32-23.67-7.07,0-13.45,3.55-18.04,7.76-2.69-10.27-11.66-18.75-22.33-18.75-11.72,0-21.4,9.12-22.93,20.94-2.24-.97-4.7-1.52-7.27-1.52-8.48,0-14.73,7.67-17.16,15.71-1.05-.15-2.12-.23-3.2-.23-12.53,0-23.61,8.3-23.61,20.83s10.15,22.68,22.68,22.68c2.91,0,5.69-.55,8.24-1.55,1.73,8.44,9.19,14.79,18.14,14.79,4.51,0,8.64-1.61,11.85-4.29,4.51,6.51,12.03,10.77,20.55,10.77,9.05,0,16.98-4.81,21.37-12.02,3.9,3.45,9.02,5.54,14.64,5.54,10.34,0,17.11-8,19.53-17.59.13,0,20.37,1.85,21.29-18.05.48-10.4-9.32-17.94-19.71-18.04Z"/>
          <path class="cls-43" d="m275.24,46.56c.18-1.08.27-2.19.27-3.31,0-12.56-10.38-23.67-24.32-23.67-7.07,0-13.45,3.55-18.04,7.76-2.69-10.27-11.66-18.75-22.33-18.75-11.72,0-21.4,9.12-22.93,20.94-2.24-.97-4.7-1.52-7.27-1.52-8.48,0-14.73,7.67-17.16,15.71-1.05-.15-2.12-.23-3.2-.23-12.53,0-23.61,8.3-23.61,20.83s10.15,22.68,22.68,22.68c2.91,0,5.69-.55,8.24-1.55,1.73,8.44,9.19,14.79,18.14,14.79,4.51,0,8.64-1.61,11.85-4.29,4.51,6.51,12.03,10.77,20.55,10.77,9.05,0,16.98-4.81,21.37-12.02,3.9,3.45,9.02,5.54,14.64,5.54,10.34,0,17.11-8,19.53-17.59.13,0,20.37,1.85,21.29-18.05.48-10.4-9.32-17.94-19.71-18.04Z"/>
          <path class="cls-7" d="m275,46.32c.18-1.08.27-2.19.27-3.31,0-12.56-10.38-23.67-24.32-23.67-7.07,0-13.45,3.55-18.04,7.76-2.69-10.27-11.66-18.75-22.33-18.75-11.72,0-21.4,9.12-22.93,20.94-2.24-.97-4.7-1.52-7.27-1.52-8.48,0-14.73,7.67-17.16,15.71-1.05-.15-2.12-.23-3.2-.23-12.53,0-23.61,8.3-23.61,20.83s10.15,22.68,22.68,22.68c2.91,0,5.69-.55,8.24-1.55,1.73,8.44,9.19,14.79,18.14,14.79,4.51,0,8.64-1.61,11.85-4.29,4.51,6.51,12.03,10.77,20.55,10.77,9.05,0,16.98-4.82,21.37-12.02,3.9,3.45,9.02,5.54,14.64,5.54,10.34,0,17.11-8,19.53-17.59.13,0,20.37,1.85,21.29-18.05.48-10.4-9.32-17.94-19.71-18.04Z"/>
          <path class="cls-18" d="m274.75,46.07c.18-1.08.27-2.19.27-3.31,0-12.56-10.38-23.67-24.32-23.67-7.07,0-13.45,3.55-18.04,7.76-2.69-10.27-11.66-18.75-22.33-18.75-11.72,0-21.4,9.12-22.93,20.94-2.24-.97-4.7-1.52-7.27-1.52-8.48,0-14.73,7.67-17.16,15.71-1.05-.15-2.12-.23-3.2-.23-12.53,0-23.61,8.3-23.61,20.83s10.15,22.68,22.68,22.68c2.91,0,5.69-.55,8.24-1.55,1.72,8.44,9.19,14.79,18.14,14.79,4.51,0,8.64-1.61,11.85-4.29,4.51,6.51,12.03,10.77,20.55,10.77,9.05,0,16.98-4.81,21.37-12.02,3.9,3.45,9.02,5.54,14.64,5.54,10.34,0,17.11-8,19.53-17.59.13,0,20.37,1.85,21.29-18.05.48-10.4-9.32-17.94-19.71-18.04Z"/>
          <path class="cls-40" d="m274.51,45.83c.18-1.08.27-2.19.27-3.31,0-12.56-10.38-23.67-24.32-23.67-7.07,0-13.45,3.55-18.04,7.76-2.69-10.27-11.66-18.75-22.33-18.75-11.72,0-21.4,9.12-22.93,20.94-2.24-.97-4.7-1.52-7.27-1.52-8.48,0-14.73,7.67-17.16,15.71-1.05-.15-2.12-.23-3.2-.23-12.53,0-23.61,8.3-23.61,20.83s10.15,22.68,22.68,22.68c2.91,0,5.69-.55,8.24-1.55,1.73,8.44,9.19,14.79,18.14,14.79,4.51,0,8.64-1.61,11.85-4.29,4.51,6.51,12.03,10.77,20.55,10.77,9.05,0,16.98-4.81,21.37-12.02,3.9,3.45,9.02,5.54,14.64,5.54,10.34,0,17.11-8,19.53-17.59.13,0,20.37,1.85,21.29-18.05.48-10.4-9.32-17.94-19.71-18.04Z"/>
          <path class="cls-37" d="m274.27,45.58c.18-1.08.27-2.19.27-3.31,0-12.56-10.38-23.67-24.32-23.67-7.07,0-13.45,3.55-18.04,7.76-2.69-10.27-11.66-18.75-22.33-18.75-11.72,0-21.4,9.12-22.93,20.94-2.24-.97-4.7-1.52-7.27-1.52-8.48,0-14.73,7.67-17.16,15.71-1.05-.15-2.12-.23-3.2-.23-12.53,0-23.61,8.3-23.61,20.83s10.15,22.68,22.68,22.68c2.91,0,5.69-.55,8.24-1.55,1.73,8.44,9.19,14.79,18.14,14.79,4.51,0,8.64-1.61,11.85-4.29,4.51,6.51,12.03,10.77,20.55,10.77,9.05,0,16.98-4.81,21.37-12.02,3.9,3.45,9.02,5.54,14.64,5.54,10.34,0,17.11-8,19.53-17.59.13,0,20.37,1.85,21.29-18.05.48-10.4-9.32-17.94-19.71-18.04Z"/>
          <path class="cls-29" d="m274.02,45.34c.18-1.08.27-2.19.27-3.31,0-12.56-10.38-23.67-24.32-23.67-7.07,0-13.45,3.55-18.04,7.76-2.69-10.27-11.66-18.75-22.33-18.75-11.72,0-21.4,9.12-22.93,20.94-2.24-.97-4.7-1.52-7.27-1.52-8.48,0-14.73,7.67-17.16,15.71-1.05-.15-2.12-.23-3.2-.23-12.53,0-23.61,8.3-23.61,20.83s10.15,22.68,22.68,22.68c2.91,0,5.69-.55,8.24-1.55,1.73,8.44,9.19,14.79,18.14,14.79,4.51,0,8.64-1.61,11.85-4.29,4.51,6.51,12.03,10.77,20.55,10.77,9.05,0,16.98-4.82,21.37-12.02,3.9,3.45,9.02,5.54,14.64,5.54,10.34,0,17.11-8,19.53-17.59.13,0,20.37,1.85,21.29-18.05.48-10.4-9.32-17.94-19.71-18.04Z"/>
          <path class="cls-44" d="m273.78,45.1c.18-1.08.27-2.19.27-3.31,0-12.56-10.38-23.67-24.32-23.67-7.07,0-13.45,3.55-18.04,7.76-2.69-10.27-11.66-18.75-22.33-18.75-11.72,0-21.4,9.12-22.93,20.94-2.24-.97-4.7-1.52-7.27-1.52-8.48,0-14.73,7.67-17.16,15.71-1.05-.15-2.12-.23-3.2-.23-12.53,0-23.61,8.3-23.61,20.83s10.15,22.68,22.68,22.68c2.91,0,5.69-.55,8.24-1.55,1.73,8.44,9.19,14.79,18.14,14.79,4.51,0,8.64-1.62,11.85-4.29,4.51,6.51,12.03,10.77,20.55,10.77,9.05,0,16.98-4.81,21.37-12.02,3.9,3.45,9.02,5.54,14.64,5.54,10.34,0,17.11-8,19.53-17.59.13,0,20.37,1.85,21.29-18.05.48-10.4-9.32-17.94-19.71-18.04Z"/>
          <path class="cls-31" d="m273.53,44.85c.18-1.08.27-2.19.27-3.31,0-12.56-10.38-23.67-24.32-23.67-7.07,0-13.45,3.55-18.04,7.76-2.69-10.27-11.66-18.75-22.33-18.75-11.72,0-21.4,9.12-22.93,20.94-2.24-.97-4.7-1.52-7.27-1.52-8.48,0-14.73,7.67-17.16,15.71-1.05-.15-2.12-.23-3.2-.23-12.53,0-23.61,8.3-23.61,20.83s10.15,22.68,22.68,22.68c2.91,0,5.69-.55,8.24-1.55,1.72,8.44,9.19,14.79,18.14,14.79,4.51,0,8.64-1.61,11.85-4.29,4.51,6.51,12.03,10.77,20.55,10.77,9.05,0,16.98-4.81,21.37-12.02,3.9,3.45,9.02,5.54,14.64,5.54,10.34,0,17.11-8,19.53-17.59.13,0,20.37,1.85,21.29-18.05.48-10.4-9.32-17.94-19.71-18.04Z"/>
          <path class="cls-45" d="m273.29,44.61c.18-1.08.27-2.19.27-3.31,0-12.56-10.38-23.67-24.32-23.67-7.07,0-13.45,3.55-18.04,7.76-2.69-10.27-11.66-18.75-22.33-18.75-11.72,0-21.4,9.12-22.93,20.94-2.24-.97-4.7-1.52-7.27-1.52-8.48,0-14.73,7.67-17.16,15.71-1.05-.15-2.12-.23-3.2-.23-12.53,0-23.61,8.3-23.61,20.83s10.15,22.68,22.68,22.68c2.91,0,5.69-.55,8.24-1.55,1.73,8.44,9.19,14.79,18.14,14.79,4.51,0,8.64-1.61,11.85-4.29,4.51,6.51,12.03,10.77,20.55,10.77,9.05,0,16.98-4.81,21.37-12.02,3.9,3.45,9.02,5.54,14.64,5.54,10.34,0,17.11-8,19.53-17.59.13,0,20.37,1.85,21.29-18.05.48-10.4-9.32-17.94-19.71-18.04Z"/>
          <path class="cls-6" d="m273.05,44.36c.18-1.08.27-2.19.27-3.31,0-12.56-10.38-23.67-24.32-23.67-7.07,0-13.45,3.55-18.04,7.76-2.69-10.27-11.66-18.75-22.33-18.75-11.72,0-21.4,9.12-22.93,20.94-2.24-.97-4.7-1.52-7.27-1.52-8.48,0-14.73,7.67-17.16,15.71-1.05-.15-2.12-.23-3.2-.23-12.53,0-23.61,8.3-23.61,20.83s10.15,22.68,22.68,22.68c2.91,0,5.69-.55,8.24-1.55,1.73,8.44,9.19,14.79,18.14,14.79,4.51,0,8.64-1.61,11.85-4.29,4.51,6.51,12.03,10.77,20.55,10.77,9.05,0,16.98-4.81,21.37-12.02,3.9,3.45,9.02,5.54,14.64,5.54,10.34,0,17.11-8,19.53-17.59.13,0,20.37,1.85,21.29-18.05.48-10.4-9.32-17.94-19.71-18.04Z"/>
          <path class="cls-22" d="m272.8,44.12c.18-1.08.27-2.19.27-3.31,0-12.56-10.38-23.67-24.32-23.67-7.07,0-13.45,3.55-18.04,7.76-2.69-10.27-11.66-18.75-22.33-18.75-11.72,0-21.4,9.12-22.93,20.94-2.24-.97-4.7-1.52-7.27-1.52-8.48,0-14.73,7.67-17.16,15.71-1.05-.15-2.12-.23-3.2-.23-12.53,0-23.61,8.3-23.61,20.83s10.15,22.68,22.68,22.68c2.91,0,5.69-.55,8.24-1.55,1.73,8.44,9.19,14.79,18.14,14.79,4.51,0,8.64-1.61,11.85-4.29,4.51,6.51,12.03,10.77,20.55,10.77,9.05,0,16.98-4.81,21.37-12.02,3.9,3.45,9.02,5.54,14.64,5.54,10.34,0,17.11-8,19.53-17.59.13,0,20.37,1.85,21.29-18.05.48-10.4-9.32-17.94-19.71-18.04Z"/>
          <path class="cls-41" d="m272.56,43.88c.18-1.08.27-2.19.27-3.31,0-12.56-10.38-23.67-24.32-23.67-7.07,0-13.45,3.55-18.04,7.76-2.69-10.27-11.66-18.75-22.33-18.75-11.72,0-21.4,9.12-22.93,20.94-2.24-.97-4.7-1.52-7.27-1.52-8.48,0-14.73,7.67-17.16,15.71-1.05-.15-2.12-.23-3.2-.23-12.53,0-23.61,8.3-23.61,20.83s10.15,22.68,22.68,22.68c2.91,0,5.69-.55,8.24-1.55,1.73,8.44,9.19,14.79,18.14,14.79,4.51,0,8.64-1.61,11.85-4.29,4.51,6.51,12.03,10.77,20.55,10.77,9.05,0,16.98-4.81,21.37-12.02,3.9,3.45,9.02,5.54,14.64,5.54,10.34,0,17.11-8,19.53-17.59.13,0,20.37,1.85,21.29-18.05.48-10.4-9.32-17.94-19.71-18.04Z"/>
          <path class="cls-4" d="m272.31,43.63c.18-1.08.27-2.19.27-3.31,0-12.56-10.38-23.67-24.32-23.67-7.07,0-13.45,3.55-18.04,7.76-2.69-10.27-11.66-18.75-22.33-18.75-11.72,0-21.4,9.12-22.93,20.94-2.24-.97-4.7-1.52-7.27-1.52-8.48,0-14.73,7.67-17.16,15.71-1.05-.15-2.12-.23-3.2-.23-12.53,0-23.61,8.3-23.61,20.83s10.15,22.68,22.68,22.68c2.91,0,5.69-.55,8.24-1.55,1.73,8.44,9.19,14.79,18.14,14.79,4.51,0,8.64-1.61,11.85-4.29,4.51,6.51,12.03,10.77,20.55,10.77,9.05,0,16.98-4.81,21.37-12.02,3.9,3.45,9.02,5.54,14.64,5.54,10.34,0,17.11-8,19.53-17.59.13,0,20.37,1.85,21.29-18.05.48-10.4-9.32-17.94-19.71-18.04Z"/>
          <path class="cls-46" d="m272.07,43.39c.18-1.08.27-2.19.27-3.31,0-12.56-10.38-23.67-24.32-23.67-7.07,0-13.45,3.55-18.04,7.76-2.69-10.27-11.66-18.75-22.33-18.75-11.72,0-21.4,9.12-22.93,20.94-2.24-.97-4.7-1.52-7.27-1.52-8.48,0-14.73,7.67-17.16,15.71-1.05-.15-2.12-.23-3.2-.23-12.53,0-23.61,8.3-23.61,20.83s10.15,22.68,22.68,22.68c2.91,0,5.69-.55,8.24-1.55,1.73,8.44,9.19,14.79,18.14,14.79,4.51,0,8.64-1.61,11.85-4.29,4.51,6.51,12.03,10.77,20.55,10.77,9.05,0,16.98-4.81,21.37-12.02,3.9,3.45,9.02,5.54,14.64,5.54,10.34,0,17.11-8,19.53-17.59.13,0,20.37,1.85,21.29-18.05.48-10.4-9.32-17.94-19.71-18.04Z"/>
          <path class="cls-36" d="m271.83,43.14c.18-1.08.27-2.19.27-3.31,0-12.56-10.38-23.67-24.32-23.67-7.07,0-13.45,3.55-18.04,7.76-2.69-10.27-11.66-18.75-22.33-18.75-11.72,0-21.4,9.12-22.93,20.94-2.24-.97-4.7-1.52-7.27-1.52-8.48,0-14.73,7.67-17.16,15.71-1.05-.15-2.12-.23-3.2-.23-12.53,0-23.61,8.3-23.61,20.83s10.15,22.68,22.68,22.68c2.91,0,5.69-.55,8.24-1.55,1.72,8.44,9.19,14.79,18.14,14.79,4.51,0,8.64-1.62,11.85-4.29,4.51,6.51,12.03,10.77,20.55,10.77,9.05,0,16.98-4.81,21.37-12.02,3.9,3.45,9.02,5.54,14.64,5.54,10.34,0,17.11-8,19.53-17.59.13,0,20.37,1.85,21.29-18.05.48-10.4-9.32-17.94-19.71-18.04Z"/>
          <path class="cls-26" d="m271.58,42.9c.18-1.08.27-2.19.27-3.31,0-12.56-10.38-23.67-24.32-23.67-7.07,0-13.45,3.55-18.04,7.76-2.69-10.27-11.66-18.75-22.33-18.75-11.72,0-21.4,9.12-22.93,20.94-2.24-.97-4.7-1.52-7.27-1.52-8.48,0-14.73,7.67-17.16,15.71-1.05-.15-2.12-.23-3.2-.23-12.53,0-23.61,8.3-23.61,20.83s10.15,22.68,22.68,22.68c2.91,0,5.69-.55,8.24-1.55,1.73,8.44,9.19,14.79,18.14,14.79,4.51,0,8.64-1.61,11.85-4.29,4.51,6.51,12.03,10.77,20.55,10.77,9.05,0,16.98-4.81,21.37-12.02,3.9,3.45,9.02,5.54,14.64,5.54,10.34,0,17.11-8,19.53-17.59.13,0,20.37,1.85,21.29-18.05.48-10.4-9.32-17.94-19.71-18.04Z"/>
          <path class="cls-28" d="m271.34,42.66c.18-1.08.27-2.19.27-3.31,0-12.56-10.38-23.67-24.32-23.67-7.07,0-13.45,3.55-18.04,7.76-2.69-10.27-11.66-18.75-22.33-18.75-11.72,0-21.4,9.12-22.93,20.94-2.24-.97-4.7-1.52-7.27-1.52-8.48,0-14.73,7.67-17.16,15.71-1.05-.15-2.12-.23-3.2-.23-12.53,0-23.61,8.3-23.61,20.83s10.15,22.68,22.68,22.68c2.91,0,5.69-.55,8.24-1.55,1.73,8.44,9.19,14.79,18.14,14.79,4.51,0,8.64-1.61,11.85-4.29,4.51,6.51,12.03,10.77,20.55,10.77,9.05,0,16.98-4.81,21.37-12.02,3.9,3.45,9.02,5.54,14.64,5.54,10.34,0,17.11-8,19.53-17.59.13,0,20.37,1.85,21.29-18.05.48-10.4-9.32-17.94-19.71-18.04Z"/>
          <path class="cls-23" d="m271.09,42.41c.18-1.08.27-2.19.27-3.31,0-12.56-10.38-23.67-24.32-23.67-7.07,0-13.45,3.55-18.04,7.76-2.69-10.27-11.66-18.75-22.33-18.75-11.72,0-21.4,9.12-22.93,20.94-2.24-.97-4.7-1.52-7.27-1.52-8.48,0-14.73,7.67-17.16,15.71-1.05-.15-2.12-.23-3.2-.23-12.53,0-23.61,8.3-23.61,20.83s10.15,22.68,22.68,22.68c2.91,0,5.69-.55,8.24-1.55,1.73,8.44,9.19,14.79,18.14,14.79,4.51,0,8.64-1.61,11.85-4.29,4.51,6.51,12.03,10.77,20.55,10.77,9.05,0,16.98-4.81,21.37-12.02,3.9,3.45,9.02,5.54,14.64,5.54,10.34,0,17.11-8,19.53-17.59.13,0,20.37,1.85,21.29-18.05.48-10.4-9.32-17.94-19.71-18.04Z"/>
          <path class="cls-2" d="m270.85,42.17c.18-1.08.27-2.19.27-3.31,0-12.56-10.38-23.67-24.32-23.67-7.07,0-13.45,3.55-18.04,7.76-2.69-10.27-11.66-18.75-22.33-18.75-11.72,0-21.4,9.12-22.93,20.94-2.24-.97-4.7-1.52-7.27-1.52-8.48,0-14.73,7.67-17.16,15.71-1.05-.15-2.12-.23-3.2-.23-12.53,0-23.61,8.3-23.61,20.83s10.15,22.68,22.68,22.68c2.91,0,5.69-.55,8.24-1.55,1.73,8.44,9.19,14.79,18.14,14.79,4.51,0,8.64-1.61,11.85-4.29,4.51,6.51,12.03,10.77,20.55,10.77,9.05,0,16.98-4.81,21.37-12.02,3.9,3.45,9.02,5.54,14.64,5.54,10.34,0,17.11-8,19.53-17.59.13,0,20.37,1.85,21.29-18.05.48-10.4-9.32-17.94-19.71-18.04Z"/>
        </g>
        <path class="cls-20" d="m270.85,42.17c.18-1.08.27-2.19.27-3.31,0-12.56-10.38-23.67-24.32-23.67-7.07,0-13.45,3.55-18.04,7.76-2.69-10.27-11.66-18.75-22.33-18.75-11.72,0-21.4,9.12-22.93,20.94-2.24-.97-4.7-1.52-7.27-1.52-8.48,0-14.73,7.67-17.16,15.71-1.05-.15-2.12-.23-3.2-.23-12.53,0-23.61,8.3-23.61,20.83s10.15,22.68,22.68,22.68c2.91,0,5.69-.55,8.24-1.55,1.73,8.44,9.19,14.79,18.14,14.79,4.51,0,8.64-1.61,11.85-4.29,4.51,6.51,12.03,10.77,20.55,10.77,9.05,0,16.98-4.81,21.37-12.02,3.9,3.45,9.02,5.54,14.64,5.54,10.34,0,17.11-8,19.53-17.59.13,0,20.37,1.85,21.29-18.05.48-10.4-9.32-17.94-19.71-18.04Z"/>
      </g>
      <g>
        <g class="cls-5">
          <path class="cls-11" d="m205.33,83.32c-2.3,0-4.46.54-6.4,1.48-2.74-3.68-6.82-6.29-11.53-7.1-2.38-7.34-9.27-12.66-17.4-12.66-3.41,0-6.59.95-9.33,2.58-4.44-11.05-14.87-18.82-27.04-18.82-16.19,0-29.32,13.74-29.32,30.69,0,1.24.08,2.46.22,3.66-.36-.03-.72-.06-1.09-.06-8.12,0-14.71,6.59-14.71,14.71s6.4,14.51,14.36,14.69c-.27,2.32.05,4.68,1.06,6.89,3.22,7.06,12.18,9.89,20.02,6.31,1.57-.72,2.97-1.64,4.19-2.71,2.95,1.6,6.38,2.54,10.07,2.54.2,0,.39-.02.59-.03,4.69,5.48,11.5,8.93,19.08,8.93,9.21,0,17.29-5.1,21.8-12.74,2.66,2.76,6.32,4.47,10.36,4.47,7.49,0,13.67-5.87,14.58-13.46.16,0,.32.02.49.02,8.12,0,14.71-6.59,14.71-14.71s-6.59-14.71-14.71-14.71Z"/>
          <path class="cls-10" d="m205.09,83.08c-2.3,0-4.46.54-6.4,1.48-2.74-3.68-6.82-6.29-11.53-7.1-2.38-7.34-9.27-12.66-17.4-12.66-3.41,0-6.59.95-9.33,2.58-4.44-11.05-14.87-18.82-27.04-18.82-16.19,0-29.32,13.74-29.32,30.69,0,1.24.08,2.46.22,3.66-.36-.03-.72-.06-1.09-.06-8.12,0-14.71,6.59-14.71,14.71s6.4,14.51,14.36,14.69c-.27,2.32.05,4.68,1.06,6.89,3.22,7.06,12.18,9.89,20.02,6.31,1.57-.72,2.97-1.64,4.19-2.71,2.95,1.6,6.38,2.54,10.07,2.54.2,0,.39-.02.59-.03,4.69,5.48,11.5,8.93,19.08,8.93,9.21,0,17.29-5.1,21.8-12.74,2.66,2.76,6.32,4.47,10.36,4.47,7.49,0,13.67-5.87,14.58-13.46.16,0,.32.02.49.02,8.12,0,14.71-6.59,14.71-14.71s-6.59-14.71-14.71-14.71Z"/>
          <path class="cls-3" d="m204.84,82.83c-2.3,0-4.46.54-6.4,1.48-2.74-3.68-6.82-6.29-11.53-7.1-2.38-7.34-9.27-12.66-17.4-12.66-3.41,0-6.59.95-9.33,2.58-4.44-11.05-14.87-18.82-27.04-18.82-16.19,0-29.32,13.74-29.32,30.69,0,1.24.08,2.46.22,3.66-.36-.03-.72-.06-1.09-.06-8.12,0-14.71,6.59-14.71,14.71s6.4,14.51,14.36,14.69c-.27,2.32.05,4.68,1.06,6.89,3.22,7.06,12.18,9.89,20.02,6.31,1.57-.72,2.97-1.64,4.19-2.71,2.95,1.6,6.38,2.54,10.07,2.54.2,0,.39-.02.59-.03,4.69,5.48,11.5,8.93,19.08,8.93,9.21,0,17.29-5.1,21.8-12.74,2.66,2.76,6.32,4.47,10.36,4.47,7.49,0,13.67-5.87,14.58-13.46.16,0,.32.02.49.02,8.12,0,14.71-6.59,14.71-14.71s-6.59-14.71-14.71-14.71Z"/>
          <path class="cls-38" d="m204.6,82.59c-2.3,0-4.46.54-6.4,1.48-2.74-3.68-6.82-6.29-11.53-7.1-2.38-7.34-9.27-12.66-17.4-12.66-3.41,0-6.59.95-9.33,2.58-4.44-11.05-14.87-18.82-27.04-18.82-16.19,0-29.32,13.74-29.32,30.69,0,1.24.08,2.46.22,3.66-.36-.03-.72-.06-1.09-.06-8.12,0-14.71,6.59-14.71,14.71s6.4,14.51,14.36,14.69c-.27,2.32.05,4.68,1.06,6.89,3.22,7.06,12.18,9.89,20.02,6.31,1.57-.72,2.97-1.64,4.19-2.71,2.95,1.6,6.38,2.54,10.07,2.54.2,0,.39-.02.59-.03,4.69,5.48,11.5,8.93,19.08,8.93,9.21,0,17.29-5.1,21.8-12.74,2.66,2.76,6.32,4.47,10.36,4.47,7.49,0,13.67-5.87,14.58-13.46.16,0,.32.02.49.02,8.12,0,14.71-6.59,14.71-14.71s-6.59-14.71-14.71-14.71Z"/>
          <path class="cls-39" d="m204.35,82.34c-2.3,0-4.46.54-6.4,1.48-2.74-3.68-6.82-6.29-11.53-7.1-2.38-7.34-9.27-12.66-17.4-12.66-3.41,0-6.59.95-9.33,2.58-4.44-11.05-14.87-18.82-27.04-18.82-16.19,0-29.32,13.74-29.32,30.69,0,1.24.08,2.46.22,3.66-.36-.03-.72-.06-1.09-.06-8.12,0-14.71,6.59-14.71,14.71s6.4,14.51,14.36,14.69c-.27,2.32.05,4.68,1.06,6.89,3.22,7.06,12.18,9.89,20.02,6.31,1.57-.72,2.97-1.64,4.19-2.71,2.95,1.6,6.38,2.54,10.07,2.54.2,0,.39-.02.59-.03,4.69,5.48,11.5,8.93,19.08,8.93,9.21,0,17.29-5.1,21.8-12.74,2.66,2.76,6.32,4.47,10.36,4.47,7.49,0,13.67-5.87,14.58-13.46.16,0,.32.02.49.02,8.12,0,14.71-6.59,14.71-14.71s-6.59-14.71-14.71-14.71Z"/>
          <path class="cls-47" d="m204.11,82.1c-2.3,0-4.46.54-6.4,1.48-2.74-3.68-6.82-6.29-11.53-7.1-2.38-7.34-9.27-12.66-17.4-12.66-3.41,0-6.59.95-9.33,2.58-4.44-11.05-14.87-18.82-27.04-18.82-16.19,0-29.32,13.74-29.32,30.69,0,1.24.08,2.46.22,3.66-.36-.03-.72-.06-1.09-.06-8.12,0-14.71,6.59-14.71,14.71s6.4,14.51,14.36,14.69c-.27,2.32.05,4.68,1.06,6.89,3.22,7.06,12.18,9.89,20.02,6.31,1.57-.72,2.97-1.64,4.19-2.71,2.95,1.6,6.38,2.54,10.07,2.54.2,0,.39-.02.59-.03,4.69,5.48,11.5,8.93,19.08,8.93,9.21,0,17.29-5.1,21.8-12.74,2.66,2.76,6.32,4.47,10.36,4.47,7.49,0,13.67-5.87,14.58-13.46.16,0,.32.02.49.02,8.12,0,14.71-6.59,14.71-14.71s-6.59-14.71-14.71-14.71Z"/>
          <path class="cls-30" d="m203.87,81.86c-2.3,0-4.46.54-6.4,1.48-2.74-3.68-6.82-6.29-11.53-7.1-2.38-7.34-9.27-12.66-17.4-12.66-3.41,0-6.59.95-9.33,2.58-4.44-11.05-14.87-18.81-27.04-18.81-16.19,0-29.32,13.74-29.32,30.69,0,1.24.08,2.46.22,3.66-.36-.03-.72-.06-1.09-.06-8.12,0-14.71,6.59-14.71,14.71s6.4,14.51,14.36,14.69c-.27,2.32.05,4.68,1.06,6.89,3.22,7.06,12.18,9.89,20.02,6.31,1.57-.72,2.97-1.64,4.19-2.71,2.95,1.6,6.38,2.54,10.07,2.54.2,0,.39-.02.59-.03,4.69,5.48,11.5,8.93,19.08,8.93,9.21,0,17.29-5.1,21.8-12.74,2.66,2.76,6.32,4.47,10.36,4.47,7.49,0,13.67-5.87,14.58-13.46.16,0,.32.02.49.02,8.12,0,14.71-6.59,14.71-14.71s-6.59-14.71-14.71-14.71Z"/>
          <path class="cls-9" d="m203.62,81.61c-2.3,0-4.46.54-6.4,1.48-2.74-3.68-6.82-6.29-11.53-7.1-2.38-7.34-9.27-12.66-17.4-12.66-3.41,0-6.59.95-9.33,2.58-4.44-11.05-14.87-18.81-27.04-18.81-16.19,0-29.32,13.74-29.32,30.69,0,1.24.08,2.46.22,3.66-.36-.03-.72-.05-1.09-.05-8.12,0-14.71,6.59-14.71,14.71s6.4,14.51,14.36,14.69c-.27,2.32.05,4.68,1.06,6.89,3.22,7.06,12.18,9.89,20.02,6.31,1.57-.72,2.97-1.64,4.19-2.71,2.95,1.6,6.38,2.54,10.07,2.54.2,0,.39-.02.59-.03,4.69,5.48,11.5,8.93,19.08,8.93,9.21,0,17.29-5.1,21.8-12.74,2.66,2.76,6.32,4.47,10.36,4.47,7.49,0,13.67-5.87,14.58-13.46.16,0,.32.02.49.02,8.12,0,14.71-6.59,14.71-14.71s-6.59-14.71-14.71-14.71Z"/>
          <path class="cls-33" d="m203.38,81.37c-2.3,0-4.46.54-6.4,1.48-2.74-3.68-6.82-6.29-11.53-7.1-2.38-7.34-9.27-12.66-17.4-12.66-3.41,0-6.59.95-9.33,2.58-4.44-11.05-14.87-18.82-27.04-18.82-16.19,0-29.32,13.74-29.32,30.69,0,1.24.08,2.46.22,3.66-.36-.03-.72-.06-1.09-.06-8.12,0-14.71,6.59-14.71,14.71s6.4,14.51,14.36,14.69c-.27,2.32.05,4.68,1.06,6.89,3.22,7.06,12.18,9.89,20.02,6.31,1.57-.72,2.97-1.64,4.19-2.71,2.95,1.6,6.38,2.54,10.07,2.54.2,0,.39-.02.59-.03,4.69,5.48,11.5,8.93,19.08,8.93,9.21,0,17.29-5.1,21.8-12.74,2.66,2.76,6.32,4.47,10.36,4.47,7.49,0,13.67-5.87,14.58-13.46.16,0,.32.02.49.02,8.12,0,14.71-6.59,14.71-14.71s-6.59-14.71-14.71-14.71Z"/>
          <path class="cls-25" d="m203.14,81.12c-2.3,0-4.46.54-6.4,1.48-2.74-3.68-6.82-6.29-11.53-7.1-2.38-7.34-9.27-12.66-17.4-12.66-3.41,0-6.59.95-9.33,2.58-4.44-11.05-14.87-18.82-27.04-18.82-16.19,0-29.32,13.74-29.32,30.69,0,1.24.08,2.46.22,3.66-.36-.03-.72-.06-1.09-.06-8.12,0-14.71,6.59-14.71,14.71s6.4,14.51,14.36,14.69c-.27,2.32.05,4.68,1.06,6.89,3.22,7.06,12.18,9.89,20.02,6.31,1.57-.72,2.97-1.64,4.19-2.71,2.95,1.6,6.38,2.54,10.07,2.54.2,0,.39-.02.59-.03,4.69,5.48,11.5,8.93,19.08,8.93,9.21,0,17.29-5.1,21.8-12.74,2.66,2.76,6.32,4.47,10.36,4.47,7.49,0,13.67-5.87,14.58-13.46.16,0,.32.02.49.02,8.12,0,14.71-6.59,14.71-14.71s-6.59-14.71-14.71-14.71Z"/>
          <path class="cls-42" d="m202.89,80.88c-2.3,0-4.46.54-6.4,1.48-2.74-3.68-6.82-6.29-11.53-7.1-2.38-7.34-9.27-12.66-17.4-12.66-3.41,0-6.59.95-9.33,2.58-4.44-11.05-14.87-18.81-27.04-18.81-16.19,0-29.32,13.74-29.32,30.69,0,1.24.08,2.46.22,3.66-.36-.03-.72-.06-1.09-.06-8.12,0-14.71,6.59-14.71,14.71s6.4,14.51,14.36,14.69c-.27,2.32.05,4.68,1.06,6.89,3.22,7.06,12.18,9.89,20.02,6.31,1.57-.72,2.97-1.64,4.19-2.71,2.95,1.6,6.38,2.54,10.07,2.54.2,0,.39-.02.59-.03,4.69,5.48,11.5,8.93,19.08,8.93,9.21,0,17.29-5.1,21.8-12.74,2.66,2.76,6.32,4.47,10.36,4.47,7.49,0,13.67-5.87,14.58-13.46.16,0,.32.02.49.02,8.12,0,14.71-6.59,14.71-14.71s-6.59-14.71-14.71-14.71Z"/>
          <path class="cls-32" d="m202.65,80.64c-2.3,0-4.46.54-6.4,1.48-2.74-3.68-6.82-6.29-11.53-7.1-2.38-7.34-9.27-12.66-17.4-12.66-3.41,0-6.59.95-9.33,2.58-4.44-11.05-14.87-18.82-27.04-18.82-16.19,0-29.32,13.74-29.32,30.69,0,1.24.08,2.46.22,3.66-.36-.03-.72-.05-1.09-.05-8.12,0-14.71,6.59-14.71,14.71s6.4,14.51,14.36,14.69c-.27,2.32.05,4.68,1.06,6.89,3.22,7.06,12.18,9.89,20.02,6.31,1.57-.72,2.97-1.64,4.19-2.71,2.95,1.6,6.38,2.54,10.07,2.54.2,0,.39-.02.59-.03,4.69,5.48,11.5,8.93,19.08,8.93,9.21,0,17.29-5.1,21.8-12.74,2.66,2.76,6.32,4.47,10.36,4.47,7.49,0,13.67-5.87,14.58-13.46.16,0,.32.02.49.02,8.12,0,14.71-6.59,14.71-14.71s-6.59-14.71-14.71-14.71Z"/>
          <path class="cls-12" d="m202.4,80.39c-2.3,0-4.46.54-6.4,1.48-2.74-3.68-6.82-6.29-11.53-7.1-2.38-7.34-9.27-12.66-17.4-12.66-3.41,0-6.59.95-9.33,2.58-4.44-11.05-14.87-18.82-27.04-18.82-16.19,0-29.32,13.74-29.32,30.69,0,1.24.08,2.46.22,3.66-.36-.03-.72-.05-1.09-.05-8.12,0-14.71,6.59-14.71,14.71s6.4,14.51,14.36,14.69c-.27,2.32.05,4.68,1.06,6.89,3.22,7.06,12.18,9.89,20.02,6.31,1.57-.72,2.97-1.64,4.19-2.71,2.95,1.6,6.38,2.54,10.07,2.54.2,0,.39-.02.59-.03,4.69,5.48,11.5,8.93,19.08,8.93,9.21,0,17.29-5.1,21.8-12.74,2.66,2.76,6.32,4.47,10.36,4.47,7.49,0,13.67-5.87,14.58-13.46.16,0,.32.02.49.02,8.12,0,14.71-6.59,14.71-14.71s-6.59-14.71-14.71-14.71Z"/>
          <path class="cls-13" d="m202.16,80.15c-2.3,0-4.46.54-6.4,1.48-2.74-3.68-6.82-6.29-11.53-7.1-2.38-7.34-9.27-12.66-17.4-12.66-3.41,0-6.59.95-9.33,2.58-4.44-11.05-14.87-18.81-27.04-18.81-16.19,0-29.32,13.74-29.32,30.69,0,1.24.08,2.46.22,3.66-.36-.03-.72-.06-1.09-.06-8.12,0-14.71,6.59-14.71,14.71s6.4,14.51,14.36,14.69c-.27,2.32.05,4.68,1.06,6.89,3.22,7.06,12.18,9.89,20.02,6.31,1.57-.72,2.97-1.64,4.19-2.71,2.95,1.6,6.38,2.54,10.07,2.54.2,0,.39-.02.59-.03,4.69,5.48,11.5,8.93,19.08,8.93,9.21,0,17.29-5.1,21.8-12.74,2.66,2.76,6.32,4.47,10.36,4.47,7.49,0,13.67-5.87,14.58-13.46.16,0,.32.02.49.02,8.12,0,14.71-6.59,14.71-14.71s-6.59-14.71-14.71-14.71Z"/>
          <path class="cls-17" d="m201.92,79.9c-2.3,0-4.46.54-6.4,1.48-2.74-3.68-6.82-6.29-11.53-7.1-2.38-7.34-9.27-12.66-17.4-12.66-3.41,0-6.59.95-9.33,2.58-4.44-11.05-14.87-18.82-27.04-18.82-16.19,0-29.32,13.74-29.32,30.69,0,1.24.08,2.46.22,3.66-.36-.03-.72-.06-1.09-.06-8.12,0-14.71,6.59-14.71,14.71s6.4,14.51,14.36,14.69c-.27,2.32.05,4.68,1.06,6.89,3.22,7.06,12.18,9.89,20.02,6.31,1.57-.72,2.97-1.64,4.19-2.71,2.95,1.6,6.38,2.54,10.07,2.54.2,0,.39-.02.59-.03,4.69,5.48,11.5,8.93,19.08,8.93,9.21,0,17.29-5.1,21.8-12.74,2.66,2.76,6.32,4.47,10.36,4.47,7.49,0,13.67-5.87,14.58-13.46.16,0,.32.02.49.02,8.12,0,14.71-6.59,14.71-14.71s-6.59-14.71-14.71-14.71Z"/>
          <path class="cls-27" d="m201.67,79.66c-2.3,0-4.46.54-6.4,1.48-2.74-3.68-6.82-6.29-11.53-7.1-2.38-7.34-9.27-12.66-17.4-12.66-3.41,0-6.59.95-9.33,2.58-4.44-11.05-14.87-18.82-27.04-18.82-16.19,0-29.32,13.74-29.32,30.69,0,1.24.08,2.46.22,3.66-.36-.03-.72-.06-1.09-.06-8.12,0-14.71,6.59-14.71,14.71s6.4,14.51,14.36,14.69c-.27,2.32.05,4.68,1.06,6.89,3.22,7.06,12.18,9.89,20.02,6.31,1.57-.72,2.97-1.64,4.19-2.71,2.95,1.6,6.38,2.54,10.07,2.54.2,0,.39-.02.59-.03,4.69,5.48,11.5,8.93,19.08,8.93,9.21,0,17.29-5.1,21.8-12.74,2.66,2.76,6.32,4.47,10.36,4.47,7.49,0,13.67-5.87,14.58-13.46.16,0,.32.02.49.02,8.12,0,14.71-6.59,14.71-14.71s-6.59-14.71-14.71-14.71Z"/>
          <path class="cls-34" d="m201.43,79.42c-2.3,0-4.46.54-6.4,1.48-2.74-3.68-6.82-6.29-11.53-7.1-2.38-7.34-9.27-12.66-17.4-12.66-3.41,0-6.59.95-9.33,2.58-4.44-11.05-14.87-18.82-27.04-18.82-16.19,0-29.32,13.74-29.32,30.69,0,1.24.08,2.46.22,3.66-.36-.03-.72-.06-1.09-.06-8.12,0-14.71,6.59-14.71,14.71s6.4,14.51,14.36,14.69c-.27,2.32.05,4.68,1.06,6.89,3.22,7.06,12.18,9.89,20.02,6.31,1.57-.72,2.97-1.64,4.19-2.71,2.95,1.6,6.38,2.54,10.07,2.54.2,0,.39-.02.59-.03,4.69,5.48,11.5,8.93,19.08,8.93,9.21,0,17.29-5.1,21.8-12.74,2.66,2.76,6.32,4.47,10.36,4.47,7.49,0,13.67-5.87,14.58-13.46.16,0,.32.02.49.02,8.12,0,14.71-6.59,14.71-14.71s-6.59-14.71-14.71-14.71Z"/>
          <path class="cls-14" d="m201.18,79.17c-2.3,0-4.46.54-6.4,1.48-2.74-3.68-6.82-6.29-11.53-7.1-2.38-7.34-9.27-12.66-17.4-12.66-3.41,0-6.59.95-9.33,2.58-4.44-11.05-14.87-18.82-27.04-18.82-16.19,0-29.32,13.74-29.32,30.69,0,1.24.08,2.46.22,3.66-.36-.03-.72-.06-1.09-.06-8.12,0-14.71,6.59-14.71,14.71s6.4,14.51,14.36,14.69c-.27,2.32.05,4.68,1.06,6.89,3.22,7.06,12.18,9.89,20.02,6.31,1.57-.72,2.97-1.64,4.19-2.71,2.95,1.6,6.38,2.54,10.07,2.54.2,0,.39-.02.59-.03,4.69,5.48,11.5,8.93,19.08,8.93,9.21,0,17.29-5.1,21.8-12.74,2.66,2.76,6.32,4.47,10.36,4.47,7.49,0,13.67-5.87,14.58-13.46.16,0,.32.02.49.02,8.12,0,14.71-6.59,14.71-14.71s-6.59-14.71-14.71-14.71Z"/>
          <path class="cls-15" d="m200.94,78.93c-2.3,0-4.46.54-6.4,1.48-2.74-3.68-6.82-6.29-11.53-7.1-2.38-7.34-9.27-12.66-17.4-12.66-3.41,0-6.59.95-9.33,2.58-4.44-11.05-14.87-18.81-27.04-18.81-16.19,0-29.32,13.74-29.32,30.69,0,1.24.08,2.46.22,3.66-.36-.03-.72-.05-1.09-.05-8.12,0-14.71,6.59-14.71,14.71s6.4,14.51,14.36,14.69c-.27,2.32.05,4.68,1.06,6.89,3.22,7.06,12.18,9.89,20.02,6.31,1.57-.72,2.97-1.64,4.19-2.71,2.95,1.6,6.38,2.54,10.07,2.54.2,0,.39-.02.59-.03,4.69,5.48,11.5,8.93,19.08,8.93,9.21,0,17.29-5.1,21.8-12.74,2.66,2.76,6.32,4.47,10.36,4.47,7.49,0,13.67-5.87,14.58-13.46.16,0,.32.02.49.02,8.12,0,14.71-6.59,14.71-14.71s-6.59-14.71-14.71-14.71Z"/>
          <path class="cls-24" d="m200.7,78.68c-2.3,0-4.46.54-6.4,1.48-2.74-3.68-6.82-6.29-11.53-7.1-2.38-7.34-9.27-12.66-17.4-12.66-3.41,0-6.59.95-9.33,2.58-4.44-11.05-14.87-18.82-27.04-18.82-16.19,0-29.32,13.74-29.32,30.69,0,1.24.08,2.46.22,3.66-.36-.03-.72-.06-1.09-.06-8.12,0-14.71,6.59-14.71,14.71s6.4,14.51,14.36,14.69c-.27,2.32.05,4.68,1.06,6.89,3.22,7.06,12.18,9.89,20.02,6.31,1.57-.72,2.97-1.64,4.19-2.71,2.95,1.6,6.38,2.54,10.07,2.54.2,0,.39-.02.59-.03,4.69,5.48,11.5,8.93,19.08,8.93,9.21,0,17.29-5.1,21.8-12.74,2.66,2.76,6.32,4.47,10.36,4.47,7.49,0,13.67-5.87,14.58-13.46.16,0,.32.02.49.02,8.12,0,14.71-6.59,14.71-14.71s-6.59-14.71-14.71-14.71Z"/>
          <path class="cls-8" d="m200.45,78.44c-2.3,0-4.46.54-6.4,1.48-2.74-3.68-6.82-6.29-11.53-7.1-2.38-7.34-9.27-12.66-17.4-12.66-3.41,0-6.59.95-9.33,2.58-4.44-11.05-14.87-18.82-27.04-18.82-16.19,0-29.32,13.74-29.32,30.69,0,1.24.08,2.46.22,3.66-.36-.03-.72-.06-1.09-.06-8.12,0-14.71,6.59-14.71,14.71s6.4,14.51,14.36,14.69c-.27,2.32.05,4.68,1.06,6.89,3.22,7.06,12.18,9.89,20.02,6.31,1.57-.72,2.97-1.64,4.19-2.71,2.95,1.6,6.38,2.54,10.07,2.54.2,0,.39-.02.59-.03,4.69,5.48,11.5,8.93,19.08,8.93,9.21,0,17.29-5.1,21.8-12.74,2.66,2.76,6.32,4.47,10.36,4.47,7.49,0,13.67-5.87,14.58-13.46.16,0,.32.02.49.02,8.12,0,14.71-6.59,14.71-14.71s-6.59-14.71-14.71-14.71Z"/>
          <path class="cls-1" d="m200.21,78.2c-2.3,0-4.46.54-6.4,1.48-2.74-3.68-6.82-6.29-11.53-7.1-2.38-7.34-9.27-12.66-17.4-12.66-3.41,0-6.59.95-9.33,2.58-4.44-11.05-14.87-18.82-27.04-18.82-16.19,0-29.32,13.74-29.32,30.69,0,1.24.08,2.46.22,3.66-.36-.03-.72-.05-1.09-.05-8.12,0-14.71,6.59-14.71,14.71s6.4,14.51,14.36,14.69c-.27,2.32.05,4.68,1.06,6.89,3.22,7.06,12.18,9.89,20.02,6.31,1.57-.72,2.97-1.64,4.19-2.71,2.95,1.6,6.38,2.54,10.07,2.54.2,0,.39-.02.59-.03,4.69,5.48,11.5,8.93,19.08,8.93,9.21,0,17.29-5.1,21.8-12.74,2.66,2.76,6.32,4.47,10.36,4.47,7.49,0,13.67-5.87,14.58-13.46.16,0,.32.02.49.02,8.12,0,14.71-6.59,14.71-14.71s-6.59-14.71-14.71-14.71Z"/>
          <path class="cls-35" d="m199.96,77.95c-2.3,0-4.46.54-6.4,1.48-2.74-3.68-6.82-6.29-11.53-7.1-2.38-7.34-9.27-12.66-17.4-12.66-3.41,0-6.59.95-9.33,2.58-4.44-11.05-14.87-18.82-27.04-18.82-16.19,0-29.32,13.74-29.32,30.69,0,1.24.08,2.46.22,3.66-.36-.03-.72-.06-1.09-.06-8.12,0-14.71,6.59-14.71,14.71s6.4,14.51,14.36,14.69c-.27,2.32.05,4.68,1.06,6.89,3.22,7.06,12.18,9.89,20.02,6.31,1.57-.72,2.97-1.64,4.19-2.71,2.95,1.6,6.38,2.54,10.07,2.54.2,0,.39-.02.59-.03,4.69,5.48,11.5,8.93,19.08,8.93,9.21,0,17.29-5.1,21.8-12.74,2.66,2.76,6.32,4.47,10.36,4.47,7.49,0,13.67-5.87,14.58-13.46.16,0,.32.02.49.02,8.12,0,14.71-6.59,14.71-14.71s-6.59-14.71-14.71-14.71Z"/>
          <path class="cls-43" d="m199.72,77.71c-2.3,0-4.46.54-6.4,1.48-2.74-3.68-6.82-6.29-11.53-7.1-2.38-7.34-9.27-12.66-17.4-12.66-3.41,0-6.59.95-9.33,2.58-4.44-11.05-14.87-18.82-27.04-18.82-16.19,0-29.32,13.74-29.32,30.69,0,1.24.08,2.46.22,3.66-.36-.03-.72-.06-1.09-.06-8.12,0-14.71,6.59-14.71,14.71s6.4,14.51,14.36,14.69c-.27,2.32.05,4.68,1.06,6.89,3.22,7.06,12.18,9.89,20.02,6.31,1.57-.72,2.97-1.64,4.19-2.71,2.95,1.6,6.38,2.54,10.07,2.54.2,0,.39-.02.59-.03,4.69,5.48,11.5,8.93,19.08,8.93,9.21,0,17.29-5.1,21.8-12.74,2.66,2.76,6.32,4.47,10.36,4.47,7.49,0,13.67-5.87,14.58-13.46.16,0,.32.02.49.02,8.12,0,14.71-6.59,14.71-14.71s-6.59-14.71-14.71-14.71Z"/>
          <path class="cls-7" d="m199.48,77.47c-2.3,0-4.46.54-6.4,1.48-2.74-3.68-6.82-6.29-11.53-7.1-2.38-7.34-9.27-12.66-17.4-12.66-3.41,0-6.59.95-9.33,2.58-4.44-11.05-14.87-18.82-27.04-18.82-16.19,0-29.32,13.74-29.32,30.69,0,1.24.08,2.46.22,3.66-.36-.03-.72-.06-1.09-.06-8.12,0-14.71,6.59-14.71,14.71s6.4,14.51,14.36,14.69c-.27,2.32.05,4.68,1.06,6.89,3.22,7.06,12.18,9.89,20.02,6.31,1.57-.72,2.97-1.64,4.19-2.71,2.95,1.6,6.38,2.54,10.07,2.54.2,0,.39-.02.59-.03,4.69,5.48,11.5,8.93,19.08,8.93,9.21,0,17.29-5.1,21.8-12.74,2.66,2.76,6.32,4.47,10.36,4.47,7.49,0,13.67-5.87,14.58-13.46.16,0,.32.02.49.02,8.12,0,14.71-6.59,14.71-14.71s-6.59-14.71-14.71-14.71Z"/>
          <path class="cls-18" d="m199.23,77.22c-2.3,0-4.46.54-6.4,1.48-2.74-3.68-6.82-6.29-11.53-7.1-2.38-7.34-9.27-12.66-17.4-12.66-3.41,0-6.59.95-9.33,2.58-4.44-11.05-14.87-18.82-27.04-18.82-16.19,0-29.32,13.74-29.32,30.69,0,1.24.08,2.46.22,3.66-.36-.03-.72-.06-1.09-.06-8.12,0-14.71,6.59-14.71,14.71s6.4,14.51,14.36,14.69c-.27,2.32.05,4.68,1.06,6.89,3.22,7.06,12.18,9.89,20.02,6.31,1.57-.72,2.97-1.64,4.19-2.71,2.95,1.6,6.38,2.54,10.07,2.54.2,0,.39-.02.59-.03,4.69,5.48,11.5,8.93,19.08,8.93,9.21,0,17.29-5.1,21.8-12.74,2.66,2.76,6.32,4.47,10.36,4.47,7.49,0,13.67-5.87,14.58-13.46.16,0,.32.02.49.02,8.12,0,14.71-6.59,14.71-14.71s-6.59-14.71-14.71-14.71Z"/>
          <path class="cls-40" d="m198.99,76.98c-2.3,0-4.46.54-6.4,1.48-2.74-3.68-6.82-6.29-11.53-7.1-2.38-7.34-9.27-12.66-17.4-12.66-3.41,0-6.59.95-9.33,2.58-4.44-11.05-14.87-18.82-27.04-18.82-16.19,0-29.32,13.74-29.32,30.69,0,1.24.08,2.46.22,3.66-.36-.03-.72-.06-1.09-.06-8.12,0-14.71,6.59-14.71,14.71s6.4,14.51,14.36,14.69c-.27,2.32.05,4.68,1.06,6.89,3.22,7.06,12.18,9.89,20.02,6.31,1.57-.72,2.97-1.64,4.19-2.71,2.95,1.6,6.38,2.54,10.07,2.54.2,0,.39-.02.59-.03,4.69,5.48,11.5,8.93,19.08,8.93,9.21,0,17.29-5.1,21.8-12.74,2.66,2.76,6.32,4.47,10.36,4.47,7.49,0,13.67-5.87,14.58-13.46.16,0,.32.02.49.02,8.12,0,14.71-6.59,14.71-14.71s-6.59-14.71-14.71-14.71Z"/>
          <path class="cls-37" d="m198.75,76.73c-2.3,0-4.46.54-6.4,1.48-2.74-3.68-6.82-6.29-11.53-7.1-2.38-7.34-9.27-12.66-17.4-12.66-3.41,0-6.59.95-9.33,2.58-4.44-11.05-14.87-18.82-27.04-18.82-16.19,0-29.32,13.74-29.32,30.69,0,1.24.08,2.46.22,3.66-.36-.03-.72-.05-1.09-.05-8.12,0-14.71,6.59-14.71,14.71s6.4,14.51,14.36,14.69c-.27,2.32.05,4.68,1.06,6.89,3.22,7.06,12.18,9.89,20.02,6.31,1.57-.72,2.97-1.64,4.19-2.71,2.95,1.6,6.38,2.54,10.07,2.54.2,0,.39-.02.59-.03,4.69,5.48,11.5,8.93,19.08,8.93,9.21,0,17.29-5.1,21.8-12.74,2.66,2.76,6.32,4.47,10.36,4.47,7.49,0,13.67-5.87,14.58-13.46.16,0,.32.02.49.02,8.12,0,14.71-6.59,14.71-14.71s-6.59-14.71-14.71-14.71Z"/>
          <path class="cls-29" d="m198.5,76.49c-2.3,0-4.46.54-6.4,1.48-2.74-3.68-6.82-6.29-11.53-7.1-2.38-7.34-9.27-12.66-17.4-12.66-3.41,0-6.59.95-9.33,2.58-4.44-11.05-14.87-18.82-27.04-18.82-16.19,0-29.32,13.74-29.32,30.69,0,1.24.08,2.46.22,3.66-.36-.03-.72-.06-1.09-.06-8.12,0-14.71,6.59-14.71,14.71s6.4,14.51,14.36,14.69c-.27,2.32.05,4.68,1.06,6.89,3.22,7.06,12.18,9.89,20.02,6.31,1.57-.72,2.97-1.64,4.19-2.71,2.95,1.6,6.38,2.54,10.07,2.54.2,0,.39-.02.59-.03,4.69,5.48,11.5,8.93,19.08,8.93,9.21,0,17.29-5.1,21.8-12.74,2.66,2.76,6.32,4.47,10.36,4.47,7.49,0,13.67-5.87,14.58-13.46.16,0,.32.02.49.02,8.12,0,14.71-6.59,14.71-14.71s-6.59-14.71-14.71-14.71Z"/>
          <path class="cls-44" d="m198.26,76.25c-2.3,0-4.46.54-6.4,1.48-2.74-3.68-6.82-6.29-11.53-7.1-2.38-7.34-9.27-12.66-17.4-12.66-3.41,0-6.59.95-9.33,2.58-4.44-11.05-14.87-18.82-27.04-18.82-16.19,0-29.32,13.74-29.32,30.69,0,1.24.08,2.46.22,3.66-.36-.03-.72-.06-1.09-.06-8.12,0-14.71,6.59-14.71,14.71s6.4,14.51,14.36,14.69c-.27,2.32.05,4.68,1.06,6.89,3.22,7.06,12.18,9.89,20.02,6.31,1.57-.72,2.97-1.64,4.19-2.71,2.95,1.6,6.38,2.54,10.07,2.54.2,0,.39-.02.59-.03,4.69,5.48,11.5,8.93,19.08,8.93,9.21,0,17.29-5.1,21.8-12.74,2.66,2.76,6.32,4.47,10.36,4.47,7.49,0,13.67-5.87,14.58-13.46.16,0,.32.02.49.02,8.12,0,14.71-6.59,14.71-14.71s-6.59-14.71-14.71-14.71Z"/>
          <path class="cls-31" d="m198.01,76c-2.3,0-4.46.54-6.4,1.48-2.74-3.68-6.82-6.29-11.53-7.1-2.38-7.34-9.27-12.66-17.4-12.66-3.41,0-6.59.95-9.33,2.58-4.44-11.05-14.87-18.82-27.04-18.82-16.19,0-29.32,13.74-29.32,30.69,0,1.24.08,2.46.22,3.66-.36-.03-.72-.06-1.09-.06-8.12,0-14.71,6.59-14.71,14.71s6.4,14.51,14.36,14.69c-.27,2.32.05,4.68,1.06,6.89,3.22,7.06,12.18,9.89,20.02,6.31,1.57-.72,2.97-1.64,4.19-2.71,2.95,1.6,6.38,2.54,10.07,2.54.2,0,.39-.02.59-.03,4.69,5.48,11.5,8.93,19.08,8.93,9.21,0,17.29-5.1,21.8-12.74,2.66,2.76,6.32,4.47,10.36,4.47,7.49,0,13.67-5.87,14.58-13.46.16,0,.32.02.49.02,8.12,0,14.71-6.59,14.71-14.71s-6.59-14.71-14.71-14.71Z"/>
          <path class="cls-45" d="m197.77,75.76c-2.3,0-4.46.54-6.4,1.48-2.74-3.68-6.82-6.29-11.53-7.1-2.38-7.34-9.27-12.66-17.4-12.66-3.41,0-6.59.95-9.33,2.58-4.44-11.05-14.87-18.82-27.04-18.82-16.19,0-29.32,13.74-29.32,30.69,0,1.24.08,2.46.22,3.66-.36-.03-.72-.06-1.09-.06-8.12,0-14.71,6.59-14.71,14.71s6.4,14.51,14.36,14.69c-.27,2.32.05,4.68,1.06,6.89,3.22,7.06,12.18,9.89,20.02,6.31,1.57-.72,2.97-1.64,4.19-2.71,2.95,1.6,6.38,2.54,10.07,2.54.2,0,.39-.02.59-.03,4.69,5.48,11.5,8.93,19.08,8.93,9.21,0,17.29-5.1,21.8-12.74,2.66,2.76,6.32,4.47,10.36,4.47,7.49,0,13.67-5.87,14.58-13.46.16,0,.32.02.49.02,8.12,0,14.71-6.59,14.71-14.71s-6.59-14.71-14.71-14.71Z"/>
          <path class="cls-6" d="m197.53,75.51c-2.3,0-4.46.54-6.4,1.48-2.74-3.68-6.82-6.29-11.53-7.1-2.38-7.34-9.27-12.66-17.4-12.66-3.41,0-6.59.95-9.33,2.58-4.44-11.05-14.87-18.82-27.04-18.82-16.19,0-29.32,13.74-29.32,30.69,0,1.24.08,2.46.22,3.66-.36-.03-.72-.06-1.09-.06-8.12,0-14.71,6.59-14.71,14.71s6.4,14.51,14.36,14.69c-.27,2.32.05,4.68,1.06,6.89,3.22,7.06,12.18,9.89,20.02,6.31,1.57-.72,2.97-1.64,4.19-2.71,2.95,1.6,6.38,2.54,10.07,2.54.2,0,.39-.02.59-.03,4.69,5.48,11.5,8.93,19.08,8.93,9.21,0,17.29-5.1,21.8-12.74,2.66,2.76,6.32,4.47,10.36,4.47,7.49,0,13.67-5.87,14.58-13.46.16,0,.32.02.49.02,8.12,0,14.71-6.59,14.71-14.71s-6.59-14.71-14.71-14.71Z"/>
          <path class="cls-22" d="m197.28,75.27c-2.3,0-4.46.54-6.4,1.48-2.74-3.68-6.82-6.29-11.53-7.1-2.38-7.34-9.27-12.66-17.4-12.66-3.41,0-6.59.95-9.33,2.58-4.44-11.05-14.87-18.82-27.04-18.82-16.19,0-29.32,13.74-29.32,30.69,0,1.24.08,2.46.22,3.66-.36-.03-.72-.06-1.09-.06-8.12,0-14.71,6.59-14.71,14.71s6.4,14.51,14.36,14.69c-.27,2.32.05,4.68,1.06,6.89,3.22,7.06,12.18,9.89,20.02,6.31,1.57-.72,2.97-1.64,4.19-2.71,2.95,1.6,6.38,2.54,10.07,2.54.2,0,.39-.02.59-.03,4.69,5.48,11.5,8.93,19.08,8.93,9.21,0,17.29-5.1,21.8-12.74,2.66,2.76,6.32,4.47,10.36,4.47,7.49,0,13.67-5.87,14.58-13.46.16,0,.32.02.49.02,8.12,0,14.71-6.59,14.71-14.71s-6.59-14.71-14.71-14.71Z"/>
          <path class="cls-41" d="m197.04,75.03c-2.3,0-4.46.54-6.4,1.48-2.74-3.68-6.82-6.29-11.53-7.1-2.38-7.34-9.27-12.66-17.4-12.66-3.41,0-6.59.95-9.33,2.58-4.44-11.05-14.87-18.81-27.04-18.81-16.19,0-29.32,13.74-29.32,30.69,0,1.24.08,2.46.22,3.66-.36-.03-.72-.05-1.09-.05-8.12,0-14.71,6.59-14.71,14.71s6.4,14.51,14.36,14.69c-.27,2.32.05,4.68,1.06,6.89,3.22,7.06,12.18,9.89,20.02,6.31,1.57-.72,2.97-1.64,4.19-2.71,2.95,1.6,6.38,2.54,10.07,2.54.2,0,.39-.02.59-.03,4.69,5.48,11.5,8.93,19.08,8.93,9.21,0,17.29-5.1,21.8-12.74,2.66,2.76,6.32,4.47,10.36,4.47,7.49,0,13.67-5.87,14.58-13.46.16,0,.32.02.49.02,8.12,0,14.71-6.59,14.71-14.71s-6.59-14.71-14.71-14.71Z"/>
          <path class="cls-4" d="m196.79,74.78c-2.3,0-4.46.54-6.4,1.48-2.74-3.68-6.82-6.29-11.53-7.1-2.38-7.34-9.27-12.66-17.4-12.66-3.41,0-6.59.95-9.33,2.58-4.44-11.05-14.87-18.82-27.04-18.82-16.19,0-29.32,13.74-29.32,30.69,0,1.24.08,2.46.22,3.66-.36-.03-.72-.06-1.09-.06-8.12,0-14.71,6.59-14.71,14.71s6.4,14.51,14.36,14.69c-.27,2.32.05,4.68,1.06,6.89,3.22,7.06,12.18,9.89,20.02,6.31,1.57-.72,2.97-1.64,4.19-2.71,2.95,1.6,6.38,2.54,10.07,2.54.2,0,.39-.02.59-.03,4.69,5.48,11.5,8.93,19.08,8.93,9.21,0,17.29-5.1,21.8-12.74,2.66,2.76,6.32,4.47,10.36,4.47,7.49,0,13.67-5.87,14.58-13.46.16,0,.32.02.49.02,8.12,0,14.71-6.59,14.71-14.71s-6.59-14.71-14.71-14.71Z"/>
          <path class="cls-46" d="m196.55,74.54c-2.3,0-4.46.54-6.4,1.48-2.74-3.68-6.82-6.29-11.53-7.1-2.38-7.34-9.27-12.66-17.4-12.66-3.41,0-6.59.95-9.33,2.58-4.44-11.05-14.87-18.82-27.04-18.82-16.19,0-29.32,13.74-29.32,30.69,0,1.24.08,2.46.22,3.66-.36-.03-.72-.06-1.09-.06-8.12,0-14.71,6.59-14.71,14.71s6.4,14.51,14.36,14.69c-.27,2.32.05,4.68,1.06,6.89,3.22,7.06,12.18,9.89,20.02,6.31,1.57-.72,2.97-1.64,4.19-2.71,2.95,1.6,6.38,2.54,10.07,2.54.2,0,.39-.02.59-.03,4.69,5.48,11.5,8.93,19.08,8.93,9.21,0,17.29-5.1,21.8-12.74,2.66,2.76,6.32,4.47,10.36,4.47,7.49,0,13.67-5.87,14.58-13.46.16,0,.32.02.49.02,8.12,0,14.71-6.59,14.71-14.71s-6.59-14.71-14.71-14.71Z"/>
          <path class="cls-36" d="m196.31,74.29c-2.3,0-4.46.54-6.4,1.48-2.74-3.68-6.82-6.29-11.53-7.1-2.38-7.34-9.27-12.66-17.4-12.66-3.41,0-6.59.95-9.33,2.58-4.44-11.05-14.87-18.82-27.04-18.82-16.19,0-29.32,13.74-29.32,30.69,0,1.24.08,2.46.22,3.66-.36-.03-.72-.06-1.09-.06-8.12,0-14.71,6.59-14.71,14.71s6.4,14.51,14.36,14.69c-.27,2.32.05,4.68,1.06,6.89,3.22,7.06,12.18,9.89,20.02,6.31,1.57-.72,2.97-1.64,4.19-2.71,2.95,1.6,6.38,2.54,10.07,2.54.2,0,.39-.02.59-.03,4.69,5.48,11.5,8.93,19.08,8.93,9.21,0,17.29-5.1,21.8-12.74,2.66,2.76,6.32,4.47,10.36,4.47,7.49,0,13.67-5.87,14.58-13.46.16,0,.32.02.49.02,8.12,0,14.71-6.59,14.71-14.71s-6.59-14.71-14.71-14.71Z"/>
          <path class="cls-26" d="m196.06,74.05c-2.3,0-4.46.54-6.4,1.48-2.74-3.68-6.82-6.29-11.53-7.1-2.38-7.34-9.27-12.66-17.4-12.66-3.41,0-6.59.95-9.33,2.58-4.44-11.05-14.87-18.82-27.04-18.82-16.19,0-29.32,13.74-29.32,30.69,0,1.24.08,2.46.22,3.66-.36-.03-.72-.06-1.09-.06-8.12,0-14.71,6.59-14.71,14.71s6.4,14.51,14.36,14.69c-.27,2.32.05,4.68,1.06,6.89,3.22,7.06,12.18,9.89,20.02,6.31,1.57-.72,2.97-1.64,4.19-2.71,2.95,1.6,6.38,2.54,10.07,2.54.2,0,.39-.02.59-.03,4.69,5.48,11.5,8.93,19.08,8.93,9.21,0,17.29-5.1,21.8-12.74,2.66,2.76,6.32,4.47,10.36,4.47,7.49,0,13.67-5.87,14.58-13.46.16,0,.32.02.49.02,8.12,0,14.71-6.59,14.71-14.71s-6.59-14.71-14.71-14.71Z"/>
          <path class="cls-28" d="m195.82,73.81c-2.3,0-4.46.54-6.4,1.48-2.74-3.68-6.82-6.29-11.53-7.1-2.38-7.34-9.27-12.66-17.4-12.66-3.41,0-6.59.95-9.33,2.58-4.44-11.05-14.87-18.81-27.04-18.81-16.19,0-29.32,13.74-29.32,30.69,0,1.24.08,2.46.22,3.66-.36-.03-.72-.06-1.09-.06-8.12,0-14.71,6.59-14.71,14.71s6.4,14.51,14.36,14.69c-.27,2.32.05,4.68,1.06,6.89,3.22,7.06,12.18,9.89,20.02,6.31,1.57-.72,2.97-1.64,4.19-2.71,2.95,1.6,6.38,2.54,10.07,2.54.2,0,.39-.02.59-.03,4.69,5.48,11.5,8.93,19.08,8.93,9.21,0,17.29-5.1,21.8-12.74,2.66,2.76,6.32,4.47,10.36,4.47,7.49,0,13.67-5.87,14.58-13.46.16,0,.32.02.49.02,8.12,0,14.71-6.59,14.71-14.71s-6.59-14.71-14.71-14.71Z"/>
          <path class="cls-23" d="m195.57,73.56c-2.3,0-4.46.54-6.4,1.48-2.74-3.68-6.82-6.29-11.53-7.1-2.38-7.34-9.27-12.66-17.4-12.66-3.41,0-6.59.95-9.33,2.58-4.44-11.05-14.87-18.82-27.04-18.82-16.19,0-29.32,13.74-29.32,30.69,0,1.24.08,2.46.22,3.66-.36-.03-.72-.06-1.09-.06-8.12,0-14.71,6.59-14.71,14.71s6.4,14.51,14.36,14.69c-.27,2.32.05,4.68,1.06,6.89,3.22,7.06,12.18,9.89,20.02,6.31,1.57-.72,2.97-1.64,4.19-2.71,2.95,1.6,6.38,2.54,10.07,2.54.2,0,.39-.02.59-.03,4.69,5.48,11.5,8.93,19.08,8.93,9.21,0,17.29-5.1,21.8-12.74,2.66,2.76,6.32,4.47,10.36,4.47,7.49,0,13.67-5.87,14.58-13.46.16,0,.32.02.49.02,8.12,0,14.71-6.59,14.71-14.71s-6.59-14.71-14.71-14.71Z"/>
          <path class="cls-2" d="m195.33,73.32c-2.3,0-4.46.54-6.4,1.48-2.74-3.68-6.82-6.29-11.53-7.1-2.38-7.34-9.27-12.66-17.4-12.66-3.41,0-6.59.95-9.33,2.58-4.44-11.05-14.87-18.82-27.04-18.82-16.19,0-29.32,13.74-29.32,30.69,0,1.24.08,2.46.22,3.66-.36-.03-.72-.06-1.09-.06-8.12,0-14.71,6.59-14.71,14.71s6.4,14.51,14.36,14.69c-.27,2.32.05,4.68,1.06,6.89,3.22,7.06,12.18,9.89,20.02,6.31,1.57-.72,2.97-1.64,4.19-2.71,2.95,1.6,6.38,2.54,10.07,2.54.2,0,.39-.02.59-.03,4.69,5.48,11.5,8.93,19.08,8.93,9.21,0,17.29-5.1,21.8-12.74,2.66,2.76,6.32,4.47,10.36,4.47,7.49,0,13.67-5.87,14.58-13.46.16,0,.32.02.49.02,8.12,0,14.71-6.59,14.71-14.71s-6.59-14.71-14.71-14.71Z"/>
        </g>
        <path class="cls-19" d="m195.33,73.32c-2.3,0-4.46.54-6.4,1.48-2.74-3.68-6.82-6.29-11.53-7.1-2.38-7.34-9.27-12.66-17.4-12.66-3.41,0-6.59.95-9.33,2.58-4.44-11.05-14.87-18.82-27.04-18.82-16.19,0-29.32,13.74-29.32,30.69,0,1.24.08,2.46.22,3.66-.36-.03-.72-.06-1.09-.06-8.12,0-14.71,6.59-14.71,14.71s6.4,14.51,14.36,14.69c-.27,2.32.05,4.68,1.06,6.89,3.22,7.06,12.18,9.89,20.02,6.31,1.57-.72,2.97-1.64,4.19-2.71,2.95,1.6,6.38,2.54,10.07,2.54.2,0,.39-.02.59-.03,4.69,5.48,11.5,8.93,19.08,8.93,9.21,0,17.29-5.1,21.8-12.74,2.66,2.76,6.32,4.47,10.36,4.47,7.49,0,13.67-5.87,14.58-13.46.16,0,.32.02.49.02,8.12,0,14.71-6.59,14.71-14.71s-6.59-14.71-14.71-14.71Z"/>
      </g>
    </g>
  </g>
</svg>