<svg width="132" height="428" viewBox="0 0 132 428" fill="none" xmlns="http://www.w3.org/2000/svg">
<g id="kofi school v2 1" clip-path="url(#clip0_21_2288)">
<g id="Clip path group">
<mask id="mask0_21_2288" style="mask-type:luminance" maskUnits="userSpaceOnUse" x="0" y="0" width="132" height="428">
<g id="clip-path">
<path id="Rectangle 1" d="M132 0H0V428H132V0Z" fill="white"/>
</g>
</mask>
<g mask="url(#mask0_21_2288)">
<g id="Group 1">
<path id="Path 5" d="M119.667 408.493C119.667 411.66 95.913 414.227 66.612 414.227C37.311 414.227 13.557 411.66 13.557 408.493C13.557 405.326 37.31 402.76 66.612 402.76C95.914 402.76 119.667 405.327 119.667 408.493Z" fill="#D2CFC9"/>
<path id="Path 6" d="M50.468 384.7C50.468 384.7 61.284 408.5 52.631 408.5C42.714 408.5 8.648 407.786 8.648 407.786C8.648 407.786 5.763 402.016 13.695 398.411C21.627 394.806 39.652 388.311 39.652 388.311L50.468 384.7Z" fill="#4A3F4C"/>
<path id="Path 7" d="M55.964 404.356C56.3 397.541 51.739 379.313 51.739 379.313H38.76C38.76 379.313 29.497 391.964 21.077 395.313C22.193 398.327 23.304 401.333 24.352 404.356H55.964Z" fill="#5B1E13"/>
<path id="Path 8" d="M83.953 384.7C83.953 384.7 73.137 408.5 81.789 408.5C91.706 408.5 125.773 407.786 125.773 407.786C125.773 407.786 128.657 402.016 120.725 398.411C112.793 394.806 94.769 388.311 94.769 388.311L83.953 384.7Z" fill="#4A3F4C"/>
<path id="Path 9" d="M78.457 404.356C78.12 397.541 82.681 379.313 82.681 379.313H95.661C95.661 379.313 104.923 391.964 113.344 395.313C112.228 398.327 111.117 401.333 110.069 404.356H78.457Z" fill="#5B1E13"/>
<path id="Path 10" d="M94.891 207.336L37.812 210.053C37.812 210.053 29.667 230.127 31.947 275.408L33.756 381.735H53.821L65.421 271.649L67 265.457C67.0385 265.142 67.1916 264.852 67.4301 264.642C67.6686 264.432 67.9759 264.318 68.2935 264.32C68.6111 264.322 68.9168 264.441 69.1524 264.654C69.3879 264.867 69.5369 265.159 69.571 265.475C69.571 265.475 77.147 332.543 77.92 340.508L81.1 381.735L103.83 380.496L104.52 268.296C108.2 241.627 108.767 230.416 94.891 207.336Z" fill="#271C24"/>
<path id="Path 11" d="M95.967 121.231L98.228 126.56C100.483 131.871 106.564 240.611 106.564 240.611C115.132 240.46 25.321 244.757 29.539 241L36.188 120.436C36.056 119.063 37.111 117.753 38.94 117.019L55.4 110.4L57.477 109.564C58.6547 109.109 59.9169 108.914 61.177 108.993L72.949 109.652C73.7875 109.695 74.615 109.862 75.405 110.146L79.38 111.609L94.935 117.894C96.45 118.452 94.935 117.894 95.251 118.962C95.4457 119.731 95.6848 120.489 95.967 121.231Z" fill="#4EBD38"/>
<path id="Path 12" d="M94.947 122.076C94.947 122.076 101.732 119.335 107.14 126.907C109.44 130.121 118.847 155.833 128.365 174.371C129.185 175.971 129.485 177.786 129.223 179.565C128.961 181.343 128.15 182.996 126.904 184.291L102 210.223L92.778 198.309L108.4 182.868C109.698 181.586 110.534 179.908 110.775 178.1C111.017 176.291 110.651 174.453 109.735 172.875L96.787 150.559L97.678 146.516L94.947 122.076Z" fill="#347733"/>
<path id="Path 13" d="M38.861 200.1C40.317 201.663 41.968 203.327 44.092 203.537C46.492 203.777 48.808 202.061 51.192 202.449C52.0239 202.633 52.8001 203.012 53.4566 203.555C54.1132 204.097 54.6312 204.789 54.968 205.571C55.6259 207.143 55.9425 208.837 55.897 210.541C55.937 212.832 55.149 215.772 52.866 215.973C52.29 216.024 51.571 215.935 51.266 216.427C51.033 216.805 51.215 217.3 51.135 217.737C50.892 219.053 48.88 218.825 47.798 219.612C47.153 220.081 46.826 220.952 46.09 221.257C44.89 221.757 43.701 220.348 43.535 219.057C43.369 217.766 43.704 216.386 43.196 215.186C42.203 212.841 38.953 212.778 36.427 213.102C35.9969 210.868 34.8779 208.824 33.227 207.258L38.861 200.1Z" fill="#9A4827"/>
<path id="Path 14" d="M94.6 200.1C93.144 201.663 91.495 203.327 89.369 203.537C86.969 203.777 84.653 202.061 82.269 202.449C81.437 202.632 80.6606 203.011 80.004 203.554C79.3474 204.097 78.8294 204.788 78.493 205.571C77.8338 207.143 77.5165 208.837 77.562 210.541C77.522 212.832 78.31 215.772 80.593 215.973C81.169 216.024 81.886 215.935 82.193 216.427C82.426 216.805 82.244 217.3 82.325 217.737C82.566 219.053 84.578 218.825 85.662 219.612C86.306 220.081 86.633 220.952 87.369 221.257C88.569 221.757 89.758 220.348 89.922 219.057C90.086 217.766 89.754 216.386 90.262 215.186C91.254 212.841 94.505 212.778 97.031 213.102C97.461 210.868 98.5801 208.824 100.231 207.258L94.6 200.1Z" fill="#9A4827"/>
<path id="Path 15" d="M38.109 122.076C38.109 122.076 32.197 120.164 26.789 127.735C24.525 130.9 14.6 155.2 5.091 173.593C4.15253 175.418 3.8083 177.491 4.1065 179.522C4.40469 181.552 5.33039 183.439 6.754 184.917L31.054 210.223L40.278 198.309L22.693 180.94C21.9536 180.209 21.4778 179.254 21.3404 178.223C21.203 177.193 21.4118 176.146 21.934 175.247L36.269 150.559L34.993 142.092L38.109 122.076Z" fill="#347733"/>
<path id="Path 16" d="M79.4 112.9C79.4146 114.504 79.1111 116.096 78.5072 117.582C77.9034 119.069 77.011 120.421 75.8816 121.56C74.7523 122.7 73.4083 123.605 71.9274 124.222C70.4465 124.839 68.858 125.157 67.2535 125.157C65.6491 125.157 64.0605 124.839 62.5796 124.222C61.0987 123.605 59.7548 122.7 58.6254 121.56C57.4961 120.421 56.6037 119.069 55.9998 117.582C55.3959 116.096 55.0924 114.504 55.107 112.9C55.1049 112.016 55.2029 111.134 55.399 110.272L59.174 107.882L74.263 109.212L79.379 112.176C79.391 112.415 79.4 112.664 79.4 112.9Z" fill="#607627"/>
<path id="Path 23" d="M59.607 93.529L73.823 93.374C73.823 93.374 74.611 115.628 74.664 115.628C74.664 115.628 73.664 120.079 67.364 120.246C61.064 120.413 59.451 115.791 59.451 115.791C59.5 115.668 59.607 93.529 59.607 93.529Z" fill="#9A4827"/>
<path id="Path 24" d="M59.7 101.716L73.916 101.56C73.916 101.56 74.555 110.172 74.608 110.172C74.608 110.172 73.608 114.623 67.308 114.789C61.008 114.955 59.395 110.335 59.395 110.335C59.44 110.212 59.7 101.716 59.7 101.716Z" fill="#7C381E"/>
<path id="Path 25" d="M59.651 97.623L73.867 97.468C73.867 97.468 74.079 100.309 74.267 102.727C74.298 103.077 70.218 103.739 69.775 103.813C66.3337 104.307 62.8275 104.087 59.475 103.167C59.559 100.691 59.651 97.623 59.651 97.623Z" fill="#7C381E"/>
<g id="school-face">
<path id="Path 17" d="M39.377 71.1601C39.377 71.1601 33.713 63.888 28.5 68.667C23.287 73.446 30.739 88.175 40.723 84.712L39.377 71.1601Z" fill="#9A4827"/>
<path id="Path 18" d="M39.887 76.3001L40.582 83.2761C31.944 84.8231 27.015 72.8001 30.988 71.1311C34.2 69.7811 38.188 74.0001 39.887 76.3001Z" fill="#7C381E"/>
<path id="Path 19" d="M29.6 73.62C29.6 73.62 29.617 73.565 29.643 73.467C29.669 73.369 29.716 73.223 29.774 73.047C29.9271 72.5881 30.1937 72.1754 30.549 71.847C30.6571 71.7572 30.7764 71.6819 30.904 71.623C30.9691 71.5916 31.0358 71.5639 31.104 71.54L31.152 71.523C31.115 71.538 31.144 71.523 31.137 71.53H31.164L31.196 71.521L31.333 71.485C31.4133 71.462 31.4952 71.4446 31.578 71.433C31.7418 71.4078 31.9073 71.3955 32.073 71.396C32.1621 71.3927 32.2513 71.3954 32.34 71.404C33.1055 71.4891 33.8453 71.7311 34.513 72.115C34.8751 72.3078 35.2263 72.5205 35.565 72.752C35.902 72.983 36.234 73.223 36.548 73.463C37.177 73.95 37.748 74.436 38.243 74.858L39.883 76.31C39.883 76.31 39.799 76.105 39.615 75.763C39.356 75.2934 39.0678 74.8405 38.752 74.407C38.552 74.14 38.335 73.85 38.081 73.562C37.827 73.274 37.55 72.974 37.245 72.682C36.5978 72.0551 35.8701 71.517 35.081 71.082C34.6629 70.8573 34.2221 70.6776 33.766 70.546C33.3061 70.4135 32.8284 70.3528 32.35 70.366C32.2325 70.368 32.1153 70.3774 31.999 70.394C31.8844 70.4043 31.7707 70.4233 31.659 70.451C31.545 70.4741 31.4328 70.5048 31.323 70.543C31.2202 70.5728 31.1199 70.6106 31.023 70.656L30.891 70.717L30.81 70.754L30.737 70.795C30.6412 70.845 30.5502 70.9036 30.465 70.97C30.3058 71.0942 30.163 71.238 30.04 71.398C29.8353 71.6639 29.6906 71.9709 29.616 72.298C29.5591 72.5327 29.5319 72.7736 29.535 73.015C29.5356 73.1674 29.5473 73.3194 29.57 73.47C29.589 73.567 29.6 73.62 29.6 73.62Z" fill="#7C381E"/>
<path id="Path 20" d="M91.891 70.5931C91.891 70.5931 97.391 63.2011 102.711 67.8681C108.031 72.5351 100.893 87.4191 90.836 84.1681L91.891 70.5931Z" fill="#9A4827"/>
<path id="Path 21" d="M91.492 75.74L90.948 82.728C99.615 84.095 104.284 71.967 100.276 70.384C97.037 69.107 93.139 73.408 91.492 75.74Z" fill="#7C381E"/>
<path id="Path 22" d="M101.72 72.843L101.675 72.692C101.645 72.592 101.597 72.451 101.533 72.275C101.374 71.816 101.098 71.4063 100.733 71.086C100.623 70.9986 100.502 70.926 100.373 70.87C100.308 70.8415 100.241 70.8164 100.173 70.795L100.119 70.778C100.159 70.791 100.127 70.778 100.134 70.778H100.11L100.076 70.769L99.938 70.736C99.8571 70.7142 99.7745 70.6991 99.691 70.691C99.6107 70.677 99.5295 70.669 99.448 70.667C99.3631 70.661 99.2779 70.661 99.193 70.667C99.1058 70.6668 99.0186 70.6718 98.932 70.682C98.1671 70.7811 97.4312 71.0382 96.771 71.437C96.4141 71.6399 96.068 71.8612 95.734 72.1C95.402 72.339 95.075 72.583 94.766 72.832C94.149 73.332 93.589 73.832 93.103 74.261L91.492 75.74C91.492 75.74 91.573 75.532 91.751 75.188C91.9952 74.7105 92.2733 74.251 92.583 73.813C92.775 73.542 92.983 73.248 93.235 72.954C93.487 72.66 93.75 72.354 94.051 72.054C94.6847 71.4152 95.3998 70.8628 96.178 70.411C96.5927 70.1778 97.0308 69.9888 97.485 69.847C97.9407 69.7049 98.4156 69.6337 98.893 69.636C99.011 69.6363 99.1288 69.6433 99.246 69.657C99.3609 69.6642 99.475 69.6813 99.587 69.708C99.7015 69.7272 99.8142 69.7556 99.924 69.793C100.027 69.82 100.127 69.8561 100.224 69.901L100.353 69.956L100.436 69.992L100.511 70.031C100.608 70.0814 100.701 70.1385 100.789 70.202C100.95 70.3239 101.096 70.4646 101.224 70.621C101.433 70.8828 101.583 71.1867 101.664 71.512C101.729 71.7466 101.762 71.9887 101.764 72.232C101.767 72.3834 101.759 72.5348 101.74 72.685C101.728 72.788 101.72 72.843 101.72 72.843Z" fill="#7C381E"/>
<path id="Path 26" d="M35.776 64.8931C35.967 82.6201 47.855 97.3051 66.829 97.1001C85.803 96.8951 97.809 78.9231 99.074 61.2371C100.836 36.5881 85.111 32.6901 66.135 32.8941C47.159 33.0981 35.583 47.1611 35.776 64.8931Z" fill="#271C24"/>
<path id="Path 27" d="M35.776 64.8939C36.012 55.0139 40.16 45.6419 49.876 41.7029C54.8939 39.8403 60.2265 38.9732 65.576 39.1499C70.821 39.1789 76.413 39.4589 81.364 41.3059C90.233 44.6179 89 49.1999 90 58.2139C90.1 59.0979 96.075 63.3569 96.115 64.2429C96.208 66.2779 96.386 68.2789 96.332 70.3219C96.2481 74.9339 95.488 79.5086 94.076 83.8999C92.3966 89.2875 89.2401 94.0962 84.965 97.7799C82.4587 99.8378 79.6173 101.45 76.565 102.545C71.7602 104.428 66.5329 104.967 61.445 104.103C57.8539 103.518 54.3891 102.324 51.2 100.573C46.0408 97.5971 41.9502 93.0715 39.509 87.6389C37.473 83.0909 36.234 78.2267 35.846 73.2589C35.5764 70.5499 35.5459 67.8223 35.755 65.1079C35.763 65.0359 35.773 64.9649 35.776 64.8939Z" fill="#9A4827"/>
<path id="Path 28" d="M58.3 71.691C58.267 72.6006 57.97 73.4809 57.4453 74.2246C56.9205 74.9683 56.1906 75.5432 55.3447 75.8791C54.4987 76.215 53.5733 76.2975 52.6813 76.1164C51.7893 75.9354 50.9693 75.4986 50.3213 74.8594C49.6733 74.2203 49.2253 73.4063 49.032 72.5169C48.8387 71.6274 48.9085 70.7009 49.2328 69.8505C49.5571 69 50.1219 68.2623 50.8583 67.7274C51.5948 67.1925 52.4709 66.8834 53.38 66.838C54.676 66.8292 55.9223 67.3356 56.845 68.2457C57.7676 69.1557 58.291 70.3951 58.3 71.691Z" fill="#7C381E"/>
<path id="Path 29" d="M58.656 69.847C58.6232 70.7567 58.3264 71.6371 57.8017 72.3809C57.2771 73.1247 56.5472 73.6998 55.7013 74.0359C54.8554 74.3719 53.9299 74.4545 53.0379 74.2736C52.1458 74.0926 51.3257 73.6559 50.6776 73.0168C50.0295 72.3776 49.5814 71.5637 49.388 70.6742C49.1947 69.7847 49.2644 68.8582 49.5887 68.0077C49.913 67.1572 50.4778 66.4194 51.2142 65.8845C51.9507 65.3495 52.8269 65.0404 53.736 64.995C54.3777 64.9901 55.0142 65.1118 55.6089 65.3531C56.2035 65.5944 56.7448 65.9505 57.2018 66.4011C57.6587 66.8518 58.0224 67.388 58.2719 67.9793C58.5214 68.5706 58.6519 69.2053 58.656 69.847Z" fill="#271C24"/>
<path id="Path 31" d="M86.484 72.4669C86.451 73.3762 86.1541 74.2563 85.6295 74.9998C85.1049 75.7433 84.3752 76.3181 83.5295 76.6539C82.6838 76.9898 81.7586 77.0723 80.8668 76.8913C79.9751 76.7104 79.1552 76.2738 78.5073 75.6349C77.8594 74.9959 77.4115 74.1822 77.2181 73.2931C77.0248 72.4039 77.0944 71.4777 77.4185 70.6274C77.7425 69.7771 78.3071 69.0395 79.0432 68.5046C79.7793 67.9696 80.6552 67.6605 81.564 67.6149C82.2057 67.6103 82.842 67.7321 83.4366 67.9735C84.0311 68.2149 84.5723 68.571 85.0292 69.0216C85.4861 69.4722 85.8498 70.0083 86.0994 70.5995C86.349 71.1907 86.4797 71.8252 86.484 72.4669Z" fill="#7C381E"/>
<path id="Path 32" d="M86.424 71.2801C86.3912 72.1895 86.0944 73.0697 85.5699 73.8133C85.0454 74.557 84.3158 75.1319 83.4701 75.4679C82.6244 75.8039 81.6992 75.8865 80.8074 75.7057C79.9155 75.5249 79.0956 75.0884 78.4476 74.4495C77.7996 73.8105 77.3516 72.9969 77.1581 72.1076C76.9647 71.2184 77.0343 70.2922 77.3583 69.4418C77.6824 68.5915 78.2469 67.8538 78.9831 67.3189C79.7192 66.7839 80.5951 66.4747 81.504 66.4291C82.1457 66.4241 82.7821 66.5457 83.3768 66.7868C83.9715 67.028 84.5128 67.384 84.9697 67.8346C85.4267 68.2851 85.7903 68.8213 86.0399 69.4126C86.2894 70.0038 86.4199 70.6384 86.424 71.2801Z" fill="#271C24"/>
<g id="school-eyes">
<path id="school-right-eye" d="M84.753 69.9839C84.7774 70.355 84.6907 70.725 84.5042 71.0467C84.3176 71.3684 84.0395 71.6273 83.7053 71.7905C83.3711 71.9537 82.9959 72.0138 82.6275 71.9631C82.2591 71.9124 81.9141 71.7532 81.6364 71.5058C81.3587 71.2584 81.1609 70.9339 81.0682 70.5738C80.9755 70.2136 80.992 69.834 81.1157 69.4832C81.2394 69.1325 81.4647 68.8265 81.7629 68.6042C82.061 68.3819 82.4186 68.2533 82.79 68.2349C83.0339 68.22 83.2784 68.2535 83.5093 68.3335C83.7402 68.4135 83.953 68.5384 84.1354 68.7009C84.3179 68.8635 84.4664 69.0605 84.5724 69.2807C84.6784 69.5009 84.7397 69.7399 84.753 69.9839Z" fill="white"/>
<path id="school-left-eye" d="M56.985 68.551C57.0091 68.9223 56.9223 69.2923 56.7355 69.6141C56.5487 69.9359 56.2703 70.1948 55.9359 70.3579C55.6015 70.521 55.2262 70.581 54.8576 70.5301C54.489 70.4792 54.1439 70.3198 53.8662 70.0722C53.5885 69.8246 53.3907 69.5 53.298 69.1397C53.2054 68.7793 53.222 68.3996 53.3458 68.0487C53.4697 67.6978 53.6951 67.3918 53.9934 67.1694C54.2917 66.947 54.6494 66.8184 55.021 66.8C55.2651 66.7853 55.5097 66.8189 55.7407 66.8991C55.9717 66.9792 56.1847 67.1043 56.3672 67.267C56.5497 67.4297 56.6983 67.627 56.8043 67.8473C56.9103 68.0677 56.9717 68.3068 56.985 68.551Z" fill="white"/>
</g>
<path id="Path 34" d="M69.808 68.9489C69.808 68.9489 67.644 74.7729 70.589 74.9819C76.289 75.3939 73.372 87.1009 66.22 80.6819C63.52 78.2589 67.088 68.3579 67.088 68.3579L69.808 68.9489Z" fill="#5A2215"/>
<path id="Path 35" d="M74.112 87.732C74.112 87.732 62.785 89.616 57.4 83.127C57.4 83.127 52.875 95.252 65.036 96.807C72.721 97.787 74.112 87.732 74.112 87.732Z" fill="#5A2215"/>
<path id="Path 36" d="M70.261 95.379C69.542 95.9739 68.7045 96.409 67.8043 96.6552C66.9041 96.9015 65.9618 96.9532 65.04 96.807C62.8538 96.6364 60.7751 95.7888 59.093 94.382C58.7298 94.0346 58.3954 93.6584 58.093 93.257C58.085 93.2498 58.0782 93.2414 58.073 93.232C58.069 93.2276 58.066 93.2225 58.064 93.217C57.2099 91.9549 56.7115 90.4862 56.621 88.965C63.455 87.175 68.355 92.519 70.261 95.379Z" fill="#D51E25"/>
<path id="Path 37" d="M74.112 87.732C74.112 87.732 74.099 87.819 74.073 87.972C72.973 88.2 70.93 90.596 68.182 90.5C66.4444 90.4208 64.7413 89.9876 63.177 89.227C62.1806 88.8173 61.2364 88.291 60.364 87.659C59.676 86.7883 59.2041 85.7671 58.987 84.679C64.729 89.291 74.112 87.732 74.112 87.732Z" fill="white"/>
<path id="Path 38" d="M57.681 84.3359C57.236 86.0789 56.618 89.7359 58.345 92.5359C59.596 94.5569 61.874 95.7929 65.117 96.2069C70.969 96.9549 72.864 90.7149 73.356 88.4469C70.688 88.7349 62.548 89.1639 57.681 84.3359ZM64.96 97.3999C61.323 96.9369 58.743 95.4999 57.288 93.1509C54.652 88.8739 56.735 83.1509 56.824 82.9139C56.8629 82.813 56.9274 82.724 57.0112 82.6557C57.0951 82.5874 57.1953 82.5421 57.302 82.5245C57.4086 82.5068 57.5181 82.5173 57.6195 82.5549C57.7208 82.5925 57.8106 82.6559 57.88 82.7389C62.968 88.8779 73.9 87.1479 74.009 87.1339C74.1041 87.1169 74.2018 87.1226 74.2943 87.1506C74.3867 87.1786 74.4713 87.228 74.541 87.2949C74.6097 87.3598 74.6618 87.4403 74.6929 87.5296C74.7241 87.6189 74.7334 87.7143 74.72 87.8079C74.709 87.9079 73.309 97.3949 66.167 97.4719C65.7635 97.4755 65.3602 97.4515 64.96 97.3999Z" fill="#A32920"/>
<path id="Path 39" d="M87.8 64.6001C87.6959 64.4259 87.5778 64.2603 87.447 64.1051C87.2995 63.9235 87.1408 63.7511 86.972 63.5891C86.7569 63.3749 86.5284 63.1745 86.288 62.9891C86.0042 62.7676 85.7077 62.5629 85.4 62.3761C85.0555 62.164 84.697 61.9755 84.327 61.8121C83.9346 61.6284 83.53 61.472 83.116 61.3441C82.695 61.1961 82.251 61.1171 81.816 61.0041C81.372 60.9351 80.925 60.8681 80.485 60.8241C80.046 60.8001 79.609 60.7881 79.194 60.7881C78.774 60.8121 78.37 60.8481 77.994 60.8881C77.6378 60.9364 77.2843 61.0032 76.935 61.0881C76.6382 61.1473 76.3456 61.2258 76.059 61.3231C75.804 61.4111 75.583 61.4981 75.402 61.5661C75.045 61.7031 74.845 61.8021 74.845 61.8021C74.845 61.8021 75.072 61.8341 75.453 61.8611C75.645 61.8761 75.874 61.8941 76.138 61.9021C76.402 61.9101 76.689 61.9381 77.01 61.9621C77.331 61.9861 77.666 61.9911 78.023 62.0311C78.38 62.0711 78.754 62.1071 79.14 62.1311C79.524 62.1831 79.916 62.2431 80.32 62.2841C80.715 62.3521 81.115 62.4201 81.52 62.4911C81.72 62.5341 81.92 62.5791 82.12 62.6201C82.32 62.6611 82.52 62.6961 82.711 62.7531C82.902 62.8101 83.099 62.8531 83.29 62.9011C83.481 62.9491 83.663 63.0141 83.85 63.0641C84.221 63.1641 84.57 63.2881 84.91 63.3971C85.081 63.4481 85.237 63.5211 85.394 63.5731C85.551 63.6251 85.709 63.6821 85.851 63.7451C86.143 63.8581 86.412 63.9661 86.651 64.0691C86.89 64.1721 87.096 64.2691 87.275 64.3411C87.438 64.4261 87.582 64.4821 87.67 64.5321L87.8 64.6001Z" fill="#271C24"/>
<path id="Path 40" d="M49.212 59.588C49.3688 59.4574 49.536 59.34 49.712 59.237C49.9115 59.1159 50.1171 59.0051 50.328 58.905C50.6032 58.7772 50.8849 58.664 51.172 58.566C51.5141 58.4512 51.8627 58.3567 52.216 58.283C52.6119 58.1995 53.0127 58.1417 53.416 58.11C53.8478 58.0652 54.2822 58.0508 54.716 58.067C55.161 58.067 55.607 58.14 56.056 58.18C56.499 58.26 56.94 58.343 57.369 58.449C57.793 58.572 58.209 58.705 58.604 58.849C58.991 59.01 59.36 59.177 59.704 59.338C60.048 59.499 60.351 59.705 60.637 59.874C60.8975 60.0268 61.1471 60.1975 61.384 60.385C61.597 60.553 61.777 60.708 61.923 60.832C62.223 61.084 62.372 61.24 62.372 61.24C62.372 61.24 62.148 61.197 61.78 61.096C61.595 61.045 61.371 60.987 61.121 60.908C60.871 60.829 60.588 60.757 60.278 60.675C59.968 60.593 59.649 60.486 59.295 60.403C58.941 60.32 58.583 60.235 58.208 60.131C57.828 60.055 57.436 59.979 57.044 59.884L55.844 59.684C55.644 59.657 55.444 59.633 55.244 59.608C55.044 59.583 54.844 59.547 54.644 59.54C54.444 59.533 54.244 59.507 54.052 59.487C53.86 59.467 53.661 59.468 53.472 59.455C53.087 59.426 52.717 59.428 52.36 59.42C52.181 59.407 52.012 59.425 51.844 59.42C51.676 59.415 51.511 59.42 51.356 59.429C51.044 59.442 50.756 59.45 50.496 59.47L49.823 59.523C49.635 59.537 49.484 59.554 49.383 59.57L49.212 59.588Z" fill="#271C24"/>
<path id="Path 41" d="M35.268 65.2149C34.907 62.3118 34.7237 59.3893 34.719 56.4639C34.805 61.4909 35.268 65.2149 35.268 65.2149Z" fill="#7C381E"/>
<path id="Path 42" d="M36.145 78.747C36.145 78.747 36.058 77.562 35.813 75.467L35.741 75.558L36.145 78.747Z" fill="#271C24"/>
<path id="Path 43" d="M101.481 58.5C104.3 55.015 104.473 50.157 104.519 45.675C104.556 41.906 103.419 36.842 99.649 36.806C100.249 35.206 99.204 33.423 97.836 32.406C96.468 31.389 94.797 30.874 93.352 29.973C91.589 28.873 90.2 27.233 88.377 26.238C86.554 25.243 83.929 25.138 82.716 26.826C80.768 22.774 74.416 21.855 71.401 25.189C70.326 23.344 67.801 22.914 65.701 23.306C63.601 23.698 61.64 24.7 59.52 24.957C57.743 25.173 55.911 24.862 54.165 25.257C52.419 25.652 50.684 27.162 50.954 28.933C48.7535 28.3189 46.4464 28.1862 44.19 28.544C41.973 29.064 39.878 30.844 39.771 33.123C38.328 31.912 35.936 33.003 35.163 34.723C34.39 36.443 34.735 38.43 35.095 40.278C34.2835 39.9781 33.3949 39.9593 32.5715 40.2247C31.7481 40.4901 31.0376 41.0242 30.554 41.7415C30.0704 42.4588 29.8416 43.3177 29.9043 44.1806C29.9671 45.0434 30.3177 45.8602 30.9 46.5C30.496 49.9706 30.092 53.44 29.688 56.908L32.72 58.2C30.66 60.52 31.748 64.631 34.387 66.032C35.6397 67.7596 37.4633 68.9881 39.535 69.5C39.8196 68.2319 39.8487 66.9197 39.6205 65.6402C39.3923 64.3607 38.9115 63.1395 38.206 62.048C39.1419 61.9568 40.022 61.5609 40.7111 60.9211C41.4002 60.2813 41.8603 59.433 42.0206 58.5065C42.181 57.5799 42.0328 56.6263 41.5987 55.7922C41.1647 54.958 40.4688 54.2894 39.618 53.889C42.938 54.856 46.334 50.489 44.585 47.513C46.1244 47.9227 47.7418 47.9409 49.29 47.566C50.79 47.066 52.067 45.493 51.665 43.959C52.4766 44.8246 53.526 45.431 54.6813 45.702C55.8365 45.973 57.0461 45.8964 58.158 45.482C58.5273 44.65 58.8967 43.8166 59.266 42.982C61.854 46.038 67.877 44.269 68.399 40.298C69.3276 41.5377 70.5212 42.5544 71.8928 43.2741C73.2643 43.9938 74.7793 44.3983 76.327 44.458C77.188 46.513 79.951 46.938 81.871 46.01C82.4621 47.1344 83.2857 48.1201 84.2871 48.9017C85.2884 49.6832 86.4447 50.2427 87.679 50.543C87.698 50.743 87.727 50.943 87.732 51.136C87.6209 52.0146 87.8098 52.9051 88.268 53.663C89.268 54.819 91.147 54.056 92.659 54.282C94.835 54.609 96.048 57.041 96.25 59.231C96.452 61.421 96.022 63.68 96.599 65.803C96.6821 66.24 96.9058 66.6379 97.236 66.936C98.288 67.744 99.745 66.324 99.836 65C99.927 63.676 99.372 62.317 99.745 61.044C100.152 60.0909 100.742 59.2266 101.481 58.5Z" fill="#271C24"/>
</g>
<path id="Path 44" d="M38.689 198.012C35.0485 200.845 32.2707 204.638 30.668 208.963C30.057 210.563 32.636 211.263 33.24 209.671C34.7292 205.794 37.2696 202.41 40.576 199.897C41.931 198.848 40.031 196.973 38.689 198.012Z" fill="#3E471C"/>
<path id="Path 45" d="M103.493 208.54C100.232 204.684 96.9707 200.828 93.708 196.973C92.599 195.661 90.72 197.556 91.823 198.86L101.608 210.425C102.717 211.737 104.6 209.843 103.493 208.54Z" fill="#3E471C"/>
<path id="Path 46" d="M33.577 176.824C32.6868 176.433 31.9294 175.791 31.3968 174.978C30.8643 174.164 30.5794 173.213 30.577 172.241V120.792C30.577 119.465 31.104 118.193 32.0422 117.255C32.9803 116.317 34.2527 115.79 35.5795 115.79C36.9062 115.79 38.1786 116.317 39.1168 117.255C40.0549 118.193 40.582 119.465 40.582 120.792L36.582 172.241C36.581 174.993 34.192 177.093 33.577 176.824Z" fill="#271C24"/>
<path id="Path 47" d="M100.344 176.468C99.6304 176.017 99.0422 175.393 98.634 174.654C98.2258 173.915 98.0108 173.085 98.009 172.241L92.676 120.792C92.676 119.466 93.2028 118.194 94.1405 117.256C95.0781 116.319 96.3499 115.792 97.676 115.792C99.0021 115.792 100.274 116.319 101.212 117.256C102.149 118.194 102.676 119.466 102.676 120.792V172.241C102.68 174.993 101.117 176.959 100.344 176.468Z" fill="#271C24"/>
</g>
</g>
</g>
</g>
<defs>
<clipPath id="clip0_21_2288">
<rect width="132" height="428" fill="white"/>
</clipPath>
</defs>
</svg>
