<svg xmlns="http://www.w3.org/2000/svg" xmlns:xlink="http://www.w3.org/1999/xlink" width="148" height="274" viewBox="0 0 148 274">
  <defs>
    <style>
      .cls-1 {
        fill: #de1818;
      }

      .cls-2 {
        clip-path: url(#clip-path);
      }

      .cls-3 {
        fill: #d2cfc9;
      }

      .cls-4 {
        fill: #5a2215;
      }

      .cls-5 {
        fill: #7c381e;
      }

      .cls-6 {
        fill: #57c6b7;
      }

      .cls-7 {
        fill: #30766f;
      }

      .cls-8 {
        fill: #9a4827;
      }

      .cls-9 {
        fill: #271c24;
      }

      .cls-10 {
        fill: #fff;
      }

      .cls-11 {
        fill: #7c1d21;
      }

      .cls-12 {
        fill: #d51e25;
      }

      .cls-13 {
        fill: #a32920;
      }

      .cls-14 {
        fill: #27395e;
      }

      .cls-15 {
        fill: #1c2335;
      }
    </style>
    <clipPath id="clip-path">
      <rect id="Rectangle_1" data-name="Rectangle 1" class="cls-1" width="148" height="274" transform="translate(-33)"/>
    </clipPath>
  </defs>
  <g id="Group_1" data-name="Group 1" class="cls-2" transform="translate(33)">
    <path id="Path_2" data-name="Path 2" class="cls-3" d="M85.057,253.493c0,3.167-19.252,5.734-43,5.734s-43-2.567-43-5.734,19.252-5.733,43-5.733S85.057,250.327,85.057,253.493Z"/>
    <path id="Path_3" data-name="Path 3" class="cls-4" d="M11.084,113.712l.376,10A12.8,12.8,0,0,0,26.681,135.8L26.4,96.03l-3.724,2.113a24.118,24.118,0,0,0-11.593,15.569Z"/>
    <path id="Path_4" data-name="Path 4" class="cls-5" d="M80.105,127.9l-.372,1.117a13.876,13.876,0,0,1-13.327,9.5l-4.017-.047,7.9-39.771q.6.4,1.187.827C80.248,105.979,83.539,117.573,80.105,127.9Z"/>
    <path id="Path_5" data-name="Path 5" class="cls-6" d="M72.177,101.533,63.829,148.5h-38.9c.013-1.844-4.973-41.023-5.817-47.636A4.957,4.957,0,0,1,22.988,95.4l17.9-3.839L51.332,92l16.68,3.4a5.311,5.311,0,0,1,4.165,6.13Z"/>
    <path id="Path_6" data-name="Path 6" class="cls-7" d="M23.021,132c1.059,8.587,1.908,15.737,1.9,16.5H63.829L66.761,132Z"/>
    <path id="Path_7" data-name="Path 7" class="cls-7" d="M54.879,95.8c0,4.275-4.581,7.739-10.233,7.739S34.415,100.072,34.415,95.8,39,88.061,44.646,88.061,54.879,91.524,54.879,95.8Z"/>
    <path id="Path_8" data-name="Path 8" class="cls-8" d="M65.277,177.161l7.12,57.846-10.513,3.445s-7.7-26-10.124-39.241a68.207,68.207,0,0,1,.208-24.759Z"/>
    <path id="Path_9" data-name="Path 9" class="cls-8" d="M20.331,177.161l-5.357,57.846,7.368,3.445s9.076-26,11.505-39.241a68.173,68.173,0,0,0-.208-24.759Z"/>
    <path id="Path_10" data-name="Path 10" class="cls-5" d="M66.5,187.069l-1.219-9.908-13.309-2.709a64.219,64.219,0,0,0-1.233,12.617Z"/>
    <path id="Path_11" data-name="Path 11" class="cls-5" d="M34.872,187.069a64.215,64.215,0,0,0-1.233-12.617l-13.308,2.709-.917,9.908Z"/>
    <path id="Path_12" data-name="Path 12" class="cls-9" d="M88.243,253.493H60.555a1.01,1.01,0,0,1-1.011-1.009V231.463H74.155v9.04a1.009,1.009,0,0,0,1.009,1.009H78.28a10.97,10.97,0,0,1,10.971,10.973,1.008,1.008,0,0,1-1.008,1.008Z"/>
    <path id="Path_13" data-name="Path 13" class="cls-6" d="M78.537,241.519A10.968,10.968,0,0,1,89.25,252.484a1.008,1.008,0,0,1-1.008,1.009h-9.7Z"/>
    <path id="Path_14" data-name="Path 14" class="cls-6" d="M88.608,248.773a10.962,10.962,0,0,1,.643,3.711,1.008,1.008,0,0,1-1.008,1.009H60.555a1.01,1.01,0,0,1-1.011-1.009v-3.711Z"/>
    <path id="Path_15" data-name="Path 15" class="cls-9" d="M-2.018,253.493H25.671a1.01,1.01,0,0,0,1.011-1.009V231.463H12.071v9.04a1.01,1.01,0,0,1-1.011,1.009H7.944A10.971,10.971,0,0,0-3.027,252.484,1.009,1.009,0,0,0-2.018,253.493Z"/>
    <path id="Path_16" data-name="Path 16" class="cls-6" d="M7.687,241.519A10.968,10.968,0,0,0-3.027,252.484a1.009,1.009,0,0,0,1.008,1.009h9.7Z"/>
    <path id="Path_17" data-name="Path 17" class="cls-6" d="M-2.382,248.773a10.947,10.947,0,0,0-.644,3.711,1.009,1.009,0,0,0,1.008,1.009H25.671a1.01,1.01,0,0,0,1.011-1.009v-3.711Z"/>
    <path id="Path_18" data-name="Path 18" class="cls-8" d="M22.367,59.94s-4.659-5.977-8.941-2.049S15.27,73.927,23.477,71.078Z"/>
    <path id="Path_19" data-name="Path 19" class="cls-5" d="M22.787,64.16,23.36,69.9c-7.1,1.277-11.156-8.607-7.888-9.977C18.111,58.807,21.389,62.273,22.787,64.16Z"/>
    <path id="Path_20" data-name="Path 20" class="cls-4" d="M14.328,61.963s.013-.044.035-.127.061-.2.109-.341a2.325,2.325,0,0,1,.635-.992,1.317,1.317,0,0,1,.291-.184,1.486,1.486,0,0,1,.169-.068l.04-.015h0c-.031.013-.005.005-.012.007h.018l.027-.008.113-.029a1.408,1.408,0,0,1,.2-.043,1.922,1.922,0,0,1,.2-.023,1.787,1.787,0,0,1,.208-.008,1.318,1.318,0,0,1,.217.007,4.614,4.614,0,0,1,1.788.583,9.3,9.3,0,0,1,.865.524c.276.189.549.387.808.584.517.4.985.8,1.393,1.147l1.348,1.192s-.069-.169-.221-.449a10.341,10.341,0,0,0-.708-1.113c-.164-.219-.341-.459-.552-.695s-.437-.484-.688-.724a8.432,8.432,0,0,0-1.779-1.312,5.583,5.583,0,0,0-1.081-.44,3.878,3.878,0,0,0-1.163-.148,2.5,2.5,0,0,0-.289.023,1.746,1.746,0,0,0-.277.049,2.057,2.057,0,0,0-.279.075,1.666,1.666,0,0,0-.247.1l-.108.049-.065.031-.061.033a1.793,1.793,0,0,0-.225.144,1.938,1.938,0,0,0-.348.355,1.9,1.9,0,0,0-.349.74,2.477,2.477,0,0,0-.065.591,2.8,2.8,0,0,0,.027.372C14.321,61.919,14.328,61.963,14.328,61.963Z"/>
    <path id="Path_21" data-name="Path 21" class="cls-8" d="M65.532,59.456s4.524-6.077,8.893-2.244S72.937,73.285,64.669,70.62Z"/>
    <path id="Path_22" data-name="Path 22" class="cls-5" d="M65.205,63.689l-.444,5.743c7.124,1.121,10.959-8.849,7.663-10.149C69.761,58.233,66.559,61.771,65.205,63.689Z"/>
    <path id="Path_23" data-name="Path 23" class="cls-4" d="M73.612,61.3s-.013-.043-.036-.124-.065-.2-.117-.344a2.284,2.284,0,0,0-.657-.976,1.193,1.193,0,0,0-.3-.177,1.764,1.764,0,0,0-.165-.063l-.044-.015h0c.033.011.008,0,.012,0h-.018l-.028-.007-.113-.027a1.169,1.169,0,0,0-.2-.039,1.368,1.368,0,0,0-.2-.019,1.772,1.772,0,0,0-.208,0,1.745,1.745,0,0,0-.217.013,4.544,4.544,0,0,0-1.776.621,9.273,9.273,0,0,0-.851.544c-.273.2-.541.4-.8.6-.508.411-.967.821-1.367,1.176-.795.733-1.321,1.224-1.321,1.224s.067-.172.212-.455A9.664,9.664,0,0,1,66.1,62.1c.157-.221.333-.465.536-.7s.423-.493.669-.739A8.439,8.439,0,0,1,69.054,59.3a5.578,5.578,0,0,1,1.073-.461,3.81,3.81,0,0,1,1.157-.176,2.632,2.632,0,0,1,.291.019,1.79,1.79,0,0,1,.28.041,1.97,1.97,0,0,1,.277.071,1.266,1.266,0,0,1,.251.089l.105.044.068.029.061.032a1.53,1.53,0,0,1,.229.141,1.928,1.928,0,0,1,.721,1.075,2.447,2.447,0,0,1,.079.592,2.627,2.627,0,0,1-.02.373C73.619,61.259,73.612,61.3,73.612,61.3Z"/>
    <path id="Path_24" data-name="Path 24" class="cls-8" d="M39,78.32l11.684-.131s.655,18.292.7,18.289c0,0-.817,3.66-6,3.8s-6.505-3.657-6.505-3.657C38.919,96.519,39,78.32,39,78.32Z"/>
    <path id="Path_25" data-name="Path 25" class="cls-5" d="M39.077,85.048l11.685-.131s.528,7.077.571,7.077c0,0-.816,3.66-6,3.8s-6.507-3.657-6.507-3.657C38.868,92.033,39.077,85.048,39.077,85.048Z"/>
    <path id="Path_26" data-name="Path 26" class="cls-5" d="M39.04,81.685l11.685-.132s.173,2.335.331,4.321c.024.289-3.329.833-3.692.9a20.857,20.857,0,0,1-8.469-.527C38.964,84.207,39.04,81.685,39.04,81.685Z"/>
    <path id="Path_27" data-name="Path 27" class="cls-9" d="M16.405,55.18c.161,14.572,12.937,26.247,28.533,26.073s28.109-12.129,27.948-26.7S59.949,28.3,44.352,28.476,16.241,40.6,16.405,55.18Z"/>
    <path id="Path_28" data-name="Path 28" class="cls-8" d="M19.4,54.789c.191-8.123,3.6-15.828,11.584-19.067a33.842,33.842,0,0,1,12.9-2.1c4.313.021,8.911.249,12.981,1.768,7.292,2.72,6.277,6.489,7.1,13.893.083.727,5,4.227,5.028,4.956.077,1.672.224,3.317.181,5A38.746,38.746,0,0,1,67.332,70.4a24.776,24.776,0,0,1-7.485,11.409,23.227,23.227,0,0,1-6.9,3.921A23.356,23.356,0,0,1,40.52,87.015a26.256,26.256,0,0,1-8.423-2.9A23.306,23.306,0,0,1,22.48,73.484a35.7,35.7,0,0,1-3.015-11.819,38,38,0,0,1-.077-6.7C19.393,54.907,19.4,54.848,19.4,54.789Z"/>
    <path id="Path_29" data-name="Path 29" class="cls-5" d="M38.215,61.909a4.014,4.014,0,0,1-3.627,4.361,4.2,4.2,0,0,1-.421-8.349,4.029,4.029,0,0,1,4.048,3.988Z"/>
    <path id="Path_30" data-name="Path 30" class="cls-9" d="M38.164,60.933A4.012,4.012,0,0,1,34.541,65.3a4.2,4.2,0,0,1-.424-8.352,4.03,4.03,0,0,1,4.047,3.985Z"/>
    <path id="Path_31" data-name="Path 31" class="cls-10" d="M35.467,61.4a1.541,1.541,0,1,1-1.615-1.437A1.525,1.525,0,0,1,35.467,61.4Z"/>
    <path id="Path_32" data-name="Path 32" class="cls-5" d="M61.088,61a3.853,3.853,0,1,1-4.045-3.987A4.013,4.013,0,0,1,61.088,61Z"/>
    <path id="Path_33" data-name="Path 33" class="cls-9" d="M61.037,60.024a3.853,3.853,0,1,1-4.043-3.988,4.012,4.012,0,0,1,4.043,3.988Z"/>
    <path id="Path_34" data-name="Path 34" class="cls-10" d="M57.472,60.729a1.541,1.541,0,1,1-1.613-1.439,1.523,1.523,0,0,1,1.613,1.439Z"/>
    <path id="Path_35" data-name="Path 35" class="cls-4" d="M46.015,59.016s-.56,5.076,1.829,4.655c4.627-.812,4.644,9.1-2.344,5.415-2.639-1.391-1.773-10-1.773-10Z"/>
    <path id="Path_36" data-name="Path 36" class="cls-11" d="M50.924,73.551S41.613,75.1,37.188,69.769c0,0-3.716,9.969,6.281,11.244C49.784,81.816,50.924,73.551,50.924,73.551Z"/>
    <path id="Path_37" data-name="Path 37" class="cls-12" d="M47.76,79.837a5.4,5.4,0,0,1-4.291,1.176,8.7,8.7,0,0,1-4.889-1.992,7.72,7.72,0,0,1-.821-.925.093.093,0,0,1-.019-.021.036.036,0,0,1-.007-.012,6.948,6.948,0,0,1-1.187-3.5C42.161,73.1,46.192,77.487,47.76,79.837Z"/>
    <path id="Path_38" data-name="Path 38" class="cls-10" d="M50.924,73.551l-.033.2c-.9.188-2.581,2.157-4.84,2.079a10.5,10.5,0,0,1-4.116-1.044A11.331,11.331,0,0,1,39.623,73.5a5.762,5.762,0,0,1-1.132-2.448C43.212,74.835,50.921,73.551,50.924,73.551Z"/>
    <path id="Path_39" data-name="Path 39" class="cls-13" d="M37.417,70.764c-.367,1.432-.873,4.444.547,6.737,1.029,1.661,2.9,2.679,5.568,3.016C48.344,81.13,49.9,76,50.3,74.137,48.109,74.375,41.417,74.731,37.417,70.764ZM43.4,81.5c-2.991-.381-5.112-1.557-6.309-3.491-2.167-3.516-.456-8.217-.383-8.416a.5.5,0,0,1,.391-.319.513.513,0,0,1,.477.175c4.183,5.044,13.169,3.621,13.259,3.607a.506.506,0,0,1,.437.133.491.491,0,0,1,.147.423c-.008.084-1.156,7.881-7.029,7.945a7.087,7.087,0,0,1-.99-.057Z"/>
    <path id="Path_40" data-name="Path 40" class="cls-9" d="M62.171,54.532a2.9,2.9,0,0,0-.289-.407,4.539,4.539,0,0,0-.391-.423,6.3,6.3,0,0,0-.563-.5,7.787,7.787,0,0,0-1.613-.967,7.884,7.884,0,0,0-1-.384c-.345-.121-.709-.187-1.068-.279-.365-.057-.732-.112-1.092-.147s-.721-.031-1.064-.031c-.345.02-.679.049-.989.08a8.508,8.508,0,0,0-.871.163,5.32,5.32,0,0,0-.72.193c-.209.071-.391.141-.539.2-.293.113-.459.195-.459.195s.187.027.5.048c.156.012.347.027.563.033s.455.028.716.049.54.024.835.056.6.063.917.084c.315.044.637.092.969.127.325.056.653.112.985.171l.491.107c.162.036.329.061.485.109s.319.081.476.12.305.092.46.133c.305.083.591.185.871.273.141.043.269.1.4.145s.259.091.377.141c.24.093.463.181.655.265s.367.163.511.225.253.115.327.155S62.171,54.532,62.171,54.532Z"/>
    <path id="Path_41" data-name="Path 41" class="cls-9" d="M28.788,55.773a2.826,2.826,0,0,1,.28-.413,5.377,5.377,0,0,1,.376-.435c.156-.16.344-.329.553-.507a8.234,8.234,0,0,1,.721-.519,8.02,8.02,0,0,1,.871-.481,7.85,7.85,0,0,1,.987-.407c.343-.128.707-.2,1.063-.3.365-.068.727-.129,1.089-.173a9.94,9.94,0,0,1,1.064-.052c.344.013.677.033.989.057s.6.1.873.143a5.413,5.413,0,0,1,.724.176c.211.068.4.135.543.187.3.109.464.185.464.185s-.185.031-.5.061c-.156.013-.345.033-.56.045s-.455.037-.716.064-.537.036-.833.075-.6.077-.915.107c-.315.051-.64.107-.968.145-.324.063-.652.129-.983.192l-.489.117c-.159.04-.324.068-.481.123s-.315.089-.471.129-.307.1-.456.144c-.3.089-.587.2-.865.295-.141.043-.267.107-.4.152s-.256.1-.372.147c-.237.1-.46.193-.651.283s-.364.171-.5.237-.253.121-.327.161S28.788,55.773,28.788,55.773Z"/>
    <path id="Path_42" data-name="Path 42" class="cls-5" d="M18.987,55.053a59.345,59.345,0,0,1-.455-7.193C18.6,51.992,18.987,55.053,18.987,55.053Z"/>
    <path id="Path_43" data-name="Path 43" class="cls-14" d="M75,195.221h0a142.562,142.562,0,0,1-23.684,3.17c-2.647.131-3.328-23.812-5.979-23.828-1.325-.006-4.621,23.967-5.945,23.923a142.641,142.641,0,0,1-25.928-3.251L24.924,148.5h38.9Z"/>
    <path id="Path_44" data-name="Path 44" class="cls-9" d="M19.583,64.769c1.357.824,3.056-1.023,2.736-2.579s-1.741-2.6-3.056-3.488a5.566,5.566,0,0,0,1.927-7.395,4.877,4.877,0,0,0,1.479-6.127,2.749,2.749,0,0,0,3.377-3.224,3.088,3.088,0,0,0,4.448-1.984,14.068,14.068,0,0,0,11.908-2.1c1.381,2.173,5.311,1.741,6.187-.68A4.1,4.1,0,0,0,54.28,38.86a6.841,6.841,0,0,0,5.931,1.061c-1.047,1.472.2,3.571,1.783,4.448s3.479,1.132,4.932,2.2a5.334,5.334,0,0,1,2.131,4.253,5.266,5.266,0,0,0,.12,2.044c.668,1.625,3.641,2.568,2.685,4.04a5.065,5.065,0,0,0,2.761-5.153,8.5,8.5,0,0,1-.341-2.635c.324-1.843,2.787-3.571,1.616-5.029a5.6,5.6,0,0,0-2.888-1.133,5.53,5.53,0,0,0,1.037-3.528c-.195-1.237-1.551-2.337-2.685-1.809a3.355,3.355,0,1,0-5.511-3.729,3.179,3.179,0,0,0-3.637-5.144c-1.453.757-.991-3.443-1.936-4.781a2.449,2.449,0,0,0-3.261-.329,6.67,6.67,0,0,0-2.111,2.891,2.719,2.719,0,1,0-5.4-.275c-1.048-1.255-2.255-2.564-3.865-2.836s-3.528,1.172-3.047,2.735c.575-1.015-.285-2.359-1.4-2.715a5.833,5.833,0,0,0-3.425.309,7.442,7.442,0,0,0-3.437,1.765,2.633,2.633,0,0,0-.223,3.527,5.212,5.212,0,0,0-4.867-1.745c-1.745.468-2.935,2.755-1.869,4.216A5,5,0,0,0,20.8,35.555a4,4,0,0,0-4.937,4.16,5.252,5.252,0,0,0-3.144,5.9H14.8c-1.325.839-2.669,1.925-2.989,3.46s1.056,3.4,2.557,2.951a2.541,2.541,0,1,0,.688,5,11.773,11.773,0,0,0,4.724,7.139"/>
    <path id="Path_45" data-name="Path 45" class="cls-15" d="M65.388,148.444H24.667c-2.573,0-2.579,4,0,4H45.644a.749.749,0,0,0,.024.117c1.048,2.411.3,5.7.157,8.24-.151,2.628.424,7.73-2.363,9.174-.763.394-.088,1.546.673,1.152,2.985-1.546,2.713-4.916,2.883-7.87.193-3.384,1.135-7.506-.013-10.813H65.388C67.961,152.444,67.965,148.444,65.388,148.444Z"/>
    <path id="Path_46" data-name="Path 46" class="cls-15" d="M38.644,196.463c-8.585,1.1-15.828.674-23.864-2.707-2.369-1-3.4,2.873-1.063,3.857,8.483,3.57,15.869,4.007,24.927,2.85C41.164,200.139,41.195,196.136,38.644,196.463Z"/>
    <path id="Path_47" data-name="Path 47" class="cls-15" d="M73.993,193.64c-6.1,2.672-14.5,4.8-21.1,2.8-2.468-.749-3.524,3.11-1.063,3.858,7.667,2.33,17.111-.1,24.184-3.2C78.365,196.065,76.332,192.617,73.993,193.64Z"/>
    <path id="Path_48" data-name="Path 48" class="cls-15" d="M32.317,155.979c-.809,2.253-1.688,4.721-3.521,6.362-1.924,1.723-4.467,2.314-6.913,2.878-.836.194-.483,1.478.353,1.286,2.672-.617,5.433-1.308,7.5-3.22,1.991-1.842,2.969-4.458,3.864-6.952C33.893,155.525,32.6,155.176,32.317,155.979Z"/>
    <path id="Path_49" data-name="Path 49" class="cls-15" d="M67.979,166.755a.676.676,0,0,0-.489-.643l-.116-.021a.673.673,0,0,0-.521.113c-1.981-.169-4.628-2.239-5.92-3.383a17.112,17.112,0,0,1-4.005-5.336c-.379-.77-1.529-.094-1.151.674a18.124,18.124,0,0,0,5.033,6.292c1.549,1.225,4.4,3.289,6.508,3.116a.679.679,0,0,0,.667-.667C67.983,166.852,67.98,166.8,67.979,166.755Z"/>
    <path id="Path_50" data-name="Path 50" class="cls-5" d="M78.272,129.3s1.136,4.632-4.071,7.258-12.52,3.252-27.085-2.172-16.707-7.555-16.707-7.555,7.656-3.647,20.232-2.313A279.636,279.636,0,0,1,78.272,129.3Z"/>
    <path id="Path_51" data-name="Path 51" class="cls-8" d="M12.123,126.823s-1.136,4.633,4.071,7.258,12.519,3.251,27.084-2.172,18.565-5.822,18.565-5.822a40.2,40.2,0,0,0-22.091-4.048,279.275,279.275,0,0,0-27.629,4.784Z"/>
    <path id="Path_52" data-name="Path 52" class="cls-8" d="M21.941,125.084a3.724,3.724,0,0,0-.529-2.889c-.787-.872-2.155-.794-3.312-.611-2.171.345-4.516.941-5.82,2.711-.487.66-1.191,1.576-1.9,1.158a1.1,1.1,0,0,1-.455-.894,2.381,2.381,0,0,1,1.172-2.2c-.445-.454-1.475.2-1.764-.363-.149-.292.088-.625.311-.865l1.439-1.558c-.348-.181-.763-.02-1.151.034s-.9-.136-.877-.527a.8.8,0,0,1,.363-.511l1.307-1.066c-.271.32-.843-.091-.791-.508s.44-.7.8-.915a16.868,16.868,0,0,1,9.892-2.321c.492.04,1.068.157,1.272.608a.715.715,0,0,1-.191-1.206,1.078,1.078,0,0,1,1.379.175,2.28,2.28,0,0,1,.552,1.387c.055.5-.107,1.077.153,1.514,2.887,4.87.532,10.046,1.212,9.316s-2.9-.19-2.572-.324c.117-.048-.215.194-.328.134s.061-.271.1-.148"/>
    <path id="Path_53" data-name="Path 53" class="cls-8" d="M68.955,127.139a3.728,3.728,0,0,1,.529-2.891c.787-.871,2.153-.793,3.312-.609,2.171.344,4.516.94,5.819,2.709.488.661,1.191,1.577,1.9,1.16a1.111,1.111,0,0,0,.455-.9,2.38,2.38,0,0,0-1.172-2.195c.444-.454,1.475.2,1.764-.364.149-.292-.088-.625-.311-.865l-1.439-1.557c.347-.182.763-.02,1.151.033s.9-.136.876-.525a.8.8,0,0,0-.363-.512q-.652-.534-1.307-1.066c.272.319.844-.092.791-.509s-.44-.7-.8-.913a16.857,16.857,0,0,0-9.892-2.322c-.492.039-1.069.156-1.273.607a.713.713,0,0,0,.192-1.2,1.078,1.078,0,0,0-1.38.173,2.284,2.284,0,0,0-.552,1.388c-.055.5.108,1.078-.152,1.514-2.887,4.87-.532,10.046-1.212,9.317s2.9-.191,2.572-.324c-.117-.048.215.192.327.133s-.061-.272-.1-.149"/>
  </g>
</svg>
