<svg width="148" height="274" viewBox="0 0 148 274" fill="none" xmlns="http://www.w3.org/2000/svg">
<g id="kofi kid v2 1" clip-path="url(#clip0_20_2172)">
<g id="Clip path group">
<mask id="mask0_20_2172" style="mask-type:luminance" maskUnits="userSpaceOnUse" x="0" y="0" width="148" height="274">
<g id="clip-path">
<path id="Rectangle 1" d="M148 0H0V274H148V0Z" fill="white"/>
</g>
</mask>
<g mask="url(#mask0_20_2172)">
<g id="Group 1">
<path id="Path 2" d="M118.057 253.493C118.057 256.66 98.805 259.227 75.057 259.227C51.309 259.227 32.057 256.66 32.057 253.493C32.057 250.326 51.309 247.76 75.057 247.76C98.805 247.76 118.057 250.327 118.057 253.493Z" fill="#D2CFC9"/>
<path id="Path 3" d="M44.084 113.712L44.46 123.712C44.5291 125.557 44.9967 127.366 45.8305 129.013C46.6643 130.66 47.8447 132.108 49.2906 133.256C50.7366 134.405 52.4139 135.227 54.2074 135.666C56.0009 136.105 57.8681 136.151 59.681 135.8L59.4 96.03L55.676 98.143C52.7705 99.7935 50.2397 102.03 48.2441 104.71C46.2484 107.39 44.8324 110.455 44.084 113.712Z" fill="#5A2215"/>
<path id="Path 4" d="M113.105 127.9L112.733 129.017C111.805 131.809 110.015 134.233 107.619 135.941C105.224 137.649 102.348 138.551 99.406 138.517L95.389 138.47L103.289 98.699C103.689 98.9656 104.085 99.2413 104.476 99.526C113.248 105.979 116.539 117.573 113.105 127.9Z" fill="#7C381E"/>
<path id="Path 5" d="M105.177 101.533L96.829 148.5H57.929C57.942 146.656 52.956 107.477 52.112 100.864C51.9574 99.6335 52.2697 98.3897 52.9873 97.3782C53.7049 96.3666 54.7755 95.6608 55.988 95.4L73.888 91.561L84.332 92L101.012 95.4C102.368 95.6775 103.562 96.4735 104.34 97.6185C105.118 98.7635 105.419 100.167 105.177 101.53V101.533Z" fill="#57C6B7"/>
<path id="Path 6" d="M56.021 132C57.08 140.587 57.929 147.737 57.921 148.5H96.829L99.761 132H56.021Z" fill="#30766F"/>
<path id="Path 7" d="M87.879 95.8C87.879 100.075 83.298 103.539 77.646 103.539C71.994 103.539 67.415 100.072 67.415 95.8C67.415 91.528 72 88.061 77.646 88.061C83.292 88.061 87.879 91.524 87.879 95.8Z" fill="#30766F"/>
<path id="Path 8" d="M98.277 177.161L105.397 235.007L94.884 238.452C94.884 238.452 87.184 212.452 84.76 199.211C83.3182 191.014 83.3887 182.623 84.968 174.452L98.277 177.161Z" fill="#9A4827"/>
<path id="Path 9" d="M53.331 177.161L47.974 235.007L55.342 238.452C55.342 238.452 64.418 212.452 66.847 199.211C68.2895 191.014 68.219 182.623 66.639 174.452L53.331 177.161Z" fill="#9A4827"/>
<path id="Path 10" d="M99.5 187.069L98.281 177.161L84.972 174.452C84.1459 178.607 83.7329 182.833 83.739 187.069H99.5Z" fill="#7C381E"/>
<path id="Path 11" d="M67.872 187.069C67.8782 182.833 67.4651 178.607 66.639 174.452L53.331 177.161L52.414 187.069H67.872Z" fill="#7C381E"/>
<path id="Path 12" d="M121.243 253.493H93.555C93.4224 253.493 93.291 253.467 93.1684 253.416C93.0458 253.366 92.9344 253.291 92.8405 253.198C92.7467 253.104 92.6722 252.993 92.6213 252.87C92.5704 252.748 92.5441 252.617 92.544 252.484V231.463H107.155V240.503C107.155 240.771 107.261 241.027 107.451 241.216C107.64 241.406 107.896 241.512 108.164 241.512H111.28C112.721 241.512 114.148 241.796 115.479 242.347C116.81 242.898 118.02 243.707 119.039 244.726C120.057 245.745 120.866 246.954 121.417 248.286C121.968 249.617 122.251 251.044 122.251 252.485C122.251 252.752 122.145 253.009 121.956 253.198C121.767 253.387 121.51 253.493 121.243 253.493Z" fill="#271C24"/>
<path id="Path 13" d="M111.537 241.519C114.401 241.585 117.125 242.77 119.127 244.819C121.129 246.868 122.25 249.619 122.25 252.484C122.25 252.616 122.224 252.747 122.174 252.87C122.123 252.992 122.049 253.103 121.955 253.197C121.861 253.291 121.75 253.365 121.628 253.416C121.506 253.467 121.374 253.493 121.242 253.493H111.542L111.537 241.519Z" fill="#57C6B7"/>
<path id="Path 14" d="M121.608 248.773C122.035 249.964 122.252 251.219 122.251 252.484C122.251 252.616 122.225 252.748 122.175 252.87C122.124 252.992 122.05 253.104 121.956 253.197C121.863 253.291 121.751 253.365 121.629 253.416C121.507 253.467 121.375 253.493 121.243 253.493H93.555C93.4224 253.493 93.291 253.467 93.1684 253.416C93.0458 253.366 92.9344 253.292 92.8405 253.198C92.7467 253.104 92.6722 252.993 92.6213 252.87C92.5704 252.748 92.5441 252.617 92.544 252.484V248.773H121.608Z" fill="#57C6B7"/>
<path id="Path 15" d="M30.982 253.493H58.671C58.8036 253.493 58.935 253.467 59.0576 253.416C59.1802 253.366 59.2916 253.291 59.3855 253.198C59.4793 253.104 59.5539 252.993 59.6047 252.87C59.6556 252.748 59.6819 252.617 59.682 252.484V231.463H45.071V240.503C45.0709 240.636 45.0446 240.767 44.9937 240.889C44.9428 241.012 44.8683 241.123 44.7745 241.217C44.6806 241.31 44.5692 241.385 44.4466 241.435C44.324 241.486 44.1926 241.512 44.06 241.512H40.944C39.5032 241.512 38.0765 241.796 36.7453 242.347C35.4142 242.899 34.2047 243.707 33.186 244.726C32.1672 245.744 31.3591 246.954 30.8078 248.285C30.2565 249.616 29.9729 251.043 29.973 252.484C29.973 252.751 30.0793 253.008 30.2685 253.197C30.4577 253.387 30.7144 253.493 30.982 253.493Z" fill="#271C24"/>
<path id="Path 16" d="M40.687 241.519C37.8229 241.585 35.0984 242.77 33.0962 244.819C31.094 246.868 29.973 249.619 29.973 252.484C29.973 252.751 30.0792 253.008 30.2682 253.197C30.4572 253.386 30.7136 253.493 30.981 253.493H40.681L40.687 241.519Z" fill="#57C6B7"/>
<path id="Path 17" d="M30.618 248.773C30.1905 249.963 29.9727 251.219 29.974 252.484C29.974 252.751 30.0802 253.008 30.2692 253.197C30.4582 253.386 30.7146 253.493 30.982 253.493H58.671C58.8036 253.493 58.935 253.467 59.0576 253.416C59.1802 253.366 59.2916 253.292 59.3855 253.198C59.4794 253.104 59.5539 252.993 59.6047 252.87C59.6556 252.748 59.6819 252.617 59.682 252.484V248.773H30.618Z" fill="#57C6B7"/>
<path id="Path 24" d="M72 78.32L83.684 78.189C83.684 78.189 84.339 96.481 84.384 96.478C84.384 96.478 83.567 100.138 78.384 100.278C73.201 100.418 71.879 96.621 71.879 96.621C71.919 96.519 72 78.32 72 78.32Z" fill="#9A4827"/>
<path id="Path 25" d="M72.077 85.048L83.762 84.917C83.762 84.917 84.29 91.994 84.333 91.994C84.333 91.994 83.517 95.654 78.333 95.794C73.149 95.934 71.826 92.137 71.826 92.137C71.868 92.033 72.077 85.048 72.077 85.048Z" fill="#7C381E"/>
<path id="Path 26" d="M72.04 81.685L83.725 81.553C83.725 81.553 83.898 83.888 84.056 85.874C84.08 86.163 80.727 86.707 80.364 86.774C77.5347 87.1805 74.6521 87.0011 71.895 86.247C71.964 84.207 72.04 81.685 72.04 81.685Z" fill="#7C381E"/>
<g id="kid-face">
<path id="Path 18" d="M55.367 59.9398C55.367 59.9398 50.708 53.9628 46.426 57.8908C42.144 61.8188 48.27 73.9268 56.477 71.0778L55.367 59.9398Z" fill="#9A4827"/>
<path id="Path 19" d="M55.787 64.1599L56.36 69.8999C49.26 71.1769 45.204 61.2929 48.472 59.9229C51.111 58.8069 54.389 62.2729 55.787 64.1599Z" fill="#7C381E"/>
<path id="Path 20" d="M47.328 61.9629C47.328 61.9629 47.341 61.9188 47.363 61.8358C47.385 61.7528 47.424 61.6358 47.472 61.4948C47.595 61.1152 47.8137 60.7735 48.107 60.5028C48.1955 60.429 48.2934 60.3672 48.398 60.3189C48.4529 60.2927 48.5093 60.27 48.567 60.2508L48.607 60.2359C48.576 60.2489 48.602 60.2409 48.595 60.2429H48.613L48.64 60.2349L48.753 60.2059C48.8185 60.1867 48.8854 60.1723 48.953 60.1628C49.0192 60.1517 49.086 60.144 49.153 60.1398C49.2221 60.1331 49.2916 60.1305 49.361 60.1319C49.4334 60.1282 49.506 60.1306 49.578 60.1389C50.2077 60.2084 50.8163 60.4068 51.366 60.7219C51.6636 60.8807 51.9524 61.0556 52.231 61.2458C52.507 61.4348 52.78 61.6329 53.039 61.8299C53.556 62.2299 54.024 62.6299 54.432 62.9769L55.78 64.1688C55.78 64.1688 55.711 63.9999 55.559 63.7199C55.3469 63.3342 55.1104 62.9624 54.851 62.6068C54.687 62.3878 54.51 62.1478 54.299 61.9118C54.088 61.6758 53.862 61.4279 53.611 61.1879C53.0781 60.6743 52.48 60.2332 51.832 59.8758C51.488 59.6918 51.1257 59.5443 50.751 59.4359C50.3731 59.3279 49.9809 59.278 49.588 59.2878C49.4913 59.2899 49.3948 59.2976 49.299 59.3109C49.2055 59.3197 49.1128 59.3361 49.022 59.3599C48.9273 59.3783 48.8341 59.4033 48.743 59.4349C48.6581 59.4615 48.5755 59.495 48.496 59.5349L48.388 59.5839L48.323 59.6149L48.262 59.6478C48.1835 59.6902 48.1083 59.7383 48.037 59.7919C47.9062 59.8948 47.7893 60.0141 47.689 60.1468C47.5203 60.3652 47.4012 60.6178 47.34 60.8869C47.2947 61.0805 47.2728 61.279 47.275 61.4779C47.2757 61.6023 47.2847 61.7266 47.302 61.8498C47.321 61.9188 47.328 61.9629 47.328 61.9629Z" fill="#5A2215"/>
<path id="Path 21" d="M98.532 59.4559C98.532 59.4559 103.056 53.3789 107.425 57.2119C111.794 61.0449 105.937 73.2849 97.669 70.6199L98.532 59.4559Z" fill="#9A4827"/>
<path id="Path 22" d="M98.205 63.6889L97.761 69.4319C104.885 70.5529 108.72 60.5829 105.424 59.2829C102.761 58.2329 99.559 61.7709 98.205 63.6889Z" fill="#7C381E"/>
<path id="Path 23" d="M106.612 61.2999C106.612 61.2999 106.599 61.2569 106.576 61.1759C106.553 61.0949 106.511 60.9759 106.459 60.8319C106.329 60.4547 106.102 60.1182 105.802 59.8559C105.711 59.7825 105.61 59.7229 105.502 59.6789C105.448 59.6551 105.393 59.6341 105.337 59.6159L105.293 59.6009C105.326 59.6119 105.301 59.6009 105.305 59.6009H105.287L105.259 59.5939L105.146 59.5669C105.081 59.5481 105.014 59.535 104.946 59.5279C104.88 59.5166 104.813 59.5103 104.746 59.5089C104.677 59.5048 104.607 59.5048 104.538 59.5089C104.465 59.5087 104.393 59.513 104.321 59.5219C103.692 59.6027 103.087 59.8142 102.545 60.1429C102.252 60.3086 101.968 60.4902 101.694 60.6869C101.421 60.8869 101.153 61.0869 100.894 61.2869C100.386 61.6979 99.927 62.1079 99.527 62.4629C98.732 63.1959 98.206 63.6869 98.206 63.6869C98.206 63.6869 98.273 63.5149 98.418 63.2319C98.6192 62.8394 98.8471 62.4612 99.1 62.0999C99.257 61.8789 99.433 61.6349 99.636 61.3999C99.839 61.1649 100.059 60.9069 100.305 60.6609C100.826 60.1323 101.414 59.6747 102.054 59.2999C102.395 59.1091 102.754 58.9546 103.127 58.8389C103.501 58.721 103.892 58.6616 104.284 58.6629C104.381 58.6638 104.478 58.6702 104.575 58.6819C104.669 58.6881 104.763 58.7018 104.855 58.7229C104.949 58.7398 105.042 58.7635 105.132 58.7939C105.219 58.8146 105.303 58.8445 105.383 58.8829L105.488 58.9269L105.556 58.9559L105.617 58.9879C105.697 59.028 105.774 59.0752 105.846 59.1289C106.203 59.3934 106.458 59.7731 106.567 60.2039C106.617 60.3972 106.644 60.596 106.646 60.7959C106.648 60.9205 106.642 61.0452 106.626 61.1689C106.619 61.2589 106.612 61.2999 106.612 61.2999Z" fill="#5A2215"/>
<path id="Path 27" d="M49.405 55.1798C49.566 69.7518 62.342 81.4268 77.938 81.2528C93.534 81.0788 106.047 69.1238 105.886 54.5528C105.725 39.9818 92.949 28.2998 77.352 28.4758C61.755 28.6518 49.241 40.5998 49.405 55.1798Z" fill="#271C24"/>
<path id="Path 28" d="M52.4 54.7889C52.591 46.6659 56 38.9609 63.984 35.7219C68.1067 34.1903 72.4884 33.477 76.884 33.6219C81.197 33.6429 85.795 33.8709 89.865 35.3899C97.157 38.1099 96.142 41.8789 96.965 49.2829C97.048 50.0099 101.965 53.5099 101.993 54.2389C102.07 55.9109 102.217 57.5559 102.174 59.2389C102.109 63.0293 101.489 66.7897 100.332 70.3999C98.9541 74.8285 96.3607 78.7814 92.847 81.8089C90.789 83.502 88.4549 84.8284 85.947 85.7299C81.9982 87.2787 77.7022 87.7229 73.52 87.0149C70.5676 86.535 67.719 85.5543 65.097 84.1149C60.854 81.6696 57.4891 77.9499 55.48 73.4839C53.8044 69.7463 52.7846 65.7483 52.465 61.6649C52.2421 59.4382 52.2163 57.1961 52.388 54.9649C52.393 54.9069 52.4 54.8479 52.4 54.7889Z" fill="#9A4827"/>
<path id="Path 44" d="M52.583 64.7689C53.94 65.5929 55.639 63.7459 55.319 62.1899C54.999 60.6339 53.578 59.5899 52.263 58.7019C53.4673 57.9481 54.3378 56.7623 54.6961 55.3874C55.0544 54.0125 54.8733 52.5526 54.19 51.3069C55.1216 50.6257 55.7814 49.6363 56.0522 48.5144C56.323 47.3926 56.1872 46.2111 55.669 45.1799C56.1215 45.2965 56.5963 45.2959 57.0484 45.178C57.5006 45.0601 57.9153 44.8289 58.2533 44.5063C58.5913 44.1836 58.8415 43.7801 58.9802 43.3338C59.1189 42.8876 59.1415 42.4133 59.046 41.9559C59.4606 42.1765 59.92 42.2996 60.3893 42.3159C60.8587 42.3322 61.3255 42.2413 61.7544 42.05C62.1833 41.8587 62.5629 41.5721 62.8643 41.212C63.1658 40.8519 63.3811 40.4278 63.494 39.9719C65.5101 40.5292 67.6252 40.6298 69.6851 40.2666C71.7451 39.9033 73.6981 39.0852 75.402 37.8719C76.783 40.0449 80.713 39.6129 81.589 37.1919C81.8436 37.6843 82.1954 38.12 82.6232 38.4725C83.0509 38.8251 83.5458 39.0873 84.0777 39.2432C84.6097 39.3991 85.1677 39.4455 85.7181 39.3796C86.2685 39.3138 86.7998 39.137 87.28 38.8599C88.122 39.4778 89.0943 39.8946 90.1224 40.0785C91.1504 40.2624 92.207 40.2085 93.211 39.9209C92.164 41.3929 93.411 43.4919 94.994 44.3689C96.577 45.2459 98.473 45.5009 99.926 46.5689C100.586 47.0646 101.122 47.7067 101.492 48.4447C101.862 49.1827 102.055 49.9965 102.057 50.8219C101.963 51.5045 102.004 52.199 102.177 52.8659C102.845 54.4909 105.818 55.4339 104.862 56.9059C105.798 56.4376 106.567 55.6907 107.061 54.768C107.555 53.8452 107.752 52.7919 107.623 51.7529C107.372 50.8979 107.257 50.0087 107.282 49.1179C107.606 47.2749 110.069 45.5469 108.898 44.0889C108.061 43.4468 107.06 43.0541 106.01 42.9559C106.748 41.9326 107.114 40.6878 107.047 39.4279C106.852 38.1909 105.496 37.0909 104.362 37.6189C104.678 37.2615 104.914 36.8408 105.055 36.3849C105.195 35.929 105.237 35.4484 105.177 34.9751C105.117 34.5017 104.957 34.0466 104.707 33.6401C104.458 33.2336 104.124 32.8851 103.729 32.6177C103.334 32.3503 102.886 32.1703 102.416 32.0897C101.946 32.009 101.464 32.0296 101.002 32.15C100.54 32.2704 100.11 32.4878 99.7388 32.7879C99.3679 33.0879 99.0652 33.4636 98.851 33.8899C99.4131 33.3654 99.7662 32.655 99.8447 31.8902C99.9232 31.1254 99.7219 30.358 99.278 29.7302C98.8342 29.1024 98.1779 28.6568 97.4306 28.4758C96.6834 28.2948 95.8959 28.3908 95.214 28.7459C93.761 29.5029 94.223 25.3029 93.278 23.9649C92.8711 23.5168 92.3128 23.2352 91.7106 23.1745C91.1085 23.1137 90.5051 23.2781 90.017 23.6359C89.063 24.3892 88.3331 25.3889 87.906 26.5269C87.9659 26.1501 87.9459 25.7649 87.8472 25.3964C87.7484 25.0279 87.5733 24.6843 87.3331 24.3879C87.0928 24.0915 86.7929 23.8489 86.4528 23.676C86.1127 23.5032 85.74 23.4038 85.359 23.3844C84.978 23.365 84.5971 23.426 84.2412 23.5634C83.8853 23.7009 83.5623 23.9117 83.2932 24.1821C83.0241 24.4526 82.815 24.7766 82.6794 25.1332C82.5437 25.4898 82.4846 25.871 82.506 26.2519C81.458 24.9969 80.251 23.6879 78.641 23.4159C77.031 23.1439 75.113 24.5879 75.594 26.1509C76.169 25.1359 75.309 23.7919 74.194 23.4359C73.0472 23.1924 71.8537 23.3001 70.769 23.7449C69.4879 24.0204 68.3023 24.6293 67.332 25.5099C66.864 25.9655 66.5821 26.5787 66.5408 27.2304C66.4996 27.8822 66.7021 28.5261 67.109 29.0369C66.5196 28.3478 65.7607 27.8244 64.9071 27.5184C64.0536 27.2123 63.1349 27.1343 62.242 27.2919C60.497 27.7599 59.307 30.0469 60.373 31.5079C59.6749 31.2689 58.9326 31.1873 58.1993 31.269C57.466 31.3507 56.7599 31.5937 56.1316 31.9805C55.5033 32.3674 54.9684 32.8885 54.5653 33.5065C54.1622 34.1245 53.9008 34.824 53.8 35.5549C53.1889 35.4061 52.5514 35.4035 51.9391 35.5473C51.3268 35.6911 50.7571 35.9772 50.2762 36.3825C49.7952 36.7877 49.4166 37.3007 49.1711 37.8797C48.9255 38.4587 48.82 39.0875 48.863 39.7149C47.7353 40.1802 46.8047 41.0235 46.231 42.1001C45.6573 43.1767 45.4763 44.4194 45.719 45.6149H47.8C46.475 46.4539 45.131 47.5399 44.811 49.0749C44.491 50.6099 45.867 52.4749 47.368 52.0259C47.0093 52.0329 46.6561 52.1158 46.3317 52.2691C46.0074 52.4224 45.7191 52.6427 45.486 52.9154C45.2529 53.1881 45.0802 53.5071 44.9792 53.8514C44.8783 54.1956 44.8513 54.5574 44.9002 54.9128C44.9492 55.2682 45.0728 55.6093 45.263 55.9135C45.4532 56.2177 45.7056 56.4782 46.0037 56.6778C46.3018 56.8774 46.6389 57.0116 46.9926 57.0716C47.3463 57.1316 47.7087 57.1161 48.056 57.0259C48.679 59.914 50.3653 62.4623 52.78 64.1649" fill="#271C24"/>
<path id="Path 29" d="M71.215 61.9089C71.3115 62.968 70.9837 64.0221 70.3037 64.8398C69.6236 65.6574 68.6469 66.1718 67.588 66.2699C66.5465 66.2202 65.5607 65.7848 64.8225 65.0485C64.0842 64.3122 63.6462 63.3276 63.5937 62.2862C63.5412 61.2449 63.8779 60.2212 64.5384 59.4144C65.1988 58.6075 66.1358 58.0752 67.167 57.9209C68.2318 57.9159 69.2553 58.3325 70.0138 59.0798C70.7723 59.8271 71.2042 60.8442 71.215 61.9089Z" fill="#7C381E"/>
<path id="Path 30" d="M71.164 60.9328C71.2129 61.4574 71.158 61.9866 71.0023 62.49C70.8467 62.9934 70.5935 63.4612 70.257 63.8667C69.9206 64.2722 69.5076 64.6075 69.0416 64.8534C68.5755 65.0993 68.0656 65.251 67.541 65.2998C66.4965 65.2543 65.5065 64.8209 64.7645 64.0843C64.0225 63.3477 63.582 62.3609 63.529 61.3167C63.476 60.2725 63.8143 59.2461 64.4779 58.4382C65.1414 57.6302 66.0824 57.0988 67.117 56.9478C68.181 56.9432 69.2037 57.3597 69.9618 58.1062C70.72 58.8527 71.1521 59.8688 71.164 60.9328Z" fill="#271C24"/>
<path id="Path 32" d="M94.088 60.9998C94.061 61.7472 93.8171 62.4706 93.3861 63.0817C92.9551 63.6928 92.3555 64.1653 91.6605 64.4415C90.9655 64.7177 90.2052 64.7857 89.4722 64.6371C88.7393 64.4886 88.0654 64.13 87.5328 63.605C87.0001 63.08 86.6318 62.4114 86.4727 61.6806C86.3136 60.9499 86.3706 60.1887 86.6367 59.4898C86.9029 58.7909 87.3666 58.1845 87.9715 57.7447C88.5763 57.3049 89.2961 57.0506 90.043 57.0128C90.5705 57.0086 91.0936 57.1084 91.5825 57.3066C92.0714 57.5047 92.5164 57.7974 92.8921 58.1677C93.2678 58.538 93.5668 58.9787 93.772 59.4647C93.9772 59.9507 94.0846 60.4723 94.088 60.9998Z" fill="#7C381E"/>
<path id="Path 33" d="M94.037 60.024C94.0099 60.7714 93.7658 61.4948 93.3345 62.1058C92.9033 62.7169 92.3035 63.1892 91.6084 63.4652C90.9133 63.7412 90.1529 63.809 89.42 63.6602C88.687 63.5114 88.0132 63.1525 87.4808 62.6273C86.9483 62.1021 86.5802 61.4332 86.4214 60.7024C86.2626 59.9716 86.3199 59.2103 86.5864 58.5115C86.8528 57.8126 87.3169 57.2065 87.922 56.7669C88.5271 56.3273 89.247 56.0734 89.994 56.036C90.5214 56.0319 91.0445 56.1319 91.5333 56.3302C92.0221 56.5285 92.467 56.8212 92.8425 57.1916C93.218 57.562 93.5168 58.0029 93.7218 58.4889C93.9267 58.9749 94.0338 59.4965 94.037 60.024Z" fill="#271C24"/>
<g id="kid-eyes">
<path id="kid-right-eye" d="M90.472 60.7289C90.4919 61.0341 90.4205 61.3383 90.2669 61.6028C90.1134 61.8673 89.8846 62.0801 89.6097 62.2142C89.3348 62.3482 89.0262 62.3974 88.7232 62.3555C88.4203 62.3137 88.1366 62.1826 87.9084 61.979C87.6802 61.7754 87.5177 61.5085 87.4416 61.2122C87.3656 60.916 87.3794 60.6038 87.4814 60.3155C87.5833 60.0271 87.7687 59.7756 88.0141 59.593C88.2594 59.4103 88.5535 59.3048 88.859 59.2899C89.0595 59.2777 89.2605 59.3054 89.4504 59.3712C89.6402 59.4371 89.8151 59.5399 89.965 59.6736C90.115 59.8074 90.237 59.9695 90.324 60.1506C90.411 60.3317 90.4613 60.5283 90.472 60.7289Z" fill="white"/>
<path id="kid-left-eye" d="M68.467 61.4C68.4872 61.7052 68.4162 62.0095 68.263 62.2741C68.1098 62.5388 67.8813 62.7519 67.6065 62.8863C67.3318 63.0207 67.0233 63.0703 66.7203 63.0288C66.4173 62.9873 66.1335 62.8566 65.905 62.6533C65.6765 62.45 65.5137 62.1833 65.4373 61.8872C65.3608 61.5911 65.3742 61.2789 65.4758 60.9904C65.5773 60.7019 65.7624 60.4502 66.0075 60.2672C66.2526 60.0843 66.5465 59.9784 66.852 59.963C67.0525 59.9508 67.2534 59.9784 67.4432 60.0441C67.6331 60.1098 67.808 60.2124 67.9581 60.3459C68.1082 60.4794 68.2304 60.6413 68.3177 60.8222C68.405 61.0031 68.4558 61.1994 68.467 61.4Z" fill="white"/>
</g>
<path id="Path 35" d="M79.015 59.0159C79.015 59.0159 78.455 64.0919 80.844 63.6709C85.471 62.8589 85.488 72.7709 78.5 69.0859C75.861 67.6949 76.727 59.0859 76.727 59.0859L79.015 59.0159Z" fill="#5A2215"/>
<path id="Path 36" d="M83.924 73.5508C83.924 73.5508 74.613 75.0998 70.188 69.7688C70.188 69.7688 66.472 79.7378 76.469 81.0128C82.784 81.8158 83.924 73.5508 83.924 73.5508Z" fill="#7C1D21"/>
<path id="Path 37" d="M80.76 79.8369C80.1693 80.3265 79.4811 80.6846 78.7412 80.8874C78.0013 81.0902 77.2267 81.133 76.469 81.0129C74.6723 80.8713 72.964 80.1753 71.58 79.0209C71.282 78.7351 71.0075 78.4257 70.759 78.0959C70.7516 78.0899 70.7452 78.0829 70.74 78.0749C70.7369 78.0714 70.7345 78.0674 70.733 78.0629C70.0286 77.0248 69.6184 75.8154 69.546 74.5629C75.161 73.0999 79.192 77.4869 80.76 79.8369Z" fill="#D51E25"/>
<path id="Path 38" d="M83.924 73.551L83.891 73.751C82.991 73.939 81.31 75.908 79.051 75.83C77.6222 75.766 76.2216 75.4107 74.935 74.786C74.1168 74.4491 73.3408 74.0175 72.623 73.5C72.0573 72.785 71.6694 71.9461 71.491 71.052C76.212 74.835 83.921 73.551 83.924 73.551Z" fill="white"/>
<path id="Path 39" d="M70.417 70.7639C70.05 72.1959 69.544 75.2079 70.964 77.5009C71.993 79.1619 73.864 80.1799 76.532 80.5169C81.344 81.1299 82.9 75.9999 83.3 74.1369C81.109 74.3749 74.417 74.7309 70.417 70.7639ZM76.4 81.4999C73.409 81.1189 71.288 79.9429 70.091 78.0089C67.924 74.4929 69.635 69.7919 69.708 69.5929C69.739 69.5099 69.7916 69.4365 69.8603 69.3805C69.929 69.3244 70.0114 69.2877 70.099 69.2739C70.1868 69.2592 70.277 69.2676 70.3607 69.2982C70.4443 69.3289 70.5185 69.3809 70.576 69.4489C74.759 74.4929 83.745 73.0699 83.835 73.0559C83.9132 73.0423 83.9934 73.0472 84.0694 73.0703C84.1453 73.0934 84.2147 73.1341 84.272 73.1889C84.3283 73.2427 84.371 73.3092 84.3965 73.3827C84.4221 73.4562 84.4298 73.5348 84.419 73.6119C84.411 73.6959 83.263 81.4929 77.39 81.5569C77.0591 81.5611 76.7283 81.542 76.4 81.4999Z" fill="#A32920"/>
<path id="Path 40" d="M95.171 54.5319C95.0865 54.3882 94.9899 54.252 94.882 54.1249C94.7608 53.9758 94.6302 53.8345 94.491 53.7019C94.3135 53.5242 94.1255 53.3572 93.928 53.2019C93.4314 52.8156 92.8898 52.4909 92.315 52.2349C91.9908 52.0844 91.6567 51.9561 91.315 51.8509C90.97 51.7299 90.606 51.6639 90.247 51.5719C89.882 51.5149 89.515 51.4599 89.155 51.4249C88.795 51.3899 88.434 51.3939 88.091 51.3939C87.746 51.4139 87.412 51.4429 87.102 51.4739C86.809 51.5131 86.5183 51.5675 86.231 51.6369C85.9868 51.6844 85.7462 51.7488 85.511 51.8299C85.302 51.9009 85.12 51.9709 84.972 52.0299C84.679 52.1429 84.513 52.2249 84.513 52.2249C84.513 52.2249 84.7 52.2519 85.013 52.2729C85.169 52.2849 85.36 52.2999 85.576 52.3059C85.792 52.3119 86.031 52.3339 86.292 52.3549C86.553 52.3759 86.832 52.3789 87.127 52.4109C87.422 52.4429 87.727 52.4739 88.044 52.4949C88.359 52.5389 88.681 52.5869 89.013 52.6219C89.338 52.6779 89.666 52.7339 89.998 52.7929L90.489 52.8999C90.651 52.9359 90.818 52.9609 90.974 53.0089C91.13 53.0569 91.293 53.0899 91.45 53.1289C91.607 53.1679 91.755 53.2209 91.91 53.2619C92.215 53.3449 92.501 53.4469 92.781 53.5349C92.922 53.5779 93.05 53.6349 93.181 53.6799C93.312 53.7249 93.44 53.7709 93.558 53.8209C93.798 53.9139 94.021 54.0019 94.213 54.0859C94.405 54.1699 94.58 54.2489 94.724 54.3109C94.868 54.3729 94.977 54.4259 95.051 54.4659C95.125 54.5059 95.171 54.5319 95.171 54.5319Z" fill="#271C24"/>
<path id="Path 41" d="M61.788 55.773C61.869 55.6273 61.9627 55.4891 62.068 55.36C62.1855 55.2084 62.311 55.0631 62.444 54.925C62.6 54.765 62.788 54.596 62.997 54.418C63.2278 54.2321 63.4685 54.0589 63.718 53.899C63.9981 53.7207 64.289 53.5601 64.589 53.418C64.9084 53.26 65.2381 53.1241 65.576 53.011C65.919 52.883 66.283 52.811 66.639 52.711C67.004 52.643 67.366 52.582 67.728 52.538C68.0815 52.5016 68.4367 52.4843 68.792 52.486C69.136 52.499 69.469 52.519 69.781 52.543C70.093 52.567 70.381 52.643 70.654 52.686C70.8991 52.7279 71.141 52.7867 71.378 52.862C71.589 52.93 71.778 52.997 71.921 53.049C72.221 53.158 72.385 53.234 72.385 53.234C72.385 53.234 72.2 53.265 71.885 53.295C71.729 53.308 71.54 53.328 71.325 53.34C71.11 53.352 70.87 53.377 70.609 53.404C70.348 53.431 70.072 53.44 69.776 53.479C69.48 53.518 69.176 53.556 68.861 53.586C68.546 53.637 68.221 53.693 67.893 53.731C67.569 53.794 67.241 53.86 66.91 53.923L66.421 54.04C66.262 54.08 66.097 54.108 65.94 54.163C65.783 54.218 65.625 54.252 65.469 54.292C65.313 54.332 65.162 54.392 65.013 54.436C64.713 54.525 64.426 54.636 64.148 54.731C64.007 54.774 63.881 54.838 63.748 54.883C63.615 54.928 63.492 54.983 63.376 55.03C63.139 55.13 62.916 55.223 62.725 55.313C62.534 55.403 62.361 55.484 62.225 55.55C62.089 55.616 61.972 55.671 61.898 55.711C61.824 55.751 61.788 55.773 61.788 55.773Z" fill="#271C24"/>
<path id="Path 42" d="M51.987 55.0529C51.6897 52.6666 51.5378 50.2645 51.532 47.8599C51.6 51.9919 51.987 55.0529 51.987 55.0529Z" fill="#7C381E"/>
</g>
<path id="Path 43" d="M108 195.221C100.208 196.939 92.2855 197.999 84.316 198.391C81.669 198.522 80.988 174.579 78.337 174.563C77.012 174.557 73.716 198.53 72.392 198.486C63.6681 198.198 54.989 197.11 46.464 195.235L57.924 148.5H96.824L108 195.221Z" fill="#27395E"/>
<path id="Path 45" d="M98.388 148.444H57.667C55.094 148.444 55.088 152.444 57.667 152.444H78.644C78.6489 152.483 78.6569 152.523 78.668 152.561C79.716 154.972 78.968 158.261 78.825 160.801C78.674 163.429 79.249 168.531 76.462 169.975C75.699 170.369 76.374 171.521 77.135 171.127C80.12 169.581 79.848 166.211 80.018 163.257C80.211 159.873 81.153 155.751 80.005 152.444H98.388C100.961 152.444 100.965 148.444 98.388 148.444Z" fill="#1C2335"/>
<path id="Path 46" d="M71.644 196.463C63.059 197.563 55.816 197.137 47.78 193.756C45.411 192.756 44.38 196.629 46.717 197.613C55.2 201.183 62.586 201.62 71.644 200.463C74.164 200.139 74.195 196.136 71.644 196.463Z" fill="#1C2335"/>
<path id="Path 47" d="M106.993 193.64C100.893 196.312 92.493 198.44 85.893 196.44C83.425 195.691 82.369 199.55 84.83 200.298C92.497 202.628 101.941 200.198 109.014 197.098C111.365 196.065 109.332 192.617 106.993 193.64Z" fill="#1C2335"/>
<path id="Path 48" d="M65.317 155.979C64.508 158.232 63.629 160.7 61.796 162.341C59.872 164.064 57.329 164.655 54.883 165.219C54.047 165.413 54.4 166.697 55.236 166.505C57.908 165.888 60.669 165.197 62.736 163.285C64.727 161.443 65.705 158.827 66.6 156.333C66.893 155.525 65.6 155.176 65.317 155.979Z" fill="#1C2335"/>
<path id="Path 49" d="M100.979 166.755C100.978 166.609 100.929 166.468 100.841 166.352C100.753 166.236 100.63 166.152 100.49 166.112L100.374 166.091C100.284 166.073 100.191 166.074 100.102 166.094C100.012 166.113 99.9276 166.15 99.853 166.204C97.872 166.035 95.225 163.965 93.933 162.821C92.2608 161.322 90.9 159.509 89.928 157.485C89.549 156.715 88.399 157.391 88.777 158.159C89.9613 160.607 91.6815 162.758 93.81 164.451C95.359 165.676 98.21 167.74 100.318 167.567C100.494 167.564 100.662 167.492 100.786 167.368C100.911 167.244 100.982 167.076 100.985 166.9C100.983 166.852 100.98 166.8 100.979 166.755Z" fill="#1C2335"/>
<path id="Path 50" d="M111.272 129.3C111.272 129.3 112.408 133.932 107.201 136.558C101.994 139.184 94.681 139.81 80.116 134.386C65.551 128.962 63.409 126.831 63.409 126.831C63.409 126.831 71.065 123.184 83.641 124.518C92.9255 125.649 102.147 127.245 111.272 129.3Z" fill="#7C381E"/>
<path id="Path 51" d="M45.123 126.823C45.123 126.823 43.987 131.456 49.194 134.081C54.401 136.706 61.713 137.332 76.278 131.909C90.843 126.486 94.843 126.087 94.843 126.087C88.0134 122.666 80.3507 121.262 72.752 122.039C63.468 123.17 54.2467 124.767 45.123 126.823Z" fill="#9A4827"/>
<path id="Path 52" d="M54.941 125.084C55.0533 124.592 55.0643 124.082 54.9733 123.585C54.8824 123.088 54.6914 122.615 54.412 122.195C53.625 121.323 52.257 121.401 51.1 121.584C48.929 121.929 46.584 122.525 45.28 124.295C44.793 124.955 44.089 125.871 43.38 125.453C43.2387 125.351 43.1238 125.216 43.0446 125.061C42.9655 124.905 42.9245 124.733 42.925 124.559C42.898 124.12 42.9932 123.682 43.2001 123.293C43.407 122.905 43.7174 122.581 44.097 122.359C43.652 121.905 42.622 122.559 42.333 121.996C42.184 121.704 42.421 121.371 42.644 121.131L44.083 119.573C43.735 119.392 43.32 119.553 42.932 119.607C42.544 119.661 42.032 119.471 42.055 119.08C42.078 118.975 42.122 118.875 42.1843 118.787C42.2467 118.699 42.3262 118.625 42.418 118.569L43.725 117.503C43.454 117.823 42.882 117.412 42.934 116.995C42.986 116.578 43.374 116.295 43.734 116.08C46.7144 114.308 50.1685 113.497 53.626 113.759C54.118 113.799 54.694 113.916 54.898 114.367C54.7846 114.32 54.6851 114.245 54.6091 114.149C54.533 114.053 54.483 113.939 54.4638 113.817C54.4447 113.696 54.457 113.572 54.4995 113.457C54.5421 113.342 54.6135 113.24 54.707 113.161C54.9205 113.023 55.1761 112.964 55.4285 112.996C55.6808 113.028 55.9137 113.149 56.086 113.336C56.4204 113.723 56.6148 114.212 56.638 114.723C56.693 115.223 56.531 115.8 56.791 116.237C59.678 121.107 57.323 126.283 58.003 125.553C58.683 124.823 55.103 125.363 55.431 125.229C55.548 125.181 55.216 125.423 55.103 125.363C54.99 125.303 55.164 125.092 55.203 125.215" fill="#9A4827"/>
<path id="Path 53" d="M101.955 127.139C101.843 126.646 101.832 126.136 101.923 125.639C102.014 125.142 102.205 124.669 102.484 124.248C103.271 123.377 104.637 123.455 105.796 123.639C107.967 123.983 110.312 124.579 111.615 126.348C112.103 127.009 112.806 127.925 113.515 127.508C113.656 127.404 113.771 127.269 113.851 127.112C113.93 126.956 113.971 126.783 113.97 126.608C113.996 126.169 113.901 125.732 113.694 125.345C113.487 124.958 113.177 124.635 112.798 124.413C113.242 123.959 114.273 124.613 114.562 124.049C114.711 123.757 114.474 123.424 114.251 123.184L112.812 121.627C113.159 121.445 113.575 121.607 113.963 121.66C114.351 121.713 114.863 121.524 114.839 121.135C114.816 121.029 114.772 120.93 114.71 120.842C114.647 120.754 114.568 120.679 114.476 120.623C114.041 120.267 113.606 119.912 113.169 119.557C113.441 119.876 114.013 119.465 113.96 119.048C113.907 118.631 113.52 118.348 113.16 118.135C110.18 116.362 106.726 115.551 103.268 115.813C102.776 115.852 102.199 115.969 101.995 116.42C102.108 116.373 102.206 116.299 102.282 116.203C102.358 116.107 102.407 115.994 102.427 115.874C102.446 115.753 102.434 115.63 102.392 115.515C102.35 115.401 102.28 115.299 102.187 115.22C101.974 115.081 101.718 115.022 101.465 115.054C101.213 115.086 100.98 115.206 100.807 115.393C100.473 115.781 100.278 116.269 100.255 116.781C100.2 117.281 100.363 117.859 100.103 118.295C97.216 123.165 99.571 128.341 98.891 127.612C98.211 126.883 101.791 127.421 101.463 127.288C101.346 127.24 101.678 127.48 101.79 127.421C101.902 127.362 101.729 127.149 101.69 127.272" fill="#9A4827"/>
</g>
</g>
</g>
</g>
<defs>
<clipPath id="clip0_20_2172">
<rect width="148" height="274" fill="white"/>
</clipPath>
</defs>
</svg>
