<svg width="123" height="404" viewBox="0 0 123 404" fill="none" xmlns="http://www.w3.org/2000/svg">
<g id="kofi adult v2 1" clip-path="url(#clip0_20_2120)">
<g id="Group 1">
<path id="Path 5" d="M113.245 398.246C113.245 401.413 89.492 403.98 60.191 403.98C30.89 403.98 7.136 401.413 7.136 398.246C7.136 395.079 30.891 392.513 60.191 392.513C89.491 392.513 113.245 395.08 113.245 398.246Z" fill="#D2CFC9"/>
<path id="Path 6" d="M8.379 389.753C10.879 388.763 14.172 387.573 17.706 386.347C28.342 382.656 36.506 366.697 36.506 366.697L50.2 364.925C50.2 364.925 53.052 398.246 49.9 398.246C47.457 398.246 50.081 398.768 45.864 398.72C43.171 398.688 29.927 398.72 18.204 398.246C12.504 398.016 8.359 398.222 5.391 398.189C1.83 398.152 0.32 394.168 3.191 392.333C4.83438 391.31 6.57158 390.446 8.379 389.753Z" fill="#271C24"/>
<path id="Path 7" d="M115.28 389.753C112.74 388.763 109.395 387.573 105.805 386.347C95.005 382.656 84.525 364.924 84.525 364.924H72.8C72.8 364.924 69.9 398.245 73.1 398.245C75.581 398.245 72.916 398.767 77.2 398.719C79.936 398.687 93.387 398.719 105.294 398.245C111.082 398.015 115.294 398.221 118.308 398.188C121.926 398.151 123.458 394.167 120.539 392.332C118.871 391.31 117.11 390.446 115.28 389.753Z" fill="#271C24"/>
<path id="Path 8" d="M96.22 293.197C97.831 308.063 95.739 363.258 96.151 378.187C95.151 382.701 72.173 382.811 69.191 379.338C66.8 376.555 65.632 330.811 64.978 318.246C64.241 304.095 43.694 205.409 43.769 203.487C44.369 187.993 85.41 217.65 88.362 217.414L96.22 293.197Z" fill="#4A3F4C"/>
<path id="Path 9" d="M11.588 221.71C12.708 241.881 14.968 277.51 16.088 297.683C16.923 312.713 23.464 362.602 25.488 377.497C27.212 381.814 52.316 381.435 54.693 377.497C56.593 374.339 51.616 329.249 50.214 316.663C48.634 302.489 50.293 270.615 49.706 268.781C48.739 265.762 62.723 194.727 59.775 194.981C55.428 195.349 49.76 185.598 45.415 185.966L11.588 221.71Z" fill="#4A3F4C"/>
<path id="Path 10" d="M79.763 111.065L74.756 199.337C74.654 200.979 73.9217 202.518 72.712 203.633C71.5024 204.748 69.9088 205.353 68.264 205.321H31.979C28.502 205.346 34.552 202.534 34.34 199.254L25.495 111.795C25.495 111.795 44.944 96.1649 46.375 96.2829L59.34 97.3629C60.293 97.4429 79.763 111.065 79.763 111.065Z" fill="#A7E1D9"/>
<path id="Path 11" d="M34.088 196.753L34.34 199.253C34.552 202.533 28.501 205.345 31.979 205.32H68.264C69.9088 205.352 71.5024 204.747 72.712 203.632C73.9217 202.517 74.654 200.978 74.756 199.336L74.9 196.753H34.088Z" fill="#5A2215"/>
<path id="Path 12" d="M22.364 54.6049C22.364 54.6049 16.124 46.5959 10.384 51.8599C4.644 57.1239 12.848 73.3459 23.845 69.5319L22.364 54.6049Z" fill="#9A4827"/>
<path id="Path 13" d="M22.924 60.2641L23.688 67.9481C14.176 69.6531 8.747 56.4091 13.123 54.5731C16.663 53.0861 21.055 57.7341 22.924 60.2641Z" fill="#7C381E"/>
<path id="Path 14" d="M11.592 57.314C11.592 57.314 11.611 57.255 11.639 57.146C11.667 57.037 11.72 56.878 11.783 56.685C11.9506 56.1779 12.2437 55.7215 12.635 55.358C12.7542 55.2588 12.886 55.1757 13.027 55.111C13.1002 55.0765 13.1754 55.0461 13.252 55.02L13.305 55L13.288 55.007H13.319L13.352 54.998L13.5 54.953C13.5888 54.9275 13.6794 54.9088 13.771 54.897C13.8593 54.8815 13.9485 54.8712 14.038 54.866C14.1307 54.8563 14.2239 54.8526 14.317 54.855C14.4148 54.8508 14.5127 54.8538 14.61 54.864C15.453 54.9566 16.2677 55.2225 17.003 55.645C17.4016 55.8579 17.7888 56.0916 18.163 56.345C18.534 56.598 18.898 56.862 19.244 57.128C19.937 57.664 20.565 58.2 21.109 58.664L22.916 60.264C22.827 60.0587 22.7268 59.8585 22.616 59.664C22.3327 59.1462 22.0157 58.6474 21.667 58.171C21.447 57.878 21.208 57.558 20.93 57.24C20.652 56.922 20.345 56.591 20.007 56.271C19.2939 55.5819 18.4926 54.9905 17.624 54.512C17.1636 54.2644 16.6782 54.0663 16.176 53.921C15.6694 53.7745 15.1432 53.707 14.616 53.721C14.4865 53.7242 14.3573 53.7345 14.229 53.752C14.1032 53.7634 13.9784 53.7848 13.856 53.816C13.7308 53.8406 13.6075 53.874 13.487 53.916C13.3733 53.9483 13.2626 53.9901 13.156 54.041L13.011 54.109L12.922 54.149L12.841 54.194C12.736 54.2499 12.6357 54.3141 12.541 54.386C12.3655 54.5235 12.2079 54.6824 12.072 54.859C11.8464 55.1521 11.6876 55.4911 11.607 55.852C11.5441 56.1103 11.5135 56.3753 11.516 56.641C11.5177 56.8083 11.53 56.9753 11.553 57.141C11.583 57.253 11.592 57.314 11.592 57.314Z" fill="#7C381E"/>
<path id="Path 15" d="M80.2 53.9809C80.2 53.9809 86.264 45.8409 92.116 50.9809C97.968 56.1209 90.116 72.5159 79.038 68.9399L80.2 53.9809Z" fill="#9A4827"/>
<path id="Path 16" d="M79.763 59.6531L79.163 67.3531C88.707 68.8591 93.85 55.5001 89.435 53.7531C85.871 52.3431 81.577 57.0821 79.763 59.6531Z" fill="#7C381E"/>
<path id="Path 17" d="M91.028 56.4591C91.028 56.4591 91.011 56.4021 90.977 56.2921C90.943 56.1821 90.893 56.0281 90.824 55.8331C90.648 55.3277 90.3437 54.8766 89.941 54.5241C89.8209 54.4272 89.6884 54.3468 89.547 54.2851C89.472 54.2581 89.401 54.2221 89.325 54.2021L89.264 54.1831C89.308 54.1991 89.272 54.1831 89.28 54.1831H89.272H89.253L89.216 54.1741L89.062 54.1371C88.9728 54.1134 88.8818 54.097 88.79 54.0881C88.7023 54.0715 88.6133 54.0625 88.524 54.0611C88.4307 54.0564 88.3373 54.0564 88.244 54.0611C88.1471 54.0606 88.0503 54.0659 87.954 54.0771C87.1115 54.1863 86.301 54.4697 85.574 54.9091C85.1812 55.1316 84.8003 55.3746 84.433 55.6371C84.066 55.9001 83.706 56.1691 83.366 56.4451C82.686 56.9931 82.066 57.5451 81.534 58.0181L79.763 59.6581C79.763 59.6581 79.852 59.4281 80.048 59.0491C80.3178 58.5241 80.6239 58.0185 80.964 57.5361C81.176 57.2361 81.409 56.9121 81.681 56.5891C81.953 56.2661 82.25 55.9291 82.581 55.6001C83.2789 54.8965 84.0667 54.2882 84.924 53.7911C85.3803 53.534 85.8627 53.3262 86.363 53.1711C86.8644 53.0133 87.3874 52.9347 87.913 52.9381C88.0427 52.9386 88.1722 52.9466 88.301 52.9621C88.4284 52.9692 88.555 52.988 88.679 53.0181C88.8054 53.0387 88.9298 53.0698 89.051 53.1111C89.1657 53.141 89.2775 53.1811 89.385 53.2311L89.527 53.2901L89.617 53.3311L89.7 53.3721C89.8069 53.4269 89.9095 53.4898 90.007 53.5601C90.1842 53.6948 90.3452 53.8495 90.487 54.0211C90.7171 54.3094 90.8822 54.6441 90.971 55.0021C91.0406 55.2604 91.0762 55.5266 91.077 55.7941C91.081 55.9612 91.0726 56.1283 91.052 56.2941C91.037 56.3991 91.028 56.4591 91.028 56.4591Z" fill="#7C381E"/>
<path id="Path 18" d="M44.644 79.243L60.301 79.073C60.301 79.073 61.17 103.586 61.228 103.585C61.228 103.585 60.128 108.485 53.185 108.67C46.242 108.855 44.469 103.77 44.469 103.77C44.525 103.629 44.644 79.243 44.644 79.243Z" fill="#9A4827"/>
<path id="Path 19" d="M44.743 88.2601L60.399 88.0891C60.399 88.0891 61.104 97.5741 61.163 97.5741C61.163 97.5741 60.063 102.474 53.119 102.661C46.175 102.848 44.4 97.7531 44.4 97.7531C44.46 97.6171 44.743 88.2601 44.743 88.2601Z" fill="#7C381E"/>
<path id="Path 20" d="M44.692 83.753L60.351 83.583C60.351 83.583 60.583 86.711 60.792 89.375C60.825 89.761 56.333 90.489 55.844 90.575C52.0539 91.1186 48.1924 90.8762 44.5 89.863C44.592 87.132 44.692 83.753 44.692 83.753Z" fill="#7C381E"/>
<path id="Path 21" d="M18.4 47.704C18.611 67.228 31.705 83.404 52.6 83.177C73.495 82.95 86.723 63.156 88.116 43.677C90.057 16.529 72.737 12.236 51.837 12.46C30.937 12.684 18.184 28.173 18.4 47.704Z" fill="#271C24"/>
<path id="Path 22" d="M43.209 55.1899C43.1728 56.1918 42.8458 57.1616 42.2678 57.9808C41.6899 58.8001 40.886 59.4334 39.9542 59.8035C39.0224 60.1737 38.0031 60.2646 37.0205 60.0653C36.0379 59.866 35.1346 59.385 34.4207 58.681C33.7068 57.977 33.2133 57.0804 33.0003 56.1007C32.7873 55.121 32.864 54.1005 33.2211 53.1637C33.5783 52.2268 34.2003 51.4142 35.0114 50.8248C35.8226 50.2355 36.7877 49.895 37.789 49.8449C38.4959 49.8396 39.197 49.9737 39.8521 50.2395C40.5071 50.5054 41.1034 50.8977 41.6068 51.3941C42.1101 51.8905 42.5107 52.4812 42.7856 53.1325C43.0606 53.7838 43.2044 54.4829 43.209 55.1899Z" fill="#7C381E"/>
<path id="Path 23" d="M85.093 53.686C84.9962 58.7665 84.1608 63.806 82.613 68.646C80.755 74.5751 77.2777 79.8673 72.573 83.926C69.8143 86.197 66.6839 87.9741 63.32 89.179C62.933 89.326 62.533 89.459 62.147 89.579C61.64 89.753 61.147 89.913 60.654 90.046C56.1269 91.4178 51.3414 91.7099 46.681 90.899C42.7232 90.2508 38.9045 88.9344 35.388 87.006C34.476 86.4932 33.5945 85.928 32.748 85.313C32.3613 85.0463 31.988 84.7663 31.628 84.473C27.7082 81.3381 24.5832 77.3227 22.507 72.753C20.2612 67.7447 18.8987 62.3857 18.48 56.913C18.1778 53.9311 18.142 50.9282 18.373 47.94C18.3886 47.8609 18.3976 47.7806 18.4 47.7C18.653 36.82 23.227 26.5 33.933 22.167C39.4535 20.1077 45.3244 19.1516 51.213 19.353C57 19.38 63.16 19.686 68.613 21.726C78.373 25.366 77.013 30.419 78.12 40.353C78.227 41.313 84.8 46.006 84.853 46.993C84.947 49.233 85.147 51.433 85.093 53.686Z" fill="#9A4827"/>
<path id="Path 24" d="M43.6 53.1591C43.5638 54.1608 43.2368 55.1303 42.659 55.9494C42.0812 56.7684 41.2775 57.4016 40.346 57.7717C39.4145 58.1418 38.3954 58.2328 37.413 58.0335C36.4306 57.8343 35.5275 57.3535 34.8137 56.6498C34.1 55.946 33.6065 55.0497 33.3934 54.0703C33.1803 53.0908 33.2569 52.0706 33.6138 51.1339C33.9707 50.1972 34.5925 49.3847 35.4033 48.7954C36.2141 48.206 37.1789 47.8654 38.18 47.8151C38.8868 47.8099 39.5877 47.9441 40.2427 48.2099C40.8976 48.4757 41.4938 48.868 41.9971 49.3642C42.5004 49.8605 42.901 50.4511 43.1761 51.1022C43.4511 51.7533 43.5952 52.4523 43.6 53.1591Z" fill="#271C24"/>
<path id="Path 26" d="M74.247 56.0451C74.2108 57.0469 73.8838 58.0165 73.3059 58.8357C72.728 59.6548 71.9241 60.288 70.9924 60.6581C70.0607 61.0281 69.0414 61.1189 68.059 60.9195C67.0765 60.72 66.1734 60.2389 65.4597 59.5349C64.7461 58.8308 64.2527 57.9343 64.04 56.9546C63.8272 55.975 63.9042 54.9546 64.2616 54.0179C64.6189 53.0813 65.2412 52.2689 66.0524 51.6799C66.8636 51.091 67.8287 50.7508 68.83 50.7011C69.5366 50.6962 70.2372 50.8305 70.8919 51.0965C71.5466 51.3624 72.1424 51.7547 72.6455 52.251C73.1485 52.7472 73.5488 53.3377 73.8236 53.9887C74.0984 54.6397 74.2423 55.3385 74.247 56.0451Z" fill="#7C381E"/>
<path id="Path 27" d="M74.181 54.7379C74.145 55.7397 73.8182 56.7094 73.2405 57.5286C72.6627 58.3478 71.859 58.9812 70.9275 59.3514C69.9959 59.7216 68.9767 59.8127 67.9942 59.6135C67.0118 59.4143 66.1085 58.9335 65.3947 58.2296C64.6809 57.5258 64.1873 56.6295 63.9743 55.6499C63.7613 54.6704 63.8379 53.65 64.1949 52.7133C64.552 51.7766 65.1739 50.964 65.9849 50.3748C66.7959 49.7855 67.7608 49.4451 68.762 49.3949C69.4687 49.3898 70.1695 49.5239 70.8243 49.7897C71.4791 50.0554 72.0752 50.4476 72.5784 50.9438C73.0816 51.4399 73.4822 52.0304 73.7572 52.6814C74.0321 53.3324 74.1762 54.0312 74.181 54.7379Z" fill="#271C24"/>
<g id="adult-eyes">
<path id="adult-right-eye" d="M72.341 53.31C72.3679 53.7191 72.2725 54.1269 72.0668 54.4815C71.8612 54.8361 71.5547 55.1215 71.1863 55.3013C70.818 55.4811 70.4044 55.5472 69.9983 55.4912C69.5923 55.4352 69.2121 55.2597 68.9061 54.9868C68.6002 54.714 68.3823 54.3563 68.2804 53.9593C68.1784 53.5623 68.1969 53.1439 68.3335 52.7574C68.4701 52.3709 68.7187 52.0338 69.0475 51.7891C69.3763 51.5443 69.7706 51.403 70.18 51.383C70.4486 51.367 70.7177 51.4041 70.9719 51.4924C71.226 51.5806 71.4603 51.7183 71.6611 51.8973C71.8619 52.0764 72.0253 52.2934 72.142 52.5358C72.2587 52.7783 72.3263 53.0414 72.341 53.31Z" fill="white"/>
<path id="adult-left-eye" d="M41.757 51.7309C41.7845 52.1399 41.6896 52.5478 41.4845 52.9027C41.2794 53.2576 40.9733 53.5434 40.6052 53.7237C40.2371 53.9041 39.8236 53.9708 39.4175 53.9154C39.0113 53.86 38.6309 53.6849 38.3246 53.4126C38.0182 53.1402 37.7999 52.7829 37.6973 52.386C37.5948 51.9891 37.6126 51.5707 37.7487 51.1841C37.8847 50.7974 38.1327 50.4599 38.4612 50.2147C38.7896 49.9695 39.1836 49.8275 39.593 49.8069C39.8615 49.7907 40.1306 49.8277 40.3848 49.9156C40.639 50.0036 40.8734 50.1409 41.0744 50.3197C41.2755 50.4984 41.4393 50.7151 41.5564 50.9573C41.6735 51.1995 41.7417 51.4624 41.757 51.7309Z" fill="white"/>
</g>
<path id="Path 29" d="M55.881 52.1699C55.881 52.1699 53.497 58.5859 56.74 58.8149C63.019 59.2699 59.805 72.1629 51.928 65.0899C48.951 62.4209 52.884 51.5149 52.884 51.5149L55.881 52.1699Z" fill="#5A2215"/>
<path id="Path 30" d="M60.621 72.8599C60.621 72.8599 48.145 74.9329 42.221 67.7859C42.221 67.7859 37.236 81.1409 50.63 82.8539C59.089 83.9329 60.621 72.8599 60.621 72.8599Z" fill="#5A2215"/>
<path id="Path 31" d="M56.38 81.2809C55.5879 81.9364 54.6652 82.4158 53.6734 82.687C52.6817 82.9582 51.6435 83.0151 50.628 82.8539C48.2207 82.6642 45.9319 81.7304 44.079 80.1819C43.6801 79.7986 43.3123 79.3843 42.979 78.9429C42.9705 78.9339 42.9628 78.9242 42.956 78.9139C42.9526 78.9088 42.9496 78.9035 42.947 78.8979C42.0062 77.508 41.4573 75.8903 41.358 74.2149C48.884 72.2459 54.28 78.1299 56.38 81.2809Z" fill="#D51E25"/>
<path id="Path 32" d="M60.621 72.8591L60.577 73.1231C59.362 73.3741 57.117 76.0131 54.09 75.9061C52.1761 75.8202 50.3 75.3438 48.577 74.5061C47.4791 74.0545 46.4385 73.4745 45.477 72.7781C44.768 72.2121 44.26 70.5341 43.96 69.4961C50.287 74.5751 60.617 72.8591 60.621 72.8591Z" fill="white"/>
<path id="Path 33" d="M42.524 69.1181C42.033 71.0371 41.353 75.0711 43.256 78.1461C44.633 80.3711 47.143 81.7351 50.715 82.1891C57.16 83.0141 59.247 76.1411 59.787 73.6421C56.848 73.9621 47.884 74.4351 42.524 69.1181ZM50.541 83.5181C46.534 83.0071 43.692 81.4301 42.09 78.8381C39.19 74.1261 41.481 67.8261 41.578 67.5631C41.6209 67.4519 41.6921 67.3539 41.7845 67.2787C41.8769 67.2035 41.9874 67.1537 42.1049 67.1342C42.2224 67.1147 42.343 67.1262 42.4547 67.1676C42.5665 67.209 42.6655 67.2787 42.742 67.3701C48.342 74.1301 60.386 72.2271 60.506 72.2081C60.611 72.1899 60.7189 72.1966 60.8208 72.2277C60.9228 72.2588 61.016 72.3134 61.093 72.3871C61.1692 72.4583 61.2272 72.5468 61.262 72.6451C61.2968 72.7435 61.3075 72.8488 61.293 72.9521C61.281 73.0661 59.738 83.5111 51.872 83.5961C51.427 83.5984 50.9823 83.5706 50.541 83.5131V83.5181Z" fill="#A32920"/>
<path id="Path 34" d="M75.7 47.381C75.5862 47.189 75.4568 47.0067 75.313 46.836C75.1495 46.6366 74.9746 46.447 74.789 46.268C74.5523 46.0319 74.3008 45.8111 74.036 45.607C73.3713 45.0878 72.646 44.6513 71.876 44.307C71.4437 44.1056 70.9984 43.9336 70.543 43.792C70.079 43.629 69.59 43.543 69.11 43.419C68.621 43.342 68.127 43.268 67.645 43.219C67.161 43.192 66.68 43.178 66.224 43.179C65.76 43.206 65.315 43.244 64.897 43.286C64.479 43.328 64.088 43.431 63.729 43.502C63.4025 43.5669 63.0808 43.6537 62.766 43.762C62.485 43.862 62.241 43.953 62.042 44.027C61.649 44.18 61.427 44.287 61.427 44.287C61.427 44.287 61.676 44.323 62.098 44.352C62.309 44.368 62.562 44.388 62.851 44.399C63.14 44.41 63.458 44.438 63.812 44.464C64.166 44.49 64.535 44.496 64.928 44.54C65.321 44.584 65.728 44.624 66.159 44.655C66.582 44.712 67.012 44.778 67.459 44.824C67.895 44.8967 68.3353 44.9723 68.78 45.051C69.001 45.099 69.22 45.151 69.436 45.194C69.652 45.237 69.876 45.278 70.085 45.342C70.294 45.406 70.512 45.453 70.724 45.503C70.936 45.553 71.133 45.628 71.34 45.683C71.747 45.794 72.132 45.93 72.507 46.051C72.695 46.106 72.867 46.186 73.04 46.244C73.2098 46.2984 73.3767 46.3615 73.54 46.433C73.86 46.557 74.159 46.676 74.416 46.789C74.673 46.902 74.908 47.006 75.104 47.089C75.281 47.189 75.443 47.245 75.539 47.3L75.7 47.381Z" fill="#271C24"/>
<path id="Path 35" d="M33.2 41.8611C33.3711 41.7169 33.554 41.5874 33.747 41.4741C33.9671 41.3411 34.1937 41.2193 34.426 41.1091C34.7294 40.968 35.0402 40.8435 35.357 40.7361C35.7334 40.6094 36.1171 40.5055 36.506 40.4251C36.9415 40.3328 37.3823 40.2683 37.826 40.2321C38.3007 40.184 38.7782 40.169 39.255 40.1871C39.744 40.1871 40.235 40.2671 40.73 40.3111C41.219 40.3991 41.703 40.4911 42.177 40.6111C42.651 40.7311 43.102 40.8921 43.537 41.0461C43.962 41.2231 44.369 41.4071 44.75 41.5861C45.1026 41.7645 45.4458 41.9611 45.778 42.1751C46.0646 42.3435 46.3395 42.5309 46.601 42.7361C46.836 42.9211 47.033 43.0921 47.194 43.2281C47.519 43.5051 47.689 43.6791 47.689 43.6791C47.689 43.6791 47.444 43.6321 47.037 43.5201C46.837 43.4641 46.586 43.4001 46.312 43.3131C46.038 43.2261 45.725 43.1461 45.383 43.0561C45.041 42.9661 44.691 42.8481 44.303 42.7561C43.915 42.6641 43.516 42.5711 43.103 42.4561C42.683 42.3711 42.252 42.2881 41.82 42.1831L40.5 41.9591L39.833 41.8761C39.613 41.8491 39.394 41.8081 39.169 41.8001C38.944 41.7921 38.732 41.7651 38.517 41.7411C38.302 41.7171 38.085 41.7221 37.878 41.7061C37.454 41.6741 37.047 41.6771 36.653 41.6671C36.453 41.6541 36.27 41.6741 36.085 41.6671C35.9 41.6601 35.717 41.6671 35.548 41.6761C35.204 41.6911 34.884 41.7001 34.601 41.7231C34.318 41.7461 34.065 41.7661 33.858 41.7801C33.651 41.7941 33.485 41.8151 33.374 41.8321C33.263 41.8491 33.2 41.8611 33.2 41.8611Z" fill="#271C24"/>
<path id="Path 36" d="M17.837 48.0579C17.4395 44.8602 17.2368 41.6413 17.23 38.4189C17.329 43.9529 17.837 48.0579 17.837 48.0579Z" fill="#7C381E"/>
<path id="Path 37" d="M18.8 62.9621C18.8 62.9621 18.705 61.6571 18.433 59.3491C18.386 59.4101 18.354 59.4491 18.354 59.4491L18.8 62.9621Z" fill="#271C24"/>
<path id="Path 38" d="M44.563 96.1531L49.738 108.27L44.47 106.044L35.586 118.536L33.311 100.27L44.5 89.8601L44.563 96.1531Z" fill="#788D8D"/>
<path id="Path 39" d="M60.257 96.1531L53.185 108.674L60.35 106.044L69.233 118.536L71.509 100.27L60.323 89.8601L60.257 96.1531Z" fill="#788D8D"/>
<path id="Path 40" d="M84.081 150.399L87.857 168.05C91.845 162.845 97.087 165.019 102.016 160.277V115.401C102.016 112.56 101.005 109.812 99.1643 107.648C97.3233 105.484 94.7724 104.045 91.968 103.59L71.509 100.266L62.116 206.945C60.868 218.29 88.977 220.582 88.977 220.582L88.812 212.882C88.64 204.901 84.081 150.399 84.081 150.399Z" fill="#271C24"/>
<path id="Path 41" d="M11.588 220.582C11.588 220.582 43.576 222.974 42.271 206.42L35.889 100.166L9.908 104.212C7.14764 104.643 4.63212 106.046 2.81529 108.168C0.998468 110.29 -1.35588e-05 112.992 1.38092e-10 115.786V157.653C6.553 161.282 13.173 165.969 16.823 171.853L20.466 150.407C20.466 150.407 11.591 207.159 11.591 216.599L11.588 220.582Z" fill="#271C24"/>
<path id="Path 42" d="M93.149 26.521C93.843 25.0793 94.0749 23.4585 93.813 21.88L89.049 21.007C91.349 18.166 88.169 13.086 84.608 13.918C84.873 11.193 82.1 9.169 79.508 8.29C78.098 7.81915 76.6412 7.5023 75.163 7.345C75.081 6.94707 74.8934 6.57853 74.62 6.278C73.253 4.83 70.955 4.873 69 5.235C69.1605 4.82812 69.2284 4.3906 69.1986 3.95423C69.1689 3.51785 69.0424 3.09357 68.8282 2.71221C68.614 2.33085 68.3176 2.00199 67.9604 1.74951C67.6033 1.49703 67.1943 1.32728 66.7634 1.25258C66.3324 1.17789 65.8902 1.20012 65.4689 1.31768C65.0476 1.43523 64.6578 1.64515 64.3278 1.93219C63.9978 2.21922 63.7358 2.57616 63.561 2.97709C63.3861 3.37801 63.3028 3.81284 63.317 4.25C61.705 2.741 58.81 3.55 57.762 5.374L57.41 5.287C57.2687 3.94977 56.6794 2.69962 55.7377 1.73977C54.796 0.779906 53.5573 0.166764 52.223 0C51.1428 0.979619 50.3772 2.25744 50.023 3.672C49.9872 3.15116 49.8386 2.64434 49.5874 2.18667C49.3362 1.729 48.9885 1.33144 48.5684 1.02155C48.1482 0.711658 47.6657 0.496856 47.1543 0.392033C46.6429 0.287209 46.1148 0.294871 45.6066 0.414494C45.0984 0.534116 44.6223 0.762836 44.2114 1.08479C43.8004 1.40674 43.4644 1.81423 43.2266 2.27899C42.9888 2.74376 42.8549 3.25468 42.8343 3.77633C42.8136 4.29799 42.9067 4.81789 43.107 5.3C42.0683 5.32022 41.0679 5.69535 40.272 6.363C39.2603 5.97079 38.1547 5.88829 37.096 6.126C36.429 6.33759 35.8419 6.74649 35.4122 7.29871C34.9824 7.85092 34.7303 8.52049 34.689 9.219C34.0332 8.87182 33.323 8.63883 32.589 8.53C30.262 8.214 27.53 10.063 27.91 12.382C27.1304 12.1811 26.3178 12.1427 25.5227 12.2691C24.7277 12.3956 23.9671 12.6843 23.2883 13.1172C22.6096 13.5502 22.0271 14.1181 21.5772 14.7857C21.1273 15.4533 20.8195 16.2064 20.673 16.998C20.3217 16.5874 19.8853 16.2582 19.394 16.0331C18.9027 15.8081 18.3683 15.6927 17.8279 15.695C17.2876 15.6972 16.7542 15.817 16.2647 16.046C15.7753 16.2751 15.3416 16.6079 14.9937 17.0214C14.6458 17.4349 14.3921 17.9191 14.2501 18.4405C14.1081 18.9619 14.0813 19.5079 14.1716 20.0407C14.2618 20.5735 14.4669 21.0803 14.7726 21.5258C15.0783 21.9714 15.4774 22.3451 15.942 22.621C15.935 22.632 15.93 22.641 15.923 22.65C14.9695 22.1209 13.8469 21.9857 12.7951 22.2733C11.7432 22.561 10.8457 23.2486 10.2941 24.1893C9.74262 25.13 9.58094 26.2491 9.84364 27.3075C10.1063 28.3658 10.7726 29.2794 11.7 29.853C10.156 30.314 9.8 32.621 10.868 33.834C11.2686 34.2474 11.7579 34.5643 12.2989 34.7609C12.8399 34.9576 13.4185 35.0287 13.991 34.969C13.0615 35.6419 12.3111 36.5324 11.8055 37.5625C11.2999 38.5927 11.0546 39.7311 11.091 40.878C11.8414 41.3544 12.741 41.5378 13.618 41.393C13.0808 42.6885 12.8919 44.1019 13.07 45.493C13.37 46.857 14.697 48.1 16.059 47.786C15.059 49.403 16.347 51.707 18.091 52.15H18.04C17.6008 53.487 17.6232 54.9327 18.1035 56.2554C18.5838 57.5782 19.4943 58.7014 20.689 59.445C22.229 59.635 22.702 57.421 22.546 55.877C22.1993 52.437 21.8523 48.9973 21.505 45.558C22.9404 42.9852 24.0551 40.2461 24.824 37.402C25.3786 37.1018 25.9164 36.7717 26.435 36.413L29.171 34.534C31.136 33.187 33.263 31.601 33.7 29.259C34.4792 29.6618 35.3811 29.758 36.2277 29.5284C37.0743 29.2988 37.804 28.7603 38.273 28.019C38.4809 27.5255 38.7654 27.0678 39.116 26.663C39.7437 26.2784 40.4639 26.071 41.2 26.063C42.263 25.8595 43.2228 25.2942 43.916 24.463C45.0586 24.7368 46.2609 24.6042 47.3164 24.088C48.3719 23.5717 49.2147 22.7041 49.7 21.634C49.844 24.542 53.72 26.482 56.135 24.857C58.818 28.004 64.799 27.013 66.326 23.17C66.4593 24.8087 66.595 26.4473 66.733 28.086C69.113 27.266 72.965 27.494 72.733 29.999C74.073 30.0617 75.413 30.1257 76.753 30.191C75.053 30.463 73.974 33.17 75.328 34.504C76.867 36.025 79.892 34.916 80.407 32.815C84.1803 36.8947 86.8481 41.8712 88.157 47.272C89.9059 46.0637 91.227 44.3323 91.9306 42.3263C92.6342 40.3204 92.684 38.143 92.073 36.107C95.623 34.541 96.265 28.837 93.149 26.521Z" fill="#271C24"/>
<path id="Path 43" d="M-3.07511e-07 157.653L61.429 148.182L63.962 171.435L14.986 173.895C13.3013 174.514 11.4922 174.716 9.71245 174.485C7.93271 174.255 6.235 173.598 4.76367 172.57C3.29234 171.543 2.09091 170.175 1.26154 168.583C0.432168 166.992 -0.000611356 165.224 -3.07511e-07 163.429V157.653Z" fill="#271C24"/>
<path id="Path 44" d="M102.016 154.497L40.587 145.025L38.053 152.753L87.029 170.742C88.7133 171.361 90.5222 171.564 92.3018 171.333C94.0813 171.103 95.779 170.447 97.2504 169.42C98.7218 168.393 99.9235 167.025 100.753 165.434C101.583 163.843 102.016 162.075 102.016 160.281V154.497Z" fill="#271C24"/>
<path id="Path 45" d="M55.48 207.633C54.775 206.071 52.48 207.426 53.18 208.979C55.307 213.679 57.725 224.209 51.917 227.346C50.406 228.163 51.752 230.466 53.262 229.646C60.591 225.689 58.22 213.693 55.48 207.633Z" fill="#393639"/>
<path id="Path 46" d="M63.547 71.7609C61.79 69.3339 58.715 68.4079 55.786 67.6929C53.914 66.9369 50.779 66.3059 49.986 66.0199C47.013 64.9799 43.733 63.9399 40.693 65.4729C36.773 67.4459 34.973 72.7399 33.64 77.4059C32.973 79.7659 32.307 82.1129 31.627 84.4729C31.987 84.7656 32.3603 85.0456 32.747 85.3129C33.867 81.1799 35.147 77.0859 36.547 73.0329C37.4 70.5799 38.467 67.9259 40.48 66.6459C44.2 64.2859 48.107 68.0599 52.147 68.2329L52.24 68.3399L57.791 69.6399C57.791 69.6289 57.783 69.6159 57.783 69.6059C60.108 70.2279 62.203 71.0619 63.147 72.6769C64.254 74.5569 63.854 76.9169 63.374 79.0369C62.601 82.4649 61.098 87.1499 60.058 90.5099C60.551 90.3779 61.641 89.7489 62.147 89.5759C62.667 87.8159 63.2 85.2499 63.707 83.5039C64.867 79.6019 65.933 75.0529 63.547 71.7609Z" fill="#271C24"/>
<path id="Path 47" d="M61.427 148.178L62.347 165.389C62.347 165.389 68.155 167.207 72.347 160.425C76.539 153.643 84.084 150.399 84.084 150.399C84.084 150.399 82.107 143.519 79.765 145.025C77.423 146.531 81.425 142.975 77.425 142.975C73.425 142.975 78.164 139.863 74.905 140.753C71.646 141.643 71.898 138.653 68.218 140.593C64.538 142.533 59.789 148.43 59.789 148.43" fill="#9A4827"/>
<path id="Path 48" d="M40.587 145.025C40.587 145.025 30.012 141.197 25.495 142.975C20.978 144.753 16.186 147.449 18.804 152.767C21.422 158.085 19.159 155.449 23.845 152.767C28.531 150.085 38.053 152.753 38.053 152.753L40.587 145.025Z" fill="#9A4827"/>
<path id="Path 49" d="M52.533 118.309C49.958 118.309 49.954 122.309 52.533 122.309C55.112 122.309 55.112 118.309 52.533 118.309Z" fill="#788D8D"/>
<path id="Path 50" d="M52.977 131.197C50.404 131.197 50.398 135.197 52.977 135.197C55.556 135.197 55.556 131.197 52.977 131.197Z" fill="#788D8D"/>
<path id="Path 51" d="M53.867 177.864C51.292 177.864 51.288 181.864 53.867 181.864C56.446 181.864 56.445 177.864 53.867 177.864Z" fill="#788D8D"/>
<path id="Path 52" d="M53.423 187.197C50.848 187.197 50.844 191.197 53.423 191.197C56.002 191.197 56 187.197 53.423 187.197Z" fill="#788D8D"/>
</g>
</g>
<defs>
<clipPath id="clip0_20_2120">
<rect width="122.071" height="403.98" fill="white"/>
</clipPath>
</defs>
</svg>
