<svg xmlns="http://www.w3.org/2000/svg" xmlns:xlink="http://www.w3.org/1999/xlink" width="145" height="482" viewBox="0 0 145 482">
  <defs>
    <clipPath id="clip-path">
      <rect id="Rectangle_1" data-name="Rectangle 1" width="145" height="482" fill="#fff"/>
    </clipPath>
  </defs>
  <g id="Group_1" data-name="Group 1" clip-path="url(#clip-path)">
    <path id="Path_1" data-name="Path 1" d="M310.667,580.667H-356V-86H310.667Z" fill="#fff"/>
    <path id="Path_2" data-name="Path 2" d="M151.564,428.792c2.179-.955,5.049-2.1,8.131-3.28,9.276-3.555,19.474-16.971,19.474-16.971h14.3s4.72,18.167,4.672,25.866c.016,2.984-.942,5.086-3.69,5.086-2.131,0-5.271-.028-8.948-.076-2.35-.029-1.5-4.129-4.167-4.17-.749-.012-4.921,4.04-5.684,4.028-14.019-.224-29.644-.54-29.644-.54S142.825,432.616,151.564,428.792Z" fill="#9a4827"/>
    <path id="Path_3" data-name="Path 3" d="M164.581,422.865a24.387,24.387,0,0,1-4.886,2.647c-3.082,1.181-5.952,2.325-8.131,3.28-8.739,3.824-5.561,9.943-5.561,9.943s15.626.316,29.645.54c.763.012,4.935-4.04,5.684-4.028,2.663.041,1.817,4.141,4.167,4.17,3.677.048,6.817.076,8.948.076,2.748,0,3.706-2.1,3.69-5.086a32.964,32.964,0,0,0-.213-3.555C187.343,434.176,173.772,428.517,164.581,422.865Z" fill="#75171b"/>
    <path id="Path_4" data-name="Path 4" d="M170.983,178.848s-2.288-2.972-11.622,15.772-19.586,43.186-2.666,55.005,40.981,23.437,40.981,23.437c7.385-7.242,16.987-6.857,6-16.613s-33.079-22.372-31.032-29.061" fill="#75171b"/>
    <path id="Path_5" data-name="Path 5" d="M126.045,439.493c0,3.167-23.753,5.734-53.054,5.734s-53.055-2.567-53.055-5.734,23.755-5.733,53.055-5.733S126.045,436.327,126.045,439.493Z" fill="#d2cfc9"/>
    <path id="Path_6" data-name="Path 6" d="M21.179,431c2.5-.99,5.793-2.18,9.327-3.406,10.636-3.691,18.8-19.65,18.8-19.65L63,406.172s2.852,33.321-.3,33.321c-2.443,0,.181.522-4.036.474-2.693-.032-15.937,0-27.66-.474-5.7-.23-9.845-.024-12.813-.057-3.561-.037-5.071-4.021-2.2-5.856A30.448,30.448,0,0,1,21.179,431Z" fill="#271c24"/>
    <path id="Path_7" data-name="Path 7" d="M128.08,431c-2.54-.99-5.885-2.18-9.475-3.406-10.8-3.691-21.28-21.423-21.28-21.423H85.6s-2.9,33.321.3,33.321c2.481,0-.184.522,4.1.474,2.736-.032,16.187,0,28.094-.474,5.788-.23,10-.024,13.014-.057,3.618-.037,5.15-4.021,2.231-5.856A31.221,31.221,0,0,0,128.08,431Z" fill="#271c24"/>
    <path id="Path_8" data-name="Path 8" d="M109.02,334.444c1.611,14.866-.481,70.061-.069,84.99-1,4.514-23.978,4.624-26.96,1.151-2.391-2.783-3.559-48.527-4.213-61.092-.737-14.151-21.284-112.837-21.209-114.759.6-15.494,41.641,14.163,44.593,13.927Z" fill="#4a3f4c"/>
    <path id="Path_9" data-name="Path 9" d="M24.388,262.957c1.12,20.171,3.38,55.8,4.5,75.973.835,15.03,7.376,64.919,9.405,79.814,1.724,4.317,26.828,3.938,29.205,0,1.905-3.158-3.077-48.248-4.479-60.834-1.58-14.174.079-46.048-.508-47.882-.967-3.019,13.017-74.054,10.069-73.8-4.347.368-10.015-9.383-14.36-9.015Z" fill="#4a3f4c"/>
    <path id="Path_10" data-name="Path 10" d="M92.563,152.312l-5.007,88.272a6.381,6.381,0,0,1-6.492,5.984H44.779c-3.477.025,2.573-2.787,2.361-6.067l-8.845-87.459s19.449-15.63,20.88-15.512l12.965,1.08C73.093,138.69,92.563,152.312,92.563,152.312Z" fill="#a7e1d9"/>
    <path id="Path_11" data-name="Path 11" d="M46.888,238l.252,2.5c.212,3.28-5.839,6.092-2.361,6.067H81.064a6.381,6.381,0,0,0,6.492-5.984L87.7,238Z" fill="#5a2215"/>
    <path id="Path_12" data-name="Path 12" d="M35.164,95.852s-6.24-8.009-11.98-2.745,2.464,21.486,13.461,17.672Z" fill="#9a4827"/>
    <path id="Path_13" data-name="Path 13" d="M35.724,101.511l.764,7.684C26.976,110.9,21.547,97.656,25.923,95.82,29.463,94.333,33.855,98.981,35.724,101.511Z" fill="#7c381e"/>
    <path id="Path_14" data-name="Path 14" d="M24.392,98.561s.019-.059.047-.168.081-.268.144-.461a3.167,3.167,0,0,1,.852-1.327,1.758,1.758,0,0,1,.392-.247,2.159,2.159,0,0,1,.225-.091l.053-.02h0l-.017.007.008,0,.023,0,.033-.009.152-.041a1.818,1.818,0,0,1,.271-.056,2.306,2.306,0,0,1,.267-.031,2.145,2.145,0,0,1,.279-.011,1.975,1.975,0,0,1,.293.009,6.149,6.149,0,0,1,2.393.781,12.926,12.926,0,0,1,1.16.7c.371.253.735.517,1.081.783.693.536,1.321,1.072,1.865,1.536,1.085.96,1.807,1.6,1.807,1.6s-.092-.226-.3-.6a13.494,13.494,0,0,0-.949-1.493c-.22-.293-.459-.613-.737-.931s-.585-.649-.923-.969a11.216,11.216,0,0,0-2.383-1.759,7.4,7.4,0,0,0-1.448-.591,5.126,5.126,0,0,0-1.56-.2,3.476,3.476,0,0,0-.387.031,2.377,2.377,0,0,0-.373.064,2.685,2.685,0,0,0-.369.1,2.094,2.094,0,0,0-.331.125l-.145.068-.089.04-.081.045a2.21,2.21,0,0,0-.3.192,2.661,2.661,0,0,0-.469.473,2.533,2.533,0,0,0-.465.993,3.207,3.207,0,0,0-.091.789,3.927,3.927,0,0,0,.037.5C24.383,98.5,24.392,98.561,24.392,98.561Z" fill="#7c381e"/>
    <path id="Path_15" data-name="Path 15" d="M93,95.228s6.064-8.14,11.916-3-2,21.535-13.078,17.959Z" fill="#9a4827"/>
    <path id="Path_16" data-name="Path 16" d="M92.563,100.9l-.6,7.7c9.544,1.506,14.687-11.853,10.272-13.6C98.671,93.59,94.377,98.329,92.563,100.9Z" fill="#7c381e"/>
    <path id="Path_17" data-name="Path 17" d="M103.828,97.706s-.017-.057-.051-.167-.084-.264-.153-.459a3.09,3.09,0,0,0-.883-1.309,1.727,1.727,0,0,0-.394-.239c-.075-.027-.146-.063-.222-.083l-.061-.019h0c.044.016.008,0,.016,0h-.008l-.019-.005-.037-.009-.154-.037a1.687,1.687,0,0,0-.272-.049,1.563,1.563,0,0,0-.266-.027,2.793,2.793,0,0,0-.28,0,2.414,2.414,0,0,0-.29.016,6.123,6.123,0,0,0-2.38.832,12.882,12.882,0,0,0-1.141.728c-.367.263-.727.532-1.067.808-.68.548-1.3,1.1-1.832,1.573L92.563,100.9s.089-.23.285-.609a12.7,12.7,0,0,1,.916-1.513c.212-.3.445-.624.717-.947s.569-.66.9-.989a11.246,11.246,0,0,1,2.343-1.809,7.388,7.388,0,0,1,1.439-.62,5.054,5.054,0,0,1,1.55-.233,3.371,3.371,0,0,1,.388.024,2.1,2.1,0,0,1,.378.056,2.311,2.311,0,0,1,.372.093,1.97,1.97,0,0,1,.334.12l.142.059.09.041.083.041a2.385,2.385,0,0,1,.307.188,2.9,2.9,0,0,1,.48.461,2.561,2.561,0,0,1,.484.981,3.082,3.082,0,0,1,.106.792,3.39,3.39,0,0,1-.025.5C103.837,97.646,103.828,97.706,103.828,97.706Z" fill="#7c381e"/>
    <path id="Path_18" data-name="Path 18" d="M57.444,120.49l15.657-.17s.869,24.513.927,24.512c0,0-1.1,4.9-8.043,5.085s-8.716-4.905-8.716-4.905C57.325,144.876,57.444,120.49,57.444,120.49Z" fill="#9a4827"/>
    <path id="Path_19" data-name="Path 19" d="M57.543,129.507l15.656-.171s.705,9.485.764,9.485c0,0-1.1,4.9-8.044,5.087S57.2,139,57.2,139C57.26,138.864,57.543,129.507,57.543,129.507Z" fill="#7c381e"/>
    <path id="Path_20" data-name="Path 20" d="M57.492,125l15.659-.17s.232,3.128.441,5.792c.033.386-4.459,1.114-4.948,1.2a27.9,27.9,0,0,1-11.345-.712C57.392,128.379,57.492,125,57.492,125Z" fill="#7c381e"/>
    <path id="Path_21" data-name="Path 21" d="M31.2,88.951c.211,19.524,13.305,35.7,34.2,35.473s34.123-20.021,35.516-39.5c1.941-27.148-15.379-31.441-36.279-31.217S30.984,69.42,31.2,88.951Z" fill="#271c24"/>
    <path id="Path_22" data-name="Path 22" d="M56.009,96.437a5.165,5.165,0,1,1-5.42-5.345A5.38,5.38,0,0,1,56.009,96.437Z" fill="#7c381e"/>
    <path id="Path_23" data-name="Path 23" d="M97.893,94.933a52.389,52.389,0,0,1-2.48,14.96,33.351,33.351,0,0,1-10.04,15.28,31.012,31.012,0,0,1-9.253,5.253c-.387.147-.787.28-1.173.4-.507.174-1,.334-1.493.467a30.281,30.281,0,0,1-13.973.853,35.377,35.377,0,0,1-11.293-3.893,27.013,27.013,0,0,1-2.64-1.693q-.58-.4-1.12-.84A31.907,31.907,0,0,1,35.307,114,47.584,47.584,0,0,1,31.28,98.16a50.439,50.439,0,0,1-.107-8.973,1.462,1.462,0,0,0,.027-.24c.253-10.88,4.827-21.2,15.533-25.533A45.037,45.037,0,0,1,64.013,60.6c5.787.027,11.947.333,17.4,2.373,9.76,3.64,8.4,8.693,9.507,18.627.107.96,6.68,5.653,6.733,6.64C97.747,90.48,97.947,92.68,97.893,94.933Z" fill="#9a4827"/>
    <path id="Path_24" data-name="Path 24" d="M56.4,94.406a5.164,5.164,0,1,1-5.42-5.344A5.381,5.381,0,0,1,56.4,94.406Z" fill="#271c24"/>
    <path id="Path_25" data-name="Path 25" d="M54.557,92.978a2.065,2.065,0,1,1-2.164-1.924A2.044,2.044,0,0,1,54.557,92.978Z" fill="#fff"/>
    <path id="Path_26" data-name="Path 26" d="M87.047,97.292a5.164,5.164,0,1,1-5.417-5.344A5.38,5.38,0,0,1,87.047,97.292Z" fill="#7c381e"/>
    <path id="Path_27" data-name="Path 27" d="M86.981,95.985a5.164,5.164,0,1,1-5.419-5.343A5.38,5.38,0,0,1,86.981,95.985Z" fill="#271c24"/>
    <path id="Path_28" data-name="Path 28" d="M85.141,94.557a2.065,2.065,0,1,1-2.161-1.927A2.042,2.042,0,0,1,85.141,94.557Z" fill="#fff"/>
    <path id="Path_29" data-name="Path 29" d="M68.681,93.417s-2.384,6.416.859,6.645c6.279.455,3.065,13.348-4.812,6.275-2.977-2.669.956-13.575.956-13.575Z" fill="#5a2215"/>
    <path id="Path_30" data-name="Path 30" d="M73.421,114.107s-12.476,2.073-18.4-5.074c0,0-4.985,13.355,8.409,15.068C71.889,125.18,73.421,114.107,73.421,114.107Z" fill="#5a2215"/>
    <path id="Path_31" data-name="Path 31" d="M69.18,122.528a7.241,7.241,0,0,1-5.752,1.573,11.638,11.638,0,0,1-6.549-2.672,10.455,10.455,0,0,1-1.1-1.239.206.206,0,0,1-.023-.029.114.114,0,0,1-.009-.016,9.341,9.341,0,0,1-1.589-4.683C61.684,113.493,67.08,119.377,69.18,122.528Z" fill="#d51e25"/>
    <path id="Path_32" data-name="Path 32" d="M73.421,114.106s-.016.095-.044.264c-1.215.251-3.46,2.89-6.487,2.783a14.049,14.049,0,0,1-5.513-1.4,15.031,15.031,0,0,1-3.1-1.728c-.709-.566-1.217-2.244-1.517-3.282C63.087,115.822,73.417,114.106,73.421,114.106Z" fill="#fff"/>
    <path id="Path_33" data-name="Path 33" d="M55.324,110.365c-.491,1.919-1.171,5.953.732,9.028,1.377,2.225,3.887,3.589,7.459,4.043,6.445.825,8.532-6.048,9.072-8.547C69.648,115.209,60.684,115.682,55.324,110.365Zm8.017,14.4c-4.007-.511-6.849-2.088-8.451-4.68-2.9-4.712-.609-11.012-.512-11.275a.685.685,0,0,1,1.164-.193c5.6,6.76,17.644,4.857,17.764,4.838a.681.681,0,0,1,.587.179.65.65,0,0,1,.2.565c-.012.114-1.555,10.559-9.421,10.644A9.9,9.9,0,0,1,63.341,124.76Z" fill="#a32920"/>
    <path id="Path_34" data-name="Path 34" d="M88.5,88.628a4.062,4.062,0,0,0-.387-.545,6.631,6.631,0,0,0-.524-.568,7.859,7.859,0,0,0-.753-.661,10.413,10.413,0,0,0-2.16-1.3,10.637,10.637,0,0,0-1.333-.515c-.464-.163-.953-.249-1.433-.373-.489-.077-.983-.151-1.465-.2-.484-.027-.965-.041-1.421-.04-.464.027-.909.065-1.327.107s-.809.145-1.168.216a7.388,7.388,0,0,0-.963.26c-.281.095-.525.191-.724.265-.393.153-.615.26-.615.26s.249.036.671.065c.211.016.464.036.753.047s.607.039.961.065.723.032,1.116.076.8.084,1.231.115c.423.057.853.123,1.3.169.436.073.877.148,1.321.227.221.048.44.1.656.143s.44.084.649.148.427.111.639.161.409.125.616.18c.407.111.792.247,1.167.368.188.055.36.135.533.193s.347.119.5.189c.32.124.619.243.876.356s.492.217.688.3c.177.095.339.156.435.211Z" fill="#271c24"/>
    <path id="Path_35" data-name="Path 35" d="M46,83.108a3.953,3.953,0,0,1,.547-.387,7.651,7.651,0,0,1,.679-.365,9.266,9.266,0,0,1,.931-.373,9.847,9.847,0,0,1,1.149-.311,10.485,10.485,0,0,1,1.32-.193,10.308,10.308,0,0,1,1.429-.045c.489,0,.98.08,1.475.124.489.088.973.18,1.447.3s.925.281,1.36.435c.425.177.832.361,1.213.54s.712.4,1.028.589a7.438,7.438,0,0,1,.823.561c.235.185.432.356.593.492.325.277.495.451.495.451s-.245-.047-.652-.159c-.2-.056-.451-.12-.725-.207s-.587-.167-.929-.257-.692-.208-1.08-.3-.787-.185-1.2-.3c-.42-.085-.851-.168-1.283-.273L53.3,83.206l-.667-.083c-.22-.027-.439-.068-.664-.076s-.437-.035-.652-.059-.432-.019-.639-.035c-.424-.032-.831-.029-1.225-.039-.2-.013-.383.007-.568,0s-.368,0-.537.009c-.344.015-.664.024-.947.047s-.536.043-.743.057-.373.035-.484.052S46,83.108,46,83.108Z" fill="#271c24"/>
    <path id="Path_36" data-name="Path 36" d="M30.637,89.305a79.509,79.509,0,0,1-.607-9.639C30.129,85.2,30.637,89.305,30.637,89.305Z" fill="#7c381e"/>
    <path id="Path_37" data-name="Path 37" d="M31.6,104.209s-.095-1.305-.367-3.613c-.047.061-.079.1-.079.1Z" fill="#271c24"/>
    <path id="Path_38" data-name="Path 38" d="M57.363,137.4l5.175,12.117-5.268-2.226-8.884,12.492-2.275-18.266L57.3,131.107Z" fill="#788d8d"/>
    <path id="Path_39" data-name="Path 39" d="M73.057,137.4l-7.072,12.521,7.165-2.63,8.883,12.492,2.276-18.266L73.123,131.107Z" fill="#788d8d"/>
    <path id="Path_40" data-name="Path 40" d="M96.881,191.646l3.776,17.651c3.988-5.205,9.23-3.031,14.159-7.773V156.648a11.965,11.965,0,0,0-10.047-11.811l-20.46-3.324L74.916,248.192c-1.248,11.345,26.861,13.637,26.861,13.637l-.165-7.7C101.44,246.148,96.881,191.646,96.881,191.646Z" fill="#271c24"/>
    <path id="Path_41" data-name="Path 41" d="M24.388,261.829s31.988,2.392,30.683-14.162L48.689,141.413l-25.981,4.046A11.714,11.714,0,0,0,12.8,157.033V198.9c6.553,3.629,13.173,8.316,16.823,14.2l3.643-21.446s-8.875,56.752-8.875,66.192Z" fill="#271c24"/>
    <path id="Path_42" data-name="Path 42" d="M105.949,67.768a7.768,7.768,0,0,0,.664-4.641l-4.764-.873c2.3-2.841-.88-7.921-4.441-7.089.265-2.725-2.508-4.749-5.1-5.628a20.6,20.6,0,0,0-4.345-.945,2.265,2.265,0,0,0-.543-1.067c-1.367-1.448-3.665-1.405-5.62-1.043a2.945,2.945,0,1,0-5.683-.985c-1.612-1.509-4.507-.7-5.555,1.124l-.352-.087a5.959,5.959,0,0,0-5.187-5.287,7.376,7.376,0,0,0-2.2,3.672,3.6,3.6,0,1,0-6.916,1.628,4.549,4.549,0,0,0-2.835,1.063,5.471,5.471,0,0,0-3.176-.237,3.459,3.459,0,0,0-2.407,3.093,6.538,6.538,0,0,0-2.1-.689c-2.327-.316-5.059,1.533-4.679,3.852a5.87,5.87,0,0,0-7.237,4.616,3.724,3.724,0,1,0-4.731,5.623c-.007.011-.012.02-.019.029A4.176,4.176,0,0,0,24.5,71.1c-1.544.461-1.895,2.768-.832,3.981a3.8,3.8,0,0,0,3.123,1.135,7.02,7.02,0,0,0-2.9,5.909,3.616,3.616,0,0,0,2.527.515,8.038,8.038,0,0,0-.548,4.1c.3,1.364,1.627,2.607,2.989,2.293-1,1.617.288,3.921,2.032,4.364h-.051a6.283,6.283,0,0,0,2.649,7.295c1.54.19,2.013-2.024,1.857-3.568q-.52-5.16-1.041-10.319a36.054,36.054,0,0,0,3.319-8.156,17.356,17.356,0,0,0,1.611-.989l2.736-1.879c1.965-1.347,4.092-2.933,4.529-5.275a3.506,3.506,0,0,0,4.573-1.24,5.09,5.09,0,0,1,.843-1.356,4.074,4.074,0,0,1,2.081-.6,4.683,4.683,0,0,0,2.716-1.6A5.057,5.057,0,0,0,62.5,62.881c.144,2.908,4.02,4.848,6.435,3.223,2.683,3.147,8.664,2.156,10.191-1.687q.2,2.458.407,4.916c2.38-.82,6.232-.592,5.995,1.913q2.01.094,4.02.192c-1.7.272-2.779,2.979-1.425,4.313,1.539,1.521,4.564.412,5.079-1.689a32.6,32.6,0,0,1,7.75,14.457,10.057,10.057,0,0,0,3.916-11.165C108.423,75.788,109.065,70.084,105.949,67.768Z" fill="#271c24"/>
    <path id="Path_43" data-name="Path 43" d="M12.8,198.9l61.429-9.471,2.533,23.253-48.976,2.46A11.145,11.145,0,0,1,12.8,204.676Z" fill="#271c24"/>
    <path id="Path_44" data-name="Path 44" d="M114.816,195.744l-61.429-9.472L50.853,194l48.976,17.989a11.144,11.144,0,0,0,14.987-10.461Z" fill="#271c24"/>
    <path id="Path_45" data-name="Path 45" d="M68.28,248.88c-.705-1.562-3-.207-2.3,1.346,2.127,4.7,4.545,15.23-1.263,18.367-1.511.817-.165,3.12,1.345,2.3C73.391,266.936,71.02,254.94,68.28,248.88Z" fill="#393639"/>
    <path id="Path_46" data-name="Path 46" d="M76.347,113.008c-1.757-2.427-4.832-3.353-7.761-4.068-1.872-.756-5.007-1.387-5.8-1.673-2.973-1.04-6.253-2.08-9.293-.547-3.92,1.973-5.72,7.267-7.053,11.933-.667,2.36-1.333,4.707-2.013,7.067q.54.439,1.12.84c1.12-4.133,2.4-8.227,3.8-12.28.853-2.453,1.92-5.107,3.933-6.387,3.72-2.36,7.627,1.414,11.667,1.587l.093.107,5.551,1.3c0-.011-.008-.024-.008-.034,2.325.622,4.42,1.456,5.364,3.071,1.107,1.88.707,4.24.227,6.36-.773,3.428-2.276,8.113-3.316,11.473.493-.132,1.583-.761,2.089-.934.52-1.76,1.053-4.326,1.56-6.072C77.667,120.849,78.733,116.3,76.347,113.008Z" fill="#271c24"/>
    <path id="Path_47" data-name="Path 47" d="M74.227,189.425l.92,17.211s5.808,1.818,10-4.964,11.737-10.026,11.737-10.026-1.977-6.88-4.319-5.374,1.66-2.05-2.34-2.05.739-3.112-2.52-2.222-3.007-2.1-6.687-.16-8.429,7.837-8.429,7.837" fill="#9a4827"/>
    <path id="Path_48" data-name="Path 48" d="M53.387,186.272s-10.575-3.828-15.092-2.05-9.309,4.474-6.691,9.792.355,2.682,5.041,0S50.853,194,50.853,194Z" fill="#9a4827"/>
    <path id="Path_49" data-name="Path 49" d="M65.333,159.556c-2.575,0-2.579,4,0,4S67.912,159.556,65.333,159.556Z" fill="#788d8d"/>
    <path id="Path_50" data-name="Path 50" d="M65.777,172.444c-2.573,0-2.579,4,0,4S68.356,172.444,65.777,172.444Z" fill="#788d8d"/>
    <path id="Path_51" data-name="Path 51" d="M66.667,219.111c-2.575,0-2.579,4,0,4S69.245,219.111,66.667,219.111Z" fill="#788d8d"/>
    <path id="Path_52" data-name="Path 52" d="M66.223,228.444c-2.575,0-2.579,4,0,4S68.8,228.444,66.223,228.444Z" fill="#788d8d"/>
  </g>
</svg>
