<svg xmlns="http://www.w3.org/2000/svg" xmlns:xlink="http://www.w3.org/1999/xlink" width="132" height="428" viewBox="0 0 132 428">
  <defs>
    <style>
      .cls-1 {
        fill: #841919;
        stroke: #9a1e1e;
      }

      .cls-2 {
        clip-path: url(#clip-path);
      }

      .cls-3 {
        fill: #d2cfc9;
      }

      .cls-4 {
        fill: #4a3f4c;
      }

      .cls-5 {
        fill: #5b1e13;
      }

      .cls-6 {
        fill: #271c24;
      }

      .cls-7 {
        fill: #4ebd38;
      }

      .cls-8 {
        fill: #347733;
      }

      .cls-9 {
        fill: #9a4827;
      }

      .cls-10 {
        fill: #607627;
      }

      .cls-11 {
        fill: #7c381e;
      }

      .cls-12 {
        fill: #fff;
      }

      .cls-13 {
        fill: #5a2215;
      }

      .cls-14 {
        fill: #d51e25;
      }

      .cls-15 {
        fill: #a32920;
      }

      .cls-16 {
        fill: #3e471c;
      }
    </style>
    <clipPath id="clip-path">
      <rect id="Rectangle_1" data-name="Rectangle 1" class="cls-1" width="132" height="428"/>
    </clipPath>
  </defs>
  <g id="Group_1" data-name="Group 1" class="cls-2">
    <path id="Path_5" data-name="Path 5" class="cls-3" d="M119.667,408.493c0,3.167-23.754,5.734-53.055,5.734s-53.055-2.567-53.055-5.734,23.753-5.733,53.055-5.733S119.667,405.327,119.667,408.493Z"/>
    <path id="Path_6" data-name="Path 6" class="cls-4" d="M50.468,384.7s10.816,23.8,2.163,23.8c-9.917,0-43.983-.714-43.983-.714s-2.885-5.77,5.047-9.375,25.957-10.1,25.957-10.1Z"/>
    <path id="Path_7" data-name="Path 7" class="cls-5" d="M55.964,404.356c.336-6.815-4.225-25.043-4.225-25.043H38.76s-9.263,12.651-17.683,16c1.116,3.014,2.227,6.02,3.275,9.043Z"/>
    <path id="Path_8" data-name="Path 8" class="cls-4" d="M83.953,384.7s-10.816,23.8-2.164,23.8c9.917,0,43.984-.714,43.984-.714s2.884-5.77-5.048-9.375-25.956-10.1-25.956-10.1Z"/>
    <path id="Path_9" data-name="Path 9" class="cls-5" d="M78.457,404.356c-.337-6.815,4.224-25.043,4.224-25.043h12.98s9.262,12.651,17.683,16c-1.116,3.014-2.227,6.02-3.275,9.043Z"/>
    <path id="Path_10" data-name="Path 10" class="cls-6" d="M94.891,207.336l-57.079,2.717s-8.145,20.074-5.865,65.355l1.809,106.327H53.821l11.6-110.086L67,265.457a1.294,1.294,0,0,1,2.571.018s7.576,67.068,8.349,75.033L81.1,381.735l22.73-1.239.69-112.2C108.2,241.627,108.767,230.416,94.891,207.336Z"/>
    <path id="Path_11" data-name="Path 11" class="cls-7" d="M95.967,121.231l2.261,5.329c2.255,5.311,8.336,114.051,8.336,114.051,8.568-.151-81.243,4.146-77.025.389l6.649-120.564c-.132-1.373.923-2.683,2.752-3.417L55.4,110.4l2.077-.836a8.748,8.748,0,0,1,3.7-.571l11.772.659a8.551,8.551,0,0,1,2.456.494l3.975,1.463,15.555,6.285c1.515.558,0,0,.316,1.068a20.6,20.6,0,0,0,.716,2.269Z"/>
    <path id="Path_12" data-name="Path 12" class="cls-8" d="M94.947,122.076s6.785-2.741,12.193,4.831c2.3,3.214,11.707,28.926,21.225,47.464a8.63,8.63,0,0,1-1.461,9.92L102,210.223l-9.222-11.914L108.4,182.868a8.235,8.235,0,0,0,1.335-9.993L96.787,150.559l.891-4.043Z"/>
    <path id="Path_13" data-name="Path 13" class="cls-9" d="M38.861,200.1c1.456,1.563,3.107,3.227,5.231,3.437,2.4.24,4.716-1.476,7.1-1.088a5.372,5.372,0,0,1,3.776,3.122,12.043,12.043,0,0,1,.929,4.97c.04,2.291-.748,5.231-3.031,5.432-.576.051-1.295-.038-1.6.454-.233.378-.051.873-.131,1.31-.243,1.316-2.255,1.088-3.337,1.875-.645.469-.972,1.34-1.708,1.645-1.2.5-2.389-.909-2.555-2.2s.169-2.671-.339-3.871c-.993-2.345-4.243-2.408-6.769-2.084a10.893,10.893,0,0,0-3.2-5.844Z"/>
    <path id="Path_14" data-name="Path 14" class="cls-9" d="M94.6,200.1c-1.456,1.563-3.105,3.227-5.231,3.437-2.4.24-4.716-1.476-7.1-1.088a5.367,5.367,0,0,0-3.776,3.122,12.021,12.021,0,0,0-.931,4.97c-.04,2.291.748,5.231,3.031,5.432.576.051,1.293-.038,1.6.454.233.378.051.873.132,1.31.241,1.316,2.253,1.088,3.337,1.875.644.469.971,1.34,1.707,1.645,1.2.5,2.389-.909,2.553-2.2s-.168-2.671.34-3.871c.992-2.345,4.243-2.408,6.769-2.084a10.892,10.892,0,0,1,3.2-5.844Z"/>
    <path id="Path_15" data-name="Path 15" class="cls-8" d="M38.109,122.076s-5.912-1.912-11.32,5.659C24.525,130.9,14.6,155.2,5.091,173.593a9.839,9.839,0,0,0,1.663,11.324l24.3,25.306,9.224-11.914L22.693,180.94a4.691,4.691,0,0,1-.759-5.693l14.335-24.688-1.276-8.467Z"/>
    <path id="Path_16" data-name="Path 16" class="cls-10" d="M79.4,112.9a12.147,12.147,0,1,1-24.293,0,11.726,11.726,0,0,1,.292-2.628l3.775-2.39,15.089,1.33,5.116,2.964C79.391,112.415,79.4,112.664,79.4,112.9Z"/>
    <path id="Path_17" data-name="Path 17" class="cls-9" d="M39.377,71.16S33.713,63.888,28.5,68.667s2.239,19.508,12.223,16.045Z"/>
    <path id="Path_18" data-name="Path 18" class="cls-11" d="M39.887,76.3l.695,6.976C31.944,84.823,27.015,72.8,30.988,71.131,34.2,69.781,38.188,74,39.887,76.3Z"/>
    <path id="Path_19" data-name="Path 19" class="cls-11" d="M29.6,73.62s.017-.055.043-.153.073-.244.131-.42a2.871,2.871,0,0,1,.775-1.2,1.611,1.611,0,0,1,.355-.224,1.923,1.923,0,0,1,.2-.083l.048-.017h0c-.037.015-.008,0-.015.007h.027l.032-.009.137-.036a1.786,1.786,0,0,1,.245-.052,3.182,3.182,0,0,1,.495-.037,1.986,1.986,0,0,1,.267.008,5.6,5.6,0,0,1,2.173.711,11.12,11.12,0,0,1,1.052.637c.337.231.669.471.983.711.629.487,1.2.973,1.695,1.395l1.64,1.452s-.084-.205-.268-.547a12.8,12.8,0,0,0-.863-1.356c-.2-.267-.417-.557-.671-.845s-.531-.588-.836-.88a10.156,10.156,0,0,0-2.164-1.6,6.7,6.7,0,0,0-1.315-.536,4.649,4.649,0,0,0-1.416-.18,2.817,2.817,0,0,0-.351.028,2.239,2.239,0,0,0-.34.057,2.573,2.573,0,0,0-.336.092,2.047,2.047,0,0,0-.3.113l-.132.061-.081.037-.073.041a1.79,1.79,0,0,0-.272.175,2.387,2.387,0,0,0-.425.428,2.322,2.322,0,0,0-.424.9,2.886,2.886,0,0,0-.081.717,3.132,3.132,0,0,0,.035.455C29.589,73.567,29.6,73.62,29.6,73.62Z"/>
    <path id="Path_20" data-name="Path 20" class="cls-9" d="M91.891,70.593s5.5-7.392,10.82-2.725-1.818,19.551-11.875,16.3Z"/>
    <path id="Path_21" data-name="Path 21" class="cls-11" d="M91.492,75.74l-.544,6.988c8.667,1.367,13.336-10.761,9.328-12.344C97.037,69.107,93.139,73.408,91.492,75.74Z"/>
    <path id="Path_22" data-name="Path 22" class="cls-11" d="M101.72,72.843l-.045-.151c-.03-.1-.078-.241-.142-.417a2.8,2.8,0,0,0-.8-1.189,1.607,1.607,0,0,0-.36-.216,1.977,1.977,0,0,0-.2-.075l-.054-.017h0c.04.013.008,0,.015,0h-.024l-.034-.009-.138-.033a1.5,1.5,0,0,0-.247-.045,1.634,1.634,0,0,0-.243-.024,1.809,1.809,0,0,0-.255,0,2.175,2.175,0,0,0-.261.015,5.559,5.559,0,0,0-2.161.755,11.86,11.86,0,0,0-1.037.663c-.332.239-.659.483-.968.732-.617.5-1.177,1-1.663,1.429L91.492,75.74s.081-.208.259-.552a11.262,11.262,0,0,1,.832-1.375c.192-.271.4-.565.652-.859s.515-.6.816-.9a10.228,10.228,0,0,1,2.127-1.643,6.8,6.8,0,0,1,1.307-.564,4.653,4.653,0,0,1,1.408-.211,3.11,3.11,0,0,1,.353.021,2,2,0,0,1,.341.051,2.135,2.135,0,0,1,.337.085,1.774,1.774,0,0,1,.3.108l.129.055.083.036.075.039a2.3,2.3,0,0,1,.278.171,2.542,2.542,0,0,1,.435.419,2.32,2.32,0,0,1,.44.891,2.788,2.788,0,0,1,.1.72,3.065,3.065,0,0,1-.024.453C101.728,72.788,101.72,72.843,101.72,72.843Z"/>
    <path id="Path_23" data-name="Path 23" class="cls-9" d="M59.607,93.529l14.216-.155s.788,22.254.841,22.254c0,0-1,4.451-7.3,4.618s-7.913-4.455-7.913-4.455C59.5,115.668,59.607,93.529,59.607,93.529Z"/>
    <path id="Path_24" data-name="Path 24" class="cls-11" d="M59.7,101.716l14.216-.156s.639,8.612.692,8.612c0,0-1,4.451-7.3,4.617s-7.913-4.454-7.913-4.454C59.44,110.212,59.7,101.716,59.7,101.716Z"/>
    <path id="Path_25" data-name="Path 25" class="cls-11" d="M59.651,97.623l14.216-.155s.212,2.841.4,5.259c.031.35-4.049,1.012-4.492,1.086a25.313,25.313,0,0,1-10.3-.646C59.559,100.691,59.651,97.623,59.651,97.623Z"/>
    <path id="Path_26" data-name="Path 26" class="cls-6" d="M35.776,64.893C35.967,82.62,47.855,97.305,66.829,97.1s30.98-18.177,32.245-35.863c1.762-24.649-13.963-28.547-32.939-28.343S35.583,47.161,35.776,64.893Z"/>
    <path id="Path_27" data-name="Path 27" class="cls-9" d="M35.776,64.894c.236-9.88,4.384-19.252,14.1-23.191a41.207,41.207,0,0,1,15.7-2.553c5.245.029,10.837.309,15.788,2.156C90.233,44.618,89,49.2,90,58.214c.1.884,6.075,5.143,6.115,6.029.093,2.035.271,4.036.217,6.079A47.156,47.156,0,0,1,94.076,83.9a30.177,30.177,0,0,1-9.111,13.88,28.3,28.3,0,0,1-8.4,4.765,28.4,28.4,0,0,1-15.12,1.558,31.954,31.954,0,0,1-10.245-3.53A28.342,28.342,0,0,1,39.509,87.639a43.48,43.48,0,0,1-3.663-14.38,46.357,46.357,0,0,1-.091-8.151C35.763,65.036,35.773,64.965,35.776,64.894Z"/>
    <path id="Path_28" data-name="Path 28" class="cls-11" d="M58.3,71.691a4.689,4.689,0,1,1-4.92-4.853,4.887,4.887,0,0,1,4.92,4.853Z"/>
    <path id="Path_29" data-name="Path 29" class="cls-6" d="M58.656,69.847a4.689,4.689,0,1,1-4.92-4.852,4.883,4.883,0,0,1,4.92,4.852Z"/>
    <path id="Path_30" data-name="Path 30" class="cls-12" d="M56.985,68.551A1.875,1.875,0,1,1,55.021,66.8a1.855,1.855,0,0,1,1.964,1.751Z"/>
    <path id="Path_31" data-name="Path 31" class="cls-11" d="M86.484,72.467a4.688,4.688,0,1,1-4.92-4.852A4.885,4.885,0,0,1,86.484,72.467Z"/>
    <path id="Path_32" data-name="Path 32" class="cls-6" d="M86.424,71.28a4.688,4.688,0,1,1-4.92-4.851,4.882,4.882,0,0,1,4.92,4.851Z"/>
    <path id="Path_33" data-name="Path 33" class="cls-12" d="M84.753,69.984a1.874,1.874,0,1,1-1.963-1.749,1.853,1.853,0,0,1,1.963,1.749Z"/>
    <path id="Path_34" data-name="Path 34" class="cls-13" d="M69.808,68.949s-2.164,5.824.781,6.033c5.7.412,2.783,12.119-4.369,5.7-2.7-2.423.868-12.324.868-12.324Z"/>
    <path id="Path_35" data-name="Path 35" class="cls-13" d="M74.112,87.732S62.785,89.616,57.4,83.127c0,0-4.525,12.125,7.636,13.68C72.721,97.787,74.112,87.732,74.112,87.732Z"/>
    <path id="Path_36" data-name="Path 36" class="cls-14" d="M70.261,95.379a6.574,6.574,0,0,1-5.221,1.428,10.548,10.548,0,0,1-5.947-2.425,9.3,9.3,0,0,1-1-1.125.094.094,0,0,1-.02-.025.044.044,0,0,1-.009-.015,8.485,8.485,0,0,1-1.443-4.252C63.455,87.175,68.355,92.519,70.261,95.379Z"/>
    <path id="Path_37" data-name="Path 37" class="cls-12" d="M74.112,87.732s-.013.087-.039.24c-1.1.228-3.143,2.624-5.891,2.528a12.774,12.774,0,0,1-5.005-1.273,13.623,13.623,0,0,1-2.813-1.568,7.023,7.023,0,0,1-1.377-2.98C64.729,89.291,74.111,87.732,74.112,87.732Z"/>
    <path id="Path_38" data-name="Path 38" class="cls-15" d="M57.681,84.336c-.445,1.743-1.063,5.4.664,8.2,1.251,2.021,3.529,3.257,6.772,3.671,5.852.748,7.747-5.492,8.239-7.76C70.688,88.735,62.548,89.164,57.681,84.336ZM64.96,97.4c-3.637-.463-6.217-1.9-7.672-4.249-2.636-4.277-.553-10-.464-10.237a.621.621,0,0,1,1.056-.175c5.088,6.139,16.02,4.409,16.129,4.395a.613.613,0,0,1,.532.161.591.591,0,0,1,.179.513c-.011.1-1.411,9.587-8.553,9.664A8.822,8.822,0,0,1,64.96,97.4Z"/>
    <path id="Path_39" data-name="Path 39" class="cls-6" d="M87.8,64.6a3.77,3.77,0,0,0-.353-.495,5.673,5.673,0,0,0-.475-.516,7.2,7.2,0,0,0-.684-.6,9.224,9.224,0,0,0-.888-.613,8.92,8.92,0,0,0-1.073-.564,9.4,9.4,0,0,0-1.211-.468c-.421-.148-.865-.227-1.3-.34-.444-.069-.891-.136-1.331-.18-.439-.024-.876-.036-1.291-.036-.42.024-.824.06-1.2.1a10.413,10.413,0,0,0-1.059.2,6.945,6.945,0,0,0-.876.235c-.255.088-.476.175-.657.243-.357.137-.557.236-.557.236s.227.032.608.059c.192.015.421.033.685.041s.551.036.872.06.656.029,1.013.069.731.076,1.117.1c.384.052.776.112,1.18.153.395.068.795.136,1.2.207.2.043.4.088.6.129s.4.076.591.133.388.1.579.148.373.113.56.163c.371.1.72.224,1.06.333.171.051.327.124.484.176s.315.109.457.172c.292.113.561.221.8.324s.445.2.624.272c.163.085.307.141.395.191Z"/>
    <path id="Path_40" data-name="Path 40" class="cls-6" d="M49.212,59.588a3.715,3.715,0,0,1,.5-.351,6.839,6.839,0,0,1,.616-.332,8.594,8.594,0,0,1,.844-.339,9.176,9.176,0,0,1,1.044-.283,9.387,9.387,0,0,1,1.2-.173,9.254,9.254,0,0,1,1.3-.043c.445,0,.891.073,1.34.113.443.08.884.163,1.313.269.424.123.84.256,1.235.4.387.161.756.328,1.1.489s.647.367.933.536a6.519,6.519,0,0,1,.747.511c.213.168.393.323.539.447.3.252.449.408.449.408s-.224-.043-.592-.144c-.185-.051-.409-.109-.659-.188s-.533-.151-.843-.233-.629-.189-.983-.272-.712-.168-1.087-.272c-.38-.076-.772-.152-1.164-.247l-1.2-.2c-.2-.027-.4-.051-.6-.076s-.4-.061-.6-.068-.4-.033-.592-.053-.391-.019-.58-.032c-.385-.029-.755-.027-1.112-.035-.179-.013-.348.005-.516,0s-.333,0-.488.009c-.312.013-.6.021-.86.041l-.673.053c-.188.014-.339.031-.44.047Z"/>
    <path id="Path_41" data-name="Path 41" class="cls-11" d="M35.268,65.215a71.849,71.849,0,0,1-.549-8.751C34.805,61.491,35.268,65.215,35.268,65.215Z"/>
    <path id="Path_42" data-name="Path 42" class="cls-6" d="M36.145,78.747s-.087-1.185-.332-3.28l-.072.091Z"/>
    <path id="Path_43" data-name="Path 43" class="cls-6" d="M101.481,58.5c2.819-3.485,2.992-8.343,3.038-12.825.037-3.769-1.1-8.833-4.87-8.869.6-1.6-.445-3.383-1.813-4.4s-3.039-1.532-4.484-2.433c-1.763-1.1-3.152-2.74-4.975-3.735s-4.448-1.1-5.661.588c-1.948-4.052-8.3-4.971-11.315-1.637-1.075-1.845-3.6-2.275-5.7-1.883S61.64,24.7,59.52,24.957c-1.777.216-3.609-.095-5.355.3s-3.481,1.905-3.211,3.676a15.9,15.9,0,0,0-6.764-.389c-2.217.52-4.312,2.3-4.419,4.579-1.443-1.211-3.835-.12-4.608,1.6s-.428,3.707-.068,5.555A3.862,3.862,0,0,0,30.9,46.5q-.606,5.206-1.212,10.408L32.72,58.2c-2.06,2.32-.972,6.431,1.667,7.832A9.036,9.036,0,0,0,39.535,69.5a9.782,9.782,0,0,0-1.329-7.452,4.294,4.294,0,0,0,1.412-8.159c3.32.967,6.716-3.4,4.967-6.376a9.552,9.552,0,0,0,4.705.053c1.5-.5,2.777-2.073,2.375-3.607a6.019,6.019,0,0,0,6.493,1.523q.554-1.248,1.108-2.5c2.588,3.056,8.611,1.287,9.133-2.684a10.407,10.407,0,0,0,7.928,4.16c.861,2.055,3.624,2.48,5.544,1.552a8.952,8.952,0,0,0,5.808,4.533c.019.2.048.4.053.593a3.931,3.931,0,0,0,.536,2.527c1,1.156,2.879.393,4.391.619,2.176.327,3.389,2.759,3.591,4.949s-.228,4.449.349,6.572a2.04,2.04,0,0,0,.637,1.133c1.052.808,2.509-.612,2.6-1.936s-.464-2.683-.091-3.956a7.946,7.946,0,0,1,1.736-2.544Z"/>
    <path id="Path_44" data-name="Path 44" class="cls-16" d="M38.689,198.012a24.79,24.79,0,0,0-8.021,10.951c-.611,1.6,1.968,2.3,2.572.708a22.337,22.337,0,0,1,7.336-9.774C41.931,198.848,40.031,196.973,38.689,198.012Z"/>
    <path id="Path_45" data-name="Path 45" class="cls-16" d="M103.493,208.54q-4.891-5.784-9.785-11.567c-1.109-1.312-2.988.583-1.885,1.887l9.785,11.565C102.717,211.737,104.6,209.843,103.493,208.54Z"/>
    <path id="Path_46" data-name="Path 46" class="cls-6" d="M33.577,176.824a5.02,5.02,0,0,1-3-4.583V120.792a5,5,0,1,1,10.005,0l-4,51.449C36.581,174.993,34.192,177.093,33.577,176.824Z"/>
    <path id="Path_47" data-name="Path 47" class="cls-6" d="M100.344,176.468a5.013,5.013,0,0,1-2.335-4.227l-5.333-51.449a5,5,0,0,1,10,0v51.449C102.68,174.993,101.117,176.959,100.344,176.468Z"/>
  </g>
</svg>
