<svg width="600" height="600" viewBox="0 0 600 600" fill="none" xmlns="http://www.w3.org/2000/svg">
<g id="17232744_2007.i126.008_hawaii_set-08 (1) 1">
<g id="g8">
<g id="g10">
<path id="path12" d="M469.377 405.505H382.049V409.589H469.377V405.505Z" fill="#66352A"/>
<path id="path14" d="M460.421 407.104H454.663V446.129H460.421V407.104Z" fill="#66352A"/>
<path id="path16" d="M460.421 416.221H454.663V444.531H460.421V416.221Z" fill="#915544"/>
<path id="path18" d="M434.511 407.104H428.752V446.129H434.511V407.104Z" fill="#66352A"/>
<path id="path20" d="M434.511 418.86H428.752V443.73H434.511V418.86Z" fill="#915544"/>
<path id="path22" d="M146.457 405.505H59.1292V409.589H146.457V405.505Z" fill="#66352A"/>
<path id="path24" d="M348.623 486.754H99.1145V492.832H348.623V486.754Z" fill="#54271F"/>
<path id="path26" d="M354.871 449.808H346.795V519.383H354.871V449.808Z" fill="#54271F"/>
<path id="path28" d="M150.616 449.808H144.309V519.383H150.616V449.808Z" fill="#54271F"/>
<path id="path30" d="M254.784 451.196L249.743 446.156L206.472 489.427L211.512 494.467L254.784 451.196Z" fill="#54271F"/>
<path id="path32" d="M396.092 451.196L391.051 446.156L347.779 489.427L352.82 494.467L396.092 451.196Z" fill="#54271F"/>
<path id="path34" d="M314.489 445.489L320.152 451.993L292.564 480.155L288.797 471.716L314.489 445.489Z" fill="#66352A"/>
<path id="path36" d="M265.124 441.748L259.875 448.893L285.447 479.835L288.939 470.563L265.124 441.748Z" fill="#66352A"/>
<path id="path38" d="M464.419 449.808H455.143V519.383H464.419V449.808Z" fill="#66352A"/>
<path id="path40" d="M294.643 449.808H285.365V519.383H294.643V449.808Z" fill="#915544"/>
<path id="path42" d="M295.361 449.808H284.645L285.365 484.196H294.643L295.361 449.808Z" fill="#66352A"/>
<path id="path44" d="M80.0853 444.557L76.7905 451.571L102.706 488.445L104.219 478.896L80.0853 444.557Z" fill="#66352A"/>
<path id="path46" d="M128.153 447.11L123.782 452.069L145.935 476.254L148.781 469.631L128.153 447.11Z" fill="#54271F"/>
<path id="path48" d="M331.837 447.11L327.467 452.069L349.62 476.254L352.467 469.631L331.837 447.11Z" fill="#54271F"/>
<path id="path50" d="M168.968 446.155L163.928 451.196L207.199 494.468L212.24 489.427L168.968 446.155Z" fill="#54271F"/>
<path id="path52" d="M105.272 449.808H95.9958V519.383H105.272V449.808Z" fill="#915544"/>
<path id="path54" d="M105.272 449.648H95.9958V483.876H105.272V449.648Z" fill="#66352A"/>
<path id="path56" d="M212.992 449.808H205.315V519.383H212.992V449.808Z" fill="#54271F"/>
<path id="path58" d="M66.4863 331.772C114.635 363.872 443.068 364.078 457.061 336.09C451.624 331.132 427.792 294.826 285.285 294.826C142.779 294.826 74.939 319.284 66.4863 331.772Z" fill="#D3411A"/>
<path id="path60" d="M421.555 319.777C315.839 313.2 208.508 313.4 99.5942 320.256L103.433 441.172H417.236L421.555 319.777Z" fill="#915544"/>
<path id="path62" d="M395.165 319.777C334.508 313.2 272.925 313.4 210.433 320.256L212.636 441.172H392.687L395.165 319.777Z" fill="#A05848"/>
<path id="path64" d="M257.409 342.328C326.703 342.328 387.404 362.064 419.016 391.15L421.555 319.777C315.839 313.2 208.508 313.4 99.5942 320.256L101.733 387.628C133.162 360.482 190.951 342.328 257.409 342.328Z" fill="#7C4437"/>
<path id="path66" d="M407.16 432.695C412.919 410.303 411.319 347.287 411.319 347.287C408.539 378.584 406.409 408.563 407.16 432.695Z" fill="#68352B"/>
<path id="path68" d="M287.684 401.026C293.442 378.634 291.843 315.618 291.843 315.618C289.063 346.916 286.933 376.894 287.684 401.026Z" fill="#68352B"/>
<path id="path70" d="M131.742 398.148C134.607 376.385 124.865 315.139 124.865 315.139C126.129 345.557 127.873 374.693 131.742 398.148Z" fill="#68352B"/>
<path id="path72" d="M161.972 451.888C167.729 433.857 166.129 383.113 166.129 383.113C163.349 408.316 161.22 432.456 161.972 451.888Z" fill="#68352B"/>
<path id="path74" d="M239.223 448.049C242.591 414.839 234.264 321.376 234.264 321.376C234.825 367.795 235.896 412.259 239.223 448.049Z" fill="#68352B"/>
<path id="path76" d="M355.979 435.253C358.717 403.469 348.623 314.019 348.623 314.019C350.063 358.445 351.975 401 355.979 435.253Z" fill="#68352B"/>
<path id="path78" d="M318.752 440.692H288.088C288.088 440.692 270.924 422.451 274.712 389.06C277.928 360.721 296.243 349.289 314.839 352.779C333.432 356.267 337.673 423.248 318.752 440.692Z" fill="#66352A"/>
<path id="path80" d="M274.713 407.717C277.272 429.176 288.088 440.692 288.088 440.692H318.752C327.671 432.469 331.44 413.244 330.988 394.847C324.521 389.861 316.789 386.952 308.477 386.952C294.487 386.952 282.137 395.171 274.713 407.717Z" fill="#823F34"/>
<path id="path82" d="M313.097 440.052H288.28C288.28 440.052 274.389 423.266 277.456 392.54C280.058 366.464 294.88 355.944 309.929 359.153C324.977 362.364 328.409 424.001 313.097 440.052Z" fill="#44221C"/>
<path id="path86" d="M457.061 336.091C451.624 331.132 427.792 294.827 285.285 294.827C142.779 294.827 74.9389 319.284 66.4868 331.772C70.8873 334.707 77.6379 337.372 86.2676 339.776C117.987 321.056 440.108 338.329 438.516 345.184C448.767 342.591 455.328 339.557 457.061 336.091Z" fill="#E8822E"/>
<path id="path88" d="M66.4863 331.772C113.509 323.136 320.312 326.015 363.016 329.853C405.721 333.692 457.061 336.091 457.061 336.091C448.265 305.541 349.261 163.355 257.456 112.973L234.424 111.055C176.205 151.199 92.077 260.599 66.4863 331.772Z" fill="#F2B03B"/>
<path id="path90" d="M148.861 326.7C227.959 325.054 333.825 327.229 363.016 329.853C379.277 331.314 396.783 332.566 412.237 333.557C411.313 328.738 410.265 323.78 409.032 318.612C386.444 224.017 275.916 116.358 247.7 123.096C223.929 128.772 156.129 236.374 148.861 326.7Z" fill="#EFCA52"/>
<path id="path92" d="M354.78 235.808C354.78 235.808 379.411 280.59 387.088 331.772L395.165 332.572C384.609 275.953 354.78 235.808 354.78 235.808Z" fill="#F2B03B"/>
<path id="path94" d="M320.552 198.061C320.552 198.061 348.144 259.427 359.205 329.557L367.164 330.219C352.865 252.637 320.552 198.061 320.552 198.061Z" fill="#F2B03B"/>
<path id="path96" d="M199.877 223.652C199.877 223.652 179.293 271.767 176.845 326.28L168.597 326.38C173.443 266.075 199.877 223.652 199.877 223.652Z" fill="#F2B03B"/>
<path id="path98" d="M416.149 281.177C416.149 281.177 428.236 307.257 432.864 337.064L440.108 337.531C433.776 304.556 416.149 281.177 416.149 281.177Z" fill="#E8822E"/>
<path id="path100" d="M158.612 236.608C158.612 236.608 137.757 285.697 130.898 328.432L121.858 329.053C130.013 283.644 158.612 236.608 158.612 236.608Z" fill="#E8822E"/>
<path id="path102" d="M122.146 261.879C122.146 261.879 103.727 298.397 98.4972 330.191L89.8696 330.653C96.2551 296.871 122.146 261.879 122.146 261.879Z" fill="#E8822E"/>
<path id="path104" d="M208.993 79.3851L232.025 117.772L265.133 119.69L277.608 74.1078C277.608 74.1078 244.98 52.5158 208.993 79.3851Z" fill="#F2B03B"/>
<path id="path106" d="M224.033 119.723C218.004 119.028 217.791 108.015 227.387 110.893C240.987 114.973 262.255 112.493 268.012 111.853C273.769 111.215 278.248 120.171 272.171 122.409C266.093 124.649 232.351 120.683 224.033 119.723Z" fill="#915544"/>
<path id="path108" d="M459.618 463.858V451.888H371.008V463.858H459.618Z" fill="#915544"/>
<path id="path110" d="M474.333 474.838V462.868H375.164V474.838H474.333Z" fill="#B26552"/>
<path id="path112" d="M482.331 485.819V473.848H393.719V485.819H482.331Z" fill="#915544"/>
<path id="path114" d="M497.045 496.798V484.828H397.876V496.798H497.045Z" fill="#B26552"/>
<path id="path116" d="M502.482 508.084V496.114H413.872V508.084H502.482Z" fill="#915544"/>
<path id="path118" d="M517.197 519.383V507.412H418.028V519.383H517.197Z" fill="#B26552"/>
<path id="path120" d="M376.13 463.859V451.888H367.334V463.86L376.13 463.859Z" fill="#66352A"/>
<path id="path122" d="M390.844 474.838V462.868L367.334 462.869V474.84L390.844 474.838Z" fill="#66352A"/>
<path id="path124" d="M398.841 485.819V473.848H367.334V485.82L398.841 485.819Z" fill="#66352A"/>
<path id="path126" d="M413.556 496.798V484.828L367.334 484.829V496.8L413.556 496.798Z" fill="#66352A"/>
<path id="path128" d="M418.994 508.084V496.114H367.334V508.084H418.994Z" fill="#66352A"/>
<path id="path130" d="M433.708 519.383V507.412H367.334V519.384L433.708 519.383Z" fill="#66352A"/>
<path id="path132" d="M97.1954 407.104H91.4375V446.129H97.1954V407.104Z" fill="#66352A"/>
<path id="path134" d="M71.2848 407.104H65.5264V446.129H71.2848V407.104Z" fill="#66352A"/>
<path id="path136" d="M71.2848 416.701H65.5264V444.371H71.2848V416.701Z" fill="#915544"/>
<path id="path138" d="M464.4 439.252H64.9062C63.1291 439.252 61.6885 440.693 61.6885 442.471V449.949C61.6885 451.727 63.1291 453.167 64.9062 453.167H464.4C466.177 453.167 467.617 451.727 467.617 449.949V442.471C467.617 440.693 466.177 439.252 464.4 439.252Z" fill="#B26552"/>
<path id="path140" d="M450.211 439.252H203.849C202.451 439.252 201.317 440.387 201.317 441.785V450.635C201.317 452.033 202.451 453.167 203.849 453.167H450.211C451.609 453.167 452.744 452.033 452.744 450.635V441.785C452.744 440.387 451.609 439.252 450.211 439.252Z" fill="#C96450"/>
<path id="path142" d="M224.508 372.717C224.861 362.736 220.131 354.644 207.235 354.644C194.339 354.644 189.035 362.736 188.681 372.717C188.328 382.699 193.059 390.791 205.955 390.791C218.852 390.791 224.155 382.699 224.508 372.717Z" fill="#66352A"/>
<path id="path144" d="M189.68 380.555C191.66 386.605 196.692 390.791 205.955 390.791C218.852 390.791 224.155 382.699 224.508 372.717C224.588 370.473 224.393 368.335 223.924 366.353C218.965 367.056 213.593 368.409 208.123 370.471C200.868 373.205 194.544 376.755 189.68 380.555Z" fill="#823F34"/>
<path id="path150" d="M400.763 386.952C393.468 390.599 382.805 386.635 381.889 375.116C380.771 361.041 387.008 351.445 396.284 354.964C405.561 358.483 408.44 383.113 400.763 386.952Z" fill="#66352A"/>
<path id="path152" d="M405.131 376.804C401.568 373.931 397.081 371.373 391.94 369.501C388.6 368.287 385.289 367.483 382.12 367.029C381.757 369.487 381.657 372.197 381.889 375.116C382.805 386.635 393.468 390.599 400.763 386.952C403.501 385.583 404.891 381.563 405.131 376.804Z" fill="#823F34"/>
<path id="path154" d="M396.469 384.5C391.325 387.188 383.74 384.268 383.009 375.779C382.117 365.405 386.471 358.333 393.069 360.927C399.669 363.52 401.884 381.672 396.469 384.5Z" fill="#44221C"/>
<path id="path160" d="M224.635 70.4427C226.485 93.4267 237.144 111.055 250.019 111.055C262.464 111.055 272.839 94.5814 275.188 72.72C268.456 69.172 248.384 60.7134 224.635 70.4427Z" fill="#EFCA52"/>
<path id="path162" d="M470.657 404.613H451.944V410.672H470.657V404.613Z" fill="#915544"/>
<path id="path164" d="M73.3639 404.744H59.1292V410.512H73.3639V404.744Z" fill="#A05848"/>
<path id="path166" d="M246.701 113.176C240.048 113.148 233.055 112.594 227.387 110.893C217.791 108.014 218.004 119.028 224.033 119.724C226.249 119.978 230.279 120.448 235.1 120.957C237.589 117.421 241.708 114.646 246.701 113.176Z" fill="#6D3C31"/>
<path id="path168" d="M274.388 120.744C276.659 117.379 272.785 111.324 268.012 111.853C266.483 112.024 263.837 112.323 260.553 112.595C266.507 113.785 271.489 116.767 274.388 120.744Z" fill="#6D3C31"/>
<path id="path170" d="M322.712 258.679C301.287 223.14 280.487 148.32 280.487 148.32C303.199 190.864 314.213 228.525 322.712 258.679Z" fill="#F2B03B"/>
<path id="left-smal-window" d="M221.956 372.717C222.221 364.159 218.673 357.221 209.004 357.221C199.333 357.221 195.357 364.159 195.092 372.717C194.828 381.276 198.375 388.213 208.044 388.213C217.715 388.213 221.691 381.276 221.956 372.717Z" fill="#44221C"/>
<path id="path172" d="M233.852 125.6C227.467 160.63 207.555 195.982 207.555 195.982C210.176 175.506 221.152 151.997 233.852 125.6Z" fill="#F2B03B"/>
<path id="path174" d="M237.821 190.335C233.465 226.052 222.465 275.513 222.465 275.513C221.997 251.991 226.747 216.135 237.821 190.335Z" fill="#F2B03B"/>
<path id="path176" d="M263.213 108.655C268.012 93.9399 269.292 74.7479 269.292 74.7479L255.536 111.533L263.213 108.655Z" fill="#F2B03B"/>
<path id="path178" d="M241.461 109.935C234.424 92.6612 236.984 78.5852 236.984 78.5852L249.458 112.493L241.461 109.935Z" fill="#F2B03B"/>
<g id="rave">
<path id="door" d="M296.453 409.273C304.78 401.013 313.733 394.378 322.535 389.597C321.125 373.93 316.713 360.601 309.929 359.153C294.88 355.944 280.059 366.464 277.456 392.54C275.96 407.529 278.503 419.173 281.497 427.196C285.645 421.086 290.657 415.024 296.453 409.273Z" fill="#301714"/>
<path id="left-big-window" d="M209.004 357.221C199.364 357.221 195.384 364.117 195.097 372.639C195.952 372.444 196.824 372.317 197.719 372.317C204.812 372.317 210.816 378.716 212.829 387.533C219.054 385.592 221.74 379.695 221.956 372.717C222.221 364.159 218.673 357.221 209.004 357.221Z" fill="#301714"/>
<path id="right-big-window" d="M395.459 376.747C396.809 377.436 398.091 378.177 399.309 378.952C400.224 372.477 397.767 362.772 393.069 360.927C387.183 358.613 383.093 364.001 382.912 372.553C386.823 373.157 391.153 374.549 395.459 376.747Z" fill="#301714"/>
</g>
<path id="path180" d="M276.968 328.093C277.288 311.14 278.248 283.951 278.248 283.951L287.525 328.093H276.968Z" fill="#E8822E"/>
</g>
</g>
</g>
</svg>
