<svg xmlns="http://www.w3.org/2000/svg" width="125.316" height="381.34" viewBox="0 0 125.316 381.34">
  <defs>
    <style>
      .cls-1 {
        fill: #d2cfc9;
      }

      .cls-2 {
        fill: #4a3f4c;
      }

      .cls-3 {
        fill: #5b1e13;
      }

      .cls-4 {
        fill: #bfbbb3;
      }

      .cls-5 {
        fill: #d51e25;
      }

      .cls-6 {
        fill: #9a4827;
      }

      .cls-7 {
        fill: #75171b;
      }

      .cls-8 {
        fill: #7c381e;
      }

      .cls-9 {
        fill: #271c24;
      }

      .cls-10 {
        fill: #fff;
      }

      .cls-11 {
        fill: #5a2215;
      }

      .cls-12 {
        fill: #a32920;
      }
    </style>
  </defs>
  <g id="Group_5" data-name="Group 5" transform="translate(-188 34.113)">
    <g id="g8" transform="translate(233 -64)">
      <g id="g10" transform="translate(-49 -3)">
        <path id="path274" class="cls-1" d="M119.667,408.493c0,3.167-23.754,5.734-53.055,5.734s-53.055-2.567-53.055-5.734,23.753-5.733,53.055-5.733S119.667,405.327,119.667,408.493Z"/>
        <path id="path276" class="cls-2" d="M50.468,384.7s10.816,23.8,2.163,23.8c-9.917,0-43.983-.714-43.983-.714s-2.885-5.77,5.047-9.375,25.957-10.1,25.957-10.1Z"/>
        <path id="path278" class="cls-3" d="M55.964,404.356c.336-6.815-4.225-25.043-4.225-25.043H38.76s-9.263,12.651-17.683,16c1.116,3.014,2.227,6.02,3.275,9.043Z"/>
        <path id="path280" class="cls-2" d="M83.953,384.7s-10.816,23.8-2.164,23.8c9.917,0,43.984-.714,43.984-.714s2.884-5.77-5.048-9.375-25.956-10.1-25.956-10.1Z"/>
        <path id="path282" class="cls-3" d="M78.457,404.356c-.337-6.815,4.224-25.043,4.224-25.043h12.98s9.262,12.651,17.683,16c-1.116,3.014-2.227,6.02-3.275,9.043Z"/>
        <path id="path284" class="cls-4" d="M94.891,207.336l-57.079,2.718s-8.145,20.073-5.865,65.354l1.809,106.327H53.821l11.6-110.085,1.577-6.192a1.294,1.294,0,0,1,2.571.017s7.576,67.068,8.349,75.033L81.1,381.735l22.73-1.239L104.52,268.3C108.2,241.627,108.767,230.416,94.891,207.336Z"/>
        <path id="path286" class="cls-5" d="M95.967,121.231l2.261,5.329c2.255,5.311,8.336,114.051,8.336,114.051,8.568-.151-81.243,4.146-77.025.389l6.649-120.564c-.132-1.373.923-2.683,2.752-3.417L55.4,110.4l2.077-.836a8.747,8.747,0,0,1,3.7-.571l11.772.659a8.551,8.551,0,0,1,2.456.494l3.975,1.463,15.555,6.285c1.515.558,0,0,.316,1.068A20.643,20.643,0,0,0,95.967,121.231Z"/>
        <path id="path288" class="cls-5" d="M94.947,122.076s6.785-2.741,12.193,4.831c2.3,3.214,11.707,28.926,21.225,47.464a8.63,8.63,0,0,1-1.461,9.92L102,210.223l-9.222-11.914,15.626-15.441a8.235,8.235,0,0,0,1.335-9.993L96.787,150.559l.891-4.043Z"/>
        <path id="path290" class="cls-6" d="M38.861,200.1c1.456,1.563,3.107,3.227,5.231,3.437,2.4.24,4.716-1.476,7.1-1.088a5.372,5.372,0,0,1,3.776,3.122,12.043,12.043,0,0,1,.929,4.97c.04,2.291-.748,5.231-3.031,5.432-.576.051-1.295-.038-1.6.454-.233.378-.051.873-.131,1.31-.243,1.316-2.255,1.088-3.337,1.875-.645.469-.972,1.34-1.708,1.645-1.2.5-2.389-.909-2.555-2.2s.169-2.671-.339-3.871c-.993-2.345-4.243-2.408-6.769-2.084a10.893,10.893,0,0,0-3.2-5.844Z"/>
        <path id="path292" class="cls-6" d="M94.6,200.1c-1.456,1.563-3.105,3.227-5.231,3.437-2.4.24-4.716-1.476-7.1-1.088a5.367,5.367,0,0,0-3.776,3.122,12.021,12.021,0,0,0-.931,4.97c-.04,2.291.748,5.231,3.031,5.432.576.051,1.293-.038,1.6.454.233.378.051.873.132,1.31.241,1.316,2.253,1.088,3.337,1.875.644.469.971,1.34,1.707,1.645,1.2.5,2.389-.909,2.553-2.2s-.168-2.671.34-3.871c.992-2.345,4.243-2.408,6.769-2.084a10.891,10.891,0,0,1,3.2-5.844Z"/>
        <path id="path294" class="cls-5" d="M38.109,122.076s-5.912-1.912-11.32,5.659C24.525,130.9,14.6,155.2,5.091,173.593a9.839,9.839,0,0,0,1.663,11.324l24.3,25.306,9.224-11.914L22.693,180.94a4.691,4.691,0,0,1-.759-5.693l14.335-24.688-1.276-8.467Z"/>
        <path id="path296" class="cls-7" d="M79.4,112.9a12.147,12.147,0,0,1-24.293,0,11.732,11.732,0,0,1,.292-2.628l3.775-2.39,15.089,1.33,5.116,2.964C79.391,112.415,79.4,112.664,79.4,112.9Z"/>
        <path id="path298" class="cls-6" d="M39.377,71.16S33.713,63.888,28.5,68.667s2.239,19.508,12.223,16.045Z"/>
        <path id="path300" class="cls-8" d="M39.887,76.3l.695,6.976C31.944,84.823,27.015,72.8,30.988,71.131,34.2,69.781,38.188,74,39.887,76.3Z"/>
        <path id="path302" class="cls-8" d="M29.6,73.62s.017-.055.043-.153.073-.244.131-.42a2.871,2.871,0,0,1,.775-1.2,1.608,1.608,0,0,1,.355-.224,1.948,1.948,0,0,1,.205-.083l.048-.017h0c-.037.015-.008,0-.015.007l.007,0,.02,0,.032-.009.137-.036a1.772,1.772,0,0,1,.245-.052,2.283,2.283,0,0,1,.243-.028,2.311,2.311,0,0,1,.252-.009,1.986,1.986,0,0,1,.267.008,5.6,5.6,0,0,1,2.173.711,11.153,11.153,0,0,1,1.052.637c.337.231.669.471.983.711.629.487,1.2.973,1.695,1.395l1.64,1.452s-.084-.205-.268-.547a12.8,12.8,0,0,0-.863-1.356c-.2-.267-.417-.557-.671-.845s-.531-.588-.836-.88a10.155,10.155,0,0,0-2.164-1.6,6.7,6.7,0,0,0-1.315-.536,4.649,4.649,0,0,0-1.416-.18,2.839,2.839,0,0,0-.351.028,2.24,2.24,0,0,0-.34.057,2.579,2.579,0,0,0-.336.092,2.046,2.046,0,0,0-.3.113l-.132.061-.081.037-.073.041a1.78,1.78,0,0,0-.272.175,2.389,2.389,0,0,0-.425.428,2.323,2.323,0,0,0-.424.9,2.891,2.891,0,0,0-.081.717,3.115,3.115,0,0,0,.035.455C29.589,73.567,29.6,73.62,29.6,73.62Z"/>
        <path id="path304" class="cls-6" d="M91.891,70.593s5.505-7.392,10.82-2.725-1.818,19.551-11.875,16.3Z"/>
        <path id="path306" class="cls-8" d="M91.492,75.74l-.544,6.988c8.667,1.367,13.336-10.761,9.328-12.344C97.037,69.107,93.139,73.408,91.492,75.74Z"/>
        <path id="path308" class="cls-8" d="M101.72,72.843l-.045-.151c-.03-.1-.078-.241-.142-.417a2.8,2.8,0,0,0-.8-1.189,1.611,1.611,0,0,0-.36-.216,2,2,0,0,0-.2-.075l-.054-.017h0c.04.013.008,0,.015,0h-.007l-.017,0-.034-.009-.138-.033a1.485,1.485,0,0,0-.247-.045,1.606,1.606,0,0,0-.243-.024c-.084-.005-.168-.007-.255,0a2.153,2.153,0,0,0-.261.015,5.557,5.557,0,0,0-2.161.755,11.845,11.845,0,0,0-1.037.663c-.332.239-.659.483-.968.732-.617.5-1.177,1-1.663,1.429L91.492,75.74s.081-.208.259-.552a11.244,11.244,0,0,1,.832-1.375c.192-.271.405-.565.652-.859s.515-.6.816-.9a10.226,10.226,0,0,1,2.127-1.643,6.8,6.8,0,0,1,1.307-.564,4.653,4.653,0,0,1,1.408-.211,3.088,3.088,0,0,1,.353.021,1.981,1.981,0,0,1,.341.051,2.114,2.114,0,0,1,.337.085,1.764,1.764,0,0,1,.3.108l.129.055.083.036.075.039a2.31,2.31,0,0,1,.278.171,2.542,2.542,0,0,1,.435.419,2.321,2.321,0,0,1,.44.891,2.789,2.789,0,0,1,.1.72,3.065,3.065,0,0,1-.024.453C101.728,72.788,101.72,72.843,101.72,72.843Z"/>
        <path id="path310" class="cls-6" d="M59.607,93.529l14.216-.155s.788,22.254.841,22.254c0,0-1,4.451-7.3,4.618s-7.913-4.455-7.913-4.455C59.5,115.668,59.607,93.529,59.607,93.529Z"/>
        <path id="path312" class="cls-8" d="M59.7,101.716l14.216-.156s.639,8.612.692,8.612c0,0-1,4.451-7.3,4.617s-7.913-4.454-7.913-4.454C59.44,110.212,59.7,101.716,59.7,101.716Z"/>
        <path id="path314" class="cls-8" d="M59.651,97.623l14.216-.155s.212,2.841.4,5.259c.031.35-4.049,1.012-4.492,1.086a25.313,25.313,0,0,1-10.3-.646C59.559,100.691,59.651,97.623,59.651,97.623Z"/>
        <path id="path316" class="cls-9" d="M35.776,64.894C35.967,82.62,47.855,97.305,66.829,97.1s30.98-18.177,32.245-35.863c1.762-24.649-13.963-28.547-32.939-28.343S35.583,47.161,35.776,64.894Z"/>
        <path id="path318" class="cls-6" d="M35.776,64.894c.236-9.88,4.384-19.252,14.1-23.191a41.207,41.207,0,0,1,15.7-2.553c5.245.029,10.837.309,15.788,2.156C90.233,44.618,89,49.2,90,58.214c.1.884,6.075,5.143,6.115,6.029.093,2.035.271,4.036.217,6.079A47.156,47.156,0,0,1,94.076,83.9a30.177,30.177,0,0,1-9.111,13.88,28.3,28.3,0,0,1-8.4,4.765,28.4,28.4,0,0,1-15.12,1.558,31.954,31.954,0,0,1-10.245-3.53A28.342,28.342,0,0,1,39.509,87.639a43.48,43.48,0,0,1-3.663-14.38,46.358,46.358,0,0,1-.091-8.151C35.763,65.036,35.773,64.965,35.776,64.894Z"/>
        <path id="path320" class="cls-8" d="M58.3,71.691a4.689,4.689,0,1,1-4.92-4.853A4.887,4.887,0,0,1,58.3,71.691Z"/>
        <path id="path326" class="cls-8" d="M86.484,72.467a4.688,4.688,0,1,1-4.92-4.852A4.885,4.885,0,0,1,86.484,72.467Z"/>
        <g id="RF-blink-animation">
          <g id="RF-blink">
            <path id="RF-right-blink" class="cls-9" d="M86.424,71.28a4.688,4.688,0,1,1-4.92-4.851A4.882,4.882,0,0,1,86.424,71.28Z"/>
            <path id="RF-left-blink" class="cls-9" d="M58.656,69.847a4.689,4.689,0,1,1-4.92-4.852A4.883,4.883,0,0,1,58.656,69.847Z"/>
            <g id="RF-eyes">
              <path id="RF-right-eye" class="cls-10" d="M84.753,69.984a1.874,1.874,0,1,1-1.963-1.749A1.853,1.853,0,0,1,84.753,69.984Z"/>
              <path id="RF-left-eye" class="cls-10" d="M56.985,68.551A1.875,1.875,0,1,1,55.021,66.8,1.855,1.855,0,0,1,56.985,68.551Z"/>
            </g>
          </g>
        </g>
        <path id="path332" class="cls-11" d="M69.808,68.949s-2.164,5.824.781,6.033c5.7.412,2.783,12.119-4.369,5.7-2.7-2.423.868-12.324.868-12.324Z"/>
        <path id="path334" class="cls-11" d="M73.872,86.951s-11.111,2.9-17.055-3.081c0,0-3.415,12.484,8.837,12.936C73.393,97.09,73.872,86.951,73.872,86.951Z"/>
        <path id="path338" class="cls-10" d="M73.872,86.951s-.006.088-.017.243c-1.078.326-2.894,2.9-5.639,3.048a12.773,12.773,0,0,1-5.1-.817,13.622,13.622,0,0,1-2.943-1.308,7.022,7.022,0,0,1-1.64-2.844C64.668,89.349,73.871,86.951,73.872,86.951Z"/>
        <path id="path340" class="cls-12" d="M57.2,85.049c-.287,1.776-.571,5.479,1.4,8.1,1.428,1.9,3.808,2.926,7.075,3.046,5.9.218,7.22-6.168,7.506-8.471C70.552,88.258,62.484,89.419,57.2,85.049Zm8.426,12.36c-3.664-.133-6.363-1.328-8.024-3.541-3.011-4.022-1.452-9.907-1.384-10.154a.621.621,0,0,1,1.036-.269c5.62,5.655,16.352,2.948,16.46,2.924a.614.614,0,0,1,.544.113.59.59,0,0,1,.224.5c0,.1-.541,9.675-7.648,10.4A8.847,8.847,0,0,1,65.629,97.41Z"/>
        <path id="path342" class="cls-9" d="M90.13,65.808a3.787,3.787,0,0,0-.377-.477,5.664,5.664,0,0,0-.5-.492,7.19,7.19,0,0,0-.712-.566,9.186,9.186,0,0,0-.917-.569,8.923,8.923,0,0,0-1.1-.511,9.392,9.392,0,0,0-1.232-.409c-.428-.127-.875-.184-1.316-.277-.447-.048-.9-.093-1.338-.115-.439,0-.877.007-1.291.027-.418.044-.82.1-1.2.156s-.727.167-1.048.247a6.936,6.936,0,0,0-.864.277c-.25.1-.467.2-.645.274-.35.155-.545.263-.545.263s.228.021.61.029c.193.005.422.013.687.008s.552.009.874.018.657,0,1.016.02.733.041,1.121.05c.386.033.78.074,1.186.1.4.049.8.1,1.207.148.2.033.4.069.6.1s.4.056.6.1.392.082.585.12.378.1.567.135c.375.082.73.189,1.075.282.173.042.332.108.492.152s.32.094.465.15c.3.1.571.194.811.285s.454.175.636.241c.167.077.313.126.4.171Z"/>
        <path id="path344" class="cls-9" d="M46.49,64.673a3.714,3.714,0,0,1,.358-.492,6.813,6.813,0,0,1,.476-.512,8.621,8.621,0,0,1,.69-.592,9.186,9.186,0,0,1,.9-.6,9.394,9.394,0,0,1,1.079-.55,9.254,9.254,0,0,1,1.215-.457c.422-.143.867-.217,1.305-.324.445-.067.889-.13,1.33-.167.441-.02.878-.028,1.3-.022.418.028.821.068,1.2.109s.73.139,1.056.207a6.511,6.511,0,0,1,.871.243c.256.09.476.179.654.25.361.143.557.242.557.242s-.226.032-.607.054c-.192.012-.423.028-.684.034s-.554.029-.873.05-.657.023-1.018.058-.728.07-1.116.092c-.384.05-.78.1-1.181.141-.4.063-.8.128-1.2.194-.2.039-.4.081-.6.122s-.4.07-.593.129-.386.1-.578.14-.376.108-.56.156c-.374.1-.723.217-1.064.325-.173.045-.328.117-.488.168s-.316.106-.459.166c-.291.113-.564.214-.8.316s-.447.193-.62.267-.311.138-.4.186S46.49,64.673,46.49,64.673Z"/>
        <path id="path346" class="cls-8" d="M35.268,65.215a71.833,71.833,0,0,1-.549-8.751C34.805,61.491,35.268,65.215,35.268,65.215Z"/>
        <path id="path348" class="cls-9" d="M36.145,78.747s-.087-1.185-.332-3.28l-.072.091Z"/>
        <path id="path352" class="cls-7" d="M38.689,198.012a24.79,24.79,0,0,0-8.021,10.951c-.611,1.6,1.968,2.3,2.572.708a22.337,22.337,0,0,1,7.336-9.774C41.931,198.848,40.031,196.973,38.689,198.012Z"/>
        <path id="path354" class="cls-7" d="M103.493,208.54q-4.891-5.784-9.785-11.567c-1.109-1.312-2.988.583-1.885,1.887q4.892,5.782,9.785,11.565C102.717,211.737,104.6,209.843,103.493,208.54Z"/>
        <path id="path356" class="cls-9" d="M33.577,176.824a5.02,5.02,0,0,1-3-4.583V120.792a5,5,0,1,1,10.005,0l-4,51.449C36.581,174.993,34.192,177.093,33.577,176.824Z"/>
        <path id="path358" class="cls-9" d="M100.344,176.468a5.011,5.011,0,0,1-2.335-4.226l-5.333-51.45a5,5,0,1,1,10,0v51.45C102.68,174.994,101.117,176.959,100.344,176.468Z"/>
      </g>
    </g>
  </g>
</svg>
