<svg width="1334" height="667" viewBox="0 0 1334 667" fill="none" xmlns="http://www.w3.org/2000/svg">
<g id="7101629_1051 2">
<g id="g8">
<g id="g10">
<path id="path108" d="M41.4417 428.08C42.6354 426.496 43.4193 424.716 43.601 422.792C42.1984 424.383 41.5385 426.201 41.4417 428.08Z" fill="#61C6B4"/>
<path id="path116" d="M1315.27 428.08C1314.17 426.496 1313.45 424.716 1313.28 422.792C1314.57 424.383 1315.18 426.201 1315.27 428.08Z" fill="#61C6B4"/>
<path id="path492" d="M358.416 422.148H352.811V450.864H564.267L561.275 422.148H358.416Z" fill="#CC8D8C"/>
<path id="path494" d="M555.32 422.148H358.416L343.892 164.068H555.32V422.148Z" fill="#DF4E2B"/>
<path id="path496" d="M388.292 374.075H377.869L377.176 368.273L388.748 368.469L388.292 374.075Z" fill="#F15934"/>
<path id="path498" d="M376.691 365.631H366.895L366.243 360.179L377.119 360.362L376.691 365.631Z" fill="#F15934"/>
<path id="path500" d="M365.159 345.668H354.447L353.733 339.705L365.628 339.907L365.159 345.668Z" fill="#F15934"/>
<path id="path502" d="M364.052 328.252H354.644L354.017 323.016L364.463 323.192L364.052 328.252Z" fill="#F15934"/>
<path id="path504" d="M421.501 297.14H410.728L410.011 291.144L421.973 291.345L421.501 297.14Z" fill="#F15934"/>
<path id="path506" d="M430.94 279.613H421.463L420.832 274.339L431.355 274.516L430.94 279.613Z" fill="#F15934"/>
<path id="path508" d="M425.259 257.851H414.812L414.116 252.036L425.716 252.231L425.259 257.851Z" fill="#F15934"/>
<path id="path510" d="M416.836 250.099H407.181L406.539 244.724L417.259 244.905L416.836 250.099Z" fill="#F15934"/>
<path id="path512" d="M400.381 241.844H390.141L389.46 236.144L400.829 236.336L400.381 241.844Z" fill="#F15934"/>
<path id="path514" d="M420.893 270.156H411.372L410.739 264.856L421.311 265.034L420.893 270.156Z" fill="#F15934"/>
<path id="path516" d="M504.913 358.059H494.693L494.012 352.369L505.361 352.561L504.913 358.059Z" fill="#F15934"/>
<path id="path518" d="M495.765 351.159H485.103L484.392 345.224L496.232 345.423L495.765 351.159Z" fill="#F15934"/>
<path id="path520" d="M493.991 334.975H483.715L483.029 329.256L494.441 329.448L493.991 334.975Z" fill="#F15934"/>
<path id="path522" d="M491.868 321.104H481.832L481.164 315.517L492.307 315.705L491.868 321.104Z" fill="#F15934"/>
<path id="path524" d="M481.481 315.256H470.932L470.229 309.384L481.943 309.581L481.481 315.256Z" fill="#F15934"/>
<path id="path526" d="M462.192 314.92H451.52L450.809 308.98L462.659 309.18L462.192 314.92Z" fill="#F15934"/>
<path id="path528" d="M493.62 383.892H483.239L482.548 378.113L494.075 378.307L493.62 383.892Z" fill="#F15934"/>
<path id="path530" d="M474.796 374.215H464.151L463.443 368.291L475.261 368.489L474.796 374.215Z" fill="#F15934"/>
<path id="path532" d="M374.752 402.317H364.284L363.587 396.491L375.209 396.687L374.752 402.317Z" fill="#F15934"/>
<path id="path534" d="M387.887 414.79H377.591L376.905 409.059L388.336 409.251L387.887 414.79Z" fill="#F15934"/>
<path id="path536" d="M391.756 393.487H382.056L381.411 388.088L392.181 388.269L391.756 393.487Z" fill="#F15934"/>
<path id="path538" d="M521.196 327.46H510.681L509.981 321.608L521.656 321.804L521.196 327.46Z" fill="#F15934"/>
<path id="path540" d="M522.037 314.276H512.356L511.711 308.887L522.461 309.068L522.037 314.276Z" fill="#F15934"/>
<path id="path542" d="M511.156 299.998H500.804L500.113 294.235L511.609 294.428L511.156 299.998Z" fill="#F15934"/>
<path id="path544" d="M512.137 278.667H501.875L501.192 272.955L512.585 273.147L512.137 278.667Z" fill="#F15934"/>
<path id="path546" d="M505.245 301.202H495.071L494.393 295.539L505.691 295.73L505.245 301.202Z" fill="#F15934"/>
<path id="path548" d="M502.977 290.671H492.605L491.915 284.896L503.432 285.091L502.977 290.671Z" fill="#F15934"/>
<path id="path550" d="M485.748 273.514H475.313L474.619 267.707L486.204 267.902L485.748 273.514Z" fill="#F15934"/>
<path id="path552" d="M474.489 204.595H464.211L463.525 198.873L474.939 199.067L474.489 204.595Z" fill="#F15934"/>
<path id="path554" d="M455.499 198.283H446.001L445.369 192.997L455.913 193.173L455.499 198.283Z" fill="#F15934"/>
<path id="path556" d="M457.435 183.005H447.08L446.391 177.243L457.888 177.436L457.435 183.005Z" fill="#F15934"/>
<path id="path558" d="M440.895 180.792H430.204L429.493 174.841L441.363 175.041L440.895 180.792Z" fill="#F15934"/>
<path id="path560" d="M520.316 186.66H509.937L509.245 180.884L520.771 181.078L520.316 186.66Z" fill="#F15934"/>
<path id="path562" d="M504.423 200.344H494.964L494.333 195.08L504.836 195.256L504.423 200.344Z" fill="#F15934"/>
<path id="path564" d="M493.763 199.488H483.845L483.184 193.97L494.196 194.155L493.763 199.488Z" fill="#F15934"/>
<path id="path566" d="M474.407 187.644H464.891L464.257 182.348L474.823 182.525L474.407 187.644Z" fill="#F15934"/>
<path id="path568" d="M367.489 225.247H357.46L356.792 219.665L367.928 219.852L367.489 225.247Z" fill="#F15934"/>
<path id="path570" d="M372.259 205.31H362.381L361.723 199.812L372.692 199.996L372.259 205.31Z" fill="#F15934"/>
<path id="path572" d="M359.257 193.36H349.16L348.488 187.74L359.699 187.929L359.257 193.36Z" fill="#F15934"/>
<path id="path574" d="M403.201 195.731H392.948L392.265 190.024L403.651 190.215L403.201 195.731Z" fill="#F15934"/>
<path id="path576" d="M382.768 184.32H372L371.284 178.326L383.239 178.528L382.768 184.32Z" fill="#F15934"/>
<path id="path578" d="M436.879 318.811H427.075L426.423 313.355L437.307 313.537L436.879 318.811Z" fill="#F15934"/>
<path id="path580" d="M424.819 313.144H414.649L413.972 307.484L425.263 307.673L424.819 313.144Z" fill="#F15934"/>
<path id="path582" d="M406.415 306.315H396.801L396.161 300.966L406.835 301.144L406.415 306.315Z" fill="#F15934"/>
<path id="path584" d="M413.815 291.927H403.205L402.5 286.021L414.279 286.22L413.815 291.927Z" fill="#F15934"/>
<path id="path586" d="M396.616 279.651H386.556L385.888 274.052L397.056 274.24L396.616 279.651Z" fill="#F15934"/>
<path id="path588" d="M502.473 413.801H493.117L492.496 408.593L502.883 408.768L502.473 413.801Z" fill="#F15934"/>
<path id="path590" d="M496.344 418.859H485.56L484.841 412.856L496.816 413.058L496.344 418.859Z" fill="#F15934"/>
<path id="path592" d="M482.924 405.275H473.312L472.672 399.924L483.345 400.104L482.924 405.275Z" fill="#F15934"/>
<path id="path594" d="M458.388 415.941H449.057L448.437 410.749L458.796 410.923L458.388 415.941Z" fill="#F15934"/>
<path id="path596" d="M441.756 417.2H431.047L430.333 411.24L442.224 411.44L441.756 417.2Z" fill="#F15934"/>
<path id="path598" d="M416.368 396.229H375.748L370.039 314.151H414.069L416.368 396.229Z" fill="#FFECBF"/>
<path id="path600" d="M379.781 392.847L374.543 317.533H409.895L412.004 392.847H379.781Z" fill="#EDB17D"/>
<path id="path602" d="M381.395 391.494L376.344 318.887H408.225L410.259 391.494H381.395Z" fill="#0A7E89"/>
<path id="path604" d="M380.773 325.695L386.771 389.036H404.644L404.36 327.796L380.773 325.695Z" fill="#089DAC"/>
<path id="path606" d="M395.036 392.292L391.417 318.116L392.872 318.068L396.491 392.245L395.036 392.292Z" fill="#FACF90"/>
<path id="path608" d="M410.284 347.365H377.704V346.175H410.284V347.365Z" fill="#FACF90"/>
<path id="path610" d="M411.504 372.357H378.924V371.165H411.504V372.357Z" fill="#FACF90"/>
<path id="path612" d="M477.041 396.229H436.42L430.711 314.151H474.743L477.041 396.229Z" fill="#FFECBF"/>
<path id="path614" d="M440.453 392.847L435.215 317.533H470.568L472.677 392.847H440.453Z" fill="#EDB17D"/>
<path id="path616" d="M442.068 391.494L437.017 318.887H468.897L470.931 391.494H442.068Z" fill="#0A7E89"/>
<path id="path618" d="M441.445 325.695L447.443 389.036H465.317L465.032 327.796L441.445 325.695Z" fill="#089DAC"/>
<path id="path620" d="M455.709 392.292L452.091 318.116L453.544 318.068L457.163 392.245L455.709 392.292Z" fill="#FACF90"/>
<path id="path622" d="M470.957 347.365H438.377V346.175H470.957V347.365Z" fill="#FACF90"/>
<path id="path624" d="M472.176 372.357H439.596V371.165H472.176V372.357Z" fill="#FACF90"/>
<path id="path626" d="M537.713 396.229H497.093L491.383 314.151H535.415L537.713 396.229Z" fill="#FFECBF"/>
<path id="path628" d="M501.127 392.847L495.887 317.533H531.24L533.349 392.847H501.127Z" fill="#EDB17D"/>
<path id="path630" d="M502.74 391.494L497.689 318.887H529.571L531.604 391.494H502.74Z" fill="#0A7E89"/>
<path id="path632" d="M502.119 325.695L508.115 389.036H525.989L525.704 327.796L502.119 325.695Z" fill="#089DAC"/>
<path id="path634" d="M516.381 392.292L512.763 318.116L514.216 318.068L517.835 392.245L516.381 392.292Z" fill="#FACF90"/>
<path id="path636" d="M499.049 347.365H531.629V346.175H499.049V347.365Z" fill="#FACF90"/>
<path id="path638" d="M500.269 372.357H532.85V371.165H500.269V372.357Z" fill="#FACF90"/>
<path id="path640" d="M410.864 286.972H368.401L362.433 204.892H408.461L410.864 286.972Z" fill="#FFECBF"/>
<path id="path642" d="M372.619 283.588L367.141 208.276H404.099L406.303 283.588H372.619Z" fill="#EDB17D"/>
<path id="path644" d="M374.305 282.236L369.025 209.63H402.352L404.477 282.236H374.305Z" fill="#0A7E89"/>
<path id="path646" d="M373.656 216.436L379.924 279.779H398.609L398.311 218.539L373.656 216.436Z" fill="#089DAC"/>
<path id="path648" d="M388.565 283.033L384.783 208.86L386.303 208.811L390.085 282.987L388.565 283.033Z" fill="#FACF90"/>
<path id="path650" d="M404.504 238.108H370.447V236.917H404.504V238.108Z" fill="#FACF90"/>
<path id="path652" d="M405.779 263.1H371.723V261.908H405.779V263.1Z" fill="#FACF90"/>
<path id="path654" d="M474.289 286.972H431.827L425.857 204.892H471.887L474.289 286.972Z" fill="#FFECBF"/>
<path id="path656" d="M436.043 283.588L430.565 208.276H467.523L469.727 283.588H436.043Z" fill="#EDB17D"/>
<path id="path658" d="M437.729 282.236L432.449 209.63H465.777L467.903 282.236H437.729Z" fill="#0A7E89"/>
<path id="path660" d="M437.08 216.436L443.348 279.779H462.033L461.735 218.539L437.08 216.436Z" fill="#089DAC"/>
<path id="path662" d="M451.989 283.033L448.207 208.86L449.727 208.811L453.509 282.987L451.989 283.033Z" fill="#FACF90"/>
<path id="path664" d="M467.929 238.108H433.872V236.917H467.929V238.108Z" fill="#FACF90"/>
<path id="path666" d="M469.204 263.1H435.147V261.908H469.204V263.1Z" fill="#FACF90"/>
<path id="path668" d="M537.713 286.972H495.251L489.281 204.893H535.311L537.713 286.972Z" fill="#FFECBF"/>
<path id="path670" d="M499.467 283.588L493.991 208.276H530.947L533.152 283.588H499.467Z" fill="#EDB17D"/>
<path id="path672" d="M501.155 282.236L495.873 209.63H529.201L531.327 282.236H501.155Z" fill="#0A7E89"/>
<path id="path674" d="M500.504 216.436L506.773 279.779H525.457L525.16 218.539L500.504 216.436Z" fill="#089DAC"/>
<path id="path676" d="M515.415 283.033L511.632 208.86L513.151 208.811L516.933 282.987L515.415 283.033Z" fill="#FACF90"/>
<path id="path678" d="M497.296 238.108H531.353V236.916H497.296V238.108Z" fill="#FACF90"/>
<path id="path680" d="M498.571 263.1H532.628V261.908H498.571V263.1Z" fill="#FACF90"/>
<path id="path682" d="M332.735 169.939L335.964 178.513H548.276V168.46L332.735 169.939Z" fill="#EDB17D"/>
<path id="path684" d="M324.568 157.443L329.628 170.735H548.276V159.612L324.568 157.443Z" fill="#FFECBF"/>
<path id="path686" d="M342.819 178.514L344.883 191.474H350.219L350.653 178.514H342.819Z" fill="#FFECBF"/>
<path id="path688" d="M359.613 178.514L361.677 191.474H367.013L367.448 178.514H359.613Z" fill="#FFECBF"/>
<path id="path690" d="M376.408 178.514L378.472 191.474H383.808L384.243 178.514H376.408Z" fill="#FFECBF"/>
<path id="path692" d="M393.203 178.514L395.267 191.474H400.603L401.037 178.514H393.203Z" fill="#FFECBF"/>
<path id="path694" d="M409.997 178.514L412.061 191.474H417.397L417.832 178.514H409.997Z" fill="#FFECBF"/>
<path id="path696" d="M426.793 178.514L428.857 191.474H434.192L434.628 178.514H426.793Z" fill="#FFECBF"/>
<path id="path698" d="M443.588 178.514L445.652 191.474H450.988L451.423 178.514H443.588Z" fill="#FFECBF"/>
<path id="path700" d="M460.383 178.514L462.447 191.474H467.783L468.217 178.514H460.383Z" fill="#FFECBF"/>
<path id="path702" d="M477.177 178.514L479.241 191.474H484.577L485.012 178.514H477.177Z" fill="#FFECBF"/>
<path id="path704" d="M493.972 178.514L496.036 191.474H501.372L501.807 178.514H493.972Z" fill="#FFECBF"/>
<path id="path706" d="M510.768 178.514L512.831 191.474H518.167L518.603 178.514H510.768Z" fill="#FFECBF"/>
<path id="path708" d="M527.563 178.514L529.627 191.474H534.963L535.397 178.514H527.563Z" fill="#FFECBF"/>
<path id="path710" d="M545.736 450.864H532.177L530.711 422.148H544.177L545.736 450.864Z" fill="#973E48"/>
<path id="path712" d="M544.177 422.148H530.711L529.388 396.229H537.713L535.415 314.151H525.197L523.809 286.972H537.713L535.311 204.893H519.619L518.687 186.66H520.316L520.771 181.077L518.517 181.039L518.603 178.513H522.267H542.252L550.932 414.66H543.772L544.177 422.148ZM527.563 178.513L529.627 191.473H534.963L535.397 178.513H527.563Z" fill="#A52316"/>
<path id="path714" d="M520.316 186.66H518.687L518.603 184.993L518.385 184.991L518.517 181.039L520.771 181.078L520.316 186.66Z" fill="#B3271B"/>
<path id="path716" d="M537.713 396.229H529.388L529.215 392.847H533.349L532.776 372.357H532.849V371.165H532.743L531.24 317.534H525.369L525.197 314.151H535.415L537.713 396.229Z" fill="#BD6963"/>
<path id="path718" d="M533.349 392.847H529.215L529.145 391.493H531.604L531.068 372.357H532.776L533.349 392.847ZM532.743 371.165H531.035L530.368 347.365H531.629V346.175H530.335L529.571 318.887H525.439L525.369 317.533H531.24L532.743 371.165Z" fill="#B04E41"/>
<path id="path720" d="M531.604 391.494H529.145L528.169 372.358H531.068L531.604 391.494ZM531.035 371.166H528.108L526.893 347.366H530.368L531.035 371.166ZM530.335 346.175H526.832L525.439 318.887H529.571L530.335 346.175Z" fill="#073847"/>
<path id="path722" d="M531.629 347.365H526.893L526.832 346.175H531.629V347.365Z" fill="#B95C4B"/>
<path id="path724" d="M532.849 372.357H528.169L528.108 371.165H532.849V372.357Z" fill="#B95C4B"/>
<path id="path726" d="M537.713 286.972H523.809L523.636 283.588H533.152L532.552 263.1H532.628V261.908H532.517L530.947 208.276H519.791L519.619 204.893H535.311L537.713 286.972Z" fill="#BD6963"/>
<path id="path728" d="M533.152 283.588H523.636L523.567 282.236H531.327L530.765 263.1H532.552L533.152 283.588ZM532.517 261.908H530.731L530.035 238.108H531.353V236.916H530L529.201 209.629H519.86L519.791 208.276H530.947L532.517 261.908Z" fill="#B04E41"/>
<path id="path730" d="M531.327 282.236H523.567L523.441 279.779H525.457L525.376 263.1H530.765L531.327 282.236ZM530.731 261.908H525.371L525.255 238.108H530.035L530.731 261.908ZM530 236.916H525.249L525.16 218.539L520.293 218.124L519.86 209.63H529.201L530 236.916Z" fill="#073847"/>
<path id="path732" d="M525.457 279.779H523.441L522.591 263.1H525.376L525.457 279.779ZM525.371 261.908H522.529L521.315 238.108H525.255L525.371 261.908ZM525.249 236.916H521.253L520.293 218.124L525.16 218.539L525.249 236.916Z" fill="#064659"/>
<path id="path734" d="M531.353 238.108H521.315L521.253 236.916H531.353V238.108Z" fill="#B95C4B"/>
<path id="path736" d="M532.628 263.1H522.591L522.529 261.908H532.628V263.1Z" fill="#B95C4B"/>
<path id="path738" d="M542.252 178.513H522.267L521.028 170.735H541.967L542.252 178.513Z" fill="#B04E41"/>
<path id="path740" d="M541.967 170.735H527.563L525.92 159.395L541.555 159.547L541.967 170.735Z" fill="#BD6963"/>
<path id="path742" d="M509.724 184.875L501.597 184.765L501.807 178.513H510.768L511.151 180.916L509.245 180.884L509.724 184.875Z" fill="#A52316"/>
<path id="path744" d="M511.785 184.903L509.724 184.875L509.245 180.884L511.151 180.916L511.785 184.903Z" fill="#B3271B"/>
<path id="path746" d="M494.953 184.676L484.811 184.54L485.012 178.514H493.972L494.953 184.676ZM478.123 184.45L474.669 184.404L474.823 182.526L468.087 182.412L468.217 178.514H477.177L478.123 184.45Z" fill="#A52316"/>
<path id="path748" d="M474.669 184.404L468.023 184.315L468.087 182.412L474.823 182.526L474.669 184.404Z" fill="#B3271B"/>
<path id="path750" d="M461.292 184.224L451.235 184.089L451.272 183.005H457.435L457.8 178.513H460.383L461.292 184.224Z" fill="#A52316"/>
<path id="path752" d="M457.435 183.005H451.272L451.423 178.513H457.8L457.435 183.005Z" fill="#B3271B"/>
<path id="path754" d="M444.461 183.998L434.448 183.863L434.551 180.792H440.895L441.08 178.514H443.588L444.461 183.998Z" fill="#A52316"/>
<path id="path756" d="M440.895 180.792H434.551L434.628 178.513H441.08L440.895 180.792Z" fill="#B3271B"/>
<path id="path758" d="M427.631 183.772L417.661 183.637L417.832 178.513H426.793L427.631 183.772ZM410.8 183.545L400.873 183.412L401.037 178.513H409.997L410.8 183.545ZM393.968 183.32L384.085 183.187L384.243 178.513H393.203L393.968 183.32ZM371.845 183.023L367.299 182.961L367.448 178.513H371.307L371.845 183.023Z" fill="#A52316"/>
<path id="path760" d="M377.137 183.093L371.845 183.023L371.307 178.513H376.408L377.137 183.093Z" fill="#B3271B"/>
<path id="path762" d="M360.307 182.868L350.512 182.736L350.653 178.514H359.613L360.307 182.868Z" fill="#A52316"/>
<path id="path764" d="M350.512 182.736L343.476 182.641L342.819 178.513H350.653L350.512 182.736Z" fill="#BD6963"/>
<path id="path766" d="M367.299 182.961L360.307 182.868L359.613 178.513H367.448L367.299 182.961Z" fill="#BD6963"/>
<path id="path768" d="M384.085 183.187L377.137 183.093L376.408 178.513H384.243L384.085 183.187Z" fill="#BD6963"/>
<path id="path770" d="M400.873 183.412L393.968 183.32L393.203 178.513H401.037L400.873 183.412Z" fill="#BD6963"/>
<path id="path772" d="M417.661 183.637L410.8 183.545L409.997 178.513H417.832L417.661 183.637Z" fill="#BD6963"/>
<path id="path774" d="M434.448 183.863L427.631 183.772L426.793 178.513H434.628L434.551 180.792L434.448 183.863Z" fill="#BD6963"/>
<path id="path776" d="M451.235 184.089L444.461 183.997L443.588 178.513H451.423L451.272 183.005L451.235 184.089Z" fill="#BD6963"/>
<path id="path778" d="M468.023 184.315L461.292 184.224L460.383 178.514H468.217L468.087 182.412L468.023 184.315Z" fill="#BD6963"/>
<path id="path780" d="M484.811 184.54L478.123 184.449L477.177 178.513H485.012L484.811 184.54Z" fill="#BD6963"/>
<path id="path782" d="M501.597 184.766L494.953 184.676L493.972 178.514H501.807L501.597 184.766Z" fill="#BD6963"/>
<path id="path784" d="M518.385 184.991L511.785 184.903L511.151 180.916L510.768 178.513H518.603L518.517 181.039L518.385 184.991Z" fill="#BD6963"/>
<path id="path786" d="M534.963 191.474H529.627L527.563 178.514H535.397L534.963 191.474Z" fill="#BD6963"/>
<path id="path788" d="M384.884 438.744H376.847L376.311 434.269L385.236 434.42L384.884 438.744Z" fill="#C78483"/>
<path id="path790" d="M393.752 433.759H386.129L385.623 429.517L394.085 429.659L393.752 433.759Z" fill="#C78483"/>
<path id="path792" d="M396.608 447.119H388.985L388.477 442.876L396.941 443.02L396.608 447.119Z" fill="#C78483"/>
<path id="path794" d="M380.001 434.806H372.237L371.72 430.484L380.341 430.63L380.001 434.806Z" fill="#C78483"/>
<path id="path796" d="M367.393 435.405H360.077L359.589 431.332L367.713 431.469L367.393 435.405Z" fill="#C78483"/>
<path id="path798" d="M470.252 436.028H462.561L462.049 431.75L470.588 431.892L470.252 436.028Z" fill="#C78483"/>
<path id="path800" d="M450.08 434.619H442.651L442.157 430.484L450.404 430.624L450.08 434.619Z" fill="#C78483"/>
<path id="path802" d="M454.377 438.713H446.609L446.092 434.389L454.717 434.535L454.377 438.713Z" fill="#C78483"/>
<path id="path804" d="M431.004 445.981H423.461L422.959 441.784L431.335 441.924L431.004 445.981Z" fill="#C78483"/>
<path id="path806" d="M517.112 432.213H509.893L509.413 428.195L517.429 428.329L517.112 432.213Z" fill="#C78483"/>
<path id="path808" d="M506.509 435.835H498.964L498.461 431.635L506.839 431.775L506.509 435.835Z" fill="#C78483"/>
<path id="path810" d="M522.667 443.883H515.121L514.619 439.684L522.996 439.824L522.667 443.883Z" fill="#C78483"/>
<path id="path812" d="M528.604 440.844H521.057L520.556 436.643L528.933 436.786L528.604 440.844Z" fill="#C78483"/>
<path id="path814" d="M461.775 446.144H454.213L453.711 441.936L462.105 442.079L461.775 446.144Z" fill="#C78483"/>
<path id="path816" d="M464.889 427.965H457.095L456.576 423.627L465.229 423.772L464.889 427.965Z" fill="#C78483"/>
<path id="path818" d="M1024.51 422.148H1030.11V450.864H818.659L821.651 422.148H1024.51Z" fill="#CC8D8C"/>
<path id="path820" d="M827.604 422.148H1024.51L1039.03 164.068H827.604V422.148Z" fill="#DF4E2B"/>
<path id="path822" d="M994.633 374.075H1005.05L1005.75 368.273L994.177 368.469L994.633 374.075Z" fill="#F15934"/>
<path id="path824" d="M1006.23 365.631H1016.03L1016.68 360.179L1005.81 360.362L1006.23 365.631Z" fill="#F15934"/>
<path id="path826" d="M1017.77 345.668H1028.48L1029.19 339.705L1017.3 339.907L1017.77 345.668Z" fill="#F15934"/>
<path id="path828" d="M1018.87 328.252H1028.28L1028.91 323.016L1018.46 323.192L1018.87 328.252Z" fill="#F15934"/>
<path id="path830" d="M961.421 297.14H972.196L972.915 291.144L960.951 291.345L961.421 297.14Z" fill="#F15934"/>
<path id="path832" d="M951.984 279.613H961.463L962.093 274.339L951.571 274.516L951.984 279.613Z" fill="#F15934"/>
<path id="path834" d="M957.665 257.851H968.113L968.808 252.036L957.208 252.231L957.665 257.851Z" fill="#F15934"/>
<path id="path836" d="M966.088 250.099H975.744L976.387 244.724L965.667 244.905L966.088 250.099Z" fill="#F15934"/>
<path id="path838" d="M982.544 241.844H992.784L993.465 236.144L982.096 236.336L982.544 241.844Z" fill="#F15934"/>
<path id="path840" d="M962.031 270.156H971.552L972.187 264.856L961.615 265.034L962.031 270.156Z" fill="#F15934"/>
<path id="path842" d="M878.012 358.059H888.232L888.913 352.369L877.564 352.561L878.012 358.059Z" fill="#F15934"/>
<path id="path844" d="M887.159 351.159H897.823L898.532 345.224L886.693 345.423L887.159 351.159Z" fill="#F15934"/>
<path id="path846" d="M888.933 334.975H899.209L899.895 329.256L888.484 329.448L888.933 334.975Z" fill="#F15934"/>
<path id="path848" d="M891.056 321.104H901.092L901.76 315.517L890.617 315.705L891.056 321.104Z" fill="#F15934"/>
<path id="path850" d="M901.444 315.256H911.993L912.695 309.384L900.981 309.581L901.444 315.256Z" fill="#F15934"/>
<path id="path852" d="M920.733 314.92H931.405L932.116 308.98L920.265 309.18L920.733 314.92Z" fill="#F15934"/>
<path id="path854" d="M889.305 383.892H899.687L900.376 378.113L888.851 378.307L889.305 383.892Z" fill="#F15934"/>
<path id="path856" d="M908.129 374.215H918.773L919.481 368.291L907.664 368.489L908.129 374.215Z" fill="#F15934"/>
<path id="path858" d="M1008.17 402.317H1018.64L1019.34 396.491L1007.71 396.687L1008.17 402.317Z" fill="#F15934"/>
<path id="path860" d="M995.039 414.79H1005.33L1006.02 409.059L994.588 409.251L995.039 414.79Z" fill="#F15934"/>
<path id="path862" d="M991.168 393.487H1000.87L1001.51 388.088L990.744 388.269L991.168 393.487Z" fill="#F15934"/>
<path id="path864" d="M861.729 327.46H872.244L872.944 321.608L861.269 321.804L861.729 327.46Z" fill="#F15934"/>
<path id="path866" d="M860.887 314.276H870.569L871.213 308.887L860.464 309.068L860.887 314.276Z" fill="#F15934"/>
<path id="path868" d="M871.768 299.998H882.121L882.811 294.235L871.315 294.428L871.768 299.998Z" fill="#F15934"/>
<path id="path870" d="M870.788 278.667H881.051L881.733 272.955L870.34 273.147L870.788 278.667Z" fill="#F15934"/>
<path id="path872" d="M877.68 301.202H887.855L888.531 295.539L877.235 295.73L877.68 301.202Z" fill="#F15934"/>
<path id="path874" d="M879.947 290.671H890.32L891.011 284.896L879.493 285.091L879.947 290.671Z" fill="#F15934"/>
<path id="path876" d="M897.177 273.514H907.611L908.305 267.707L896.721 267.902L897.177 273.514Z" fill="#F15934"/>
<path id="path878" d="M908.436 204.595H918.715L919.4 198.873L907.985 199.067L908.436 204.595Z" fill="#F15934"/>
<path id="path880" d="M927.427 198.283H936.923L937.556 192.997L927.011 193.173L927.427 198.283Z" fill="#F15934"/>
<path id="path882" d="M925.491 183.005H935.845L936.533 177.243L925.037 177.436L925.491 183.005Z" fill="#F15934"/>
<path id="path884" d="M942.029 180.792H952.72L953.432 174.841L941.563 175.041L942.029 180.792Z" fill="#F15934"/>
<path id="path886" d="M862.609 186.66H872.987L873.679 180.884L862.155 181.078L862.609 186.66Z" fill="#F15934"/>
<path id="path888" d="M878.503 200.344H887.961L888.591 195.08L878.088 195.256L878.503 200.344Z" fill="#F15934"/>
<path id="path890" d="M889.163 199.488H899.08L899.74 193.97L888.729 194.155L889.163 199.488Z" fill="#F15934"/>
<path id="path892" d="M908.519 187.644H918.033L918.668 182.348L908.101 182.525L908.519 187.644Z" fill="#F15934"/>
<path id="path894" d="M1015.44 225.247H1025.47L1026.13 219.665L1015 219.852L1015.44 225.247Z" fill="#F15934"/>
<path id="path896" d="M1010.67 205.31H1020.54L1021.2 199.812L1010.23 199.996L1010.67 205.31Z" fill="#F15934"/>
<path id="path898" d="M1023.67 193.36H1033.76L1034.44 187.74L1023.23 187.929L1023.67 193.36Z" fill="#F15934"/>
<path id="path900" d="M979.723 195.731H989.976L990.66 190.024L979.275 190.215L979.723 195.731Z" fill="#F15934"/>
<path id="path902" d="M1000.16 184.32H1010.92L1011.64 178.326L999.685 178.528L1000.16 184.32Z" fill="#F15934"/>
<path id="path904" d="M946.047 318.811H955.849L956.503 313.355L945.617 313.537L946.047 318.811Z" fill="#F15934"/>
<path id="path906" d="M958.107 313.144H968.276L968.953 307.484L957.661 307.673L958.107 313.144Z" fill="#F15934"/>
<path id="path908" d="M976.511 306.315H986.124L986.763 300.966L976.089 301.144L976.511 306.315Z" fill="#F15934"/>
<path id="path910" d="M969.109 291.927H979.719L980.425 286.021L968.645 286.22L969.109 291.927Z" fill="#F15934"/>
<path id="path912" d="M986.308 279.651H996.368L997.037 274.052L985.868 274.24L986.308 279.651Z" fill="#F15934"/>
<path id="path914" d="M880.452 413.801H889.807L890.429 408.593L880.041 408.768L880.452 413.801Z" fill="#F15934"/>
<path id="path916" d="M886.581 418.859H897.364L898.084 412.856L886.109 413.058L886.581 418.859Z" fill="#F15934"/>
<path id="path918" d="M900 405.275H909.613L910.252 399.924L899.58 400.104L900 405.275Z" fill="#F15934"/>
<path id="path920" d="M924.537 415.941H933.867L934.488 410.749L924.129 410.923L924.537 415.941Z" fill="#F15934"/>
<path id="path922" d="M941.169 417.2H951.877L952.591 411.24L940.7 411.44L941.169 417.2Z" fill="#F15934"/>
<path id="path924" d="M966.556 396.229H1007.18L1012.89 314.151H968.856L966.556 396.229Z" fill="#FFECBF"/>
<path id="path926" d="M1003.14 392.847L1008.38 317.533H973.029L970.92 392.847H1003.14Z" fill="#EDB17D"/>
<path id="path928" d="M1001.53 391.494L1006.58 318.887H974.699L972.667 391.494H1001.53Z" fill="#0A7E89"/>
<path id="path930" d="M1002.15 325.695L996.155 389.036H978.28L978.565 327.796L1002.15 325.695Z" fill="#089DAC"/>
<path id="path932" d="M987.888 392.292L991.507 318.116L990.053 318.068L986.435 392.245L987.888 392.292Z" fill="#FACF90"/>
<path id="path934" d="M972.64 347.365H1005.22V346.175H972.64V347.365Z" fill="#FACF90"/>
<path id="path936" d="M971.42 372.357H1004V371.165H971.42V372.357Z" fill="#FACF90"/>
<path id="path938" d="M905.884 396.229H946.504L952.215 314.151H908.183L905.884 396.229Z" fill="#FFECBF"/>
<path id="path940" d="M942.472 392.847L947.709 317.533H912.357L910.248 392.847H942.472Z" fill="#EDB17D"/>
<path id="path942" d="M940.857 391.494L945.908 318.887H914.028L911.993 391.494H940.857Z" fill="#0A7E89"/>
<path id="path944" d="M941.479 325.695L935.481 389.036H917.608L917.893 327.796L941.479 325.695Z" fill="#089DAC"/>
<path id="path946" d="M927.216 392.292L930.835 318.116L929.38 318.068L925.761 392.245L927.216 392.292Z" fill="#FACF90"/>
<path id="path948" d="M911.968 347.365H944.548V346.175H911.968V347.365Z" fill="#FACF90"/>
<path id="path950" d="M910.749 372.357H943.328V371.165H910.749V372.357Z" fill="#FACF90"/>
<path id="path952" d="M845.211 396.229H885.832L891.541 314.151H847.511L845.211 396.229Z" fill="#FFECBF"/>
<path id="path954" d="M881.799 392.847L887.037 317.533H851.685L849.576 392.847H881.799Z" fill="#EDB17D"/>
<path id="path956" d="M880.185 391.494L885.236 318.887H853.355L851.321 391.494H880.185Z" fill="#0A7E89"/>
<path id="path958" d="M880.807 325.695L874.809 389.036H856.935L857.22 327.796L880.807 325.695Z" fill="#089DAC"/>
<path id="path960" d="M866.543 392.292L870.161 318.116L868.708 318.068L865.089 392.245L866.543 392.292Z" fill="#FACF90"/>
<path id="path962" d="M851.296 347.365H883.875V346.175H851.296V347.365Z" fill="#FACF90"/>
<path id="path964" d="M850.075 372.357H882.656V371.165H850.075V372.357Z" fill="#FACF90"/>
<path id="path966" d="M972.06 286.972H1014.52L1020.49 204.892H974.464L972.06 286.972Z" fill="#FFECBF"/>
<path id="path968" d="M1010.31 283.588L1015.78 208.276H978.827L976.623 283.588H1010.31Z" fill="#EDB17D"/>
<path id="path970" d="M1008.62 282.236L1013.9 209.63H980.572L978.447 282.236H1008.62Z" fill="#0A7E89"/>
<path id="path972" d="M1009.27 216.436L1003 279.779H984.316L984.613 218.539L1009.27 216.436Z" fill="#089DAC"/>
<path id="path974" d="M994.36 283.033L998.141 208.86L996.623 208.811L992.84 282.987L994.36 283.033Z" fill="#FACF90"/>
<path id="path976" d="M978.42 238.108H1012.48V236.917H978.42V238.108Z" fill="#FACF90"/>
<path id="path978" d="M977.145 263.1H1011.2V261.908H977.145V263.1Z" fill="#FACF90"/>
<path id="path980" d="M908.636 286.972H951.099L957.068 204.892H911.039L908.636 286.972Z" fill="#FFECBF"/>
<path id="path982" d="M946.881 283.588L952.36 208.276H915.403L913.197 283.588H946.881Z" fill="#EDB17D"/>
<path id="path984" d="M945.195 282.236L950.475 209.63H917.148L915.023 282.236H945.195Z" fill="#0A7E89"/>
<path id="path986" d="M945.845 216.436L939.577 279.779H920.892L921.191 218.539L945.845 216.436Z" fill="#089DAC"/>
<path id="path988" d="M930.935 283.033L934.717 208.86L933.197 208.811L929.416 282.987L930.935 283.033Z" fill="#FACF90"/>
<path id="path990" d="M914.996 238.108H949.053V236.917H914.996V238.108Z" fill="#FACF90"/>
<path id="path992" d="M913.721 263.1H947.779V261.908H913.721V263.1Z" fill="#FACF90"/>
<path id="path994" d="M845.211 286.972H887.675L893.643 204.893H847.615L845.211 286.972Z" fill="#FFECBF"/>
<path id="path996" d="M883.459 283.588L888.935 208.276H851.977L849.773 283.588H883.459Z" fill="#EDB17D"/>
<path id="path998" d="M881.771 282.236L887.051 209.63H853.724L851.597 282.236H881.771Z" fill="#0A7E89"/>
<path id="path1000" d="M882.42 216.436L876.152 279.779H857.467L857.765 218.539L882.42 216.436Z" fill="#089DAC"/>
<path id="path1002" d="M867.511 283.033L871.293 208.86L869.773 208.811L865.991 282.987L867.511 283.033Z" fill="#FACF90"/>
<path id="path1004" d="M851.572 238.108H885.629V236.916H851.572V238.108Z" fill="#FACF90"/>
<path id="path1006" d="M850.297 263.1H884.355V261.908H850.297V263.1Z" fill="#FACF90"/>
<path id="path1008" d="M1050.19 169.939L1046.96 178.513H834.648V168.46L1050.19 169.939Z" fill="#EDB17D"/>
<path id="path1010" d="M1058.36 157.443L1053.3 170.735H834.648V159.612L1058.36 157.443Z" fill="#FFECBF"/>
<path id="path1012" d="M1040.11 178.514L1038.04 191.474H1032.71L1032.27 178.514H1040.11Z" fill="#FFECBF"/>
<path id="path1014" d="M1023.31 178.514L1021.25 191.474H1015.91L1015.48 178.514H1023.31Z" fill="#FFECBF"/>
<path id="path1016" d="M1006.52 178.514L1004.45 191.474H999.117L998.681 178.514H1006.52Z" fill="#FFECBF"/>
<path id="path1018" d="M989.721 178.514L987.657 191.474H982.321L981.887 178.514H989.721Z" fill="#FFECBF"/>
<path id="path1020" d="M972.927 178.514L970.863 191.474H965.528L965.092 178.514H972.927Z" fill="#FFECBF"/>
<path id="path1022" d="M956.132 178.514L954.068 191.474H948.732L948.297 178.514H956.132Z" fill="#FFECBF"/>
<path id="path1024" d="M939.337 178.514L937.273 191.474H931.937L931.503 178.514H939.337Z" fill="#FFECBF"/>
<path id="path1026" d="M922.541 178.514L920.477 191.474H915.141L914.707 178.514H922.541Z" fill="#FFECBF"/>
<path id="path1028" d="M905.747 178.514L903.684 191.474H898.348L897.912 178.514H905.747Z" fill="#FFECBF"/>
<path id="path1030" d="M888.952 178.514L886.888 191.474H881.552L881.117 178.514H888.952Z" fill="#FFECBF"/>
<path id="path1032" d="M872.157 178.514L870.093 191.474H864.757L864.321 178.514H872.157Z" fill="#FFECBF"/>
<path id="path1034" d="M855.361 178.514L853.299 191.474H847.963L847.528 178.514H855.361Z" fill="#FFECBF"/>
<g id="g1036">
<g id="Clip path group">
<mask id="mask0_34_5" style="mask-type:luminance" maskUnits="userSpaceOnUse" x="839" y="422" width="14" height="29">
<g id="clipPath1042">
<path id="path1040" d="M850.747 450.864H839.095L840.653 422.148H852.213L850.747 450.864Z" fill="white"/>
</g>
</mask>
<g mask="url(#mask0_34_5)">
<g id="g1038">
<path id="path1044" d="M839.095 450.864H852.213V422.148H839.095V450.864Z" fill="#973E48"/>
</g>
</g>
</g>
</g>
<path id="path1046" d="M852.213 422.148H840.653L841.06 414.66H833.899L842.595 178.513H860.657H864.321L864.407 181.039L862.155 181.077L862.609 186.66H864.236L863.305 204.893H847.615L845.211 286.972H859.115L857.727 314.151H847.511L845.211 396.229H853.537L852.213 422.148ZM847.528 178.513L847.963 191.473H853.299L855.361 178.513H847.528Z" fill="#A52316"/>
<path id="path1048" d="M864.236 186.66H862.609L862.155 181.078L864.407 181.039L864.54 184.991L864.321 184.993L864.236 186.66Z" fill="#B3271B"/>
<path id="path1050" d="M853.537 396.229H845.211L847.511 314.151H857.727L857.555 317.534H851.685L850.183 371.165H850.075V372.357H850.149L849.576 392.847H853.709L853.537 396.229Z" fill="#BD6963"/>
<path id="path1052" d="M853.709 392.847H849.576L850.149 372.357H851.857L851.321 391.493H853.779L853.709 392.847ZM851.891 371.165H850.183L851.685 317.533H857.555L857.485 318.887H853.355L852.591 346.175H851.296V347.365H852.557L851.891 371.165Z" fill="#B04E41"/>
<path id="path1054" d="M853.779 391.494H851.321L851.857 372.358H854.756L853.779 391.494ZM854.816 371.166H851.891L852.557 347.366H856.032L854.816 371.166ZM856.092 346.175H852.591L853.355 318.887H857.485L856.092 346.175Z" fill="#073847"/>
<path id="path1056" d="M856.032 347.365H851.296V346.175H856.092L856.032 347.365Z" fill="#B95C4B"/>
<path id="path1058" d="M854.756 372.357H850.075V371.165H854.816L854.756 372.357Z" fill="#B95C4B"/>
<path id="path1060" d="M859.115 286.972H845.211L847.615 204.893H863.305L863.133 208.276H851.977L850.408 261.908H850.297V263.1H850.373L849.773 283.588H859.288L859.115 286.972Z" fill="#BD6963"/>
<path id="path1062" d="M859.288 283.588H849.773L850.373 263.1H852.159L851.597 282.236H859.357L859.288 283.588ZM852.193 261.908H850.408L851.977 208.276H863.133L863.064 209.629H853.724L852.925 236.916H851.572V238.108H852.891L852.193 261.908Z" fill="#B04E41"/>
<path id="path1064" d="M859.357 282.236H851.597L852.159 263.1H857.548L857.467 279.779H859.483L859.357 282.236ZM857.555 261.908H852.193L852.891 238.108H857.671L857.555 261.908ZM857.676 236.916H852.925L853.724 209.63H863.064L862.631 218.124L857.765 218.539L857.676 236.916Z" fill="#073847"/>
<path id="path1066" d="M859.483 279.779H857.467L857.548 263.1H860.333L859.483 279.779ZM860.395 261.908H857.555L857.671 238.108H861.609L860.395 261.908ZM861.671 236.916H857.676L857.765 218.539L862.631 218.124L861.671 236.916Z" fill="#064659"/>
<path id="path1068" d="M861.609 238.108H851.572V236.916H861.671L861.609 238.108Z" fill="#B95C4B"/>
<path id="path1070" d="M860.333 263.1H850.297V261.908H860.395L860.333 263.1Z" fill="#B95C4B"/>
<path id="path1072" d="M860.657 178.513H842.595L842.881 170.735H861.896L860.657 178.513Z" fill="#B04E41"/>
<path id="path1074" d="M855.361 170.735H842.881L843.295 159.528L857.004 159.395L855.361 170.735Z" fill="#BD6963"/>
<path id="path1076" d="M873.201 184.875L873.679 180.884L871.775 180.916L872.157 178.513H881.117L881.327 184.765L873.201 184.875Z" fill="#A52316"/>
<path id="path1078" d="M871.14 184.903L871.775 180.916L873.679 180.884L873.201 184.875L871.14 184.903Z" fill="#B3271B"/>
<path id="path1080" d="M887.971 184.676L888.952 178.514H897.912L898.115 184.54L887.971 184.676ZM904.801 184.45L905.747 178.514H914.707L914.837 182.412L908.101 182.526L908.255 184.404L904.801 184.45Z" fill="#A52316"/>
<path id="path1082" d="M908.255 184.404L908.101 182.526L914.837 182.412L914.901 184.315L908.255 184.404Z" fill="#B3271B"/>
<path id="path1084" d="M921.632 184.224L922.541 178.513H925.125L925.491 183.005H931.653L931.689 184.089L921.632 184.224Z" fill="#A52316"/>
<path id="path1086" d="M931.653 183.005H925.491L925.125 178.513H931.503L931.653 183.005Z" fill="#B3271B"/>
<path id="path1088" d="M938.464 183.998L939.337 178.514H941.844L942.029 180.792H948.373L948.476 183.863L938.464 183.998Z" fill="#A52316"/>
<path id="path1090" d="M948.373 180.792H942.029L941.844 178.513H948.297L948.373 180.792Z" fill="#B3271B"/>
<path id="path1092" d="M955.295 183.772L956.132 178.513H965.092L965.264 183.637L955.295 183.772ZM972.125 183.545L972.927 178.513H981.887L982.051 183.412L972.125 183.545ZM988.956 183.32L989.721 178.513H998.681L998.839 183.187L988.956 183.32ZM1011.08 183.023L1011.62 178.513H1015.48L1015.63 182.961L1011.08 183.023Z" fill="#A52316"/>
<path id="path1094" d="M1005.79 183.093L1006.52 178.513H1011.62L1011.08 183.023L1005.79 183.093Z" fill="#B3271B"/>
<path id="path1096" d="M1022.62 182.868L1023.31 178.514H1032.27L1032.41 182.736L1022.62 182.868Z" fill="#A52316"/>
<path id="path1098" d="M1032.41 182.736L1032.27 178.513H1040.11L1039.45 182.641L1032.41 182.736Z" fill="#BD6963"/>
<path id="path1100" d="M1015.63 182.961L1015.48 178.513H1023.31L1022.62 182.868L1015.63 182.961Z" fill="#BD6963"/>
<path id="path1102" d="M998.839 183.187L998.681 178.513H1006.52L1005.79 183.093L998.839 183.187Z" fill="#BD6963"/>
<path id="path1104" d="M982.051 183.412L981.887 178.513H989.721L988.956 183.32L982.051 183.412Z" fill="#BD6963"/>
<path id="path1106" d="M965.264 183.637L965.092 178.513H972.927L972.125 183.545L965.264 183.637Z" fill="#BD6963"/>
<path id="path1108" d="M948.476 183.863L948.373 180.792L948.297 178.513H956.132L955.295 183.772L948.476 183.863Z" fill="#BD6963"/>
<path id="path1110" d="M931.689 184.089L931.653 183.005L931.503 178.513H939.337L938.464 183.997L931.689 184.089Z" fill="#BD6963"/>
<path id="path1112" d="M914.901 184.315L914.837 182.412L914.707 178.514H922.541L921.632 184.224L914.901 184.315Z" fill="#BD6963"/>
<path id="path1114" d="M898.115 184.54L897.912 178.513H905.747L904.801 184.449L898.115 184.54Z" fill="#BD6963"/>
<path id="path1116" d="M881.327 184.766L881.117 178.514H888.952L887.971 184.676L881.327 184.766Z" fill="#BD6963"/>
<path id="path1118" d="M864.54 184.991L864.407 181.039L864.321 178.513H872.157L871.775 180.916L871.14 184.903L864.54 184.991Z" fill="#BD6963"/>
<path id="path1120" d="M853.299 191.474H847.963L847.528 178.514H855.361L853.299 191.474Z" fill="#BD6963"/>
<path id="path1122" d="M998.04 438.744H1006.08L1006.61 434.269L997.689 434.42L998.04 438.744Z" fill="#C78483"/>
<path id="path1124" d="M989.172 433.759H996.795L997.303 429.517L988.839 429.659L989.172 433.759Z" fill="#C78483"/>
<path id="path1126" d="M986.317 447.119H993.94L994.448 442.876L985.984 443.02L986.317 447.119Z" fill="#C78483"/>
<path id="path1128" d="M1002.92 434.806H1010.69L1011.2 430.484L1002.58 430.63L1002.92 434.806Z" fill="#C78483"/>
<path id="path1130" d="M1015.53 435.405H1022.85L1023.33 431.332L1015.21 431.469L1015.53 435.405Z" fill="#C78483"/>
<path id="path1132" d="M912.673 436.028H920.363L920.875 431.75L912.336 431.892L912.673 436.028Z" fill="#C78483"/>
<path id="path1134" d="M932.845 434.619H940.273L940.768 430.484L932.521 430.624L932.845 434.619Z" fill="#C78483"/>
<path id="path1136" d="M928.548 438.713H936.316L936.833 434.389L928.208 434.535L928.548 438.713Z" fill="#C78483"/>
<path id="path1138" d="M951.92 445.981H959.464L959.967 441.784L951.589 441.924L951.92 445.981Z" fill="#C78483"/>
<path id="path1140" d="M865.812 432.213H873.031L873.512 428.195L865.496 428.329L865.812 432.213Z" fill="#C78483"/>
<path id="path1142" d="M876.416 435.835H883.961L884.464 431.635L876.085 431.775L876.416 435.835Z" fill="#C78483"/>
<path id="path1144" d="M860.259 443.883H867.804L868.305 439.684L859.928 439.824L860.259 443.883Z" fill="#C78483"/>
<path id="path1146" d="M854.321 440.844H861.867L862.369 436.643L853.991 436.786L854.321 440.844Z" fill="#C78483"/>
<path id="path1148" d="M921.151 446.144H928.711L929.215 441.936L920.82 442.079L921.151 446.144Z" fill="#C78483"/>
<path id="path1150" d="M918.036 427.965H925.831L926.349 423.627L917.695 423.772L918.036 427.965Z" fill="#C78483"/>
<path id="path1152" d="M841.06 414.66L838.828 455.783H546.003L543.772 414.66H550.932H833.899H841.06Z" fill="#CE9792"/>
<path id="path1154" d="M783.752 121.099H601.099L692.425 45.8973L783.752 121.099Z" fill="#F15934"/>
<path id="path1156" d="M872.188 95.0735L868.345 113.18H785.907L692.425 34.9522L598.924 113.18H520.115H516.505L512.663 95.0735L596.363 98.4308L692.425 15.5068L788.469 98.4308L872.188 95.0735Z" fill="#FFECBF"/>
<path id="path1158" d="M864.736 113.18L862.717 121.099H783.752L692.425 45.8973L601.099 121.099H525.879H522.113L520.115 113.18H598.924L692.425 34.952L785.907 113.18H864.736Z" fill="#EDB17D"/>
<path id="path1160" d="M858.953 121.099L857.089 130.083H527.761L525.879 121.099H601.099H783.752H858.953Z" fill="#FFECBF"/>
<path id="path1162" d="M844.379 130.083L833.899 414.66H550.932L540.472 130.083H844.379Z" fill="#F15934"/>
<path id="path1164" d="M566.757 217.024H556.035L555.32 211.056L567.227 211.256L566.757 217.024Z" fill="#DF4E2B"/>
<path id="path1166" d="M561.617 198.139H551.041L550.336 192.251L562.081 192.448L561.617 198.139Z" fill="#DF4E2B"/>
<path id="path1168" d="M568.467 180.217H558.616L557.961 174.735L568.897 174.917L568.467 180.217Z" fill="#DF4E2B"/>
<path id="path1170" d="M573.488 162.467H563.232L562.549 156.757L573.937 156.948L573.488 162.467Z" fill="#DF4E2B"/>
<path id="path1172" d="M579.409 166.741H569.804L569.165 161.395L579.831 161.575L579.409 166.741Z" fill="#DF4E2B"/>
<path id="path1174" d="M587.116 157.616H577.577L576.943 152.307L587.535 152.486L587.116 157.616Z" fill="#DF4E2B"/>
<path id="path1176" d="M584.461 204.124H574.279L573.601 198.457L584.907 198.647L584.461 204.124Z" fill="#DF4E2B"/>
<path id="path1178" d="M825.629 286.815H815.563L814.892 281.212L826.069 281.4L825.629 286.815Z" fill="#DF4E2B"/>
<path id="path1180" d="M810.305 272.343H800.152L799.476 266.692L810.751 266.881L810.305 272.343Z" fill="#DF4E2B"/>
<path id="path1182" d="M820.531 259.354H810.868L810.225 253.975L820.955 254.155L820.531 259.354Z" fill="#DF4E2B"/>
<path id="path1184" d="M809.031 236.354H799.292L798.643 230.932L809.457 231.115L809.031 236.354Z" fill="#DF4E2B"/>
<path id="path1186" d="M803.345 315.408H792.684L791.973 309.474L803.812 309.674L803.345 315.408Z" fill="#DF4E2B"/>
<path id="path1188" d="M802.043 303.605H792.472L791.835 298.277L802.463 298.457L802.043 303.605Z" fill="#DF4E2B"/>
<path id="path1190" d="M810.136 287.643H799.916L799.235 281.953L810.583 282.145L810.136 287.643Z" fill="#DF4E2B"/>
<path id="path1192" d="M831.557 204.887H821.849L821.203 199.484L831.981 199.665L831.557 204.887Z" fill="#DF4E2B"/>
<path id="path1194" d="M618.145 355.162H608.26L607.601 349.66L618.577 349.846L618.145 355.162Z" fill="#DF4E2B"/>
<path id="path1196" d="M605.488 347.146H594.944L594.241 341.276L605.948 341.474L605.488 347.146Z" fill="#DF4E2B"/>
<path id="path1198" d="M607.995 335.031H598.464L597.831 329.727L608.411 329.905L607.995 335.031Z" fill="#DF4E2B"/>
<path id="path1200" d="M602.436 322.816H592.205L591.525 317.123L602.884 317.315L602.436 322.816Z" fill="#DF4E2B"/>
<path id="path1202" d="M607.353 302.37H597.172L596.495 296.703L607.799 296.894L607.353 302.37Z" fill="#DF4E2B"/>
<path id="path1204" d="M639.472 347.284H628.891L628.187 341.395L639.935 341.592L639.472 347.284Z" fill="#DF4E2B"/>
<path id="path1206" d="M625.211 332.307H615.645L615.008 326.983L625.629 327.163L625.211 332.307Z" fill="#DF4E2B"/>
<path id="path1208" d="M628.685 369.855H618.417L617.733 364.139L629.135 364.331L628.685 369.855Z" fill="#DF4E2B"/>
<path id="path1210" d="M623.66 340.475H613.213L612.519 334.661L624.116 334.857L623.66 340.475Z" fill="#DF4E2B"/>
<path id="path1212" d="M565.939 412.521H555.211L554.497 406.551L566.408 406.751L565.939 412.521Z" fill="#DF4E2B"/>
<path id="path1214" d="M580.968 397.616H571.647L571.027 392.428L581.376 392.603L580.968 397.616Z" fill="#DF4E2B"/>
<path id="path1216" d="M578.636 379.998H567.935L567.223 374.04L579.104 374.242L578.636 379.998Z" fill="#DF4E2B"/>
<path id="path1218" d="M575.617 401.636H564.975L564.267 395.712L576.084 395.911L575.617 401.636Z" fill="#DF4E2B"/>
<path id="path1220" d="M567.991 388.028H557.505L556.807 382.194L568.448 382.39L567.991 388.028Z" fill="#DF4E2B"/>
<path id="path1222" d="M823.183 396.229H812.776L812.084 390.437L823.639 390.633L823.183 396.229Z" fill="#DF4E2B"/>
<path id="path1224" d="M811.739 401.813H801.221L800.521 395.96L812.199 396.156L811.739 401.813Z" fill="#DF4E2B"/>
<path id="path1226" d="M835.299 376.673H828.235L827.587 371.263L835.492 371.396L835.299 376.673Z" fill="#DF4E2B"/>
<path id="path1228" d="M826.375 381.855H816.433L815.772 376.322L826.809 376.507L826.375 381.855Z" fill="#DF4E2B"/>
<path id="path1230" d="M656.588 173.229H646.741L646.085 167.75L657.019 167.933L656.588 173.229Z" fill="#DF4E2B"/>
<path id="path1232" d="M649.484 157.431H639.529L638.867 151.891L649.919 152.077L649.484 157.431Z" fill="#DF4E2B"/>
<path id="path1234" d="M675.417 160.223H664.607L663.888 154.205L675.891 154.408L675.417 160.223Z" fill="#DF4E2B"/>
<path id="path1236" d="M752.944 196.861H743.036L742.377 191.348L753.377 191.532L752.944 196.861Z" fill="#DF4E2B"/>
<path id="path1238" d="M746.796 192.075H736.777L736.111 186.5L747.233 186.687L746.796 192.075Z" fill="#DF4E2B"/>
<path id="path1240" d="M752.643 241.535H762.551L763.211 236.021L752.209 236.205L752.643 241.535Z" fill="#DF4E2B"/>
<path id="path1242" d="M758.793 236.748H768.809L769.476 231.172L758.355 231.36L758.793 236.748Z" fill="#DF4E2B"/>
<path id="path1244" d="M764.355 226.312H774.371L775.037 220.737L763.916 220.924L764.355 226.312Z" fill="#DF4E2B"/>
<path id="path1246" d="M766.932 176.273H757.133L756.48 170.819L767.361 171.001L766.932 176.273Z" fill="#DF4E2B"/>
<path id="path1248" d="M784.052 192.257H774.688L774.064 187.045L784.463 187.221L784.052 192.257Z" fill="#DF4E2B"/>
<path id="path1250" d="M772.867 181.295H762.604L761.92 175.583L773.316 175.775L772.867 181.295Z" fill="#DF4E2B"/>
<path id="path1252" d="M686.923 271.394H676.653L675.971 265.679L687.371 265.871L686.923 271.394Z" fill="#DF4E2B"/>
<path id="path1254" d="M699.128 248.357H688.615L687.916 242.505L699.587 242.703L699.128 248.357Z" fill="#DF4E2B"/>
<path id="path1256" d="M702.795 231.515H692.005L691.287 225.509L703.267 225.712L702.795 231.515Z" fill="#DF4E2B"/>
<path id="path1258" d="M710.172 299.224H700.127L699.457 293.633L710.611 293.821L710.172 299.224Z" fill="#DF4E2B"/>
<path id="path1260" d="M703.551 279.72H693.064L692.365 273.884L704.009 274.08L703.551 279.72Z" fill="#DF4E2B"/>
<path id="path1262" d="M717.8 258.179H707.121L706.411 252.235L718.267 252.435L717.8 258.179Z" fill="#DF4E2B"/>
<path id="path1264" d="M724.664 386.501H713.933L713.22 380.529L725.133 380.731L724.664 386.501Z" fill="#DF4E2B"/>
<path id="path1266" d="M722.499 367.168H711.88L711.173 361.257L722.964 361.456L722.499 367.168Z" fill="#DF4E2B"/>
<path id="path1268" d="M707.479 352.491H697.524L696.861 346.949L707.915 347.136L707.479 352.491Z" fill="#DF4E2B"/>
<path id="path1270" d="M737.873 377.068H727.125L726.409 371.084L738.345 371.285L737.873 377.068Z" fill="#DF4E2B"/>
<path id="path1272" d="M577.156 287.159H567.093L566.424 281.557L577.597 281.747L577.156 287.159Z" fill="#DF4E2B"/>
<path id="path1274" d="M585.033 263.014H574.441L573.736 257.118L585.497 257.316L585.033 263.014Z" fill="#DF4E2B"/>
<path id="path1276" d="M677.905 359.357H668.484L667.857 354.115L678.316 354.291L677.905 359.357Z" fill="#DF4E2B"/>
<path id="path1278" d="M677.293 347.542H667.639L666.997 342.168L677.716 342.35L677.293 347.542Z" fill="#DF4E2B"/>
<path id="path1280" d="M749.748 408.9H739.745L739.081 403.333L750.185 403.52L749.748 408.9Z" fill="#DF4E2B"/>
<path id="path1282" d="M752.817 389.301H742.787L742.119 383.717L753.256 383.905L752.817 389.301Z" fill="#DF4E2B"/>
<path id="path1284" d="M769.109 394.266H759.499L758.857 388.916L769.529 389.095L769.109 394.266Z" fill="#DF4E2B"/>
<path id="path1286" d="M633.029 213.637H622.805L622.124 207.945L633.477 208.137L633.029 213.637Z" fill="#DF4E2B"/>
<path id="path1288" d="M621.328 196.978H611.439L610.78 191.474L621.76 191.659L621.328 196.978Z" fill="#DF4E2B"/>
<path id="path1290" d="M781.339 341.363H771.684L771.04 335.989L781.76 336.169L781.339 341.363Z" fill="#DF4E2B"/>
<path id="path1292" d="M746.733 119.928H736.959L736.308 114.488L747.161 114.67L746.733 119.928Z" fill="#DF4E2B"/>
<path id="path1294" d="M731.235 102.521H720.479L719.763 96.5361L731.705 96.7361L731.235 102.521Z" fill="#DF4E2B"/>
<path id="path1296" d="M731.697 86.2349H721.475L720.795 80.5455L732.144 80.7375L731.697 86.2349Z" fill="#DF4E2B"/>
<path id="path1298" d="M676.109 118.75H665.505L664.799 112.849L676.575 113.047L676.109 118.75Z" fill="#DF4E2B"/>
<path id="path1300" d="M656.236 109.328H646.54L645.895 103.932L656.66 104.113L656.236 109.328Z" fill="#DF4E2B"/>
<path id="path1302" d="M649.724 101.492H640.337L639.712 96.2669L650.135 96.4428L649.724 101.492Z" fill="#DF4E2B"/>
<path id="path1304" d="M751.052 109.481H740.732L740.045 103.737L751.504 103.931L751.052 109.481Z" fill="#DF4E2B"/>
<path id="path1306" d="M545.328 141.157H540.324L539.605 130.083H546.047L545.328 141.157Z" fill="#FFECBF"/>
<g id="g1308">
<g id="Clip path group_2">
<mask id="mask1_34_5" style="mask-type:luminance" maskUnits="userSpaceOnUse" x="540" y="141" width="1" height="1">
<g id="clipPath1314">
<path id="path1312" d="M540.884 141.279L540.324 141.157H540.879L540.884 141.279Z" fill="white"/>
</g>
</mask>
<g mask="url(#mask1_34_5)">
<g id="g1310">
<path id="path1324" d="M540.884 141.279L540.324 141.157H540.879L540.884 141.279Z" fill="url(#paint0_linear_34_5)"/>
</g>
</g>
</g>
</g>
<path id="path1326" d="M546.047 142.396L540.884 141.279L540.879 141.157H545.328L545.735 134.903L547.403 134.909L546.047 142.396Z" fill="#A90E06"/>
<path id="path1328" d="M561.961 141.157H556.957L556.239 130.083H562.68L561.961 141.157Z" fill="#FFECBF"/>
<path id="path1330" d="M562.68 142.396L556.957 141.157H561.961L562.363 134.977L564.023 134.984L562.68 142.396Z" fill="#A90E06"/>
<path id="path1332" d="M578.595 141.157H573.591L572.872 130.083H579.313L578.595 141.157Z" fill="#FFECBF"/>
<path id="path1334" d="M579.313 142.396L573.591 141.157H578.595L578.991 135.051L580.641 135.059L579.313 142.396Z" fill="#A90E06"/>
<path id="path1336" d="M595.228 141.157H590.224L589.505 130.083H595.947L595.228 141.157Z" fill="#FFECBF"/>
<path id="path1338" d="M595.947 142.396L590.224 141.157H595.228L595.62 135.125L597.261 135.133L595.947 142.396Z" fill="#A90E06"/>
<path id="path1340" d="M611.861 141.157H606.857L606.14 130.083H612.58L611.861 141.157Z" fill="#FFECBF"/>
<path id="path1342" d="M612.58 142.396L606.857 141.157H611.861L612.248 135.2L613.881 135.208L612.58 142.396Z" fill="#A90E06"/>
<path id="path1344" d="M628.496 141.157H623.491L622.772 130.083H629.213L628.496 141.157Z" fill="#FFECBF"/>
<path id="path1346" d="M629.213 142.396L623.491 141.157H628.496L628.877 135.275L630.501 135.281L629.213 142.396Z" fill="#A90E06"/>
<path id="path1348" d="M645.129 141.157H640.124L639.405 130.083H645.847L645.129 141.157Z" fill="#FFECBF"/>
<path id="path1350" d="M645.847 142.396L640.124 141.157H645.129L645.505 135.349L647.121 135.356L645.847 142.396Z" fill="#A90E06"/>
<path id="path1352" d="M661.763 141.157H656.757L656.039 130.083H662.48L661.763 141.157Z" fill="#FFECBF"/>
<path id="path1354" d="M662.48 142.396L656.757 141.157H661.763L662.135 135.424L663.741 135.431L662.48 142.396Z" fill="#A90E06"/>
<path id="path1356" d="M678.396 141.157H673.391L672.673 130.083H679.115L678.396 141.157Z" fill="#FFECBF"/>
<path id="path1358" d="M679.115 142.396L673.391 141.157H678.396L678.763 135.497L680.363 135.505L679.115 142.396Z" fill="#A90E06"/>
<path id="path1360" d="M695.028 141.157H690.024L689.307 130.083H695.748L695.028 141.157Z" fill="#FFECBF"/>
<path id="path1362" d="M695.748 142.396L690.024 141.157H695.028L695.391 135.572L696.981 135.58L695.748 142.396Z" fill="#A90E06"/>
<path id="path1364" d="M711.663 141.157H706.657L705.94 130.083H712.38L711.663 141.157Z" fill="#FFECBF"/>
<path id="path1366" d="M712.38 142.396L706.657 141.157H711.663L712.02 135.647L713.601 135.653L712.38 142.396Z" fill="#A90E06"/>
<path id="path1368" d="M728.296 141.157H723.292L722.573 130.083H729.015L728.296 141.157Z" fill="#FFECBF"/>
<path id="path1370" d="M729.015 142.396L723.292 141.157H728.296L728.648 135.721L730.221 135.728L729.015 142.396Z" fill="#A90E06"/>
<path id="path1372" d="M744.929 141.157H739.924L739.205 130.083H745.647L744.929 141.157Z" fill="#FFECBF"/>
<path id="path1374" d="M745.647 142.396L739.924 141.157H744.929L745.277 135.796L746.841 135.803L745.647 142.396Z" fill="#A90E06"/>
<path id="path1376" d="M761.563 141.157H756.559L755.84 130.083H762.281L761.563 141.157Z" fill="#FFECBF"/>
<path id="path1378" d="M762.281 142.396L756.559 141.157H761.563L761.905 135.871L763.461 135.877L762.281 142.396Z" fill="#A90E06"/>
<path id="path1380" d="M778.197 141.157H773.191L772.473 130.083H778.915L778.197 141.157Z" fill="#FFECBF"/>
<path id="path1382" d="M778.915 142.396L773.191 141.157H778.197L778.535 135.944L780.081 135.952L778.915 142.396Z" fill="#A90E06"/>
<path id="path1384" d="M794.829 141.157H789.825L789.107 130.083H795.548L794.829 141.157Z" fill="#FFECBF"/>
<path id="path1386" d="M795.548 142.396L789.825 141.157H794.829L795.163 136.019L796.701 136.025L795.548 142.396Z" fill="#A90E06"/>
<path id="path1388" d="M811.463 141.157H806.459L805.74 130.083H812.181L811.463 141.157Z" fill="#FFECBF"/>
<path id="path1390" d="M812.181 142.396L806.459 141.157H811.463L811.791 136.093L813.321 136.1L812.181 142.396Z" fill="#A90E06"/>
<path id="path1392" d="M828.096 141.157H823.091L822.373 130.083H828.815L828.096 141.157Z" fill="#FFECBF"/>
<path id="path1394" d="M828.815 142.396L823.091 141.157H828.096L828.42 136.168L829.941 136.175L828.815 142.396Z" fill="#A90E06"/>
<path id="path1396" d="M844.107 141.157H839.101L838.383 130.083H844.824L844.107 141.157Z" fill="#FFECBF"/>
<path id="path1398" d="M843.927 142.328L839.101 141.157H843.969L843.927 142.328Z" fill="#A90E06"/>
<path id="path1400" d="M838.78 136.215L829.941 136.175L831.044 130.083H838.383L838.78 136.215ZM822.767 136.143L813.321 136.1L814.412 130.083H822.373L822.767 136.143ZM806.128 136.068L796.701 136.025L797.777 130.083H805.74L806.128 136.068ZM789.491 135.993L780.081 135.952L781.144 130.083H789.107L789.491 135.993ZM772.852 135.919L763.461 135.878L764.511 130.083H772.473L772.852 135.919ZM756.213 135.844L746.841 135.803L747.877 130.083H755.84L756.213 135.844ZM739.575 135.771L730.221 135.728L731.244 130.083H739.205L739.575 135.771ZM722.937 135.696L713.601 135.653L714.611 130.083H722.573L722.937 135.696ZM706.299 135.621L696.981 135.58L697.976 130.083H705.94L706.299 135.621ZM689.66 135.547L680.363 135.506L681.344 130.083H689.307L689.66 135.547ZM673.023 135.472L663.741 135.431L664.711 130.083H672.673L673.023 135.472ZM656.384 135.397L647.121 135.356L648.077 130.083H656.039L656.384 135.397ZM639.745 135.323L630.501 135.282L631.443 130.083H639.405L639.745 135.323ZM623.108 135.25L613.881 135.208L614.809 130.083H622.772L623.108 135.25ZM606.469 135.175L597.261 135.133L598.176 130.083H606.14L606.469 135.175ZM589.831 135.1L580.641 135.059L581.543 130.083H589.505L589.831 135.1ZM573.193 135.025L564.023 134.984L564.909 130.083H572.872L573.193 135.025ZM556.555 134.951L547.403 134.91L548.276 130.083H556.239L556.555 134.951Z" fill="#B3271B"/>
<path id="path1402" d="M545.735 134.903L539.917 134.876L539.605 130.083H546.047L545.735 134.903Z" fill="#BD6963"/>
<path id="path1404" d="M547.403 134.909L545.735 134.903L546.047 130.083H548.276L547.403 134.909Z" fill="#7D0603"/>
<path id="path1406" d="M562.363 134.978L556.555 134.951L556.239 130.083H562.68L562.363 134.978Z" fill="#BD6963"/>
<path id="path1408" d="M564.023 134.984L562.363 134.977L562.68 130.083H564.909L564.023 134.984Z" fill="#7D0603"/>
<path id="path1410" d="M578.991 135.051L573.193 135.025L572.872 130.083H579.313L578.991 135.051Z" fill="#BD6963"/>
<path id="path1412" d="M580.641 135.059L578.991 135.051L579.313 130.083H581.543L580.641 135.059Z" fill="#7D0603"/>
<path id="path1414" d="M595.62 135.125L589.831 135.1L589.505 130.083H595.947L595.62 135.125Z" fill="#BD6963"/>
<path id="path1416" d="M597.261 135.133L595.62 135.125L595.947 130.083H598.176L597.261 135.133Z" fill="#7D0603"/>
<path id="path1418" d="M612.248 135.2L606.469 135.175L606.14 130.083H612.58L612.248 135.2Z" fill="#BD6963"/>
<path id="path1420" d="M613.881 135.208L612.248 135.2L612.58 130.083H614.809L613.881 135.208Z" fill="#7D0603"/>
<path id="path1422" d="M628.877 135.275L623.108 135.25L622.772 130.083H629.213L628.877 135.275Z" fill="#BD6963"/>
<path id="path1424" d="M630.501 135.281L628.877 135.275L629.213 130.083H631.443L630.501 135.281Z" fill="#7D0603"/>
<path id="path1426" d="M645.505 135.35L639.745 135.323L639.405 130.083H645.847L645.505 135.35Z" fill="#BD6963"/>
<path id="path1428" d="M647.121 135.356L645.505 135.349L645.847 130.083H648.077L647.121 135.356Z" fill="#7D0603"/>
<path id="path1430" d="M662.135 135.424L656.384 135.397L656.039 130.083H662.48L662.135 135.424Z" fill="#BD6963"/>
<path id="path1432" d="M663.741 135.431L662.135 135.424L662.48 130.083H664.711L663.741 135.431Z" fill="#7D0603"/>
<path id="path1434" d="M678.763 135.498L673.023 135.472L672.673 130.083H679.115L678.763 135.498Z" fill="#BD6963"/>
<path id="path1436" d="M680.363 135.505L678.763 135.497L679.115 130.083H681.344L680.363 135.505Z" fill="#7D0603"/>
<path id="path1438" d="M695.391 135.572L689.66 135.547L689.307 130.083H695.748L695.391 135.572Z" fill="#BD6963"/>
<path id="path1440" d="M696.981 135.58L695.391 135.572L695.748 130.083H697.976L696.981 135.58Z" fill="#7D0603"/>
<path id="path1442" d="M712.02 135.647L706.299 135.622L705.94 130.083H712.38L712.02 135.647Z" fill="#BD6963"/>
<path id="path1444" d="M713.601 135.653L712.02 135.647L712.38 130.083H714.611L713.601 135.653Z" fill="#7D0603"/>
<path id="path1446" d="M728.648 135.721L722.937 135.696L722.573 130.083H729.015L728.648 135.721Z" fill="#BD6963"/>
<path id="path1448" d="M730.221 135.728L728.648 135.721L729.015 130.083H731.244L730.221 135.728Z" fill="#7D0603"/>
<path id="path1450" d="M745.277 135.796L739.575 135.771L739.205 130.083H745.647L745.277 135.796Z" fill="#BD6963"/>
<path id="path1452" d="M746.841 135.803L745.277 135.796L745.647 130.083H747.877L746.841 135.803Z" fill="#7D0603"/>
<path id="path1454" d="M761.905 135.871L756.213 135.844L755.84 130.083H762.281L761.905 135.871Z" fill="#BD6963"/>
<path id="path1456" d="M763.461 135.877L761.905 135.871L762.281 130.083H764.511L763.461 135.877Z" fill="#7D0603"/>
<path id="path1458" d="M778.535 135.944L772.852 135.918L772.473 130.083H778.915L778.535 135.944Z" fill="#BD6963"/>
<path id="path1460" d="M780.081 135.952L778.535 135.944L778.915 130.083H781.144L780.081 135.952Z" fill="#7D0603"/>
<path id="path1462" d="M795.163 136.019L789.491 135.993L789.107 130.083H795.548L795.163 136.019Z" fill="#BD6963"/>
<path id="path1464" d="M796.701 136.025L795.163 136.019L795.548 130.083H797.777L796.701 136.025Z" fill="#7D0603"/>
<path id="path1466" d="M811.791 136.093L806.128 136.068L805.74 130.083H812.181L811.791 136.093Z" fill="#BD6963"/>
<path id="path1468" d="M813.321 136.1L811.791 136.093L812.181 130.083H814.412L813.321 136.1Z" fill="#7D0603"/>
<path id="path1470" d="M828.42 136.168L822.767 136.143L822.373 130.083H828.815L828.42 136.168Z" fill="#BD6963"/>
<path id="path1472" d="M829.941 136.175L828.42 136.168L828.815 130.083H831.044L829.941 136.175Z" fill="#7D0603"/>
<path id="path1474" d="M844.425 136.24L838.78 136.215L838.383 130.083H844.824L844.425 136.24Z" fill="#BD6963"/>
<path id="path1494" d="M863.503 118.016L785.284 116.713L692.425 39.5828L599.807 116.713L520.772 115.785L520.115 113.18H598.924L692.425 34.9521L785.907 113.18H864.736L863.503 118.016Z" fill="#D87E60"/>
<path id="path1496" d="M783.752 121.099H772.473L751.48 104.216L751.504 103.931L751.117 103.924L729.123 86.2346H731.697L732.144 80.7373L722.076 80.5666L690.675 55.3133L640.045 96.272L639.712 96.2666L639.741 96.5187L609.36 121.099H601.099L692.425 45.8973L783.752 121.099Z" fill="#B3271B"/>
<path id="path1498" d="M731.697 86.2349H729.123L722.076 80.5669L732.144 80.7375L731.697 86.2349Z" fill="#A52316"/>
<path id="path1500" d="M639.741 96.5186L639.712 96.2665L640.045 96.2719L639.741 96.5186Z" fill="#A52316"/>
<path id="path1502" d="M751.48 104.216L751.117 103.924L751.504 103.931L751.48 104.216Z" fill="#A52316"/>
<path id="path1504" d="M693.729 114.4C681.433 114.4 670.423 103.227 670.423 90.9306C670.423 78.6346 681.433 69.8732 693.729 69.8732C706.024 69.8732 715.94 78.3879 715.94 90.6839C715.94 102.98 706.024 114.4 693.729 114.4Z" fill="#A90E06"/>
<path id="path1506" d="M714.428 88.3559C714.428 76.0599 704.513 67.5453 692.216 67.5453C679.92 67.5453 668.911 76.3066 668.911 88.6026C668.911 100.899 679.92 112.073 692.216 112.073C704.513 112.073 714.428 100.652 714.428 88.3559Z" fill="#FFECBF"/>
<path id="path1508" d="M692.355 108.864C682.863 108.864 673.888 99.3509 673.888 89.2883C673.888 78.6549 683.277 72.3003 692.355 72.3003C702.408 72.3003 709.703 79.3336 709.703 89.0243C709.703 99.5923 701.596 108.864 692.355 108.864Z" fill="#FFDC9B"/>
<path id="path1510" d="M692.275 106.248C684.14 106.248 676.449 98.096 676.449 89.4734C676.449 80.36 684.496 74.9147 692.275 74.9147C700.889 74.9147 707.141 80.9427 707.141 89.2467C707.141 98.3041 700.195 106.248 692.275 106.248Z" fill="#463959"/>
<path id="path1512" d="M692.06 104.932C685.417 104.932 679.136 98.2735 679.136 91.2321C679.136 83.7895 685.707 79.3414 692.06 79.3414C699.096 79.3414 704.201 84.2641 704.201 91.0468C704.201 98.4428 698.528 104.932 692.06 104.932Z" fill="#67547D"/>
<path id="path1514" d="M680.933 90.855L683.673 90.7736V89.975L680.933 89.8937V90.855Z" fill="#FEE6AD"/>
<path id="path1516" d="M691.669 99.0603L691.587 101.8H692.549L692.468 99.0603H691.669Z" fill="#FEE6AD"/>
<path id="path1518" d="M692.468 83.2363L692.549 78.3376H691.587L691.669 83.2363H692.468Z" fill="#FEE6AD"/>
<path id="path1520" d="M701.463 89.975V90.7736L704.201 90.855V89.8937L701.463 89.975Z" fill="#FEE6AD"/>
<path id="path1522" d="M692.916 89.6265L692.919 89.6239L692.907 89.6145L692.709 89.4451L688.332 85.6852L690.7 90.2332L684.731 97.6665L692.919 91.1852L692.889 91.1612C693.081 90.9518 693.204 90.6798 693.204 90.3745C693.204 90.0852 693.088 89.8305 692.916 89.6265Z" fill="#FEE6AD"/>
<path id="path1524" d="M611.236 257.117H565.068L558.579 151.339H608.623L611.236 257.117Z" fill="#FFECBF"/>
<path id="path1526" d="M569.652 252.757L563.697 155.699H603.879L606.276 252.757H569.652Z" fill="#EDB17D"/>
<g id="windows">
<path id="path1528" d="M571.487 251.014L565.747 157.443H601.98L604.291 251.014H571.487Z" fill="#0A7E89"/>
</g>
<path id="path1530" d="M570.78 166.216L577.596 247.847H597.911L597.587 168.924L570.78 166.216Z" fill="#089DAC"/>
<path id="path1532" d="M587.089 252.045L582.976 156.452L584.429 156.389L588.544 251.983L587.089 252.045Z" fill="#FACF90"/>
<path id="path1534" d="M604.321 194.105H567.292V192.649H604.321V194.105Z" fill="#FACF90"/>
<path id="path1536" d="M605.705 226.312H568.677V224.857H605.705V226.312Z" fill="#FACF90"/>
<path id="path1538" d="M613.869 377.068H573.249L567.539 276.803H611.571L613.869 377.068Z" fill="#FFECBF"/>
<path id="path1540" d="M577.283 372.935L572.043 280.935H607.396L609.505 372.935H577.283Z" fill="#EDB17D"/>
<path id="path1542" d="M578.896 371.281L573.845 282.588H605.727L607.759 371.281H578.896Z" fill="#0A7E89"/>
<path id="path1544" d="M578.275 290.904L584.271 368.28H602.145L601.86 293.472L578.275 290.904Z" fill="#089DAC"/>
<path id="path1546" d="M592.537 372.256L588.919 281.648L590.372 281.588L593.991 372.199L592.537 372.256Z" fill="#FACF90"/>
<path id="path1548" d="M607.785 317.377H575.205V315.921H607.785V317.377Z" fill="#FACF90"/>
<path id="path1550" d="M609.004 347.905H576.424V346.449H609.004V347.905Z" fill="#FACF90"/>
<path id="path1552" d="M772.672 377.068H813.292L819.003 276.803H774.969L772.672 377.068Z" fill="#FFECBF"/>
<path id="path1554" d="M809.259 372.935L814.497 280.935H779.144L777.035 372.935H809.259Z" fill="#EDB17D"/>
<path id="path1556" d="M807.644 371.281L812.695 282.588H780.815L778.781 371.281H807.644Z" fill="#0A7E89"/>
<path id="path1558" d="M808.267 290.904L802.269 368.28H784.396L784.681 293.472L808.267 290.904Z" fill="#089DAC"/>
<path id="path1560" d="M794.004 372.256L792.549 372.199L796.169 281.588L797.624 281.648L794.004 372.256Z" fill="#FACF90"/>
<path id="path1562" d="M778.755 317.377H811.336V315.922H778.755V317.377Z" fill="#FACF90"/>
<path id="path1564" d="M777.537 347.905H810.117V346.45H777.537V347.905Z" fill="#FACF90"/>
<path id="path1566" d="M819.636 257.117H773.468L775.861 151.339H825.907L819.636 257.117Z" fill="#FFECBF"/>
<path id="path1568" d="M778.417 252.757L780.615 155.699H820.796L815.041 252.757H778.417Z" fill="#EDB17D"/>
<path id="path1570" d="M780.399 251.014L782.516 157.443H818.751L813.203 251.014H780.399Z" fill="#0A7E89"/>
<path id="path1572" d="M786.813 166.216L786.773 247.847H807.088L813.393 168.924L786.813 166.216Z" fill="#089DAC"/>
<path id="path1574" d="M797.372 252.043L795.917 251.984L799.832 156.391L801.288 156.45L797.372 252.043Z" fill="#FACF90"/>
<path id="path1576" d="M818.073 194.105H781.045V192.649H818.073V194.105Z" fill="#FACF90"/>
<path id="path1578" d="M816.753 226.312H779.727V224.857H816.753V226.312Z" fill="#FACF90"/>
<path id="path1580" d="M736.696 257.117H647.896L645.689 151.339H738.905L736.696 257.117Z" fill="#FFECBF"/>
<path id="path1582" d="M653.333 252.757L651.307 155.699H733.287L731.26 252.757H653.333Z" fill="#EDB17D"/>
<path id="path1584" d="M655.507 251.014L653.555 157.443H731.04L729.085 251.014H655.507Z" fill="#0A7E89"/>
<path id="path1586" d="M658.859 166.216L662.621 247.847H721.972L725.472 168.924L658.859 166.216Z" fill="#089DAC"/>
<path id="path1588" d="M675.667 252.014H674.212V156.42H675.667V252.014Z" fill="#FACF90"/>
<path id="path1590" d="M710.096 252.014H708.64V156.42H710.096V252.014Z" fill="#FACF90"/>
<path id="path1592" d="M731.943 194.105H653.553V192.649H731.943V194.105Z" fill="#FACF90"/>
<path id="path1594" d="M731.943 226.312H653.553V224.857H731.943V226.312Z" fill="#FACF90"/>
<path id="path1596" d="M815.772 455.783H750.185V414.66H791.849L815.772 455.783Z" fill="#99434C"/>
<path id="path1598" d="M791.849 414.66H750.185V404.231H764.508L765.183 394.265H769.109L769.529 389.095L758.857 388.916L759.311 392.699H750.185V392.643L758.208 392.699L757.143 387.019H756.411V386.663L756.407 386.661L755.612 317.251L755.589 315.697H757.143L757.985 312.082L758.187 311.26H750.185H762.244L762.949 304.048H759.233L760.349 290.166L760.844 284.014H750.185H764.56L765.289 276.803L774.783 284.963L773.612 336.032L771.04 335.989L771.684 341.363H773.491L772.672 377.068H784.327L782.929 399.328L791.849 414.66Z" fill="#B3271B"/>
<path id="path1600" d="M769.109 394.266H765.183L765.289 392.699H759.311L758.857 388.916L769.529 389.095L769.109 394.266Z" fill="#A52316"/>
<path id="path1602" d="M773.491 341.363H771.684L771.04 335.989L773.612 336.032L773.491 341.363Z" fill="#A52316"/>
<path id="path1604" d="M784.327 377.068H772.672L773.491 341.363L773.612 336.032L774.783 284.963L778.969 288.561L777.643 346.449H777.537V347.905H777.609L777.035 372.935H784.585L784.327 377.068Z" fill="#BD6963"/>
<path id="path1606" d="M784.585 372.935H777.035L777.609 347.905H779.317L778.781 371.281H784.689L784.585 372.935ZM779.351 346.449H777.643L778.969 288.561L780.645 290.001L780.051 315.921H778.755V317.377H780.017L779.351 346.449Z" fill="#B04E41"/>
<path id="path1608" d="M784.689 371.281H778.781L779.317 347.905H784.473L784.396 368.28H784.877L784.689 371.281ZM784.479 346.449H779.351L780.017 317.377H784.589L784.479 346.449ZM784.596 315.921H780.051L780.645 290.001L784.681 293.472L784.596 315.921Z" fill="#073847"/>
<path id="path1610" d="M784.877 368.28H784.396L784.473 347.906H786.156L784.877 368.28ZM786.247 346.45H784.479L784.589 317.378H788.071L786.247 346.45ZM788.163 315.922H784.596L784.681 293.472L789.32 297.459L788.163 315.922Z" fill="#064659"/>
<path id="path1612" d="M788.071 317.377H778.755V315.921H788.163L788.071 317.377Z" fill="#B95C4B"/>
<path id="path1614" d="M786.156 347.905H777.537V346.449H786.247L786.156 347.905Z" fill="#B95C4B"/>
<path id="path1616" d="M610 411.196H614.531L613.329 418.876H611.311L608.949 462.397H604.621L604.971 411.196H610Z" fill="#EDB17D"/>
<path id="path1618" d="M604.621 462.397H581.581L580.264 418.876H605.939L604.621 462.397Z" fill="#FFECBF"/>
<path id="path1620" d="M609.535 418.876H576.668L576.204 411.196H610L609.535 418.876Z" fill="#FFECBF"/>
<path id="path1622" d="M606.111 399.328C606.111 392.774 600.796 387.459 594.241 387.459C587.687 387.459 582.372 392.774 582.372 399.328C582.372 405.883 587.687 411.196 594.241 411.196C600.796 411.196 606.111 405.883 606.111 399.328Z" fill="#FFECBF"/>
<path id="path1624" d="M601.617 392.804C601.933 393.77 602.147 394.782 602.147 395.852C602.147 401.312 597.72 405.739 592.26 405.739C589.311 405.739 586.695 404.422 584.883 402.375C586.173 406.335 589.852 409.215 594.241 409.215C599.701 409.215 604.128 404.788 604.128 399.328C604.128 396.815 603.163 394.548 601.617 392.804Z" fill="#EDB17D"/>
<path id="path1626" d="M580.264 418.876H605.939V424.451L580.396 423.22L580.264 418.876Z" fill="#EDB17D"/>
<path id="path1628" d="M586.907 457.452H599.491V422.148H586.104L586.907 457.452ZM600.461 458.421H585.96L585.111 421.179H600.461V458.421Z" fill="#FACF90"/>
<path id="path1630" d="M777.901 411.196H773.368L774.572 418.876H776.589L778.952 462.397H783.279L782.929 411.196H777.901Z" fill="#EDB17D"/>
<path id="path1632" d="M783.279 462.397H806.319L807.636 418.876H781.963L783.279 462.397Z" fill="#FFECBF"/>
<path id="path1634" d="M778.364 418.876H811.233L811.696 411.196H777.901L778.364 418.876Z" fill="#FFECBF"/>
<path id="path1636" d="M780.68 399.328C780.68 392.774 785.993 387.459 792.549 387.459C799.104 387.459 804.417 392.774 804.417 399.328C804.417 405.883 799.104 411.196 792.549 411.196C785.993 411.196 780.68 405.883 780.68 399.328Z" fill="#FFECBF"/>
<path id="path1638" d="M799.397 392.804C799.712 393.77 799.925 394.782 799.925 395.852C799.925 401.312 795.499 405.739 790.039 405.739C787.091 405.739 784.473 404.422 782.661 402.375C783.953 406.335 787.631 409.215 792.021 409.215C797.48 409.215 801.908 404.788 801.908 399.328C801.908 396.815 800.941 394.548 799.397 392.804Z" fill="#EDB17D"/>
<path id="path1640" d="M807.636 418.876H781.963V424.451L807.504 423.22L807.636 418.876Z" fill="#EDB17D"/>
<path id="path1642" d="M788.411 457.452H800.993L801.797 422.148H788.411V457.452ZM801.941 458.421H787.44V421.179H802.791L801.941 458.421Z" fill="#FACF90"/>
<path id="path1644" d="M764.56 284.014H620.373L619.644 276.803H765.289L764.56 284.014Z" fill="#FFECBF"/>
<path id="path1646" d="M762.244 311.26H622.691L621.984 304.048H762.949L762.244 311.26Z" fill="#FFECBF"/>
<path id="path1648" d="M759.233 304.048H625.7L624.089 284.014H760.844L759.233 304.048Z" fill="#FFECBF"/>
<path id="path1650" d="M754.089 299.968L630.969 299.23L629.829 288.058H755.349L754.089 299.968ZM628.756 287.088L630.092 300.195L754.963 300.944L756.428 287.088H628.756Z" fill="#EDB17D"/>
<path id="path1654" d="M760.349 290.166L756.108 290.119L756.428 287.088H628.756L628.921 288.712L624.463 288.663L624.089 284.014H760.844L760.349 290.166ZM755.132 290.108L629.897 288.723L629.829 288.058H755.349L755.132 290.108Z" fill="#E8A893"/>
<path id="path1656" d="M756.108 290.119L755.132 290.108L755.349 288.057H629.829L629.897 288.723L628.921 288.712L628.756 287.088H756.428L756.108 290.119Z" fill="#D87E60"/>
<path id="path1658" d="M757.143 387.019L758.208 392.699L739.111 392.565L740.264 387.019H741.285H756.411H757.143Z" fill="#FFECBF"/>
<path id="path1660" d="M758.187 311.26L757.985 312.082L739.467 312.28L739.221 311.26H758.187Z" fill="#EDB17D"/>
<path id="path1662" d="M757.985 312.081L757.143 315.697H740.264L739.467 312.28L757.985 312.081Z" fill="#FFECBF"/>
<path id="path1664" d="M755.612 317.251L756.411 387.019H741.285L742.084 317.007L755.612 317.251Z" fill="#FFECBF"/>
<path id="path1666" d="M755.589 315.698L755.612 317.251L742.084 317.007L742.107 315.698H755.589Z" fill="#EDB17D"/>
<path id="path1668" d="M741.285 387.019L752.627 386.201L752.413 316.807L754.467 317.007L754.927 386.132L756.411 386.663V387.019H741.285Z" fill="#EDB17D"/>
<path id="path1670" d="M645.568 387.019L646.633 392.699L627.536 392.565L628.691 387.019H629.711H644.836H645.568Z" fill="#FFECBF"/>
<path id="path1672" d="M646.612 311.26L646.412 312.082L627.891 312.28L627.647 311.26H646.612Z" fill="#EDB17D"/>
<path id="path1674" d="M646.412 312.081L645.568 315.697H628.691L627.891 312.28L646.412 312.081Z" fill="#FFECBF"/>
<path id="path1676" d="M644.037 317.251L644.836 387.019H629.711L630.509 317.007L644.037 317.251Z" fill="#FFECBF"/>
<path id="path1678" d="M644.015 315.698L644.037 317.251L630.509 317.007L630.532 315.698H644.015Z" fill="#EDB17D"/>
<path id="path1680" d="M629.711 387.019L641.052 386.201L640.839 316.807L642.892 317.007L643.353 386.132L644.836 386.663V387.019H629.711Z" fill="#EDB17D"/>
<path id="path1682" d="M764.508 404.231H624.871L624.089 392.699H765.289L764.508 404.231Z" fill="#E8BFAA"/>
<path id="path1684" d="M768.839 415.863H620.54L619.709 404.332H769.669L768.839 415.863Z" fill="#E8BFAA"/>
<path id="path1686" d="M773.169 427.498H616.209L615.331 415.966H774.048L773.169 427.498Z" fill="#E8BFAA"/>
<path id="path1688" d="M777.501 439.131H611.879L610.951 427.599H778.428L777.501 439.131Z" fill="#E8BFAA"/>
<path id="path1690" d="M781.832 450.764H607.547L606.572 439.232H782.807L781.832 450.764Z" fill="#E8BFAA"/>
<path id="path1692" d="M786.163 462.397H603.216L602.192 450.864H787.188L786.163 462.397Z" fill="#E8BFAA"/>
<path id="path1694" d="M624.539 399.328L764.663 401.944L764.508 404.231H624.871L624.539 399.328Z" fill="#CE9792"/>
<path id="path1696" d="M620.204 411.144L769.016 413.435L768.839 415.863H620.54L620.204 411.144Z" fill="#CE9792"/>
<path id="path1698" d="M615.868 422.962L773.368 424.926L773.169 427.498H616.209L615.868 422.962Z" fill="#CE9792"/>
<path id="path1700" d="M611.532 434.778L777.723 436.418L777.501 439.131H611.879L611.532 434.778Z" fill="#CE9792"/>
<path id="path1702" d="M607.197 446.592L782.076 447.909L781.832 450.764H607.547L607.197 446.592Z" fill="#CE9792"/>
<path id="path1704" d="M602.861 458.409L786.428 459.401L786.163 462.397H603.216L602.861 458.409Z" fill="#CE9792"/>
<path id="path1706" d="M652.173 392.804L654.304 317.251H732.023L734.153 392.699L652.173 392.804Z" fill="#FFB145"/>
<path id="path1708" d="M691.297 321.267V392.804H692.248L692.765 321.267H691.297Z" fill="#F09B39"/>
<path id="path1710" d="M659.989 322.432L656.476 391.853L727.885 391.748L725.255 322.432H659.989ZM655.455 392.823L655.481 392.312L659.067 321.463H726.188L726.207 321.929L728.895 392.719H728.389L655.455 392.823Z" fill="#F09B39"/>
<path id="path1712" d="M652.173 392.804L654.304 317.251H732.023L734.153 392.699H729.133L726.409 321.267H658.859L655.223 392.804H652.173Z" fill="#FFECBF"/>
<path id="path1714" d="M662.708 362.524H686.903V326.705H664.195L662.708 362.524ZM687.873 363.495H661.696L663.263 325.736H687.873V363.495Z" fill="#F09B39"/>
<path id="path1716" d="M661.633 388.429H686.903V368.765H662.448L661.633 388.429ZM687.873 389.4H660.62L661.517 367.796H687.873V389.4Z" fill="#F09B39"/>
<path id="path1718" d="M697.188 362.525H721.383L719.896 326.705H697.188V362.525ZM722.396 363.495H696.217V325.736H720.828L722.396 363.495Z" fill="#F09B39"/>
<path id="path1720" d="M697.188 388.429H722.459L721.64 368.765H697.188V388.429ZM723.471 389.4H696.217V367.796H722.575L723.471 389.4Z" fill="#F09B39"/>
<path id="path1722" d="M652.176 392.699H646.633L645.568 387.019H644.836V386.663L644.832 386.661L644.037 317.251L644.015 315.697H645.568L646.612 311.26H739.221L740.264 315.697H742.107L742.084 317.007L741.285 387.019H740.264L739.111 392.565H737.556L737.311 377.068H737.873L738.345 371.285L737.219 371.267L736.481 324.817L732.236 324.808L732.023 317.251H654.304L652.176 392.699Z" fill="#B3271B"/>
<path id="path1724" d="M737.873 377.068H737.311L737.219 371.267L738.345 371.285L737.873 377.068Z" fill="#A52316"/>
<path id="path1726" d="M741.285 387.019L742.084 317.007H742.092L741.285 387.019Z" fill="#BD6963"/>
<path id="path1728" d="M742.092 317.007H742.084L742.107 315.697L742.092 317.007Z" fill="#B04E41"/>
<path id="path1730" d="M644.832 386.662L644.033 317.251H644.037L644.832 386.662Z" fill="#BD6963"/>
<path id="path1732" d="M644.037 317.251H644.033L644.015 315.698L644.037 317.251Z" fill="#B04E41"/>
<path id="path1734" d="M644.836 387.019L644.832 386.661L644.836 386.663V387.019Z" fill="#B04E41"/>
<path id="path1736" d="M658.649 392.823L658.264 392.819H658.651L658.649 392.823ZM652.175 392.756L646.633 392.699H652.176L652.175 392.756Z" fill="#AC5558"/>
<path id="path1738" d="M655.457 392.79L655.224 392.788L658.859 321.267H691.297V321.463H659.067L655.481 392.312L655.457 392.79ZM656.476 391.854L659.989 322.432H691.297V324.716L662.708 324.652L658.708 391.85L656.476 391.854ZM726.543 324.795H726.316L726.207 321.93L726.188 321.463H692.764L692.765 321.267H726.409L726.543 324.795ZM725.344 324.792L692.741 324.719L692.757 322.432H725.255L725.344 324.792Z" fill="#BD4E24"/>
<path id="path1740" d="M692.741 324.719L691.297 324.716V322.432H692.757L692.741 324.719ZM692.764 321.463H691.297V321.267H692.765L692.764 321.463Z" fill="#B2451E"/>
<path id="path1742" d="M658.264 392.819L655.457 392.79L655.481 392.312L659.067 321.463H691.297H692.764H726.188L726.207 321.93L726.316 324.795L725.344 324.792L725.255 322.432H692.757H691.297H659.989L656.476 391.854L658.708 391.85L658.651 392.819H658.264Z" fill="#B2451E"/>
<path id="path1744" d="M655.224 392.788L652.175 392.756L654.304 317.251H732.023L732.236 324.808L726.543 324.795L726.409 321.267H692.765H691.297H658.859L655.224 392.788Z" fill="#BD6963"/>
</g>
</g>
</g>
<defs>
<linearGradient id="paint0_linear_34_5" x1="666.665" y1="422.772" x2="666.665" y2="-50.8622" gradientUnits="userSpaceOnUse">
<stop stop-color="#9F7172"/>
<stop offset="0.477671" stop-color="#397176"/>
<stop offset="1" stop-color="#006677"/>
</linearGradient>
</defs>
</svg>
